<svg xmlns="http://www.w3.org/2000/svg" width="57.3" height="102.314"><path d="M.672 56.237A45.34 45.34 0 0 0 7.667 76.15a62.941 62.941 0 0 0 16.546 16.869 25.303 25.303 0 0 1 3.931 2.81.46.46 0 0 1-.65-.005c-9.69-6.276-18.063-13.851-23.117-24.451-2.776-5.82-4.794-11.944-4.3-18.546.335-4.5.862-8.985 3.19-13.011a.527.527 0 0 1 .041.747 23.78 23.78 0 0 0-2.306 8.809c-.409.617.064 1.369-.306 1.992l-.022 1.607a6.71 6.71 0 0 0-.002 3.266z" fill="#d1976c"/><path d="m3.305 40.563-.041-.747c1.961-5.168 5.4-9.312 9.4-12.954 5.219-4.747 10.929-8.819 17.69-11.151 5.363-1.851 10.775-2.634 16.246-.376a1.44 1.44 0 0 1 .9.647c-1.175.183-1.982-.774-3.065-.962a28.787 28.787 0 0 0-19.714 3.729 61.6 61.6 0 0 0-14.208 11.063 48.735 48.735 0 0 0-7.208 10.751z" fill="#d09569"/><path d="M27.499 95.823h.65c.66.693 1.78.732 2.3 1.619a4.96 4.96 0 0 1-2.95-1.619z" fill="#e8cbb5"/><path d="M46.483 101.401c.415-.836 1.246-.823 2-.978a2.41 2.41 0 0 1-2 .978z" fill="#d39d74"/><path d="M46.482 101.4a8.54 8.54 0 0 1-7.366.153 90.58 90.58 0 0 1-8.671-4.107 18.06 18.06 0 0 1-2.569-1.543c-2.842-2.075-5.826-3.963-8.481-6.283C11.719 82.912 5.27 75.342 2.312 65.305A39.16 39.16 0 0 1 .35 55.974v-2.923a5.75 5.75 0 0 1 .114-1.6 5.243 5.243 0 0 0 .22-2.086 26.375 26.375 0 0 1 2.4-8.79c4.5-10.1 12.434-16.852 21.8-22.146a28.9 28.9 0 0 1 18.145-3.9 18.21 18.21 0 0 1 4.474 1.456c3.283 1.543 4.828 4.307 5.2 7.748a17.998 17.998 0 0 1-2.57 11.28c-2.246 3.793-4.744 7.442-6.9 11.286a28.48 28.48 0 0 0-4.068 13.952c-.017 4.732 2.28 8.448 4.892 12.027 2.8 3.832 5.73 7.561 7.329 12.1 1.364 3.873 2.021 7.8.7 11.834a6.706 6.706 0 0 1-3.609 4.2c-.612.451-1.4.518-1.995.988z" fill="#c1773f"/><path d="M57.297 6.055c-.12 3.644-2.181 5.982-5.178 5.875-3.437-.123-5.667-2.642-5.586-6.31A5.5 5.5 0 0 1 52.072.007a5.91 5.91 0 0 1 5.225 6.048z" fill="#c37941"/><path d="M35.354 96.792c-7.363-3.862-14.277-8.335-19.934-14.541-5.938-6.516-9.946-14.041-11.1-22.8-1.286-9.759 1.849-18.264 8.184-25.722 4.6-5.412 10.317-9.311 16.519-12.539a23.943 23.943 0 0 1 11.765-2.91 12.14 12.14 0 0 1 2.737.4c4.167 1.077 5.917 4.161 5.116 8.435-.684 3.647-2.592 6.661-4.484 9.706-2.953 4.753-6.124 9.341-8 14.724-2.949 8.469-1.484 16.016 3.912 23 2.89 3.739 5.894 7.413 7.374 12.032a13.87 13.87 0 0 1 .645 7.991 3.39 3.39 0 0 1-.589 1.323 10.23 10.23 0 0 1-6.584 3.527c-1.225-.488-2.354-1.188-3.6-1.638-.55-.539-1.351-.574-1.961-.988z" fill="#f6cf5a"/><path d="M37.314 97.777a7.59 7.59 0 0 1 3.6 1.638 7.724 7.724 0 0 1-3.6-1.638z" fill="#dda64d"/><path d="M.671 56.236a3.73 3.73 0 0 1 0-3.266v3.266z" fill="#d09569"/><path d="M35.355 96.794a2.09 2.09 0 0 1 1.959.985c-.708-.222-1.537-.199-1.959-.985z" fill="#dda64d"/><path d="M.694 51.364c.076-.668-.276-1.4.306-1.992-.075.668.225 1.394-.306 1.992z" fill="#d09569"/><path d="M49.095 5.738a3.13 3.13 0 0 1 3.4-3.113c1.648-.006 3.456 1.627 3.447 3.113a3.65 3.65 0 0 1-3.3 3.748c-2.241-.016-3.54-1.392-3.547-3.748z" fill="#f4cc5a"/><path d="M7.55 49.347c-.145-5.047 1.886-8.781 4.4-12.332a35.25 35.25 0 0 1 21.317-14.243 14.39 14.39 0 0 1 6.268-.182c3.685.755 5.714 4.2 4.874 8.277a12.98 12.98 0 0 1-4.384 7.443c-.566.485-1.214 1.251-1.966.689-.829-.62-.521-1.611-.068-2.372a12.69 12.69 0 0 0 2.007-5.1c.449-3.9-1.654-4.3-4.177-3.482a36.24 36.24 0 0 0-10.739 5.389 33.47 33.47 0 0 0-8.9 9.178c-2.279 3.769-3.927 7.741-3.76 12.275a40.55 40.55 0 0 1-.042 4.733c-.07.881-.239 2-1.407 2.125-1.107.122-1.588-.815-1.968-1.665a18.225 18.225 0 0 1-1.09-5.236c-.249-1.977-.273-3.996-.365-5.497z" fill="#feeab0"/><path d="M46.83 91.99a6.846 6.846 0 0 1-3.194 5.343 2.07 2.07 0 0 1-2.8-.419 1.68 1.68 0 0 1-.114-2.355c1.457-2.4 2.038-4.858.933-7.606a1.76 1.76 0 0 1 .707-2.429c1.059-.507 1.668.353 2.135 1.029a15.26 15.26 0 0 1 2.333 6.437zM13.779 66.885a1.81 1.81 0 0 1-1.832 2.034c-1.044.118-2.519-1.544-2.394-2.65.12-1.062.5-2.068 1.8-2.112a2.58 2.58 0 0 1 2.426 2.728z" fill="#fee9ad"/><path d="M53.672 3.907a2.926 2.926 0 0 1 1.349 1.556c.31.599.167 1.333-.345 1.772-.629.534-1.193.212-1.726-.267-.4-.361-.877-.638-1.283-.994a1.584 1.584 0 0 1-.344-2.318 1.416 1.416 0 0 1 2.349.251c-.411.548-1.521-.262-1.6.694-.067.859.8 1.216 1.413 1.648a.414.414 0 0 0 .5.023c.495-.836-.959-1.478-.313-2.365z" fill="#fade89"/><path d="M53.673 3.907c.035.751.748 1.171.9 1.864a1.04 1.04 0 0 1-.27 1.18c-.414.315-.683-.031-.972-.267a10.517 10.517 0 0 1-1.366-1.115c-.372-.429-.8-.977-.381-1.594.37-.538.924-.428 1.461-.22.204.065.412.115.623.151z" fill="#feeab0"/></svg>