<svg xmlns="http://www.w3.org/2000/svg" width="57.3" height="102.314" viewBox="0 0 57.3 102.314">
  <g id="Left_Arrow" data-name="Left Arrow" transform="translate(0 0)">
    <path id="Path_5887" data-name="Path 5887" d="M181.653,296.426a45.342,45.342,0,0,0,6.995,19.913,62.955,62.955,0,0,0,16.546,16.869,25.285,25.285,0,0,1,3.931,2.81.458.458,0,0,1-.65-.005c-9.69-6.276-18.063-13.851-23.117-24.451-2.776-5.82-4.794-11.944-4.3-18.546.335-4.5.862-8.985,3.19-13.011a.525.525,0,0,1,.041.747,23.78,23.78,0,0,0-2.306,8.809c-.409.617.064,1.369-.306,1.992l-.022,1.607A6.711,6.711,0,0,0,181.653,296.426Z" transform="translate(-180.981 -240.189)" fill="#d1976c"/>
    <path id="Path_5888" data-name="Path 5888" d="M188.515,247.244q-.02-.373-.041-.747c1.961-5.168,5.4-9.312,9.4-12.954,5.219-4.747,10.929-8.819,17.69-11.151,5.363-1.851,10.775-2.634,16.246-.376a1.441,1.441,0,0,1,.9.647c-1.175.183-1.982-.774-3.065-.962a28.786,28.786,0,0,0-19.714,3.729,61.6,61.6,0,0,0-14.208,11.063A48.736,48.736,0,0,0,188.515,247.244Z" transform="translate(-185.21 -206.681)" fill="#d09569"/>
    <path id="Path_5891" data-name="Path 5891" d="M244.1,408.574l.65,0c.66.693,1.78.732,2.3,1.619A4.958,4.958,0,0,1,244.1,408.574Z" transform="translate(-216.601 -312.751)" fill="#e8cbb5"/>
    <path id="Path_5892" data-name="Path 5892" d="M287.686,420.111c.415-.836,1.246-.823,2-.978A2.408,2.408,0,0,1,287.686,420.111Z" transform="translate(-241.203 -318.71)" fill="#d39d74"/>
    <g id="Group_2337" data-name="Group 2337" transform="translate(0.35)">
      <path id="Path_5883" data-name="Path 5883" d="M227.917,308.549a8.538,8.538,0,0,1-7.366.153,90.578,90.578,0,0,1-8.671-4.107,18.062,18.062,0,0,1-2.569-1.543c-2.842-2.075-5.826-3.963-8.481-6.283-7.676-6.708-14.125-14.278-17.083-24.315a39.161,39.161,0,0,1-1.962-9.331V260.2a5.752,5.752,0,0,1,.114-1.6,5.237,5.237,0,0,0,.22-2.086,26.385,26.385,0,0,1,2.4-8.79c4.5-10.1,12.434-16.852,21.8-22.146a28.9,28.9,0,0,1,18.145-3.9,18.21,18.21,0,0,1,4.474,1.456c3.283,1.543,4.828,4.307,5.2,7.748a17.994,17.994,0,0,1-2.57,11.28c-2.246,3.793-4.744,7.442-6.9,11.286A28.479,28.479,0,0,0,220.6,267.4c-.017,4.732,2.28,8.448,4.892,12.027,2.8,3.832,5.73,7.561,7.329,12.1,1.364,3.873,2.021,7.8.7,11.834a6.706,6.706,0,0,1-3.609,4.2C229.3,308.012,228.512,308.079,227.917,308.549Z" transform="translate(-181.785 -207.149)" fill="#c1773f"/>
      <path id="Path_5886" data-name="Path 5886" d="M298.562,194.66c-.12,3.644-2.181,5.982-5.178,5.875-3.437-.123-5.667-2.642-5.586-6.31a5.5,5.5,0,0,1,5.539-5.613A5.91,5.91,0,0,1,298.562,194.66Z" transform="translate(-241.615 -188.605)" fill="#c37941"/>
      <path id="Path_5893" data-name="Path 5893" d="M221.566,309.07c-7.363-3.862-14.277-8.335-19.934-14.541-5.938-6.516-9.946-14.041-11.1-22.8-1.286-9.759,1.849-18.264,8.184-25.722,4.6-5.412,10.317-9.311,16.519-12.539A23.943,23.943,0,0,1,227,230.558a12.141,12.141,0,0,1,2.737.4c4.167,1.077,5.917,4.161,5.116,8.435-.684,3.647-2.592,6.661-4.484,9.706-2.953,4.753-6.124,9.341-8,14.724-2.949,8.469-1.484,16.016,3.912,23,2.89,3.739,5.894,7.413,7.374,12.032a13.87,13.87,0,0,1,.645,7.991,3.39,3.39,0,0,1-.589,1.323,10.23,10.23,0,0,1-6.584,3.527c-1.225-.488-2.354-1.188-3.6-1.638h0C222.977,309.519,222.176,309.484,221.566,309.07Z" transform="translate(-186.562 -212.278)" fill="#f6cf5a"/>
    </g>
    <path id="Path_5894" data-name="Path 5894" d="M266.638,413.059a7.592,7.592,0,0,1,3.6,1.638A7.726,7.726,0,0,1,266.638,413.059Z" transform="translate(-229.324 -315.282)" fill="#dda64d"/>
    <path id="Path_5895" data-name="Path 5895" d="M182.034,313.468a3.727,3.727,0,0,1,0-3.266Q182.034,311.835,182.034,313.468Z" transform="translate(-181.363 -257.232)" fill="#d09569"/>
    <path id="Path_5896" data-name="Path 5896" d="M262.14,410.8a2.088,2.088,0,0,1,1.959.985C263.391,411.563,262.562,411.586,262.14,410.8Z" transform="translate(-226.785 -314.006)" fill="#dda64d"/>
    <path id="Path_5897" data-name="Path 5897" d="M182.525,303.934c.076-.668-.276-1.4.306-1.992C182.756,302.61,183.056,303.336,182.525,303.934Z" transform="translate(-181.831 -252.57)" fill="#d09569"/>
    <path id="Path_5900" data-name="Path 5900" d="M293.682,197.744a3.129,3.129,0,0,1,3.4-3.113c1.648-.006,3.456,1.627,3.447,3.113a3.65,3.65,0,0,1-3.3,3.748C294.988,201.476,293.689,200.1,293.682,197.744Z" transform="translate(-244.587 -192.006)" fill="#f4cc5a"/>
    <path id="Path_5902" data-name="Path 5902" d="M198.3,266.88c-.145-5.047,1.886-8.781,4.4-12.332a35.251,35.251,0,0,1,21.317-14.243,14.388,14.388,0,0,1,6.268-.182c3.685.755,5.714,4.2,4.874,8.277a12.982,12.982,0,0,1-4.384,7.443c-.566.485-1.214,1.251-1.966.689-.829-.62-.521-1.611-.068-2.372a12.688,12.688,0,0,0,2.007-5.1c.449-3.9-1.654-4.3-4.177-3.482a36.242,36.242,0,0,0-10.739,5.389,33.468,33.468,0,0,0-8.9,9.178c-2.279,3.769-3.927,7.741-3.76,12.275a40.549,40.549,0,0,1-.042,4.733c-.07.881-.239,2-1.407,2.125-1.107.122-1.588-.815-1.968-1.665a18.236,18.236,0,0,1-1.09-5.236C198.416,270.4,198.392,268.381,198.3,266.88Z" transform="translate(-190.75 -217.533)" fill="#feeab0"/>
    <path id="Path_5903" data-name="Path 5903" d="M280.018,389.907a6.846,6.846,0,0,1-3.194,5.343,2.072,2.072,0,0,1-2.8-.419,1.678,1.678,0,0,1-.114-2.355c1.457-2.4,2.038-4.858.933-7.606a1.758,1.758,0,0,1,.707-2.429c1.059-.507,1.668.353,2.135,1.029A15.267,15.267,0,0,1,280.018,389.907Z" transform="translate(-233.188 -297.917)" fill="#fee9ad"/>
    <path id="Path_5904" data-name="Path 5904" d="M207.128,338.609a1.809,1.809,0,0,1-1.832,2.034c-1.044.118-2.519-1.544-2.394-2.65.12-1.062.5-2.068,1.8-2.112A2.581,2.581,0,0,1,207.128,338.609Z" transform="translate(-193.349 -271.724)" fill="#fee9ad"/>
    <path id="Path_5908" data-name="Path 5908" d="M300.67,196.58a2.927,2.927,0,0,1,1.349,1.556,1.453,1.453,0,0,1-.345,1.772c-.629.534-1.193.212-1.726-.267-.4-.361-.877-.638-1.283-.994a1.587,1.587,0,0,1-.344-2.318,1.414,1.414,0,0,1,2.349.251c-.411.548-1.521-.262-1.6.694-.067.859.8,1.216,1.413,1.648a.414.414,0,0,0,.5.023C301.478,198.109,300.024,197.467,300.67,196.58Z" transform="translate(-246.998 -192.673)" fill="#fade89"/>
    <path id="Path_5918" data-name="Path 5918" d="M301.263,197.156c.035.751.748,1.171.9,1.864a1.041,1.041,0,0,1-.27,1.18c-.414.315-.683-.031-.972-.267a10.546,10.546,0,0,1-1.366-1.115c-.372-.429-.8-.977-.381-1.594.37-.538.924-.428,1.461-.22a4.634,4.634,0,0,0,.623.151Z" transform="translate(-247.59 -193.249)" fill="#feeab0"/>
  </g>
</svg>
