<svg xmlns="http://www.w3.org/2000/svg" width="559.157" height="2224.7825" viewBox="0 0 559.157 949.855">
  <g id="Group_17018" data-name="Group 17018" transform="translate(65.579 -1970.643)">
    <g id="Group_16952" data-name="Group 16952" transform="matrix(0.602, 0.799, -0.799, 0.602, 23.056, 1970.643)">
      <path id="Path_24972" data-name="Path 24972" d="M6.744,268.091a20.9,20.9,0,0,0-3.694-.808,15.069,15.069,0,0,1-2.41-.529,1.868,1.868,0,0,0-.362-.079c-.136-.023-.26-.034-.4-.045a27.688,27.688,0,0,0-5.629-.51,26.492,26.492,0,0,1-4.541-.238,4.142,4.142,0,0,0-.917,0c-2.752.079-5.515-.091-8.267-.011-4.53-.147-9.049.125-13.568.26a119.247,119.247,0,0,0-13.035.4c-2.537.227-5.085.011-7.633.113a5.713,5.713,0,0,1-1.246-.068,1.462,1.462,0,0,0-.385-.011A35.5,35.5,0,0,1-62.962,266c.147-.7.634-.883,1.031-1.1a29.06,29.06,0,0,1,4.383-1.925c.442-.159,6.075-2.391,5.8-6.738s.08-5.947-.577-6.128c-.612.227-6.4,2.481-7.009,2.73-2.684,1.121-5.368,2.265-8.041,3.4-1.28.544-2.514,1.2-3.737,1.857a6.313,6.313,0,0,0-.929.8,15.783,15.783,0,0,0-2.4,2.945c-.272,1-.974,1.823-1.189,2.831a24.364,24.364,0,0,0-.408,2.412,4.565,4.565,0,0,0,.838,2.786,12.111,12.111,0,0,0,.963,1.427,3.158,3.158,0,0,0,.77.781,34.163,34.163,0,0,0,5.379,2.707c1.382.1,2.492,1.008,3.851,1.212,1.291.193,2.559.51,3.862.646,1.053.113,2.1.317,3.137.532a17.685,17.685,0,0,0,4.009.442,5.782,5.782,0,0,1,2.2.193,2.6,2.6,0,0,0,.736.045,8.06,8.06,0,0,1,1.948.181,7.885,7.885,0,0,0,1.721.068c.883.023,8.131.849,8.267.849,9.049.6,18.109,1.042,27.158,1.484.6-.113,11.54.623,11.971.7,1.733.294,3.454.623,5.176.951a3.228,3.228,0,0,1,.476.1c1.382.521,2.763,1.031,4.134,1.574.646.249,1.291.532,1.925.827a16.171,16.171,0,0,1,5.1,3.794,17.276,17.276,0,0,1,4.009,6.84,10.846,10.846,0,0,1,.464,2.9,22.338,22.338,0,0,1-.272,3.794.807.807,0,0,1-.045.238c-.487.917-1.633,4.236-2.163,4.757-.3.3-3.358,8.67,0,16.323,1.736,3.963,9.391,14.038,24.966,18.671,37.236,11.077,135.916,13.929,158.824,16.972,53.052,7.047,62.831-4.369,63.556-11.888.215-2.217.531-3.537-.791-4.716s-2.144-1.243-4.5,0c-5.569,2.941-18.839,8.25-41.757,7.612-42.958-1.2-111.443-14.624-146.7-21.475C25.109,319.076,43,297.127,42.974,296.857c-.079-.929-.249-1.857-.385-2.786-.1-.646-.249-1.28-.328-1.937a10.8,10.8,0,0,0-1.076-3c-.181-.408-.4-.8-.589-1.212a15.077,15.077,0,0,0-2.174-3.42c-.555-.657-1.042-1.37-1.529-2.073a10.8,10.8,0,0,0-2.82-3.046c-.544-.351-.985-.849-1.506-1.257A28.693,28.693,0,0,0,27.1,274.6c-.883-.43-1.744-.906-2.639-1.314-.7-.317-1.45-.555-2.174-.838-1.45-.566-2.9-1.155-4.36-1.676-.883-.317-1.8-.566-2.707-.8C14.151,269.688,7.163,268.2,6.744,268.091Z" transform="translate(76.06 -250.106)" fill="#f4faff"/>
      <path id="Path_24977" data-name="Path 24977" d="M447.875,328.005a19.831,19.831,0,0,1,2.7.634,9.038,9.038,0,0,0,1.744.464,2.972,2.972,0,0,1,1.812.838,4.108,4.108,0,0,1,1.937.714,1,1,0,0,1,.94.091c.8.419,1.608.838,2.424,1.212a19.989,19.989,0,0,0,4.825,1.8,8.851,8.851,0,0,0,4.145-.113,2.78,2.78,0,0,0,1.971-2.446,2.913,2.913,0,0,0-.487-1.869,10.888,10.888,0,0,0-2.843-3.046,28.33,28.33,0,0,0-5.345-3.046c-.827-.362-1.687-.646-2.526-.963a1.534,1.534,0,0,1-.827-.5,1.137,1.137,0,0,0-.657-.351c-1.348-.532-2.82-.634-4.156-1.178-.181-.227-1.246-.1-1.6-.193-1.665-.43-3.4-.419-5.074-.793a.787.787,0,0,0-.532.057,2.521,2.521,0,0,1-1.257.17c-1.359.079-2.707-.215-4.054-.249-2.208-.068-3.4.725-3.862,2.492-.374,1.45.442,2.933,2.14,3.885.43.215.895.351,1.336.544.34.2,1.631.215,2.208.476.634.272,1.3.5,1.948.747A13.312,13.312,0,0,0,447.875,328.005Z" transform="translate(-381.99 -284.912)" fill="#f4faff"/>
      <path id="Path_24977-2" data-name="Path 24977" d="M18.694,4.935a16.468,16.468,0,0,1-2.238-.527,7.506,7.506,0,0,0-1.448-.386,2.468,2.468,0,0,1-1.5-.7,3.411,3.411,0,0,1-1.608-.592.826.826,0,0,1-.781-.075c-.668-.348-1.335-.7-2.013-1.006A16.6,16.6,0,0,0,5.095.158,7.35,7.35,0,0,0,1.653.252,2.308,2.308,0,0,0,.017,2.283a2.419,2.419,0,0,0,.4,1.552,9.041,9.041,0,0,0,2.36,2.53A23.526,23.526,0,0,0,7.22,8.894c.687.3,1.4.536,2.1.8a1.274,1.274,0,0,1,.687.414.944.944,0,0,0,.545.292c1.119.442,2.342.527,3.451.978.15.188,1.034.085,1.326.16,1.382.357,2.821.348,4.213.658a.654.654,0,0,0,.442-.047,2.093,2.093,0,0,1,1.044-.141c1.129-.066,2.248.179,3.367.207,1.834.056,2.821-.6,3.207-2.069.31-1.2-.367-2.436-1.777-3.226-.357-.179-.743-.292-1.11-.451-.282-.169-1.354-.179-1.834-.395-.527-.226-1.082-.414-1.618-.621A11.054,11.054,0,0,0,18.694,4.935Z" transform="translate(294.552 88.466) rotate(-22)" fill="#f4faff"/>
      <path id="Path_24984" data-name="Path 24984" d="M572.1,319.13a11.384,11.384,0,0,0,3.647-.476,3.339,3.339,0,0,0,.895-.385,1.141,1.141,0,0,0,.023-1.959,4.823,4.823,0,0,0-1.8-.781,25.055,25.055,0,0,0-5.357-.6,2.221,2.221,0,0,0-.94.238.741.741,0,0,0-.5.646,1.641,1.641,0,0,1-.487.963.92.92,0,0,0,.249,1.472,4.03,4.03,0,0,0,.77.374A9.48,9.48,0,0,0,572.1,319.13Z" transform="translate(-553.488 -282.741)" fill="#f4faff"/>
    </g>
    <g id="Group_17017" data-name="Group 17017" transform="matrix(-0.602, 0.799, -0.799, -0.602, 493.578, 2696.434)">
      <path id="Path_24972-2" data-name="Path 24972" d="M82.8,93a20.9,20.9,0,0,1-3.694.808,15.068,15.068,0,0,0-2.41.529,1.868,1.868,0,0,1-.362.079c-.136.023-.26.034-.4.045a27.688,27.688,0,0,1-5.629.51,26.492,26.492,0,0,0-4.541.238,4.142,4.142,0,0,1-.917,0c-2.752-.079-5.515.091-8.267.011-4.53.147-9.049-.125-13.568-.26a119.247,119.247,0,0,1-13.035-.4c-2.537-.227-5.085-.011-7.633-.113a5.713,5.713,0,0,0-1.246.068,1.462,1.462,0,0,1-.385.011,35.5,35.5,0,0,0-7.622.566c.147.7.634.883,1.031,1.1a29.06,29.06,0,0,0,4.383,1.925c.442.159,6.075,2.391,5.8,6.738s.08,5.947-.577,6.128c-.612-.227-6.4-2.481-7.009-2.73-2.684-1.121-5.368-2.265-8.041-3.4-1.28-.544-2.514-1.2-3.737-1.857a6.313,6.313,0,0,1-.929-.8,15.783,15.783,0,0,1-2.4-2.945c-.272-1-.974-1.823-1.189-2.831a24.364,24.364,0,0,1-.408-2.412,4.565,4.565,0,0,1,.838-2.786,12.111,12.111,0,0,1,.963-1.427,3.158,3.158,0,0,1,.77-.781A34.163,34.163,0,0,1,7.968,86.3c1.382-.1,2.492-1.008,3.851-1.212,1.291-.193,2.559-.51,3.862-.646,1.053-.113,2.1-.317,3.137-.532a17.685,17.685,0,0,1,4.009-.442,5.782,5.782,0,0,0,2.2-.193,2.6,2.6,0,0,1,.736-.045,8.06,8.06,0,0,0,1.948-.181,7.885,7.885,0,0,1,1.721-.068c.883-.023,8.131-.849,8.267-.849,9.049-.6,18.109-1.042,27.158-1.484.6.113,11.54-.623,11.971-.7,1.733-.294,3.454-.623,5.176-.951a3.228,3.228,0,0,0,.476-.1c1.382-.521,2.763-1.031,4.134-1.574.646-.249,1.291-.532,1.925-.827a16.171,16.171,0,0,0,5.1-3.794,17.276,17.276,0,0,0,4.009-6.84,10.846,10.846,0,0,0,.464-2.9,22.338,22.338,0,0,0-.272-3.794.807.807,0,0,0-.045-.238c-.487-.917-1.633-4.236-2.163-4.757-.3-.3-3.358-8.67,0-16.323,1.736-3.963,9.391-14.038,24.966-18.671C157.827,8.1,256.507,5.251,279.414,2.209c53.052-7.047,62.831,4.369,63.556,11.888.215,2.217.531,3.537-.791,4.716s-2.144,1.243-4.5,0c-5.569-2.941-18.839-8.25-41.757-7.612-42.958,1.2-111.443,14.624-146.7,21.475-48.051,9.336-30.158,31.285-30.186,31.555-.079.929-.249,1.857-.385,2.786-.1.646-.249,1.28-.328,1.937a10.8,10.8,0,0,1-1.076,3c-.181.408-.4.8-.589,1.212a15.077,15.077,0,0,1-2.174,3.42c-.555.657-1.042,1.37-1.529,2.072a10.8,10.8,0,0,1-2.82,3.046c-.544.351-.985.849-1.506,1.257a28.693,28.693,0,0,1-5.47,3.522c-.883.43-1.744.906-2.639,1.314-.7.317-1.45.555-2.174.838-1.45.566-2.9,1.155-4.36,1.676-.883.317-1.8.566-2.707.8C90.211,91.4,83.224,92.884,82.8,93Z" transform="translate(0 0)" fill="#f4faff"/>
      <path id="Path_24977-3" data-name="Path 24977" d="M10.814,5.943a19.831,19.831,0,0,0,2.7-.634,9.038,9.038,0,0,1,1.744-.464,2.972,2.972,0,0,0,1.812-.838A4.108,4.108,0,0,0,19,3.293a1,1,0,0,0,.94-.091c.8-.419,1.608-.838,2.424-1.212A19.989,19.989,0,0,1,27.191.19,8.851,8.851,0,0,1,31.336.3,2.78,2.78,0,0,1,33.306,2.75a2.913,2.913,0,0,1-.487,1.869,10.888,10.888,0,0,1-2.843,3.046,28.33,28.33,0,0,1-5.345,3.046c-.827.362-1.687.646-2.526.963a1.534,1.534,0,0,0-.827.5,1.137,1.137,0,0,1-.657.351c-1.348.532-2.82.634-4.156,1.178-.181.227-1.246.1-1.6.193-1.665.43-3.4.419-5.074.793a.787.787,0,0,1-.532-.057,2.521,2.521,0,0,0-1.257-.17c-1.359-.079-2.707.215-4.054.249-2.208.068-3.4-.725-3.862-2.492-.374-1.45.442-2.933,2.14-3.885.43-.215.895-.351,1.336-.544.34-.2,1.631-.215,2.208-.476.634-.272,1.3-.5,1.948-.747A13.312,13.312,0,0,1,10.814,5.943Z" transform="translate(55.071 61.946)" fill="#f4faff"/>
      <path id="Path_24977-4" data-name="Path 24977" d="M18.694,7.282a16.468,16.468,0,0,0-2.238.527,7.506,7.506,0,0,1-1.448.386,2.468,2.468,0,0,0-1.5.7,3.411,3.411,0,0,0-1.608.592.826.826,0,0,0-.781.075c-.668.348-1.335.7-2.013,1.006a16.6,16.6,0,0,1-4.006,1.5,7.35,7.35,0,0,1-3.442-.094A2.308,2.308,0,0,1,.017,9.934a2.419,2.419,0,0,1,.4-1.552,9.041,9.041,0,0,1,2.36-2.53A23.526,23.526,0,0,1,7.22,3.323c.687-.3,1.4-.536,2.1-.8A1.274,1.274,0,0,0,10,2.11a.944.944,0,0,1,.545-.292C11.669,1.376,12.891,1.292,14,.84c.15-.188,1.034-.085,1.326-.16C16.709.323,18.148.333,19.54.022a.654.654,0,0,1,.442.047A2.093,2.093,0,0,0,21.026.21C22.155.276,23.274.032,24.393,0c1.834-.056,2.821.6,3.207,2.069.31,1.2-.367,2.436-1.777,3.226-.357.179-.743.292-1.11.451-.282.169-1.354.179-1.834.395-.527.226-1.082.414-1.618.621A11.054,11.054,0,0,1,18.694,7.282Z" transform="translate(299.129 11.189) rotate(22)" fill="#f4faff"/>
      <path id="Path_24984-2" data-name="Path 24984" d="M4.784.013A11.384,11.384,0,0,1,8.43.489a3.339,3.339,0,0,1,.895.385,1.141,1.141,0,0,1,.023,1.959,4.823,4.823,0,0,1-1.8.781,25.055,25.055,0,0,1-5.357.6,2.221,2.221,0,0,1-.94-.238.741.741,0,0,1-.5-.646,1.641,1.641,0,0,0-.487-.963A.92.92,0,0,1,.514.9a4.03,4.03,0,0,1,.77-.374A9.48,9.48,0,0,1,4.784.013Z" transform="translate(13.83 74.581)" fill="#f4faff"/>
    </g>
    <g id="Group_16952" data-name="Group 16952" transform="matrix(0.602, 0.799, -0.799, 0.602, 23.056, 3360.9645)">
      <path id="Path_24972" data-name="Path 24972" d="M6.744,268.091a20.9,20.9,0,0,0-3.694-.808,15.069,15.069,0,0,1-2.41-.529,1.868,1.868,0,0,0-.362-.079c-.136-.023-.26-.034-.4-.045a27.688,27.688,0,0,0-5.629-.51,26.492,26.492,0,0,1-4.541-.238,4.142,4.142,0,0,0-.917,0c-2.752.079-5.515-.091-8.267-.011-4.53-.147-9.049.125-13.568.26a119.247,119.247,0,0,0-13.035.4c-2.537.227-5.085.011-7.633.113a5.713,5.713,0,0,1-1.246-.068,1.462,1.462,0,0,0-.385-.011A35.5,35.5,0,0,1-62.962,266c.147-.7.634-.883,1.031-1.1a29.06,29.06,0,0,1,4.383-1.925c.442-.159,6.075-2.391,5.8-6.738s.08-5.947-.577-6.128c-.612.227-6.4,2.481-7.009,2.73-2.684,1.121-5.368,2.265-8.041,3.4-1.28.544-2.514,1.2-3.737,1.857a6.313,6.313,0,0,0-.929.8,15.783,15.783,0,0,0-2.4,2.945c-.272,1-.974,1.823-1.189,2.831a24.364,24.364,0,0,0-.408,2.412,4.565,4.565,0,0,0,.838,2.786,12.111,12.111,0,0,0,.963,1.427,3.158,3.158,0,0,0,.77.781,34.163,34.163,0,0,0,5.379,2.707c1.382.1,2.492,1.008,3.851,1.212,1.291.193,2.559.51,3.862.646,1.053.113,2.1.317,3.137.532a17.685,17.685,0,0,0,4.009.442,5.782,5.782,0,0,1,2.2.193,2.6,2.6,0,0,0,.736.045,8.06,8.06,0,0,1,1.948.181,7.885,7.885,0,0,0,1.721.068c.883.023,8.131.849,8.267.849,9.049.6,18.109,1.042,27.158,1.484.6-.113,11.54.623,11.971.7,1.733.294,3.454.623,5.176.951a3.228,3.228,0,0,1,.476.1c1.382.521,2.763,1.031,4.134,1.574.646.249,1.291.532,1.925.827a16.171,16.171,0,0,1,5.1,3.794,17.276,17.276,0,0,1,4.009,6.84,10.846,10.846,0,0,1,.464,2.9,22.338,22.338,0,0,1-.272,3.794.807.807,0,0,1-.045.238c-.487.917-1.633,4.236-2.163,4.757-.3.3-3.358,8.67,0,16.323,1.736,3.963,9.391,14.038,24.966,18.671,37.236,11.077,135.916,13.929,158.824,16.972,53.052,7.047,62.831-4.369,63.556-11.888.215-2.217.531-3.537-.791-4.716s-2.144-1.243-4.5,0c-5.569,2.941-18.839,8.25-41.757,7.612-42.958-1.2-111.443-14.624-146.7-21.475C25.109,319.076,43,297.127,42.974,296.857c-.079-.929-.249-1.857-.385-2.786-.1-.646-.249-1.28-.328-1.937a10.8,10.8,0,0,0-1.076-3c-.181-.408-.4-.8-.589-1.212a15.077,15.077,0,0,0-2.174-3.42c-.555-.657-1.042-1.37-1.529-2.073a10.8,10.8,0,0,0-2.82-3.046c-.544-.351-.985-.849-1.506-1.257A28.693,28.693,0,0,0,27.1,274.6c-.883-.43-1.744-.906-2.639-1.314-.7-.317-1.45-.555-2.174-.838-1.45-.566-2.9-1.155-4.36-1.676-.883-.317-1.8-.566-2.707-.8C14.151,269.688,7.163,268.2,6.744,268.091Z" transform="translate(76.06 -250.106)" fill="#f4faff"/>
      <path id="Path_24977" data-name="Path 24977" d="M447.875,328.005a19.831,19.831,0,0,1,2.7.634,9.038,9.038,0,0,0,1.744.464,2.972,2.972,0,0,1,1.812.838,4.108,4.108,0,0,1,1.937.714,1,1,0,0,1,.94.091c.8.419,1.608.838,2.424,1.212a19.989,19.989,0,0,0,4.825,1.8,8.851,8.851,0,0,0,4.145-.113,2.78,2.78,0,0,0,1.971-2.446,2.913,2.913,0,0,0-.487-1.869,10.888,10.888,0,0,0-2.843-3.046,28.33,28.33,0,0,0-5.345-3.046c-.827-.362-1.687-.646-2.526-.963a1.534,1.534,0,0,1-.827-.5,1.137,1.137,0,0,0-.657-.351c-1.348-.532-2.82-.634-4.156-1.178-.181-.227-1.246-.1-1.6-.193-1.665-.43-3.4-.419-5.074-.793a.787.787,0,0,0-.532.057,2.521,2.521,0,0,1-1.257.17c-1.359.079-2.707-.215-4.054-.249-2.208-.068-3.4.725-3.862,2.492-.374,1.45.442,2.933,2.14,3.885.43.215.895.351,1.336.544.34.2,1.631.215,2.208.476.634.272,1.3.5,1.948.747A13.312,13.312,0,0,0,447.875,328.005Z" transform="translate(-381.99 -284.912)" fill="#f4faff"/>
      <path id="Path_24977-2" data-name="Path 24977" d="M18.694,4.935a16.468,16.468,0,0,1-2.238-.527,7.506,7.506,0,0,0-1.448-.386,2.468,2.468,0,0,1-1.5-.7,3.411,3.411,0,0,1-1.608-.592.826.826,0,0,1-.781-.075c-.668-.348-1.335-.7-2.013-1.006A16.6,16.6,0,0,0,5.095.158,7.35,7.35,0,0,0,1.653.252,2.308,2.308,0,0,0,.017,2.283a2.419,2.419,0,0,0,.4,1.552,9.041,9.041,0,0,0,2.36,2.53A23.526,23.526,0,0,0,7.22,8.894c.687.3,1.4.536,2.1.8a1.274,1.274,0,0,1,.687.414.944.944,0,0,0,.545.292c1.119.442,2.342.527,3.451.978.15.188,1.034.085,1.326.16,1.382.357,2.821.348,4.213.658a.654.654,0,0,0,.442-.047,2.093,2.093,0,0,1,1.044-.141c1.129-.066,2.248.179,3.367.207,1.834.056,2.821-.6,3.207-2.069.31-1.2-.367-2.436-1.777-3.226-.357-.179-.743-.292-1.11-.451-.282-.169-1.354-.179-1.834-.395-.527-.226-1.082-.414-1.618-.621A11.054,11.054,0,0,0,18.694,4.935Z" transform="translate(294.552 88.466) rotate(-22)" fill="#f4faff"/>
      <path id="Path_24984" data-name="Path 24984" d="M572.1,319.13a11.384,11.384,0,0,0,3.647-.476,3.339,3.339,0,0,0,.895-.385,1.141,1.141,0,0,0,.023-1.959,4.823,4.823,0,0,0-1.8-.781,25.055,25.055,0,0,0-5.357-.6,2.221,2.221,0,0,0-.94.238.741.741,0,0,0-.5.646,1.641,1.641,0,0,1-.487.963.92.92,0,0,0,.249,1.472,4.03,4.03,0,0,0,.77.374A9.48,9.48,0,0,0,572.1,319.13Z" transform="translate(-553.488 -282.741)" fill="#f4faff"/>
    </g>
  </g>
</svg>
