<svg xmlns="http://www.w3.org/2000/svg" width="29" height="31"><circle cx="14.5" cy="14.5" fill="rgba(0, 0, 0, 1);" r="14.5"/><path d="m13.659 9.76.01-.056.392-.112c.481-.134.996.038 1.3.434l.21.274a1.35 1.35 0 0 0 2.355-.407l.116-.36a1.43 1.43 0 0 1 .544-.733 8.28 8.28 0 0 1 1.062 2.41c.7 2.296.077 6.532-1.649 9.081s-4.938 3.372-7.489 3.977-2.968-.345-3.08-.734c-.101-.351.626-.578 1.786-.942l.382-.12a7.74 7.74 0 0 0 3.659-3.148 8.524 8.524 0 0 0 .436-5.374 7.46 7.46 0 0 1-.094-3.874l.05-.313zm1.821-1.941a5.63 5.63 0 0 0-.433-1.51 2.346 2.346 0 0 0-.924-.924l-.2-.414.607-.174.125.435a9.16 9.16 0 0 1 .805.733 9.32 9.32 0 0 1 1.12 1.699 2.47 2.47 0 0 1 1.59.666 2.06 2.06 0 0 0-.727 1.017l-.116.36a.72.72 0 0 1-1.254.216l-.21-.274a1.855 1.855 0 0 0-1.899-.677A3.16 3.16 0 0 1 15.48 7.82z" fill="#fff"/></svg>