<svg xmlns="http://www.w3.org/2000/svg" width="29" height="31" viewBox="0 0 29 31">
  <g id="Group_2624" data-name="Group 2624" transform="translate(-0.474 -0.295)">
    <ellipse id="Ellipse_349" data-name="Ellipse 349" cx="14.5" cy="15.5" rx="14.5" ry="15.5" transform="translate(0.474 0.295)" fill="rgba(37,37,37,0.1)" opacity="0.5"/>
    <path id="chili-pepper-svgrepo-com" d="M9.783,4.531l.025-.051.408,0a1.225,1.225,0,0,1,1.13.776l.126.321a1.349,1.349,0,0,0,2.376.258l.211-.314a1.428,1.428,0,0,1,.725-.555,8.28,8.28,0,0,1,.357,2.609c.04,2.4-1.726,6.3-4.088,8.275S5.377,17.73,2.758,17.609,0,16.459,0,16.055c0-.365.761-.383,1.976-.413h0l.4-.01a7.738,7.738,0,0,0,4.385-2.018,8.517,8.517,0,0,0,1.9-5.046,7.46,7.46,0,0,1,.977-3.75l.134-.287Zm2.285-1.364a5.628,5.628,0,0,0,0-1.571A2.346,2.346,0,0,0,11.434.453L11.356,0h.631V.453a9.158,9.158,0,0,1,.572.927,9.322,9.322,0,0,1,.608,1.942A2.474,2.474,0,0,1,14.512,4.4a2.058,2.058,0,0,0-.979.777l-.211.314a.718.718,0,0,1-1.265-.138l-.126-.321a1.856,1.856,0,0,0-1.639-1.174A3.16,3.16,0,0,1,12.068,3.168Z" transform="translate(3.48 8.396) rotate(-16)" fill="#252525"/>
  </g>
</svg>
