<svg xmlns="http://www.w3.org/2000/svg" width="46" height="46" viewBox="0 0 46 46">
  <g id="Cookie" transform="translate(0.36)">
    <circle id="Ellipse_323" data-name="Ellipse 323" cx="23" cy="23" r="23" transform="translate(-0.36)" fill="#ffc416" opacity="0.1"/>
    <g id="Group_2634" data-name="Group 2634">
      <g id="Path_6760" data-name="Path 6760" transform="translate(9 9)" fill="#f6ba5a">
        <path d="M14,0a14.335,14.335,0,0,1,5.362,1.064c1.382.538-3.108,2.176,1.727,6.37l1.132.867-.377,2.864c.326.165,2.021-2.025,2.594-1.952,1.58.29,1.8-2.183,2.486-.621A13.711,13.711,0,0,1,28,14,14,14,0,1,1,14,0Z" stroke="none"/>
        <path d="M 14 1 C 10.5275707244873 1 7.262990951538086 2.352239608764648 4.807609558105469 4.807609558105469 C 2.352239608764648 7.262990951538086 1 10.5275707244873 1 14 C 1 17.47241973876953 2.352239608764648 20.73701095581055 4.807609558105469 23.19239044189453 C 7.262990951538086 25.64776039123535 10.5275707244873 27 14 27 C 17.47241973876953 27 20.73701095581055 25.64776039123535 23.19239044189453 23.19239044189453 C 25.64776039123535 20.73701095581055 27 17.47241973876953 27 14 C 27 12.48385047912598 26.73351097106934 10.92338752746582 26.25850677490234 9.614036560058594 C 25.89207458496094 9.934116363525391 25.38297080993652 10.23665046691895 24.69387054443359 10.23665046691895 C 24.64275741577148 10.23665046691895 24.59120178222656 10.23491287231445 24.53937530517578 10.23145484924316 C 24.30466461181641 10.40019035339355 23.88155555725098 10.80976676940918 23.63861083984375 11.04494094848633 C 22.91134071350098 11.74894905090332 22.47237014770508 12.17389011383057 21.88591957092285 12.17389011383057 C 21.71487045288086 12.17389011383057 21.54487991333008 12.13368988037109 21.39431953430176 12.05764961242676 L 20.76119995117188 11.73786926269531 L 21.15507125854492 8.743196487426758 L 20.43457984924316 8.188989639282227 C 16.86569213867188 5.093210220336914 17.72817230224609 2.871917724609375 18.34944152832031 1.755472183227539 C 16.86417770385742 1.241498947143555 15.46627902984619 1 14 1 M 14 0 C 15.79382038116455 0 17.50883865356445 0.3373699188232422 19.36235046386719 1.063699722290039 C 20.74399948120117 1.601600646972656 16.25452041625977 3.239259719848633 21.08983993530273 7.433589935302734 L 22.22187995910645 8.300699234008789 L 21.84514999389648 11.1650390625 C 22.1660099029541 11.32709503173828 23.81111907958984 9.211160659790039 24.41010856628418 9.210910797119141 C 24.4200325012207 9.210906982421875 24.42956161499023 9.211483001708984 24.43889999389648 9.21265983581543 C 25.63414192199707 9.432411193847656 26.05014610290527 8.070417404174805 26.47961616516113 8.070354461669922 C 26.61787414550781 8.070333480834961 26.75750350952148 8.211460113525391 26.92501068115234 8.591949462890625 C 27.56757926940918 10.0392894744873 28 11.96915054321289 28 14 C 28 21.73197937011719 21.73197937011719 28 14 28 C 6.268009185791016 28 0 21.73197937011719 0 14 C 0 6.268009185791016 6.268009185791016 0 14 0 Z" stroke="none" fill="rgba(155,102,53,0.23)"/>
      </g>
      <circle id="Ellipse_325" data-name="Ellipse 325" cx="2" cy="2" r="2" transform="translate(12.64 21)" fill="#3d0f0f" opacity="0.49"/>
      <circle id="Ellipse_326" data-name="Ellipse 326" cx="2.5" cy="2.5" r="2.5" transform="translate(21.64 18)" fill="#3d0f0f" opacity="0.49"/>
      <circle id="Ellipse_327" data-name="Ellipse 327" cx="2" cy="2" r="2" transform="translate(19.64 28)" fill="#3d0f0f" opacity="0.49"/>
      <circle id="Ellipse_328" data-name="Ellipse 328" cx="1.5" cy="1.5" r="1.5" transform="translate(28.64 24)" fill="#3d0f0f" opacity="0.66"/>
      <circle id="Ellipse_329" data-name="Ellipse 329" cx="1" cy="1" r="1" transform="translate(16.64 15)" fill="#3d0f0f" opacity="0.54"/>
    </g>
  </g>
</svg>
