<svg xmlns="http://www.w3.org/2000/svg" width="280" height="311" viewBox="0 0 312.433 252.815"><path d="M127.107 248.924a30.918 30.918 0 0 1-4.319-.7 204.696 204.696 0 0 1-22.665-5.539 149.25 149.25 0 0 1-30.787-13.194c-2.064-1.195-4.077-2.476-6.114-3.717-1.088-.072-1.746-.96-2.645-1.4a85.138 85.138 0 0 1-14.245-12.3c-5.4-5.9-9.713-12.417-11.543-20.39a53.06 53.06 0 0 1-1.561-7.579 16.17 16.17 0 0 1 .085-2.571c.244-.942.23-1.93.483-2.871.1-.474.229-.942.385-1.4.037-.128.085-.254.133-.378.084-.255.149-.515.194-.78a27.021 27.021 0 0 1 6.114-10.022 56.647 56.647 0 0 1 17.422-12.315c1.225-.52 2.314-1.395 3.724-1.431a137.046 137.046 0 0 1 25.174-7.932c4.9-1.079 9.833-1.98 14.805-2.661.7-.1.764-.181.671-.98l-.651-5.383a102.34 102.34 0 0 1-.49-14.791 132.96 132.96 0 0 1 1.56-16.187 120.58 120.58 0 0 1 7.732-27.117c3.038-7.406 5.955-14.862 9.438-22.072 2.423-5.011 4.5-10.175 6.547-15.349a33.8 33.8 0 0 0 2.477-12.576 22.71 22.71 0 0 0-2.442-9.871c-.3-.627-.328-.616-1.01-.528-1.691.217-3.392.359-5.084.553a54.33 54.33 0 0 0-9.588 1.881 48.97 48.97 0 0 1-4.979 1.15c-1.037.2-1.619-.183-1.761-1.2a19.176 19.176 0 0 0-.279-1.576 3.578 3.578 0 0 1 .147-1.874c.25-.79.46-1.593.685-2.391.251-.894.611-1.753 1.071-2.559a8.926 8.926 0 0 1 5.642-4.336c.7-.189 1.423-.331 2.139-.473 2.342-.465 4.585-1.314 6.935-1.741l8.036-1.533c2.07-.33 4.164-.467 6.254-.667l11.794-1.087 8.607-.611c7.941-.4 15.888-.564 23.836-.3q6.357.21 12.7.728l10.919 1.019q7.7.885 15.295 2.437l6 1.264a14 14 0 0 1 7.23 3.89 29.58 29.58 0 0 1 8.226 16.5 43.54 43.54 0 0 1 .208 12.277 58.05 58.05 0 0 1-2.1 9.727 99.66 99.66 0 0 1-3.7 9.866c-2.386 5.457-5.017 10.8-7.535 16.193-2.559 5.482-4.937 11.045-7.059 16.72-1.9 5.082-3.458 10.266-4.9 15.487a73.32 73.32 0 0 0-1.845 9.485c-.277 1.983-.471 3.978-.7 5.967.3 1.886.046 3.809.381 5.691.15 2.456.46 4.899.928 7.315.111.972.682 1.869.479 2.894.162.511.294 1.034.491 1.53a84.86 84.86 0 0 0 4.712 9.746c.253.417.675.704 1.156.785l6.168 1.8a186.99 186.99 0 0 1 26.7 10.242c2.852 1.378 5.641 2.874 8.4 4.428q4.2 2.368 8.281 4.949a64.38 64.38 0 0 1 12 9.779 37.8 37.8 0 0 1 8.01 12.155 22.26 22.26 0 0 1 .479 15.764c-.248.739-.451 1.494-.658 2.247a34.36 34.36 0 0 1-7.041 13.2 48.416 48.416 0 0 1-11.31 9.659 85.125 85.125 0 0 1-15.9 7.664 143.76 143.76 0 0 1-20.928 5.888q-7.3 1.513-14.686 2.529c-4.78.658-9.576 1.182-14.383 1.613-5.295.475-10.6.8-15.906 1.012-5.261.21-10.528.266-15.795.213-5.071-.051-10.142-.138-15.2-.444l-10.208-.757q-2.187-.169-4.369-.392c-.677-.069-1.347-.2-2.021-.3a5.633 5.633 0 0 1 3.807-2.344c4.7.444 9.412.785 14.125 1.114 8.422.587 16.851.668 25.277.494 6.615-.136 13.227-.527 19.832-1.071a248.48 248.48 0 0 0 28.093-3.829 135.086 135.086 0 0 0 26.095-7.571c7.9-3.316 15.156-7.62 21.053-13.982 1.262-1.362 2.369-2.854 3.623-4.217.213-.259.405-.534.575-.823-.22.184-.3.522-.535.755-3.687 4.3-8.335 7.34-13.236 10.009-13.507 7.355-28.167 11.068-43.181 13.658-7.357 1.269-14.769 2.088-22.206 2.617-9.187.684-18.405.88-27.613.586-6.124-.216-12.268-.321-18.365-1.095-.523-.066-1.089-.006-1.489-.469.047-1.116 1.16-.985 1.745-1.467a3.61 3.61 0 0 1 1.693-.791q9.706.429 19.415.809c4.351.165 8.662-.358 12.991-.122a4.9 4.9 0 0 0 2.263-.5 127.938 127.938 0 0 1 12.347-4.565 18.22 18.22 0 0 1 5.335-.8c4.291-.07 8.57.364 12.846.447 6.448.125 12.382-1.4 16.431-7.166a31.308 31.308 0 0 1 5.418-5.933 7.85 7.85 0 0 1 1.685-1.146c.472-.234.959-.44 1.439-.659 3.132-1.094 5.861-2.97 8.708-4.6 1.4-.8 2.067-2.416 3.166-3.574-1.076.045-2.028 1.233-3.207.348a4.64 4.64 0 0 1 .489-3.093c.986-.848 2.172-1.424 3.14-2.3a24.33 24.33 0 0 0 5.283-5.225c4.194-5.784 4.335-11.89.17-18.15a41.07 41.07 0 0 0-12.825-12.217 93.768 93.768 0 0 0-12.524-6.639c-.674-.286-1.083-.486-1.312.5-.163.7-.913.956-1.555 1.22a15.3 15.3 0 0 0-1.953.584q-1.38.707-.13 1.622c3.728 2.725 7.326 5.63 11.176 8.186.78.518 1.728.926 1.578 2.046-.161 1.2-1.079 1.77-2.161 2.121-3.014.978-6.147 1.447-9.226 2.141-1.848.417-3.662.987-5.538 1.28-.217.052-.427.125-.643.181l-31.6 7.28c1.062.683 2.2 1.241 3.39 1.663a135.73 135.73 0 0 0 17.932 6.73c.8.222 1.627.328 2.425.55.5.137 1.105.191 1.128.931a.672.672 0 0 1-.266.391 1.42 1.42 0 0 1-.444.2l-.243.025c-4.73-.663-9.1-2.508-13.537-4.138-3.94-1.447-7.775-3.148-11.63-4.8a5.573 5.573 0 0 0-3.817-.323l-12.627 3.164-15.9 4.471c-2.112.638-4.373.6-6.453 1.186a24.4 24.4 0 0 1-6.789.664 37.06 37.06 0 0 1-7.961-1.021 5.22 5.22 0 0 0-3.131.266c-5.253 2.022-10.063 4.934-15.072 7.447-4.788 2.4-9.478 5.04-14.618 6.677-.752.266-1.527.459-2.316.576 1.767.22 3.66.839 5.591 1.263a281.46 281.46 0 0 0 31.728 5.156c6.54.669 13.079 1.293 19.658 1.454 1.118.027 2.353-.077 3.312.788-.448 1.183-1.594 1.3-2.563 1.687-2.636.312-5.255-.136-7.868-.3-6.46-.4-12.9-1.066-19.321-1.916a265.6 265.6 0 0 1-39.891-8.268 172.298 172.298 0 0 1-11.385-3.743c-2.85-1.054-5.649-.695-8.486-.153-2.441.466-4.81 1.25-7.263 1.669-4.488.765-8.918.849-13.183-1.088-.452-.347-1.075-.458-1.384-1 .1-.407.422-.474.764-.517 2.021.256 3.957.9 6 1.151a30.78 30.78 0 0 0 11.392-1.023 40.696 40.696 0 0 1 6.257-1.307c.1-.01.222.055.322-.042a.326.326 0 0 1-.242 0c-8.981-3.7-17.587-8.047-24.913-14.542-4.449-3.944-8.061-8.493-9.275-14.559a14.873 14.873 0 0 1 1.731-10.328c2.916-5.334 7.547-8.874 12.681-11.83 8.766-5.046 18.314-7.916 28.111-10.091 2.762-.613 5.542-1.117 8.327-1.607 1.554-.274 1.583-.334 1.219-1.929-.207-.906-.415-1.812-.553-2.73-.171-1.142-.69-1.554-1.9-1.357-6.594 1.08-13.162 2.281-19.628 3.985a117.2 117.2 0 0 0-24.854 9.383 52.95 52.95 0 0 0-14.609 11.1 3.155 3.155 0 0 0-.914 2.506c.136 2.1.068 4.2.038 6.3a3.956 3.956 0 0 0 1.4 3.384c2.837 2.282 3.736 5.294 3.617 8.839a29.76 29.76 0 0 0 1.551 11.259c1.706 4.694 5.079 8.025 9.109 10.767a15.93 15.93 0 0 1 2.069 1.367c.26.278.192.722.492.981.048.034.092.072.14.106s.1.064.151.094c.215.121.435.23.645.361.607.419 1.246.79 1.911 1.11 15.9 9.142 33.025 15.028 50.744 19.367 4.023.985 8.076 1.819 12.132 2.644a3.46 3.46 0 0 1 1.762.638 1.69 1.69 0 0 1-.835 2.044 4.14 4.14 0 0 1-2.3-.056 233.24 233.24 0 0 1-47.213-14.298 116.852 116.852 0 0 1-25.939-14.884 17.39 17.39 0 0 1-1.869-1.635c-.158-.14-.3-.3-.467-.429a8.157 8.157 0 0 1-.637-.52 16.45 16.45 0 0 1-1.348-1.51c.389.446.728.933 1.147 1.355.095.1.19.194.286.29s.206.182.31.274l.164.132c.111.091.216.189.315.293a97.02 97.02 0 0 0 23.3 17.97 133.943 133.943 0 0 0 20.145 9.3 198.07 198.07 0 0 0 24.347 7.257 13.18 13.18 0 0 0 7.175-.225c.547-.174 1.107-.44 1.681-.058a14.875 14.875 0 0 0 2.088 4.7.69.69 0 0 1 .012.69z"/><path d="M34.192 177.529a14.79 14.79 0 0 1-.538 2.987c-.352.829-.115 1.732-.327 2.579a4.53 4.53 0 0 1-.048.66c-.1.355-.159.721-.176 1.09a54.85 54.85 0 0 1-5.782 16.29 12.98 12.98 0 0 1-4.886 5.08c-4.182 2.325-6.751 6.029-9 10.018a12.175 12.175 0 0 0-.918 8.8c.533 2.471 1.19 4.9 3.042 6.815a10.93 10.93 0 0 0 5.146 3.081 45.21 45.21 0 0 0 25.324-.238 30.09 30.09 0 0 0 14.029-9.6c.382-.447.662-1 1.248-1.236l2.359 1.588-1.994 2.185a37.06 37.06 0 0 1-12.378 9.02 26.16 26.16 0 0 1-5.949 1.775 53.79 53.79 0 0 1-14.325.813 38.27 38.27 0 0 1-9.466-1.675 14.56 14.56 0 0 1-4.582-2.373 11.85 11.85 0 0 1-3.634-4.612 23.113 23.113 0 0 1-1.989-8.318 13.91 13.91 0 0 1 2.073-8.213 81.655 81.655 0 0 1 3.563-5.29 13.41 13.41 0 0 1 3.419-3.258q1.112-.739 2.241-1.451a12.9 12.9 0 0 0 4.688-5.237 51.11 51.11 0 0 0 3.78-10.12 89.3 89.3 0 0 0 2.166-11.653 67.66 67.66 0 0 1 1.709-9.775 24.515 24.515 0 0 1 8.77-13.072 22.927 22.927 0 0 1 11.8-4.781 14.53 14.53 0 0 1 6.7.95c.648.241 1.289.5 1.933.757l-3.664 1.73c-5.883-1.447-10.911.45-15.423 4.08-5.029 4.045-7.263 9.6-8.154 15.8-.14.978-.417 1.93-.482 2.918a2.79 2.79 0 0 0-.275 1.886zm178.235-39.799a13.57 13.57 0 0 1-.82-2.615c2.386-1.2 5.01-1.469 7.588-1.844a71.03 71.03 0 0 1 24.325.873c5.626 1.126 11.162 2.669 16.823 3.61a21.64 21.64 0 0 0 10.261-.755 11.245 11.245 0 0 0 4.9-2.956 42.007 42.007 0 0 0 4.677-5.155c2.54-3.782 2.057-8.164-1.2-10.806a13.25 13.25 0 0 0-3.307-1.65c-4.948-2.12-10.056-3.219-15.469-2.291a18.68 18.68 0 0 0-5.491 2.163 43.41 43.41 0 0 1-12.653 4.526 31.84 31.84 0 0 1-5.775.157 57.845 57.845 0 0 0-10.641.627 101.92 101.92 0 0 0-13.04 3.442c-1.311.419-1.342 1.56-1.936 2.39a3.097 3.097 0 0 1-.255-1.586c-.019-1.28.011-2.56.037-3.84a1.13 1.13 0 0 1 .169-.385c.178.252-.069.607.262.879a54.947 54.947 0 0 1 5.427-1.748c2.775-.706 5.51-1.573 8.33-2.093a29.656 29.656 0 0 1 3.083-.421 89.513 89.513 0 0 1 9.336-.338c.988.027 1.978-.006 2.967-.007a12.4 12.4 0 0 0 3.936-.642c2.06-.689 4.1-1.428 6.142-2.182a29.39 29.39 0 0 0 4.113-2.04 15.21 15.21 0 0 1 4.677-1.812 27.266 27.266 0 0 1 2.053-.295 35.13 35.13 0 0 1 6.518-.024 18.78 18.78 0 0 1 4.879 1.2 35.23 35.23 0 0 1 7.018 3.492 9.714 9.714 0 0 1 4.685 7.049 11.074 11.074 0 0 1-1.2 6.9 35.24 35.24 0 0 1-7.453 8.374 18.93 18.93 0 0 1-6.13 2.536 22.66 22.66 0 0 1-10.291.148c-3.046-.628-6.073-1.351-9.1-2.052-4.14-.957-8.3-1.811-12.5-2.44a48.13 48.13 0 0 0-9.308-.666 67.315 67.315 0 0 0-14.093 1.771 4.924 4.924 0 0 0-1.544.506zm-67.415 111.042a3.73 3.73 0 0 0-1.276.647q-1.157.727-2.313 1.458a34.93 34.93 0 0 1-3.37 1.058 12.98 12.98 0 0 1-9.969-2.156l-1.316-.905a3.7 3.7 0 0 0-.361-.621 7.87 7.87 0 0 1-1.884-4.761 3.31 3.31 0 0 1 .954-3.557 4.8 4.8 0 0 0 .895-1.8 12.525 12.525 0 0 1 9.5-6.3 13.435 13.435 0 0 1 6.433.741 14.4 14.4 0 0 0 9.731.1 7.91 7.91 0 0 1 9.484 2.885 5.78 5.78 0 0 1 1.01 4.917 3.065 3.065 0 0 1-1.668 2.147 16.79 16.79 0 0 1-3.333 1.778 2.37 2.37 0 0 1-1.7.777c-3.484.641-7 1.164-9.989 3.305-.226.159-.562.152-.828.287zm146.991-113.465a14.944 14.944 0 0 1 3.748-9.592 14.75 14.75 0 0 1 7.232-4.695 7.8 7.8 0 0 1 8.039 2.032 5.03 5.03 0 0 1 .735 6.031 6.48 6.48 0 0 1-1.615 1.914 8.99 8.99 0 0 1-1.069.795 11.22 11.22 0 0 0-3.732 3.741c-.56.872-1.154 1.724-1.745 2.576a11.57 11.57 0 0 1-1.891 2.273 6.31 6.31 0 0 1-5.487 1.568 4.432 4.432 0 0 1-3.3-2.485 8.495 8.495 0 0 1-.915-4.158z" fill="#a76b23"/><path d="M11.639 180.342a9.284 9.284 0 0 1 3.327 9.769 10.92 10.92 0 0 1-3.2 5.411 6.257 6.257 0 0 1-3.98 1.766 6.37 6.37 0 0 1-5.346-2.379 10.415 10.415 0 0 1-2.341-5.669 21.516 21.516 0 0 1-.1-2.368 8.4 8.4 0 0 1 10.074-7.827c.649.146 1.379.11 1.863.706-.142.178-.675.155-.297.591z" fill="#a76c24"/><path d="m11.639 180.498-.627-.341c-.017-.011.032-.2.06-.2l.867-.045c.045.266-.258.36-.3.586z" fill="#c5b896"/><path d="m94.777 68.145-.091.1a1.477 1.477 0 0 1-.1-.227c-.005-.019.061-.057.1-.087z" fill="#b3baba"/><path d="M241.575 180.05c1.45.939 2.732 2.119 4.244 2.969a.3.3 0 0 1 .184.36c-.054.168-.211.167-.343.207-2.369.712-4.789 1.219-7.2 1.744q-9.273 2.014-18.551 4.007l-15.948 3.423c-8.107 1.8-16.172 3.772-24.226 5.791-6.569 1.647-13.174 3.13-19.78 4.617a2.13 2.13 0 0 0-.292.051c-2.129.68-4.386.858-6.595.52a38.11 38.11 0 0 1-10.687-2.335 77.551 77.551 0 0 1-8.1-3.682 38.7 38.7 0 0 1-12.37-10.242 51.5 51.5 0 0 1-7.135-11.931c-1.759-4.194-3.659-8.332-5.068-12.663a148.962 148.962 0 0 1-4.788-19.119 103.112 103.112 0 0 1-1.341-24.1 118.26 118.26 0 0 1 8.807-39.478c2.915-7.032 5.6-14.162 8.935-21.015 2.816-5.788 5.107-11.792 7.445-17.778a37.39 37.39 0 0 0 2.5-12.45 24.8 24.8 0 0 0-2.041-10.552 26.06 26.06 0 0 0-2.978-5.291 17.25 17.25 0 0 0-6.5-5.511 6.77 6.77 0 0 1-.633-.365c-.029-.018-.026-.088-.053-.193a13.29 13.29 0 0 1 2.512-.571c2.721-.5 5.424-1.116 8.179-1.425l6.929-.788 11.966-1.126c4.046-.294 8.1-.564 12.161-.481q7.793.158 15.584.352l12.76.4 11.258.68c3.105.276 6.2.6 9.288 1.029a88.26 88.26 0 0 1 11.921 2.333 40.29 40.29 0 0 1 5.829 2.162 5.3 5.3 0 0 1 1.774 1.31 30.13 30.13 0 0 1 7.634 16.582 51.08 51.08 0 0 1 .246 9.632 43.266 43.266 0 0 1-1.02 6.142 81.03 81.03 0 0 1-5.046 15.17c-2.039 4.776-4.379 9.412-6.594 14.107-2.6 5.5-5 11.078-7.05 16.813-2.184 6.106-4.037 12.3-5.622 18.585a61.78 61.78 0 0 0-1.409 8.631c-.444 4.187-.638 8.387-.7 12.594-.085 2.523.049 5.05.4 7.55a8.89 8.89 0 0 0 1.117 3.2c.202.338.366.696.49 1.069a53.06 53.06 0 0 0 4.082 9.365l2.9 5.173a70.435 70.435 0 0 0 9.678 12.358 141.14 141.14 0 0 0 11.464 10.759.456.456 0 0 1 .076.127 3.592 3.592 0 0 1-2.3.888q-16.261 3.443-32.615 6.411l-44.276 7.823c-4.437.9-8.752.3-13.07-.683-3.383-.77-6.6-2.1-9.961-2.938a6.26 6.26 0 0 0-2.492-.268c-.819.127-.672.572-.25 1.011a7.09 7.09 0 0 0 2.338 1.55 61.21 61.21 0 0 0 13.8 3.947c5.238.92 10.359-.013 15.447-1.065 14.2-2.936 28.581-4.833 42.817-7.553l28.962-5.77a5.277 5.277 0 0 0 3.307-2.069z" fill="#d5d2ce"/><g fill="#464646"><path d="M105.763 154.662a8.39 8.39 0 0 1 .691 2.088 91.468 91.468 0 0 0 3.489 10.079c1.521 3.649 3 7.319 4.764 10.861a45.01 45.01 0 0 0 4.772 7.492c1.241 1.6 2.5 3.192 3.864 4.684a36.09 36.09 0 0 0 4.584 3.979 45.917 45.917 0 0 0 10.247 5.9c1.862.8 3.687 1.68 5.6 2.345a2.03 2.03 0 0 1 .368.219.51.51 0 0 1-.37.424q-3.564 1.475-7 3.22l-10.369 5.461a104.638 104.638 0 0 1-7.427 3.726 36.45 36.45 0 0 1-6.561 2.312 7.7 7.7 0 0 1-1.464.194 4.07 4.07 0 0 0-1.033.075 6.157 6.157 0 0 1-3.644-.154 189.11 189.11 0 0 1-21.006-7.233c-3.145-1.32-6.257-2.726-9.273-4.325a81.69 81.69 0 0 1-12.379-7.851 24.95 24.95 0 0 1-4.519-4.26c-2.721-5.252-4.553-10.643-2.437-16.6 1.358-3.819 4.054-6.642 7.14-9.089a50.09 50.09 0 0 1 13.794-7.385 123.57 123.57 0 0 1 26.755-6.373 1.666 1.666 0 0 1 1.414.211z"/><path d="M172.283 227.714c-.116-.086-.226-.237-.349-.249a32.07 32.07 0 0 0-3.535-.285c-2.723.038-5.419-.433-8.14-.371-1.587-.45-3.239-.256-4.857-.461l-4.566-.42c-1.472-.094-2.934-.337-4.4-.505l-3.381-.368-2.787-.344-5.995-.871-5.535-.958-6.106-1.121-4.628-.989-6.906-1.646c-.42-.1-.828-.251-1.469-.448a32.9 32.9 0 0 0 9.319-3.048l6.273-3.034 8.136-4.274a73.55 73.55 0 0 1 7.182-3.514q2.058-.84 4.1-1.717a1.74 1.74 0 0 1 1.14-.079 45.4 45.4 0 0 0 4.5.875 30.06 30.06 0 0 0 4.717.4h3.265a4.055 4.055 0 0 0 2.28-.455 3.621 3.621 0 0 1 1.71-.409 36.84 36.84 0 0 0 9.1-1.881l7.7-2.112a17.23 17.23 0 0 0 2.8-.9 28.972 28.972 0 0 1 3.707-1q5.388-1.323 10.782-2.623l2.153-.533a1.86 1.86 0 0 1 1.421.111l6.966 2.927 6.889 2.719 5.417 2.009a52.225 52.225 0 0 0 6.855 1.839 7.49 7.49 0 0 1 .841.271c.156.425-.161.646-.41.862a163.456 163.456 0 0 1-18.124 13.859 42.353 42.353 0 0 1-16.96 5.911c-4.74.712-9.519 1.15-14.233 2.038a30.67 30.67 0 0 0-3.62.785c-.405.131-.83.376-1.252.009z"/></g><g fill="#676767"><path d="M160.589 242.62c.057-.375.353-.581.583-.824a2.61 2.61 0 0 0 .614-1.156 5.263 5.263 0 0 0-.965-5 9.846 9.846 0 0 0-3.038-2.484 5.79 5.79 0 0 0-4.36-.482 10.71 10.71 0 0 0-1.254.354 21.99 21.99 0 0 1-4.092.9 3.1 3.1 0 0 1-1.014.015 15.738 15.738 0 0 1-3.973-.715 13.31 13.31 0 0 0-3.488-.955c-2.832-.32-5.589-.162-8.065 1.6l-2.776 2.131a5.147 5.147 0 0 0-.863.989 4.05 4.05 0 0 1-1.114 1.145l-8.951-1.84a259.9 259.9 0 0 1-15.457-4.012 222.59 222.59 0 0 1-16.4-5.509 154.3 154.3 0 0 1-16.479-7.366 80.262 80.262 0 0 1-7.361-4.166c.011-.508.289-.455.614-.3l1.514.511c1.645.592 3.37.929 5.117 1a25.61 25.61 0 0 0 7.788-.719l6.221-1.481a18.318 18.318 0 0 1 3.734-.537c1.549-.061 3.095.18 4.552.708a197.85 197.85 0 0 0 25.51 7.58c4.341 1.006 8.716 1.873 13.1 2.676 3.38.619 6.77 1.2 10.185 1.613l8.353 1.095c2.454.282 4.921.449 7.379.691 2.895.284 5.8.441 8.7.641 1.644.114 3.293.124 4.932.3a2.925 2.925 0 0 1-1.612 1.807 6.76 6.76 0 0 0-2.647 3.436c-.929 2.095.47 3.642 1.563 5.048 1.676 2.153 4.14 2.729 6.757 2.888 8.563.517 16.51-1.713 24.17-5.4a75.01 75.01 0 0 1 23.216-6.849 135.21 135.21 0 0 0 19.4-3.861 48.39 48.39 0 0 0 6.8-2.61c.6-.27 1.2-.747 1.885-.181a22.37 22.37 0 0 0-5.5 5.215c-.859 1-1.6 2.11-2.456 3.122a15.66 15.66 0 0 1-8.27 5.457 40.28 40.28 0 0 1-6.744.967 9.98 9.98 0 0 1-1.449-.062c-.241-.017-.478-.084-.719-.1a97.508 97.508 0 0 0-12.349-.294 15.78 15.78 0 0 0-4.7.855q-5.333 1.954-10.661 3.918a6.37 6.37 0 0 0-1.058.49 5.03 5.03 0 0 1-2.635.655c-3.343.026-6.69.247-10.028.15l-11.047-.254-9.864-.578a12.66 12.66 0 0 1-1.298-.222z"/><path d="M219.727 150.629c.321-.133.684-.12.994.036a212.455 212.455 0 0 1 26.149 9.155 138.487 138.487 0 0 1 15.038 7.385 12.707 12.707 0 0 1 3.668 2.953 19.81 19.81 0 0 0 3.488 3.21 5.5 5.5 0 0 0 1 .628c1.307.611 2.439 1.507 3.678 2.22a29.16 29.16 0 0 1 6.69 5.8 42.079 42.079 0 0 1 3.969 4.988 27.51 27.51 0 0 1 4.221 9.735 19.981 19.981 0 0 1-1.174 12.337 27.614 27.614 0 0 1-5.41 8.1 49.59 49.59 0 0 1-10.957 8.559 91.383 91.383 0 0 1-14.744 6.943 140.39 140.39 0 0 1-15.306 4.661q-6.185 1.537-12.473 2.587l-8.925 1.407c-2.053.291-4.121.471-6.184.689l-7.811.794c-1.969.17-3.946.269-5.921.353-1.38.059-2.761.094-4.179.29a1 1 0 0 1 .738-.56l10.691-3.559a18.172 18.172 0 0 1 5.251-.849c3.116-.079 6.235-.046 9.352-.048.841-.012 1.682.047 2.513.175a8.53 8.53 0 0 0 1.777.058 40.44 40.44 0 0 0 8.485-1.256 6.9 6.9 0 0 0 1.388-.513 19.44 19.44 0 0 0 6.621-5.158 66.91 66.91 0 0 1 6.176-6.4 7.26 7.26 0 0 1 3.25-1.71 12.6 12.6 0 0 0 3.242-1.425 30.61 30.61 0 0 1 3-1.628 12.115 12.115 0 0 0 4.544-3.725l2.761-3.678a25.073 25.073 0 0 1 1.969-2.407 12.81 12.81 0 0 0 2.078-3.059 7.97 7.97 0 0 1 .866-1.377 13.87 13.87 0 0 0 3.251-7.826 23.22 23.22 0 0 0-.178-7.218 20.79 20.79 0 0 0-2.7-6.234 35.384 35.384 0 0 0-6.69-7.7 34.647 34.647 0 0 0-4.214-3.272 104.424 104.424 0 0 0-3.3-1.984l-5.142-2.961a114.32 114.32 0 0 0-11.975-5.884c-4.5-1.926-9.108-3.577-13.778-5.05a3.467 3.467 0 0 1-1.756-1.248 64.61 64.61 0 0 1-3.9-5.776.664.664 0 0 1-.131-.558z"/></g><path d="M61.307 223.855a6.06 6.06 0 0 1-1.616 2.259 31.94 31.94 0 0 1-8.211 6.515 30.71 30.71 0 0 1-3.676 1.922 25.86 25.86 0 0 1-5.267 1.469l-5.128.693c-2.114.22-4.243.279-6.366.174a40.43 40.43 0 0 1-11.492-1.918 10.636 10.636 0 0 1-5.55-4.469 13.57 13.57 0 0 1-1.318-3.135 18.57 18.57 0 0 1-.948-5.377 11.13 11.13 0 0 1 1.66-6.508l3.375-5.053a10.39 10.39 0 0 1 2.86-2.774l2.227-1.472a16.64 16.64 0 0 0 6.452-7.728 61.74 61.74 0 0 0 2.778-7.184l1.684-6.6c.225-.267.019-.65.245-.917l.047-.551c.325-.188.4.117.548.278a30.982 30.982 0 0 0 1.442 6.8c.231.648.334 1.341.5 2.011a35.846 35.846 0 0 0 3.905 9.257 57.352 57.352 0 0 0 7.691 10.146 87.3 87.3 0 0 0 12.608 11.011l1.55 1.151z" fill="#ffc242"/><path d="M86.768 212.851a59.5 59.5 0 0 0-6.9 1.5 32.197 32.197 0 0 1-8.882 1.182 29.27 29.27 0 0 1-8.262-1.338c-.185-.061-.381-.091-.571-.136-1.055-.241-2.195-.273-2.967-1.207-1.425-.977-2.983-1.749-4.332-2.846a27.3 27.3 0 0 1-6.176-6.957 14.53 14.53 0 0 1-1.407-3.261 28.44 28.44 0 0 1-1.24-6.382l-.22-6.076a12 12 0 0 0-.272-2.352 6.917 6.917 0 0 0-2.04-3.708l-1.417-1.31a3.725 3.725 0 0 1-1.316-3.019q.008-3.044.005-6.087a2.74 2.74 0 0 0-.024-1.031c-.429-.967.115-1.6.672-2.225a47.22 47.22 0 0 1 6.462-6.108 71.232 71.232 0 0 1 14.888-8.553 132.277 132.277 0 0 1 23.661-7.655c4.375-1.022 8.783-1.907 13.235-2.547.879-.126 1.748-.32 2.625-.464a7.41 7.41 0 0 1 1.034-.084c.46-.01.579.081.692.582l1.15 5.209a2.48 2.48 0 0 1 .039.294c.041.43-.11.637-.552.712l-3.8.638a138.75 138.75 0 0 0-20.8 5.3 77.798 77.798 0 0 0-13.536 6.01 39.45 39.45 0 0 0-9.789 7.633 20.187 20.187 0 0 0-3.988 6.378 15.12 15.12 0 0 0-.2 10.171 24.43 24.43 0 0 0 4.495 7.96 45.074 45.074 0 0 0 8.954 8.187 91.33 91.33 0 0 0 16.688 9.3l4.091 1.747a.318.318 0 0 1 0 .544z" fill="#676767"/><path d="M210.659 127.446a4.75 4.75 0 0 0 .042-1.475.69.69 0 0 1 .445-.7l1.364-.575a67.907 67.907 0 0 1 7.806-2.309l4.312-1.048a36.79 36.79 0 0 1 3.808-.5c4-.415 8-.191 12-.266a15.408 15.408 0 0 0 4.223-.7 64.46 64.46 0 0 0 8.323-3.108c1.073-.5 2.092-1.117 3.133-1.685a13.872 13.872 0 0 1 6.546-1.626c.841-.014 1.683.018 2.523-.017a14.08 14.08 0 0 1 4.677.62l3.976 1.175a11.15 11.15 0 0 1 2.053.843 12.26 12.26 0 0 0 1.355.594 7.17 7.17 0 0 1 4.781 5.558 9.03 9.03 0 0 1-1.845 7.371 39.9 39.9 0 0 1-5.4 5.7 11.47 11.47 0 0 1-4.476 2.224 22.56 22.56 0 0 1-8.8.834 31.196 31.196 0 0 1-5.234-.956c-4.686-1.191-9.415-2.187-14.164-3.076-2.321-.434-4.667-.761-7.019-1.042a60.19 60.19 0 0 0-10.514-.167 54.56 54.56 0 0 0-11.67 1.821 3.443 3.443 0 0 1-1.31.171 9.27 9.27 0 0 1-.522-2.571 41.26 41.26 0 0 1-.413-5.09z" fill="#ffc242"/><path d="M142.944 248.771a12.28 12.28 0 0 1 5.435-2.877 38.73 38.73 0 0 1 4.78-.984 21.44 21.44 0 0 0 2.3-.513c.124.077.245.212.373.22.886.054 1.774.28 2.636.279 1.933 0 3.827.415 5.757.37a9.31 9.31 0 0 1 2.943.226 3.81 3.81 0 0 0 1.033.048l4.155.029a7.056 7.056 0 0 1 2.058.19c.387.081.784.106 1.178.073h15.878c.247.022.495.017.74-.017a28.523 28.523 0 0 1 5.463-.267 13.42 13.42 0 0 0 2.353-.2 12.6 12.6 0 0 1 2.217-.09 7.42 7.42 0 0 0 2.5-.23.7.7 0 0 1 .293-.038 43.35 43.35 0 0 0 5.013-.352c1.469-.06 2.934-.288 4.394-.49a9.38 9.38 0 0 0 2.634-.335c1.829-.028 3.605-.492 5.419-.663 1.319-.124 2.626-.39 3.934-.62l4.348-.812c3.834-.672 7.606-1.616 11.387-2.528 3.213-.776 6.384-1.7 9.52-2.729a102.84 102.84 0 0 0 9.836-3.689c1.578-.7 3.2-1.321 4.732-2.109 2.15-1.105 4.236-2.335 6.35-3.509a50.2 50.2 0 0 0 4.912-3.3 29.12 29.12 0 0 0 2.513-2.062 26.67 26.67 0 0 0 2.757-2.465l.669-.788c.266-.075.409-.024.292.289a38.815 38.815 0 0 1-7.545 8.507 46.41 46.41 0 0 1-6.809 4.955c-2.117 1.276-4.242 2.531-6.463 3.608a77.78 77.78 0 0 1-8.042 3.4l-4.331 1.517c-4.414 1.412-8.871 2.656-13.408 3.626-2.358.5-4.7 1.083-7.073 1.522l-4.5.78q-2.183.363-4.37.7c-1.215.184-2.42.417-3.65.515-1.173.094-2.338.3-3.5.5-.826.137-1.66.108-2.5.275a32.51 32.51 0 0 1-3.965.386 5.98 5.98 0 0 0-1.9.23.67.67 0 0 1-.292.044c-1.637-.116-3.237.324-4.866.329a9.58 9.58 0 0 0-2.353.21 8.62 8.62 0 0 1-1.772.082 13.468 13.468 0 0 0-3.388.243c-.341.06-.689.074-1.034.042l-3.71.026a7.4 7.4 0 0 0-2.205.2 4 4 0 0 1-1.179.066H167.38a6.285 6.285 0 0 1-1.618-.142 5.689 5.689 0 0 0-1.321-.116l-3.561-.028a12.84 12.84 0 0 1-2.5-.2c-.785-.099-1.576-.129-2.366-.089s-1.582-.03-2.351-.219a3.8 3.8 0 0 0-1.032-.067 9.82 9.82 0 0 1-2.939-.257.748.748 0 0 0-.294-.026c-1.638.13-3.234-.38-4.865-.324a5.86 5.86 0 0 1-1.589-.352z" fill="#2e2e2e"/><path d="M262.993 209.965a9.02 9.02 0 0 1-2.982 2.067 5.6 5.6 0 0 1-.7-2.966c-.553-5.656-5.562-11.2-11.068-12.3-1.3-.259-2.676.215-3.927-.428a.445.445 0 0 1-.1-.4c.24-.34.772-.148 1.029-.586-2.595-2.911-5.223-5.769-9.207-6.818-.184-.087-.363-.183-.544-.276-.125-.054-.244-.117-.364-.18-.588-.544-1.807-.374-1.807-1.586a38.58 38.58 0 0 0 4.173-.934l8.217-1.781c1.006-.228 1.983-.582 2.983-.845a2.33 2.33 0 0 0 1.4-1.017 1.27 1.27 0 0 0-.405-1.912 42.78 42.78 0 0 1-5.712-3.932l-7.1-5.312c-.118-.089-.246-.165-.357-.261a.462.462 0 0 1-.042-.759c.357-.34.774-.611 1.23-.8a2.4 2.4 0 0 1 1.943.415c8.391 4.269 16.149 9.423 22.613 16.349a20.64 20.64 0 0 1 3.786 19.634 10.828 10.828 0 0 1-3.059 4.628z" fill="#464646"/><path d="M245.119 195.414a2.4 2.4 0 0 0 1.585.2 11.95 11.95 0 0 1 6.244 1.546c.78.426 1.508.941 2.168 1.537a20.025 20.025 0 0 1 3.536 3.969 12.73 12.73 0 0 1 1.961 5.826q.156 1.469.308 2.937a5.5 5.5 0 0 0-.267.968 10.65 10.65 0 0 1-.573 2.389c.029 1.844-1.345 2.862-2.473 3.941a24.666 24.666 0 0 1-6.2 4.069l-1.132.488a2.06 2.06 0 0 0-1.274.307 45.57 45.57 0 0 1-5.617 2.288 48.97 48.97 0 0 1-7 1.841l-5.506 1.052-8.409 1.572-4.972.659a60.292 60.292 0 0 0-7.806 1.579c-.709.2-1.385.517-2.078.778l-7.057 2.669-4.2 1.855a55.54 55.54 0 0 1-10.305 3.634c-1.57.4-3.19.57-4.8.811a62.208 62.208 0 0 1-7.389.271 13.435 13.435 0 0 1-3.373-.357 8.9 8.9 0 0 1-5.014-3.218 4.83 4.83 0 0 1-.658-1.481c-.147-.4-.182-.882-.753-1-.188-.039-.257-.3-.2-.5.08-.985.409-1.934.956-2.757a2.6 2.6 0 0 0 .427-.776 3.04 3.04 0 0 1 1.683-1.773 4.51 4.51 0 0 0 .933-.716l1.263-1.017 2.4-1.3a43.938 43.938 0 0 1 8.808-1.781l8.633-1.192 6.979-1.263a33.276 33.276 0 0 0 5.73-1.983 35.319 35.319 0 0 0 7.83-4.165l4.132-3.126 5.347-3.976c.72-.52 1.409-1.081 2.065-1.68 1.612-1.53 3.417-2.829 5.081-4.3a1.6 1.6 0 0 1 .326-.207l.247-.139a5.42 5.42 0 0 1 1.28-1.411 74.103 74.103 0 0 1 9.291-5.546 20.84 20.84 0 0 1 7.018-1.752c.3-.011.604-.048.825.23z" fill="#a76b23"/><path d="m245.157 196.044-3.936.634a20.738 20.738 0 0 0-6.55 2.688l-5.515 3.471-2.4 1.7a.486.486 0 0 0-.419-.513l-3.317-.734a71.92 71.92 0 0 1-8-2.665l-6.47-2.557-6.9-3.068c-.291-.132-.692-.176-.787-.6.221-.313.6-.311.9-.38l13.987-3.13 8.927-2.067q4.1-.958 8.2-1.936a2.64 2.64 0 0 1 1.028-.033c.638.32 1.214.746 1.837 1.093.124.048.243.107.356.177.169.117.366.179.541.285l2.289 1.029c2.7 1.138 4.493 3.286 6.171 5.557a.777.777 0 0 1 .15.949z" fill="#464646"/><path d="M241.408 177.744a2.043 2.043 0 0 1-1.768 2.065l-3.584.857-6.641 1.369-8.383 1.676c-3.294.543-6.55 1.306-9.83 1.938-1.881.363-3.777.643-5.662.982l-7.245 1.328c-2.133.343-4.232.887-6.395 1.054-.683.052-1.352.236-2.036.331-2.479.342-4.952.739-7.417 1.174-2.417.426-4.812.988-7.235 1.374-3.109.495-6.167 1.24-9.263 1.78l-6.965 1.226c-.344.042-.69.053-1.036.035-.989 0-1.98-.033-2.968.011a25.9 25.9 0 0 1-6.3-.692 79.43 79.43 0 0 1-10.083-2.862 15.11 15.11 0 0 1-3.669-1.9 3.92 3.92 0 0 1-1.223-1.272.629.629 0 0 1 .493-.98 10.85 10.85 0 0 1 2.94.19c1.334.356 2.667.7 3.971 1.158a74.765 74.765 0 0 0 10.269 2.721c.194.037.391.058.588.062.886.009 1.77.09 2.643.242.931.14 1.876.149 2.809.024 1.219-.122 2.427-.366 3.636-.58l4.634-.858 6.659-1.282 4.344-.8c2.076-.381 4.142-.844 6.232-1.124 2.192-.293 4.358-.733 6.552-1.017 2.038-.263 4.079-.582 6.1-1.029 1.963-.434 3.97-.668 5.955-1.007l3.913-.719 7.537-1.371c2.124-.4 4.25-.811 6.354-1.3.63-.147 1.265-.153 1.894-.292 2.254-.5 4.528-.9 6.79-1.365l6.2-1.3 5.488-1.13a5.048 5.048 0 0 1 1.7 1.289z" fill="#efebe4"/><path d="M126.435 239.934a16.105 16.105 0 0 0-.954 3.557 1.87 1.87 0 0 0-.587.055c-1.53.551-3.123.904-4.742 1.052a3.5 3.5 0 0 1-1.325-.03q-6.652-1.426-13.19-3.3a201.504 201.504 0 0 1-9.6-3.021c-3.272-1.114-6.493-2.363-9.692-3.67-2.013-.822-4.01-1.676-5.951-2.661-.7-.357-1.459-.611-2.165-.962a128.8 128.8 0 0 1-16.094-9.433c-2.19-1.519-4.287-3.153-6.377-4.808a95.09 95.09 0 0 1-8.1-7.605 2.37 2.37 0 0 1-.25-.365 2.245 2.245 0 0 0-.293-.3 2.74 2.74 0 0 0-.29-.3c-.062-.272.019-.4.317-.318l.57.34a2.43 2.43 0 0 1 .29.281c1.5 1.285 3.076 2.465 4.668 3.628 2.034 1.486 4.143 2.86 6.271 4.2a134.79 134.79 0 0 0 13.339 7.1c1.687.818 3.412 1.561 5.144 2.281l6.866 2.76c3.276 1.255 6.592 2.381 9.919 3.483 4.074 1.349 8.2 2.522 12.34 3.648a259.72 259.72 0 0 0 8.306 2.123c3.352.793 6.73 1.478 10.1 2.185.49.066.985.093 1.48.08zm136.559-29.937c.118-.514.565-.8.856-1.19a13.7 13.7 0 0 0 2.175-4.66 15.89 15.89 0 0 0 .776-5.526 33.1 33.1 0 0 0-.674-4.513 22.63 22.63 0 0 0-3.141-6.982 1.52 1.52 0 0 0-.151-.254l-5.164-5.1c-.259-.225-.563-.4-.805-.645a32.7 32.7 0 0 0-3.893-3.169 89.98 89.98 0 0 0-8.528-5.59l-6.024-3.183a3.96 3.96 0 0 0-.7-.217.63.63 0 0 1 .5-.274 4.44 4.44 0 0 0 1.578-.37c1.253-.416 1.474-.775 1.443-2.266l1.375.475 6.161 2.913a52.897 52.897 0 0 1 4.881 2.79l4.51 2.833a31.46 31.46 0 0 1 2.36 1.779 37.53 37.53 0 0 1 2.983 2.654c1.093 1.13 2.074 2.369 3.1 3.565l1.421 1.7a20.02 20.02 0 0 1 2.665 4.776 14.19 14.19 0 0 1-.2 11.9 22.33 22.33 0 0 1-4.711 6.4c-.708.684-1.486 1.3-2.247 1.922a2.04 2.04 0 0 1-.546.232zm-157.059-54.485a26.33 26.33 0 0 0-3.063.411c-.962.238-1.944.235-2.908.46l-5.5 1.038-7.178 1.667-2.278.615-7.843 2.623-5.411 2.388a45.13 45.13 0 0 0-7.9 4.906c-.9.682-1.623 1.588-2.463 2.351a17.06 17.06 0 0 0-3.825 5.4 13.78 13.78 0 0 0-1.2 7.644 36.41 36.41 0 0 0 .96 4.015 30.74 30.74 0 0 0 1.7 4.878 1.81 1.81 0 0 1 .243.842 11.725 11.725 0 0 1-2.6-2.811 20.96 20.96 0 0 1-3.27-6.117 13.52 13.52 0 0 1-.67-4.069 15.13 15.13 0 0 1 .583-4.677 19.63 19.63 0 0 1 2.185-4.515 14.97 14.97 0 0 1 1.083-1.4.77.77 0 0 1 1.032-.295.77.77 0 0 0 .836-.114 4.944 4.944 0 0 0 1.274-1 6.165 6.165 0 0 1 2.536-1.738.9.9 0 0 1 .563-.115c1.462.355 2.4-.569 3.146-1.5a24.897 24.897 0 0 0 2.419-3.891 2.04 2.04 0 0 1 .98-1.01l4.308-1.984 8.33-3.084c3.568-1.159 7.192-2.111 10.843-2.958 2.685-.623 5.386-1.179 8.086-1.733 1.156-.237 2.328-.392 3.494-.579a.46.46 0 0 1 .569.342c.443 1.303.757 2.646.939 4.01z" fill="#2e2e2e"/><path d="M49.104 206.668a44.459 44.459 0 0 1-10.618-12.637 22.727 22.727 0 0 1-2.752-13.292 21.44 21.44 0 0 1 .886-4.043 1.46 1.46 0 0 1 1.212-1.134 3.17 3.17 0 0 0 .583-.1c1.175-.451 1.11-.016 1.123.922.05 3.5.1 3.664 2.687 6.029a7.43 7.43 0 0 1 2.465 4.891c.26 2.308.457 4.613.559 6.933a25.66 25.66 0 0 0 1.769 8.21 13.28 13.28 0 0 0 1.55 2.69q.421.609.844 1.216c.073.277-.014.394-.308.315z" fill="#676767"/><path d="M34.194 176.768a34.22 34.22 0 0 1 2.96-12.005 16.466 16.466 0 0 1 3.152-4.638 24.804 24.804 0 0 1 4.668-4.094 21.02 21.02 0 0 1 7.406-2.911 13.07 13.07 0 0 1 5.739.214.52.52 0 0 1 .408.532 72.256 72.256 0 0 0-10.915 6.535 43.698 43.698 0 0 0-8.082 7.585 27.473 27.473 0 0 0-4.763 8.476c-.117.2-.088.445-.229.633l-.025-.02c-.274.071-.408-.002-.319-.307z" fill="#ffc242"/><path d="M114.568 8.571a11.994 11.994 0 0 1 7.1 2.652 14.417 14.417 0 0 1 3.045 3.221c.268.395.143.637-.358.667l-2.371.092a40.1 40.1 0 0 0-13 2.642 28.2 28.2 0 0 1-3.437.883c-.349.092-.508-.079-.535-.494a7.6 7.6 0 0 1 .481-3.054 15.99 15.99 0 0 1 .958-2.164 7.535 7.535 0 0 1 5.487-4.108 10.609 10.609 0 0 1 2.63-.337z" fill="#83817e"/><path d="M233.005 167.039a21.38 21.38 0 0 1-2.36-2.2l-2.166-2.218a7.244 7.244 0 0 1-1.228-1.626c.231-.187.4-.056.581.005l6.262 2.173c.6.212.6.274.525.976a3.464 3.464 0 0 0 1.24 3.263c.287.232.543.467.175.834-1.049-.292-1.976-.906-3.029-1.207z" fill="#2d2e2e"/><path d="M250.499 222.804a.767.767 0 0 1 .478-.516 29.34 29.34 0 0 0 5.551-3.836 9.86 9.86 0 0 0 2.645-3.659 20.56 20.56 0 0 0 3.773-1.214c.237.282 0 .484-.119.643q-1.1 1.478-2.25 2.922a6.33 6.33 0 0 1-2.2 1.7 46.19 46.19 0 0 0-5.146 2.879 7.802 7.802 0 0 1-2.732 1.081z" fill="#676665"/><path d="M232.994 167.008c.111-.079.26-.25.327-.223a11.72 11.72 0 0 1 2.35.988c.137.129.256.278.351.441a4.1 4.1 0 0 1-.348.621.35.35 0 0 1-.515.084 16.868 16.868 0 0 1-2.165-1.911z" fill="#424141"/><path d="M59.181 212.86a11.99 11.99 0 0 1 2.967 1.207c-.218.027-.446.031-.593.237-.353.306-.623-.01-.92-.123-.209-.325-.629-.189-.889-.4l.018.013a.169.169 0 0 0-.282-.026c-.504-.321-.504-.321-.301-.908z" fill="#1d1212"/><path d="m47.902 207.815-.317.318a1.492 1.492 0 0 1-.361-.237c-.578-.684-1.085-1.42-1.835-2.167.332 0 .448-.035.49.005a16.507 16.507 0 0 1 2.023 2.081z" fill="#1e2121"/><path d="M235.711 188.38a4.8 4.8 0 0 1-1.824-1.372.445.445 0 0 1 .37-.33c.1.359.413.486.7.654a4.37 4.37 0 0 1 1.324.794c-.123.234-.409.103-.57.254z" fill="#171212"/><path d="m60.672 214.053.884.251a3.15 3.15 0 0 1 1.21.635c-.238.04-.487.059-.626.3a4.935 4.935 0 0 1-1.874-1.151.25.25 0 0 1 .405-.039z" fill="#475050"/><path d="m33.61 184.327-.549-.278.4-2.494c.013-.075.125-.133.191-.2z" fill="#e2ab3a"/><path d="m34.197 176.661.318.3c.084.532-.247.974-.32 1.472a1.44 1.44 0 0 1 .002-1.772z" fill="#d49934"/><path d="m283.749 218.83-.293-.289a2.42 2.42 0 0 1 1.012-1.051c-.076.517-.33.991-.719 1.34z" fill="#141717"/><path d="M85.727 212.856q0-.268-.007-.535a2.96 2.96 0 0 1 .526.122.237.237 0 0 1 .133.326.333.333 0 0 1-.24.107 2.92 2.92 0 0 1-.412-.02z" fill="#313535"/><path d="m49.104 206.03.311-.315c.247.141.445.355.566.613a.28.28 0 0 1-.023.418c-.312-.206-.675-.352-.854-.716z" fill="#464848"/><path d="M87.707 237.662c-.046-.069-.139-.145-.129-.2.032-.194.135-.348.366-.333.03 0 .077.068.078.106a.415.415 0 0 1-.315.427z" fill="#492d0e"/><path d="m49.957 206.747.023-.418c.222.104.396.29.485.519.021.063-.038.159-.077.232a.171.171 0 0 1-.134-.023c-.105-.097-.199-.206-.297-.31z" fill="#2c3434"/><path d="m60.672 214.053-.4.039a.532.532 0 0 1-.52-.316c.331-.001.681-.047.92.277z" fill="#2f3b3b"/><path d="M34.538 176.998a.52.52 0 0 1 .229-.633.594.594 0 0 1-.229.633z" fill="#a76b23"/><g fill="#1e2121"><path d="m47.587 208.135.29.3zm1.175.301-.29-.281zM47.878 208.437l.293.3z"/></g><path d="M226.599 204.048a.32.32 0 0 1-.326.207.313.313 0 0 1 .326-.207z" fill="#464646"/><path d="M59.483 213.764c.112-.188.2-.139.282.026q-.142-.006-.282-.026z" fill="#2f3b3b"/><path d="M33.012 184.578c.026.335.073.674-.245.917a.922.922 0 0 1 .245-.917z" fill="#e2ab3a"/><path d="M137.366 234.552a10.55 10.55 0 0 1 4.161.766 20.57 20.57 0 0 0 3.429.879c2.354.334 4.753.104 7-.671a10.77 10.77 0 0 0 3.026-1.54.82.82 0 0 1 .947-.079 8.12 8.12 0 0 1 3.557 3.027 2.77 2.77 0 0 1 .473 2.177 2.78 2.78 0 0 1-1.28 1.823 7.33 7.33 0 0 1-2.591 1.055l-4.346.854a18.74 18.74 0 0 0-7.472 3.05 40.34 40.34 0 0 1-4.08 2.4 10.08 10.08 0 0 1-8.588.339 7.64 7.64 0 0 1-3.2-2.065 4.576 4.576 0 0 1-.821-4.975 12.27 12.27 0 0 1 6.987-6.669 6.724 6.724 0 0 1 2.798-.371zm156.181-99.334a14.14 14.14 0 0 1 3.463-8.768 14.98 14.98 0 0 1 3.092-2.273 9.64 9.64 0 0 1 5.052-1.472 5.79 5.79 0 0 1 4.352 1.536 3.185 3.185 0 0 1 .81 3.405 4.82 4.82 0 0 1-1.68 2.213 9.05 9.05 0 0 1-.855.587 11.58 11.58 0 0 0-3.726 3.739q-1.348 2.037-2.725 4.055a7.03 7.03 0 0 1-.851 1.019 4.467 4.467 0 0 1-4.266 1.088 2.836 2.836 0 0 1-2.029-1.806 6.775 6.775 0 0 1-.637-3.323zM7.508 195.82a5.15 5.15 0 0 1-4.244-2.084 7.52 7.52 0 0 1-1.543-3.169 16.71 16.71 0 0 1-.467-3.51 7.55 7.55 0 0 1 4.835-6.851.777.777 0 0 1 .835.071 6.77 6.77 0 0 0 2.022.894c2.675.94 3.947 2.948 4.517 5.586a6.62 6.62 0 0 1-.2 3.2 8.46 8.46 0 0 1-2 3.753 5.78 5.78 0 0 1-2.618 1.871c-.369.12-.75.201-1.137.239z" fill="#ffc242"/><path d="M169.832 8.077h11.622a5.873 5.873 0 0 1 1.762.172 4.74 4.74 0 0 0 1.321.109l4.751.015a13.72 13.72 0 0 1 2.795.216 14.45 14.45 0 0 0 2.663.078 8.32 8.32 0 0 1 2.644.235 3.61 3.61 0 0 0 1.032.058 11.82 11.82 0 0 1 3.238.252 5.08 5.08 0 0 0 1.329.047 7.128 7.128 0 0 1 2.349.224 3.3 3.3 0 0 0 1.034.072 8.26 8.26 0 0 1 2.643.25c.291.06.589.077.884.049a4.69 4.69 0 0 1 1.9.223.8.8 0 0 0 .291.054 55.9 55.9 0 0 1 6.868.878 50.4 50.4 0 0 1 6.017 1.476 4.937 4.937 0 0 1 2.6 2.089c.296.457.542.946.733 1.456a1.532 1.532 0 0 1-1.316 2.134 3.32 3.32 0 0 1-1.169-.136c-1.423-.4-2.9-.534-4.345-.8a22.861 22.861 0 0 1-3.356-.474 3.577 3.577 0 0 0-1.032-.067 5.77 5.77 0 0 1-1.9-.219 3.41 3.41 0 0 0-1.029-.078 5.925 5.925 0 0 1-1.906-.207 3.43 3.43 0 0 0-1.027-.089 7.348 7.348 0 0 1-2.348-.234 3.42 3.42 0 0 0-1.031-.065 6.72 6.72 0 0 1-2.2-.227 3.302 3.302 0 0 0-1.03-.069 8.866 8.866 0 0 1-2.647-.244 4.29 4.29 0 0 0-1.18-.056 9.21 9.21 0 0 1-2.645-.234 4.79 4.79 0 0 0-1.327-.064 4.502 4.502 0 0 1-1.756-.2.94.94 0 0 0-.435-.074c-1.934.161-3.825-.413-5.755-.322a3.91 3.91 0 0 1-1.464-.171 7.15 7.15 0 0 0-2.064-.118c-.888.04-1.778-.038-2.646-.232a5.77 5.77 0 0 0-1.476-.065 16.27 16.27 0 0 1-4.126-.271 3.899 3.899 0 0 0-1.035-.025c-1.485 0-2.969 0-4.454-.01a6.69 6.69 0 0 1-2.2-.215 3.76 3.76 0 0 0-1.178-.067q-6.236-.006-12.471 0a5.3 5.3 0 0 0-1.614.165 4.166 4.166 0 0 1-1.172.116l-3.563.014a5.92 5.92 0 0 0-1.906.2 3.9 3.9 0 0 1-1.176.085l-3.563.013a6.918 6.918 0 0 0-2.5.231 2.12 2.12 0 0 1-.736.054c-1.782 0-3.563-.008-5.345.009a2.56 2.56 0 0 1-1.658-.531 1.37 1.37 0 0 1-.04-2.179 2.42 2.42 0 0 1 1.053-.523l5.217-.963a31.769 31.769 0 0 0 3.948-.5 3.3 3.3 0 0 1 .885-.057 4.2 4.2 0 0 0 1.609-.194.963.963 0 0 1 .433-.084c1.835.152 3.626-.419 5.458-.327a5.6 5.6 0 0 0 1.907-.19 5.506 5.506 0 0 1 1.472-.093 25.46 25.46 0 0 0 2.967-.03c4.436-.592 8.888-.078 12.396-.27z" fill="#efebe4"/><path d="M136.458 41.218a13.73 13.73 0 0 1 .269-3.172 9.17 9.17 0 0 1 2.538-4.944 11.41 11.41 0 0 1 9.489-3.662 7.59 7.59 0 0 1 3.094.958 3.343 3.343 0 0 1 1.659 2.007 1.47 1.47 0 0 1-.048 1.014c-.136.325-.438.46-.7.245a6.26 6.26 0 0 0-2.179-1.227c-3.633-1-7.51.296-9.81 3.28a6.746 6.746 0 0 0-1.239 2.674 10.85 10.85 0 0 0 .972 7.768 6.47 6.47 0 0 0 6.866 3.324l.878-.147a2.95 2.95 0 0 0 2.236-1.54 5.68 5.68 0 0 1 .555-.876 1.473 1.473 0 0 1 1.852-.462 1.4 1.4 0 0 1 .518 1.7 5.246 5.246 0 0 1-2.783 3.316 9.683 9.683 0 0 1-11.791-2.691 11.3 11.3 0 0 1-2.368-6.449c-.025-.396-.008-.793-.008-1.116zm36.265 9.974.557-6.666.127-2.514a41.19 41.19 0 0 1 .362-4.281c.052-.342.124-.68.215-1.014.084-.391.338-.725.692-.912a5.74 5.74 0 0 1 6.9.479 4.304 4.304 0 0 1 1.632 4.342 7.435 7.435 0 0 1-5.149 5.4 17.47 17.47 0 0 1-1.769.169.547.547 0 0 0-.402.156.55.55 0 0 0-.164.399l-.247 4.142a11.63 11.63 0 0 1-.639 3.184.846.846 0 0 1-.854.686.887.887 0 0 1-.878-.667 9.5 9.5 0 0 1-.383-2.903zm-4.382-5.561-1.278.131a3.284 3.284 0 0 1-3.317-2.633 9.203 9.203 0 0 1 .231-4.542 1.93 1.93 0 0 1 .5-.9.765.765 0 0 1 1.29.35 4.62 4.62 0 0 1 .074 1.03 16.94 16.94 0 0 0 .27 2.8c.037.244.112.48.223.7a.69.69 0 0 0 1.127.172c.238-.251.44-.533.6-.84a8.28 8.28 0 0 0 1.009-3.081c.032-.495.166-.979.395-1.419a1.255 1.255 0 0 1 1.357-.671 1.17 1.17 0 0 1 .938 1.18 34.836 34.836 0 0 1-1.875 13.131 9.21 9.21 0 0 1-2.793 3.954 5.14 5.14 0 0 1-2.076 1.106 2.9 2.9 0 0 1-3.545-2.319 1.37 1.37 0 0 1 .274-1.115.81.81 0 0 1 1.176-.164c.078.059.141.139.215.2.916.8 1.381.829 2.3.082a6.6 6.6 0 0 0 1.545-1.78 11.6 11.6 0 0 0 1.481-5.075c.007-.085-.07-.176-.121-.297z" fill="#2d2c2b"/><path d="M197.778 38.508a.7.7 0 0 0 .538-.295l.765-.7c2.036-1.6 4.235-1.137 5.451 1.17.435.783.671 1.661.688 2.556l-.028 2.077a14.08 14.08 0 0 0 .167 3.4 1.91 1.91 0 0 1-.089 1.022 1.184 1.184 0 0 1-2.006.546 2.492 2.492 0 0 1-.758-1.409 12.47 12.47 0 0 1-.213-3.249l.1-1.481a4.48 4.48 0 0 0-.277-1.895c-.313-.816-.82-.955-1.468-.406a7.97 7.97 0 0 0-.826.848 10.233 10.233 0 0 0-2.319 4.9l-.335 1.9c-.169.841-.6 1.264-1.223 1.257-.59-.007-1.11-.592-1.125-1.485.022-1.534.147-3.065.373-4.582l.3-3.844a9.98 9.98 0 0 1 .215-1.612.873.873 0 0 1 1.663-.106c.177.458.281.939.407 1.388z" fill="#2e2c2b"/><path d="M211.916 38.625a5.33 5.33 0 0 0-2.127-.541c-.246-.019-.494 0-.74-.024-.54-.046-.9-.285-.894-.592a.983.983 0 0 1 .68-.879 3.19 3.19 0 0 1 .555-.2 5.536 5.536 0 0 1 5.159 1.344 5.54 5.54 0 0 1 1.633 5.075 7.42 7.42 0 0 1-4.4 5.574 5.13 5.13 0 0 1-2.6.45 3.04 3.04 0 0 1-2.53-1.572 4.48 4.48 0 0 1-.234-4.13 6.516 6.516 0 0 1 4.047-3.853 13.56 13.56 0 0 1 1.435-.348c.126-.018.165-.087.114-.206-.022-.068-.059-.098-.098-.098zm-28.284 5.679a9.61 9.61 0 0 1 .271-2.233 5.97 5.97 0 0 1 5.59-4.539 3.553 3.553 0 0 1 3.336 1.85 5.2 5.2 0 0 1 .116 5.752 8.26 8.26 0 0 1-3.277 3.143 4 4 0 0 1-3.3.321 4.056 4.056 0 0 1-2.686-3.437 5.74 5.74 0 0 1-.052-.858zm47.448-2.958a10.79 10.79 0 0 1-1.926 5.526 4.56 4.56 0 0 1-2.878 1.951 3.73 3.73 0 0 1-4.465-2.507 5.49 5.49 0 0 1 .523-4.713 7.12 7.12 0 0 1 3.2-2.995c.411-.185.4-.377.218-.787a.81.81 0 0 1 .978-1.15c2.879.617 4.46 1.774 4.35 4.675zM129.918 75.611a1.42 1.42 0 0 0-.4-.052.466.466 0 0 1-.359-.003.47.47 0 0 1-.25-.258.625.625 0 0 1 .154-.681 1.72 1.72 0 0 1 .207-.211c1.305-1.065 4.3-1.34 5.739.606.269.354.503.732.7 1.13a2.2 2.2 0 0 1-.512 2.923l-.312.368a8.65 8.65 0 0 1 .748.684 2.12 2.12 0 0 1 .288 2.6 4.664 4.664 0 0 1-1.871 1.852 10.687 10.687 0 0 1-4.957 1.3 7.04 7.04 0 0 1-1.721-.4c-.8-.174-1.022-.494-.789-1.185q.519-1.539 1.106-3.055l2.229-5.618zm27.436-36.06 2-1.484a3.35 3.35 0 0 1 2.088-.632 1.77 1.77 0 0 1 .7.173.95.95 0 0 1 .374 1.281 3.48 3.48 0 0 1-.99 1.086c-.31.242-.647.451-.972.675a4.297 4.297 0 0 0-1.789 2.622 19.96 19.96 0 0 0-.561 4.835l-.01 1.183a1.026 1.026 0 0 1-.759.985 1.175 1.175 0 0 1-1.294-.488 3.48 3.48 0 0 1-.589-1.5 7.3 7.3 0 0 1-.117-1.619c.177-1.924.025-3.845.036-5.768l.059-1.922a1.8 1.8 0 0 1 .3-.977.66.66 0 0 1 .626-.315.58.58 0 0 1 .554.411l.344 1.454z" fill="#2e2d2c"/><path d="M126.305 110.981a3.21 3.21 0 0 1-3.4-3.288 1.11 1.11 0 0 1 .644-1.076.4.4 0 0 1 .565.263c.023.2-.005.4.026.591a2.03 2.03 0 0 0 2.1 1.862 4.64 4.64 0 0 0 4.471-2.607 4.09 4.09 0 0 0 .367-.962 1.356 1.356 0 0 0-.828-1.816c-.533-.251-1.106-.418-1.66-.627a6.678 6.678 0 0 1-2.258-1.378 3.655 3.655 0 0 1 .776-5.72 3.5 3.5 0 0 1 3.759.355c.482.427.877.942 1.164 1.518a.289.289 0 0 1-.052.258c-.054.06-.2.117-.251.085l-1.081-.771a3.08 3.08 0 0 0-1.469-.655 2.084 2.084 0 0 0-2.257 1.3 2.108 2.108 0 0 0 .426 2.45 5.234 5.234 0 0 0 1.937 1.051l1.525.559a2.92 2.92 0 0 1 1.757 3.877 6.394 6.394 0 0 1-6.261 4.731z" fill="#2f2d2c"/><path d="m219.849 37.755 1.248-.829a2.805 2.805 0 0 1 2.007-.3c.401.066.732.35.857.737a1.04 1.04 0 0 1-.435 1.167c-.329.216-.678.4-1.042.549a4.4 4.4 0 0 0-2.513 2.754 20.62 20.62 0 0 0-1.046 4.455l-.284 1.9a1.437 1.437 0 0 1-.363.793 1.064 1.064 0 0 1-1.8-.355 1.725 1.725 0 0 1-.01-1.016l.9-4.346.959-5.689.328-1.592a.58.58 0 0 1 .539-.432c.306.012.556.25.581.556l.074 1.648z" fill="#2e2d2c"/><path d="M176.74 106.35a2.69 2.69 0 0 1-2.781-1.985 3.51 3.51 0 0 1-.035-2.32 5.12 5.12 0 0 1 2.046-2.641 2.01 2.01 0 0 1 2.788.248 3.94 3.94 0 0 1 1.3 3.862 3.5 3.5 0 0 1-3.318 2.836zm-16.312-4.586a3.11 3.11 0 0 0-1.429-.831.49.49 0 0 1-.338-.578.723.723 0 0 1 .5-.5.91.91 0 0 1 .292-.041 2.83 2.83 0 0 1 2.979 2.669 9.63 9.63 0 0 1-.048 1.623 3.633 3.633 0 0 1-1.642 2.689 1.99 1.99 0 0 1-2.221.231 2.17 2.17 0 0 1-1.106-2.249 3.22 3.22 0 0 1 2.407-2.877l.606-.136z" fill="#302e2d"/><path d="m171.99 81.841 2.068.446a.513.513 0 0 1 .379.56.55.55 0 0 1-.393.563 5 5 0 0 1-1.3.229l-2.95-.155a.724.724 0 0 1-.758-.57.74.74 0 0 1 .322-.77l1.75-1.358a15.443 15.443 0 0 0 1.505-1.411 3.18 3.18 0 0 0 .863-1.843 2.45 2.45 0 0 0-.088-.869.755.755 0 0 0-.953-.471c-.452.186-.875.438-1.311.663a.29.29 0 0 1-.388-.1.538.538 0 0 1-.111-.394 2.55 2.55 0 0 1 2.226-1.434c.914.089 1.66.769 1.835 1.67a3.845 3.845 0 0 1-.311 2.448 6.68 6.68 0 0 1-1.727 2.186l-.658.61zm-.912 17.23c-.409-.217-.86.091-1.059-.292-.23-.445.123-.751.412-1a6.36 6.36 0 0 1 1.2-.857.82.82 0 0 1 1.205.816 6.65 6.65 0 0 1-.4 1.567l-2.055 5.711-.35.976a.96.96 0 0 0 .075.7c.249.634.162.834-.376 1.008a9.8 9.8 0 0 1-1.29.327.96.96 0 0 1-1.126-.487c-.152-.368.025-.712.579-1.031.255-.146.509-.232.63-.563l2.555-6.875zm-34.338 9.924a2.02 2.02 0 0 1-2.133-1.471 3.26 3.26 0 0 1 .677-3.557c.268-.285.57-.54.863-.8a1.39 1.39 0 0 1 1.855-.111c.414.342.808.711 1.186 1.092a2.5 2.5 0 0 1 .5 2.983 3.256 3.256 0 0 1-2.949 1.866z" fill="#312f2e"/><path d="M181.253 78.729a3.046 3.046 0 0 1-2.6 3.113 2.17 2.17 0 0 1-2.8-1.848 3.825 3.825 0 0 1 1.833-3.752 2.77 2.77 0 0 1 3.124.52 2.72 2.72 0 0 1 .443 1.967z" fill="#302f2e"/><path d="M187.285 81.776a13.19 13.19 0 0 1-1.512 2.7 3.35 3.35 0 0 1-.379.455.57.57 0 0 1-.788.135.56.56 0 0 1-.182-.664 8.96 8.96 0 0 1 .42-.948l3.973-6.952a23.97 23.97 0 0 1 1.87-2.487 3.02 3.02 0 0 1 .666-.574c.23-.158.661.112.648.391.006.148-.019.295-.074.432a7.19 7.19 0 0 1-.552.878 42.64 42.64 0 0 0-2.9 4.656c-.191.341-.42.661-.631.991-.185.141-.124.419-.31.559l-.013.028a.78.78 0 0 0-.236.4zm-41.133 24a3.903 3.903 0 0 1 1.042-2.76c.194-.225.163-.435-.123-.587a.485.485 0 0 1-.275-.609.69.69 0 0 1 .691-.456 2.876 2.876 0 0 1 2.8 1.534 4.1 4.1 0 0 1 .265 2.733 2.7 2.7 0 0 1-2.923 1.95 1.516 1.516 0 0 1-1.315-1.031 3.71 3.71 0 0 1-.162-.774zm6.511-3.338 1.024-.639a1.13 1.13 0 0 1 1.584.612 3.11 3.11 0 0 1 .218 1.452l-.1 1.18a1.51 1.51 0 0 0 .989 1.644 1.41 1.41 0 0 1 .489.318.344.344 0 0 1 .112.264.35.35 0 0 1-.125.259 1.12 1.12 0 0 1-.487.3c-.536.124-1.1.023-1.559-.279a2.02 2.02 0 0 1-.875-1.321 3.71 3.71 0 0 1 .032-1.325 3.88 3.88 0 0 0 .084-1.605c-.311-.076-.456.133-.6.33a7.51 7.51 0 0 0-1.071 2.1 1.52 1.52 0 0 1-.252.519.494.494 0 0 1-.393.131c-.123-.02-.231-.154-.336-.249a.2.2 0 0 1-.036-.141 17.16 17.16 0 0 1 .38-4.262 1.84 1.84 0 0 1 .289-.5c.093-.131.474-.069.5.087.059.338.083.675.133 1.125zm-11.216-20.435a13.3 13.3 0 0 1 .771-3.208 4.026 4.026 0 0 0 .419-1.709.543.543 0 0 1 .112-.415c.585-.494.8-1.245 1.277-1.8a1.53 1.53 0 0 1 .469-.331.41.41 0 0 1 .553.318 1.8 1.8 0 0 1-.1.718c-.213.444-.132.662.311.933.568.347.508.931-.119 1.068-1 .219-1.3.885-1.5 1.747a14.15 14.15 0 0 0-.491 2.915 2.76 2.76 0 0 0 .175 1.161.506.506 0 0 1-.182.652.68.68 0 0 1-.7.045 1.67 1.67 0 0 1-.937-1.255 5.05 5.05 0 0 1-.058-.839z" fill="#312f2e"/><path d="m143.588 98.389-.759 3.8a11.777 11.777 0 0 0-.247 3.668c.164 1.151.2 1.194 1.339 1.317l.438.058a.4.4 0 0 1 .257.572 1.76 1.76 0 0 1-1.794.776 1.46 1.46 0 0 1-1.358-1.171 9.796 9.796 0 0 1-.205-3.378c.175-1.665.458-3.317.848-4.946a4.79 4.79 0 0 1 .452-1.081.63.63 0 0 1 .779-.223.6.6 0 0 1 .25.608z" fill="#323130"/><path d="M150.41 80.585a3.16 3.16 0 0 1 1.9-2.938c.365-.157.766-.21 1.159-.151a1.01 1.01 0 0 1 .895.682c.145.519.326 1.028.542 1.522a1.22 1.22 0 0 1 .054.723 3 3 0 0 1-1.256 1.94 2.043 2.043 0 0 1-2.234.206 2.1 2.1 0 0 1-1.06-1.984z" fill="#302f2e"/><path d="m160.128 78.302 1.279-.683a.85.85 0 0 1 1.216.69 7.35 7.35 0 0 1 .01 1.328 5.639 5.639 0 0 1-.146 1.025 1.22 1.22 0 0 0 .692 1.589c.354.17.267.627-.095.786a1.11 1.11 0 0 1-1-.035 1.52 1.52 0 0 1-.788-1.614l.3-1.9c.027-.186.074-.407-.174-.492-.222-.076-.368.091-.508.219a4.004 4.004 0 0 0-.955 1.307l-.333.823c-.225.51-.544.724-.871.571-.393-.184-.348-.55-.318-.892q.153-1.7.32-3.391c.007-.148.041-.293.1-.429a.59.59 0 0 1 .585-.373.55.55 0 0 1 .5.467c.083.317-.115.677.186 1.004z" fill="#32312f"/><path d="M148.485 83.795a3.1 3.1 0 0 1-3.307-3.675 5.52 5.52 0 0 1 1.949-3.061 2.326 2.326 0 0 1 2.078-.523.94.94 0 0 1 .6.4c.1.158.056.464-.1.509a.86.86 0 0 1-.287.056 2.055 2.055 0 0 0-1.678.8 3.61 3.61 0 0 0-1 1.787c-.203.793.14 1.625.843 2.044a6.69 6.69 0 0 0 1.655.62.4.4 0 0 1 .309.443.53.53 0 0 1-.338.448 4.94 4.94 0 0 1-.724.152z" fill="#312f2e"/><path d="M182.176 109.266a.43.43 0 0 1-.379-.44 1.2 1.2 0 0 1 .207-.547l.768-1.091a78 78 0 0 1 6.607-7.416 2.82 2.82 0 0 1 1.172-.874.44.44 0 0 1 .521.174.486.486 0 0 1 0 .418 2.937 2.937 0 0 1-.474.563 75.67 75.67 0 0 0-7.047 8.014 9.5 9.5 0 0 1-1.016 1.075c-.082.089-.259.093-.359.124zm-41.752-29.412a9.79 9.79 0 0 1-1.4 3.9.9.9 0 0 1-.093.114c-.325.4-.716.549-1.012.4a.95.95 0 0 1-.393-1.024 2.58 2.58 0 0 1 .159-.565l1.445-3.215a1.32 1.32 0 0 1 .066-.131c.181-.306.4-.57.8-.538.265.022.45.389.443.832a2.725 2.725 0 0 0-.015.227z" fill="#32302f"/><path d="M155.513 81.142a7.85 7.85 0 0 1 .48-2.891 3.2 3.2 0 0 1 .529-.877.56.56 0 0 1 .678-.131.6.6 0 0 1 .368.588c-.009.242-.1.479-.13.722-.09.761-.422 1.495-.01 2.3.214.417-.225 1.127-.654 1.367a.826.826 0 0 1-1.191-.485 2.99 2.99 0 0 1-.07-.593z" fill="#343231"/><path d="M188.459 74.41a2.12 2.12 0 0 1-1.689 1.827 1.7 1.7 0 0 1-1.6-.893 1.34 1.34 0 0 1 .126-1.53 1.707 1.707 0 0 1 2.948-.1 1.08 1.08 0 0 1 .215.696z" fill="#373332"/><path d="M190.477 82.305a2 2 0 0 1-.454 1.189 1.314 1.314 0 0 1-1.662.516 1.6 1.6 0 0 1-.734-1.884 1.73 1.73 0 0 1 .969-1.044c1.022-.424 1.837-.075 1.881 1.223z" fill="#393736"/><path d="M186.091 109.595a1.161 1.161 0 0 1-1.268-1.292 2.23 2.23 0 0 1 1.057-1.687.618.618 0 0 1 .421-.069 1.707 1.707 0 0 1 1.438 1.623 1.736 1.736 0 0 1-1.648 1.425z" fill="#353231"/><path d="M185.914 98.738c.064-.324.16-.641.287-.946a1.25 1.25 0 0 1 1.944-.542 1.34 1.34 0 0 1 .323 2.035c-.273.35-.649.606-1.074.734-.806.265-1.476-.236-1.48-1.281z" fill="#383635"/><path d="M116.531 106.568c.497-.05.996.076 1.41.356.211.144.316.4.266.65a.6.6 0 0 1-.493.495l-2.211.18c-.362.005-.674-.254-.735-.611s.13-.703.461-.84c.41-.179.856-.257 1.302-.23z" fill="#3a3534"/><path d="M122.042 80.324a1.68 1.68 0 0 1 .865.064.655.655 0 0 1 .273 1.063 1.87 1.87 0 0 1-2.521.048.8.8 0 0 1-.2-.523.53.53 0 0 1 .422-.53 11.42 11.42 0 0 1 1.161-.122z" fill="#353433"/><path d="M114.342 127.988a1.16 1.16 0 0 1-.724-.158.611.611 0 0 1-.122-.9 2.68 2.68 0 0 1 2.32-.535.68.68 0 0 1 .066 1.257 3.98 3.98 0 0 1-1.54.336z" fill="#3c3837"/><path d="M140.092 77.26a.64.64 0 0 1-.722.573.56.56 0 0 1-.541-.58.65.65 0 0 1 .795-.645.6.6 0 0 1 .468.652z" fill="#423e3c"/><path d="M157.557 75.8a.494.494 0 0 1-.381.523.543.543 0 0 1-.634-.427.466.466 0 0 1 .375-.51.542.542 0 0 1 .64.414z" fill="#585553"/><path d="M187.551 81.306a.555.555 0 0 1 .31-.559.64.64 0 0 1-.31.559z" fill="#393736"/><path d="M211.926 38.625c.169.015.417-.031.372.234-.021.124-.238.117-.383.066l.011-.3z" fill="#8da09d"/><path d="M187.304 81.722c0-.165.091-.317.238-.394a.4.4 0 0 1-.238.394z" fill="#393736"/><path d="M235.608 188.305c.13-.22.35-.235.57-.253a1.79 1.79 0 0 1 .284.052q.167.114.332.232a18.9 18.9 0 0 1 3.284 1.252 8.405 8.405 0 0 1 2.517 1.754l3.124 3.113a8.25 8.25 0 0 1 .838 1.014c.237.334.119.583-.255.588-.391.005-.783-.02-1.174-.033a3.68 3.68 0 0 0-.979-1.446 19.588 19.588 0 0 0-3.089-3.312 15.77 15.77 0 0 0-2.383-1.425l-2.507-1.218q-.154-.134-.32-.252a.587.587 0 0 1-.242-.066z" fill="#030202"/><path d="m236.884 188.407-.332-.232z" fill="#171212"/><path d="M175.461 240.815c-.89 0-1.781-.009-2.671 0a9.75 9.75 0 0 1-3.463-.711 6.26 6.26 0 0 1-2.108-1.348 4.78 4.78 0 0 1-1.3-4.361 1.36 1.36 0 0 1 .447-.752 14.89 14.89 0 0 1 7.433-4.64c2.4-.583 4.836-.936 7.276-1.289 3.851-.557 7.74-.844 11.549-1.7 1.441-.323 2.914-.5 4.363-.8a31.2 31.2 0 0 0 5.727-1.992 36.97 36.97 0 0 0 7.236-3.72c.847-.6 1.7-1.2 2.5-1.854 1.72-1.413 3.571-2.645 5.379-3.935 1.975-1.408 3.821-2.972 5.642-4.561a75.067 75.067 0 0 1 8.893-6.645l4.535-2.81a16.04 16.04 0 0 1 5.718-1.935 18.46 18.46 0 0 1 3.234-.338 11.936 11.936 0 0 1 8.773 3.654c.628.629 1.22 1.293 1.774 1.989a9.495 9.495 0 0 1 1.863 3.989c.475 1.764.592 3.605.343 5.415a7.577 7.577 0 0 1-1.945 3.908 19.1 19.1 0 0 1-4.743 3.521 58.11 58.11 0 0 1-9.365 4.079 62.72 62.72 0 0 1-7.747 1.938c-4.154.839-8.353 1.43-12.5 2.318-2.02.433-4.086.658-6.133.961a39.94 39.94 0 0 0-10.271 2.709c-1.13.493-2.3.893-3.469 1.3a47.92 47.92 0 0 0-5.329 2.228 57.356 57.356 0 0 1-12.961 4.569c-1.2.261-2.435.373-3.649.562a38.48 38.48 0 0 1-5.031.251z" fill="#ffc242"/><path d="m235.948 188.439.32.252z" fill="#171212"/><path d="M175.848 40.455v-2.212a.485.485 0 0 1 .422-.518 5.06 5.06 0 0 1 2.617.2 2.25 2.25 0 0 1 1.067 3.614 3.8 3.8 0 0 1-2.62 1.757c-1.676.275-1.531.143-1.53-1.215v-1.623z" fill="#d3d0cc"/><path d="M208.819 44.667a4.84 4.84 0 0 1 3.45-4.195 4.04 4.04 0 0 1 1.175-.056.564.564 0 0 1 .523.45 3.63 3.63 0 0 1-.818 3.718 5.77 5.77 0 0 1-2.806 1.574c-1.006.247-1.494-.15-1.523-1.2l-.001-.291zm-22.965-.499a5.026 5.026 0 0 1 2.3-4.562 1.28 1.28 0 0 1 1.9.346 5.58 5.58 0 0 1 .827 2.037 2.45 2.45 0 0 1-.31 1.563 5.38 5.38 0 0 1-2.385 2.336 1.4 1.4 0 0 1-2.22-1.042 6.22 6.22 0 0 1-.112-.678zm39.715 2.289a1.62 1.62 0 0 1-1.673-1.311 2.5 2.5 0 0 1 0-1.025 5.716 5.716 0 0 1 3.611-4.352.65.65 0 0 1 .962.365 2.4 2.4 0 0 1 .312 1.565 8.21 8.21 0 0 1-1.786 4 1.81 1.81 0 0 1-1.426.758z" fill="#d4d1cd"/><path d="m128.027 83.842 1.259-3.435c.068-.184.165-.4.371-.409.1-.006.2.208.325.281.588.267 1.248.33 1.875.179a3.98 3.98 0 0 1 1.9.146 3.67 3.67 0 0 1 .539.243.7.7 0 0 1 .256.9 2.46 2.46 0 0 1-1.231 1.237 9.266 9.266 0 0 1-5.005 1.022c-.085-.005-.16-.086-.289-.164z" fill="#d3d0cc"/><path d="m129.749 79.074 1.255-3.581a.85.85 0 0 1 .92-.586 2.7 2.7 0 0 1 2.684 2.312.713.713 0 0 1-.3.78 4.27 4.27 0 0 1-2.436.963c-.641.001-1.281.065-2.123.112zm49.023 23.754a2 2 0 0 1-1.529 2.026 1.44 1.44 0 0 1-1.885-1.15 2.07 2.07 0 0 1 .125-1.577c.199-.394.44-.765.718-1.107.7-.82.925-.869 1.808-.1.496.51.771 1.196.763 1.908z" fill="#d2cfcb"/><path d="M159.454 105.683a.537.537 0 0 1-.516-.451 1.727 1.727 0 0 1 1.71-1.951c.185 0 .4.094.389.353a2.25 2.25 0 0 1-1.3 2 .91.91 0 0 1-.283.049z" fill="#c5c4c0"/><path d="M135.626 105.989a2.08 2.08 0 0 1 .969-1.582c.117-.08.265-.1.4-.056a4.3 4.3 0 0 1 1.433 1.248.92.92 0 0 1 .016.982 1.947 1.947 0 0 1-.84.809c-1.104.547-1.992-.022-1.978-1.401z" fill="#cfcdc9"/><path d="M179.929 78.549c-.006 1.2-.483 1.737-1.486 1.861a.974.974 0 0 1-1.055-.819 2.47 2.47 0 0 1 1.407-2.395.7.7 0 0 1 1.017.52 7.47 7.47 0 0 1 .117.833z" fill="#cecbc7"/><path d="M149.409 104.873a3.61 3.61 0 0 1-.221.655 1.245 1.245 0 0 1-1.389.565c-.313-.177-.4-.627-.249-1.21a2.4 2.4 0 0 1 .974-1.438.334.334 0 0 1 .508.111 3.34 3.34 0 0 1 .377 1.317z" fill="#c6c4c0"/><path d="M151.982 80.53a3.71 3.71 0 0 1 .044-.407c.114-.545.557-1.064.888-1.054.389.013.751.951.558 1.5-.07.182-.176.348-.313.488a.715.715 0 0 1-.8.227c-.328-.119-.362-.421-.377-.754z" fill="#c7c7c3"/><path d="M186.538 75.003a.354.354 0 0 1-.291-.418.618.618 0 0 1 .693-.564.362.362 0 0 1 .3.418.66.66 0 0 1-.702.564z" fill="#9fa29f"/><path d="M189.383 82.286a.635.635 0 0 1-.156.549.363.363 0 0 1-.251.123.275.275 0 0 1-.242-.3.586.586 0 0 1 .244-.512c.074-.051.189-.112.255-.087s.103.148.15.227z" fill="#aaa9a6"/><path d="M186.573 108.115a.466.466 0 0 1-.4.486.29.29 0 0 1-.355-.324.476.476 0 0 1 .38-.523c.179-.027.332.141.375.361z" fill="#aeb3af"/><path d="M187.856 98.593c-.007.234-.269.451-.6.583a.586.586 0 0 1-.405-.049.3.3 0 0 1-.117-.387 2.3 2.3 0 0 1 .32-.653c.107-.139.282-.288.507-.137a.653.653 0 0 1 .295.643z" fill="#b6b7b3"/></svg>