<svg xmlns="http://www.w3.org/2000/svg" width="183" height="70" viewBox="0 0 183 70"><g transform="translate(-1190 -699)"><path d="M5,0H180a0,0,0,0,1,0,0V70a0,0,0,0,1,0,0H0a0,0,0,0,1,0,0V5A5,5,0,0,1,5,0Z" transform="translate(1190 699)" fill="#ffc825"/><path d="M5,2A3,3,0,0,0,2,5V68H178V2H5M5,0H180V70H0V5A5,5,0,0,1,5,0Z" transform="translate(1190 699)" fill="#ce7230"/><path d="M171.336,1H168a1,1,0,0,1-1-1,1,1,0,0,1,1-1h3.336a1,1,0,0,1,1,1A1,1,0,0,1,171.336,1ZM161,1h-7a1,1,0,0,1-1-1,1,1,0,0,1,1-1h7a1,1,0,0,1,1,1A1,1,0,0,1,161,1ZM147,1h-7a1,1,0,0,1-1-1,1,1,0,0,1,1-1h7a1,1,0,0,1,1,1A1,1,0,0,1,147,1ZM133,1h-7a1,1,0,0,1-1-1,1,1,0,0,1,1-1h7a1,1,0,0,1,1,1A1,1,0,0,1,133,1ZM119,1h-7a1,1,0,0,1-1-1,1,1,0,0,1,1-1h7a1,1,0,0,1,1,1A1,1,0,0,1,119,1ZM105,1H98a1,1,0,0,1-1-1,1,1,0,0,1,1-1h7a1,1,0,0,1,1,1A1,1,0,0,1,105,1ZM91,1H84a1,1,0,0,1-1-1,1,1,0,0,1,1-1h7a1,1,0,0,1,1,1A1,1,0,0,1,91,1ZM77,1H70a1,1,0,0,1-1-1,1,1,0,0,1,1-1h7a1,1,0,0,1,1,1A1,1,0,0,1,77,1ZM63,1H56a1,1,0,0,1-1-1,1,1,0,0,1,1-1h7a1,1,0,0,1,1,1A1,1,0,0,1,63,1ZM49,1H42a1,1,0,0,1-1-1,1,1,0,0,1,1-1h7a1,1,0,0,1,1,1A1,1,0,0,1,49,1ZM35,1H28a1,1,0,0,1-1-1,1,1,0,0,1,1-1h7a1,1,0,0,1,1,1A1,1,0,0,1,35,1ZM21,1H14a1,1,0,0,1-1-1,1,1,0,0,1,1-1h7a1,1,0,0,1,1,1A1,1,0,0,1,21,1ZM7,1H0A1,1,0,0,1-1,0,1,1,0,0,1,0-1H7A1,1,0,0,1,8,0,1,1,0,0,1,7,1Z" transform="translate(1198.789 704.003)" fill="#fff" opacity="0.36"/><path d="M171.336,1H168a1,1,0,0,1-1-1,1,1,0,0,1,1-1h3.336a1,1,0,0,1,1,1A1,1,0,0,1,171.336,1ZM161,1h-7a1,1,0,0,1-1-1,1,1,0,0,1,1-1h7a1,1,0,0,1,1,1A1,1,0,0,1,161,1ZM147,1h-7a1,1,0,0,1-1-1,1,1,0,0,1,1-1h7a1,1,0,0,1,1,1A1,1,0,0,1,147,1ZM133,1h-7a1,1,0,0,1-1-1,1,1,0,0,1,1-1h7a1,1,0,0,1,1,1A1,1,0,0,1,133,1ZM119,1h-7a1,1,0,0,1-1-1,1,1,0,0,1,1-1h7a1,1,0,0,1,1,1A1,1,0,0,1,119,1ZM105,1H98a1,1,0,0,1-1-1,1,1,0,0,1,1-1h7a1,1,0,0,1,1,1A1,1,0,0,1,105,1ZM91,1H84a1,1,0,0,1-1-1,1,1,0,0,1,1-1h7a1,1,0,0,1,1,1A1,1,0,0,1,91,1ZM77,1H70a1,1,0,0,1-1-1,1,1,0,0,1,1-1h7a1,1,0,0,1,1,1A1,1,0,0,1,77,1ZM63,1H56a1,1,0,0,1-1-1,1,1,0,0,1,1-1h7a1,1,0,0,1,1,1A1,1,0,0,1,63,1ZM49,1H42a1,1,0,0,1-1-1,1,1,0,0,1,1-1h7a1,1,0,0,1,1,1A1,1,0,0,1,49,1ZM35,1H28a1,1,0,0,1-1-1,1,1,0,0,1,1-1h7a1,1,0,0,1,1,1A1,1,0,0,1,35,1ZM21,1H14a1,1,0,0,1-1-1,1,1,0,0,1,1-1h7a1,1,0,0,1,1,1A1,1,0,0,1,21,1ZM7,1H0A1,1,0,0,1-1,0,1,1,0,0,1,0-1H7A1,1,0,0,1,8,0,1,1,0,0,1,7,1Z" transform="translate(1200.664 764.003)" fill="#fff" opacity="0.36"/><path d="M8.587,33.208a1,1,0,0,1-1-1v-7a1,1,0,0,1,2,0v7A1,1,0,0,1,8.587,33.208Zm0-14a1,1,0,0,1-1-1v-7a1,1,0,0,1,2,0v7A1,1,0,0,1,8.587,19.209Zm0-14a1,1,0,0,1-1-1v-7a1,1,0,0,1,1-1,1,1,0,0,1,1,1v7A1,1,0,0,1,8.587,5.209Zm0-14a1,1,0,0,1-1-1v-7a1,1,0,0,1,1-1,1,1,0,0,1,1,1v7A1,1,0,0,1,8.587-8.791Z" transform="translate(1186.664 727.003)" fill="#fff" opacity="0.36"/></g></svg>