<svg xmlns="http://www.w3.org/2000/svg" width="71" height="55" fill="none"><path d="M60.105 4.898A58.55 58.55 0 0 0 45.653.415a.22.22 0 0 0-.232.11 41.076 41.076 0 0 0-1.8 3.696c-5.457-.817-10.886-.817-16.232 0-.484-1.163-1.201-2.586-1.828-3.696a.228.228 0 0 0-.232-.11 58.378 58.378 0 0 0-14.452 4.482.205.205 0 0 0-.095.082C1.578 18.731-.944 32.144.293 45.391a.245.245 0 0 0 .092.166c6.073 4.46 11.956 7.167 17.729 8.962a.23.23 0 0 0 .249-.082 42.08 42.08 0 0 0 3.627-5.9.225.225 0 0 0-.123-.313 38.808 38.808 0 0 1-5.538-2.64.228.228 0 0 1-.022-.378 30.34 30.34 0 0 0 1.1-.862.22.22 0 0 1 .229-.031c11.62 5.305 24.199 5.305 35.682 0a.218.218 0 0 1 .232.028 28.31 28.31 0 0 0 1.103.865.228.228 0 0 1-.02.378 36.405 36.405 0 0 1-5.541 2.637.226.226 0 0 0-.12.316 47.25 47.25 0 0 0 3.624 5.897.224.224 0 0 0 .249.084c5.801-1.795 11.684-4.502 17.757-8.962a.226.226 0 0 0 .092-.163c1.48-15.315-2.48-28.618-10.497-40.412a.18.18 0 0 0-.092-.085zM23.726 37.325c-3.498 0-6.381-3.212-6.381-7.156s2.827-7.156 6.381-7.156c3.582 0 6.437 3.24 6.381 7.156 0 3.944-2.827 7.156-6.381 7.156zm23.592 0c-3.498 0-6.381-3.212-6.381-7.156s2.826-7.156 6.381-7.156c3.582 0 6.437 3.24 6.381 7.156 0 3.944-2.799 7.156-6.381 7.156z" fill="#23272a"/></svg>