<svg xmlns="http://www.w3.org/2000/svg" width="1366" height="1779.578" viewBox="0 0 1366 1779.578">
  <g id="footer2" transform="translate(0 -0.002)">
    <g id="Layer_1" data-name="Layer 1">
      <path id="Path_25693" data-name="Path 25693" d="M1366,1714.039v506.419H7.115c-3.064-3.657-2.287-8.081-2.292-12.27q-.081-76.747-.034-153.494,0-164.154.02-328.307c0-4.482-.446-9.011.806-13.412,1.935-4.272,5.414-3.1,8.533-2.116,42.49,13.442,85.312,26.04,123.842,49.437,40.936,24.859,85.591,40.411,131.634,52.6,49.373,13.066,99.532,21.93,150.073,28.824,31.284,4.268,60.861,14.3,89.977,25.976,33.669,13.5,67.086,27.669,102.642,35.816,33.576,7.693,67.473,9.33,101.72,6.641,16.752-1.316,33.537-2.271,50.307-3.347,31.153-2,62.122-4.4,92.881-11.588,33.56-7.84,64.653-21.543,96.653-33.286,24.364-8.941,46.468-22.784,70.88-31.278,36.216-12.6,72.173-25.537,109.929-33.942,44.625-9.933,90.02-16.534,133.922-29.887,24.666-7.5,46.185-20.714,67.794-33.99,7.679-4.718,14.888-10.142,22.1-15.55C1360.684,1715.644,1362.693,1713.244,1366,1714.039Z" transform="translate(0 -440.88)" fill="#111"/>
      <path id="Path_25694" data-name="Path 25694" d="M1366,930.229v772.429a23.987,23.987,0,0,1-6.909,7.935c-43.411,34.844-93.074,55.086-147.817,63.611a1041.366,1041.366,0,0,0-117.3,25.755c-38.251,10.584-75.777,24.321-111.519,42.252-19.934,10-41.427,16.375-61.859,25.266-1.7.739-3.805,1.83-5.281.153-1.535-1.745-.047-3.711,1.043-5.118,8.732-11.272,13.877-24.835,23.041-35.839,3.341-4.011,5.779-8.685,8.317-13.231a319.6,319.6,0,0,1,54.476-71.546c16.145-15.977,28.083-34.646,38.24-54.426,18.285-35.608,36.488-71.323,48.254-109.844,7.555-24.735,13.213-49.944,19-75.11,11.167-48.592,26.579-95.889,43.031-142.869,5.161-14.74,9.669-29.73,16.728-43.791,11.093-22.1,25.6-42.1,38.3-63.2,10.529-17.5,22.957-33.639,35.677-49.591a187.466,187.466,0,0,0,23.477-38.815c10.312-22.394,22.892-43.634,34.852-65.172,10.388-18.708,18.8-38.222,26.332-58.22,10.864-28.856,18.139-58.88,29.07-87.706q3.654-9.637,7.392-19.243C1363.156,932.3,1363.247,929.936,1366,930.229Z" transform="translate(0 -440.88)" fill="#161616"/>
      <path id="Path_25695" data-name="Path 25695" d="M7.123,1711.183l-.008,509.277H0V1095.243c5.066,0,5.666,4.459,7.126,7.619,6.472,14.006,11.942,28.412,15.375,43.488,7.668,33.677,19.035,65.885,35.323,96.5,9.441,17.744,17.336,36.354,24.709,55.111,5.833,14.839,12.885,29.072,22.238,41.989,18.365,25.362,33.091,53.1,51.617,78.358,5.607,7.644,11.2,15.3,16.9,22.872,8.278,11,16.026,22.276,22.076,34.735,6.458,13.3,16.448,24.307,24.86,36.337a368.94,368.94,0,0,1,35.626,63.013c7.161,16.283,15.9,31.808,24.4,47.4,21.515,39.488,31.719,82.585,41.292,125.879,4.655,21.054,9.372,42.053,15.652,62.691,2.977,9.785.964,12.12-8.732,10.022-46.388-10.034-92.338-21.681-136.208-40.158a464.383,464.383,0,0,1-59.931-31.065c-20.649-12.495-42.973-21-65.524-29.025-15.184-5.4-30.554-10.287-45.862-15.343C10.939,1702.352,10.948,1702.326,7.123,1711.183Z" transform="translate(0 -440.88)" fill="#161616"/>
      <path id="Path_25696" data-name="Path 25696" d="M7.123,1711.183c.056-3.078.023-6.161.21-9.23a1.92,1.92,0,0,1,2.517-1.794c1.838.415,3.628,1.052,5.421,1.648,18.184,6.039,36.477,11.773,54.508,18.241,12.888,4.623,25.688,9.525,38.239,15.108,11.725,5.215,22.39,12.192,33.593,18.262,12.906,6.992,26,13.642,39.061,20.343a208.011,208.011,0,0,0,32.071,13.322c7.657,2.43,15.109,5.5,22.744,8,18.4,6.037,37.084,11.1,55.907,15.649q16.848,4.067,33.706,8.092c2.749.653,5.526,1.2,8.305,1.707,2.633.483,4.282-1.1,3.6-3.651-1.27-4.79-2.722-9.533-4.146-14.281-1.628-5.428-4.028-10.739-4.814-16.283-1.532-10.8-5.87-20.9-7.368-31.649-2.581-18.526-8.435-36.255-12.909-54.323-2.557-10.323-5.439-20.532-8.8-30.62a250.379,250.379,0,0,0-11.889-28.824c-5.727-11.969-11.78-23.785-17.812-35.6-3.764-7.375-7.915-14.555-11.6-21.969-4.947-9.962-9.391-20.177-14.463-30.072-3.769-7.352-8.12-14.412-12.34-21.526-8.087-13.633-17.7-26.2-27.232-38.829a98.179,98.179,0,0,1-10.624-17.574c-5.242-11.227-12.318-21.253-19.706-31.09-7.089-9.437-14.359-18.736-20.907-28.572-5.366-8.061-10.994-15.949-16.3-24.052-4.784-7.313-9.355-14.768-13.884-22.243C118.3,1362.9,114,1356.7,109.663,1350.5c-5.274-7.544-10.782-14.964-15-23.218-2.472-4.842-5.472-9.426-7.76-14.347-3.086-6.637-5.692-13.5-8.547-20.243-2.394-5.658-4.8-11.311-7.29-16.927-3.927-8.861-7.8-17.747-11.934-26.513-3.736-7.93-7.623-15.8-11.727-23.544-8.581-16.2-14.17-33.469-19.3-50.979-4.116-14.049-7.095-28.386-11.291-42.4-1.625-5.425-3.589-10.768-5.74-16.009-2.423-5.9-5.246-11.642-7.864-17.467A6.26,6.26,0,0,0,0,1095.243v-21.338c3.659-.529,4.1,2.508,5.111,4.748,14.023,31.112,25.852,62.965,34.314,96.109,4.631,18.137,12.259,35.23,21.495,51.644a507.517,507.517,0,0,1,27.092,57.039,329.511,329.511,0,0,0,38.389,68.57,150.024,150.024,0,0,1,11.148,17.289c.294.593.6,1.187.937,1.756.176.265.349.544.528.811,1.523,3.021,2.888,6.13,4.557,9.083.377.64,1.18,1.248.161,2.005.5.034.586-.082.588-.348.007-.982-.738-1.535-1.193-2.26-1.382-3.448-3.1-6.733-4.7-10.088-.315-.6-.592-1.209-.878-1.823-.484-.968-.934-1.941-1.355-2.937-20.676-55.649-37.974-112.167-43.948-171.56-3.574-35.531-7-71.078-10.508-106.614-4.471-45.24-9.86-90.4-22.324-134.321C52.03,926.985,41.429,902.14,30.45,877.464,21.028,856.288,12.028,834.91,0,815.005V800.78c4.37-1.735,5.208,2.2,6.672,4.484A397.926,397.926,0,0,1,34,854.269c13.151,28.66,26.746,57.11,36.461,87.191a257.061,257.061,0,0,1,7.415,26.756c1.4-15.9,3.606-33.014,10.066-49.169,5.692-14.234,8.816-28.272,7.938-44.106-.892-16.094-.5-32.7,3.184-48.784.364-2.243.131-4.789,2.9-5.825,4.4,1.71,3.746,5.684,3.729,9.075-.055,11.122-1.944,22.163-1.42,33.339.178,3.8,1.649,7.7.71,11.719,2.24-8.2,7.482-15.164,10.14-23.309,3.092-9.474,6.962-18.649,10.409-27.984,8.015-21.7,7.106-42.707-5.491-62.668-5.064-8.024-9.108-16.622-13.824-24.847C93.37,713.249,94,689.971,101.935,666.251c.592-1.772,1.736-3.394,1.587-6.039-10.54,3.253-19.2,9.348-27.453,15.956-18.385,14.713-34.313,31.947-49.954,49.452a17.455,17.455,0,0,0-3.661,7.612c-3.148,12.4-2.694,24.87-.734,37.369.909,5.8,4.335,9.2,9.913,10.82a43.406,43.406,0,0,0,19.7,1.224,64.717,64.717,0,0,1,15.592-.673c3.255.23,6.724.337,8.8,3.618-1.779,3.784-5.353,2.484-8.3,2.954a149.093,149.093,0,0,0-18.966,2.188c-7.466,1.216-14.6.02-21.644-2.129a18.3,18.3,0,0,1-12.281-11.831,99.145,99.145,0,0,1-5.127-22.689c-3.665,1.357-3.2,8.727-9.408,6.868V739.613c2.023.391,2.946-1.084,4.021-2.339,5.858-6.838,11.771-13.628,17.582-20.505,12.256-14.5,25.77-27.8,39.327-41.054,8.524-8.332,18.344-14.952,28.654-20.858,7.741-4.434,16.234-6.545,25-7.5,11.187-1.219,22.248-.5,32.976,3.219,23.03,7.975,44.379,18.912,62.686,35.305,6,5.372,12.187,10.541,18.418,15.645a92.651,92.651,0,0,1,17.807,19.219c3.353,4.871,6.9,9.639,10.7,14.165,12.415,14.769,22.471,31.051,31.34,48.112,12.583,24.205,22.2,49.658,31.259,75.316a84.961,84.961,0,0,0,13.289,24.9c6.314,7.989,12.334,16.213,18.388,24.4a347.144,347.144,0,0,0,23.793,29.182c4.343,4.71,8.538,9.564,11.678,15.175a111.575,111.575,0,0,0,19.716,25.051,80.991,80.991,0,0,1,16.762,23.582,129.354,129.354,0,0,0,16.585,25.569c4.744,5.9,9.512,11.813,12.931,18.625a5.437,5.437,0,0,0,4.507,2.974q15.107,2.242,30.237,4.325a5.544,5.544,0,0,0,1.913-.441c.417-1.878-.48-3.359-.908-4.937a47.983,47.983,0,0,1-1.535-6.2c-.694-5.264.577-9.919,5-13.268,6.233-4.719,12.526-9.349,19.817-12.4,13.315-5.564,26.6-11.192,39.925-16.742,2.388-1,4.88-1.744,7.323-2.607,4.156,2.109,1.186,4.834.647,7.352-8.668,5.979-19.024,8.042-28.486,12.193-12.31,5.4-24.8,10.441-35.469,18.873-.684.914-1.316,1.843-.809,3.081a6.717,6.717,0,0,1,.545,1.576,2.257,2.257,0,0,1-1.342,1.918,3.853,3.853,0,0,1-1.567.186c-1.16.44.315.291.117.509.747.584-.33-.18.354.484a11.7,11.7,0,0,1,.724,2.366,10.309,10.309,0,0,0,1.472,3.087c4.075,6.817,6.891,14.4,12.513,20.255.518.432,1.012.879,1.534,1.31.289.2.552.416.836.616,10.484,6.535,21.649,10.4,34.236,9.814,12.436-.582,24.205,4.268,36.518,5,2.822.167,5.642.694,8.482.734,2,.029,4.543,1.055,5.55-1.689.906-2.469-.213-4.65-1.921-6.452-2.041-2.154-4.742-3.078-7.557-3.653a126.221,126.221,0,0,1-16.437-4.489c-14.626-5.2-27.551-14.239-42.455-18.827a3.267,3.267,0,0,1-1.939-1.93c1.3-3.259,4.234-2.574,6.782-2.82,7,.561,13.055,3.971,19.071,7.019,13.38,6.779,27.573,10.638,42.149,13.645,3.474.717,5.068-1.942,7.726-2.378a3.133,3.133,0,0,1,2.513,1.888,12.315,12.315,0,0,1,.734,4.163c.846,14.663,5.135,18.051,19.16,15.06,6.482-1.382,12.893-2.974,18.828-6.1a15.679,15.679,0,0,1,13.074-1.105,42.165,42.165,0,0,0,17.263,2.309c13.262-.591,20.286-9.12,17.348-22.185-1.607-7.148-3.058-14.328-4.2-21.572-2.6-16.41.931-22.826,16.788-28.39a26.982,26.982,0,0,0,13.87-10.391c4.51-6.51,4.157-8.972-2.093-14.259a5.137,5.137,0,0,1-1.811-2.709c-.131-6.033-3.659-8.1-9.2-8.068q-7.389.04-14.791.064a24.607,24.607,0,0,1-3.474-.162c-2.063-.3-4.6-.5-4.739-3.112-.176-3.2,3.27-1.61,4.679-2.872,7.646-2.1,15.449-1.6,23.225-1.326a11.68,11.68,0,0,1,9.993,5.758c1.978,3.2,3.853,6.481,5.568,9.831,1.055,2.06,2.3,3.232,4.786,3.406,10.392.725,20.305,4.112,30.555,5.718,5.36.84,10.679,1.793,16.1,2.2,8.947.673,17.886,1.25,26.866,1.093a26.462,26.462,0,0,1,9.067,1.209c1.924.649,4.059,1.421,6.208.5a1.2,1.2,0,0,1,1.855.263c.772,2.1-.234,3.622-1.593,5.045a8.163,8.163,0,0,1-4.21,1.931c-16.224-.822-31.739,4.634-47.8,5.465-4.665.241-9.458.014-14.068,1.2a13.732,13.732,0,0,1-2.188.464c-12.5,1-24.933,2.611-37.3,4.737a58.4,58.4,0,0,0-10.979,2.918c-8.766,3.35-9.488,6.393-3.208,13.11,7.25,7.754,15.153,14.886,21.071,23.881,2.9,4.414,8.753,4.342,13.157,6.532,13.4,6.661,26.768,6.82,40.228-.185a382.324,382.324,0,0,1,74.711-28.955c3.965-1.1,9.268-1.893,9.665-6.984.347-4.458-4.363-6.282-7.558-8.643-6.351-4.693-14.243-6.435-20.741-10.852-1.482-1.138-2.989-2.259-3.337-4.28.351-3.286,1.47-5.931,5.295-6.3,1.152.433,1.986,1.052,1.411,2.473.217.651.24,1.648.683,1.9a54.42,54.42,0,0,0,8.215,4.18c6.314,2.25,11.779,6.054,17.64,9.125a20.422,20.422,0,0,1,3.569,2.311c3.273,2.716,5.511,6.218,4.839,10.5-.8,5.132,2.117,8.513,4.57,12.227a2.373,2.373,0,0,0,2.5.931c1.407-.2,2.8-.517,4.2-.739,3.363-.533,5.437-2.238,6.223-5.751.72-3.219,1.975-6.319,3-9.471a183.269,183.269,0,0,1,12.1-28.765q8.762-16.657,17.262-33.451c4.285-8.457,8.824-16.769,13.835-24.811,8.27-13.274,15.982-26.866,23.3-40.682,7.431-14.035,15.429-27.727,24.147-41q8-12.18,14.778-25.092,9.442-17.928,20.53-34.892c2.987-4.556,5.789-9.233,8.756-13.8a247.636,247.636,0,0,0,21.382-40.845,477.184,477.184,0,0,1,25.373-52.378,220.409,220.409,0,0,0,11.846-24.236c9.538-23.243,25.347-41.475,45.039-56.627a39.914,39.914,0,0,1,15.913-7.553c10.956-2.406,21.943-3.521,33.155-1.776,6.08.946,12.243,1.434,18.387,1.874a70.872,70.872,0,0,1,22.708,5.336c11.783,4.969,23.614,9.8,34.445,16.752,5.413,3.472,11.527,5.483,17.544,7.646,4.231,1.521,8.481,2.99,12.693,4.561a97.171,97.171,0,0,1,20.132,10.438c4.126,2.762,8.441,5.248,12.738,7.744,1.6.932,2.8.253,3-1.515.183-1.647.249-3.308.343-4.964.916-16.089,1.921-32.174,2.714-48.269.9-18.267,3.91-36.241,6.907-54.241,3.328-19.988,9.49-39.068,17.491-57.606,1.968-4.56,4.046-9.092,6.4-13.461,2.693-5,5.8-9.772,8.635-14.7,2.675-4.659,5.222-9.391,7.825-14.091V456.53c-2.8,11.428-10.095,20.768-14.586,31.453-10.5,24.978-15.71,51.135-18.95,77.807-2.714,22.344-3.759,44.807-4.356,67.3A250.606,250.606,0,0,1,1301.9,739.106c-17.223,34.826-35.213,69.3-51.189,104.735a157.175,157.175,0,0,0-13.8,60.542c-2.433,79.15-.483,158.312-1.413,237.459a381.572,381.572,0,0,1-3.416,43.169,72.549,72.549,0,0,0-.778,11.1,117.721,117.721,0,0,0,19.2-29.814c10.949-24.519,24.277-47.755,37.391-71.082,18.256-32.472,31.044-67.071,41.635-102.561,7.337-24.587,16.729-48.374,26.392-72.082,2.058-5.049,4.163-10.073,6.08-15.18.76-2.023.664-4.966,4-5.03v29.873c-2.028,3.454-2.784,7.407-4.333,11.055-1.569,3.693-2.916,7.485-4.262,11.268-3.327,9.353-6.765,18.67-9.852,28.1-4.481,13.692-7.938,27.7-12.829,41.274-5.768,16-11.074,32.2-18.017,47.733a251.115,251.115,0,0,1-15.55,30.323c-2.867,4.613-5.349,9.469-7.925,14.258-4.259,7.919-8.446,15.877-12.677,23.81-3.451,6.47-6.991,12.894-10.362,19.405-2.173,4.2-4.069,8.529-5.976,12.861a127.771,127.771,0,0,1-8.861,16.155,254.256,254.256,0,0,1-21.038,28.447c-3.938,4.686-7.276,9.871-11.015,14.732-6.062,7.881-11.175,16.392-16.531,24.736-7.273,11.332-14.044,22.993-21.514,34.191a241.7,241.7,0,0,0-19.592,35.345c-3.66,8.172-6.156,16.86-9.281,25.276-7.74,20.841-14.714,41.948-21.456,63.121-6.515,20.46-13.427,40.814-18.071,61.839-1.83,8.284-4.7,16.337-6.552,24.618-4.519,20.25-9.256,40.443-14.48,60.523a405.694,405.694,0,0,1-13.655,42.479c-2.612,6.846-5.247,13.668-8.043,20.444-3.35,8.121-7.5,15.824-11.292,23.715-6.351,13.232-12.517,26.56-19.219,39.613-4.31,8.395-9.432,16.374-14.2,24.53-1.671,2.856-3.284,5.752-5.1,8.514a115.547,115.547,0,0,1-12.2,15.6c-3.564,3.8-7.3,7.449-11.045,11.082-8.329,8.09-15.315,17.311-22.542,26.345-6.774,8.469-12.538,17.682-19.578,25.96a48.2,48.2,0,0,0-5.9,9.659,170.225,170.225,0,0,1-17.743,28.127,75.337,75.337,0,0,0-7.332,12.1,82.525,82.525,0,0,1-9.924,15.493,26.03,26.03,0,0,0-2.157,3.607c.818,1.124,1.634.451,2.421.093,12.7-5.775,25.769-10.654,38.764-15.705,8.15-3.168,16.332-6.22,24.237-10.018,12.365-5.942,24.746-11.894,37.394-17.188,9.142-3.826,18.76-6.506,28.111-9.85,12.238-4.376,24.343-9.138,36.659-13.278a182.564,182.564,0,0,1,24.547-6.731q30.608-5.7,60.747-13.41c8.915-2.267,17.915-3.97,27-5.452,22.572-3.683,44.98-8.2,66.881-14.936,2.705-.832,5.5-1.384,8.207-2.2,14.828-4.474,28.41-11.606,41.837-19.2,10.3-5.822,20.521-11.747,30.34-18.327a189.416,189.416,0,0,0,21.175-16.57,12.741,12.741,0,0,1,1.784-1.144v11.38c-10.166,7.69-20.269,15.473-31.189,22.093-7.07,4.286-14.239,8.409-21.3,12.707-4.858,2.956-9.932,5.495-14.925,8.2-11.538,6.241-23.924,10.163-36.459,13.623-12.05,3.326-24.2,6.32-36.356,9.226-6.4,1.53-12.882,2.841-19.4,3.756a349.445,349.445,0,0,0-38.8,7.671c-18.491,4.776-37.032,9.258-55.858,12.564-13.3,2.336-25.966,6.928-38.6,11.646-12.842,4.8-25.858,9.127-38.822,13.593a230.015,230.015,0,0,0-29.5,12.12c-4.437,2.255-8.95,4.364-13.349,6.69-10.7,5.654-21.948,9.951-33.267,14.152-12.627,4.687-25.1,9.738-37.375,15.347a219.916,219.916,0,0,1-50.5,16.052c-10.411,1.979-20.606,5.093-30.906,7.664-7.093,1.77-14.328,2.649-21.545,3.743-6.853,1.039-13.754.355-20.45,1.433-6.853,1.1-13.75.371-20.457,1.385-8.265,1.249-16.578.414-24.721,1.466-7.088.916-14.265.231-21.15,1.441-7.243,1.273-14.663.16-21.768,2.369-1.741.542-3.767.208-5.662.211-10.434.014-20.867.047-31.3-.01-4.712-.026-9.487.555-14.069-1.2a6.2,6.2,0,0,0-2.115-.175c-17.115-.107-33.693-3.666-50.138-7.937-14.4-3.74-28.745-7.735-42.734-12.841-8.653-3.158-17.181-6.661-25.756-10.03-12.753-5.011-25.36-10.375-38.248-15.066-10.437-3.8-20.782-7.836-31.333-11.342a262.571,262.571,0,0,0-32.935-8.176c-9.929-1.927-19.992-3.112-29.988-4.629-10.447-1.585-20.964-2.825-31.348-5.055-7.34-1.576-14.744-3.226-22.182-4.206-7.479-.986-14.96-2.02-22.323-3.515-12.929-2.625-25.775-5.7-38.575-8.91-15.788-3.956-31.647-7.742-47.194-12.52-16.259-5-32.508-10.135-48.282-16.611-10.512-4.315-21.064-8.572-30.96-14.167-11.731-6.632-23.758-12.707-35.412-19.5a254.485,254.485,0,0,0-37.673-18.038c-20.34-7.747-40.874-14.87-61.5-21.753-6.5-2.167-13.073-4.09-19.631-6.065a13.8,13.8,0,0,0-2.823-.258Z" transform="translate(0 -440.88)"/>
      <path id="Path_25697" data-name="Path 25697" d="M1366,900.353c-.414.561-1.109,1.079-1.2,1.688-.893,5.941-3.629,11.239-5.914,16.658-4.5,10.672-8.868,21.385-12.892,32.249s-8.366,21.6-11.725,32.7c-2.874,9.491-5.346,19.123-8.661,28.456-5.849,16.472-11.43,33.048-18.556,49.059a323.085,323.085,0,0,1-16.216,32.327c-3.708,6.321-6.948,12.915-10.475,19.344-4.435,8.084-9.106,16.042-13.384,24.208s-8.5,16.378-12.175,24.867a148.047,148.047,0,0,1-17.518,29.922c-1.974,2.635-3.536,5.633-6.2,7.729-.718.566-1.247,1.484-2.454,1.231-1.292-1.911.75-3.49.618-5.256-.5-6.669,2.048-13.082,1.594-19.739,2.393-8.99.379-18.392,2.6-27.431.605-2.469.219-5.19.22-7.8q.037-102.024.067-204.049c0-3.538-.2-7.072,1-10.549.52-1.5.29-3.283.3-4.938.038-5.214.2-10.434,0-15.64-.476-12.637,1.573-24.929,4.786-37.07a184.554,184.554,0,0,1,10.841-29.187c4.709-10.346,9.692-20.55,14.779-30.708,3.178-6.346,6.7-12.525,9.915-18.837,5.579-10.948,10.352-22.3,15.623-33.412,4.062-8.56,8.394-16.992,12.561-25.5a207.561,207.561,0,0,0,17.909-52.135c1.945-10.136,3.91-20.409,3.355-30.893a22.277,22.277,0,0,1,.841-8.434,17.806,17.806,0,0,0,.468-4.916c.313-8.251-.359-16.507,1.246-24.755.845-4.344.184-8.977.245-13.48.045-3.3-.273-6.633,1.025-9.829a8.2,8.2,0,0,0,.317-2.808c.373-14.657,3.19-28.991,5.492-43.411a232.2,232.2,0,0,1,15.088-52.231A217.081,217.081,0,0,1,1366,456.526Z" transform="translate(0 -440.88)" fill="#232322"/>
      <path id="Path_25698" data-name="Path 25698" d="M139.392,1368.38q.041.7.066,1.393c.9,1.651,1.131,2.968-1.445,2.875v-.007q-.673-.732-1.362-1.449c-6.234-10.607-13.166-20.768-20.329-30.747a179.937,179.937,0,0,1-13.314-20.908c-5.618-10.67-11.195-21.377-15.254-32.805a156.64,156.64,0,0,0-6.614-14.91c-6.532-13.669-13.09-27.327-19.782-40.917-2.61-5.3-5.779-10.324-8.4-15.621a237.718,237.718,0,0,1-16.211-43.06c-3.158-11.617-6.729-23.12-9.973-34.714-3.132-11.192-7.753-21.774-12.449-32.37-4.017-9.062-8.574-17.931-11.389-27.492A5.319,5.319,0,0,0,0,1073.9V815A3.379,3.379,0,0,1,2.913,816.7c.925,1.65,2.043,3.2,2.89,4.883,4.344,8.652,9.823,16.671,13.419,25.769,3.994,10.105,8.991,19.809,13.234,29.823,5.438,12.834,11.658,25.337,16.109,38.6,2.706,8.06,6.047,15.906,8.824,23.944,5.482,15.867,8.893,32.27,12.475,48.64,1.915,8.754,3.405,17.569,4.976,26.374a121.392,121.392,0,0,1,1.906,15.411c.195,4.045,1.167,7.964,1.8,11.874.858,5.345.985,10.765,2.125,16.1,1.223,5.725,1.366,11.691,1.83,17.564.2,2.592-.027,5.217,1.031,7.694a3.108,3.108,0,0,1,.266,1.386c-.517,7.135,1.522,14.075,1.6,21.164.022,2.125-.148,4.281.68,6.319s.67,4.189.716,6.315c.066,3.07-.2,6.175,1.074,9.108a3,3,0,0,1,.235,1.393c-.62,7.376,1.625,14.516,1.716,21.875.078,6.314,1.4,12.614,2.179,18.919a10.288,10.288,0,0,1,.374,2.083c-.645,6.68,1.747,13.1,1.61,19.744-.083,4.02.956,7.993,1.634,11.884,1.9,10.9,3.258,21.881,5.038,32.794,3.2,19.62,8.262,38.73,13.763,57.77,6.172,21.362,13.909,42.21,20.691,63.371,1,3.123,3.283,5.852,2.971,9.387C138.513,1367.382,138.9,1367.924,139.392,1368.38Z" transform="translate(0 -440.88)" fill="#232322"/>
      <path id="Path_25699" data-name="Path 25699" d="M0,760.951a3.392,3.392,0,0,0,2.932-1.626c1.784-2.779,3.666-5.494,5.47-8.259.506-.775.853-1.664,1.994-1.831,1.322.25.951,1.427.96,2.232.09,7.861,2.226,15.323,4.2,22.844,2.037,7.775,7.295,11.912,14.782,13.452,6.458,1.328,12.894,2.16,19.6.664,5.468-1.219,11.2-1.247,16.819-1.8a4.361,4.361,0,0,0,3.386.643c7.087-.868,13.841-.34,18.825,5.529,6.723,7.918,11.274,16.877,11.611,27.5.066,2.074-.8,4.183.4,6.184-.5,3.978-.6,8.059-1.6,11.908-1.394,5.382-1.164,10.792-1.352,16.219-.22,6.368.75,12.793-.921,19.1a4.128,4.128,0,0,0,.007,2.11c1.49,5.11.727,10.358,1.057,15.537a28.361,28.361,0,0,1-2.391,12.406c-2.78,7.035-5.329,14.162-7.916,21.273-2.757,7.58-4.162,15.469-5.482,23.4-1.511,9.08-2.872,18.159-2.965,27.33-1.423.167-2.07-.461-2.259-1.467-4.129-21.953-11.842-42.769-19.989-63.462-5.726-14.546-12.153-28.761-19.1-42.761-3.573-7.2-6.43-14.747-9.943-21.976q-4.806-9.889-10.362-19.411c-4.525-7.762-9.421-15.308-14.114-22.973-.886-1.446-1.66-2.906-3.642-2.939Z" transform="translate(0 -440.88)" fill="#3e3d3b"/>
      <path id="Path_25700" data-name="Path 25700" d="M597.273,980.395c4.1-11.111,14.952-15.026,24.93-9.08,1.263.752,1.936,2.9,4.036,1.952a.969.969,0,0,1,1.693-.3,6.548,6.548,0,0,1,.549,6.215,2.519,2.519,0,0,1-1.534,1.273c-2.564-.159-4.054-2.182-5.972-3.469-5.509-3.7-12.036-3.526-15.445.4s-2.772,11.7,1.405,16.138c.791.84,1.921,1.352,2.467,2.462-.831,4.1-3.813,5.031-7.415,5.059-2.3-.66-3.82-1.935-3.592-4.561,3.94-2.594.513-5.692.461-7.322.311,1.365,2.49,3.973.079,6.576-3.251-.079-2.982-2.98-3.949-4.893-.4-1.831-1.169-3.564-1.55-5.406a6.765,6.765,0,0,0,3.574-4.388Z" transform="translate(0 -440.88)" fill="#9a662d"/>
      <path id="Path_25701" data-name="Path 25701" d="M836.655,947.251a16.284,16.284,0,0,1,3.092-7.015c1.128-.305,1.865.343,2.586,1.039,2.137,2.217,4.286,2.191,5.523-.658,2.69-6.2,5.9-12.155,8.53-18.367,2.023-4.773-.82-5.116-4.485-4.33-1.073-.354-1.9-.836-1.105-2.146a4.72,4.72,0,0,1,1.321-3.193c1.883-2.189,3.978-2.911,6.221-1.968,2.5,1.049,4.536,2.592,4.74,5.618a14.336,14.336,0,0,1-1.869,7.458Q855.5,935.074,849.8,946.462a5.433,5.433,0,0,0-.281,1.367c.887,1.942,2.993,2.146,4.539,3.145,2.047,1.323,2.057,2.961.9,4.845a1.639,1.639,0,0,1-1.779.169c-4.74-3.135-9.346-6.582-15.417-6.655C836.779,948.96,835.912,948.523,836.655,947.251Z" transform="translate(0 -440.88)" fill="#111010"/>
      <path id="Path_25702" data-name="Path 25702" d="M559.213,1002.777c-.29-2.413,1.015-4.83-.02-7.241a32.478,32.478,0,0,0,2.3-2.662c3.918-5.616,9.369-6.689,15.645-5.352,1.608.343,3.2.768,4.8,1.156a15.015,15.015,0,0,1,6.779,4.368c3.992,7.744,3.935,7.933-3.74,12.425-5.446,3.107-11.991,3.551-17.235,7.269a5.631,5.631,0,0,1-6.008.354C559.4,1010.016,557.157,1006.919,559.213,1002.777Z" transform="translate(0 -440.88)" fill="#96622a"/>
      <path id="Path_25703" data-name="Path 25703" d="M684.418,965.871c-.99.6-2.013,1.15-2.95,1.821a1.369,1.369,0,0,0-.5,1.122,1.51,1.51,0,0,0,.894.929,8.232,8.232,0,0,0,2.086.269c1.653.078,3.309.115,4.963.169-1.569,4.442-6.186,3.923-9.36,5.078-9.659,3.514-19.687,5.89-30.162,5.022a4.243,4.243,0,0,1-2.286-2.253c.089-1.984,1.549-3.022,2.879-4.153a4,4,0,0,1,2.887-.283,4.53,4.53,0,0,0,5.117-.141,9.058,9.058,0,0,1,2.436-1.141c1-.181,2.123-.16,2.555-1.411.055-.567.141-1.106.22-1.663a4.843,4.843,0,0,1,1.1-2.451,5.828,5.828,0,0,1,1.713-.851,32.109,32.109,0,0,1,3.85-.612c1.31-.138,2.645-.4,3.764.617.807.776,1.019,2.105,2.461,2.523,2.622-4.883-1.807-9.944.311-14.793a2.491,2.491,0,0,1,1.579-1.173c1.277.08,1.549,1.158,2.024,2.034.237,2.763.573,5.522.682,8.29C680.786,965.375,682.468,965.714,684.418,965.871Z" transform="translate(0 -440.88)" fill="#0d0d0d"/>
      <path id="Path_25704" data-name="Path 25704" d="M853.488,955.788l1.457.032c-1.091,4.609-3.307,8.781-5.474,12.9a203.109,203.109,0,0,1-12.983,21.792,21.458,21.458,0,0,1-5.291,5.566l-1.682-1.862c-.776-3.271,1.924-5.01,3.231-7.367.569-.735,1.176-1.441,1.753-2.17,1.264-1.778,2.513-3.568,3.88-5.269a25.41,25.41,0,0,0,1.9-3.283c2.826-5.55,6.36-10.7,9-16.363C850.1,957.993,850.821,955.762,853.488,955.788Z" transform="translate(0 -440.88)" fill="#191a1a"/>
      <path id="Path_25705" data-name="Path 25705" d="M587.516,993.438a9.972,9.972,0,0,1-5.577-4.76c3.68-1.61,10.169-4.511,14.08-5.32-.125,2.123.251,3.145.287,6.857A7.587,7.587,0,0,1,587.516,993.438Z" transform="translate(0 -440.88)" fill="#1d150e"/>
      <path id="Path_25706" data-name="Path 25706" d="M850.795,915.777l1.522,1.646c-1.1,9.327-3.874,17.879-11.244,24.307l-1.327-1.491C842.734,931.769,846.784,923.779,850.795,915.777Z" transform="translate(0 -440.88)" fill="#211e1e"/>
      <path id="Path_25707" data-name="Path 25707" d="M823.795,977c3.042-7.714,5.639-15.622,9.926-22.795A2.9,2.9,0,0,1,835.8,955.9a4.672,4.672,0,0,1,.068,1.843c-.5,2.763-2.164,5.046-3.143,7.617-.28.924-.582,1.838-.9,2.75-1.96,4.3-2.664,9.319-7.008,12.25C822.934,979.7,822.94,978.484,823.795,977Z" transform="translate(0 -440.88)" fill="#2a2929"/>
      <path id="Path_25708" data-name="Path 25708" d="M823.795,977c.179,1.1.2,2.278,1.32,2.961,1.107,3.733-.609,6.46-3.165,8.891-1.271.138-1.765-.749-2.223-1.685A43.194,43.194,0,0,1,823.794,977Z" transform="translate(0 -440.88)" fill="#3b3838"/>
      <path id="Path_25709" data-name="Path 25709" d="M834.96,955.788l-1.241-1.579a19.855,19.855,0,0,1,2.934-6.957l1.3,1.459c1.111,1.592.323,3.128-.127,4.68C837.236,954.621,836.5,955.684,834.96,955.788Z" transform="translate(0 -440.88)" fill="#151414"/>
      <path id="Path_25710" data-name="Path 25710" d="M818.355,994.227l-1.566.029a1.657,1.657,0,0,1,.252-1.349c.259-.615.8-1.094.858-1.806.229-1.1.379-2.236,1.508-2.86a4.741,4.741,0,0,1,2.082,1.991C821.336,992.258,821.186,994.293,818.355,994.227Z" transform="translate(0 -440.88)" fill="#333131"/>
      <path id="Path_25711" data-name="Path 25711" d="M680,954.529l-1.3-1.546c-.875-.87-.662-1.845-.273-2.836l.617.056A3.793,3.793,0,0,1,680,954.529Z" transform="translate(0 -440.88)" fill="#a7bfc1"/>
      <path id="Path_25712" data-name="Path 25712" d="M820.762,989.864l-1.358-1.626a.979.979,0,0,1,.319-1.069l1.4,1.475a.751.751,0,0,1-.366,1.22Z" transform="translate(0 -440.88)" fill="#141414"/>
      <path id="Path_25713" data-name="Path 25713" d="M597.273,980.395l.068.417s-.339.246-.336.241-.139-.427-.139-.427Z" transform="translate(0 -440.88)" fill="#ecb53f"/>
      <path id="Path_25714" data-name="Path 25714" d="M887.225,786.392l-.433-.261.491-.675c.139.165.4.338.386.494S887.382,786.249,887.225,786.392Z" transform="translate(0 -440.88)" fill="#6b5b5b"/>
      <path id="Path_25715" data-name="Path 25715" d="M817.9,991.1a1.431,1.431,0,0,1-.858,1.806A1.657,1.657,0,0,1,817.9,991.1Z" transform="translate(0 -440.88)" fill="#747474"/>
      <path id="Path_25716" data-name="Path 25716" d="M1183.906,1267.4c-1.019,5.308-4.66,9.248-7.379,13.608-5.255,8.428-10.666,16.733-15.228,25.589-5.437,10.556-9.515,21.618-13.534,32.752-11.082,30.7-21.017,61.79-31.318,92.754-4.769,14.334-8.459,28.994-12.163,43.638-2.776,10.977-5.794,21.9-8.185,32.964-3.587,16.6-7.454,33.12-11.739,49.548a372.542,372.542,0,0,1-12.081,37.778c-3.092,8.176-5.864,16.473-9.276,24.531-.552,1.3-.964,2.673-1.57,3.95-4.975,10.478-10.218,20.835-14.9,31.441-3.733,8.454-7.546,16.866-11.957,24.97-6.328,11.625-12.782,23.195-19.61,34.531-3.4,5.638-7.887,10.56-12.205,15.594-6.024,7.023-12.678,13.4-18.9,20.2-3.975,4.342-7.193,9.341-10.869,13.959-2.668,3.352-5.529,6.453-8.47,9.521-1.3,1.361-2.82,2.559-2.056,4.869.444,1.343-.768,2.118-1.541,2.97a138.2,138.2,0,0,0-18.944,26.411,236.564,236.564,0,0,1-18.646,28.428c-4.264,5.651-8.163,11.583-12.082,17.484-5.441,8.193-13.095,14.293-19.864,21.226-1.882,1.928-4.671,2.226-7.167,2.837-10.078,2.466-20.187,4.8-30.283,7.191-9.178,2.173-18.3,4.622-27.55,6.438-5.75,1.129-11.53,2.412-17.517,2.181a54.547,54.547,0,0,0-14.1,1.03c-3.852.856-8.022.269-12.051.338-3.3.057-6.563-.036-9.843.986-2.184.68-4.694.323-7.058.421-6.123.252-12.258-.456-18.362,1.191-2.882.777-6.129.186-9.211.243-3.773.07-7.55-.253-11.251,1.1-1.486.542-3.282.258-4.938.311-3.535.113-7.073-.209-10.541,1.087-1.481.553-3.281.324-4.936.326q-21.343.028-42.686.006c-2.367,0-4.732.079-7.011-.837a8.315,8.315,0,0,0-2.777-.5c-21.187-.707-41.4-6.451-61.647-11.955-6.376-1.733-12.807-3.338-19.047-5.485-8.488-2.921-16.828-6.277-25.211-9.5-13.676-5.256-27.293-10.669-41.015-15.8-11.954-4.471-24.026-8.626-36.032-12.96-8.914-3.218-18.174-5.066-27.427-6.9-7.616-1.512-15.237-3.245-22.942-3.976-5.168-.491-10.178-2.07-15.448-1.86-3.761.15-7.478-.993-11.173-1.572-9.755-1.528-19.6-2.56-29.235-4.935a104.316,104.316,0,0,0-13.27-1.949,4.835,4.835,0,0,1-4.551-3.718c-1.931-5.849-2.888-11.912-4.117-17.908-1.843-8.991-3.863-17.977-5.045-27.064-1.258-9.672-4.578-18.775-6.737-28.189-3.9-17.005-8.117-33.942-12.486-50.834-4.437-17.156-9.7-34.02-17-50.266-6.314-14.059-13.144-27.854-20.326-41.452-5.086-9.629-10.181-19.254-15.03-29-3.688-7.412-6.836-15.095-10.591-22.471a357,357,0,0,0-23.742-40.306c-5.61-8.166-11.568-16.1-17.5-24.037a105.3,105.3,0,0,1-10.979-17.347c-6.353-13.242-14.282-25.593-21.678-38.246-2.982-5.1-5.938-10.228-8.668-15.467-4.051-7.776-7.849-15.683-11.83-23.5-5.595-10.983-9.643-22.6-14.136-34.039a21.069,21.069,0,0,1-.684-2.738c3.615-1.269,6.3,1.395,9.391,2.277,3.578,1.021,5.407.608,4.9-3.852-1.2-10.572,1.726-12.836,11.881-9.416a130.3,130.3,0,0,1,17.716,7.365,57.068,57.068,0,0,0,13.937,5.264c5.944,1.271,11.824,1.459,16.849-2.885,5.37-4.643,11.348-5.2,17.981-3.179a232.582,232.582,0,0,1,27.85,10.725c4.333,1.953,8.773,3.563,13.2,5.26,8.079,3.1,15.042,3.3,20.508-5.007,2.927-4.447,7.938-5.637,13.209-5.586,17.043.167,33.178,5.1,49.43,9.37,4.576,1.2,8.988,3.014,13.634,4.022,3.917.85,5.673-.08,3.67-4.281-1.632-3.421-3.468-6.766-4.412-10.466-1.511-5.922.81-10.561,6.581-12.218a38.455,38.455,0,0,1,13.325-1.876c43.3,3.112,86.319,8.066,128.281,19.839,2.738.768,5.52,1.378,8.284,2.051,6.014,1.463,10.4.245,13.319-5.994,3.487-7.447,10.49-9.918,18.227-10.307,14.128-.71,27.136,3.557,39.743,9.367a107.912,107.912,0,0,0,17.214,6.669c5.19,1.387,8.451.1,10.392-5.4,2.9-8.211,6.446-10.09,15.258-9.1,7.175.808,13.563,4.142,20.2,6.649,7.187,2.714,8.336,2.332,9.635-4.954,1.117-6.264,4.727-9.49,10.611-10.878a45.106,45.106,0,0,1,16.971-.672c17.139,2.526,34.255,5.613,50.256,12.424,9.45,4.023,17.463,2.635,25.394-2.886,5.452-3.795,10.308-8.367,15.7-12.233,12.2-8.742,19.876-7.461,28.827,4.656,4.913,6.651,7.624,7.35,15.064,3.9a94.937,94.937,0,0,0,18.769-11.467c6.642-5.209,13.793-6.168,21.2-1.889,5.941,3.432,11.252,2.2,16.681-1.15,6.078-3.753,11.352-8.56,17.167-12.647,8.62-6.059,15.017-5.955,18.386,5.05,1.767,5.774,4.74,6.393,11.278,2.885,14.242-7.644,27.363-17.011,40.073-26.96,2.052-1.607,3.993-3.374,6.477-4.323,6.459-2.467,10.728.374,11,7.322.046,1.185-.145,2.367-.156,3.55-.064,6.559,1.327,7.687,7.594,5.812,16.562-4.955,30.67-14.812,45.584-23.041,6.638-3.663,12.887-8.017,19.621-11.516,3.535-1.837,7.276-4.2,11.192-.875s2.17,7.3,1,11.165a6.962,6.962,0,0,0-.461,4.081c3.371.2,5.91-2.036,8.595-3.522,14.327-7.928,27.539-17.642,41.549-26.083,2.8-1.686,5.6-4.225,9.1-2.04,3.61,2.258,3.246,6.153,2.852,9.65-.827,7.331-4.121,13.993-6.9,22.131,12.425-7.3,23.046-15.221,34.622-21.55C1177.619,1268.689,1180.175,1266.106,1183.906,1267.4Z" transform="translate(0 -440.88)" fill="#161815"/>
      <path id="Path_25717" data-name="Path 25717" d="M1183.906,1267.4c-12.035,6.109-23.237,13.583-34.5,20.963a81.213,81.213,0,0,1-12.184,6.977,20.226,20.226,0,0,1,1.861-6.529c2.238-4.731,3.425-9.82,5.294-14.663,1.253-3.247,1.186-6.509.98-9.8-.225-3.6-2.872-4.884-5.935-2.918-8.349,5.357-16.605,10.86-24.973,16.188-9.168,5.838-18.327,11.705-28.131,16.458a14.211,14.211,0,0,1-3.3,1.15c-.831.171-1.321-.607-1.3-1.315a10.2,10.2,0,0,1,.572-2.72c.94-2.925,1.905-5.843,2.919-8.743a4.136,4.136,0,0,0-1.127-4.528c-1.844-1.958-3.122-2.277-5.689-1.181-5.68,2.425-10.749,5.948-16.066,9.024-7.564,4.376-15.1,8.806-22.7,13.114-5.347,3.03-10.828,5.823-16.173,8.856-6.031,3.423-12.694,5.153-19.175,7.362-2.973,1.013-4.325.237-5.335-2.814-.655-1.978-1.4-3.872-.509-6.171.646-1.674.46-3.734.378-5.611-.154-3.515-2.03-4.988-5.632-4.643a12.547,12.547,0,0,0-6.91,3.322,276.073,276.073,0,0,1-35.872,25.219c-3.865,2.313-7.587,4.765-11.992,6-4.2,1.179-6.071.425-7.7-3.61-.618-1.531-1-3.154-1.575-4.705a26.85,26.85,0,0,0-1.666-3.9,4.338,4.338,0,0,0-5.448-2.178,29.141,29.141,0,0,0-8.115,4.3c-5.415,4.171-10.46,8.844-16.443,12.253-1.639.934-3.226,1.978-4.927,2.779-4.089,1.926-8.008,2.108-12.11-.471-3.152-1.982-6.5-3.825-10.6-3.552a14.1,14.1,0,0,0-6.741,1.862,30.782,30.782,0,0,0-4.711,3.147c-5.685,5.207-12.615,8.3-19.377,11.69a16.886,16.886,0,0,1-3.238,1.448c-3.927,1.006-7.579.718-10.181-2.909-1.65-2.3-3.263-4.637-4.748-7.046-2.3-3.734-6.166-5.034-9.92-6.428a6.519,6.519,0,0,0-3.464.223c-5.187,1.231-9.474,4.124-13.557,7.419q-6.6,5.327-13.339,10.481a33.756,33.756,0,0,1-9.509,4.665,16.6,16.6,0,0,1-13.061-.442c-12.54-5.728-25.985-8.408-39.36-11.263-7.6-1.623-15.213-3.063-23.09-2.923a40.949,40.949,0,0,0-10.432,1.735c-3.566,1-6.16,3.388-6.378,7.555a23.305,23.305,0,0,1-.682,4.879c-1.583,5.815-2.361,6.236-7.812,4.235-3.1-1.139-6.117-2.516-9.206-3.691-3.311-1.26-6.718-2.28-9.984-3.644-3.683-1.537-7.465-.914-11.224-.9-1.807.009-3.075,1.191-4.1,2.525a12.855,12.855,0,0,0-2.549,5.78,20.1,20.1,0,0,1-1.273,4.018c-.887,2.236-2.605,3.182-5.008,3.214a29.944,29.944,0,0,1-11.651-2.656c-7.006-2.835-13.844-6.091-20.875-8.86-9.974-3.928-20.337-6.329-31.115-5.464-7.726.62-14.3,3.529-16.8,11.828-1.125,3.739-3.582,5.337-7.417,5.175a32.419,32.419,0,0,1-7.689-.968c-8.618-2.446-17.278-4.8-26.023-6.729q-13.428-2.966-27.005-5.291c-7.641-1.314-15.383-1.934-22.97-3.735-5-1.186-10.4-.694-15.382-1.933-6.719-1.672-13.643-.538-20.339-2.34-3.109-.837-6.593-.275-9.907-.367-3.765-.105-7.515.236-11.245-1.053a12.541,12.541,0,0,0-7.718.089,15.123,15.123,0,0,1-5.555.958c-2.649-.181-4.424,1.242-6.138,3a5.644,5.644,0,0,0-1.456,6.482c1.032,2.638,2.042,5.289,3.2,7.874s2.544,5.085,3.723,7.67c1.1,2.411.351,3.354-2.457,3.432-4.117.116-7.865-1.429-11.7-2.558-6.115-1.8-12.132-3.986-18.318-5.487-9.147-2.219-18.352-4.3-27.636-5.807-4.852-.787-9.927-.362-14.893-.2a8.979,8.979,0,0,0-5.668,2.72,27.964,27.964,0,0,0-3.309,3.687c-4.807,6.471-8.213,7.873-15.712,5.547a155.478,155.478,0,0,1-18.59-6.924c-10.083-4.6-20.311-8.9-31.163-11.584-4.421-1.094-7.837.254-11.248,2.489a32.241,32.241,0,0,0-2.595,2.42,13.1,13.1,0,0,1-7.788,2.964c-7.862.554-14.955-1.849-21.775-5.292a171.634,171.634,0,0,0-23.6-9.68c-2.01-.664-3.647-.7-5.214.813-1.275,1.231-1.954,2.455-1.307,4.387.818,2.444,2.013,4.8,2.057,7.487.044,2.667-1.448,4.113-4,3.409a63.056,63.056,0,0,1-7.334-2.615c-1.964-.815-3.824-1.88-5.73-2.835-7.258-19.985-14.612-39.936-20.369-60.427-2.872-10.223-6.026-20.37-8.709-30.641-1.963-7.514-3.591-15.133-4.96-22.779-1.7-9.493-2.962-19.065-4.456-28.6-.436-2.781-1.781-5.421-1.286-8.347,6.1,4.185,12.549,7.153,20.253,6.677,3.947-.244,7.571-1.032,10.376-3.9,7.1-7.257,15.635-7.367,24.424-4.562,12.444,3.972,24.306,9.436,35.935,15.362a107.955,107.955,0,0,0,18.474,7.35c8.548,2.526,12.112,1.55,17-5.789,6.129-9.2,14.323-12.229,25.087-10.613,22.848,3.432,44.934,9.672,66.725,17.141,2.243.769,4.472,1.594,6.778,2.154,3.841.934,4.95-.814,3.669-4.185-1.683-4.428-3.683-8.736-5.506-13.111-5.395-12.952-1.868-18.757,11.846-21.635,10.783-2.263,21.342-.04,31.841.817a733.834,733.834,0,0,1,120.467,20.232c9.659,2.445,18.9,6.337,28.709,8.226,6.981,1.344,9.393.031,12.082-6.559,4.851-11.888,14.237-17.448,27.358-16.336a116.8,116.8,0,0,1,45.469,13.1c6.491,3.446,13.015,6.892,20.242,8.608,7.787,1.849,10.3.354,12.477-7.223,3.632-12.63,9.407-15.736,22.244-11.847,7.965,2.413,15.388,6.185,23.061,9.333,7.105,2.915,8.64,1.865,9.719-5.636,1.668-11.594,4.894-14.958,16.477-17.136,14.734-2.77,28.741,1.335,42.759,4.769,13.129,3.216,26.184,6.84,38.431,12.716,9.771,4.687,18.425,2.226,26.72-3.487,6.853-4.72,12.795-10.549,19.129-15.9a59.139,59.139,0,0,1,7.881-6.055c10.107-5.97,17.66-4.7,25.1,4.253a72.361,72.361,0,0,1,6.106,8.741c3.1,5.1,7.4,6.154,12.834,4.5,6.492-1.976,11.881-5.855,17.209-9.817,3.041-2.261,5.95-4.706,8.91-7.079,11.4-9.135,15.236-9.57,28.061-2.207a13.887,13.887,0,0,0,14.158.474c7.529-3.747,13.769-9.221,19.867-14.848a49.868,49.868,0,0,1,12.685-9.04c6.525-3.022,10.805-1.294,13.67,5.351.376.872.619,1.791.914,2.693,3.5,10.721,6.568,12.157,16.306,6.065a346.859,346.859,0,0,0,42.332-31.183c4.314-3.713,8.478-7.652,13.411-10.51,6.853-3.971,12.029-1.127,12.949,6.805.39,3.364-.832,6.573-.864,9.891-.061,6.284,2.419,8.485,8.4,6.544a113.507,113.507,0,0,0,23.441-10.172c17.916-10.711,35.236-22.346,52.712-33.743,3.781-2.466,7.552-4.975,11.829-6.47,6.127-2.142,9.567.281,10.069,6.791.446,5.781-2.232,10.956-3.894,17.256,8.647-3.472,15.32-8.308,22.312-12.591,2.457-1.505,4.693-4.4,8.243-2.391q0,15.593,0,31.187a8.585,8.585,0,0,1-.05,2.12c-1.76,6.717-.527,13.7-1.584,20.371-1.069,6.751-.309,13.669-2.287,20.284a10.3,10.3,0,0,0-.262,2.813c-.073,7.317-1.444,14.47-2.655,21.647-.546,3.236-.692,6.523-1.2,9.779a20.868,20.868,0,0,1-4.484,10.14c-5.34,6.648-9.166,14.259-13.9,21.287-4.07,6.042-7.24,12.67-11.937,18.3a11.673,11.673,0,0,0-1.414,1.437Z" transform="translate(0 -440.88)" fill="#222421"/>
      <path id="Path_25718" data-name="Path 25718" d="M1223.669,1108.025a7.3,7.3,0,0,0-3.83,1.648c-8.036,5.42-16.154,10.714-24.927,14.906-1.262.6-2.553,1.149-4.182,1.879-.175-4.313,1.727-7.631,2.906-11.1a26.814,26.814,0,0,0,1.6-11.143c-.342-3.824-2.8-5.67-6.3-4.2a64.647,64.647,0,0,0-10.046,5.25c-13.892,8.969-27.644,18.154-41.534,27.127-5.551,3.586-11.284,6.9-17.009,10.205-6.583,3.8-13.995,5.725-20.832,8.964a2.315,2.315,0,0,1-.67.233c-6.173.8-10.5,1.392-10.318-7.9a20.619,20.619,0,0,1,1.046-6.965c1.16-3.128-.227-6.079-1.339-8.922a4.421,4.421,0,0,0-5.407-2.085,25.8,25.8,0,0,0-5.637,2.975c-3.886,3.067-7.509,6.464-11.326,9.621-5.086,4.206-10.118,8.5-15.422,12.416-7.779,5.746-15.725,11.273-23.716,16.722a76.406,76.406,0,0,1-8.718,4.733,10.7,10.7,0,0,1-3.356,1.031c-4.658.619-6.452-.434-8.169-4.877a33.754,33.754,0,0,1-1.8-6.1,15,15,0,0,0-1.588-4.67c-2.344-4.243-4.85-5.026-9.416-2.989a33.106,33.106,0,0,0-10.116,6.462c-4.026,4.03-8.414,7.592-12.79,11.191a47.542,47.542,0,0,1-15.3,8.7,9.172,9.172,0,0,1-8.117-.68c-2.241-1.315-4.495-2.618-6.655-4.058-5.827-3.885-11.547-3.67-17.1.446-4.162,3.087-8.183,6.363-12.294,9.521-6.186,4.751-12.306,9.63-20.024,11.775a28.754,28.754,0,0,1-4.118.926c-4.1.508-7.121-.679-9.5-4.526-3.083-4.993-5.973-10.237-10.58-14.147a19.034,19.034,0,0,0-4.076-2.717c-3.944-1.917-8.913-.439-13.558,1.612a24.973,24.973,0,0,0-5.909,3.886c-4.676,3.972-9.238,8.081-13.787,12.2-6.19,5.6-12.893,10.281-21,12.786a14.78,14.78,0,0,1-9.689-.038c-4.017-1.408-7.993-2.85-11.913-4.548a174.972,174.972,0,0,0-25.549-8.417c-6.838-1.782-13.766-3.216-20.624-4.927a75.37,75.37,0,0,0-23.826-2.443,44.894,44.894,0,0,0-10.408,1.831c-4.176,1.343-7.309,3.871-8.309,8.758a62.564,62.564,0,0,0-1.287,10.5c-.11,3.2-1.89,4.674-5.134,4.391-3.83-.334-7.279-1.912-10.677-3.617a136.716,136.716,0,0,0-20.388-8.158,19.582,19.582,0,0,0-5.545-.984c-8.113-.173-10.377,1.559-12.376,9.456-.693,2.737-1.427,5.471-2.332,8.143-.84,2.482-2.632,3.615-5.375,3.8-6.667.443-12.531-2.115-18.368-4.655-4.555-1.983-8.94-4.367-13.356-6.657a105.581,105.581,0,0,0-28.774-9.679,102.854,102.854,0,0,0-14-1.664c-6.218-.324-12.092,1.8-17.692,4.411-2.494,1.164-3.824,3.5-4.748,5.986-.823,2.212-1.362,4.53-2.188,6.741-2.1,5.62-5.994,7.841-11.665,6.493-4.815-1.145-9.646-2.318-14.333-3.888-12.775-4.278-25.887-7.162-38.972-10.274-13.3-3.163-26.845-4.89-40.175-7.837-7.78-1.72-15.94-1.715-23.727-3.412-5.336-1.163-10.892-.376-16.044-2.382a1.61,1.61,0,0,0-.7-.106c-7.136.633-14.054-1.6-21.148-1.584a52.534,52.534,0,0,1-12.67-1.045c-3.355-.809-7.1-.505-10.594-.064-2.543.321-5.051.975-7.652,1.247a10.383,10.383,0,0,0-8.768,6.353,6.8,6.8,0,0,0-.458,4.759c1.619,6.715,4.815,12.785,7.471,19.076.732,1.734,1.744,3.331,1.882,5.312.214,3.06-1.309,4.635-4.158,3.959-1.606-.381-3.173-.939-4.743-1.462-4.038-1.346-8.1-2.635-12.094-4.092-16.674-6.079-33.978-9.824-51.237-13.68a72.511,72.511,0,0,0-12.572-1.677c-7.413-.315-14.041,1.886-17.991,8.995-.571,1.027-1.394,1.91-2.061,2.887-4.059,5.948-8.471,7.963-15.142,5.965-6.324-1.894-12.7-3.752-18.6-6.892a315.13,315.13,0,0,0-36.943-16.363,35.777,35.777,0,0,0-13.231-1.936,12.464,12.464,0,0,0-8.966,3.6c-1.194,1.152-2.325,2.374-3.569,3.467a11.229,11.229,0,0,1-6.351,2.909,42.054,42.054,0,0,1-20.129-3.04,3.835,3.835,0,0,1-2.423-2.42c-.35-1.127-.576-2.306-1.649-3.034-.845-6.058-1.644-12.123-2.55-18.172-.7-4.663.24-9.512-1.613-14.039.479-6.9-1.8-13.576-1.609-20.445a26.258,26.258,0,0,0-.988-6.99c-.4-1.616.557-2.693,2.3-2.793,1.89-.109,3.8.06,5.679-.147a7.976,7.976,0,0,0,6.575-9.847,27.492,27.492,0,0,0-3.4-7.758,62.362,62.362,0,0,1-4.061-7.457c-.706-1.468,0-2.763,1.629-3.3,1.333-.437,2.921-1.26,4.067-.89,4.362,1.4,8.928.414,13.345,1.655,4.268,1.2,8.86.924,13.3,1.721a101.02,101.02,0,0,1,10.377,2.143c8.891,2.589,18.029,3.547,27.144,4.591,7.965.912,16.684-4.506,19.97-12.062,1.315-3.024,2.431-6.162,2.29-9.578a22.7,22.7,0,0,1,.115-3.547c.3-2.6,1.479-3.726,4.174-3.89a18.494,18.494,0,0,1,4.958.1c9.852,2.133,19.814.793,29.721,1.081,2.9.084,5.547-1.146,8.175-2.171,4.434-1.73,6.591-5.193,6.829-9.87.108-2.127-.049-4.27.116-6.389.225-2.883,1.97-4.476,4.7-4.028,10.459,1.716,20.978,3.109,30.83,7.495,5.84,2.6,11.948,4.377,18.562,3.767,6.915-.638,10.79-4.333,11.244-11.246.463-7.044.591-7.285,7.325-7.332,10.895-.076,21.8-.245,32.683.13,6.328.218,12.626,1.391,18.932,2.187,7.242.914,14.455,2.3,21.722,2.671,3.9.2,8.042-1.023,10.393-4.95a9.37,9.37,0,0,0,.341-9.477c-1.553-3.184-3.04-6.407-4.376-9.687-.678-1.665.427-2.892,2.047-2.5,14.658,3.555,29.612,5.7,44.209,9.632,7.228,1.949,14.885,2.263,22.312,3.527a73.686,73.686,0,0,0,15.483,1.4c3.915-.164,6.247,1.709,6.919,5.593,1.678,3.905,3.415,7.782,4.877,11.782,4.245,11.615,12.5,18.4,24.558,21.344,13.234,3.228,26.8,2.931,40.16,4.645,3.517.451,7.1.572,10.559,1.35,11.691,2.628,23.507,1.928,35.327,1.632,13.3-.333,26.431,1.2,39.545,3.369,12.212,2.02,24.615,1.162,36.881.71,16.51-.609,31.723,2.934,46.8,9.54,24.116,10.565,49.921,12.746,75.856,11.5,9.849-.474,19.425-4.612,27.484-10.7a54.459,54.459,0,0,1,23.673-10.731c3.03-.534,6-1.382,8.977-2.172,24.179-6.42,31.389-29.085,15.284-48.243-2.592-3.083-5.429-5.99-7.385-9.514-.937-1.688-2.908-3.407-1.264-5.762,16.793-3.405,32.5-10.023,48.216-16.54,5.432-2.253,10.43-5.56,15.6-8.441,2.271-1.266,4.422-2.749,6.711-3.979,1.305-.7,2.465-3,4.171-1.343,1.406,1.366-.113,3.085-.54,4.618-.887,3.185-1.791,6.366-2.691,9.548-.7,2.493.125,4.678,1.417,6.737a4.293,4.293,0,0,0,3.475,2.178c3.067.157,6.12.393,9.114-.779,9.032-3.535,18.031-7.122,26.863-11.158,10.754-4.914,21.683-9.446,32.553-14.1a2.7,2.7,0,0,1,2.015-.186,2.017,2.017,0,0,1,.668,2.5c-.134.453-.331.888-.455,1.343a13.282,13.282,0,0,0-.485,2.067,7.767,7.767,0,0,0,9.486,8.4,75.442,75.442,0,0,0,15.448-5.13,181.4,181.4,0,0,0,23.388-11.92,36.045,36.045,0,0,0,6.616-5.33,33.379,33.379,0,0,1,7.686-5.273,7.811,7.811,0,0,1-.987,5.693c-1.581,3.172-3.345,6.254-5.042,9.368-1.358,2.493-2.683,5.007-4.109,7.461-1.21,2.083-1.249,4.105.341,5.9a6.2,6.2,0,0,0,6.323,2.181c23.325-4.857,46.8-9.06,69.792-15.391a190.583,190.583,0,0,0,28.688-10.325c6.672-3.05,13.283-6.235,19.967-9.26a63.542,63.542,0,0,1,6.664-2.377,1.414,1.414,0,0,1,1.207.436,1.466,1.466,0,0,1,.2,1.274,42.6,42.6,0,0,1-2.821,5.73,138.98,138.98,0,0,1-12.536,17.164,16.877,16.877,0,0,0-3.441,5.336c-1.478,4.007,1.158,7.683,5.5,7.867a15.371,15.371,0,0,0,5.507-1.216c6.068-2,12.122-4.032,18.211-5.961,2.342-.742,2.963-.238,3,2.244.063,4.028.05,8.058.046,12.087Q1223.708,1071.764,1223.669,1108.025Z" transform="translate(0 -440.88)" fill="#2f322e"/>
      <path id="Path_25719" data-name="Path 25719" d="M310.225,863.323a6.243,6.243,0,0,1,1.193,1.719c2.58,9.862,8.266,17.978,14.334,25.916,8.19,10.714,16.215,21.555,24.428,32.251a128.133,128.133,0,0,0,10.9,13.074c6.7,6.666,7.994,14.779,7.063,23.484-.874,8.173-3.854,15.469-9.85,21.508-2.6,2.621-5.43,5.238-7.138,8.682a2.344,2.344,0,0,1-.926,1.015c-7.353,3.755-14.7,7.526-22.1,11.185-3.605,1.783-7.353,3.275-10.976,5.025a102.272,102.272,0,0,1-14.456,5.886c-2.929.9-5.726,2.238-8.562,3.427-10.254,4.3-17.634,11.917-23.249,21.166a188.887,188.887,0,0,1-11.262,16.346,46.114,46.114,0,0,0-4.417,6.43c-3.12,6-7.735,10.673-12.646,15.143-3.848,3.5-7.4,7.3-11.759,10.271a11.5,11.5,0,0,1-7.2,2.36c-4.974-.16-9.955-.144-14.933-.186-2.133-.018-4.271-.086-6.4.022-6.608.336-9.133,2.686-10.289,9.405q-.6,3.493-1.257,6.976c-1.4,7.465-5.125,10.617-12.531,10.939-5.984.26-11.795-.859-17.6-1.952-7.425-1.4-14.784-3.15-22.207-4.561-4.636-.881-9.325-1.515-14.014-2.063-3.05-.357-6.139-.271-9.142-1.15a13.7,13.7,0,0,0-3.53-.16c-1.387-.023-2.781,1.185-4.1.31-1.458-.966-1.723-2.722-2.209-4.3-3.122-10.173-6.433-20.291-9.374-30.516a239.263,239.263,0,0,1-7.466-34.613c-.838-6.309-1.4-12.7-2.155-19.013a172.121,172.121,0,0,1-.939-22.666c.112-9.221,1.428-18.356,2.3-27.526A252.277,252.277,0,0,1,92.554,937.8c.987-4.581,2-9.194,4.044-13.477,4.252-3.9,4-10.063,7.247-14.473a9.419,9.419,0,0,1,.9-1.807,16.737,16.737,0,0,0,.926-3.03c5.933-12.42,12.578-24.377,21.154-35.234a135.686,135.686,0,0,0,22.249-42.6c6.539-20.16,8.342-40.706,1.186-61.33a96.021,96.021,0,0,1-5.745-35.514c.655-17.1,10.011-26.867,26.967-25.091,14.677,1.538,27.325,8.438,37.914,18.833a2.063,2.063,0,0,1-.4,1.308c-.591.72-1.139,1.469-1.665,2.236.887-.445,1.027-1.5,1.718-2.119,4.729-1.393,7.462,2.209,10.407,4.542,14.4,11.405,25.665,25.669,36.074,40.64,2.94,4.228,4.857,9.309,10.624,10.759a2.57,2.57,0,0,1,1.89,3.344c-1.252,4.3,1.568,7.119,3.421,10.354,11.743,20.5,23.983,40.721,34.637,61.832C307.24,859.2,307.68,861.973,310.225,863.323Z" transform="translate(0 -440.88)" fill="#4d4c4a"/>
      <path id="Path_25720" data-name="Path 25720" d="M1017.132,910.508c-8.327-2.116-12.7-7.369-13.379-16.027A126.178,126.178,0,0,0,1000.448,875c-1.036-4.336-1.909-8.711-2.855-13.068,6.793-8.782,11.677-18.789,19.024-27.334,10.734-12.487,23.438-22.76,35.189-34.088,7.423-7.155,16.8-12.667,18.842-24.014a2.35,2.35,0,0,1,1.228-1.68c9.264-4.168,11.644-13.429,15.221-21.446a397.96,397.96,0,0,0,18.8-52.122c7.428-25.787,21.295-46.781,45.328-60.183,8.88-4.952,17.844-5.214,27.437-2.565,25.009,6.905,33.265,26.836,36.592,49.1,4.132,27.655-.076,55.228-5.062,82.519-3.148,17.232-6.454,34.395-11.775,51.213-6.319,19.975-16.051,37.887-28.435,54.551-2,2.693-4.235,5.23-2.973,8.969a249.3,249.3,0,0,1-22.989,30.545,254.522,254.522,0,0,0-24.77,34.526c-5.2,8.475-11.279,16.319-17.221,24.264a1.486,1.486,0,0,1-1.21.553c-.786-.222-.8-1.025-.616-1.65,2.045-6.78,4.136-13.546,6.194-20.322.754-2.482,1.441-4.984,2.183-7.469,1.595-5.338.43-10.326-2.35-14.882a112.613,112.613,0,0,0-7.095-9.738,11.644,11.644,0,0,0-6.588-3.973c-3.408-.842-7.059-1.763-10.441-1.339a92.9,92.9,0,0,1-9.863.5c-6.65.128-13.115,1.575-19.667,2.378-10.829,1.327-21.2.149-30.906-5.143C1022.48,908.16,1018.4,911.812,1017.132,910.508Z" transform="translate(0 -440.88)" fill="#4d4c4a"/>
      <path id="Path_25721" data-name="Path 25721" d="M1088.362,1018.182c-.54-1.452.139-2.466.655-3.5,2.012-4.027,4.1-8.018,6.041-12.079a14.985,14.985,0,0,0,1.869-5.3c.223-4.271,2.231-7.689,4.5-11.023,4.789-7.042,9.416-14.214,14.575-20.979,5.761-7.556,10.227-15.922,15.646-23.685a257.606,257.606,0,0,1,17.571-23.156c7.349-8.344,13.809-17.4,20.294-26.43a247.566,247.566,0,0,1,16.537-20.365c7.078-7.928,13.934-16.055,19.318-25.349,4.978-8.594,10.754-16.728,15.7-25.337a97.171,97.171,0,0,0,12.868-38.728c.711-6.778,1.282-13.621,2.111-20.4.883-7.228,1.947-14.5,2.035-21.869.1-8.713,1.36-17.387,2.317-26.068,1.137-10.319,2.643-20.59,3.532-30.955.853-9.939,1.012-19.821,1.059-29.755a54.2,54.2,0,0,0-7.59-28.415c-.446-.755-1.307-1.326-1.079-2.465,1.985-.712,2.779,1.3,4.173,1.911a26.521,26.521,0,0,1,4.349,2.4,67.957,67.957,0,0,0,15.313,7.38c7.106,2.606,14.247,5.141,21.231,8.046a60.249,60.249,0,0,1,9.895,5.539c6.521,4.308,12.919,8.781,20.051,12.09,3.088,1.432,2.765,1.594,2.464,5.583-.808,10.7-3.918,20.909-6.877,31.082a158.962,158.962,0,0,1-8.867,22.412c-7.292,15.675-15.278,31.031-22.379,46.789-5.263,11.681-11.443,22.856-17.244,34.242q-11.612,22.79-21.761,46.272a150.358,150.358,0,0,0-8.7,29.179,137.694,137.694,0,0,0-2.916,31.7c.118,4.263-.044,8.533-.034,12.8.027,11.831-1.567,23.586-1.342,35.447.311,16.349.032,32.709,0,49.064,0,1.9-.021,3.791-.077,5.686a2.982,2.982,0,0,1-1.774,2.844,101.725,101.725,0,0,1-16.113,5.36c-.364.089-1.173-.25-1.212-.485a2.945,2.945,0,0,1,.2-1.962c2.531-3.713,5.254-7.3,7.726-11.047a49.3,49.3,0,0,0,6.355-13.439c1.578-5.469-2.454-9.9-8.095-8.967-6.855,1.137-13.2,3.841-19.292,6.962a244.033,244.033,0,0,1-31.439,13.116,265.892,265.892,0,0,1-26.637,7.39c-13.1,3.063-26.3,5.713-39.479,8.421A27.244,27.244,0,0,1,1088.362,1018.182Z" transform="translate(0 -440.88)" fill="#3e3d3b"/>
      <path id="Path_25722" data-name="Path 25722" d="M1167.008,884.845c-1.159-.254-2.367-.451-2.78-1.82a3.79,3.79,0,0,1,.339-3.419c1.123-1.513,2.67-2.734,3.675-4.309,6.353-9.954,13.923-19.145,18.923-29.945a117.882,117.882,0,0,0,4.72-11.086c5.065-14.734,10.428-29.419,12.969-44.85,1.265-7.678,3.441-15.231,4.179-22.906.769-8,2.777-15.755,3.634-23.741.786-7.328.864-14.6,1.1-21.9a17.468,17.468,0,0,1,.2-3.539,46.821,46.821,0,0,0-.025-22.444,13.558,13.558,0,0,1-.166-3.54c.243-8.007-2.074-15.357-5.508-22.48A126.657,126.657,0,0,0,1198.3,651.7c-2.09-3.019-4.307-5.46-8.038-6.49a47.709,47.709,0,0,1-8.526-3.471,33.832,33.832,0,0,0-16.521-3.217,23.244,23.244,0,0,0-11.5,3.171c-5.05,3.03-9.827,6.516-14.712,9.82-5.153,3.486-8.951,8.1-12.576,13.188-3.98,5.585-8.068,10.988-11.243,17.13a106.007,106.007,0,0,0-7.779,20.539c-4.36,15.753-10.081,30.988-16.161,46.124a126.734,126.734,0,0,1-11.819,23.381,29.291,29.291,0,0,1-2.535,3.42,2.562,2.562,0,0,1-1.82.757c-1.109-.07-2.337-1.007-3.168.368-.675,1.118-.108,2.277.347,3.375a2.555,2.555,0,0,1-.43,2.651c-5.132,6.826-10.743,13.2-17.577,18.4a17.07,17.07,0,0,0-2.261,1.7c-8.891,9.532-19.731,17.025-28.3,26.866-7.432,8.534-15.268,16.8-20.109,27.277a30.547,30.547,0,0,1-3.447,5.35c-.712.949-1.694.185-2.538-.107a25.327,25.327,0,0,1,.558-9.846c1.012-4.607,3.07-9.433,1.881-13.942-1.344-5.1.757-8.662,2.856-12.587,5.141-9.616,10.929-18.843,16.772-28.041,9.017-14.192,18.347-28.211,25.323-43.582,3.229-7.114,6.295-14.3,9.347-21.494,5.094-12,10.779-23.722,16.935-35.205,7.055-13.161,13.247-26.732,19.637-40.214,7.967-16.811,20-30.312,34.328-42.005,5.224-4.264,10.623-7.925,17.181-9.633a83.645,83.645,0,0,1,30.314-1.921c6.818.736,13.611,1.75,20.443,2.3a75.653,75.653,0,0,1,15.929,3.413c5.137,1.556,9.27,4.722,12.866,8.5a88.981,88.981,0,0,1,8.537,10.442,36.578,36.578,0,0,1,6.25,15.67c1.569,10.39,1.293,20.7.209,31.129-.906,8.711-1.96,17.385-3.231,26.045-1.407,9.588-2.634,19.2-3.9,28.812a45.439,45.439,0,0,0-.32,4.962c-.21,9.952-1.412,19.812-2.589,29.682-.671,5.633-1.068,11.315-1.5,16.962a89.548,89.548,0,0,1-11.414,37.017c-5.049,9.112-10.437,18.038-15.727,27.016a114.937,114.937,0,0,1-11.989,16.724C1179.81,869.649,1173.432,877.266,1167.008,884.845Z" transform="translate(0 -440.88)" fill="#656462"/>
      <path id="Path_25723" data-name="Path 25723" d="M986.03,879.145c3.119,3.792,3.443,8.281,2.481,12.723-1.121,5.176.239,9.827,2.025,14.459,1.7,4.4,5.132,7.256,9.053,9.687a34.459,34.459,0,0,0,11.145,4.44,52.38,52.38,0,0,1,10.841,3.276,31.4,31.4,0,0,0,11.043,2.361c12.418.812,24.567-1.059,36.642-3.488,6.367-1.281,12.727-.985,19.111-.86a8.573,8.573,0,0,1,3.407.868c5.449,2.6,8.164,7.784,11.112,12.545,2.225,3.593,1.623,7.76.194,11.694a208.148,208.148,0,0,0-8.265,27.855c-.833,3.929-1.652,7.863-2.611,11.761-.479,1.947-1.555,3.307-3.91,3.425-4.464.224-8.081,2.5-11.391,5.279-11.6,9.76-25.039,16.092-39.228,21.015a17.743,17.743,0,0,1-3.441.758,1.792,1.792,0,0,1-2.015-2.218,53.86,53.86,0,0,0,.94-6.292c.119-4.258-1.75-5.955-6.213-5.643a34.206,34.206,0,0,0-10.936,2.855c-7.194,3.05-14.317,6.265-21.526,9.277-10.044,4.2-19.719,9.289-30.193,12.445-1.359.409-2.7.894-4.067,1.255-1.922.507-2.706-.258-2.2-2.114,1.478-5.477,3.03-10.935,4.432-16.432a21.3,21.3,0,0,0,.774-5.586c-.092-4.823-3.92-7.01-7.663-4.1-5.074,3.945-10.574,7.181-15.942,10.643a161.7,161.7,0,0,1-29.273,14.423c-6.371,2.479-12.747,4.943-19.253,7.465-.256-3.377-.256-3.377.979-6.067,5.948-3.137,9.115-8.86,12.572-14.128,5.573-8.493,11.106-17.073,14.34-26.847a16.978,16.978,0,0,1,1.762-3.871c7.029-10.929,13.081-22.531,20.142-33.32,11.773-17.99,22.152-36.929,35.411-53.951C980.075,889.892,982.925,884.434,986.03,879.145Z" transform="translate(0 -440.88)" fill="#4d4c4a"/>
      <path id="Path_25724" data-name="Path 25724" d="M75.369,785.192a51.073,51.073,0,0,0-20.433-1.158,106.684,106.684,0,0,1-11.983,1.031c-4.819.182-9.342-1.026-13.908-2.349-5.154-1.494-7.94-4.961-9-9.955A58.2,58.2,0,0,1,18.4,758a72.5,72.5,0,0,0-.054-8.529c-.507-6.984,1.293-13.585,3-20.23a10.284,10.284,0,0,1,2.545-4.168c12.35-14.413,25.835-27.749,39.6-40.762,9.8-9.261,20.394-17.685,32.773-23.454,2.78-1.3,5.687-2.326,8.576-3.369a2.59,2.59,0,0,1,1.971.2c.721.438.337,1.257.018,1.843-3.556,6.538-4.973,13.773-6.68,20.885a72.383,72.383,0,0,0-.283,34.435c2.146,8.774,6.2,16.866,10.626,24.723,5,8.861,10.252,17.582,15.029,26.558a61.38,61.38,0,0,1,6.863,26.555c.383,8.836-.287,17.533-3.074,25.921-1.936,5.826-4.451,11.459-6.71,17.177a37.336,37.336,0,0,0-1.559,3.962c-3.261,12.207-9.338,23.252-14.321,34.746-.524,1.209-.766,2.783-2.46,3.146-2.01-9.309-1.986-18.74-1.853-28.174a85.02,85.02,0,0,1,.928-9.857c.824-6.283,1.672-12.721-.894-18.908a14.7,14.7,0,0,1-2.9-7.033c-1.578-8.582-6.439-15.419-11.9-21.941C84.4,787.853,78.988,788.245,75.369,785.192Z" transform="translate(0 -440.88)" fill="#3e3d3b"/>
      <path id="Path_25725" data-name="Path 25725" d="M209.158,725.394c-.4-.582-.665-1.361-1.21-1.716-9.71-6.33-19.4-12.71-30.792-15.764-7.9-2.119-15.432-1.46-22.454,3a16.771,16.771,0,0,0-8.076,14.172c-.253,6.387-.327,12.808.053,19.183.207,3.471,1.447,6.9,2.346,10.307,2.1,7.984,4.162,15.983,6.5,23.9a26.6,26.6,0,0,1,1.012,7.682c0,4.265-.072,8.532.029,12.794a30.551,30.551,0,0,1-1.849,12.537,9.777,9.777,0,0,0-.93,3.391c-.131,8.776-3.873,16.467-7.24,24.253-1.5,3.473-3.536,6.717-5.016,10.2-4.112,9.667-10.123,18.116-16.552,26.306a96.348,96.348,0,0,0-11.013,17.309,54.112,54.112,0,0,1-5.191,9.279,9.284,9.284,0,0,0-2.083,5.209c-.465.484-.957.943-1.391,1.456v0c-1.337.292-2.073,0-1.519-1.556a3.252,3.252,0,0,1,.283-1.314c.7-.906.493-2.136,1.091-3.079a177.055,177.055,0,0,1,10.831-29.238,221.741,221.741,0,0,0,12.052-29.574c2.034-6.3,4.657-12.41,6.912-18.643,4.688-12.96,5.616-26.229,3.67-39.862-1.541-10.8-5.708-20.411-11.343-29.6a281.576,281.576,0,0,1-18.159-35.371,52.2,52.2,0,0,1-4.108-19.322c-.35-10.716.342-21.3,3.2-31.678.5-1.826.954-3.674,1.6-5.448,2.81-7.655,4.341-8.51,12.461-8.924,11.693-.6,22.518,2.672,33.071,7.06a217.9,217.9,0,0,1,31.327,16.683,110.48,110.48,0,0,1,16.273,12.6q9.167,8.421,18.819,16.262c4.416,3.594,8.856,7.337,12.008,12.069,7.37,11.065,16.041,21.129,23.836,31.848A266.683,266.683,0,0,1,279.3,786.8c8.57,16.685,15.523,34.029,22.312,51.466,2.662,6.837,5.49,13.607,7.211,20.767.768.825.507,2.046,1.126,2.929a3.93,3.93,0,0,1,.276,1.365c-.368.57.008,2.463-1.322,1.332a15.688,15.688,0,0,1-3.168-4.638c-4.468-8.314-8.775-16.716-13.314-24.99-3.626-6.61-7.5-13.086-11.274-19.614-1.3-2.242-2.746-4.4-3.926-6.7a104.671,104.671,0,0,0-8.51-14.682,41.265,41.265,0,0,1-2.74-4.944,3.429,3.429,0,0,1,.122-3.288c1.275-2.977,1.142-3.153-2.437-2.99a2.741,2.741,0,0,1-2.918-1.347c-1.862-3.275-4.556-5.946-6.314-9.361-1.7-3.31-4.3-6.168-6.561-9.184-3.953-5.275-7.878-10.571-12.688-15.139a24.44,24.44,0,0,1-5.049-5.9,10.985,10.985,0,0,0-2.767-3.194c-5.86-4.707-11.2-10.136-18.2-13.285Z" transform="translate(0 -440.88)" fill="#656462"/>
      <path id="Path_25726" data-name="Path 25726" d="M256.781,1066.632a19.661,19.661,0,0,1,4.164-8.232c5.7-6.964,10.866-14.306,15.878-21.777A42.961,42.961,0,0,1,297.63,1020.1c6.4-2.425,12.7-5.2,19.443-6.689a33.332,33.332,0,0,0,6.741-2.2A89.577,89.577,0,0,1,345.9,1003.8c2.327-.407,4.3-1.918,6.2-3.37A171.468,171.468,0,0,0,368.943,986.3c6.01-5.968,9.959-13.157,13.04-21.465,2.7,3.092,5.315,5.759,7.542,8.718A102.284,102.284,0,0,0,401.547,986.6a46.922,46.922,0,0,1,10.555,14.155c6.232,13.177,14.878,24.686,23.925,35.96,1.3,1.619,3.041,3.053,2.747,5.465a4.41,4.41,0,0,1-3.495.285c-8.868-2.532-18.194-3.034-26.937-6.133a16.955,16.955,0,0,0-4.854-.885c-5.212-.231-8.611,3.5-7.511,8.563a59.484,59.484,0,0,0,3.105,8.66c.941,2.424,2.093,4.769,2.969,7.214.743,2.076-.532,3.705-2.766,3.805a7.553,7.553,0,0,1-1.417,0c-7.241-1.059-14.469-2.215-21.722-3.186-6.55-.877-13.061-2.173-19.7-2.207-9.952-.05-19.905-.007-29.857-.086a27.666,27.666,0,0,0-10.37,2.1,9.021,9.021,0,0,0-5.943,8.126c-.157,1.646-.027,3.318-.136,4.97-.164,2.483-.95,3.2-3.551,3.465a24.5,24.5,0,0,1-12.486-2,97.566,97.566,0,0,0-15.413-5.318A79.95,79.95,0,0,0,256.781,1066.632Z" transform="translate(0 -440.88)" fill="#4d4c4a"/>
      <path id="Path_25727" data-name="Path 25727" d="M877.977,1044.08c.3,3.855,2.7,6.46,5.355,8.879a49.4,49.4,0,0,1,10.047,12.716c2.587,4.673,3.384,9.734,4.42,14.785a6.016,6.016,0,0,1-.115,2.819c-1.9,6.362-4.19,12.479-8.849,17.529-4.4,4.768-9.961,7.156-16.011,8.524-4.817,1.089-9.6,2.325-14.452,3.317a34.087,34.087,0,0,0-16.94,8.408,28.385,28.385,0,0,1-10.869,6.41c-4.707,1.547-9.358,3.272-13.988,5.038a18.543,18.543,0,0,1-6.936,1.167c-5.684-.058-11.384.236-17.048-.1a157.9,157.9,0,0,1-16.791-2.035,24.27,24.27,0,0,0-6.3-.678c-4.6.439-8.928-.827-13.239-1.973a171.508,171.508,0,0,1-29.982-10.622,64.783,64.783,0,0,0-29.484-6c-11.6.185-23.214-.154-34.813.125a71.232,71.232,0,0,1-16.795-2.085,33.99,33.99,0,0,0-7-.834c-3.07-.02-6.108.053-9.107-1.053-1.484-.547-3.274-.34-4.926-.348-6.868-.03-13.737-.013-20.605-.01a8.9,8.9,0,0,0-2.828.076c-6.165,2.182-12.027-.149-18-1.006-5.351-.767-10.748-1.2-16.1-1.951-7.725-1.076-15.505-1.142-23.26-1.649-6.508-.426-12.914-2.412-19.367-3.7-11.063-2.212-18.669-8.778-23.109-18.932-2.156-4.93-4.534-9.919-4.241-15.569a17.53,17.53,0,0,1,2.513,2.421,37.363,37.363,0,0,0,17.609,13.673,57.452,57.452,0,0,0,19.964,4.034c6.316.157,12.617,1.329,18.9,2.234,3.959.57,7.938.974,11.9,1.628,6.488,1.073,13.035,1.9,19.558,2.833,4.419.634,8.989.188,13.491.274a57.973,57.973,0,0,1,11.256.984c7.208,1.546,14.043-.895,20.644-3.578a43.706,43.706,0,0,0,9.339-5.083c4.246-3.091,9.006-3.581,13.246-.444,4.13,3.056,8.484,2.992,12.821,1.846,2.991-.79,5.524-.861,8.154.622a4.118,4.118,0,0,0,4.056-.014c2.8-1.339,5.57-2.679,7.116-5.6a10.786,10.786,0,0,1,4.443-4.458c2.3-1.28,2.767-1.315,4.625.987,5.245,6.5,12.321,10.242,19.885,13.172,3.29,1.274,6.8,1.974,10.164,3.068a66.962,66.962,0,0,1,14.008,6.813,109.711,109.711,0,0,0,20.728,8.941c3.646.988,7.309,1.934,10.9,3.108,5.824,1.906,11.086.854,16.232-2.277,3.43-2.087,7.133-3.723,10.706-5.577,3.677-1.908,7.843-1.473,11.746-2.322a204.01,204.01,0,0,1,27.176-4.269c8.716-.689,17.24-2.544,25.94-3.269,5.713-.476,10.745-3.508,15.617-6.47a8.561,8.561,0,0,0,1.994-2.005,15.433,15.433,0,0,0,1.078-1.831c4.788-7.932,4.888-16.047.895-24.29-2.066-4.264-4.252-8.469-6.313-12.736C876.353,1046.343,876.432,1044.973,877.977,1044.08Z" transform="translate(0 -440.88)" fill="#1d1f1c"/>
      <path id="Path_25728" data-name="Path 25728" d="M828.138,1002.843c7.041,3.361,14.343,6.181,21.018,10.306a39.2,39.2,0,0,1,7.781,6.141c3.107,3.235,2.774,7.139-1.127,9.448a41.326,41.326,0,0,1-8.436,3.675c-11.488,3.672-23.017,7.219-34.554,10.733-9.347,2.846-17.881,7.481-26.575,11.787-5.934,2.939-11.856,5.952-17.979,8.452-11.225,4.584-22.643,4.826-33.8-.184a80.352,80.352,0,0,0-13.21-5.084c-2.649-.667-4.783-2-5.335-5.02a6.948,6.948,0,0,0-2.807-4.8c-3.785-2.324-5.758-6.192-8.627-9.285a64.838,64.838,0,0,0-5.681-5.338,38.671,38.671,0,0,1-7.907-9.061c-1.331-2.132-1.16-3.193.48-5.072,2.267-2.6,5.235-3.962,8.411-5.062a111.232,111.232,0,0,1,18.619-4.351c7.924-1.292,15.927-2.1,23.909-3.02,2.106-.242,4.255-.1,6.384-.135.014,3.39-3.135,2.748-4.915,3.845-4.128,2.546-7.374,5.569-6.118,11.066,4.779,2.394,10.171,3.4,14.271,7.317a6.407,6.407,0,0,0,7.953.728c3.652-2.445,2.369-6.224,1.726-9.677a29.508,29.508,0,0,0-1.607-4.573c-1.341-5.617-7.313-5.581-10.668-8.731a15.547,15.547,0,0,1,3.289-1.115c4.93-.527,9.868-1.06,14.817-1.318,9.008-.469,17.786-2.318,26.626-3.9,6.486-1.163,13.074-2.11,19.684-.591,2.4,7.6,2.4,7.61,9.369,3.442C824.721,1002.5,826.26,1001.349,828.138,1002.843Z" transform="translate(0 -440.88)" fill="#777572"/>
      <path id="Path_25729" data-name="Path 25729" d="M587.516,993.438l8.789-3.224c1.379,1.57.682,4.247,2.874,5.383l-.032-.014a4.364,4.364,0,0,0,2.687,4.448c2.954,1.483,5.3-.4,6.836-2.139,5.738-6.51,14.7-8.288,20.61-14.453.613-.639,1.751-.629,2.686-.781,6.2.8,11.266-3.536,17.225-3.823,1.623.165,3.407.851,4.841.407,6.326-1.959,12.979-1.961,19.349-3.532,2.47-.609,5.146-.8,6.973-2.967,1.012-1.2,2.462-1.222,3.859-1.378,1.617-.18,3.314-.053,4.695-1.18q8.158-.1,16.315-.2a9.237,9.237,0,0,1,6.948,2.953c2.255,2.244,2.447,4.429.587,6.906a67.542,67.542,0,0,1-31.732,23.176,131.542,131.542,0,0,1-36.256,8.8c-17.632-1.71-31.723,6.495-44.8,16.661-15.163,11.784-32.29,17.382-51.2,18.845-5.538.428-10.66-1.826-16.083-1.251a11.762,11.762,0,0,1-3.349-.135c-2.983-1.028-5.962.2-8.947.032-9.026-.436-18.08-.789-25.1-7.729l-.005.018c-1.675-.911-2.706-2.1-1.809-4.138,2.876-3.555,6.693-5.856,10.614-8.043,14.013-7.813,28.82-13.8,43.881-19.222,3.754-1.35,7.5-2.718,11.251-4.078l2.92,9.812c1.17,1.5,2.767.9,3.825.265,6-3.58,13.474-3.982,18.87-8.811,1.325-1.9,4.855-1.7,5.016-4.221.118-1.856-1.356-3.812-2.117-5.726C587.642,993.882,587.585,993.653,587.516,993.438Z" transform="translate(0 -440.88)" fill="#777572"/>
      <path id="Path_25730" data-name="Path 25730" d="M714.373,981.516c3.3-.289,4.4,2.231,5.673,4.488,1.206,2.144,1.8,4.4.618,6.757a41.012,41.012,0,0,1-11.031,13.682,12.144,12.144,0,0,1-5.227,2.051c-6.474,1.4-11.509,5.231-16.141,9.74a8.794,8.794,0,0,0-2.554,6.339c-.278,5.28,1.258,10.3,2.039,15.4,1.1,7.2,3.011,14.275,4.542,21.411.3,1.378.421,2.791.658,4.182.487,2.855-.557,4.785-2.893,6.633a104.369,104.369,0,0,0-8.65,8.375c-1.666,1.666-3.433,2.346-5.724,1.2a8.737,8.737,0,0,0-7.569-.208c-2.925,1.279-5.517.706-8.141-.648-.419-.217-.869-.374-1.3-.574-6.412-3-12.558-3.289-18.841.766-5.659,3.651-12.455,4.191-18.888,5.548-2.74.578-5.439,1.693-8.357,1.33-1.164-.145-2.364-.044-3.248-1.042-2.034-2.3-4.067-4.594-6.125-6.869a6.442,6.442,0,0,1-1.4-4.635c.02-3.307.138-6.614.215-9.921.489-1.739.724-3.651,2.9-4.24,13.231-2.854,26.86-2.569,40.132-4.881,10.9-1.9,19.825-7.12,25.14-17.654,6.2-12.288,13.264-24.024,23.767-33.378,4.257-3.792,6.9-9,9.256-14.21C705.692,986.512,708.979,982.8,714.373,981.516Z" transform="translate(0 -440.88)" fill="#413f3d"/>
      <path id="Path_25731" data-name="Path 25731" d="M986.03,879.145A9.914,9.914,0,0,1,984,886.4c-3.914,5.3-7.254,11.029-11.3,16.215-5.108,6.544-9.181,13.668-13.2,20.873a79.556,79.556,0,0,1-6.891,10.679c-3.525,4.451-6.485,9.255-9.688,13.909a41.536,41.536,0,0,0-5.469,10.649,22.743,22.743,0,0,1-2.651,4.966c-2.537,3.972-5.027,7.986-7.8,11.792a60.79,60.79,0,0,0-7.734,14.208c-4.666,12.2-12.1,22.825-19.753,33.276a26.244,26.244,0,0,1-5.127,4.833c-.807.633-1.751-.079-2.313-.939a99.745,99.745,0,0,1,7.485-19.079c10.52-20.346,21.052-40.691,31.984-60.817,5.742-10.572,12.427-20.628,18.5-31.026,4.4-7.543,8.562-15.233,12.7-22.925a17.8,17.8,0,0,1,6.622-7.084c3.59-2.2,7.37-4.177,10.49-7.18C981.732,876.94,984.112,876.784,986.03,879.145Z" transform="translate(0 -440.88)" fill="#656462"/>
      <path id="Path_25732" data-name="Path 25732" d="M532.024,1045.56c1.691-.871,3.329-1.634,5.384-1.056a29.134,29.134,0,0,0,15.365.033,11.693,11.693,0,0,1,3.5-.431c4.572.257,8.79-1.206,13.172-2.162,10.952-2.39,19.68-8.658,28.77-14.628,7.428-4.878,14.217-10.761,22.928-13.807a59.26,59.26,0,0,1,23.536-3.542c-.4,3.455-3.286,2.887-5.432,3.164-17.283,2.23-29.446,13.559-30.282,30.287-.376,7.515-2.519,15-8.647,20.426l-3.408,5c-5.011-2.126-10.51-2.873-15.984-3.875-9.257-1.695-18.017-5.152-26.542-9.152-5.312-2.493-10.656-4.917-16.006-7.328-1.921-.866-3.846-1.8-6.047-1.7q-.731-.251-.623-.711C531.785,1045.736,531.891,1045.56,532.024,1045.56Z" transform="translate(0 -440.88)" fill="#595754"/>
      <path id="Path_25733" data-name="Path 25733" d="M717.294,1060.925a54.3,54.3,0,0,1,13.933,4.755c12.964,6.621,26.164,6.431,39.428.82,1.51-.639,2.973-1.4,4.5-1.972a1.024,1.024,0,0,1,1.442,1.015c-.084,2.325-.527,4.652.323,6.931,4.179,5.948,8.756,11.612,12.723,17.726a9.792,9.792,0,0,1-.22,3.517c-2.488,10.749-6.2,12.853-17.163,11.38-20.239-2.719-35.037-15.552-50.7-26.717-4.1-2.92-5.794-7.994-6.755-12.942C714.444,1063.56,713.844,1060.971,717.294,1060.925Z" transform="translate(0 -440.88)" fill="#595754"/>
      <path id="Path_25734" data-name="Path 25734" d="M800.962,1052.427c4.542-2.5,9.443-4.074,14.327-5.734,14.028-4.767,28.556-7.735,42.724-11.991,2.286-.687,3.64.246,3.928,2.522a14.812,14.812,0,0,1-.473,6.979c-1.2,3.324-.058,5.96,2.268,8.3,6.27,4.331,7.683,9.626,4.313,16.3a34.413,34.413,0,0,1-4.033,5.8c-5.228,6.561-8.313,7.137-14.748,1.969a42.046,42.046,0,0,0-13.041-6.845A216.493,216.493,0,0,1,805.6,1056.85C803.714,1055.851,800.714,1055.76,800.962,1052.427Z" transform="translate(0 -440.88)" fill="#595754"/>
      <path id="Path_25735" data-name="Path 25735" d="M800.962,1052.427a198.236,198.236,0,0,0,24.3,11.3c5.293,2.019,10.611,3.987,15.992,5.752a19.022,19.022,0,0,1,7.827,4.655,25,25,0,0,0,3.938,2.975c3.089,2.059,4.912,2.032,7.272-.67a43.992,43.992,0,0,0,6.258-8.53c2.265-4.413,2.741-9.045-1.236-13.086a15.11,15.11,0,0,1-1.578-2.327c2.359-.01,4.724.078,7.077-.055a6.714,6.714,0,0,1,6.512,3.409c4.029,6.414,5.967,13.392,4.818,20.912-.938,6.138-5.016,10.087-10.611,12.229a44.229,44.229,0,0,1-16.522,3.3c-7.364-.128-14.478,1.5-21.7,2.375-10.972,1.331-21.819,3.344-32.615,5.668-1.995.429-3.08-.677-3.927-2.233-4.451-4.637-6.97-10.848-12.507-14.7-1.729-1.2-3.719-3.834-1.5-6.653,4.376-.465,7.154,2.484,9.559,5.218,6.629,7.536,14.981,9.6,24.422,8.452a128.451,128.451,0,0,0,24.887-5.752c1.923-.638,4.7-1.02,4.723-3.6.019-2.33-2.412-3.364-4.3-4.305-5.31-2.652-10.994-4.385-16.515-6.521-3.977-1.539-8.18-2.751-11.732-5.054-8.677-5.625-17.129-5.845-25.8-.184a7.3,7.3,0,0,1-5.4,1.348,3.051,3.051,0,0,1-1.661-1.221,6.478,6.478,0,0,1,3.685-4.849C789.992,1057.508,795.131,1054.24,800.962,1052.427Z" transform="translate(0 -440.88)" fill="#413f3d"/>
      <path id="Path_25736" data-name="Path 25736" d="M717.294,1060.925a2.664,2.664,0,0,0-1.314,3.006c2,6.9,4.815,13.049,11.545,17,7.479,4.388,14.508,9.545,21.727,14.376a30.533,30.533,0,0,0,9.529,4.505c6.808,1.706,13.426,4.348,20.644,3.994,4.538-.222,4.753-.308,6.408-4.94,1.106-3.1,2.444-6.13,2.621-9.483,4.328,1.32,6.663,3.9,5.507,8.695-1.743,1.576-3.565,3.075-5.212,4.747a12.432,12.432,0,0,1-9.513,3.951,79.606,79.606,0,0,1-25.575-4.592c-1.994-.726-3.921-1.655-5.945-2.271a52.977,52.977,0,0,1-14.131-6.337,46,46,0,0,0-13-5.479,46.479,46.479,0,0,1-15.238-7.3c-4.488-3.349-7.906-7.448-8.923-13.132-.7-3.935-1.535-7.873-1.857-11.845-.437-5.391-.017-10.838-1.36-16.174-.431-1.712,1-2.669,2.544-2a12.837,12.837,0,0,1,6.153,5.606c1.882,3.25,3.819,6.514,7.8,7.787,1.736.556,2.263,2.378,2.848,3.878a14.423,14.423,0,0,0,4.74,6.006Z" transform="translate(0 -440.88)" fill="#413f3d"/>
      <path id="Path_25737" data-name="Path 25737" d="M525.145,1048.169a63.018,63.018,0,0,1,16.6,5.664c9.031,4.509,17.865,9.439,27.31,13.087-.022,3.157-2.52,4.106-4.756,4.228-18.787,1.026-37.624,3.138-56.256-1.562l-.032-.02q-.752-.649-1.455-1.352c-3.645-3.377-6.063-7.59-8.218-11.992-1.534-3.134-3.134-6.236-4.705-9.352-.729-.859-.474-2.124-1.229-2.972l-.133-2.712c-.417-.589-.261-1,.391-1.257a3.631,3.631,0,0,0,.932-.033C503.76,1044,514.825,1044.667,525.145,1048.169Z" transform="translate(0 -440.88)" fill="#595754"/>
      <path id="Path_25738" data-name="Path 25738" d="M508.045,1069.586c8.657-.072,17.33-.68,25.911,1.214a11.727,11.727,0,0,0,5.615.079c6.732-2.005,13.589-.935,20.384-1.223,2.343-.1,4.758.269,6.9-1.052a26.789,26.789,0,0,0,2.206-1.685c6.2,1.433,12.17,3.745,18.565,4.458,1.793.2,3.5,1.378,5.19,2.232a8.358,8.358,0,0,1,4.739,8.095,35.313,35.313,0,0,1-.276,4.248,1.892,1.892,0,0,1-2.526,1.749c-3.7-1.09-7.54-.664-11.268-1.206-9.108-1.324-18.211-2.733-27.248-4.463a46.99,46.99,0,0,0-8.424-.89c-6.386-.066-12.791.1-19.067-1.459a16.662,16.662,0,0,1-2.784-.479C519.77,1076.408,513.181,1074.34,508.045,1069.586Z" transform="translate(0 -440.88)" fill="#413f3d"/>
      <path id="Path_25739" data-name="Path 25739" d="M715.657,1007.023c2.935-3.767,4.788-6.481,6.989-8.874a11.375,11.375,0,0,0,3.306-7.549c.145-3.043.981-3.553,4.079-3.376a18.25,18.25,0,0,1,4.173.652c9.278,2.78,18.873,4.09,28.34,5.921,6.44,1.245,13.114,1.343,19.7,1.777,3.287.217,6.6.038,10.307.038-.775,1.975-2.331,1.56-3.364,1.806-3.426.816-6.879,1.59-10.365,2.065-5.6.763-11.227,1.28-16.845,1.888-5.386.582-10.8.98-16.154,1.761-7.222,1.053-14.418,2.218-21.725,2.583C721.788,1005.83,719.5,1006.41,715.657,1007.023Z" transform="translate(0 -440.88)" fill="#403e3c"/>
      <path id="Path_25740" data-name="Path 25740" d="M600.316,1063.847a31.2,31.2,0,0,1,2.127-5.225c3.526-5.6,4.837-11.835,5.013-18.236.292-10.625,11.685-24.24,20.889-26.4,4.355-1.023,8.487-2.987,13.111-2.788a4.137,4.137,0,0,0,3.22-1.227,139.061,139.061,0,0,0,29.978-6.641c2.209-.721,4.431-1.4,6.647-2.1,1.61-.708,3.033-.943,3.454,1.361-2.639,3.757-6.838,4.859-10.842,6.139a203.17,203.17,0,0,1-33.116,7.388c-15.562,2.234-27.255,9.85-28.869,28.537-.562,6.512-1.665,13.226-7.32,17.85l-2.581,3.015Q601.173,1064.682,600.316,1063.847Z" transform="translate(0 -440.88)" fill="#0c0b0b"/>
      <path id="Path_25741" data-name="Path 25741" d="M820.762,989.864a3.91,3.91,0,0,0,.365-1.22c2.064-2.556,2.714-5.761,3.985-8.681q2.8-6.509,5.61-13.017c3.041,6.467,4.435,13.187,3.128,20.323l-4.336,6.946a19.011,19.011,0,0,0-4.49,5.349,6.811,6.811,0,0,1-1.33,3.166c-2.053,2.127-4.116,5.388-7.461,3.446-4.021-2.335-.631-5.134.469-7.669a8.05,8.05,0,0,0,1.651-4.283C820.064,993.275,820.247,991.475,820.762,989.864Z" transform="translate(0 -440.88)" fill="#747474"/>
      <path id="Path_25742" data-name="Path 25742" d="M749.342,1006.945c1.348.171,2.713.257,4.041.528,4.4.9,7.429,3.229,8,7.988q-.039.468-.078.936c-.028,3.779.027,7.544,1.824,11.029-4.293,5.33-7.456,6.269-12.667,1.55-4.483-4.06-9.547-5.165-14.912-6.308-.311-.594-1.01-1.3-.873-1.764,1.877-6.358,4.508-12.037,12.3-12.751.6-.055,1.141-.773,1.712-1.184C748.7,1006.971,749.342,1006.945,749.342,1006.945Z" transform="translate(0 -440.88)" fill="#92632f"/>
      <path id="Path_25743" data-name="Path 25743" d="M75.369,785.192c6.351.5,11.929,2.389,15.236,8.421a8.034,8.034,0,0,0,1.372,1.6A31.358,31.358,0,0,1,100,809.794c.9,3.618,2.257,7.125,2.442,10.9-2.106,1.517-1.146,3.811-1.468,5.781A7.5,7.5,0,0,1,99.8,824c-.248-4.52-1.7-8.751-2.765-13.092-1.5-6.144-4.987-11.154-8.6-16.091-3.478-4.753-8.709-6.152-14.243-6.792-2.51-.291-5.26.638-7.44-1.408,1.855-.028,3.71-.066,5.566-.082A3.614,3.614,0,0,0,75.369,785.192Z" transform="translate(0 -440.88)" fill="#090808"/>
      <path id="Path_25744" data-name="Path 25744" d="M525.145,1048.169a82.608,82.608,0,0,1-25.452-4.851,14.973,14.973,0,0,1-6.1-3.421l1.683-1.658c1.767.649,3.548,1.264,5.3,1.954a54.146,54.146,0,0,0,20.045,3.982c2.765,1.457,5.94-.251,8.714,1.13l2.687.258a10.082,10.082,0,0,0,.3,1.225c-1.38.034-2.76.092-4.141.1a3.569,3.569,0,0,0-3.041,1.285Z" transform="translate(0 -440.88)" fill="#11100f"/>
      <path id="Path_25745" data-name="Path 25745" d="M684.4,1002.588c-.749-1.1-1.93-1.211-3.1-1.357,3.135-1.5,6.3-2.945,9.4-4.526a47.625,47.625,0,0,0,14.922-11.39,17.958,17.958,0,0,1,7.132-5.474l1.615,1.679c-3.616,3.014-7.479,5.775-10.055,9.85C699.614,998.538,692.733,1001.851,684.4,1002.588Z" transform="translate(0 -440.88)" fill="#141312"/>
      <path id="Path_25746" data-name="Path 25746" d="M793.958,1098.073a12.113,12.113,0,0,0-5.508-8.693c-5.011-3.378-8.071-8.3-10.656-13.573a16.92,16.92,0,0,1-.874-3.337,3.029,3.029,0,0,0,1.38-2.753,3.538,3.538,0,0,1,1.175-2.892c.262.151.525.3.79.451,1.32,2.1,1.082,4.654,1.994,6.877a6.937,6.937,0,0,1,.319,1.77c-.023.3-.05.6-.077.9a12.235,12.235,0,0,0,5.569,8.431c4.443,2.894,6.928,6.878,8.7,12.851Q795.366,1098.093,793.958,1098.073Z" transform="translate(0 -440.88)" fill="#0f0e0e"/>
      <path id="Path_25747" data-name="Path 25747" d="M816.705,998.512c-.41,1.34-.865,2.668-1.214,4.024a2.063,2.063,0,0,0,.719,2.5,2.735,2.735,0,0,0,3.283-.069,25.7,25.7,0,0,0,1.944-2.04c1.177-1.141,2.392-2.242,3.591-3.361l3.115,3.277c-2.932.091-4.354,2.474-6.187,4.17a5.509,5.509,0,0,1-5.8,1.227c-3.394-1.018-3.969-2.045-3.031-5.523.241-.891.425-1.8.635-2.7Q815.232,999.262,816.705,998.512Z" transform="translate(0 -440.88)" fill="#101010"/>
      <path id="Path_25748" data-name="Path 25748" d="M103.778,907.338l1.519,1.556c-2.012,4.967-3.974,9.954-6.074,14.883-.464,1.089-1.419,1.964-2.624.546C98.551,918.477,99.868,912.36,103.778,907.338Z" transform="translate(0 -440.88)" fill="#555553"/>
      <path id="Path_25749" data-name="Path 25749" d="M244.41,1078.951c.659,7.886-.1,8.817-7.1,9.162a7.859,7.859,0,0,1-1.822-.49A28.741,28.741,0,0,1,244.41,1078.951Z" transform="translate(0 -440.88)" fill="#40403e"/>
      <path id="Path_25750" data-name="Path 25750" d="M96.824,1115.095c-.171-3.935-.121-7.855-1.159-11.751-.552-2.071-.1-4.409-.1-7.684a39.589,39.589,0,0,1,4.658,14.676c.083.615-.411,1.307-.638,1.964-.871.76-.586,2.076-1.385,2.871v.01C97.7,1115.8,97.241,1115.8,96.824,1115.095Z" transform="translate(0 -440.88)" fill="#393836"/>
      <path id="Path_25751" data-name="Path 25751" d="M867.06,1039.5c1.855,1.136,2.192,3.171,3.319,4.644.691.9,1.778,1.878,1.141,3.133-.8,1.569-2.433,1.116-3.781,1.028a2.422,2.422,0,0,1-2.453-2.807,16.116,16.116,0,0,1,1.775-6Z" transform="translate(0 -440.88)" fill="#3a3836"/>
      <path id="Path_25752" data-name="Path 25752" d="M138.013,1372.652a3.014,3.014,0,0,0,1.444-2.875c1.921,3.611,4.288,7.056,4.25,11.4l.014-.012a5.491,5.491,0,0,1-2.884-2.892C139.92,1376.382,138.957,1374.524,138.013,1372.652Z" transform="translate(0 -440.88)" fill="#171716"/>
      <path id="Path_25753" data-name="Path 25753" d="M1017.132,910.508a18.613,18.613,0,0,1,2.431-1.179c1.227-.4,2.764-1.029,3.572.265.294.471-.891,1.852-1.374,2.831a2.111,2.111,0,0,0-.088.667C1017.921,914.545,1017.914,914.545,1017.132,910.508Z" transform="translate(0 -440.88)" fill="#3f3c3a"/>
      <path id="Path_25754" data-name="Path 25754" d="M96.824,1115.095q.687.069,1.378.085c.267,1.083.558,2.161.79,3.251.139.652.255,1.506-.594,1.641-1.086.174-1.518-.649-1.556-1.622C96.8,1117.332,96.827,1116.21,96.824,1115.095Z" transform="translate(0 -440.88)" fill="#1b1a19"/>
      <path id="Path_25755" data-name="Path 25755" d="M338.557,1000.625a3.044,3.044,0,0,1-.234,1.208,1.8,1.8,0,0,1-2.4.7c-1.369-.719-.278-1.515.179-2.183a2.262,2.262,0,0,1,1.082-.823C337.992,999.269,338.424,999.738,338.557,1000.625Z" transform="translate(0 -440.88)" fill="#393735"/>
      <path id="Path_25756" data-name="Path 25756" d="M386.726,964.769c-.345-.238-.861-.4-.984-.713a1.87,1.87,0,0,1,1.561-2.48c.669-.1,1.47.144,1.493.909C388.833,963.8,387.919,964.462,386.726,964.769Z" transform="translate(0 -440.88)" fill="#3f3e3c"/>
      <path id="Path_25757" data-name="Path 25757" d="M493.467,1034.121c.048,1.622,1.082,2.813,1.809,4.138C492.035,1037.414,491.881,1037.062,493.467,1034.121Z" transform="translate(0 -440.88)" fill="#11100f"/>
      <path id="Path_25758" data-name="Path 25758" d="M492.407,1043.9a3.152,3.152,0,0,1,1.229,2.972A2.848,2.848,0,0,1,492.407,1043.9Z" transform="translate(0 -440.88)" fill="#11100f"/>
      <path id="Path_25759" data-name="Path 25759" d="M105.153,902.943a2.9,2.9,0,0,1-1.092,3.079,3.075,3.075,0,0,1,1.092-3.079Z" transform="translate(0 -440.88)" fill="#555553"/>
      <path id="Path_25760" data-name="Path 25760" d="M98.2,1115.167a2.852,2.852,0,0,1,1.385-2.871A2.894,2.894,0,0,1,98.2,1115.167Z" transform="translate(0 -440.88)" fill="#1b1a19"/>
      <path id="Path_25761" data-name="Path 25761" d="M309.949,861.953a2.888,2.888,0,0,1-1.126-2.928A2.8,2.8,0,0,1,309.949,861.953Z" transform="translate(0 -440.88)" fill="#4d4c4a"/>
      <path id="Path_25762" data-name="Path 25762" d="M143.707,1381.176a4.955,4.955,0,0,1,.972.854c.328.487.122.886-.448.957-.1.013-.317-.317-.359-.514a12.31,12.31,0,0,1-.151-1.308Z" transform="translate(0 -440.88)" fill="#171716"/>
      <path id="Path_25763" data-name="Path 25763" d="M779.479,1066.828q.733-.844,1.465-1.689l.349.37a1.09,1.09,0,0,1-1.185,1.184Z" transform="translate(0 -440.88)" fill="#413f3d"/>
      <path id="Path_25764" data-name="Path 25764" d="M506.558,1068.21l1.455,1.352A1.751,1.751,0,0,1,506.558,1068.21Z" transform="translate(0 -440.88)" fill="#413f3d"/>
      <path id="Path_25765" data-name="Path 25765" d="M1183.893,1267.4l1.414-1.437Z" transform="translate(0 -440.88)" fill="#161815"/>
      <path id="Path_25766" data-name="Path 25766" d="M139.392,1368.38l-1.324-1.5Q138.731,1367.637,139.392,1368.38Z" transform="translate(0 -440.88)" fill="#171716"/>
      <path id="Path_25767" data-name="Path 25767" d="M136.653,1371.2l1.362,1.449Z" transform="translate(0 -440.88)" fill="#171716"/>
      <path id="Path_25768" data-name="Path 25768" d="M492.665,1039.932a5.771,5.771,0,0,1-.391,1.257C491.217,1040.395,491.622,1040.062,492.665,1039.932Z" transform="translate(0 -440.88)" fill="#11100f"/>
      <path id="Path_25769" data-name="Path 25769" d="M608.921,995.31c-1.656.418-3.411.791-4.455-.991-2.188-3.734-3.559-7.81-2.978-12.145.921-6.874,6.916-10.88,14-9.68a13.969,13.969,0,0,1,7.526,3.715c1.365,1.312,2.672,2.682,4.006,4.027,2.249,3.614-.883,3.957-2.985,4.929-2.906.243-4.948-1.208-6.434-3.508a7.512,7.512,0,0,0-4.314-3.386c-2.384-.693-4.2.483-5.623,2.049-1.688,1.857.474,2.874,1.354,4.073a22.831,22.831,0,0,1,3.351,5.356C612.491,992.388,611.837,994.553,608.921,995.31Z" transform="translate(0 -440.88)" fill="#ecb53f"/>
      <path id="Path_25770" data-name="Path 25770" d="M608.921,995.31l3.108-5.2c1.342-1.98,3.732-1.479,5.533-2.363a14.386,14.386,0,0,0,2.141-1.371,8.278,8.278,0,0,1,3.8-1.9c1.434-1.2,3.958-1.494,3.519-4.243a9.324,9.324,0,0,1,.945-.192c2.373.337,3.983,1.387,3.823,4.09-2.327.143-3.842,1.667-5.2,3.269a20.186,20.186,0,0,1-9.277,6.1,15.754,15.754,0,0,0-6.994,4.4,12.113,12.113,0,0,1-5.38,3.174,2.722,2.722,0,0,1-3.1-1.043C604.744,999.282,607.8,998.747,608.921,995.31Z" transform="translate(0 -440.88)" fill="#735d45"/>
      <path id="Path_25771" data-name="Path 25771" d="M631.785,984.132l-3.825-4.092q-.41-3.469-.827-6.939l1.486-.186c1.928.878,2.131,2.982,3.2,4.462,1.356,2.376,3.178,2.115,5.173.908a5.128,5.128,0,0,1,1.792-.345c1.058-.022,2.269.237,2.463-1.376a4.382,4.382,0,0,1,3.031-2.782,3.3,3.3,0,0,1,1.744.141,3.55,3.55,0,0,1,1.393,3.154l1.77,1.751c-1.587.948-3.193,1.864-4.759,2.846A16.521,16.521,0,0,1,631.785,984.132Z" transform="translate(0 -440.88)" fill="#191a19"/>
      <path id="Path_25772" data-name="Path 25772" d="M599.178,995.6c.4-3.325-1.738-6.383-1.039-10.8,1.888,4.846,3.643,8.683,5.094,12.8-2.213.205-2.671-1.735-4.088-2.021Z" transform="translate(0 -440.88)" fill="#ecb53f"/>
      <path id="Path_25773" data-name="Path 25773" d="M836.675,952.99l1.283-4.279a2.437,2.437,0,0,1,2.984-1.058c3.945,1.805,7.845,3.711,11.72,5.661.937.472.7,1.593.829,2.474-2.086,2.233-3.169,5.047-4.459,7.735a91.216,91.216,0,0,1-7.989,13.768C835.932,969.849,837.588,961.188,836.675,952.99Z" transform="translate(0 -440.88)" fill="#757575"/>
      <path id="Path_25774" data-name="Path 25774" d="M841.071,941.727a33.175,33.175,0,0,0,2.6-4.162c2.947-6.686,5.776-13.425,8.647-20.144a11.418,11.418,0,0,1,1.21-1.7,3.11,3.11,0,0,1,3.838-.668,3.543,3.543,0,0,1,2,3.441,9.406,9.406,0,0,1-.777,3.362q-4.828,10.5-9.811,20.927c-.582,1.224-1.069,2.95-2.735,2.825C843.673,945.432,841.377,944.74,841.071,941.727Z" transform="translate(0 -440.88)" fill="#414141"/>
      <path id="Path_25775" data-name="Path 25775" d="M569.307,1007.147c-.872,1.236-2.253,1.607-3.567,2.082a1.349,1.349,0,0,1-1.816-.513c-1.765-4.194-2.87-8.429-.531-12.828a10.192,10.192,0,0,1,11.1-5.579,16.872,16.872,0,0,1,10.688,6.208c1.084,1.379,1.021,2.294-.559,3.488-1.3.986-2.716,1.829-4.079,2.736-.215.083-.437.253-.644.236-3.425-.284-4.461-6.038-7.7-4.555C569.4,999.7,571.522,1004.545,569.307,1007.147Z" transform="translate(0 -440.88)" fill="#fbc443"/>
      <path id="Path_25776" data-name="Path 25776" d="M569.307,1007.147c-.053-3.067-.174-6.135-.14-9.2.038-3.365,1.388-3.933,4.465-2.149,2.943,1.707,4.709,4.528,6.908,6.944-1.016,1.643-2.673,1.442-4.248,1.476-.957-.85-1.909-1.183-2.846.027Q571.377,1005.693,569.307,1007.147Z" transform="translate(0 -440.88)" fill="#ce8e2e"/>
      <path id="Path_25777" data-name="Path 25777" d="M584.829,1004.043a8.856,8.856,0,0,1-6.867,5.439c-2.922.508-5.128,2-7.581,3.291-2.7,1.417-5.565,2.646-8.247-.182,3.289-.506,6.427-1.335,8.94-3.739.665-.636,1.583-1.529,2.325-1.476C577.662,1007.682,580.95,1004.877,584.829,1004.043Z" transform="translate(0 -440.88)" fill="#615a54"/>
      <path id="Path_25778" data-name="Path 25778" d="M573.446,1004.245c.184-.622.23-1.681.576-1.79,1.407-.444,1.79.8,2.27,1.764Z" transform="translate(0 -440.88)" fill="#eeb53d"/>
      <path id="Path_25779" data-name="Path 25779" d="M660.49,972.406q-.056-1.915-.112-3.83c1.354.963,1.808,3.193,4.065,2.882.571.749,1.175,1.652.537,2.474a2.063,2.063,0,0,1-2.558.43A9.3,9.3,0,0,1,660.49,972.406Z" transform="translate(0 -440.88)" fill="#6b8083"/>
      <path id="Path_25780" data-name="Path 25780" d="M653.3,974.408l5.455-.065c-.588,1.507-2.079,1.769-3.321,2.233C653.349,977.356,653.114,976.019,653.3,974.408Z" transform="translate(0 -440.88)" fill="#515351"/>
      <path id="Path_25781" data-name="Path 25781" d="M670.6,973.638c-.391.184-.788.521-1.17.5s-.731-.392-1.1-.609c.392-.182.79-.518,1.175-.5C669.875,973.045,670.233,973.416,670.6,973.638Z" transform="translate(0 -440.88)" fill="#393534"/>
      <path id="Path_25782" data-name="Path 25782" d="M663.242,967.006a5.91,5.91,0,0,0,1.052.246q0,1.419,0,2.838A2.883,2.883,0,0,1,663.242,967.006Z" transform="translate(0 -440.88)" fill="#6b8083"/>
      <path id="Path_25783" data-name="Path 25783" d="M677.394,952.99a1.107,1.107,0,0,1-.282-1.15l1.318-1.687.273,2.836h-1.31Z" transform="translate(0 -440.88)" fill="#0b0b0c"/>
      <path id="Path_25784" data-name="Path 25784" d="M836.675,952.99c2.432,2.589,2.119,6.149,2.447,9.14.555,5.065,1.553,10.077,1.919,15.161l-1.5,2.749c-4.02.14-4.188-2.9-4.751-5.681-1.176-5.808-1.511-11.6.169-17.371a2.378,2.378,0,0,0,0-1.2Q835.821,954.386,836.675,952.99Z" transform="translate(0 -440.88)" fill="#a9a9a9"/>
      <path id="Path_25785" data-name="Path 25785" d="M834.96,956.988c-.361,6.548,1.613,12.877,1.832,19.375a3.906,3.906,0,0,0,2.75,3.677l-4.268,5.707c-3.066-6.712-2.465-14.1-3.875-21.114Z" transform="translate(0 -440.88)" fill="#7b7b7b"/>
      <path id="Path_25786" data-name="Path 25786" d="M831.4,964.632a15.7,15.7,0,0,1,2.413,8.623c-.1,4.238,2,8.209,1.461,12.491a1.952,1.952,0,0,1-1.423,1.525c-1.676-6.677-3.14-13.386-3.127-20.323Z" transform="translate(0 -440.88)" fill="#9e9e9e"/>
      <path id="Path_25787" data-name="Path 25787" d="M706.716,1260.321c-.286.252-.576.718-.858.713a.835.835,0,0,1-.809-1.271,1.181,1.181,0,0,1,1.073-.408C706.39,1259.434,706.527,1259.982,706.716,1260.321Z" transform="translate(0 -440.88)" fill="#464643"/>
      <path id="Path_25788" data-name="Path 25788" d="M1021.964,1041.256c-4.656,2-9,3.783-13.281,5.728a42.859,42.859,0,0,1-8.618,3.112c-9.069,1.991-13.36.161-17.79-8.248-1.557-.516-2.759.461-3.955,1.095-7.579,4.014-15.714,6.383-23.939,8.644a34.83,34.83,0,0,1-10.525.918,8.645,8.645,0,0,1-8.53-6.289c-.964-2.864-1.784-5.775-2.758-8.955a21.78,21.78,0,0,0-8.948,4.394c-4.941,3.877-10.75,5.842-16.623,7.679a5.356,5.356,0,0,1-6.326-1.914c-.668-.858-.769-1.785.146-2.457a11.97,11.97,0,0,1,3.066-1.735,95.358,95.358,0,0,0,17.74-8.8,59.147,59.147,0,0,1,14.134-6.555c4.487-1.272,7.246.566,7.605,5.322.125,1.65-.036,3.322.1,4.971.279,3.473,2.527,5.3,5.843,4.081,5.551-2.036,11.459-2.831,16.884-5.29,5.373-2.435,11.195-3.8,16.4-6.7a16.474,16.474,0,0,1,3.365-1.1c6.318-1.878,8.166-.747,9.583,6.12.262,1.268.947,1.658,1.86,1.4,5.214-1.5,10.39-3.126,15.589-4.677,2.71-.809,5.528-1.332,8.141-2.375,3.9-1.558,7.279-1.641,10.259,1.833,1.163,1.356,3.01,1.153,4.676,1.2,5.24.146,10.255-1.342,15.357-2.146,5.341-.842,10.549-2.635,16.062-2.116a11.414,11.414,0,0,1,3.422.679,2.292,2.292,0,0,1,1.416,2.889,8.581,8.581,0,0,1-4.331,5.313,66.533,66.533,0,0,1-15.8,6.23c-5.246,1.317-10.409,2.937-15.735,4.039-5.584,1.156-9.682-.247-13.146-4.437C1022.851,1042.58,1022.486,1041.986,1021.964,1041.256Z" transform="translate(0 -440.88)" fill="#3c403b"/>
      <path id="Path_25789" data-name="Path 25789" d="M409.731,1085.284c-2.843,0-5.687-.045-8.529.011a90.075,90.075,0,0,1-20.969-2.552c-2.527-.55-2.769-.4-3.5,2.362-1.466,5.505-3.7,7.072-9.573,7.33-5.738.253-11.211-1.332-16.784-2.153-2.033-.3-3.477-.654-4.936,1.249-2.82,3.678-7.23,4.588-11.374,4.97-5.636.52-11.358.11-17.043.076a3.717,3.717,0,0,1-1.374-.3c-1.136-.475-2.084-1.179-2.054-2.563a2.291,2.291,0,0,1,1.563-2.159c2.447-.822,4.794-2.225,7.48-1.965,3.411.33,6.509-1.027,9.738-1.622a8.55,8.55,0,0,0,6.32-4.125c2.042-3.617,5.906-4.267,9.247-3.916,3.214.338,6.517.869,9.738,1.524,1.6.326,3.1,1.245,4.815.664,2.055-.695,1.506-2.714,2.11-4.151a3.726,3.726,0,0,1,3.183-2.475,19.456,19.456,0,0,1,4.25-.11c4.428.572,8.894,1.048,13.23,2.057a37.193,37.193,0,0,0,7.728.736,84.236,84.236,0,0,1,11.236,1c6.515,1.024,13.215.65,19.829.121a2.114,2.114,0,0,0,1.65-3.181c-1.7-3.644-3.547-7.224-5.282-10.854a25.869,25.869,0,0,1-1.883-4.571,3.9,3.9,0,0,1,3.468-5.128,22.15,22.15,0,0,1,8.463.339c7.488,2.231,15.251,2.746,22.922,3.9,10.226,1.545,20.628,1.782,30.727,4.207,2.064.5,4.115,1.043,6.18,1.532a2.017,2.017,0,0,1,1.713,1.952,2.572,2.572,0,0,1-1.483,2.229,9.213,9.213,0,0,1-5.431,1.327c-5.875-.281-11.854.867-17.6-1.266-9.795.3-19.053-2.861-28.561-4.414-.233-.038-.473-.028-.709-.044-3.626-.237-6.88-2.957-10.744-1.6.4,3.636,2.788,6.435,4.075,9.7a15.478,15.478,0,0,1,.785,1.974c1.36,5.649-1.158,9.184-6.987,9.846a12.681,12.681,0,0,1-1.421.035Q416.838,1085.284,409.731,1085.284Z" transform="translate(0 -440.88)" fill="#3c403b"/>
      <path id="Path_25790" data-name="Path 25790" d="M209.161,725.394c-.1,1.874-.1,3.763-.382,5.61-.07.468-.992,1.07-1.579,1.14a1.745,1.745,0,0,1-2.043-1.478c-.56-2.9.082-3.739,4-5.275Z" transform="translate(0 -440.88)" fill="#444240"/>
      <path id="Path_25791" data-name="Path 25791" d="M188.154,1016.5c-1.223-.013-2.525-1.7-2.656-3.537a1.28,1.28,0,0,1,1.256-1.368,2.9,2.9,0,0,1,3.463,2.514A2.6,2.6,0,0,1,188.154,1016.5Z" transform="translate(0 -440.88)" fill="#43413f"/>
      <path id="Path_25792" data-name="Path 25792" d="M105.3,908.89l1.391-1.456Q105.993,908.16,105.3,908.89Z" transform="translate(0 -440.88)" fill="#555553"/>
      <path id="Path_25793" data-name="Path 25793" d="M799.651,1028.395a17.224,17.224,0,0,1-1.439-6.089,11.453,11.453,0,0,1,12.07-12.455,13.937,13.937,0,0,1,10.04,4.221,7.251,7.251,0,0,1,2.161,5.724c-1.931,2.994-4.438,5-8.228,4.82-1.945-2.834,1.367-3.753,2.025-5.636-1.575-6.014-5.577-4.669-9.6-3.188-2.584,2.177-2.647,4.9-1.7,7.816.5,2.809,4.494,1.545,5.037,4.305C804.927,1033.162,802.971,1033.254,799.651,1028.395Z" transform="translate(0 -440.88)" fill="#93622a"/>
      <path id="Path_25794" data-name="Path 25794" d="M735.555,1022.669c.591-.324,1.207-.953,1.769-.909,1.142.09,2.263.826,3.378.793a8.567,8.567,0,0,1,7.4,3.255c1.366,1.688,3.4,2.427,5.143,3.587,3.052,2.031,5.7,1.493,8.258-.724a9.379,9.379,0,0,0,1.239-1.673c-1.764-1.615-1.521-3.627-1.126-5.672a2.872,2.872,0,0,1,1.367-1.435c1.893,2.518,1.206,5.414.875,8.1-.309,2.506-2.2,4.085-4.733,4.52a11.142,11.142,0,0,1-10.3-3.153c-2.4-2.447-4.9-4.074-8.517-4.059a5.929,5.929,0,0,1-4.748-2.631Z" transform="translate(0 -440.88)" fill="#605b54"/>
      <path id="Path_25795" data-name="Path 25795" d="M736.9,1046.982c2.379.746,5.283.281,6.648,3.1a2.867,2.867,0,0,1,.166,2.663,2.453,2.453,0,0,1-2.29,1.306c-3.117.138-5.878-1.348-8.81-2.053a1.8,1.8,0,0,1-.646-2.878,6.344,6.344,0,0,1,4.932-2.14Z" transform="translate(0 -440.88)" fill="#e2a638"/>
      <path id="Path_25796" data-name="Path 25796" d="M799.651,1028.395c4.215,3.766,5.657,3.515,9.924-1.725a1.359,1.359,0,0,1,.069-1.606c1.209-.945,2.465-1.7,4.078-.995,3.594-.042,5.937-2.649,8.76-4.272.64.527.826,1.288.22,1.781a104.165,104.165,0,0,1-13.592,9.886,9.631,9.631,0,0,1-5.418,1.206c-1.172-.059-2.573.1-3.224-.958A10.959,10.959,0,0,1,799.651,1028.395Z" transform="translate(0 -440.88)" fill="#655c52"/>
      <path id="Path_25797" data-name="Path 25797" d="M761.388,1015.462c1.525,1.119,1.253,2.882,1.592,4.428l-.3-.05c-3.522-.295-1.865-2.452-1.493-4.148Z" transform="translate(0 -440.88)" fill="#92632f"/>
      <path id="Path_25798" data-name="Path 25798" d="M532.164,1029.777c-1.709-2.763-1.719-5.852-1.331-8.866a8.706,8.706,0,0,1,4.957-7.161c2.458-1.224,4.5-.295,6.747.281,2.31.592,3.7,1.883,4.01,4.276-.259.159-.519.317-.776.479-1.416,0-2.861-.5-4.232.244a4.671,4.671,0,0,1-1.607.21,16.331,16.331,0,0,1-2.192-.568,3.879,3.879,0,0,0-1.986.049,3.092,3.092,0,0,0-1.257,1.574c-.13.546-.261,1.063-.36,1.608,1.641,5.381,4.121,6.467,11.708,5.122a7.376,7.376,0,0,1,3.061-.949c1.235.146,2.193.621,2.4,2-1.094,5.309-5.31,4.457-9.015,4.546A19.626,19.626,0,0,1,532.164,1029.777Z" transform="translate(0 -440.88)" fill="#8e5d2c"/>
      <path id="Path_25799" data-name="Path 25799" d="M678.836,992.688c-.063-1.886-.07-3.776-.2-5.657-.244-3.532,1.8-5.781,4.4-7.56a4.252,4.252,0,0,1,5.8.4c-.137.291-.275.581-.405.876-1.006,1.28-2.5,2.1-3.4,3.467-1.894,2.9.917,2.138,2.129,2.635a2.883,2.883,0,0,1,.9,1.813C686.6,993.7,683.531,995.069,678.836,992.688Z" transform="translate(0 -440.88)" fill="#94622c"/>
      <path id="Path_25800" data-name="Path 25800" d="M532.164,1029.777c4.621.6,9.133,2.017,13.908,1.454,2.73-.322,4.4-1.409,4.625-4.261l-.485-.842.79-.567a4.191,4.191,0,0,1,.409,5.231,5.726,5.726,0,0,1-4.427,3.178c-4.769.47-9.422.129-13.62-2.482C532.82,1031.147,532.557,1030.358,532.164,1029.777Z" transform="translate(0 -440.88)" fill="#625b54"/>
      <path id="Path_25801" data-name="Path 25801" d="M678.836,992.688c4.447.713,7.432-.917,8.641-5.391.326-2.691,1.99-4.454,4.1-5.908,1.836,1.417,1.765,3.326.821,5.022a36.841,36.841,0,0,1-4.363,6.283C684.757,996.445,683.584,996.367,678.836,992.688Z" transform="translate(0 -440.88)" fill="#615b55"/>
      <path id="Path_25802" data-name="Path 25802" d="M691.573,981.393c-.118,2.836-2.048,4.414-4.1,5.906l-.411-.337c-1.517-2.669-.073-4.708,1.431-6.735l.338-.357A3.333,3.333,0,0,1,691.573,981.393Z" transform="translate(0 -440.88)" fill="#94622c"/>
      <path id="Path_25803" data-name="Path 25803" d="M529.338,1045.306c-2.96.051-6.024.907-8.713-1.131C523.564,1044.275,526.669,1043.114,529.338,1045.306Z" transform="translate(0 -440.88)" fill="#595754"/>
      <path id="Path_25804" data-name="Path 25804" d="M546.547,1018.306a4.931,4.931,0,0,1,2.841,4.278l-.938.432c-2.257-.81-3.706-1.989-2.082-4.567Z" transform="translate(0 -440.88)" fill="#8e5d2c"/>
      <path id="Path_25805" data-name="Path 25805" d="M549.387,1022.584c1.093.691,1.3,1.859,1.61,2.975l-.311-.013c-2.622.158-2.232-1.242-1.467-2.835Z" transform="translate(0 -440.88)" fill="#8e5d2c"/>
      <path id="Path_25806" data-name="Path 25806" d="M684.4,1002.588c7.081-2.955,13.963-6.264,19.917-11.219.2.4.67.954.546,1.173-3.816,6.781-7.856,13.346-13.805,18.615a58.881,58.881,0,0,0-14.116,19.254c-2.109,4.465-4.725,8.7-7.2,12.98a20.733,20.733,0,0,1-8.285,8.443c-3.775,1.956-7.42,4.391-11.429,5.6a50.406,50.406,0,0,1-13.864,2.111,138.635,138.635,0,0,0-24.484,2.694,45.223,45.223,0,0,1-7.068.263,15.088,15.088,0,0,1,1.118-3.328c3.345-5.407,4.42-11.471,4.643-17.6.37-10.179,10.142-22.439,19.478-24.745,4.115-1.017,8.162-2.075,12.388-2.737,8.132-1.273,16.146-3.331,24.182-5.179a89.942,89.942,0,0,0,17.981-6.329Z" transform="translate(0 -440.88)" fill="#595754"/>
      <path id="Path_25807" data-name="Path 25807" d="M780.105,1066.691l1.184-1.186c4.582-.5,8.134-3.569,12.361-4.966,1.115-.368,2.105-1.1,3.2-1.528,3-1.178,6.1-1.366,8.931.25,11.143,6.361,23.312,10.25,35.2,14.832a14,14,0,0,1,3.8,1.882c2,1.615,5.075,3.136,5.049,5.614-.031,2.877-3.672,3.267-5.916,4.2-6.116,2.545-12.664,3.681-19.1,5.171a60.238,60.238,0,0,1-14.753,1.483c-6.473-.115-12.04-2.049-16.5-6.871a38.878,38.878,0,0,0-11.059-8.75h.026q-.6-.793-1.26-1.529a10.885,10.885,0,0,1-1.164-8.6Z" transform="translate(0 -440.88)" fill="#595754"/>
      <path id="Path_25808" data-name="Path 25808" d="M741.229,1019.727c-.7.011-1.4.075-2.1.018-.767-.063-1.426-.507-1.17-1.322,1.215-3.877,3.709-6.528,7.817-7.18a26.793,26.793,0,0,1,5.616-.009,4.912,4.912,0,0,1,4.5,2.939c1.477,3.677,2.558,7.514,1.646,11.551-.5,2.224-1.4,2.637-3.5,1.807a5.307,5.307,0,0,1-2.886-1.879l-.448-.86a3.691,3.691,0,0,1,.794-1.738c1.936-2.61.977-4.957-1.129-6.662-1.982-1.605-3.885.09-5.7,1.03a16.383,16.383,0,0,0-3.436,2.306Z" transform="translate(0 -440.88)" fill="#f6be41"/>
      <path id="Path_25809" data-name="Path 25809" d="M741.229,1019.727a4.156,4.156,0,0,1,1.93-3.561c1.639-.915,3.312-1.782,5.023-2.552,1.923-.865,3.194-.513,4.1,1.282a37.423,37.423,0,0,1,2.074,5.205c1.1,3.352,1.06,3.367-3.068,4.047-1.976-1.317-2.076-5.06-5.623-4.347Z" transform="translate(0 -440.88)" fill="#ce8f2e"/>
      <path id="Path_25810" data-name="Path 25810" d="M761.192,1015.69c.1,1.525-.175,3.186,1.493,4.148q.028,3.578.056,7.157c-.9-.205-2.169-.244-2.334-1.251C759.849,1022.356,758.825,1018.873,761.192,1015.69Z" transform="translate(0 -440.88)" fill="#b78130"/>
      <path id="Path_25811" data-name="Path 25811" d="M745.671,1019.8a1.751,1.751,0,0,1,2.772-.551c1.671,1.2,2.951,2.655,2.85,4.9l.043-.042a.841.841,0,0,1-1.382-.061l-.027-.008a6.033,6.033,0,0,1-1.313-1.428Q747.145,1021.208,745.671,1019.8Z" transform="translate(0 -440.88)" fill="#ecb43d"/>
      <path id="Path_25812" data-name="Path 25812" d="M748.618,1022.61l1.313,1.428A1.729,1.729,0,0,1,748.618,1022.61Z" transform="translate(0 -440.88)" fill="#ce8f2e"/>
      <path id="Path_25813" data-name="Path 25813" d="M749.955,1024.045q.69.036,1.381.061-.092.773-.186,1.546Q750.549,1024.847,749.955,1024.045Z" transform="translate(0 -440.88)" fill="#ce8f2e"/>
      <path id="Path_25814" data-name="Path 25814" d="M781.273,1075.3l1.261,1.528a1.787,1.787,0,0,1-1.261-1.528Z" transform="translate(0 -440.88)" fill="#413f3d"/>
      <path id="Path_25815" data-name="Path 25815" d="M623.5,984.477a5.842,5.842,0,0,1-3.236,2.6c-1.047.089-2.262-.969-3.018-.072-.318.378,1.363.687,1.744,1.486-1.921,2.264-4.621,1.163-6.962,1.614a5.758,5.758,0,0,1-2.945-2.885c-1.049-2.2-2.923-3.6-4.767-4.963.2-4.112,4.8-3.855,6.382-6.561a1.239,1.239,0,0,1,1.176-.257c2.37,1.969,6.572,1.445,7.314,5.749C619.528,983.167,621.932,983.525,623.5,984.477Z" transform="translate(0 -440.88)" fill="#d1912f"/>
      <path id="Path_25816" data-name="Path 25816" d="M618.99,988.5c-1.636-.008-3.274.022-4.906-.055a1.308,1.308,0,0,1-1.01-.647,1.376,1.376,0,0,1,.4-1.195,17.037,17.037,0,0,1,2.392-1.418c2.245-1.191,3.49-.022,4.4,1.9Q619.625,987.79,618.99,988.5Z" transform="translate(0 -440.88)" fill="#f4bc40"/>
      <path id="Path_25817" data-name="Path 25817" d="M630.615,978.425a10.215,10.215,0,0,1,5.625-1.29,1.091,1.091,0,0,1,1.467-.11,1.343,1.343,0,0,1-.07,1.535c-.859,2.87-1.383,3.37-3.275,3.084C632.445,981.353,630.913,980.6,630.615,978.425Z" transform="translate(0 -440.88)" fill="#6f8386"/>
      <path id="Path_25818" data-name="Path 25818" d="M637.636,978.562a2.1,2.1,0,0,1-.248-1.259c-1.5-2.846.555-3.974,2.493-5.165a5.63,5.63,0,0,1,3.279-.249c1.039.478,1.941,1.042,1.431,2.435l-2.914,2.623a1.194,1.194,0,0,1-.761,1.086,3.273,3.273,0,0,1-1.273.518s-.684.086-.684.086Q638.3,978.582,637.636,978.562Z" transform="translate(0 -440.88)" fill="#050505"/>
      <path id="Path_25819" data-name="Path 25819" d="M640.333,977.18a4.013,4.013,0,0,0,1.343-.238c.819.248,1.974.195,2.071,1.268.039.435-.761,1.078-1.311,1.41-1.454.88-2.585.28-3.479-.989l-.033.016C639.406,978.171,639.857,977.662,640.333,977.18Z" transform="translate(0 -440.88)" fill="#666765"/>
      <path id="Path_25820" data-name="Path 25820" d="M657.836,974.323,645.7,972.589c-5.162-1.26-4.465-2.519.025-3.777a43.231,43.231,0,0,1,10.884-.129l8.764,5.67Q661.6,974.349,657.836,974.323Z" transform="translate(0 -440.88)" fill="#232526"/>
      <path id="Path_25821" data-name="Path 25821" d="M650.612,965.695a2.433,2.433,0,0,1,.967,2.983q-.488-.111-.982-.178Q650.606,967.1,650.612,965.695Z" transform="translate(0 -440.88)" fill="#8dabae"/>
      <path id="Path_25822" data-name="Path 25822" d="M813.725,1024.064l-3.972,1.7c-2.191.265-3.292-4.175-6.063-1.4-2.19-3.847-1.537-7.192,1.777-10.067,5.377-.457,10.825-1.075,12.963,5.756C817.032,1021.6,814.54,1021.854,813.725,1024.064Z" transform="translate(0 -440.88)" fill="#d69932"/>
      <path id="Path_25823" data-name="Path 25823" d="M818.427,1020.053a4.183,4.183,0,0,1-2.861-1.583c-2.387-3.344-2.9-3.509-7.639-2.551-1.5.3-1.98-.575-2.464-1.622,6.585-2.884,10.191-2.014,13.5,3.334A1.786,1.786,0,0,1,818.427,1020.053Z" transform="translate(0 -440.88)" fill="#eeb83f"/>
      <path id="Path_25824" data-name="Path 25824" d="M803.688,1024.364c.062-.463.093-.933.193-1.387.148-.668.152-1.522.572-1.936.514-.507,1.273-.058,1.77.419a13.6,13.6,0,0,1,3.528,4.307,6.092,6.092,0,0,1-.176.9c-.427.122-.865.218-1.28.375C804.725,1028.395,804.732,1028.4,803.688,1024.364Z" transform="translate(0 -440.88)" fill="#f6bd41"/>
      <path id="Path_25825" data-name="Path 25825" d="M546.4,1028.375c-1.147,1.5-2.8,1.539-4.4,1.312a44.352,44.352,0,0,1-4.67-1.163c-5.571-1.424-6.137-2.667-4.03-8.872.964.317,1.223,2.048,1.664,1.886C541.682,1019.062,543.86,1023.993,546.4,1028.375Z" transform="translate(0 -440.88)" fill="#c98a2d"/>
      <path id="Path_25826" data-name="Path 25826" d="M546.4,1028.375c-2.6-1.224-4.07-3.728-6.181-5.508-1.976-1.667-2.388-1.671-4.608.289-.338.3-.568.717-.9,1.018-.15.134-.44.114-.877.209-.178-1.591-.354-3.161-.531-4.731q.193-.587.386-1.172a4.632,4.632,0,0,1,1.441-1.281l2.62-.138a13.052,13.052,0,0,0,1.541,1.127,4.052,4.052,0,0,0,1.189.453c4.046,1.358,6.853,3.785,7.2,8.336Q547.036,1027.671,546.4,1028.375Z" transform="translate(0 -440.88)" fill="#f3bb40"/>
      <path id="Path_25827" data-name="Path 25827" d="M547.673,1026.973l-7.2-8.338c.316-.336.9-.665.906-1.01.047-1.664.654-2.177,2.117-1.222.982.641,1.914,1.36,2.868,2.044a4.466,4.466,0,0,0,2.853,4.263,2.953,2.953,0,0,0,1.467,2.835l.01,1.423Q549.185,1026.973,547.673,1026.973Z" transform="translate(0 -440.88)" fill="#a66f28"/>
      <path id="Path_25828" data-name="Path 25828" d="M535.125,1017.2l-1.441,1.281a1.5,1.5,0,0,1,1.441-1.28Z" transform="translate(0 -440.88)" fill="#c98a2d"/>
      <path id="Path_25829" data-name="Path 25829" d="M539.286,1018.188l-1.54-1.128Q538.515,1017.621,539.286,1018.188Z" transform="translate(0 -440.88)" fill="#a66f28"/>
      <path id="Path_25830" data-name="Path 25830" d="M688.494,980.225c.88,2.533-.991,4.483-1.43,6.736-.9.713-1.786,1.447-2.705,2.135-.567.423-1.306.752-1.86.2a3.261,3.261,0,0,1-.811-1.771,5.572,5.572,0,0,1,1.622-4.4C684.666,981.51,686.114,980.03,688.494,980.225Z" transform="translate(0 -440.88)" fill="#d49b35"/>
      <path id="Path_25831" data-name="Path 25831" d="M611.264,984.888a3.581,3.581,0,0,1-2.685-2.035,1.484,1.484,0,0,1,.422-1.869,3.238,3.238,0,0,1,1.138-.8c1.246-.424,2.378-1.747,3.845-.683a1.573,1.573,0,0,1,.558,1.2C614.368,982.443,612.619,984.588,611.264,984.888Z" transform="translate(0 -440.88)" fill="#f6be40"/>
      <path id="Path_25832" data-name="Path 25832" d="M640.333,977.18l-1.408,1.466a1.806,1.806,0,0,1,1.408-1.466Z" transform="translate(0 -440.88)" fill="#191a19"/>
      <path id="Path_25833" data-name="Path 25833" d="M812.01,1019.056a10.293,10.293,0,0,1-1.157,1.393,1.206,1.206,0,0,1-1.828-.115,1.31,1.31,0,0,1,.114-1.847,3.5,3.5,0,0,1,1.743-.941C811.645,1017.445,812.153,1017.953,812.01,1019.056Z" transform="translate(0 -440.88)" fill="#fac242"/>
    </g>
    <g id="Layer_2" data-name="Layer 2">
      <path id="Path_25834" data-name="Path 25834" d="M615.778,376.559,642.087,494.45l9.325-2.332L626.1,372.563Z" fill="#8dabae" stroke="#000" stroke-width="2.609"/>
      <path id="Path_25835" data-name="Path 25835" d="M682.957,967.038l-7.835-32.253a7.111,7.111,0,0,0-8.346-5.286l-39.653,8.178a7.52,7.52,0,0,0-5.763,9.246l9.061,35.095a3.183,3.183,0,0,0,3.842,2.3l3.256-.8a3.183,3.183,0,0,0,2.309-3.938l-7.514-27.244a3.183,3.183,0,0,1,2.545-3.987l1.564-.261a3.183,3.183,0,0,1,3.623,2.415l6.436,27.525a3.183,3.183,0,0,0,3.762,2.389l1.664-.354a3.183,3.183,0,0,0,2.452-3.773l-5.975-28.243a3.183,3.183,0,0,1,2.618-3.8l.062-.01a3.183,3.183,0,0,1,3.6,2.452l6.074,27.264a3.183,3.183,0,0,0,4.122,2.325l1.94-.652a3.183,3.183,0,0,0,2.085-3.744L662.5,944.614a3.183,3.183,0,0,1,2.766-3.892h0a3.184,3.184,0,0,1,3.418,2.379l6.721,26.356a3.183,3.183,0,0,0,4.806,1.891l1.371-.882a3.184,3.184,0,0,0,1.372-3.428Z" transform="translate(0 -440.88)" fill="#8dabae" stroke="#000" stroke-width="2.609"/>
      <path id="Path_25836" data-name="Path 25836" d="M626.625,816.581l-10.985,2.791a1.5,1.5,0,0,1-1.79-1.038A136.782,136.782,0,0,1,609.44,801.6c-1.212-7.311-4.866-14.4-3.64-18.222s14.122-6.825,15.318-2.742,1.033,7.948,2.021,9.764,2.836,12.057,2.832,15.768S629.4,815.525,626.625,816.581Z" transform="translate(0 -440.88)" fill="#2e3030" stroke="#000" stroke-width="2.451"/>
      <line id="Line_26" data-name="Line 26" x2="23.645" y2="108.899" transform="translate(623.992 380.167)" fill="none" stroke="#b4d4d6" stroke-width="2.451"/>
    </g>
  </g>
</svg>
