<svg xmlns="http://www.w3.org/2000/svg" width="56.35" height="92.642"><path d="M56.337 47.866c.3 9.379-4.51 16.2-11 22.278a50.63 50.63 0 0 1-12.159 8.392c-5.312 2.646-10.735 5.071-16.854 4.853-4.69-.167-8.355-2.313-9.239-7.449-.589-3.423.7-6.441 2.384-9.252 1.975-3.3 4.4-6.322 5.6-10.055 1.777-5.5 2.695-11.114 1.161-16.775-.806-2.975-2.521-5.655-3.946-8.412-2.071-4.006-4.824-7.616-6.79-11.682-1.419-2.934-2.825-5.905-3.069-9.2-.254-3.433.933-6.648 5.4-9.035 3.537-1.892 7.3-1.742 11.118-1.065 5.2.92 9.5 3.645 13.57 6.747a66.72 66.72 0 0 1 9.6 8.539c3.646 4.1 7.318 8.191 9.916 13.067a42.151 42.151 0 0 1 4.3 19.051z" fill="#f1e1d5"/><path d="M8.505 92.622c-2.715.032-5.15-.293-7.027-2.314A4.39 4.39 0 0 1 .412 85.23a4.783 4.783 0 0 1 4.806-2.375 11.46 11.46 0 0 1 4.891 1.7l3.252 2.145c2.194 1.321 1.793 4.031-.7 5.291a8.24 8.24 0 0 1-4.156.631z" fill="#c47a42"/><path d="M14.16.684c5.859-.24 10.671 1.889 15.1 4.9a72.737 72.737 0 0 1 21.67 22.541c2.989 4.946 4.023 10.507 4.739 16.165 1.387 10.97-3.594 19.07-11.359 26.054a55.55 55.55 0 0 1-20.233 11.3 21.3 21.3 0 0 1-9.339.967c-5.8-.708-8.625-6.22-6.6-11.743a27.76 27.76 0 0 1 3.472-6.445 33.361 33.361 0 0 0 5.866-17.227c.44-5.943-1.932-10.9-4.609-15.89-2.7-5.032-6.224-9.6-8.3-14.986-.965-2.507-1.9-5.029-1.5-7.762.623-4.241 4.73-7.559 9.6-7.875.607-.032 1.212.001 1.493.001z" fill="#c1773f"/><path d="M6.353 85.697a13.7 13.7 0 0 1 4.8 1.676c1.4.733 1.323 2.247-.072 3.076-2.061 1.224-6.755-.064-7.907-2.172-.847-1.54.145-2.596 3.179-2.58z" fill="#f4cc5c"/><path d="M47.149 30.421a8.92 8.92 0 0 1 1.668 3.284 41.23 41.23 0 0 1 2.52 12.887c.415 6.261-1.948 11.655-6.051 16.212A49.528 49.528 0 0 1 20.638 77.68a10.68 10.68 0 0 1-5.472.272c-2.687-.684-3.706-1.966-3.3-4.675a17.03 17.03 0 0 1 3.542-8.433c3.57-4.429 5.233-9.653 5.974-15.276a25.58 25.58 0 0 0-2.6-15.645c-2.646-5.065-5.594-9.953-8.6-14.807a31.63 31.63 0 0 1-2.946-6.882c-1.667-5.062 2.376-7.409 5.828-7.658 6.479-.468 11.727 2.339 16.523 6.218a65.46 65.46 0 0 1 7.4 6.387 85.777 85.777 0 0 1 9.514 11.776c.343.424.569.931.658 1.469a.69.69 0 0 1-.974-.508c-.173-.525-.343 0-.5-.055-1.465-1.377-2.084-3.332-3.351-4.855-.924-1.111-1.688-2.355-2.721-3.382a3.26 3.26 0 0 1-.275-.358c-1.571-1.773-2.907-3.762-4.833-5.2a3.032 3.032 0 0 1-.356-.26 10.88 10.88 0 0 0-1.629-1.4 3.036 3.036 0 0 1-.351-.257 6.889 6.889 0 0 0-2.4-1.84 57.488 57.488 0 0 0-6.3-4.063 13.444 13.444 0 0 0-7.307-1.2c-4.543.473-7.851 5.345-4.627 9.916a10.88 10.88 0 0 0 2.519 2.969c.408.281.864.553 1.359.258.477-.316.654-.931.418-1.452a15.77 15.77 0 0 1-.815-3.319c-.112-2.1.944-3.165 3.055-3.032a7.32 7.32 0 0 1 3.409 1.029c4.885 2.991 8.844 7.016 12.567 11.3a2.27 2.27 0 0 1 .6 1.145.903.903 0 0 1-.231.7c-.883.1-1.216-.622-1.641-1.15a53.382 53.382 0 0 0-10.27-9.537 9.06 9.06 0 0 0-3.94-1.9c-1.645-.25-2.237.355-1.992 2.013.12.818.561 1.535.74 2.334a2.865 2.865 0 0 1-.633 3.032 2.134 2.134 0 0 1-2.856.238 11.88 11.88 0 0 1-4.883-7.3c-1.026-5.345 3.843-9.556 9.556-8.5a21.754 21.754 0 0 0-6.748.045c-2.9.7-4.159 2.461-3.638 5.385a18.54 18.54 0 0 0 2.795 7.413 131.044 131.044 0 0 1 9.2 15.807 25.2 25.2 0 0 1 2.428 14.124 35.01 35.01 0 0 1-4.992 15.056c-1.216 1.98-2.98 3.6-3.706 5.917a15.233 15.233 0 0 0-.909 4.625c.008 1.79.713 2.574 2.479 2.855a4.86 4.86 0 0 0 .651.059 46.82 46.82 0 0 0 3.824-.051c-1.792-.449-3.353-1.092-4.134-2.906-.936-2.173.245-4.164 2.593-4.209a19.73 19.73 0 0 0 5.009-.534c2.578-.717 5.545 1.16 4.109 4.823a13.65 13.65 0 0 0 2.995-1.308 43.15 43.15 0 0 0 13.882-10.458c3.863-4.238 6.466-9.2 5.971-15.239-.092-1.12.325-2.269-.2-3.363a11.52 11.52 0 0 1-.894-4.406 1.35 1.35 0 0 0 .284-1.478c-.015-.165-.207.119 0 .059.064-.018.1.023.093.124-.019.306.078.64-.208.886-.937-.362-.9-1.165-.9-1.957.487-1.805-.74-3.168-1.248-4.71-.218-.667-.683-1.259-.084-1.93z" fill="#f5ce5d"/><path d="M9.85 90.282a4 4 0 0 1-3.458-.261c-.606-.308-1.156-.684-1.095-1.466a1.587 1.587 0 0 1 1.263-1.349 3.93 3.93 0 0 1 3.583.47c.97.989.767 1.845-.293 2.606z" fill="#fde7a8"/><path d="M9.85 90.282a2.4 2.4 0 0 0 .293-2.605c.612.294 1.589.522 1.462 1.233a2.04 2.04 0 0 1-1.755 1.372z" fill="#f5ce5e"/><path d="M50.413 43.843c.2-.1.307 0 .324.178.845 8.717-2.208 15.722-8.88 21.42a53.085 53.085 0 0 1-9.969 7.213l-4.193 2.119a.957.957 0 0 1-.77.047c-.364-.222-.142-.656 0-.865a2.42 2.42 0 0 0-.291-3.5 3.457 3.457 0 0 0-3.96-.452 7.43 7.43 0 0 1-3.864.282 2.45 2.45 0 0 0-2.977 1.992c-.349 1.338.5 2.371 1.439 3.224s2.337.793 3.529 1.646a11.978 11.978 0 0 1-6.923-.1c-1.3-.474-1.8-2.1-1.361-4.3a17.142 17.142 0 0 1 3.748-8.117c2.656-3.088 3.927-6.98 4.983-10.862a30.76 30.76 0 0 0 1.019-9.013 26.613 26.613 0 0 0-2.987-11.018c-3.017-6.15-7.087-11.689-10.12-17.817a16.45 16.45 0 0 1-1.611-5.251c-.446-3.537 1.885-4.734 4.45-5.36a13.631 13.631 0 0 1 7.307.687 25.072 25.072 0 0 0-3.677.029 7.29 7.29 0 0 0-6.253 5.25c-.894 2.944.392 5.52 2.326 7.75.641.739 1.387 1.387 2.073 2.088a1.773 1.773 0 0 0 2.114.341 1.876 1.876 0 0 0 1.175-1.8 5.465 5.465 0 0 0-.492-2.211c-.528-1.228-1.1-2.689-.044-3.614 1.154-1.011 2.708-.342 3.978.3a28.554 28.554 0 0 1 5.571 3.937 44.82 44.82 0 0 1 7.782 8.066 2.06 2.06 0 0 0 .522.381 1.26 1.26 0 0 1 .809.506 35.45 35.45 0 0 1 8.186 19.014 30.19 30.19 0 0 1-.023 6.807c-.1.949-.232 2.116 1.049 2.432a2.336 2.336 0 0 0 2.629-1.5 22.62 22.62 0 0 0 2.922-8.409 2.14 2.14 0 0 1 .46-1.52z" fill="#f6cf5a"/><path d="M34.39 25.849a55.7 55.7 0 0 0-12.559-11.748 7.363 7.363 0 0 0-4.286-1.328c-1.477.02-2.152.74-2.143 2.241a8.524 8.524 0 0 0 .73 3.15c.363.9.575 1.814-.336 2.517-.886.685-1.635.009-2.16-.515-1.808-1.805-3.473-3.709-3.8-6.437-.474-3.921 3.242-6.989 6.8-7.22 4.5-.291 8.11 1.606 11.538 4.147l1.949 1.465c.88.518 1.423 1.432 2.3 1.957.738.445 1.223 1.193 1.961 1.638 2.056 1.56 3.471 3.723 5.23 5.562 3.161 3.885 6.116 7.928 7.918 12.635a38.024 38.024 0 0 1 2.523 10.575c.24 3.043-1.112 5.718-2.371 8.378a5.18 5.18 0 0 1-1.2 1.922 2.325 2.325 0 0 1-2.389.644 1.673 1.673 0 0 1-1.012-2.15 23.75 23.75 0 0 0-.334-10.008c-1.015-4.812-2.564-9.409-5.615-13.382-.997-1.29-1.85-2.683-2.744-4.043z" fill="#feeab0"/><path d="M21.609 76.245c-1.635-.176-3.3-.44-4.518-1.8a2.213 2.213 0 0 1-.407-2.707 2.037 2.037 0 0 1 2.368-1.029c1.446.163 2.909.076 4.325-.257 1.22-.171 2.453-.354 3.171.955.767 1.4-.143 2.434-1.015 3.305a5.843 5.843 0 0 1-3.924 1.533z" fill="#fee9ae"/><path d="M34.391 25.849a33.248 33.248 0 0 1 6.208 9.649 46.5 46.5 0 0 1 3.24 13.2 13.487 13.487 0 0 1-.478 3.69c-.157 1.079-.538 2.335.839 2.792 1.252.417 2.105-.381 2.766-1.469a17.95 17.95 0 0 0 1.582-15.774 47.992 47.992 0 0 0-8.529-15.8 3.8 3.8 0 0 1-.406-.859c2.388 2 3.822 4.719 5.458 7.284q.385.6.766 1.21a15.68 15.68 0 0 1 2.948 7.2 3.12 3.12 0 0 0 .648 1.966c.093.07.125.142.1.214s-.059.11-.089.11l.977 4.582c.125 3.776-1.395 7.075-3.074 10.305a3.049 3.049 0 0 1-1.985 1.575 1.838 1.838 0 0 1-2.469-1.722 33.34 33.34 0 0 1 .306-3.71 35.424 35.424 0 0 0-1.9-11.618 25.43 25.43 0 0 0-3.166-6.891c-1.226-1.769-2.565-3.464-3.739-5.275q-.008-.331-.003-.659z" fill="#f4d178"/><path d="M48.781 36.971a62.895 62.895 0 0 0-2.947-7.2c.061-.206-.017-.651.4-.2.28.308.613.568.921.85v-.007c-.068 1.472 1.016 2.534 1.375 3.858.235.895 1.009 1.718.251 2.699z" fill="#f6cf5a"/><g fill="#f4d178"><path d="M39.61 21.28c-2.031-1.583-3.453-3.739-5.23-5.562.825.023 1.238.682 1.667 1.2 1.196 1.448 2.737 2.616 3.563 4.362zm-7.19-7.2c-1.1-.256-1.648-1.169-2.3-1.957 1.128.225 1.66 1.157 2.3 1.957zM34.381 15.718c-.964-.175-1.438-.936-1.961-1.638.98.156 1.445.932 1.961 1.638z"/></g><path d="m49.436 39.26-.006-.324v-.937c.295.437.492.874.006 1.261z" fill="#f6cf5a"/><path d="M42.313 62.136a2.507 2.507 0 0 1-2.339-2.264 3.1 3.1 0 0 1 2.354-2.566 2.887 2.887 0 0 1 2.475 2.385 3.14 3.14 0 0 1-2.49 2.445z" fill="#feeaaf"/></svg>