<svg xmlns="http://www.w3.org/2000/svg" width="56.35" height="92.642" viewBox="0 0 56.35 92.642">
  <g id="Right_Arrow" data-name="Right Arrow" transform="translate(0 0)">
    <path id="Path_5884" data-name="Path 5884" d="M1664.212,245.412c.3,9.379-4.51,16.2-11,22.278a50.63,50.63,0,0,1-12.159,8.392c-5.312,2.646-10.735,5.071-16.854,4.853-4.69-.167-8.355-2.313-9.239-7.449-.589-3.423.7-6.441,2.384-9.252,1.975-3.3,4.4-6.322,5.6-10.055,1.777-5.5,2.695-11.114,1.161-16.775-.806-2.975-2.521-5.655-3.946-8.412-2.071-4.006-4.824-7.616-6.79-11.682-1.419-2.934-2.825-5.905-3.069-9.2-.254-3.433.933-6.648,5.4-9.035,3.537-1.892,7.3-1.742,11.118-1.065,5.2.92,9.5,3.645,13.57,6.747a66.707,66.707,0,0,1,9.6,8.539c3.646,4.1,7.318,8.191,9.916,13.067a42.154,42.154,0,0,1,4.3,19.051Z" transform="translate(-1607.875 -197.546)" fill="#f1e1d5"/>
    <path id="Path_5885" data-name="Path 5885" d="M1613.269,397.464c-2.715.032-5.15-.293-7.027-2.314a4.391,4.391,0,0,1-1.066-5.078,4.784,4.784,0,0,1,4.806-2.375,11.458,11.458,0,0,1,4.891,1.7c1.087.709,2.132,1.471,3.252,2.145,2.194,1.321,1.793,4.031-.7,5.291A8.24,8.24,0,0,1,1613.269,397.464Z" transform="translate(-1604.764 -304.842)" fill="#c47a42"/>
    <path id="Path_5898" data-name="Path 5898" d="M1622.781,199.091c5.859-.24,10.671,1.889,15.1,4.9a72.725,72.725,0,0,1,21.67,22.541c2.989,4.946,4.023,10.507,4.739,16.165,1.387,10.97-3.594,19.07-11.359,26.054a55.55,55.55,0,0,1-20.233,11.3,21.3,21.3,0,0,1-9.339.967c-5.8-.708-8.625-6.22-6.6-11.743a27.76,27.76,0,0,1,3.472-6.445,33.357,33.357,0,0,0,5.866-17.227c.44-5.943-1.932-10.9-4.609-15.89-2.7-5.032-6.224-9.6-8.3-14.986-.965-2.507-1.9-5.029-1.5-7.762.623-4.241,4.73-7.559,9.6-7.875C1621.895,199.058,1622.5,199.091,1622.781,199.091Z" transform="translate(-1608.621 -198.407)" fill="#c1773f"/>
    <path id="Path_5899" data-name="Path 5899" d="M1614.852,394.27a13.7,13.7,0,0,1,4.8,1.676c1.4.733,1.323,2.247-.072,3.076-2.061,1.224-6.755-.064-7.907-2.172C1610.826,395.31,1611.818,394.254,1614.852,394.27Z" transform="translate(-1608.499 -308.573)" fill="#f4cc5c"/>
    <path id="Path_5905" data-name="Path 5905" d="M1660.781,233.829a8.917,8.917,0,0,1,1.668,3.284A41.231,41.231,0,0,1,1664.969,250c.415,6.261-1.948,11.655-6.051,16.212a49.534,49.534,0,0,1-24.648,14.876,10.678,10.678,0,0,1-5.472.272c-2.687-.684-3.706-1.966-3.3-4.675a17.028,17.028,0,0,1,3.542-8.433c3.57-4.429,5.233-9.653,5.974-15.276a25.577,25.577,0,0,0-2.6-15.645c-2.646-5.065-5.594-9.953-8.6-14.807a31.628,31.628,0,0,1-2.946-6.882c-1.667-5.062,2.376-7.409,5.828-7.658,6.479-.468,11.727,2.339,16.523,6.218a65.458,65.458,0,0,1,7.4,6.387,85.717,85.717,0,0,1,9.514,11.776,3.153,3.153,0,0,1,.658,1.469.688.688,0,0,1-.974-.508c-.173-.525-.343,0-.5-.055-1.465-1.377-2.084-3.332-3.351-4.855-.924-1.111-1.688-2.355-2.721-3.382a3.262,3.262,0,0,1-.275-.358c-1.571-1.773-2.907-3.762-4.833-5.2a3.127,3.127,0,0,1-.356-.26,10.882,10.882,0,0,0-1.629-1.4,3.105,3.105,0,0,1-.351-.257,6.884,6.884,0,0,0-2.4-1.84,57.483,57.483,0,0,0-6.3-4.063,13.445,13.445,0,0,0-7.307-1.2c-4.543.473-7.851,5.345-4.627,9.916a10.874,10.874,0,0,0,2.519,2.969c.408.281.864.553,1.359.258a1.165,1.165,0,0,0,.418-1.452,15.772,15.772,0,0,1-.815-3.319c-.112-2.1.944-3.165,3.055-3.032a7.321,7.321,0,0,1,3.409,1.029c4.885,2.991,8.844,7.016,12.567,11.3a2.268,2.268,0,0,1,.6,1.145.905.905,0,0,1-.231.7c-.883.1-1.216-.622-1.641-1.15a53.393,53.393,0,0,0-10.27-9.537,9.061,9.061,0,0,0-3.94-1.9c-1.645-.25-2.237.355-1.992,2.013.12.818.561,1.535.74,2.334a2.865,2.865,0,0,1-.633,3.032,2.134,2.134,0,0,1-2.856.238,11.878,11.878,0,0,1-4.883-7.3c-1.026-5.345,3.843-9.556,9.556-8.5a21.754,21.754,0,0,0-6.748.045c-2.9.7-4.159,2.461-3.638,5.385a18.54,18.54,0,0,0,2.795,7.413,131.023,131.023,0,0,1,9.2,15.807,25.2,25.2,0,0,1,2.428,14.124,35.009,35.009,0,0,1-4.992,15.056c-1.216,1.98-2.98,3.6-3.706,5.917a15.245,15.245,0,0,0-.909,4.625c.008,1.79.713,2.574,2.479,2.855a4.86,4.86,0,0,0,.651.059c1.254.031,2.507.023,3.824-.051-1.792-.449-3.353-1.092-4.134-2.906-.936-2.173.245-4.164,2.593-4.209a19.736,19.736,0,0,0,5.009-.534c2.578-.717,5.545,1.16,4.109,4.823a13.652,13.652,0,0,0,2.995-1.308,43.151,43.151,0,0,0,13.882-10.458c3.863-4.238,6.466-9.2,5.971-15.239-.092-1.12.325-2.269-.2-3.363a11.519,11.519,0,0,1-.894-4.406,1.348,1.348,0,0,0,.284-1.478c-.015-.165-.207.119,0,.059.064-.018.1.023.093.124-.019.306.078.64-.208.886-.937-.362-.9-1.165-.9-1.957.487-1.805-.74-3.168-1.248-4.71C1660.647,235.092,1660.182,234.5,1660.781,233.829Z" transform="translate(-1613.632 -203.408)" fill="#f5ce5d"/>
    <path id="Path_5906" data-name="Path 5906" d="M1621.471,400.507a4,4,0,0,1-3.458-.261c-.606-.308-1.156-.684-1.095-1.466a1.587,1.587,0,0,1,1.263-1.349,3.929,3.929,0,0,1,3.583.47C1622.734,398.89,1622.531,399.746,1621.471,400.507Z" transform="translate(-1611.621 -310.225)" fill="#fde7a8"/>
    <path id="Path_5907" data-name="Path 5907" d="M1627.376,401.419a2.4,2.4,0,0,0,.293-2.605c.612.294,1.589.522,1.462,1.233A2.038,2.038,0,0,1,1627.376,401.419Z" transform="translate(-1617.526 -311.137)" fill="#f5ce5e"/>
    <path id="Path_5909" data-name="Path 5909" d="M1664.889,247.945c.2-.1.307,0,.324.178.845,8.717-2.208,15.722-8.88,21.42a53.077,53.077,0,0,1-9.969,7.213c-1.392.718-2.785,1.433-4.193,2.119a.954.954,0,0,1-.77.047c-.364-.222-.142-.656,0-.865a2.422,2.422,0,0,0-.291-3.5,3.456,3.456,0,0,0-3.96-.452,7.43,7.43,0,0,1-3.864.282,2.452,2.452,0,0,0-2.977,1.992c-.349,1.338.5,2.371,1.439,3.224s2.337.793,3.529,1.646a11.974,11.974,0,0,1-6.923-.1c-1.3-.474-1.8-2.1-1.361-4.3a17.144,17.144,0,0,1,3.748-8.117c2.656-3.088,3.927-6.98,4.983-10.862a30.761,30.761,0,0,0,1.019-9.013,26.624,26.624,0,0,0-2.987-11.018c-3.017-6.15-7.087-11.689-10.12-17.817a16.452,16.452,0,0,1-1.611-5.251c-.446-3.537,1.885-4.734,4.45-5.36a13.634,13.634,0,0,1,7.307.687,25.064,25.064,0,0,0-3.677.029,7.289,7.289,0,0,0-6.253,5.25c-.894,2.944.392,5.52,2.326,7.75.641.739,1.387,1.387,2.073,2.088a1.773,1.773,0,0,0,2.114.341,1.875,1.875,0,0,0,1.175-1.8,5.465,5.465,0,0,0-.492-2.211c-.528-1.228-1.1-2.689-.044-3.614,1.154-1.011,2.708-.342,3.978.3a28.556,28.556,0,0,1,5.571,3.937,44.82,44.82,0,0,1,7.782,8.066,2.06,2.06,0,0,0,.522.381,1.258,1.258,0,0,1,.809.506,35.452,35.452,0,0,1,8.186,19.014,30.189,30.189,0,0,1-.023,6.807c-.1.949-.232,2.116,1.049,2.432a2.337,2.337,0,0,0,2.629-1.5,22.621,22.621,0,0,0,2.922-8.409A2.139,2.139,0,0,1,1664.889,247.945Z" transform="translate(-1614.476 -204.102)" fill="#f6cf5a"/>
    <path id="Path_5910" data-name="Path 5910" d="M1651.839,231.792a55.7,55.7,0,0,0-12.559-11.748,7.363,7.363,0,0,0-4.286-1.328c-1.477.02-2.152.74-2.143,2.241a8.517,8.517,0,0,0,.73,3.15c.363.9.575,1.814-.336,2.517-.886.685-1.635.009-2.16-.515-1.808-1.805-3.473-3.709-3.8-6.437-.474-3.921,3.242-6.989,6.8-7.22,4.5-.291,8.11,1.606,11.538,4.147.653.484,1.3.977,1.949,1.465.88.518,1.423,1.432,2.3,1.957h0c.738.445,1.223,1.193,1.961,1.638h0c2.056,1.56,3.471,3.723,5.23,5.562h0c3.161,3.885,6.116,7.928,7.918,12.635a38.037,38.037,0,0,1,2.523,10.575c.24,3.043-1.112,5.718-2.371,8.378a5.181,5.181,0,0,1-1.2,1.922,2.325,2.325,0,0,1-2.389.644,1.674,1.674,0,0,1-1.012-2.15,23.752,23.752,0,0,0-.334-10.008c-1.015-4.812-2.564-9.409-5.615-13.382C1653.586,234.545,1652.733,233.152,1651.839,231.792Z" transform="translate(-1617.449 -205.943)" fill="#feeab0"/>
    <path id="Path_5911" data-name="Path 5911" d="M1647.607,364.907c-1.635-.176-3.3-.44-4.518-1.8a2.213,2.213,0,0,1-.407-2.707,2.037,2.037,0,0,1,2.368-1.029,12.667,12.667,0,0,0,4.325-.257c1.22-.171,2.453-.354,3.171.955.767,1.4-.143,2.434-1.015,3.305A5.844,5.844,0,0,1,1647.607,364.907Z" transform="translate(-1625.998 -288.662)" fill="#fee9ae"/>
    <path id="Path_5912" data-name="Path 5912" d="M1683.7,250.964a33.254,33.254,0,0,1,6.208,9.649,46.5,46.5,0,0,1,3.24,13.2,13.476,13.476,0,0,1-.478,3.69c-.157,1.079-.538,2.335.839,2.792,1.252.417,2.105-.381,2.766-1.469a17.95,17.95,0,0,0,1.582-15.774,47.987,47.987,0,0,0-8.529-15.8,3.8,3.8,0,0,1-.406-.859c2.388,2,3.822,4.719,5.458,7.284q.385.6.766,1.21a15.678,15.678,0,0,1,2.948,7.2,3.119,3.119,0,0,0,.648,1.966c.093.07.125.142.1.214s-.059.11-.089.11q.488,2.291.977,4.582c.125,3.776-1.395,7.075-3.074,10.305a3.046,3.046,0,0,1-1.985,1.575,1.837,1.837,0,0,1-2.469-1.722,33.338,33.338,0,0,1,.306-3.71,35.436,35.436,0,0,0-1.9-11.618,25.429,25.429,0,0,0-3.166-6.891c-1.226-1.769-2.565-3.464-3.739-5.275Q1683.695,251.292,1683.7,250.964Z" transform="translate(-1649.309 -225.115)" fill="#f4d178"/>
    <path id="Path_5913" data-name="Path 5913" d="M1712.928,272.581a62.906,62.906,0,0,0-2.947-7.2c.061-.206-.017-.651.4-.2.28.308.613.568.921.85l0-.007c-.068,1.472,1.016,2.534,1.375,3.858C1712.912,270.777,1713.686,271.6,1712.928,272.581Z" transform="translate(-1664.147 -235.61)" fill="#f6cf5a"/>
    <path id="Path_5914" data-name="Path 5914" d="M1688.917,239.189c-2.031-1.583-3.453-3.739-5.23-5.562.825.023,1.238.682,1.667,1.2C1686.55,236.275,1688.091,237.443,1688.917,239.189Z" transform="translate(-1649.307 -217.909)" fill="#f4d178"/>
    <path id="Path_5915" data-name="Path 5915" d="M1676.21,227.332c-1.1-.256-1.648-1.169-2.3-1.957C1675.038,225.6,1675.57,226.532,1676.21,227.332Z" transform="translate(-1643.79 -213.252)" fill="#f4d178"/>
    <path id="Path_5916" data-name="Path 5916" d="M1681.148,231.506c-.964-.175-1.438-.936-1.961-1.638C1680.167,230.024,1680.632,230.8,1681.148,231.506Z" transform="translate(-1646.767 -215.788)" fill="#f4d178"/>
    <path id="Path_5917" data-name="Path 5917" d="M1718.241,286.038c0-.108,0-.216-.006-.324v-.937C1718.53,285.214,1718.727,285.651,1718.241,286.038Z" transform="translate(-1668.805 -246.778)" fill="#f6cf5a"/>
    <path id="Path_5919" data-name="Path 5919" d="M1698.868,333.923a2.506,2.506,0,0,1-2.339-2.264,3.1,3.1,0,0,1,2.354-2.566,2.887,2.887,0,0,1,2.475,2.385A3.141,3.141,0,0,1,1698.868,333.923Z" transform="translate(-1656.555 -271.787)" fill="#feeaaf"/>
  </g>
</svg>
