<svg xmlns="http://www.w3.org/2000/svg" viewBox="0 0 229.2 68"><path d="M69 22.7h5v18.1h11.3v4.5H69V22.7zm19.6 0h5.2v4.6h-5.2v-4.6zm.1 7.8h4.9v14.9h-4.9V30.5zm9.7-7.8h5.2v4.6h-5.2v-4.6zm.1 7.8h4.9v14.9h-4.9V30.5zm10.1-7.8h9.3c5.4 0 8.7 3.2 8.7 7.8v.1c0 5.2-4.1 8-9.2 8h-3.8v6.8h-5V22.7zm8.9 11.4c2.5 0 4-1.5 4-3.4v-.1c0-2.2-1.6-3.4-4-3.4h-3.9v6.9h3.9zm12.7-11.4h10.4c2.9 0 5.1.8 6.6 2.3 1.3 1.3 1.9 3 1.9 5.2v.1c0 3.5-1.8 5.8-4.5 6.9l4.9 8.2h-5.7l-4.2-7.3h-4.4v7.3h-5V22.7zm10.1 11c2.4 0 3.8-1.3 3.8-3.2v-.1c0-2.1-1.5-3.2-3.9-3.2h-5v6.5h5.1zm12.9-11h5.2v4.6h-5.2v-4.6zm.2 7.7h4.9v14.9h-4.9V30.4zm10-7.7h4.6l10.6 14v-14h4.9v22.7h-4.2l-11-14.4v14.4h-4.9V22.7zm30.9 4.6h-6.9v-4.6h18.8v4.6h-6.9v18.1h-5V27.3zM24.9 25.9l-3.3 5.7 9.8 17h19.7l3.2-5.7H34.7zm3.3-5.7 3.2 5.7H38l3.2-5.7h-6.5l-3.3-5.6z"/><path d="m41.2 20.2 3.3 5.7h6.6l3.2-5.7h-6.5l-3.3-5.6zm-6.5 11.4 3.3 5.6h6.5l3.3-5.6h-6.6L38 25.9zM47.8 31.6l3.3 5.6h6.5l3.3-5.6h-6.6l-3.2-5.7z"/></svg>