<?xml version="1.0" encoding="utf-8"?>
<!-- Generator: Adobe Illustrator 25.1.0, SVG Export Plug-In . SVG Version: 6.00 Build 0)  -->
<svg version="1.1" xmlns="http://www.w3.org/2000/svg" xmlns:xlink="http://www.w3.org/1999/xlink" x="0px" y="0px"
	 viewBox="0 0 229.2 68" style="enable-background:new 0 0 229.2 68;" xml:space="preserve">
<g id="Ebene_13">
	<g>
		<path d="M69,22.7h5v18.1h11.3v4.5H69V22.7z"/>
		<path d="M88.6,22.7h5.2v4.6h-5.2V22.7z M88.7,30.5h4.9v14.9h-4.9V30.5z"/>
		<path d="M98.4,22.7h5.2v4.6h-5.2V22.7z M98.5,30.5h4.9v14.9h-4.9V30.5z"/>
		<path d="M108.6,22.7h9.3c5.4,0,8.7,3.2,8.7,7.8v0.1c0,5.2-4.1,8-9.2,8h-3.8v6.8h-5V22.7z M117.5,34.1c2.5,0,4-1.5,4-3.4v-0.1
			c0-2.2-1.6-3.4-4-3.4h-3.9v6.9H117.5z"/>
		<path d="M130.2,22.7h10.4c2.9,0,5.1,0.8,6.6,2.3c1.3,1.3,1.9,3,1.9,5.2v0.1c0,3.5-1.8,5.8-4.5,6.9l4.9,8.2h-5.7l-4.2-7.3h-4.4v7.3
			h-5V22.7z M140.3,33.7c2.4,0,3.8-1.3,3.8-3.2v-0.1c0-2.1-1.5-3.2-3.9-3.2h-5v6.5H140.3z"/>
		<path d="M153.2,22.7h5.2v4.6h-5.2V22.7z M153.4,30.4h4.9v14.9h-4.9V30.4z"/>
		<path d="M163.4,22.7h4.6l10.6,14v-14h4.9v22.7h-4.2l-11-14.4v14.4h-4.9V22.7z"/>
		<path d="M194.3,27.3h-6.9v-4.6h18.8v4.6h-6.9v18.1h-5V27.3z"/>
	</g>
</g>
<g id="Ebene_12">
	<polygon points="24.9,25.9 21.6,31.6 31.4,48.6 51.1,48.6 54.3,42.9 34.7,42.9 	"/>
	<polygon points="28.2,20.2 31.4,25.9 38,25.9 41.2,20.2 34.7,20.2 31.4,14.6 	"/>
	<polygon points="41.2,20.2 44.5,25.9 51.1,25.9 54.3,20.2 47.8,20.2 44.5,14.6 	"/>
	<polygon points="34.7,31.6 38,37.2 44.5,37.2 47.8,31.6 41.2,31.6 38,25.9 	"/>
	<polygon points="47.8,31.6 51.1,37.2 57.6,37.2 60.9,31.6 54.3,31.6 51.1,25.9 	"/>
	<g>
	</g>
	<g>
	</g>
	<g>
	</g>
	<g>
	</g>
	<g>
	</g>
	<g>
	</g>
</g>
</svg>
