<svg xmlns="http://www.w3.org/2000/svg" xmlns:xlink="http://www.w3.org/1999/xlink" width="2499.539" height="4543.809"><style>.B{stroke:#000}.C{stroke-miterlimit:10}.D{fill:none}.E{stroke-width:6.317}.F{stroke-width:6.311}.G{fill:#4a423c}.H{fill:#100f10}.I{fill:#635a54}.J{stroke-width:6.259}.K{fill:#2a1e1f}.L{fill:#1f2021}.M{stroke-width:7.502}.N{fill:#f6e3ce}.O{fill:#aec0cc}.P{stroke-width:6.173}.Q{fill:#8495a5}.R{fill:#020202}.S{fill:#171718}.T{fill:#341b1c}.U{fill:#3e3732}.V{fill:#848d94}.W{fill:#aab5bd}.X{stroke-width:5.527}.Y{stroke-width:6.357}</style><defs><path id="C" d="M2169.921 2198.784c-11.229 13.7-21.086 5.571-33.317-3.02L361.471 632.91c-16.248-14.5-23.5-41.868-10.858-57.294 14.842-18.108 39.686-12.2 55.935 2.3l1755.937 1582.889c12.129 15.458 18.665 24.279 7.436 37.979z"/><path id="D" d="M2040.309 2324.189c14.029-10.837 6.156-20.893-2.111-33.333L522.008 476.59c-14.07-16.612-41.275-24.6-57.068-12.4-18.537 14.319-13.3 39.275.769 55.887l1536.778 1795.668c15.141 12.511 23.781 19.279 37.822 8.444z"/><path id="E" d="M1423.865 1193.276 282.363 2358.547l-197.235 58 508.405-498.98 778.9-764.35 7.891-7.688z"/><path id="F" d="m1917.056 591.099 36.588 13.507 11.128 37.127-32.828-15.8z"/><path id="G" d="M575.952 2316.372s375.166 179.725 633.365 179.725 571.726-129.1 645.5-165.984c0 0-36.885-387.3-276.642-627.054 0 0-140.393 154.283-369.892 146.3s-367.82-155.523-367.82-155.523-175.2 165.98-267.418 627.057"/><path id="H" d="m704.035 1648.064 26.713-63.544c92.527 136.213 260.066 281.507 491.329 272.43 304.853-11.971 452.574-262.146 453.288-263.359l36.996 45.391-60.418 15.84c-.006 0 0 9.047 0 9.052 78.1 178.74 64.55 371.157 64.55 371.157 249.775-36.326 615.686 3.541 430.667-604.917s-693.815-626.619-693.815-626.619-209.165-10.554-444.041 0c-213.349 9.587-573.552 90.815-777.071 681.114s497.571 550.426 497.571 550.426c-27.664-217.262 30.349-354.244 46.107-362.1.008 0 .009-9.051 0-9.052l-71.871-15.8h-.006z"/><path id="I" d="m1035.57 1700.132-260.771-35.685c-13.491 6.623-82.348 227.832-57.645 370.571 102.96 2.1 213.332-3.257 299.1-9.7 3.152-99.195 10.08-213.369 19.316-325.186z"/><path id="J" d="M1709.158 2029.459a24.168 24.168 0 0 1 1.6-6.989 50.56 50.56 0 0 1-1.079-11.845c.082-13.093 1.646-26.118 1.776-39.205l-.728-46.146-6.327-51.643c-5.353-39.389-11-79.032-21.245-117.486l-11.49-40.534q-.819-2.913-1.6-5.836-9.02-26.471-19.626-53.554l-262.048 38.515c9.219 115.9 14.344 233.806 17.2 329.087 87.742 6.787 196.657 12.295 303.634 10.047q-.037-2.215-.067-4.411z"/><path id="K" d="M1349.073 599.077c-2.63-9.983-8.626-18.576-15.528-26.114a65.54 65.54 0 0 0-10.268-9.133c-3.518-2.51-9.791-6.723-14.326-6.593-2.594.075-5.659 2.086-7.992 3.035q-3.467 1.4-6.991 2.666-8.99 3.254-18.209 5.809-7.8 2.172-15.73 3.875c-5.6 1.214-7.706 5.042-10.278 9.971a53.373 53.373 0 0 0-5.9 30.474c1 9.041 4.115 19.788 10.818 26.349 6.973 6.825 18.835 5.665 27.853 5.528a129.4 129.4 0 0 0 29.4-3.577 79.46 79.46 0 0 0 29.348-13.812c8.588-6.633 9.914-18.472 7.8-28.477-1.33-6.3-10.984-3.635-9.655 2.662 1.186 5.612.975 12.808-3.283 17.151-4.164 4.249-10.824 7.276-16.269 9.45-11.33 4.521-23.593 6.24-35.718 6.552-5.874.152-12.571.654-18.334-.626-6.553-1.455-9.215-9.764-10.777-15.526-3.651-13.469-.3-27.076 7.847-38.177l-2.993 2.3a254.07 254.07 0 0 0 51.585-16.3l-3.857.506c14.583 4.995 27.87 19.779 31.8 34.667 1.645 6.227 11.306 3.587 9.657-2.66z"/><path id="L" d="M1163.836 607.088a58.852 58.852 0 0 0-15.228-25.77c-3.46-3.44-9.733-2.471-14.3-2.788q-9.639-.669-19.267-1.489l-16.793-1.531q-5.082-.569-10.133-1.366c-2.47-.395-5.868-1.669-8.346-.985-3.6.993-7.237 5.888-9.458 8.663a54.55 54.55 0 0 0-7.636 12.691 52.814 52.814 0 0 0-3.879 27.89c1.214 9.1 4.626 20.444 12.2 26.342 7.251 5.646 19.232 4.394 27.921 4.17a125.617 125.617 0 0 0 29.328-3.945 78.786 78.786 0 0 0 27.8-13.41c8.585-6.633 9.914-18.47 7.8-28.477-1.33-6.3-10.985-3.635-9.655 2.662 1.347 6.373.778 14.077-4.725 18.326a62.71 62.71 0 0 1-17.05 9.1c-12.55 4.507-25.922 5.889-39.19 5.766-6.425-.058-14.575 1.025-18.593-4.944-3.956-5.875-5.969-13.484-6.29-20.495-.642-13.98 5.69-27.062 16.3-35.986l-4.871 1.288c21.282 3.89 43.125 5.1 64.694 6.373l-3.541-1.467c5.845 6.46 11.013 13.493 13.265 22.026 1.635 6.244 11.296 3.603 9.647-2.644z"/><path id="M" d="M1458.294 384.4c-59.191 21.631-147.385 28.689-247.954 28.689-106.223 0-191.187-4.929-250-28.689-235.342 95.853-553.797 212.721-516.912 212.604 322.749-1.025 756.666-18.955 756.666-18.955s432.893-8.709 747.445 17.93c23.365 1.979-262.961-115.574-489.245-211.579z"/></defs><use xlink:href="#C" fill="#b58d68" class="B C M"/><path d="m600.21 839.853 10.642-13.333 30.66-38.4-19-17.126-41.491 51.962zm38.167 34.052 10.644-13.329 30.66-38.4-19-17.129-41.49 51.962zm38.168 34.054 10.644-13.329 30.66-38.4-19-17.129-41.488 51.962z" fill="#7f5b42"/><g class="B C M"><use xlink:href="#C" class="D"/><use xlink:href="#D" fill="#b58d68"/></g><path d="m722.675 720.504-13.637 10.258-39.282 29.553-16.63-19.432 53.162-39.99zm33.044 39.022-13.637 10.258-39.285 29.552-16.63-19.432 53.162-39.992zm33.052 39.02-13.638 10.258-39.281 29.552-16.629-19.432 53.162-39.99z" fill="#7f5b42"/><use xlink:href="#D" class="B C D M"/><path d="M1991.398 613.248a119.64 119.64 0 0 0 18.75 13.319c6.455 3.791 14.14 5.84 19.672 4.2 6.763-1.844 9.734-7.79 12.91-13.627 3.177-6.557 6.763-13.319 5.43-22.029a45.779 45.779 0 0 0-8.093-18.238 186.89 186.89 0 0 0-51.537-53.791c-16.5-11.169-36.476-20.082-50.2-14.037-6.353 2.561-10.553 8.4-14.038 14.549a18.032 18.032 0 0 0-2.875 10.964c1.127 8.194 9.632 15.984 11.065 24.279" fill="#192223"/><path d="M1930.016 559.15c.41 2.664 5.225 2.152 5.43-.922a54.158 54.158 0 0 0-5.839-12.3 28.69 28.69 0 0 1-5.636-12.6c0-4.406 3.073-9.221 5.738-13.115a22.33 22.33 0 0 1 10.554-9.119c7.377-3.177 16.388-1.127 23.672 1.434a95.94 95.94 0 0 1 24.381 13.422 185.986 185.986 0 0 1 41.5 40.162 112.853 112.853 0 0 1 15.267 24.9c3.381 9.734-.41 18.648-5.123 27.459a27.77 27.77 0 0 1-7.48 9.017 17.37 17.37 0 0 1-13.217.3c-9.938-3.073-18.238-10.246-26.23-16.6-2.254-1.844-5.226 1.946-2.665 3.894 9.632 7.479 20.184 16.389 32.992 18.136a20.05 20.05 0 0 0 13.934-4.1 37.53 37.53 0 0 0 8.4-12.3 68.5 68.5 0 0 0 5.226-13.832 27.24 27.24 0 0 0-1.947-15.369 117.553 117.553 0 0 0-17.316-27.152 181.65 181.65 0 0 0-47.75-43.341c-13.934-8.915-36.885-19.263-52.152-6.967a33.806 33.806 0 0 0-8.914 10.861c-2.356 4.2-4.713 8.093-4.1 13.217 1.332 9.323 9.631 15.68 11.271 25z"/><g class="B C X"><path d="m1384.418 1118.265 553.8-569.369a27.07 27.07 0 0 1 37.7-.41l30.123 29.1c10.339 10.242 10.567 26.879.512 37.4l-553.687 569.889c-10.411 10.255-27.069 10.436-37.7.41l-30.021-29.1c-10.547-10.323-10.866-27.196-.716-37.91z" fill="#9ddae0"/><use xlink:href="#E" fill="#efefef"/></g><path d="m1944.576 557.22-3.844 3.909-10.946 11.128-17.378 17.667-22.872 23.254-27.82 28.279-31.708 32.25-35.157 35.743-37.482 38.109-39.4 40.061-40.168 40.837-40.551 41.227-39.771 40.433-38.6 39.252-36.292 36.9-33.56 34.12-29.732 30.228-25.417 25.848-20.091 20.426-14.184 14.421-7.37 7.492-.922.937c-6.942 7.057 3.918 17.933 10.867 10.867l3.844-3.909 10.945-11.128 17.378-17.668 22.87-23.257 27.82-28.279 31.719-32.247 35.156-35.752 37.484-38.109 39.4-40.061 40.168-40.837 40.551-41.226 39.771-40.433 38.6-39.252 36.292-36.9 33.56-34.12 29.732-30.228 25.42-25.843 20.091-20.426 14.184-14.42 7.369-7.492.921-.937c6.942-7.057-3.918-17.933-10.867-10.867z" fill="#daeff2"/><path d="m1997.751 580.974-8.093-8.709-589.974 588.732 18.546 18.032c10.397 9.927 26.815 9.745 36.989-.41l542.934-560.865c9.926-10.318 9.744-26.689-.41-36.783z" fill="#79b2b2"/><g fill="#192223"><use xlink:href="#F"/><path d="m1882.733 625.423 36.588 13.508 11.128 37.127-32.828-15.8z"/><use xlink:href="#F" x="-68.652" y="68.648"/><use xlink:href="#F" x="-102.972" y="102.973"/><path d="m1779.76 728.395 36.588 13.508 11.128 37.127-32.828-15.8zm-32.274 37.397 36.588 13.508 11.128 37.127-32.828-15.8zm-29.202 32.275 36.588 13.508L1766 848.702l-32.828-15.8z"/><use xlink:href="#F" x="-236.169" y="239.243"/><use xlink:href="#F" x="-272.543" y="275.615"/><path d="m1609.165 898.99 36.592 13.508 11.128 37.127-32.828-15.8zm-29.201 37.397 36.588 13.51 11.128 37.127-32.828-15.8zm-35.349 32.276 36.588 13.512 11.128 37.127-32.828-15.8z"/><use xlink:href="#F" x="-409.839" y="419.06"/><path d="m1478.017 1042.435 36.588 13.507 11.128 37.135-32.828-15.811zm-36.373 32.271 36.588 13.514 11.128 37.127-32.828-15.806zm-35.349 36.373 36.588 13.511 11.128 37.127-32.828-15.81z"/></g><path d="m500.371 2135.716 915.606-941.517-39.859-40.984-982.857 991.894c35.647-3.678 71.355-6.976 107.11-9.393zm-137.882 40.447-31.3 31.584 118.631-20.058 21.538-22.147c-36.33 2.973-72.615 6.683-108.869 10.621zm-64.699 65.286-118.28 119.374 101.435-18.442h18.444l117.931-121.269-119.53 20.337z" fill="#c1c1c1"/><g class="B C"><use xlink:href="#E" class="D X"/><use xlink:href="#G" class="E N"/></g><path d="m932.676 2449.997-36.89-414.966h64.55l119.88 442.626z" fill="#ba9889"/><path d="M1790.269 2081.143s-497.954 18.442-571.725-55.329c0 0-156.763 73.771-525.619 46.107 0 0 92.213-202.87 507.176-184.423s590.168 193.645 590.168 193.645z" fill="#12212b"/><g class="B C E"><use xlink:href="#G" class="D"/><path d="m931.957 2027.595 83.709 496.169s405.741 110.657 839.146-193.649c0 0-18.442-368.855-295.084-590.168s-748.38 31.226-627.771 287.648z" class="N"/></g><path d="M1790.264 2081.132s-497.955 18.442-571.726-55.329c0 0-202.87 73.771-571.725 46.106 0 0 73.771-248.978 553.283-184.422 271.164 36.5 441.165 65.464 525.619 110.657 43.759 23.412 64.549 82.988 64.549 82.988z" fill="#ba9889"/><g class="B C"><path d="m1024.892 1961.256 145.686 582.742a6.66 6.66 0 0 1-5.933 8.263c-18.521 1.427-69.649 2.35-148.974-19.279l-92.217-553.284" class="D E"/><path d="M800.942 1750.846s-339.875 331.97-513.763 363.584l55.329 86.945s165.984-23.712 497.954-387.3m804.889-63.229s339.88 331.97 513.764 363.584l-55.329 86.945s-165.984-23.712-497.954-387.3" fill="#593928" stroke-width="5.414"/><g class="E"><path fill="#fff" d="m1716.492 1638.511 175.207-18.442"/><path d="M775.911 1647.726s-50.5-38.958-73.769-147.538m922.137 156.759s50.505-38.967 73.771-147.542" class="D"/></g><g class="J"><use xlink:href="#H" fill="#a08a6f"/><path d="m1218.535 1247.465 322.755-425.477c-111.894-44.184-322.749-27.157-322.749-27.157s207.211-10.554-27.664 0c-51.129 2.3-231.262 10.611-295.084 27.157 157.187 195.844 322.742 425.477 322.742 425.477z" fill="#593726"/></g></g><g fill="#7a5c4b"><path d="M674.474 1389.526s147.542 239.76 525.619 230.534 553.281-239.759 553.281-239.759-110.656 497.954-562.5 414.962-451.844-156.751-516.4-405.737z"/><path d="M1683.818 1573.962c0-9.221 15.665-56.218 55.329-175.206 18.442-55.328 73.771-27.664 18.442 101.435 0 0 92.213-36.886 147.542-36.886s0 36.885-64.55 64.55c0 0 175.206-27.664 202.87 9.221s-64.55 9.221-147.542 36.885-101.436 55.329-101.436 55.329l-82.992 9.221zm-954.01 0c0-9.221-15.665-56.218-55.328-175.206-18.443-55.328-73.771-27.664-18.443 101.435 0 0-92.213-36.886-147.542-36.886s0 36.885 64.55 64.55c0 0-175.206-27.664-202.87 9.221s64.55 9.221 147.542 36.885 101.44 55.33 101.44 55.33l82.992 9.221z"/></g><path d="M711.363 1527.853s387.3 110.657 986.687 0c0 0-138.321 368.855-488.733 368.855s-497.954-368.855-497.954-368.855z" fill="#223749" class="B C E"/><path d="m1686.905 1550.378 1.931-4.377c-57.772 13.219-162.362 34.221-292.512 47.446-173.581 17.64-427.293 24.436-675.733-37.576a70.61 70.61 0 0 1 7.517 6.373c5.991 5.969 8.568 13.37 12.046 20.55a5.66 5.66 0 0 1 .146.223c97.677 22.606 202.545 36.742 312.8 42.1q50.967 2.475 103.432 2.475a2401.15 2401.15 0 0 0 242.752-12.608 2505.395 2505.395 0 0 0 270.845-42.534c5.416-7.464 11.577-14.475 16.776-22.072zm-30.888 67.074a71.66 71.66 0 0 0 3.339-7.35 32.585 32.585 0 0 1 2.415-12.012 2484.165 2484.165 0 0 1-265.455 41.459c-165.23 16.793-403.067 23.752-639.85-29.1a281.58 281.58 0 0 1 15.165 25.556c88.661 18.6 182.905 30.423 281.463 35.212q50.966 2.475 103.432 2.475a2401.18 2401.18 0 0 0 242.752-12.608 2521.3 2521.3 0 0 0 253.855-38.94q1.46-2.335 2.884-4.692zm-259.697 68.209c-157.217 15.977-380.167 23.056-605.4-21.824q1.306 1.687 2.591 3.39c5.5 7.308 10.672 14.877 15.965 22.357 77.492 14.326 158.959 23.635 243.621 27.748q50.967 2.475 103.432 2.475a2401.43 2401.43 0 0 0 242.743-12.608c82.024-8.353 154.028-19.774 210.774-30.432 4.229-9.834 12.113-18.4 20.19-24.707l.4-.3c.2-.419.422-.834.631-1.252-59.407 11.845-140.429 25.543-234.947 35.153z" fill="#d7eeff"/><path d="M727.758 1709.202s-184.428-46.107-304.3-27.664-129.1-138.321 27.664-101.435 119.88 55.329 119.88 55.329l156.763 18.442z" fill="#b7a692"/><path d="M1716.493 2025.812s525.618 46.107 479.512-359.634c0 0-55.329 304.3-479.512 267.42zm-1005.134 7.162s-553.28 20.5-507.173-385.244c0 0 82.992 329.92 507.176 293.035z" fill="#7b5d48"/><g class="B C"><g class="D"><path d="M772.053 1642.672s-50.016-69.764-74.114-150.974m931.177 158.41s50.666-39.091 74.007-148.013M700.678 1642.663s-107.054-21.96-225.091-5.49m1286.419-3.107s107.054-21.96 225.091-5.49" stroke-width="6.337"/><path d="M609.927 1620.068s-73.771-73.769-230.534-55.327" class="E"/><use xlink:href="#H" class="J"/></g><path d="m1922.204 1025.717-58.169-40.784 46.107-9.052" fill="#223749" class="J"/><path d="M1449.076 794.832c-36.088 194.852-231.059 320.376-239.469 325.713-13.261-8.492-195.226-133.522-230.822-325.713 0 0-391.911 65.984-507.176 162.228l10.616 28.427c46.093 123.406 114.051 273.361 156.395 398.056 46.107 135.789 79.92 187.653 193.649 362.1l404.716-4.311v-.072l350.415 4.093c113.73-174.451 147.542-226.315 193.649-362.1 42.34-124.7 110.3-274.65 156.394-398.055l10.616-28.427c-115.276-96.242-498.983-161.939-498.983-161.939z" class="J N"/></g><path d="M905.011 858.201s57.085 244.42 304.452 353.052c0 0 209.309-72.421 294.938-344" stroke="#493228" class="C D Y"/><path d="m656.034 1410.414 119.88 172s-73.771-217.262-36.885-208.209 147.542 244.42 165.984 244.42-82.992-162.948-36.886-162.948 147.542 108.631 156.764 144.841 9.221-81.474 73.771-72.421 221.313-45.263 239.759-9.052-9.221 81.474 27.664 72.42 129.1-162.946 165.985-144.841 0 90.526-9.221 135.789 82.992-99.578 129.1-199.157 64.55 54.316-9.221 181.052l138.321-208.22s-119.88 371.157-276.641 416.419-661.014-19.949-711.071-98.573c-92.221-144.834-137.303-263.52-137.303-263.52z" fill="#cebba7"/><g class="C"><path d="M951.123 1736.303s-119.88-72.42-202.871-325.894m221.306 262.525c0-18.108-119.88-208.209-73.771-190.1s119.88 217.261 119.88 217.261m451.849 36.208s119.88-72.42 202.87-325.894m-221.309 262.525c0-18.108 119.88-208.209 73.771-190.1s-119.882 217.268-119.882 217.268" stroke="#493228" class="D Y"/><g class="B E"><path d="m757.47 1620.069 64.55 119.88h793.038v-27.664l55.329-110.658s-617.831 119.876-912.917 18.442z" fill="#593928"/><path d="M1827.15 1610.845s73.771-73.771 230.534-55.329" class="D"/><g fill="#784e36"><use xlink:href="#I"/><use xlink:href="#J"/></g></g></g><path d="M1015.67 2022.916v-101.437s-212.092 8.194-295.084-19.467v129.1zm396.518 0v-101.437s212.092 8.194 295.084-19.467v129.1z" fill="#593726"/><g class="B C"><g class="D E"><use xlink:href="#I"/><use xlink:href="#J"/></g><path d="M1477.231 652.849c.5-8.487.036-17 .335-25.493.3-8.514 3.013-16.709 1.854-25.274a139.77 139.77 0 0 1 20.648-12.472c90.115-45.058 117.148 45.057 81.1 90.115s-108.138 18.023-108.138 18.023-.744-.744-1.95-2.124c3.955-13.896 5.311-28.369 6.151-42.775zm-527.346-2.022c-.5-8.487-.036-17-.335-25.493-.3-8.514-3.013-16.709-1.854-25.274a139.78 139.78 0 0 0-20.647-12.473c-90.115-45.058-117.148 45.058-81.1 90.115s108.139 18.022 108.139 18.022.744-.744 1.95-2.124c-3.957-13.895-5.313-28.367-6.153-42.773z" class="F O"/><path d="m894.01 622.635 36.046 18.023-36.046 18.018m648.832-36.041-36.056 18.022 36.056 18.019" class="D P"/><g class="F O"><path d="M1370.09 813.078c0-62.779-42.482-128.135-101.776-152.986a131.224 131.224 0 0 0-50.886-10.42c-31.384 0-60.556 11.608-84.814 30.288-40.914 31.506-67.851 83.131-67.851 133.121 0 79.63 68.351 124.959 152.665 124.959s152.662-45.335 152.662-124.962z"/><path d="M947.46 574.087s-46.86 271.787 271.787 271.787 262.42-281.159 262.42-281.159-37.487-187.439-253.043-187.439S966.195 480.368 947.46 574.087z"/></g></g><path d="M1070.996 827.027s193.649 55.329 295.084-9.221c0 0-9.221 64.55-147.542 64.55s-147.542-55.329-147.542-55.329z" class="Q"/><path d="M1181.652 707.147s9.221 36.886 46.107 18.442-46.107-18.442-46.107-18.442z" fill="#868fa8"/><g class="B C F"><g class="O"><path d="M1015.79 2014.441s186.184 0 195.493-65.165c10.614-74.3 39.305-520.282 2.069-529.59s-85.851 17.584-132.4 278.242h-46.546s-18.614 195.493-18.614 316.513"/><path d="M1404.407 2014.064s-183.816.389-193.123-64.777c-10.614-74.3-37.237-521.315 0-530.625s93.1 18.614 139.643 279.272l37.237-6.207s25.561 229.239 16.252 322.331"/></g><path d="M1347.638 1776.826s9.221-9.221 0-92.213m-263.324-18.44s-9.221 9.221 0 92.213" fill="#ef709b"/><path d="M1236.981 1924.37s9.221 46.107 82.992 55.329m-304.306-.001s101.435 0 110.657-18.442" class="D"/></g><path d="M1402.961 2007.367s-165.985 27.663-193.649-55.329c0 0-27.664 64.55-184.428 55.329v-64.553s110.657 36.886 129.1-101.435 9.227-405.745 46.112-405.745c58.321 0-36.885 553.283 202.871 534.84z" class="Q"/><g class="B C P"><path d="M1375.301 670.263s36.885 0 27.664 27.664" fill="#bfabd3"/><path d="M1218.093 663.908s-40.452-18.564-44.886 17.23 40.834 23.369 40.834 23.369m143.891 4.708s-12.633 47.924-97.797 52.124" class="D"/></g><path d="M1344.25 600.409c-1.784-7.494-6.1-14.149-10.972-20.113a62.58 62.58 0 0 0-14.588-13.542 42.258 42.258 0 0 0-9.734-4.508q-4.935 2.226-10.05 4.181a262.03 262.03 0 0 1-40.339 11.611 48.24 48.24 0 0 0-4.462 52c1.761 3.366 4.093 6.677 7.556 8.241a20.03 20.03 0 0 0 7.106 1.333c25.1 1.493 52.219-1.44 71.477-17.587 4.744-5.904 5.769-14.231 4.006-21.616z" fill="#fcfcfc"/><use xlink:href="#K"/><path d="M1159.013 608.414c-1.785-7.494-6.1-14.149-10.972-20.113q-1.725-2.11-3.579-4.121c-12.862-.74-25.72-1.807-38.528-2.908-8.34-.717-16.654-1.753-24.836-3.288-17.859 14.553-22.976 39.682-12.23 60.06 1.761 3.366 4.093 6.677 7.556 8.241a20.03 20.03 0 0 0 7.106 1.333c25.1 1.493 52.219-1.44 71.475-17.587 4.746-5.9 5.77-14.229 4.008-21.617z" fill="#fcfcfc"/><use xlink:href="#L"/><g fill="#111" stroke-width="5.924" class="B"><circle cx="1312.42" cy="605.393" r="25.353"/><circle cx="1133.239" cy="612.819" r="25.353"/></g><path d="M1285.826 514.012c-6.622 5.092-13.289 10.225-18.832 16.475s-9.956 13.758-11.255 22.01a3.16 3.16 0 0 0 .031 1.57c.464 1.273 2.159 1.472 3.512 1.4 6.778-.349 13.415-2.007 19.929-3.894 3.952-1.143 7.961-2.414 11.285-4.839a18.9 18.9 0 0 0-2.518-32.083" class="R"/><path d="M1283.305 509.687c-10.953 8.428-22.447 17.26-28.594 30.017-2.235 4.637-6.2 12.848-2.7 17.653 3.531 4.856 10.972 2.949 15.95 2.089 12.427-2.149 27.5-5.631 33.153-18.253 5.166-11.543.244-24.725-10.594-30.863-5.615-3.181-10.666 5.463-5.058 8.646 7.081 4.011 10.074 12.639 5.665 19.8-4.518 7.341-16.193 9.153-24.014 10.676-.555.108-7.831 1.06-7.826 1.012q1.6 3.17 1.775.91.266-1.214.647-2.408a39.58 39.58 0 0 1 6.439-12.06c5.551-7.305 13-13.024 20.211-18.575 5.036-3.875.055-12.577-5.058-8.646z"/><path d="M1146.313 513.434a90.02 90.02 0 0 0-47.548 22.705c-1.315 1.214-2.7 3-1.9 4.6a4.204 4.204 0 0 0 2.805 1.764 75.78 75.78 0 0 0 22.395 2.926 42.42 42.42 0 0 0 14.993-2.637 22.69 22.69 0 0 0 11.525-9.619c3.223-5.789 3.059-12.791 2.809-19.412" class="R"/><path d="M1144.985 508.605a94.95 94.95 0 0 0-38.263 14.93c-4.617 3.115-11.33 7.157-14.017 12.23-3.087 5.831 1.135 10.259 6.552 11.812 12.976 3.719 29.25 4.888 41.737-1.073 13.323-6.36 15.883-19.221 15.408-32.743-.228-6.425-10.241-6.455-10.015 0 .339 9.575-.115 19.028-9.763 23.751-9.15 4.481-21.406 3.44-31.041 1.315-.9-.2-2.793-1.072-3.667-.91q-1.745-.8-.259.754.436 1.754 1.271.443c1.568-.415 3.932-3.372 5.287-4.4a86.04 86.04 0 0 1 39.43-16.46c6.347-1 3.652-10.648-2.662-9.655z"/><use xlink:href="#L"/><use xlink:href="#K"/><path d="M1316.899 836.247s241.713-76.271 147.542-313.527c-12.192-30.716-43.033-73.771-79.92-101.435 0 0-66.424 3.564-21.517 46.107 58.408 55.329 156.77 239.757-46.105 368.855z" class="Q"/><path d="M1080.213 817.805c6.757 6.272-230.534-92.214-92.214-341.191 0 0 46.107-27.664 27.664 27.664s-64.546 193.649 64.55 313.527z" fill="#c7cfdd"/><g class="B C"><g class="D"><path d="M948.792 576.136s-46.86 271.787 271.787 271.787 262.415-281.159 262.415-281.159-37.487-187.435-253.043-187.435-262.403 103.086-281.159 196.807z" class="P"/><path d="M1211.281 1949.278c9.307 65.164 193.123 64.777 193.123 64.777 9.307-93.093-16.252-322.331-16.252-322.331l-37.229 6.21c-46.546-260.658-102.4-288.586-139.638-279.276a5.36 5.36 0 0 0-.981.363m109.662 560.678c-73.771-9.221-82.992-55.329-82.992-55.329m-23.626-504.673q-1.518-.378-3.05-.671c-35.779 16.916-9.538 456.626.981 530.261" class="F"/></g><g fill="#9a86b2" class="F"><path d="M1084.314 1679.547v-13.374s-4.131 4.137-4.1 31.766h.738q1.683-9.399 3.362-18.392zm-68.647 300.151h.56v-.092zM1016.233 1979.607v.092c8.01-.032 101.271-.792 110.1-18.441"/></g></g><g fill="#444a52"><path d="M1302.696 670.237c-2.541-.211-2.32-.64-3.087-1.017-.245-.164-.7-.569-.952-.784l-.414-.681c-1.229-2.927-.649-6.335.26-7.379 1.517-1.612.5-.841 3.713-1.7 1.113-.5 2.582-1.329 2.687-2.623-1.609-4.361-8.105-2.344-10.255.607-3.049 3.483-3.1 8.708-1.746 12.926a10.8 10.8 0 0 0 5.038 5.371c2.208 1.34 5.231 1.84 7.032-.414.638-1.049 1.032-.96 1.291-2.62a4.4 4.4 0 0 0-3.567-1.685zm29.873-5.923c.454-1.4-.457-2.87-1.416-3.844a11.27 11.27 0 0 0-5.35-2.394 5.096 5.096 0 0 0 .38-2.366c-.353-2.9-2.522-5.766-5.5-6.272-3.06-.539-8.4 1.353-8 4.905-3.714 2.56 1.266 10.008 1.227 10.284 1.138 2.4 3.62 5.121 6.491 4.838 1.023-.6 1.48-2.855.873-4.664a7.57 7.57 0 0 0-1.012-1.922 9.79 9.79 0 0 1 2.226-.175l-.327-.011a14.35 14.35 0 0 1 1.755.177 7.85 7.85 0 0 1 .533.235c1.7.9 3.4 1.956 5.386 1.909h.091a3.42 3.42 0 0 0 2.65-.713zm-12.876-9.87a6.1 6.1 0 0 1 .219.031c.047.021.091.041.134.063.134.103.261.216.379.337.044.057.08.1.135.174a9.25 9.25 0 0 1 .186.293c.115.236.216.479.3.728v.013a3.223 3.223 0 0 1-.18.351l-.186.239a5.725 5.725 0 0 1-2.757 2.013c-.114-.27-.247-.532-.358-.8a7.062 7.062 0 0 0-1.473-2.529c.755-.234 1.5-.554 2.213-.822a28.58 28.58 0 0 0 1.391-.084z"/><path d="M1329.878 665.027a.2.2 0 0 0-.056 0c-.318-.02-.136-.01.056 0zm-7.732-2.325zM1329.881 665.027c.033 0 .064.01.1.008.224.011.062.002-.1-.008zm15.363-10.086c-.644-3.448-1.686-5.766-1.77-7.433-.157-2.506.116-6.588-3.109-7.111-2.471.558-2.956 3.021-2.975 5.3-2.821-1.8-6.625-2.282-7.754.653-.577 3.421 4.882 6.264 8.479 5.748l.026.114c.889 3.749.3 4.606 1.5 6.914.557 1.156 1.9 2.681 3.306 2.094a6.486 6.486 0 0 0 2.3-6.272zm13.557-14.429a5.66 5.66 0 0 0 1.06-5.058l-.068-.3c.024.1.028.1-.053-.293-.965-5.738-7.322-6.636-11.272-3.136-1.833 1.2-3.035 5.019-.809 6.28a5.36 5.36 0 0 0 3.952-2c.27-.157.871-.557 1.147-.757.138-.056.257-.1.363-.134a9.42 9.42 0 0 1 1.044-.134l.285-.015c.338.555.506.084.641 2.167-.211 1.405-.592 1.809-.809 3.515a6.855 6.855 0 0 0-2.2-1.91c-1.4-.631-3.555-.781-4.362.809-1.443 3.478 2.142 5.993 3.945 8.5 1.349 2.236 4.422 3.136 5.38 2.833.441-.086.931-.192 1.133-.641 1.192-3.026-.667-5.9-2.649-8.122a5.36 5.36 0 0 0 3.268-1.6zm13.824-11.133c-.91-1.251-1.256-1.482-3.648-3.278-2.32-1.46-4.692-4.072-7.5-4.29.949-1.591 1.576-3.333.34-4.88-2.076-.633-4.046 1.142-4.987 2.846-1.709 2.491-3.825 5.71-2.032 8.708.059.188.212.076.353.03a10.4 10.4 0 0 0 3.073-2.045 1.87 1.87 0 0 0 .389-.378 5.78 5.78 0 0 0 2.225 2.239l5.991 4.486a6.143 6.143 0 0 0 5.914.762c.487-.143.833-.573.869-1.079a4.894 4.894 0 0 0-.986-3.12zm11.239-19.643c-1.73-2.507-5.638-4.679-8.406-2.583a1.06 1.06 0 0 0-.276.557c-1.866-2.129-6.07-1.337-7.628 1.056a9.7 9.7 0 0 0-.477 9.467c1.487 2.066 3.4 2.708 3.706 3.16 3.092 2.709 7.139.613 10.076-1.259 4.796-2.606 5.17-6.502 3.005-10.398zm-8.015-.226a7.3 7.3 0 0 0 .691 1.22 21.96 21.96 0 0 0 1.761 1.961l.032.041c.044.057.077.122.118.182.031.084.052.172.077.258q-.042.336-.1.67a36.42 36.42 0 0 1-3.577 2.279c.026-.019-.056.013-.361.157l-.042.013c-.044.006-.089.006-.134.01-.692-.487-1.437-.883-2.164-1.315l-.035-.026h-.005a11.97 11.97 0 0 1-.027-1.416 9.38 9.38 0 0 1 .135-1.05 8.45 8.45 0 0 1 .087-.192l.087-.058c1.366-.459 3.067-1.264 3.457-2.731zm-180.967-55.652 2.79 2.79a5.287 5.287 0 0 0 3.623 1.5 5.216 5.216 0 0 0 3.623-1.5 5.16 5.16 0 0 0 1.5-3.623 5.34 5.34 0 0 0-1.5-3.623l-2.79-2.79a5.287 5.287 0 0 0-3.623-1.5 5.21 5.21 0 0 0-3.623 1.5 5.153 5.153 0 0 0-1.5 3.623 5.34 5.34 0 0 0 1.5 3.623z"/><path d="M1204.677 616.852v-65.578c0-6.593-10.246-6.6-10.246 0v65.575c-.002 6.596 10.246 6.607 10.246.003z"/><path d="M1172.255 573.318h53.105c6.593 0 6.6-10.246 0-10.246h-53.105c-6.586 0-6.606 10.246 0 10.246zm-143.156 63.281c-2.343-.26-3.987-1.176-6.418-.19a8.92 8.92 0 0 0-4.577 4.611c-2.226 4.705-.607 10.386 2.247 14.434 5.26 7.461 18.8 16.652 25.456 5.564 4.42-7.361 2.712-23.317-4.542-28.517a8.546 8.546 0 0 0-12.194 2.63c-3.086 4.862-1.2 11.836-.676 17.156l8.746-3.623-6.535-7.24c-4.428-4.905-11.655 2.359-7.245 7.245l6.535 7.24c2.823 3.128 9.178.809 8.746-3.623-.122-1.254-.2-12.322-2.946-10.8.7-.391 2.16 11.061 1.989 12.045-.395 2.262-.506 2.226-2.5 1.838-1.7-.333-4.126-3.045-5.261-4.317-1.315-1.484-1.561-3.255-2.608-4.755q-3.269-.556-.708.226 1.244.183 2.495.3c6.544.726 6.492-9.526 0-10.246zm271.935 262.685c.809-5.9 1.53-11.807 2.076-17.736.524-5.693-.064-12.321 1.221-17.858l-3.578 3.578c-.919.385 1 .8 1.321.986 1.344.767 2.756 1.443 4.119 2.183l7.428 4.058 6.609 3.612 4.131 2.257c1.231.673 2.855 2.55 1.546.436l-.516-3.945c.525-1.944-.773.1-1.853.924q-1.933 1.478-3.917 2.886-3.749 2.667-7.649 5.113a166.24 166.24 0 0 1-16.124 8.852c-5.937 2.865-.747 11.7 5.172 8.847a165.26 165.26 0 0 0 29.258-18.046c3.283-2.535 7.041-5.914 4.148-10.345-2.512-3.844-9.244-5.949-13.151-8.082-5.2-2.841-10.337-5.889-15.7-8.415-3.768-1.775-8.63-2.867-10.863 1.767-.961 1.995-.7 4.529-.809 6.685q-.245 4.843-.623 9.676-.778 9.949-2.124 19.843c-.881 6.448 8.989 9.237 9.88 2.723zm45.093 929.79 36.673.093-2.586-9.547-40.658 24.851c-2.965 1.813-3.7 7.239 0 8.847 13.28 5.774 27.148 2.965 41.11 4.445 6.55.694 6.5-9.557 0-10.246-11.742-1.244-24.81 1.792-35.939-3.047v8.847l40.658-24.851c4.3-2.63 2.563-9.534-2.586-9.547l-36.673-.093c-6.594-.016-6.6 10.23 0 10.246zm41.411 63.207q-2.437-8.078-4.082-16.336c-.871-4.35-2.63-7.284-7.413-7.666-5.541-.44-11.5.437-17.037.82-6.147.425-12.281.988-18.406 1.652-6.486.7-6.557 10.956 0 10.246 9.35-1.012 18.722-1.772 28.117-2.219l6.8-.273q-3.3-3.622-1.944.165.264 1.379.56 2.752c.971 4.582 2.169 9.1 3.521 13.584 1.9 6.3 11.791 3.614 9.88-2.724z"/><path d="M1351.589 1878.354a76.43 76.43 0 0 0 2.049 22.923c1.546 6.407 11.432 3.694 9.88-2.724a66.9 66.9 0 0 1-1.682-20.2c.426-6.584-9.822-6.551-10.247.001zm25.803 31.774.132 24.067c.035 6.48 10.11 6.494 10.074 0l-.132-24.067c-.039-6.474-10.105-6.494-10.074 0z"/><path d="m1381.133 1915.022-35.663-1.966c-6.474-.357-6.457 9.718 0 10.074l35.663 1.966c6.477.345 6.456-9.72 0-10.074z"/></g><path d="M1181.65 356.736c-32.575 11.658-66.331 20.782-73.86 48.274 16.856-2.978 31.146-6.747 44.28-10.392a28.31 28.31 0 0 0 .714 17.29 112.336 112.336 0 0 1 21.561-16.616c-.266 5.617 2.461 11.284 7.385 15.359 9.275-1.348 11.265-16.692 19.606-13.23a8.765 8.765 0 0 1 3.487 3.113l10.781 14.108c10.015-6.309 15.869-16.5 15.253-26.576a273.46 273.46 0 0 1 43.459 24.656l.8-24.7c12.587 4.451 32.17 5.288 44.759 9.741-9.781-16.373-18.966-19.525-32.828-26.505-16.981-8.549-39.779-10.56-59.3-14.526s-37.569-3.048-46.097.004z" fill="#493428" class="B C E"/><path d="M1224.065 348.82a3.75 3.75 0 0 1-.809-.16l-6.711-2.55-3.349-.763c.125 0-2.495-.932-3.226-1.113-2.786-1.069-5.694-.319-8.506-1.046l-.152-.041c-.271-.1-.623-.253-.968-.425l.042-.672.084-.319.361-.465.3-.332.1-.1a18.56 18.56 0 0 1 1.709-1.076 26.36 26.36 0 0 1 5.232-.721c5.212-.607 10.9-1.862 14.937-6.866 2.4-3.041 4.576-6.952 4.557-11.678a16.534 16.534 0 0 0-5.266-12.3c-3.324-2.737-7.306-3-11.056-2.393-5.144.546-4.054 1.254-8.347.435l-.312-2.185c.4-.421.333-.239 1.374-1.146a21.5 21.5 0 0 1 2.444-1.37c.084-.031.271-.1.607-.239 3.962-1.482 7.952-3.159 11.381-6.4-4.957-3.3-10.521-6.685-16.111-5.139-2.617.785-4.794 3.073-6.919 5.233-2.417 2.6-2.858 7.063-2.235 11 .578 3.761.851 8.175 3.251 10.622 5.284 4.936 11.86 2.845 17.768 2.152h.009c.308-.004.616.01.923.041a7.95 7.95 0 0 1 1.113.2c.384.152.758.328 1.12.527.092.094.185.185.273.286.114.165.22.34.326.516q-.244.462-.506.9a17.56 17.56 0 0 1-1.457 1.8c-2.855 1.894-4.784 2.307-10.19 2.954a14.56 14.56 0 0 0-13.831 9.576 21.88 21.88 0 0 0-.537 12.794 11.34 11.34 0 0 0 6.092 7.11 18.32 18.32 0 0 0 5.251 1.315 56.32 56.32 0 0 0 6.388-.354 35.61 35.61 0 0 0 3.675-.3c4.8-1.529 1.953-.83 5.315-2.1a19.074 19.074 0 0 0 5.984-3.37c.553-.506.816-1.4 1.333-1.963-.541-.13-1.168.153-1.461.125z" fill="#fffcfc"/><g class="B C"><path d="M1206.643 300.93c-43.33 1.893-84.962-33.863-89.632-76.986l20.324 12.037a77.252 77.252 0 0 1 4.766-71.492 14.853 14.853 0 0 0 12.544 7.769c0-17.771-2.67-23.419-2.67-45.166 5.455 9 14.495 14.527 19.95 23.532a167.078 167.078 0 0 1 32.418-92.508 151.42 151.42 0 0 0 9.5 62.4c9.154-9.985 13.279-19.048 16.692-31.627 13.851 21.548 13.869 34.871 16.239 53.42l7.859-23.437c12.393 20.739 10.812 37.973 6.639 59.23 5.722-5.722 2.419-3.452 19.891-16.664l-12.164 52.844 23.519-19.493a105.65 105.65 0 0 1-18.58 58.356l18.243-13c-11.719 36.982-49.17 64.174-85.538 60.785z" fill="#493428" class="E"/><rect width="55.328" height="92.213" rx="17.055" fill="#c9c9c9" stroke-width="6.023" x="1181.652" y="273.744"/></g><g fill="#fff"><path d="m1203.424 302.409-.163-.038.127.032z"/><path d="M1227.586 345.069c-1.29-4.755-6.185-8.067-10.705-9.651-3.67-1.018-7.507-.822-11.269-.506a16.021 16.021 0 0 1-2.265-.119q-.4-.12-.8-.268l-.066-.144c-.042-.165-.092-.327-.125-.493a14.76 14.76 0 0 1-.222-1.657 10.9 10.9 0 0 1 .089-1.406c.063-.19.143-.373.222-.557.453-.675.991-1.3 1.443-1.974.038-.054.081-.1.12-.158l.025-.021c.087-.041.172-.085.26-.122a6.38 6.38 0 0 1 .654-.1l.654-.056 2.153-.1a37.64 37.64 0 0 0 11.164-2.419c3.783-1.959 7.362-5.463 7.581-9.861a11.913 11.913 0 0 0-4.678-9.795 14.27 14.27 0 0 0-5.6-1.856 106.87 106.87 0 0 0-12.747-1.38l-.045-.008a11.36 11.36 0 0 1 .332.087 15.23 15.23 0 0 1-.368-.093l-.476-.082a1.42 1.42 0 0 1 .349.051 11.32 11.32 0 0 1-.838-.267l-.043-.019a10.486 10.486 0 0 1-.545-.361q-.362-.394-.687-.817c-.012-.059-.03-.114-.041-.173l.059-.032c.731-.383 3.376-1.275 3.651-1.379l2.131-.638c3.838-1.042 7.284-3.022 10.876-4.654-3.7-2.546-8.3-3.363-12.7-3.931-5.144-.377-11.209 1.555-13.566 6.367-2.3 5.529.771 12 6.135 14.535 3.089 1.643 6.723 1.619 10.143 1.821 2.721.204 5.423.602 8.087 1.192.03.064.052.133.08.2.036.145.085.285.114.431l.033.18c-.053.073-.1.146-.16.216-.404.381-.833.734-1.284 1.056a8.2 8.2 0 0 1-.79.341 40.475 40.475 0 0 1-7.984 1.381h.1l-.111.005-.114.006-.44.019-.708.031.665-.03a13.63 13.63 0 0 0-3.525.386 11.01 11.01 0 0 0-6.532 4.545 13.35 13.35 0 0 0-3.373 9.192c-.1 8.194 4.625 13.12 13.079 12.985 5.252-.149 3.564-.534 8.6 0a11.61 11.61 0 0 1 1.355.528 15.89 15.89 0 0 1 1.468.962l.286.22-.011.013c-1.517 1.438-4.576 2.59-8.952 4.871-2.5 1.378-2.535.876-6.192 1.739a45.37 45.37 0 0 0-4.539 1.821c.981.418 2 .752 3.013 1.079 2.444.74 4.595 2.306 7.209 2.5 5.228.157 10.9-.506 15.235-3.59 2.971-2.419 5.763-6.068 5.136-10.043z"/><path d="m1205.806 317.822.114-.006h.012l-.615.028h.048l.441-.022z"/></g><g class="B C"><path d="M942.78 584.167a134.299 134.299 0 0 1 4.148-44.816c-329.381 12.371-587.782 45.3-481.472 62.643 97.5 15.9 231.768 25.574 359.05 31.462-.687-5.4-.255-11.229 1.931-15.472 8.3-16.115 19.564-30.5 36.952-37.431 15.959-6.355 32.287-5.307 48.458-.708 11.553 3.284 22.593 9.591 32.367 16.611-.645-4.058-1.171-8.147-1.434-12.289z" fill="#898989" class="E"/><path d="M1131.092 557.129q1.214 1.945 2.357 3.909c1.839-4.241 3.817-8.418 6.064-12.471a137.84 137.84 0 0 1 8.478-13.847q-20.757.17-41.432.468c9.904 5.318 18.443 12.226 24.533 21.941zm-123.557-.548.432-1.72q-.56 2.248-.976 4.509c2.934-3.435 6.05-6.71 9.333-9.813 4.762-4.53 12.695-6.25 19.019-6.327 3.82-.368 7.672.192 11.229 1.632a39.23 39.23 0 0 1 7.6-.847 33.83 33.83 0 0 1 12.583 2.192 35.85 35.85 0 0 1 11.6-10.551q-36.4.678-72.2 1.72c2.756 6.585 2.695 12.749 1.38 19.205zm299.786 2.609 5.923-7.087a183.49 183.49 0 0 1 15.962-16.177q-14.431-.314-28.945-.563c.94 7.672 1.987 15.328 3.385 22.927a33.6 33.6 0 0 1 3.675.9z" fill="#f4c758" stroke-width="3.124"/><g class="E"><path d="m1406.982 538.1 3.194 6.54q4.557.921 9.073 2.015l1.295-.234c8.677-1.219 16.345 1.476 23.536 6.087 3.58 2.3 7.363 4.369 10.87 6.8a114.51 114.51 0 0 1 22.126 13.974 125.927 125.927 0 0 1 13.447 13.4 265.236 265.236 0 0 1 16.645.03 88.79 88.79 0 0 1 16.725-3.177 94.965 94.965 0 0 1 20.4-.086c17.129 1.578 31.2 8.28 45.753 16.926 7.1 4.217 10.907 13.186 12.342 20.946a26.57 26.57 0 0 1-.338 10.848c125.433-6 251.463-15.409 329.609-30.181 87.323-16.502-187.759-52.41-524.677-63.888z" fill="#898989"/><use xlink:href="#M" fill="#efefef"/></g></g><path d="M1518.363 577.771c134.393 1.922 289.972 6.854 424.053 18.21 23.367 1.978-262.958-115.575-489.243-211.58-59.191 21.631-147.385 28.689-247.954 28.689-106.223 0-191.189-4.929-250-28.689l-4.4 1.792c47.4 41.781 164.353 89.653 449.078 99.647 68.42 2.396 105.568 35.749 118.466 91.931z" fill="#d8d8d8"/><use xlink:href="#M" class="B C D E"/><path d="M2031.345 3411.179c2.375 4.169 5.712 4.794 9.127 3.835 7.667-2.084 15.258-4.755 22.894-7a42.42 42.42 0 0 1 26.759 0 47.53 47.53 0 0 0 19.992 2.856 53.493 53.493 0 0 1 28.063 6.024q13.473 6.566 27.163 12.277c13.427 5.608 27.011 8.755 41.116 4.544 10.353-3.106 20.8-5.732 31.245-8.171a53.13 53.13 0 0 1 11.781-.9h33.806a63.667 63.667 0 0 1 35.7 11.3c5.058 3.294 9.98 7.045 15.118 10.109 15.522 9.213 31.183 17.259 48.707 15.074 5.014-.625 10.136.25 15.2-.167 17.555-1.4 34.582 3.023 51.64 7.629a53.685 53.685 0 0 0 13.4 1.459c11.827.208 23.656 0 35.482 0a46.74 46.74 0 0 1 10.074.938c2.844.691 5.145 3.5 5.93 7.232.993 4.169-.233 6.921-2.577 9.776-10.169 11.957-21.965 21.158-34.737 27.1-19.107 9.463-38.571 16.362-59.246 13.924-2.235-.25-4.517.167-6.752 0-14.342-1.376-27.517 3.21-40.9 10.42-13.969 7.566-29.041 11.173-43.585 16.675-9.813 3.772-20.178 2.919-29.843 5.665-10.664 3.023-21.187 2.522-31.773 3.648-14.761 1.605-27.581-5.107-39.812-14.779a75.32 75.32 0 0 0-15.319-9.213c-9.408-4.378-18.346-3.939-27.939-.438-22.74 8.338-42.312 24.279-60.844 42.835-11.563 11.568-24.684 17.947-38.322 21.844-15.883 4.523-32.145 5.419-48.5 5.362-15.925 0-31.477-1-46.192-9.776-4.983-2.98-9.624-3.772-14.389.25-3.57-3.46-6.6-7.837-10.368-10.984-18.625-15.008-35.7-12.048-51.594 7.171-33.525 23.421-69.49 39.913-106.68 48.921-11.176 2.731-22.739 4.419-33.619 1.189-37.857-11.173-76.581-18.76-112-41.459-24.415-15.613-48.613-21.245-75.047-8.755-30.748 14.591-58.675-.48-85.741-19.221a127.8 127.8 0 0 1-17.772-16.842c-8.77-9.776-14.249-21.866-10.865-37.52 3.663-16.675 14.078-22.094 25.874-23.763 14.606-2.084 28.762 5.148 43.336 3.939 13.814 2.459 24.583-3.752 34.861-16.967 21.447-27.535 47.464-40.042 77.3-33.559 15.1 3.273 26.387-3.856 35.7-18.885 28.405-45.607 65.641-69.328 108.325-81.417 27.938-7.921 53.8 1.855 79.579 12.277 32.347 13.069 63.638 30.641 95.923 43.94 12.93 3.856 25.7 9.547 39.27 6.42 7.183-.584 13.657-6.524 21.124-5.128m-1524.227 31.326a8.945 8.945 0 0 1-7.559-3.4 13.54 13.54 0 0 0-8.92-5.107c-18.142-2.084-35.043-9.671-51.4-21.052-10.1-7.045-20.908-13.736-33.017-10.776-17.28-5.336-33.26 1.647-49.406 9.067-8.225 3.794-16.9 5.795-25.383 8.567a2.61 2.61 0 0 1-1.619.187c-13.607-5.336-28.407-2.668-41.438-11.965-10.688-7.65-21.664-14.466-31.747-23.888-14.452-13.59-29.208-26.6-44.068-39.312-11.761-10.047-25.02-15.049-38.294-19.823s-27.031-4.856-40.728-4.69c-18.142.23-36.283-.125-54.333.167a40.564 40.564 0 0 1-17.6-4.1c-20.435-9.32-39.312-22.932-57.454-38.669a76.45 76.45 0 0 1-13.172-16.987c-15.329-24.576-7.71-42.106 8.572-52.528 14.574-9.338 30.236-17.864 47.486-15.112 6.048.959 11.913-2.188 17.763-2.98 22.949-3.043 46.049-1.96 69.044-.584 5.745.354 11.354 5.19 17.008 8.025l13.833 7.129a5.554 5.554 0 0 0 6.334-.354c8.663-6.253 18.5-10.089 25.141-20.84 5.488-8.942-5.9-30.48 0-53.706s13.785-24.942 23.615-39.2c14.861-21.548 66.079 9.879 86.443 2.771 13.44-4.669 27.046-4.9 40.743-4.586 4.384 0 8.783.187 13.168-.146 6.893-.5 8.134-2.439 8.557-12.736l.607-20.386c8.164 3.835 6.048 13.84 7.075 21.991.242 4.44.59 8.838 4.35 10.61 1.935.809 3.855 1.584 5.76 2.481a145.63 145.63 0 0 1 16.448 8.734 244.599 244.599 0 0 1 8.783 5.608c27.636 19.177 48.045 46.607 57.372 88.839 5.806 26.243 10.583 30.37 29.945 29.54 50.342-2.084 95.681 15.362 134.126 61.762 9.706 11.735 20.258 14.4 33.4 12.924 33.128-4.108 66.293 7.319 94.124 32.433 20.243 18.093 18.974 48.357-3.024 62.095-34.907 21.8-70.888 38.833-109.711 19.155-20.606-10.42-39.7-5.69-58.854 6.879-13.354 8.755-26.864 17.467-41.635 21.115-13.364 2.731-27.091-3.273-40.349 3.023m262.551 591.118c-9.693-15.782-24.221-15.737-39.6-11.694-6.524 1.71-12.735 4.69-19.135 6.98a230.12 230.12 0 0 1-77.456 13.818 10.29 10.29 0 0 1-2.272 0c-35.873-8.5-72.333-3.377-108.515-4.169a132.31 132.31 0 0 1-37.687-6.778c-12.11-3.9-23.6-9.964-35.018-15.758-4.047-2.084-8.5-3.481-12.132-5.795-18.76-12.11-37.915-8.338-56.28-.312-17.593 7.774-36.645 8.442-54.612 14.028a17.99 17.99 0 0 1-8.942-.458c-22.428-5.4-44.586-4.377-67.2 0a351.83 351.83 0 0 1-42.5 5.065c-30.662 2.085-57.467-10.218-81.521-28.557-3.4-2.606-2.856-6.816-.771-10.42a27.1 27.1 0 0 1 11.672-10.42c6.107-3.023 12.006-6.524 18.3-9.089a169.253 169.253 0 0 0 30.2-15.174c11.047-7.338 24.138-8.338 36.478-11.611a22.2 22.2 0 0 1 13.3 1.416c10.693 4.586 22.3 2.814 33.351 5.524 9.611 2.355 20.84-2.084 30.266-6.816 25.764-12.507 51.818-24.3 76.186-39.6 28.411-17.947 60.092-27.931 93.195-33.476 5.19-.875 10.42-2.084 15.508-2.939 3.689-.667 7.566-2.084 11.128-1.543 20.052 3 40.5 4.856 58.635 15.258 7.858 4.482 15.675 9.1 23.283 14.007 20.991 13.465 43.126 16.238 66.827 8.338 16.425-5.5 32.642-11.9 50.568-11.256 4.169.167 5.586-4.4 6.373-8.338 9.943-.9 14.821 9.838 24.117 10.42 18.927 5.712 34.6 17.551 51.594 26.951 22.471 13.612 47.838 19.406 72.559 26.994 30.87 6.921 61.22 3.627 91.715-3.418 12.757-2.96 28.453-8.859 35.831 7.754 6.858 15.446-.167 29.661-12.152 40.48-19.031 17.134-42.835 24.533-66.952 31-21.095 3.9-42.21 7.775-62.762 14.133-6.733 1.4-13.674 1.793-20.26 3.939a45.19 45.19 0 0 1-19.906.354c-9.3-.562-15.717-9.443-25.471-8.775m1516.724-1163.363c6.044 4.169 4.856 10.589 4.877 16.529q.125 47.671 0 95.383c0 5.294-.167 10.61 0 15.883.438 10.172 2.376 12.924 11.634 12.84 30.058-.23 53.048 14.4 74.142 33.746a262.63 262.63 0 0 1 40.022 46.212c5.085 7.486 11.047 12.507 19.135 14.8 9.651 2.668 17.864 8.338 27.1 11.715 19.26 7.233 32.2 22.241 45.545 36.6 8.838 9.509 7.171 21.844 3.043 32.121-4 9.9-12.673 16.926-25.013 15.9-3.773-.313-7.921.688-11.277-.542-23.2-8.609-44.607-1.1-65.639 7.295s-43.46 12.36-65.742 15.591c-15.216 2.209-29.766-3.251-43.9-8.8-10.005-3.919-10.172-3.939-13.465 6.373a11.61 11.61 0 0 1-4.919 7.171c-5.753-5.362-4.627-15.092-12.342-19.177-8.713-4.815-18.426-6.483-27.848-9.026-12.694-3.231-25.594-1.647-38.374-1.751-15.529-.125-30.912-2.439-42.835-12.152-34.184-27.848-73.08-29.057-113.622-22.324-23.3 3.877-46.67 3.21-70.016 2.5a87.05 87.05 0 0 1-57.7-22.929c-9.1-8.338-16.551-18.656-11.965-31.933 4.4-12.715 15.508-18.051 27.994-20.073 16.389-2.668 33.225 1.126 49.526-3.251 9.547-2.084 19.344-3.127 27.6-9.234 26.472-19.615 56.009-21.261 86.192-12.342 36.707 10.839 69.474 8.338 98.384-19.8a143.86 143.86 0 0 1 39.229-26.472c11.006-5.087 23.658-5.441 34.163-11.943 11.11-6.691 9.484-17.968 9.672-28.16l.271-83.106c.125-9.567-1.214-19.677 6.253-27.66m-362.724 1171.818c0 2.876-1.459 6.816 0 8.338a11.82 11.82 0 0 0 12.152 4.273 54.556 54.556 0 0 0 10.276-4.773c20.031-10.8 41.856-16.676 63.531-22.783 14.9-4.169 29.765-2.793 44.857-1.083 25.659 2.919 49.38 13.111 74.268 18.76 13.173 3.043 26.139 6.357 39.859 7.442 11.756.918 23.369 5.712 34.685 9.8 15.591 5.608 30.87 12.11 46.232 18.385a54.57 54.57 0 0 1 10.047 5.191 25.43 25.43 0 0 1 4.169 37.707c-8.338 9.463-18.552 15.362-31.766 14.591-4.523-.23-9.088.146-13.612 0-28.124-1.146-55.2 1.626-82.272 11.34-23.158 8.338-48.154 11.068-73.226 11.776-17.906.5-35.749 4.169-53.487 7.108a45.61 45.61 0 0 1-20.073 0c-17.133-4.607-34.039-3.772-51.3.688-30.6 7.88-61.407 14.966-92.277 21.7a118.603 118.603 0 0 1-51.715 0 111.59 111.59 0 0 0-70.682 7.046c-14.9 6.441-29.891 10.42-46.171 7.816-3.44-10.42 3.44-17.4 8.859-24.242l33.142-43c25.595-33.539 57.885-56.05 99.823-65.554 29.307-6.65 58.656-14.383 85.628-28.7 5.836-3.106 12.236-6.545 19.135-2.085" fill="#fbfbfb"/><path d="M275.888 2746.81c41.084-27.6 88-39.083 135.487-49.005 37.77-7.9 75.956-13.236 114.143-18.513l98.76-14.487 103.638-12.319 121.46-15.9 166.546-21.2c39.041-4.586 78.207-8.755 117.437-11.381 69.474-4.627 138.99-7.774 208.693-4.023 46.879 2.522 93.653 5.649 140.2 11.611 29.182 3.731 58.364 8.671 87.545 13.236l129.922 20.553q75.039 11.485 148.724 29.6c7.191-5.274-.708-13.423 4.523-18.927 6.086-1.416 11.339 1.459 16.675 4.065 45.524 21.991 93.507 28.411 143.576 24.1 36.29-3.127 72.121-7.837 106.555-20.344 6.98-2.522 10.42.313 9.171 7.129-1.083 5.9-2.98 11.634-4.523 17.426-11.3 6.07-14.591 18.031-20.84 27.952-1.063 2.876-2.085 5.753-3.293 8.629a47.352 47.352 0 0 1-2.585 5.878c-9.813 23.346-20.948 46.275-21.72 72.351l.125 71.827c-.75 11.819 4.169 22.929 4.377 34.622.354 8.338 7.108 12.965 11.444 19.01 5.732 9.317 8.233 18.76.688 28.368a13.635 13.635 0 0 1-6.253 2.084l-3.314-.417a20.05 20.05 0 0 1-12.11-10.172c-2.314-6.587-4.711-13.132-12.027-16.008-41.459-23.68-85.753-36.123-133.739-33.83-4.816.23-10.86-2.376-13.695 4.315.458 3.919 2.272 7.442 2.752 11.318 0 7.837-2.522 13.236-11.611 12.673-23.1-16.008-51.214-25.575-62.533-55.944-4.606-12.342-18.447-19.406-29.6-27.389-5.753-4.169-16.362-9.1-4.315-18.343a24.305 24.305 0 0 1 8.942-1.355c33.205 2.084 34.143 1.543 37.749-32.017 2.209-20.323 1.188-40.792.625-61.2-.521-19.281-9.192-29.182-29.182-33.83-110.746-25.681-223.513-39.187-335.593-56.28a1336.9 1336.9 0 0 0-276.06-12.869c-120.9 6.691-240.981 21.3-360.752 38.958-127.149 18.76-255.425 30.015-382.408 50.735-29.182 4.755-57.988 10.8-86.733 17.384-2.314.688-4.69 1.188-7.025 1.688s-4.419 1.1-6.65 1.543a208.44 208.44 0 0 0-69.5 26.3c-11.634 6.817-17.113 15.237-15.8 29.453 1.771 19.01 6.587 37.127 11.943 55.217 2.481 8.338 6.816 14.383 17.134 15.258 16.2 1.4 14.237 10.714 6.42 19.929-12.152 14.341-27.222 26.326-35.039 44.085a92.72 92.72 0 0 1-5.816 10.547 81.986 81.986 0 0 0-5.065 10.568 21.03 21.03 0 0 1-3.169 5.086 9.88 9.88 0 0 1-7.983 3.314c-12.9-5.463-5.545-16.49-7.025-25.013-12.132-7.379-23.658 3.46-35.539 1.022-4.565-.792-8.671-2.272-10.42-7.192a11.11 11.11 0 0 1 4.9-8.546 30.524 30.524 0 0 1 9.484-3.627c6.545-1.315 12.924-3.541 19.615-4.169 4.44-.521 8.922-.834 13.382-1.167 23.887-13.445 28.832-25.514 19.781-49.129-14.987-39.187-24.034-79-12.84-120.9 9.172-5.482 6.587 7.817 12.382 7.754" fill="#010000"/><path d="M1923.793 4041.993c-37.02 19.364-77 30.516-117.1 40.769a132.3 132.3 0 0 0-75.561 50.4c-13.657 18.072-28.225 35.435-42.022 53.424-4.544 5.9-10.089 11.361-11.986 18.99-12.381 14.4-20.84 31.266-29.828 47.816s-17.488 33.5-26.973 49.8c-25.327 43.5-61.508 74.018-109.515 90.089-31.537 10.547-63.554 19.344-95.7 27.827l-140.073 37.249c-15.984 4.047-32.271 7.8-49.3 4.815-23.054-4-43.564-13.445-60.261-29.39a442.79 442.79 0 0 0-79.414-59.968 173.661 173.661 0 0 1-31.683-25.639c-5.336-5.232-11.152-9.943-16.676-14.9-37.353-25.013-78.1-44.439-114.143-71.558-13.215-9.964-25.514-20.553-34.935-34.267-23.95-23.116-43.022-50.505-65.472-75.04-11.985-13.069-19.385-28.744-25.347-45.149l-18.76-53.424c-2.5-7.045-3.961-14.591-9.3-20.364.875-3.064 2.856-5.191 6.024-3.939 5.815 2.314 11.4 5.211 17.071 7.88 4.419 5.232 8.462 10.693 10.276 17.447 28.369 105.868 105.181 170.672 194 223.2 33.351 19.719 57.509 48.964 88.526 70.266a1190.783 1190.783 0 0 1 100.49 77.312c20.657 17.655 45.4 23.241 72.371 16.279 82.731-21.428 166.337-39.729 247.442-67.035 40.271-13.57 72.579-38.249 92.444-76.04 34.956-66.472 73.31-130.4 122.293-187.785a141.74 141.74 0 0 1 60.24-42.626c24.886-9.13 50.8-14.966 75.974-23.158 56.717-18.468 99.135-50.026 126.566-107.514 50.526-106.121 95.237-214.008 131.173-325.775 3.251-10.109 3.273-27.765 23.054-23.825 9.067 3.564 9.067 3.564 9.067 13.549-10.42 16.883-15.717 35.913-21.719 54.446-17.05 52.548-37.52 103.825-56.821 155.5a406.99 406.99 0 0 1-29.641 63.679 453.6 453.6 0 0 0-34.08 69.12c-15.276 40.313-39.812 72.768-77.812 94.258-1.209.667-1.958 2.084-2.939 3.273" fill="#010101"/><path d="M888.541 4227.356a841.78 841.78 0 0 0 126.108 85.065c8.963 4.856 17.655 11.234 22.929 20.718-22.929-1.439-44.857 3.5-66.389 10.86-6.373 2.084-13.132 3.251-19.573 5.252-20.03 6.253-36.978-1-52.944-12.048a67.1 67.1 0 0 1-9.734-9.443c-13.59-14.216-29.578-17.759-48.964-14.341-26.6 4.69-53.591 8.9-80.709 6.045-14.9-1.584-29.62-4.169-44.732-4.773-11.381-.417-21.428-6.962-30.015-14.466-7.817-6.837-7.5-15.591-.792-24.1a39.6 39.6 0 0 1 31.745-14.925c24.742 0 49.734-3.835 74.268 2.63 3.658.956 7.525.73 11.047-.646 10.61-3.877 21.72-6.65 31.808-11.589a130.53 130.53 0 0 1 51.818-13.923c7.609-.334 3.648-6.5 4.169-10.42" fill="#fbfbfb"/><path d="M723.957 3898.079c-10.86.458-16.676-7.066-22.428-14.424a136.2 136.2 0 0 0-75.581-61.2c-8.567-2.9-17.426-5.023-26.013-7.921a59.97 59.97 0 0 1-37.27-34.267 292.75 292.75 0 0 1-10.735-27.41c-9.693-30.224-18.76-60.6-30.1-90.3-4.544-11.965-7.42-24.6-10.672-37.019a203.69 203.69 0 0 0-28.265-63.909c-14.925-21.953-24.638-46.754-36.04-70.62-2.606-5.441-5.086-10.985-7.337-16.675-5.857-14.591-15.092-26.055-29.724-32.684 6.566-11.634 17.384-3.4 25.951-5.545 12.9 3.919 19.01 14.278 23.95 25.595a1053.107 1053.107 0 0 0 50.987 101.283c11.027 19.2 16.822 40.479 22.825 61.552 12.256 42.939 28.326 84.648 40.875 127.483 7.42 25.41 23.369 40.876 50.318 46.232 45.482 9.088 74.686 40.917 100.052 76.644 4.544 6.373 14.591 16.071-.855 23.1" class="R"/><path d="M2332.99 2870.188c0 14.174-.313 28.348.208 42.5 1.083 28.411 2.313 56.821.334 85.232-1.1 15.821-1.126 15.821-18.259 18.3-10.777-.667-8.879-9.067-7.963-15.049 6.07-39.271-3.064-78.061-3.064-117.124 0-14.862-7.295-25.284-18.76-34.184-36.311-28.264-77.936-45.357-121.417-58.509-20.2-6.107-40.5-11.819-59.948-20.052a148.39 148.39 0 0 1-15.154-7.525 9.044 9.044 0 0 1-3.189-5.545c1.376-4.169 2.085-8.338 3.523-12.507a12.19 12.19 0 0 1 4.169-4.856 10.42 10.42 0 0 1 9.256 1.376c42.417 12.757 84.627 26.1 125.878 42.273a292.57 292.57 0 0 1 70.6 39.437c16.05 12.194 28.832 26.222 33.768 46.253" fill="#020101"/><path d="M2320.899 3205.592c6.129.667 9.339 3.607 8.338 10.235-.584 4.377-.667 8.817-.979 13.236-18.76 57.717-51.131 107.89-86.712 156.331-6.253 8.338-13.674 15.863-17.488 25.846-7.233 8.671-16.676 10.42-27.327 9.276-4.169-9.63-4.544-9.838.4-17.28 8.338-12.507 17.926-24.279 26.809-36.457 33-45.253 63.366-91.882 78.706-146.639 2.4-8.525 5.044-18.552 18.155-14.591" fill="#030303"/><path d="M210.521 2925.53c2.226 3.147 5.628 3.585 9.1 3.835-.313 11.965-11.422 9.317-17.781 12.631-16.061 8.338-36.18 10.068-45.706 28.803q-14.945 12.736-29.933 25.451c-2.314 1.96-5.107 3.189-7.983 1.626-3.961-2.084-3.44-5.9-2.752-9.567 8.484-46.21 3.213-91.21-13.087-134.984-8.338-16.675-17.009-33.058-28.765-47.629-3.731-4.607-7.858-9.172-5.9-15.946a6.523 6.523 0 0 1 5.665-3.377l3.481.584a26.3 26.3 0 0 1 6.253 2.96c42.648 45.316 59.906 99.445 55.134 163.106a197.89 197.89 0 0 1 47.132-26.263c7.941-3.085 16.389-9.088 25.117-1.23" class="H"/><path d="M219.984 3083.695c-2.084-9.463.291-19.594-4.294-28.682 1.146-26.139-4.169-51.673-7.295-77.415l-3.294-24.262c-2.084-4.44-8.338-8.8-.313-13.465a131.69 131.69 0 0 1 13.174-3.731 7.4 7.4 0 0 1 8.608 4.815c10.235 45.274 11.3 91.527 15.029 137.572.584 5.294.292 10.42-3.856 14.341l-9.443-1.042c-4.169-1.292-6.253-4.565-8.338-8.046" fill="#060606"/><path d="M275.887 2746.81c-5.816 0-6.565-6.587-10.985-8.338-20.281 17.488-42.293 31.517-69.7 34.768a12.504 12.504 0 0 1-8.087-5.545 5.42 5.42 0 0 1 .809-6.087c14.591-5.712 29.7-9.693 43.648-17.321 13.569-7.42 25.618-17.968 41.939-22.637l2.376 25.243" fill="#231516"/><path d="M105.508 2847.843c16.217 34.31 20.407 70.871 17.8 108.057-.751 10.776-2.085 22.408-7.837 32.433-.646-13.716-2.085-27.41 0-41.105 4.377-9.509.187-19.635 2.272-29.307-1.146 4.047.875 8.838-3.189 12.132-4.169-7.462-4.356-15.529-3.668-23.721a9.59 9.59 0 0 0 1.751-8.025c-.667-2.939-3.627-3.5-1.5-1.334s-4.4 1.188-1.4 1.647c-4.169-4.169-4.419-9.463-3.648-14.925 4.315-5.732-1.563-10.193-1.938-15.362a22.036 22.036 0 0 0-4.731-13.382c-.208-4.293-.25-8.484 6.129-7.108" fill="#323a3c"/><path d="M205.789 2942.959c-4.294 3.189 1.626 7.066-.688 10.42l-8.963-2.209c-1.626-1.416-2.772-1.022-3.5.918-2.731 2.919-5.773 5.086-10.068 4.336-1.563-1.459-2.481-1.042-2.814 1a5.3 5.3 0 0 1-6.253 3.377c-1.667-1.272-2.63-.792-2.98 1.209a4.626 4.626 0 0 1-5.732 3.377h-.167a9 9 0 0 1-8.462 5.378c-1.517-4.023-4.92-7.963.521-11.9 16.071-11.672 34.163-19.114 52.986-24.867 3.627-1.126 7.358-1.543 9.964-4.669 11.128-.146 21.428-6.087 32.767-4.794 2.833.313 5.665.708 8.484 1.23.375 0 .584 1.063.875 1.626-2.752-1.25.5 4.565-1.042 1.96a48.17 48.17 0 0 1-36.707 8.963l-8.338.458c-3.043 2.084-7.275 1.167-9.9 4.169" fill="#3a4a4d"/><path d="m187.591 2765.446 4.711 3.856c-2.63 4.69-7.358 5.608-11.965 6.754-4.69.792-9.213 2.314-13.882 3.293-9.588 1.938-19.3 1.376-28.953 1.626-21.3.334-42.627-1.1-63.887.938a19.32 19.32 0 0 0-5.836 3.231c-3.4 3.189-7.149 5.294-12.006 3.418v-.375c-2.439-2.418-1.563-6.253-3.689-8.8a3.4 3.4 0 0 1-1.1-3.815c-1.855-3.338-2.293-6.587.458-9.712a10.758 10.758 0 0 1 9.255.271c6.373 3.648 13.986.5 20.448 3.711h45.127c11.089-4.586 23.283.9 34.372-3.794a16.03 16.03 0 0 1 11.047-.809c5.336-1.688 10.693-3.127 15.984.146" fill="#201415"/><path d="m55.774 2788.561 9.15-4.169a6.253 6.253 0 0 1 4 3.919 19.78 19.78 0 0 0 5.665 11.694c13.673 13.778 22.116 30.933 30.912 47.942-3.648 2.084-3.939 5.545-4.169 9.1 2.084 2.314 1.688 4.169-.979 5.795-11.006-27.1-28.661-50.026-44.649-74.164" fill="#262e2f"/><path d="m2102.741 2742.224-10.005.959c-2.272-7 2.418-12.507 4.169-18.593l-.126.208c2.585-2.752 3.418-5.608.521-8.692l14.091-24.909c3.377-6.253 7.941-5.211 12.985-2.772 1.334 4.856-1.73 8.338-3.772 12.11l-16.071 31.266a17.886 17.886 0 0 0-1.793 10.42" class="S"/><path d="M437.599 3439.336c-9.276.5-18.927-3.314-27.765 2.4l-2.084.708-2.084-.25c-.562-3.023-4.815-7.941 1.751-8.13 17.781-.562 35.581 0 53.382 0a4.856 4.856 0 0 1-1.876 6.357c-7.379 4.44-14.341 1.459-21.346-1.126" fill="#ca8989"/><path d="M114.511 2930.051c1.98-2.98-.187-7.5 4.564-10.42-.4 9.755 3.4 19.221-3.648 27.577q-.438-8.567-.918-17.176" class="H"/><path d="M160.558 2766.117a12.84 12.84 0 0 1-9.922 4.169c-8.15 0-16.3-.187-24.45-.291 11.128-4.169 22.741-4.169 34.373-3.794" class="T"/><path d="M109.697 2898.619a15.84 15.84 0 0 1 1.459-3.939c1.73-2.481-1.922-1.563 1.1-1.626a2.96 2.96 0 0 1 2.084 1.922c.646 4.293.521 8.484-3.564 11.36l-1.146-7.713" class="H"/><path d="M81.159 2769.947c-7.025-.125-14.591 2.647-20.448-3.711 7.087-.271 14.153-.354 20.448 3.711" class="K"/><path d="m187.593 2765.445-15.984-.146c4.815-4 10.42-4.169 16.321-3.772l-.334 3.919" class="T"/><path d="m100.426 2862.725.98-5.795c5.665 3.043 4.169 8.525 4.5 13.341l-1.96 1.416-1.73-1.71-1.793-7.253" fill="#191718"/><path d="M105.903 2870.271c5.608 6.754 5.586 6.8.146 13.423a3.46 3.46 0 0 1-.584-3.668c-1.876-3.377-2.418-6.691.521-9.838z" class="H"/><path d="M51.979 2779.39a8.34 8.34 0 0 1 3.689 8.8c-3.481-2.084-4.169-5.148-3.689-8.8" class="K"/><path d="m192.637 2952.044-1.71-3.21c2.563-1.126 4.047.25 5.211 2.293l-1.626.979z" fill="#2e292a"/><path d="m105.987 2870.184-.521 9.838a10.048 10.048 0 0 1-3.251-10.026 15.3 15.3 0 0 1 3.772.208" fill="#323a3c"/><path d="m51.354 2765.779-.458 9.712c-5.232-6.373-5.19-7.191.458-9.712" class="K"/><path d="M170.52 2961.964c.354-2.084.562-4.377 3-1.214a3.022 3.022 0 0 1-3 1.214" fill="#291c1d"/><path d="M179.754 2957.379c.334-2.084.607-4.315 2.833-1a2.585 2.585 0 0 1-2.833 1" fill="#2d1b1d"/><path d="m460.525 3438.839.417-4.731 54.924-21.3 25.347-9.838a69.1 69.1 0 0 1 42.251-2.084c16.675 4.356 33.642 8.338 50.8 11.423 18.572 3.273 36.29 1.272 53.736-3.689 18.155-5.148 35.873-11.819 53.611-18.259a69.445 69.445 0 0 0 16.008-8.338c12.924-9.046 19.929-29.953.521-43.877a156.333 156.333 0 0 0-57.427-26.251c-11.8-2.647-23.7-4.731-35.435-7.3-14.987-3.251-30.248-4.169-44.962-.291-13.961 3.711-25.013.1-35.831-8.338-13.174-10.151-26.681-19.865-40.333-29.369a197.014 197.014 0 0 0-88.027-33.552c-22.636-3.023-45.127-5.065-67.744-3.106-18.76 1.647-30.161-6.858-36.936-23.283a201.419 201.419 0 0 1-7.92-21.219c-5.564-19.594-16.9-35.06-31.892-48.567-13.007-11.735-27.931-20.448-42.481-29.849 22.074-14.365 47.942-18.135 72.663-23.369 75.04-15.8 150.954-23.658 227.721-19.594 41.689 2.209 79.75 17.53 116.728 34.955 62.387 29.349 121.773 64.347 180.011 101.095 25.722 16.217 52.777 24.409 82.794 27.952 48.192 5.691 96.383 7.254 144.784 9 98.948 3.627 187.6-27.348 272.767-73.226 13.987-7.546 28.869-13.882 41.689-22.929 26.868-18.656 54.362-18.176 84.232-9.484 47.816 13.9 90.9 37.165 132.84 63.075 10.8 6.67 17.906 16.675 18.114 29.807.521 30.2 3.147 60.449-5.628 90.193-12.236 41.4-20.84 83.669-30.308 125.732-6.253 27.66-18.76 52.59-42.418 70.266-10.42 1.771-20.84-.167-31.266-1.439a288.33 288.33 0 0 0-29.057-2.085 37.81 37.81 0 0 0-13.173 2.085c-18.343 6.357-23.6 24.158-11.569 39.454a67.08 67.08 0 0 0 11.444 10.672c6.4 5.086 13.111 9.8 19.676 14.591-34 37.186-79.73 50.693-126.462 60.6-51.11 10.818-102.386 19.635-149.162 45.17-65.409 35.686-86.733 81.814-68.786 154.68 21.616 87.379 67.1 161.835 127.963 226.7 50.026 53.465 66.7 129.443 38.312 196.957a88 88 0 0 1-50.547 49.589c-37.373 14.3-75.852 15.049-112.558-2.085a356.04 356.04 0 0 1-125.063-96.146c-17.426-20.991-35.711-41.335-54.507-60.761-30.956-31.912-57.551-66.1-75.893-106.577-4.169-9.213-13.007-14.591-18.447-22.8a206.7 206.7 0 0 0 43.773-17.551 149.09 149.09 0 0 0 22.532-15.092 34.185 34.185 0 0 0 13.028-25.392c.354-8.963-4.836-14.882-13.527-14.237a95.725 95.725 0 0 0-17.718 3.44 236.97 236.97 0 0 1-46.816 8.338c-17.3 1.085-34.518.563-50.923-6.253-12.027-32.121-33.579-56.28-62.924-73.33a390.712 390.712 0 0 0-56.8-27.639c-17.136-14.007-38.126-24.012-47.946-45.688-8.234-41.522-17.864-82.793-26.994-124.086-11.606-52.614-34.662-101.514-65.636-146.142a85.464 85.464 0 0 0-30.746-26.451c-32.142-17.1-61.031-39.375-92.485-57.572-3.481-3.648-6.253-7.442-2.376-12.507" fill="#827a73"/><path d="m1565.277 3510.605 13.007-21.219c11.9-18.447 21.824-37.29 25.681-59.656a840.147 840.147 0 0 1 25.345-107.619 207.45 207.45 0 0 0 8.735-71.5 158.363 158.363 0 0 1 0-22.679c1.376-14.133-6.086-22.8-16.883-29.661-6.253-4.065-12.777-8.088-19.469-11.548-28.869-14.883-57.134-31.037-87.8-42.251-19.239-7.025-39.5-9.63-59.219-14.591-6.733-1.688-12.9.25-19.364 3.794-35.143 19.2-70.14 38.77-106.16 56.28a561.53 561.53 0 0 1-150.078 48.88 293.19 293.19 0 0 1-49.485 3.961c-27.244 0-54.507-.417-81.751.125-29.557.584-58.593-3.106-87.546-8.338a70.303 70.303 0 0 0-11.3-.809 152.29 152.29 0 0 1-82.816-26.393c-26.389-17.488-54.008-33.1-81.751-48.525-31.037-17.238-61.387-35.664-93.507-50.943-34.206-16.238-69.453-29.411-106.722-36.6a100.28 100.28 0 0 0-18.072-1.146c-23.45-.146-46.963.607-70.391-.375-21.365-.9-42.23 2.376-62.867 6.253-11.318 2.084-22.6 1.584-33.622 3.46-28.911 4.92-58.093 8.609-86.17 17.676-14.32 4.627-28.765 9.1-43.981 9.813-3.607-.354-6.879-1.334-8.879-4.711 3.585-35.122-4.544-70.016-1.793-105.222 1.272-15.925 3.523-31.1 10.964-45.294 4.669-3.338.5-9.9 4.856-13.341q2.085-4.69 4.169-9.359c10.589-18.072 28.995-20.573 47.067-22.929a217.64 217.64 0 0 1 54.362.25c6.778.855 13.528 1.9 20.3.354 8.338-1.9 16.9-4.023 18.76-13.883s-4.836-15.342-12.319-19.677c-9.9-5.753-20.84-9.13-31.684-12.319-29.787-8.8-48.964-27.1-51.569-58.947-2.292-28.181 16.675-55.383 45.858-68.786h.1c1.626-1.083 3.273-2.084 4.94-3.085a1073.85 1073.85 0 0 1 131.317-24.362c34.434-4.169 68.6-10.61 102.929-15.8q21.261-3.127 42.668-5.5l96.843-10.235c27.719-3.338 55.3-7.754 82.94-11.652l74.018-10.42 96.511-12.736c14.216-1.855 28.536-2.251 42.814-4.44 21.594-3.314 43.773-2.919 65.347-6.373 31.5-5.024 63.471-2.084 94.883-7.337a116.36 116.36 0 0 1 18.114-.667q40.87-.291 81.731-.438c44.628-.167 88.984 4.047 133.4 7.817 54.195 4.627 107.74 13.987 161.357 22.929l129.794 19.843c37.9 6.608 75.435 15.276 113.122 23.158 8.692 1.834 14.133 5.795 15.55 16.258a336.31 336.31 0 0 1-2.084 108.265 48.395 48.395 0 0 1-3.606 10.714c-1.5 3.4-3.605 6.524-5.983 10.735-13.923-5.982-27.222-13.778-42.877-10.109a20.7 20.7 0 0 1-17.2 9.567c-83.376 3.939-161.876 30.892-241.5 52.111-42 11.256-84.357 18.76-127.858 16.675-44.669-2.084-87.546 5.608-129.109 21.2-80.459 30.391-160.96 31.2-243.19 7.108-78.979-23.137-159.334-32.413-242.439-25.013-53.945 4.836-108.64-4.711-162.856-10.109-23.429-2.335-46.839-3.835-70.057 1.5a73.14 73.14 0 0 0-23.116 9.234c-10.86 6.921-18.906 16.175-16.863 29.766s13.215 18.007 24.721 20.01c69.484 12.085 137.228 31.742 206.098 46.453 37.062 7.9 73.58 17.906 110.472 26.785 14.237 3.44 26.808 10.276 39.02 17.988a422.87 422.87 0 0 0 178.757 62.533c55.2 6.253 109.724-4.957 163.836-16.926 97.572-21.594 192.726-53.632 291.819-68.6 100.928-15.237 201.835-20.678 302.242 5.211 34.664 8.942 67.535 22.636 100.051 36.978 20.536 9.046 40.73 15.613 63.388 14.278 8.755-.521 18.489-1.355 25.013 7.233-6.879 4.293-14.591 2.98-22.032 3.231-8.338.291-16.676.313-24.886.417a39.086 39.086 0 0 0-17.3 4.755c-14.32 7.254-16.946 18.552-6.858 31.267a64.49 64.49 0 0 0 35.435 23.053c28.265 7.295 57.009 7.233 85.336 2.439 20.99-3.541 42.126-2.292 63.053-5.4 8.983-1.334 17.718 2.522 26.035 6.373a197.56 197.56 0 0 1 35.248 20.24 63.91 63.91 0 0 0 42.313 12.715c14.091-.458 28.682-3.251 42.127 4.169-4.169 5.419-10.547 6.566-16.342 5.795-22.155-2.9-28.1 8.5-29.87 28.368-4.169 46.295-28.807 83.377-58.364 117.166-11.11 12.777-18.551 27.285-26.743 41.689-5.17 9.089-9.484 18.99-18.76 25.013l-90.13-29.974c-27.1-9.4-54.528-17.759-82.46-24.722-25.138-6.253-49.693-3.772-74.1 1.751-23.637 5.336-45.857 15.466-67.723 25.555a122.86 122.86 0 0 0-36.832 26.451c-11.11 11.381-22.929 22.011-33.58 33.809s-23.387 15.883-38.729 12.9a20.12 20.12 0 0 1-2.251-.292c-19.051-5.586-37.082-.938-55.633 3.857a101.4 101.4 0 0 0-46.692 26.43 33.3 33.3 0 0 0-3.251 3.169c-11.8 15.362-27.244 20.573-46.024 16.675m-668.93 508.8c6.879.751 13.278 1.688 16.842 9.255s8.818 14.111 12.342 21.573c14.945 31.829 35.873 58.865 60.092 84.42 20.657 21.8 40.688 44.44 60.448 67.2 28.7 33.06 59.844 64.18 100.24 83.669a18.904 18.904 0 0 1 4 2.085c30.579 25.346 66.931 25.263 103.471 22.762a81.29 81.29 0 0 0 47.337-19.843c14.591-12.382 26.889-26.577 31.057-46.131a21.144 21.144 0 0 1 1.922-6.5c12.382-21.032 9.964-44.231 7.149-66.41-2.226-17.675-9.712-34.747-15.154-51.985-2.084-6.461-4.815-12.673-7.338-18.99a47.75 47.75 0 0 0-12.232-18.866c-1.688-1.5-3.168-3.251-4.815-4.794-42.668-39.6-72.955-87.962-100.532-138.635-13.028-23.992-25.013-48.171-32.538-74.393-7.358-25.367-13.778-50.631-13.111-77.645a127.96 127.96 0 0 1 24.826-73.705c5.564-7.733 14.007-11.381 20.84-17.154 22.3-18.76 48.5-31.391 75.227-41.275 25.951-9.567 53.8-14.07 80.938-20.26 13.174-3.023 26.972-3.564 39.859-7.4 36.873-10.964 73.81-22.137 103.742-48.3 2.63-2.314 6.858-2.814 10.42-4.169l26.827 11.882c28.786 12.381 57.927 15.073 88.192 4.94s60.824-9.813 89.88 5.711a278.247 278.247 0 0 0 83.377 27.889 187.35 187.35 0 0 1 28.515 7.025c47.75 16.676 95.07 12.507 142.179-2.481 32.288-10.276 64.158-21.74 94.549-36.895 7.486 7.233 3.856 15.633 1.922 23.429-19.156 77.124-37.52 154.247-63.241 229.662-17.363 50.922-42.544 97.28-80.585 135.071a241.17 241.17 0 0 1-100.532 59.823 404.15 404.15 0 0 1-55.091 13.612c-29.182 4.564-52.465 18.385-71.827 39.9-2.439 2.314-4.9 4.586-7.149 7.108-1.4 1.814-2.9 3.5-4.46 5.169a23.46 23.46 0 0 1-5.524 4.169l-3.338 1.271c-8.817.354-10.818-6.879-9.276-12.11 10.756-36.435 12.361-75.414 30.078-109.912 5.606-8.8 14.591-12.778 23.721-16.676 26.618-10.985 54.195-19.281 81.084-29.453 36.1-13.673 64.618-33.768 70.224-77.124 7.9-60.156 36.6-115.373 44.773-175.716 1.126-8.213 2.9-16.362 4.169-24.575-22.553 20.469-48.5 35.873-73.538 52.486a145.77 145.77 0 0 0-36.812 36.394c-47.233 64.117-83.106 133.528-100.949 211.549-1.938 8.484-6.65 15.112-11.506 21.844-8.775 10.047-21.156 14.365-32.392 20.511-48.775 26.6-100.261 53.111-127.275 102.866-36.79 67.722-80.583 134.632-75.581 217.551a32.44 32.44 0 0 1-2.71 15.55c-53.718 30.62-111.955 47.942-172.549 57.947-6.628 1.1-13.4-1.834-19.615-4.815a240.26 240.26 0 0 1-32.287-21.032c-4.878-3.606-9.712-7.8-15.925-8.338-54.778-4.731-94.091-40.042-131.965-72.955a1036.243 1036.243 0 0 1-159.087-173.863c-12.132-16.676-29.411-22.929-48.171-27.1-11.068-2.439-22.491-3.689-31.766-11.128a19.4 19.4 0 0 1-3.668-4.94c-1.584-3.523-2.606-7.3-3.877-10.943a39.19 39.19 0 0 1-1.605-5.107 84.81 84.81 0 0 0-3.085-9.8 38.74 38.74 0 0 1-1.584-4.773c-.73-2.4-1.416-4.815-2.084-7.233l-.521-2.481a4.856 4.856 0 0 1 2.084-4.169c19.929-9.611 41.313-12.8 63.075-14.365" fill="#655c56"/><path d="M1265.118 4392.49c18.572 7.688 37.269 5.065 55.258-1.042 44.252-14.987 89.234-27.91 132.444-45.857 1.293-.542 2.084-2.084 3.273-3.043a45.54 45.54 0 0 1 12.319-9.859c46.192-22.365 81.293-57.342 110.829-98.343a66.684 66.684 0 0 1 8.609-10.547c26.972-24.684 50.3-52.111 66.222-85.462 5.857-12.277 15.654-22.115 24.785-32.162 1.5-1.5 2.981-3.023 4.419-4.564a51.73 51.73 0 0 0 .167-4.4c1.5-1.563 3.064-3.086 4.523-4.711 9.338-9.651 18.551-19.511 29.682-27.1a86.73 86.73 0 0 1 32.892-14.216c26.6-5.211 52.944-11.9 79.212-18.948 8.609-2.314 16.4-7.688 24.617-11.568 20.615-9.776 39.146-23.116 57.029-36.811 11.694-8.963 19.886-22.512 29.577-34.039a34.42 34.42 0 0 0 2.252-3.939c6.8-10.943 18.759-17.572 23.971-29.954 15.759-37.52 34.1-74.164 43.586-114.122a136.4 136.4 0 0 1 4.356-15.216c14.591-40.521 23.992-82.418 32.726-124.523 3.982-19.155 10.42-37.791 15.4-56.738a91.33 91.33 0 0 0 1.605-13.382 126.48 126.48 0 0 0 11.964-9.777c11.09-11.36 24.409-9.942 37.374-5.878 8.338 2.585 16.675 5.857 23.617 11.8-3.481 1.188-7.567 1.315-9.338 5.463-2.96 6.962-6.253 13.758-8.818 20.84l-18.135 53.718c-16.341 52.756-37.915 103.617-57.029 155.352a273.03 273.03 0 0 1-24.28 48.713 374.945 374.945 0 0 0-34.2 71.5c-14.591 41.251-43.773 67.7-80.584 88.192-24.138 13.4-50.61 19.739-76.5 27.952l-45.5 13.859c-22.929 7.338-41.983 19.843-56.53 39.6-16.529 22.532-34.185 44.209-51.61 66.077-16.091 20.24-28.64 42.648-40.769 65.326l-31.267 57.906c-21.3 36.936-52.3 62.511-92.174 76.77-47.733 17.009-96.654 29.828-146.1 40.834-13.986 3.106-27.682 7.525-41.459 11.548-22.491 6.545-45.337 11.506-68.119 16.863-25.013 5.878-46.441-1.146-66.7-13.506a142.55 142.55 0 0 1-27.932-22.929 247.8 247.8 0 0 0-54.07-41.376 229.8 229.8 0 0 1-49.65-39.229 276.29 276.29 0 0 0-62.823-47.942c-40.73-23.324-79.375-50.027-111.663-84.732-12.342-13.236-23.47-27.618-35.1-41.542-1.922-2.314-3.168-5.336-5.4-7.233-15.175-12.715-22.762-30-28.765-47.942-7.129-21.447-16.134-42.335-20.553-64.618l21.8.271c6.253-2.5 12.507-3.168 18.468.48 2.772 2.439 1.855 6.691 4.565 9.15v4.4c2.772 2.459 1.667 6.778 4.46 9.213v4.419c2.772 2.459 1.688 6.778 4.46 9.234v4.4c18.947 24.722 31.474 53.32 47.942 79.646 22.616 36.352 50.589 65.284 90.172 83.377 48.817 22.22 85.128 62.845 129.964 91.068 37.978 23.929 76.374 46.754 122.835 49.5 10.193.607 18.031 7.212 27.348 9.984m877.676-977.598c1.459-4.169 2.085-9.067 4.5-12.611 8.338-11.836 14.591-24.742 20.7-37.644 4.047-8.462 10.42-14.737 17.05-20.84a95.2 95.2 0 0 0 22.721-30.7 86.73 86.73 0 0 1 11.859-19.177c10.881-13.4 15.634-29.286 18.115-45.625 2.084-13.319 6.524-26.263 5.441-40.188-.625-8.171 2.376-10.42 11.214-10.63 12.82-.417 25.681-.334 38.5-.458 10.005.938 19.99 2.084 28.348 8.442-4.169 1.25-9.046 1.6-10.42 7.192-.708 2.919-2.084 5.69-2.71 8.651-5.4 29.6-21.032 54.612-34.914 80.628-18.614 34.894-42.564 65.91-66.2 97.238-3.648 4.836-6.858 9.964-10.276 14.945-1.5 2.209-.708 4.169.438 6.253-18.76 4.9-36.686.729-54.383-5.362" class="G"/><path d="M269.364 2951.813c0 5.294.959 10.88-.354 15.821-7.8 29.182-3.46 58.739-3.273 88.046 0 12.507 4.773 25.013 3.46 38.062-.562 5.649-4.46 7.358-9.026 8.588-7.817-2.376-15.863-4.169-22.449-9.547 0-4.377-.167-8.775-.271-13.151 2.084-34.1 10.026-67.452 13.236-101.428a28.31 28.31 0 0 1 14.174-21.97l4.5-4.419m-49.378 131.88c3.106 2.335 7.025 3.835 8.338 8.046-7.8-.313-8.087-.584-8.338-8.046" fill="#49423c"/><path d="M460.527 3438.838a9.319 9.319 0 0 0 4.377 8.692c57.509 83.732 111.538 169.485 141.219 267.619 10.131 33.5 30.579 56.634 58.218 75.206a86.12 86.12 0 0 1 18.885 16.029 57.09 57.09 0 0 0 6.837 8.505l38.625 32.474c21.866 17.009 36.665 39.859 51.131 62.8 6.461 10.276 5.628 10.8-5.336 14.424l-17.551-9.193-32.87-17.316c3.085-2.793 4.482-5.962 2.084-9.9-4.731-7.713-8.629-16.134-14.4-22.929-15.112-17.926-31.537-34.705-51.652-47.212-8.963-5.564-18.259-10.734-29.182-11.9a29.85 29.85 0 0 1-4.4-1.022c-41.685-11.084-44.669-13.4-60.219-58.531-9.568-27.765-17.926-56.009-27.306-83.9-6.98-20.719-12.861-41.689-19.155-62.741-4.794-15.984-12.631-30.412-20.7-45.044-15.3-27.743-29.182-56.4-42.167-85.273-5.107-11.214-10.735-21.512-19.3-30.224l22.863-.564" class="G"/><path d="M774.378 3924.593c2.481-.9 7.379-1.188 5.252-4.773a339.05 339.05 0 0 0-37.52-52.111 88.064 88.064 0 0 1-13.445-20.3c1.498-.055 2.996.12 4.44.521 23.158 10.735 46.462 21.095 67.869 35.248a83.75 83.75 0 0 1 18.28 16.529c11.444 13.84 22.261 28.181 33.351 42.4 3.5 4.523 2.355 6.253-6.107 10.218-25.347-5.753-50.193-12.8-72.038-27.639" fill="#655d57"/><path d="m833.096 4038.173-18.468-.48c5.649-3.961 12.006-4.523 18.593-3.961q0 2.226-.125 4.44" class="I"/><path d="M2034.141 3093.825c-14.3-2.459-28.724-1.292-43.043-.938a60.216 60.216 0 0 1-30.538-6.691c-24.825-12.949-51.527-21.512-77.332-32.162-29.516-12.215-61.031-16.134-91.569-24.117-21.245.9-41.689-6.524-63.033-5.482-21.929 1.063-43.919.1-65.889.292a275.533 275.533 0 0 0-45.023 3.293 456.42 456.42 0 0 1-47.067 5.252c-24.158 1.793-47.692 6.837-71.288 11.256-25.889 4.877-51.173 12.9-76.811 18.634-29.411 6.566-57.989 16.49-87.817 21.115a9.84 9.84 0 0 0-2.225.438c-29.432 12.507-61.345 15.2-92.027 22.741-26.972 6.65-54.466 11.235-81.772 16.675a16.673 16.673 0 0 1-8.984 0c-13.445-5.607-26.493-2.709-39.916.146-12.882 2.752-25.409-1.922-38-4.169a533.294 533.294 0 0 1-102.139-28.932c-26.264-10.319-50.339-24.2-74.206-38.707a81.856 81.856 0 0 0-24.785-10.42c-31.563-7.316-62.887-15.717-94.386-23.346l-142.888-33.768-46.295-10.42a169.847 169.847 0 0 0-28.911-4.815c-11.3-.521-22.137-3.668-30.933-12.069-7.486-7.149-9.588-15.487-6.754-24.785 4.4-14.383 13.111-25.409 27.765-30.725 15.654-5.649 31.266-10.589 48.525-9.443 18.031 1.188 36.186-1.167 54.049 4.169 6.253 1.876 13.549.521 20.364.607 7.546 0 15.074-.146 22.408 2.563 8.734 3.231 18.007 1.647 27.1 1.9 15.821.458 31.454.334 47.3 3.607a102.133 102.133 0 0 0 40.6-.083c15.112-3.21 30-3.023 45.044-3.356 7.566-.187 15.153 0 22.72-.1 32.6-.5 64.409 5.69 96.363 10.819 41 6.545 80.4 19.739 120.891 28.348a303.2 303.2 0 0 0 107.828 3.064c33.89-4.94 66.161-14.882 98.323-25.681 33.164-11.11 66.827-18.447 102.136-16.675 11.318.562 22.7.146 34.059.187 34.185.125 67.307-6.5 100.22-15.092 39.417-10.276 78.354-22.2 117.6-32.98 26.743-7.337 54.758-9.838 81.9-15.946 16.466-3.711 32.871-3.961 49.463-4.46 5.92-.187 11.777-2.376 17.655-3.648 1.188 4.836 4.731 7.4 9.026 9.213 12.027 5.107 21.052 14.091 29.932 23.242 4.731 4.877 9.276 9.813 9.859 17.134.729 9.255 6.691 14.424 14.4 18.53s15.507 8.983 23.137 13.695a32.71 32.71 0 0 1 12.507 12.653c58.926 20.073 120.9 22.574 181.741 32.058a2.63 2.63 0 0 0 4.44 0c8.859-9.088 3.668-18.2 0-27.306-8.692-17.321-10.192-36.248-10.631-55.008-.625-26.41-1.48-52.882.771-79.212a42.71 42.71 0 0 1 8.963-22.929c8.713-8.567 17.05-2.813 24.637 1.584 21.657 12.507 41.855 27.327 58.364 46.191 22.032 25.013 17.28 49.065-12.006 64.784-8.671 4.649-17.988 8-26.513 12.9-6.691 3.856-13.151 8.338-12.714 17.2.5 9.63 7.336 14.591 15.383 17.8a148 148 0 0 0 42.047 8.857c51.735 4.169 81.876 37.835 107.848 77.478 1.272 1.922.521 4.356-.438 6.461-15.029 11.36-31.1 21.574-44.878 34.289-24.513 22.661-52.819 23.7-82.793 17.551-11.048-2.272-21.594-6.691-32.934-8.338-20.385-2.939-39.229.167-55.843 12.861-9.838 7.546-20.052 13.612-33.121 12.152" class="G"/><path d="M2283.708 3025.286c-14.591-19.239-29.724-37.937-47.337-54.57-6.754-6.373-13.924-11.548-22.929-14.07-13.715-3.877-26.764-9.172-41.689-9.813-14.028-.625-28.161-4.755-41.689-9s-20.386-15.4-19.406-27.222c.375-4.836 2.084-9.15 6.253-11.36 6.67-3.44 11.9-8.983 19.448-11.381a150.43 150.43 0 0 0 24.7-11.277c18.364-9.758 23.411-28.851 11.111-45.624a141.92 141.92 0 0 0-23.571-24.409c-12.673-10.63-26.2-20.281-39.6-29.933a29.784 29.784 0 0 0-16.675-6.461c-.417-8.338 4.169-7.045 9.255-4.877 36.956 12.861 75.165 21.866 111.517 36.686a329.07 329.07 0 0 1 83.815 48.547 34.6 34.6 0 0 1 13.736 27.389l.146 20.364c0 6.024-.875 12.36.625 18.031 5.482 20.84 3.147 41.983 3.522 63.012.167 8.338.438 16.571-2.667 24.576a10.63 10.63 0 0 0 3.043 12.342c-10.005 4.814-20.84 7.087-31.563 9.067" class="U"/><path d="M1924.649 2879.892c-14.237 6.253-29.578 3.815-44.4 5.482-3.251.375-9.026-1.73-9.964-4.169-4.731-12.048-14.82-22.741-9.693-37.52 11.693-33.913 15.424-68.953 14.174-104.721a313.148 313.148 0 0 0-8.068-58.047c-.646-2.919-1.709-5.816 1.083-9.484l28.765 10.42a214.7 214.7 0 0 0 90.757 14.966c6.023-.271 12.048 0 18.072 0l1.922 2.63c-3.939 19.385-12.048 36.52-27.1 49.88-11.4 4.169-25.013 4.169-31.641 17.1-.855 1.584-1.751 3.189-2.522 4.794a17.6 17.6 0 0 0-.479 7.587c.625 2.522 1.25 5.024 2.084 7.5a64.455 64.455 0 0 0 3.793 7.233 16.36 16.36 0 0 1 2.566 11.279 216.93 216.93 0 0 1-33.746 54.758c-9.13 10.943-4.649 15.237 4.4 20.364" class="V"/><path d="M369.126 2733.366c-11.527 10.672-23.571 20.677-31.621 34.727-12.509 21.762-11.839 45.862 3.062 65.679a49.716 49.716 0 0 0 25.471 17.968c9.339 2.919 18.76 5.857 27.848 9.276 7.045 2.63 13.859 5.857 20.657 9.089 9.15 4.377 13.151 12.507 13.151 21.991s-7.566 16.112-18.76 19.26a69.439 69.439 0 0 1-30.766 1.1c-26.1-4.047-52.528-1.751-78.4 4.419-8.338 1.98-14.153 8.462-21.47 12.3 3.939-14.341 13.382-25.013 23.533-35.164l19.221-19.114a4.4 4.4 0 0 0 .125-4.065 5.71 5.71 0 0 0-3.523-2.4 10.177 10.177 0 0 0-4.356.438c-4.169.875-8.5 5.441-12.507 1.938a28.81 28.81 0 0 1-7.024-11.235c-8.338-21.095-12.694-42.981-16.008-65.472-2.563-17.321 3.5-26.18 17.634-33.851 23.324-12.631 46.858-24.1 73.705-26.809" class="G"/><path d="M2051.673 2692.636c17.885-6.024 37.127-5.362 57.092-13.86-2.63 10.026-7.775 15.258-11.444 21.245a283.48 283.48 0 0 0-38.038 96.155c-4.4 23.283-3.815 46.566-1.4 69.849 1.293 12.715 4.169 25.243 6.254 37.874.584 3.607 1.5 7.358-1.71 11.381a45.308 45.308 0 0 1-7.879-2.918 205.75 205.75 0 0 0-69.8-25.242 57.665 57.665 0 0 1-10.568-3.9c-6.253-11.256 2.9-18.76 7.587-26.451 30.078-49.526 50.756-102.866 65.826-158.583a28.28 28.28 0 0 1 4.169-5.545m-1872.278 78.558 12.8-1.876c18.093-2.084 33.351-11.194 48.921-19.594 7.688-4.169 14.4-10.42 23.7-11.339-4.047 46.566 2.314 91.381 23.47 133.4 3.752 7.462 2.459 12.132-2.563 17.926a174.36 174.36 0 0 0-14.237 20.219c-3.961 6.253-9.339 6.754-15.654 5-14.945-19.448-32.517-36.561-48.8-54.841a10.23 10.23 0 0 1-2.606-5.441c2.084-8.338 9.255-15.613 4.981-25.2-6.441-18.2-21.74-4.523-31.975-8.922-10.776-16.112-21.245-32.559-40.313-40.5-1.1-2.226-.562-3.815 1.876-4.607 10.42-.313 20.84.751 31.266-1.98 3-.959 6.253-1.146 9.213-2.272" class="V"/><path d="M210.521 2925.529c-23.825 3.085-43.564 15.237-62.8 28.427-3.648 2.5-7 5.4-10.131 7.837-5.9-2.084-4.169-6.4-4.169-9.693a342.251 342.251 0 0 0-3.607-58.364c-6.253-39.229-25.284-71.683-50.965-100.949a23.7 23.7 0 0 1-4.607-4.755c-3.44-2.96-10.068-5.148-2.564-10.693 13.319-.667 26.66-.23 39.96-.271 8.963 2.292 9.611 10.88 12.715 17.363 16.676 34.789 37.52 66.806 60.449 97.739 8.713 11.756 21.887 18.113 30.933 29.182l-5.419 4.169" fill="#838c93"/><path d="M2083.356 2956.42c-14.278 7.358-29.182 5.649-44.023 2.71-13.194-2.63-25.993-7.358-39.208-9.712-12.236-2.084-24.2-6.253-37.373-2.668-12.735 3.5-25.8-1.4-36.978-6.608-8.338-3.877-18.072-7.566-24.158-15.782 8.9-1.938 8.9-1.938 8.818-13.236-.607-8.859 6.566-9.942 12.006-9.838 54.883 1 107.452 9.964 151.5 46.42l9.421 8.713" class="U"/><path d="M2051.53 2697.488c-.458 5.211 0 10.735-1.517 15.613-15.508 48.775-33.081 96.634-60.115 140.574-5.816 9.421-13.132 18.322-15.782 29.54h-9.089c-24.742-3.856-25.326-5.044-12.506-27.639 9.671-17.071 21.469-33.081 26.035-52.673 2.084-6.441 6.253-11.652 9.776-17.176 15.276-26.951 24.1-57.029 40.438-83.377a22.922 22.922 0 0 1 4.815-4.273 45.704 45.704 0 0 1 5.94-2.4c4.169 0 8.5-1.439 12.069 2.084" fill="#afb8c0"/><path d="M264.86 2956.23c0 4.711-2.084 8.462-4.669 12.3a20.538 20.538 0 0 0-3.961 10.172c0 19.406-7.253 38.124-4.957 57.739.979 8.484-.751 17.009-7.275 22.679s-5.879 13.215-6.545 20.49c-5.4-5.545-3.961-12.611-4.047-19.221a606.58 606.58 0 0 0-11.257-107.011 23.537 23.537 0 0 1 1.855-15.029 62.326 62.326 0 0 1 36.686-8.963c-.668 5.712-1.085 11.464-2.085 17.113s1.877 7.941 6.253 9.734" fill="#3c3631"/><path d="M215.939 2921.381a32.765 32.765 0 0 1-21.679-10.109c-13.632-14.09-24.867-29.953-35.727-46.045a507.3 507.3 0 0 1-38.249-66.1c-2.876-6.107-6.253-12.069-5.086-19.24 2.689-4.4 7.045-2.376 10.756-2.772 1.943.386 3.81 1.09 5.524 2.084a23.7 23.7 0 0 1 4.293 4c2.689 4.023 5.232 8.15 8.338 11.943a49.02 49.02 0 0 1 3.44 4.877c9.526 14.174 17.864 29.182 29.182 42.084a44.61 44.61 0 0 1 4.169 4.523c2.418 3.356 4.419 6.941 6.524 10.42 9 15.4 20.448 29.034 31.159 43.189 4.169 5.463 11.652 10.42 5.419 19.094l-8 2.084" fill="#afb8c0"/><path d="M1924.646 2879.901c-6.254-2.585-13.529 1.126-20.638-3.127 4.377-14.8 16.946-24.409 24.242-37.29s15.717-25.7 23.617-38.52a12.269 12.269 0 0 1 6.462-1.126c18.426 2.376 20.719 11.068 11.005 25.951-12.256 18.76-20.84 40.125-40.5 53.32l-2.084.834z" fill="#adb6be"/><path d="M1905.846 2902.247c-2.833-1.272-5.665-3.064-5.3-6.373.271-2.459 3.231-2.668 5.482-2.814 53.986-3.523 105.413 4.836 152.476 33.164l5.857 3.46c.167 7.171-4.877 7.149-8.859 5.044-46.9-24.763-97.843-30.536-149.661-32.474" fill="#3b484c"/><path d="M2101.614 2765.28c-3.689.458-7.4.918-9.254 4.877a96.46 96.46 0 0 0-9.046 46.149c.625 16.675 0 33.351 0 49.9 0 12.048 0 23.976 3.251 35.956 2.272 8.546 1 18.007 1.315 27.1a24.72 24.72 0 0 1-13.424-13.987c5.608-13.632-.5-26.556-2.418-39.749v-66.2c4.755-16.2 0-35.435 15.57-48.171 5.044 0 10.42-.875 13.9 4.169" class="S"/><path d="M206.768 2857.828a11.255 11.255 0 0 1 11.819 5c10.047 15.3 23.429 27.556 36.394 40.162 4.169 4.047 3.607 7.754.938 11.965l-13.758.354c-24.158-5.441-32.413-27.765-45.587-44.31-6.253-7.963 0-13.9 10.193-13.174" fill="#aeb8c0"/><path d="M1928.838 2879.108a83.99 83.99 0 0 1 11.965-19.031c12.193-15.32 21.447-32.517 30.87-49.276-4.169-6-12.631-2.084-15.675-8.546 8.8-7.817 17.822-7.713 27.1-.729 1.188 15.487-8.922 26.785-15.175 39.375-5.628 11.34-13.007 21.824-19.843 33.059 3.541 7.713 13.528 2.752 17.03 9.193-12.507 1.98-24.117-2.71-36.186-4.047" fill="#879198"/><path d="M1905.846 2902.247c17.343 0 34.914-1.855 51.985.291 29.807 3.752 59.156 10.589 86.775 23.22 4.794 2.188 9.443 4.711 14.32 6.628a4.4 4.4 0 0 0 5.44-2.71c9.422 2.689 10.42 9.859 9.588 18.03-12.507-2.814-23.617-9.484-34.538-15.737-19.886-11.36-41.876-15.925-63.68-20.052-17.363-3.294-35.059-7.486-53.212-5.295-4.5.542-8.963.5-12.09 4.5-3.481-1.96-4.169-5.315-4.586-8.879" fill="#1c1919"/><path d="m206.768 2857.827-5.524 3.939c-3.127 1.922-4.356 4.957-1.938 7.442 14.591 15.029 25.2 33.872 42.855 46.108l-18.218 4.169c0-5.69-3.856-9.255-7.088-13.361-10.943-13.961-21.548-28.16-32.079-42.418-1.23-1.647-1.25-4.169-1.814-6.253 7.337-7.546 14.966-7.4 22.929-.918z" fill="#869198"/><path d="M2033.48 2702.016q-18.4 40.668-36.936 81.293a23.774 23.774 0 0 1-4.168 4.981c-6.024-5.836-5.4-12.965-4.047-20.26 9.712-22.178 19.823-44.209 33.6-64.972-3.293-2.772-10.42.354-14.237-4.648a8.052 8.052 0 0 0-2.226-1.5c10.547-4.523 21.573-3.856 32.621-3.231 1.376.809 1.834 1.647 1.376 2.481s-.917 1.25-1.376 1.25l-.25.25a59.6 59.6 0 0 0-4.273 4.315" fill="#929aa1"/><path d="M2087.716 2761.129a70.868 70.868 0 0 0-8.963 33.538c-.188 4.523-.48 8.922-4.169 12.194-3.689-1.96-1.563-6.754-4.46-9.089 4.169-26.118 11.151-51.256 26.808-73.184 1.042 6.732-1.855 12.507-4.169 18.593a100.53 100.53 0 0 0-.417 4.169c-2.772 2.459-1.709 6.691-4.169 9.255 0 1.5-.23 3-.354 4.482" fill="#2e3336"/><path d="M2070.103 2797.775c3.627 2.084 3.961 5.564 4.46 9.088q-.25 36.165-.458 72.351c-1.4 1.517-2.669 1.439-3.856-.23-1.188-27.1-2.084-54.195-.146-81.293" fill="#404549"/><path d="M2070.248 2878.984c1.272.146 2.564.208 3.856.23 7.066 11.943 6.962 23.95.4 36.04 1.688-12.507-5.148-23.908-4.169-36.269" fill="#2a2c2f"/><path d="M2037.997 2697.452v-3.731l13.673-1.083-.146 4.856h-13.527" class="W"/><path d="M274.199 2938.535c0 5.024.688 10.319-4.856 13.341 0-5.086 0-10.109 4.856-13.341" fill="#49423c"/><path d="M2097.306 2716.106c4.981 3.21 4.023 6.045-.521 8.671l.521-8.671" fill="#30383b"/><path d="M2087.859 2956.524c-1.517 3.085-3 3.168-4.44 0a17.59 17.59 0 0 1 4.44 0" class="U"/><path d="m374.172 2730.345-4.94 3.085a4.46 4.46 0 0 1 4.94-3.084" class="G"/><path d="M2088.066 2756.649c-.167-3.815.584-7.191 4.169-9.255.1 3.772-.771 7.108-4.169 9.255" class="S"/><g class="K"><path d="m68.822 2779.244 5.545 8.864-5.419.187-4.023-3.919v-4.981a2.25 2.25 0 0 1 3.877-.146"/><path d="M74.282 2788.062a6.46 6.46 0 0 1 4.607 4.755 6.42 6.42 0 0 1-4.607-4.755"/></g><path d="M205.789 2942.955c2.226-3.919 5.816-4.607 9.88-4.169a11.693 11.693 0 0 1-9.88 4.169" fill="#3c3631"/><path d="m164.537 2965.425-1.459-1.23 1.647 1.146h-.187" class="H"/><path d="M68.821 2779.244a34.42 34.42 0 0 1-3.877.146 10.193 10.193 0 0 1 9.484-4.607l64.618.667a10.593 10.593 0 0 0-2.084 3.064 3.835 3.835 0 0 1-3.627 2.96 9.86 9.86 0 0 1-4.856-1.626l-13.424.1-46.379-.708" fill="#262e2f"/><path d="M179.483 2771.197a9.693 9.693 0 0 1-9.234 2.272c2.5-3.127 5.773-3.085 9.234-2.272" class="T"/><path d="M683.122 3806.385c-14.591-5.983-28.682-13.05-40.1-24.346l-17.634-17.675a86.86 86.86 0 0 1-21.032-36.52 654.18 654.18 0 0 0-29.54-80.667c-14.821-33.182-33.351-64.325-49.651-96.593-11.193-22.054-26.66-41.96-40.48-62.658-8.338-12.631-15.737-25.7-19.865-40.4 12.861 4.815 24.2 12.4 35.435 20.01 18.135 12.277 36.061 24.742 55.759 34.622 18.614 9.338 32.767 23.7 43.564 41.689a465.73 465.73 0 0 1 37.29 74.852c2.919 7.754 6.253 15.383 9.611 22.929 7.212 15.925 11.09 32.747 14.029 49.88 3.314 19.26 5.649 38.812 10.86 57.55 4.169 14.591 6.921 29.182 10.964 43.773 1.188 4.169.584 8.983.809 13.508" fill="#655c56"/><path d="M1222.778 2815.597h-204.373c-9.8 0-19.511.271-29.182-2.96-5.545-1.834-11.943-1.167-17.989-1.4-23.3-.938-46.629 1.355-69.974-3.9-12.965-2.919-27.1-.5-40.751-.771-15.8-.291-31.7 1.48-47.254-3.731-4.794-1.605-10.42-.562-15.8-.751-26.347-.875-52.715 1.667-79.042-3.9-13.05-2.772-27.1-1.1-40.769-.5a30.16 30.16 0 0 1-25.951-11.068c-4.44-5.148-9.734-9.567-14.111-14.758-5.586-6.608-5.982-14.341-.688-20.719 11.944-14.341 26.2-25.013 45.754-26.389 3.023-.208 6.461.417 8.963-.809 17.384-8.629 36.706-9.1 55.091-11.318 20.84-2.481 41.689-6.98 62.908-6.253 18.031.584 36.227 1.814 54.049-3.689 5.564-1.71 12.027-.5 18.072-.607 9.067-.167 18.007 0 26.931-2.9 5.564-1.814 11.943-1.459 17.947-1.517l61.324-.167c15.8-.187 31.7 1.416 47.254-3.711 4.815-1.584 10.42-.48 15.8-.708 27.848-1.23 55.944 2.939 83.523-4.315 4.169-1.126 9.047-.23 13.569-.354 17.321-.48 34.456 0 51.84-3.5 15.32-3.023 31.664-1 47.547-.875s31.454-.187 47.3 3.377c12.277 2.772 25.618.771 38.479 1.063 12.027.291 24.117-1.214 35.936 3.294a20.84 20.84 0 0 0 13.361.23c14.028-5.044 28.427-3.189 42.71-3.46 13.633-.23 27.265 0 40.875 0 4.544 0 9.443-.918 13.57.417 19.26 6.253 39.02 3.356 58.574 3.981 12.027.4 24.242-1.23 35.852 3.668a15.82 15.82 0 0 0 6.733.771c27.556-1.626 53.611 7.066 80.251 11.694 4.44.792 9.026 2.335 13.362 1.855 21.365-2.314 41.9 4.607 63.012 5.545 11.673.521 23.324 5.9 34.518 10.276 7.486 2.939 10.943 9.547 11.36 18.072.959 19.01-2.833 27.1-20.574 32.85-18.573 6.129-37.791 10.255-56.758 15.175-17.7 4.586-35.748 5-53.921 4.755-12.8-.167-25.618-.751-38.166 3.585-4.794 1.647-10.42.771-15.782.875-9.068.208-17.989 0-26.91 3-5.564 1.814-11.943 1.25-17.968 1.5-21.8.9-43.773-2.226-65.367 4.169-4.9 1.459-10.547.4-15.841.458a91.85 91.85 0 0 0-22.408 2.543 92.8 92.8 0 0 1-22.47 1.876q-102.137.187-204.4 0" class="G"/><path d="M2158.911 3295.701a8 8 0 0 1 5.607 8.588 6.25 6.25 0 0 1-7.88 5.712 6 6 0 0 1-4.586-6.754c.167-4.169 3.627-7.921 6.858-7.546" fill="#433c37"/><path d="M1678.79 4106.271c-.437 9.859-8.338 15.7-12.694 23.513-5.774 10.42-13.695 19.969-18.76 30.787a139.95 139.95 0 0 1-31.934 43.3c-17.592 16.446-32.453 35.268-47.484 54.195-28.786 36.29-63.329 66.514-107.431 83.815a19.71 19.71 0 0 1-4.46.688v-38.61c0-27.618 7.775-53.111 18.468-78.458 8.194-19.448 19.865-37.144 27.1-56.8 4.981-13.4 10.9-26.18 17.1-38.979a179.26 179.26 0 0 1 51.36-64.8c15.425-12.048 29.933-25.18 46.692-35.6a674.2 674.2 0 0 1 71.594-39.073 49.77 49.77 0 0 1 8.692-2.292c-4.4 20.219-10.131 40.272-12.82 60.719-2.084 15.782-10.734 29.182-12.673 44.715-.375 2.939-1.25 5.773-1.71 8.713-.646 4.169 1.355 5.17 8.963 4.169" class="I"/><path d="M1697.069 3987.981a683.07 683.07 0 0 1 36.5-116.415c8.338-20.24 17.676-40.083 30.12-58.364l45.232-67.869a91.19 91.19 0 0 1 26.847-27.1c29.432-19.552 59.343-38.458 86.482-60.74 7.129 3.961 1.085 8.484 1.922 12.507a27.09 27.09 0 0 1-.375 11.277c-8.9 38.833-15.362 78.228-30.286 115.644-6.9 17.364-10.172 36.248-14.445 54.591-3.752 16.091-6.649 32.413-9.859 48.651-1.272 6.441-5.732 10.776-10.42 14.383-20.84 16.029-41.688 31.745-68.306 38.746-32.121 8.484-62.533 22.3-93.4 34.581z" fill="#827a73"/><path d="M1265.11 4392.486c-18.927-5.211-38.9-3.231-57.906-8.629a277.64 277.64 0 0 1-34.039-12.11c-38.544-16.551-72.267-40.567-105.515-65.576-9.651-7.212-18.406-15.592-28.056-22.8-18.76-13.987-37.229-28.411-59.073-37.52-36.04-15.112-63.366-40.162-83.377-73.434-15.591-25.846-32.809-50.776-45.086-78.5-2.084-4.815-5.19-9.317-5.107-14.883a141.1 141.1 0 0 0 32.271 9.547c23.387 4.169 43.21 13.3 57.322 35.435 13.632 21.323 32.663 39.1 48.4 59.181 31.745 40.567 71.475 73.371 106.41 110.808 11.505 12.342 26.263 20.177 40.061 29.182 16.363 10.589 33.726 19.552 49.443 31.266 8.671 6.5 18.76 12.361 31.266 7.066 6.691-2.793 13.466 1.459 18.968 5.315 11.611 8.213 22.741 17.113 34.059 25.742" class="I"/><path d="M1460.054 3801.47a45.22 45.22 0 0 1 14.257-14.257 4.65 4.65 0 0 1 7.3 2.585 125.22 125.22 0 0 1 5.148 21.907c3.9 37.707 23.369 67.828 46.087 96.511 15.008 18.947 30.475 37.373 50.505 51.443 4.731 3.338 4.294 8.338-.438 10.714-6.712 3.4-13.3 7.941-20.99 7.9-22.116 0-43.106 6.253-64.618 10.235-3.085 1.9-4.919.334-6.253-2.085-1.606-1.167 3.541-2.96-.292-4.169a28.51 28.51 0 0 1-3.084 3.794 42.06 42.06 0 0 1-6.648 3.961 36.646 36.646 0 0 1-5.024 2.084 37.874 37.874 0 0 0-12.319 6.441 43.74 43.74 0 0 1-5 3.043c-7.198 3.364-14 7.517-20.281 12.382-14.2 6.545-20.84 23.7-37.687 26.577a8.34 8.34 0 0 1-5.232-3.5l-.479-3.251.646-3.231a32 32 0 0 1 2.668-5.9c32.683-36.435 60.448-49.4 151.14-70.266-1.376-7.963-9.046-11.339-12.653-17.238a165.878 165.878 0 0 0-18.572-23.7 58.592 58.592 0 0 1-3.5-4.94c-1.25-1.605-2.418-3.273-3.627-4.9-.688-.792-1.293-1.626-1.96-2.418a174.51 174.51 0 0 1-35.192-74.702c-1.438-6.691-2.772-13.3-8.859-17.572a11.88 11.88 0 0 1-5.044-7.486" fill="#110e0e"/><path d="m1460.056 3801.465 5.523 5.736c0 13.549-10.42 19.823-19.676 25.555-17.76 11.068-31.517 24.472-40.48 44.023-7.167 15.67-20.323 27.968-31.267 41.309-4.92 8.338-2.335 18.007-4.482 26.847-1.168 5.128-4.315 9.172-7.129 13.424-.855 1.875-1.834 3.668-2.856 5.463a52.88 52.88 0 0 1-7.253 10.279c-7.837 7.774-15.4 16.389-28.16 9.526-.607-5.378 3.772-7.754 6.566-11.173 10.652-13.028 18.76-27.1 21.447-44.231a74.731 74.731 0 0 1 19.117-40.311c21.115-22.929 31.913-50.922 34.956-81.876.607-6.107.271-12.507 8.8-13.278 12.882 5.795 8.338 17.488 9.421 27.806 4.649-.979 8.171-5.545 13.382-4.94 8.776-2.563 14.591-9.776 22.2-14.153" fill="#040404"/><path d="M1324.164 3983.622a21.3 21.3 0 0 0 18.99-7.192 70.445 70.445 0 0 1 8.212-6.628c11.152-.521 11.965 8.942 15.3 15.9 8.15 17.009 8.213 35.852 12.173 53.819 1.1 9.15 2.96 18.468-4.836 25.951-6.67-11.735-9.588-25.013-12.507-37.728-3.339-14.925-9.567-26.159-23.45-33.225-5.148-2.63-9.317-7.212-13.924-10.9" fill="#3c3732"/><path d="M1374.006 4065.479q.125-13.695.23-27.368c4.169-.521 7.5-.208 5.19 5.463 3.711-1.584 1.168-4.169.521-5.857-3.9-9.838-1.022-20.84-5-30.516-5.485-16.989-9.323-34.582-18.492-50.196l9.067-10.63a6.4 6.4 0 0 1 6.107.979 53.35 53.35 0 0 1 8.8 14.028c6.253 15.7 12.861 31.266 13.235 48.567 1.563 9.3-3.273 19.3 3.19 28.077l.125.125c3.919 4.544 3.023 9.172.271 13.859a11.59 11.59 0 0 0-4.523 4.92 124.605 124.605 0 0 1-9.172 9.859c-3.273 2.9-6.8 2.668-9.509-1.25" fill="#0e0e0f"/><path d="M1397.249 4052.014q-.167-6.941-.271-13.859c9.193-.125 13.424-7.733 19.385-12.8 6.483-5.482 10.9-13.987 20.84-14.591 7.462-5.107 16.4-7.713 23.3-13.736 5.274-4.669 12.507-5.463 18.28-9.13h-.117c2.647-2.459 6.92-1.771 9.254-4.836l4.755-3.815c1.438 1.083 1.875 2.084 1.334 3.127s-1.042 1.48-1.543 1.48l5 4.523c-8.838 8.609-21.323 10.42-31.5 16.842-18.343 11.694-37.229 22.387-53.528 37.062-4.377 3.939-10.047 6.441-15.133 9.611" class="L"/><path d="M1437.852 3815.62c-3.731 8.213-12.507 9.734-20.84 17.343l2.5-21.032a33.358 33.358 0 0 0-4.356-19.177c1.834-1.1 3.752-3.231 5.482-3.106 4.607.375 9.254 2.563 11.128 6.732a166.95 166.95 0 0 1 6.253 19.239" fill="#403732"/><path d="M842.249 4060.936c-3.564-2.084-4.4-5.463-4.46-9.213 3.689 2.084 4.46 5.441 4.46 9.213m4.542 13.655c-3.564-2.084-4.4-5.463-4.46-9.234 3.689 2.085 4.46 5.441 4.46 9.234m-8.984-27.267c-3.541-2.085-4.419-5.419-4.565-9.15 3.815 1.922 4.544 5.362 4.565 9.15" class="I"/><path d="M1392.682 4056.869a6.254 6.254 0 0 1 4.523-4.92l-4.523 4.92" class="L"/><path d="m1687.876 4092.619-4.523 4.711 4.523-4.711m-4.686 9.109-4.419 4.565z" class="I"/><path d="M2007.61 2698.452c5.816 0 11.756-2.084 17.259.855 1.4 3.293 0 5.982-1.292 8.525l-24.886 49.8a17.09 17.09 0 0 1-6.98 8.338c-5.878 1.042-7.65-3.919-10.589-7.192-2.085-3.064-4-6.253-3.19-10.172l18.176-31.016c3.71-6.483 5.732-13.944 11.505-19.177" class="W"/><path d="m1983.464 2756.482 8.234 9.526.584 22.324-9.276 13.199-27.1.729a5.522 5.522 0 0 0-4.169-1.292l-5.419-7.253a43.06 43.06 0 0 0-3.189-5.211l-1.48-8c-1.605-3.585-2.085-7.108.479-10.42 3.711-2.585 8.568-2.543 12.173-5.4a54.34 54.34 0 0 1 23.762-10.088 6.837 6.837 0 0 1 5.315 1.938" fill="#0c0a0a"/><g fill="#1f1517"><path d="m1983.476 2756.483-5.378.23c-6.587 5.712-21.3-2.439-22.2 13.007-4.377 7.963-9.088 1.563-13.673.313 2.543-15.049 12.214-21.469 26.7-21.953 3.008.032 6.012.22 9 .562l5.545 7.837"/><path d="m1942.257 2769.951-.479 10.42c-3.231-3.648-3.043-7.149.479-10.42m1 18.547 3.189 5.211a4.67 4.67 0 0 1-3.19-5.211"/></g><path d="M133.271 2779.62a6.44 6.44 0 0 1 3.939-1.1c11.965-.25 21.573 3.064 27.1 15.073 2.085 4.5 6.712 7.858 10.3 11.611 4.023 4.169 4.169 9.317 3.981 14.591 2.856 5.211-.4 8.067-4.169 10.735-18.53-3.44-20.84-22.679-32.2-33.059v.1c-3.273-4.44-5.586-9.509-9.172-13.736a2.605 2.605 0 0 1-.979-2.856c.313-.959.646-1.439.979-1.439" fill="#a5b3ba"/><path d="m173.647 2829.102 4.856-9.338c18.864-9.734 24.221-9.317 34.705 3.294 1.25 1.517 1.188 4.169 1.73 6.253-2.584 4.314-5.543 7.337-10.543 3.027a43.41 43.41 0 0 0-1.834-5.753c.167.25 0 .751 0 1.022a4.655 4.655 0 0 1-.771 3.877 16.05 16.05 0 0 1-5.362 5.169 37.52 37.52 0 0 0-11.235 8.15 12.218 12.218 0 0 1-7.629 3.981 7.065 7.065 0 0 1-3.541-1.416c-2.939-6.024-4.877-12.069-.417-18.259" fill="#252123"/><path d="m196.305 2834.56 5.315-5.649a2.605 2.605 0 0 1 4.168 0c2.856 5.4 6.044.625 9.088.313 5.024 11.735.521 20.281-9.1 27.1a59.064 59.064 0 0 1-22.929.918l-5.362-8.546 4.377-5.732c6.045-.667 10.026-4.836 14.32-8.462" fill="#0b0909"/><path d="m2033.476 2702.016 4.273-4.315-4.273 4.315" class="W"/><g fill="#949ca4"><path d="m173.646 2829.104.417 18.259c-12.631-15.362-24.346-31.266-31.892-49.922 6.545 2.9 10.568 8.213 14.111 14.2a44.96 44.96 0 0 0 17.363 17.467"/><path d="M133.084 2783.811a13.7 13.7 0 0 1 9.172 13.736 14.11 14.11 0 0 1-9.172-13.736"/><path d="M133.272 2779.619v4.293l-4.544-4.065 4.544-.23"/></g><path d="M1369.339 3915.067c2.084-6.941 8.025-10.839 12.507-15.737 11.506-12.236 22.054-25.221 27.1-41.4 2.335-7.337 7.316-11.089 13.028-14.841 15.8-10.42 31.266-21.095 43.5-35.894 3.689-1.272 8.108-6.441 10.235 1.584 1.334 5.107 2.272 10.42 3.273 15.509a155.94 155.94 0 0 0 25.972 62.283c3.5 4.856 6.253 10.255 9.359 15.4-4.877 8.171-13.174 9.088-21.386 9.776s-16.384 1.25-21.907 8.629a8.588 8.588 0 0 1-6.253.5c-12.193-24.638-20.678-28.286-33.351-14.007-2.856 3.21-4.169 7.837-8.213 10.109-17.217-.959-34.372 3.127-51.594.542l-2.522-2.459" fill="#838d94"/><path d="M1388.382 4009.721c.4-17.655-8.629-32.83-12.949-49.234 10.276-9.026 23.054-5.148 34.768-6.628a697.09 697.09 0 0 0 102.325-19.719c8.525-2.4 17.238-6.733 26.139-.809 9.213 5.586 15.258 14.466 22.762 21.844.855.809.751 2.6 1.293 4.731-6.253 3.127-13.007 1.146-19.406 2.084l-20.2 2.939c-48.671 5.94-88.4 28.911-121.9 63.783a19.28 19.28 0 0 1-4.647 4.46v-.062c-14.3-3.731-1.71-16.863-8.171-23.346" class="V"/><path d="M1538.671 3933.326c-26.013 7.045-51.735 14.925-78.415 19.615-28.14 4.957-56.154 9.255-84.815 7.546l-6.253-12.9c1.48-13.859 13.9-10.068 21.8-13.007 10.42-3.9 21.7-2.522 32.642-2.668 6.566-.23 13.319.959 19.594-2.084 7.858-1.855 12.152-11.548 21.616-9.943a40.17 40.17 0 0 0 4.169-.146c15.945-9.15 34.08-6.816 51.173-9.838 7.108 7.088 14.487 13.924 18.447 23.47" fill="#abb5bd"/><path d="M1520.225 3909.854c-7.129 7.754-16.675 9.276-26.43 9.9-8.212.542-16.49 0-24.721 0 3.585-12.736 3.564-13.174 13.091-13.236a100.368 100.368 0 0 0 32.246-4.5l.542.542a7.86 7.86 0 0 1 3.731 3.961 3.5 3.5 0 0 1 1.542 3.377" fill="#acb7bf"/><path d="M1460.513 3997.048c-4.856 9.484-13.59 12.507-23.3 13.736a32.83 32.83 0 0 1 23.3-13.736" fill="#2c393c"/><path d="M1388.383 4009.717c3.314 4.356 3 9.526 3.293 14.591.208 3.711.855 7.171 4.877 8.776 0 1.667.187 3.314.292 4.957-4.9-.625-8.713-2.668-8.8-8.171-.125-6.711.187-13.423.334-20.132" class="L"/><g fill="#263739"><path d="M1478.726 3987.939c-4.523 6.253-10.926 8.629-18.28 9.15 3.606-8.046 10.42-9.421 18.28-9.15m13.59-3.96.208-4.627a40.46 40.46 0 0 1 6.253 0c1.188.188 2.251 1.315 3.355 2.085a14.243 14.243 0 0 1-3.585 1.922 53.02 53.02 0 0 1-6.253.625"/><path d="M1487.856 3983.186c-1.793 4.169-5.362 4.794-9.254 4.836 1.9-3.877 5.564-4.377 9.254-4.836"/></g><path d="m1396.579 4033.212 4.648-4.46a6.024 6.024 0 0 1-4.648 4.46" class="L"/><path d="M1518.691 3906.48a4.293 4.293 0 0 1-3.731-3.981 3.5 3.5 0 0 1 3.731 3.981" fill="#838d94"/><path d="M1379.198 4006.012a13.7 13.7 0 0 1 3.982 9.985v30.829c-6.461-.167-4.336-7.67-8.942-8.671-5.795-4.315-3.919-10.714-4.69-16.49-2.439-18.513-6.253-36.582-18.176-51.818l5-9.1c14.862 10.88 12.9 29.182 19.489 43.773 1.25 2.731-.809-.751.458 2.084.959 2.084 2.226 1.73 2.876-.542" fill="#242525"/><path d="M1428.465 3937.892c-17.675-1.355-34.851 2.439-52.111 4.981a10.42 10.42 0 0 0-7.025 4.773 73.596 73.596 0 0 1-3.773-1.214c.75-10.42-2.459-21.469 3.731-31.267l1.48 1.416c7.817 11.422 19.3 11.9 31.5 10.839 8.024-.688 15.841-3.689 24.077-2.439a11.278 11.278 0 0 1 7.943 5.712c.708 4.523-3.086 5.463-5.775 7.3" fill="#858d94"/><path d="m1379.199 4006.011-1.584 12.4c-8.5-21.115-11.36-40.769-21.245-57.676a36.045 36.045 0 0 1 0-3.69c5.274-.458 8.338 2.459 9.9 6.98 5.065 13.758 11.3 27.1 12.861 41.983" fill="#3a4044"/><path d="M1976.404 2770.656a7.34 7.34 0 0 1 6 9.813 21.96 21.96 0 0 1-8.338 10.42 11.173 11.173 0 0 1-14.32-1.439c-3.585-3.541-2.543-9.3 2.272-13.612a18.07 18.07 0 0 1 14.3-5.107" fill="#58544e"/><path d="M1955.889 2769.719c-2.564-6.149-1.667-9.755 2.731-11.568 6.253-2.63 12.987-1 19.489-1.439-1.315 3.023-3.939 3.981-6.879 4.815-5.665 1.626-11.235 3.585-15.342 8.194" fill="#2d3f42"/><path d="M196.305 2834.564a39.53 39.53 0 0 1-1.1 6.5c-3.168 9.255-4.047 9.359-13.215 1.96 1.189-11.151 1.189-11.151 14.32-8.462" fill="#c9c8c8"/><path d="M201.37 2824.622c-.693.063-1.391.063-2.084 0-2.648-.48-6.086-.208-7.689-1.793-2.226-2.084 4.293-1.751 9.651 1.922z" fill="#2e4c4f"/><path d="M205.852 2828.999h-2.084l-2.085-.167a37.55 37.55 0 0 1-.25-4.315h-.125l4.607 4.293" fill="#36393c"/><path d="M1434.246 3932.64a5.627 5.627 0 0 0-4.919-3.856c-5.337-2.934-9.943-6.253-5.858-13.319 3.4-18.322 10.63-25.013 25.91-24.054 10.42.667 16.49 6.67 16.883 17.238a73.494 73.494 0 0 1-1.315 11.194c-4.169 7.066-10.734 11.235-18.2 14.153-4.419 1.922-8.838 3.669-12.507-1.355" fill="#191819"/><path d="m1423.528 3915.463 5.857 13.319c-14.591 2.226-28.744 5.9-43.773 4.794s-14.925-.625-14.9-17.1c12.342-3.711 24.722-6.587 37.835-5.665a33.54 33.54 0 0 1 14.925 4.648m10.775 17.18 12.507 1.355c-5.044 6.253-11.965 3.585-18.28 3.9l5.773-5.252" fill="#a4abb3"/><path d="M1441.04 3908.042a13.15 13.15 0 0 1 12.006 8.546 3.25 3.25 0 0 1 0 2.085c-1.543 4.169-5.17 5.463-9.026 5.19-4.815-.334-8.546-2.689-9.526-7.921-.584-3.168 3.21-7.733 6.461-7.9" fill="#514f49"/></svg>