<svg xmlns="http://www.w3.org/2000/svg" xmlns:xlink="http://www.w3.org/1999/xlink" width="255.87" height="69.793" viewBox="0 0 255.87 69.793">
  <defs>
    <clipPath id="clip-path">
      <rect id="Rectangle_1216" data-name="Rectangle 1216" width="214" height="40" transform="translate(869.368 6777.085)" fill="#fff"/>
    </clipPath>
    <linearGradient id="linear-gradient" y1="0.5" x2="0.857" y2="0.5" gradientUnits="objectBoundingBox">
      <stop offset="0" stop-color="#05aed8"/>
      <stop offset="1" stop-color="#6d1dc3"/>
    </linearGradient>
  </defs>
  <g id="Group_12671" data-name="Group 12671" transform="translate(0.13 -0.293)">
    <g id="Group_12668" data-name="Group 12668" transform="translate(-0.13 0.293)">
      <g id="Rectangle_1156" data-name="Rectangle 1156" fill="#fcfcfd" stroke="#f4f5f6" stroke-width="1">
        <rect width="255.87" height="69.793" rx="19" stroke="none"/>
        <rect x="0.5" y="0.5" width="254.87" height="68.793" rx="18.5" fill="none"/>
      </g>
    </g>
    <g id="Mask_Group_268" data-name="Mask Group 268" transform="translate(-848.498 -6761.792)" clip-path="url(#clip-path)">
      <g id="palmera-hr-logo_1_1_" data-name="palmera-hr-logo_1 (1)" transform="translate(888.902 6776.997)">
        <path id="Path_41322" data-name="Path 41322" d="M48.566,26.31v-13.6h5.1a5.4,5.4,0,0,1,2.629.584A3.892,3.892,0,0,1,57.907,14.9a5.146,5.146,0,0,1,0,4.634,3.938,3.938,0,0,1-1.627,1.6,5.543,5.543,0,0,1-2.649.578H50.252V19.69H53.3a3.116,3.116,0,0,0,1.5-.319,2.012,2.012,0,0,0,.863-.876,2.774,2.774,0,0,0,.285-1.282,2.733,2.733,0,0,0-.285-1.275,1.94,1.94,0,0,0-.871-.857,3.189,3.189,0,0,0-1.507-.311H51.027V26.31Z" transform="translate(5.969 1.328)" fill="#121212"/>
        <path id="Path_41323" data-name="Path 41323" d="M64.746,26.31H62.116l4.787-13.6h3.041l4.794,13.6H72.109L68.477,15.5h-.106Zm.086-5.332H72v1.979H64.832Z" transform="translate(7.662 1.329)" fill="#121212"/>
        <path id="Path_41324" data-name="Path 41324" d="M79.915,26.31v-13.6h2.463V24.248h5.989v2.065Z" transform="translate(9.885 1.329)" fill="#121212"/>
        <path id="Path_41325" data-name="Path 41325" d="M94.316,12.713h3.016l4.037,9.853h.159l4.035-9.853h3.016v13.6h-2.363V16.968h-.124l-3.762,9.3h-1.766l-3.758-9.321h-.126V26.31H94.316Z" transform="translate(11.684 1.329)" fill="#121212"/>
        <path id="Path_41326" data-name="Path 41326" d="M114.365,26.31v-13.6h8.844v2.065h-6.382v3.69h5.923v2.065h-5.923v3.711h6.434V26.31Z" transform="translate(14.188 1.329)" fill="#121212"/>
        <path id="Path_41327" data-name="Path 41327" d="M129.447,26.31v-13.6h5.1a5.724,5.724,0,0,1,2.629.544,3.718,3.718,0,0,1,1.613,1.527,4.553,4.553,0,0,1,.551,2.277,4.451,4.451,0,0,1-.558,2.27,3.682,3.682,0,0,1-1.627,1.481,6.062,6.062,0,0,1-2.643.518h-3.631V19.285h3.3a3.816,3.816,0,0,0,1.5-.252,1.787,1.787,0,0,0,.863-.75,2.422,2.422,0,0,0,.285-1.222,2.5,2.5,0,0,0-.285-1.235,1.816,1.816,0,0,0-.87-.783,3.586,3.586,0,0,0-1.507-.272h-2.257V26.31Zm7.026-6.161,3.365,6.161h-2.749l-3.306-6.161Z" transform="translate(16.072 1.328)" fill="#121212"/>
        <path id="Path_41328" data-name="Path 41328" d="M147.088,26.31h-2.629l4.787-13.6h3.041l4.794,13.6h-2.629L150.819,15.5h-.106Zm.086-5.332h7.171v1.979h-7.171Z" transform="translate(17.947 1.329)" fill="#121212"/>
        <path id="Path_41329" data-name="Path 41329" d="M40.558,20.466A20.236,20.236,0,1,1,20.322.23,20.236,20.236,0,0,1,40.558,20.466Z" transform="translate(-0.086 -0.23)" fill="url(#linear-gradient)"/>
        <g id="Group_12905" data-name="Group 12905" transform="translate(3.487 5.543)">
          <path id="Path_41330" data-name="Path 41330" d="M33.959,23.387c.466-6.218-4.042-9.949-14.612-6.373,3.731.466,6.684,4.2,7.462,4.042s.812-1.144,1.088-2.332c.622,2.021,2.176,3.42,2.643,3.264s.5-.637.622-1.4C31.472,21.833,33.959,24.786,33.959,23.387Z" transform="translate(-1.167 -3.851)" fill="#fff"/>
          <path id="Path_41331" data-name="Path 41331" d="M18.794,17.077c1.244-5.285,4.974-12.9,11.192-11.814C32.007,5.729,23.3,14.745,18.794,17.077Z" transform="translate(-1.236 -5.158)" fill="#fff"/>
          <path id="Path_41332" data-name="Path 41332" d="M10.92,9.686S6.8,9.375,7.189,8.442c.7-1.673,4.966-1.995,7.928.155,2.27,1.648,3.581,5.091,3.109,8.394-2.176-2.487-5.8-3.109-6.063-3.886-.124-.373.777-1.088,1.244-1.4-.933.259-2.86.684-3.109.311S10.609,10.307,10.92,9.686Z" transform="translate(-2.689 -4.917)" fill="#fff"/>
          <path id="Path_41333" data-name="Path 41333" d="M6.753,19.206c-1.169,2.173-1.865,4.353-3.109,4.353-1.088,0-.311-5.52,3.109-7.24,3.023-1.521,7.533-.673,10.415.4-3.034,1.033-5.6,4.2-6.529,3.886s0-2.332,0-2.332-2.954,3.575-3.575,3.42S6.753,19.206,6.753,19.206Z" transform="translate(-3.185 -3.867)" fill="#fff"/>
          <path id="Path_41334" data-name="Path 41334" d="M18.9,19.519c-.155-.777,0-1.554-.777-1.554s-.622.622-.777,1.554c-.108.647-1.146,11.985-.223,18.756,0,.031.026.185.026.185a6.918,6.918,0,0,0,1.333.035c.366-.018.811,0,1.294-.035a8.518,8.518,0,0,0,.875-.115s0-.1,0-.169C20.669,31.574,19,20.069,18.9,19.519Z" transform="translate(-1.493 -3.558)" fill="#fff"/>
        </g>
      </g>
    </g>
  </g>
</svg>
