<svg xmlns="http://www.w3.org/2000/svg" width="126.831" height="99.202" viewBox="0 0 126.831 99.202">
  <g id="Group_2633" data-name="Group 2633" transform="translate(0 0)">
    <path id="Path_5863" data-name="Path 5863" d="M485.279,230.064a37.883,37.883,0,0,1,7.127-22.344,47.51,47.51,0,0,1,15.614-14.333,45.306,45.306,0,0,1,14.035-5.329,41.613,41.613,0,0,1,9.752-.685,95.525,95.525,0,0,1,11,1.172,61.524,61.524,0,0,1,9,2.313,56.62,56.62,0,0,1,7.595,2.811,61.664,61.664,0,0,1,11.049,6.62,53.583,53.583,0,0,0,7.742,4.893,29.288,29.288,0,0,0,9,3.165,30.583,30.583,0,0,1,7.8,2.588c.958.446,1.89.948,2.835,1.422a9.365,9.365,0,0,1,2.442,1.875c1.456,1.474,2.84,3.014,4.178,4.588a31.612,31.612,0,0,1,7.415,15.141,18.587,18.587,0,0,1-.817,9.036,19.193,19.193,0,0,1-3.418,5.959,22.241,22.241,0,0,1-8.677,6.466,83.312,83.312,0,0,1-8.579,3.208,79.918,79.918,0,0,0-16.552,7.772,105.8,105.8,0,0,1-13.658,7.177,72.771,72.771,0,0,1-14.8,4.508,40.426,40.426,0,0,1-10.672.434,45.073,45.073,0,0,1-12.962-3.428,92.836,92.836,0,0,1-16.377-8.48,43.437,43.437,0,0,1-16.442-19.94,46.567,46.567,0,0,1-3.042-9.736A40.213,40.213,0,0,1,485.279,230.064Z" transform="translate(-485.277 -187.33)" fill="#ce7230"/>
    <path id="Path_5864" data-name="Path 5864" d="M1212.094,819.841a11.419,11.419,0,0,1-6.224-1.731,6.977,6.977,0,0,1-3.339-4.36,7.256,7.256,0,0,1,.552-4.876,13.135,13.135,0,0,1,4.318-5.026,17.638,17.638,0,0,1,9.647-3.538.994.994,0,0,0,.478-.1,2.219,2.219,0,0,1,1.969-.047,10.168,10.168,0,0,1,1.78.842,22.692,22.692,0,0,1,2.758,1.953,7.784,7.784,0,0,1,2.108,8.787,12.105,12.105,0,0,1-5.873,6.221A18.482,18.482,0,0,1,1212.094,819.841Z" transform="translate(-1109.491 -720.641)" fill="#ce7230"/>
    <path id="Path_5865" data-name="Path 5865" d="M558.13,295.147a34.344,34.344,0,0,1-8.974-1c-1.847-.459-3.623-1.143-5.412-1.782a87.2,87.2,0,0,1-10.393-4.7,64.9,64.9,0,0,1-8.812-5.411,37.535,37.535,0,0,1-10.266-11.266,51.206,51.206,0,0,1-4.718-10.439,36.267,36.267,0,0,1-1.755-11.9,35.2,35.2,0,0,1,1.5-9.4,37.6,37.6,0,0,1,2.723-6.481,42.672,42.672,0,0,1,4.449-6.661,61.077,61.077,0,0,1,5.21-5.444,27.959,27.959,0,0,1,3.079-2.451,51.067,51.067,0,0,1,8.131-4.766,39.326,39.326,0,0,1,9.141-2.977,44.411,44.411,0,0,1,4.451-.592,37.72,37.72,0,0,1,5.068-.072c1.422.062,2.848.166,4.268.343,1.253.157,2.509.294,3.762.454a49.616,49.616,0,0,1,6.132,1.19,101.249,101.249,0,0,1,10.113,3.249,40.021,40.021,0,0,1,4.936,2.409,48.944,48.944,0,0,1,4.9,2.907q2.1,1.476,4.164,3.006a46.7,46.7,0,0,0,4.641,2.929,44.745,44.745,0,0,0,5.687,2.794,29.646,29.646,0,0,0,6.363,1.723,12.47,12.47,0,0,1,1.979.481c1.714.567,3.456,1.052,5.133,1.734a8.38,8.38,0,0,1,2.011,1.133c.648.5,1.318.98,1.995,1.444a15.524,15.524,0,0,1,2.764,2.5,34.833,34.833,0,0,1,2.965,3.66,33.676,33.676,0,0,1,4.4,8.863,17.777,17.777,0,0,1,.929,6.578,18.029,18.029,0,0,1-1.242,5.177,16,16,0,0,1-2.54,4.033,19.937,19.937,0,0,1-8.162,5.945c-3.2,1.373-6.5,2.455-9.782,3.578a47.9,47.9,0,0,0-6.181,2.543c-1.445.732-2.924,1.392-4.358,2.152-2.036,1.078-3.974,2.317-5.972,3.457-1.162.663-2.337,1.3-3.511,1.945-1.586.867-3.157,1.767-4.772,2.576-1.426.714-2.885,1.373-4.366,1.965-1.895.757-3.813,1.46-5.762,2.071a61.46,61.46,0,0,1-8.592,2.106A29.434,29.434,0,0,1,558.13,295.147Z" transform="translate(-504.868 -206.848)" fill="#ffc825"/>
    <path id="Path_5866" data-name="Path 5866" d="M1240.064,820.875a7.32,7.32,0,0,1-3.969,6.353,16.411,16.411,0,0,1-6.493,1.893,10.844,10.844,0,0,1-6.309-1.221,4.681,4.681,0,0,1-2.667-3.334,5.3,5.3,0,0,1,.632-3.458,12.428,12.428,0,0,1,3.882-4.2,17.828,17.828,0,0,1,7.152-3.15c.366-.075.734-.144,1.1-.193a2.537,2.537,0,0,1,1.8.421,25.316,25.316,0,0,1,2.836,2.188A5.754,5.754,0,0,1,1240.064,820.875Z" transform="translate(-1125.351 -732.464)" fill="#ffce3c"/>
    <path id="Path_5868" data-name="Path 5868" d="M538.857,243.836a1.567,1.567,0,0,0-.547.708,15.547,15.547,0,0,0-1.862,2.633,26.987,26.987,0,0,0-2.3,4.9,23.57,23.57,0,0,0-1.053,4.151,53.635,53.635,0,0,0-.569,10.1,3.457,3.457,0,0,1-.164,1.388,1.374,1.374,0,0,1-2.338.5,2.522,2.522,0,0,1-.737-1.778c-.057-1.851-.084-3.706.025-5.552a39.468,39.468,0,0,1,1.067-7.569,28.9,28.9,0,0,1,3.546-8.243,38.8,38.8,0,0,1,4.155-5.491c1.6-1.756,3.359-3.341,5.1-4.953a58.781,58.781,0,0,1,4.892-4.128,29.482,29.482,0,0,1,7.755-4.242,42.441,42.441,0,0,1,4.209-1.389,6.835,6.835,0,0,1,2.773-.233,1.6,1.6,0,0,1,1.412,1.589,1.473,1.473,0,0,1-1.394,1.515,29.145,29.145,0,0,0-13.67,6.039c-1.644,1.326-3.214,2.736-4.775,4.161q-2.007,1.833-3.867,3.8A8.2,8.2,0,0,0,538.857,243.836Z" transform="translate(-523.543 -219.761)" fill="#ffe494"/>
    <path id="Path_5869" data-name="Path 5869" d="M1057.115,685.974a2.4,2.4,0,0,0,1.565-.115,8.179,8.179,0,0,1,2.514-.489,3.179,3.179,0,0,0,2.7-1.211.607.607,0,0,1,.149-.146l0,.014a5.394,5.394,0,0,1,.533.181,1.542,1.542,0,0,1,.986,1.35,1.5,1.5,0,0,1-.8,1.4,2.5,2.5,0,0,1-1.064.336,25.4,25.4,0,0,0-5.457,1.586c-1.484.525-2.923,1.155-4.352,1.815a45.413,45.413,0,0,0-6.13,3.6c-2.422,1.619-4.94,3.077-7.424,4.592a39.934,39.934,0,0,1-3.813,2.126,4.72,4.72,0,0,1-2.409.35.832.832,0,0,1-.139-.023c-1.033-.255-1.286-.871-.726-1.776a4.047,4.047,0,0,1,1.622-1.318c3.8-2.1,7.509-4.358,11.15-6.728a47.587,47.587,0,0,1,5.747-3.414,45.935,45.935,0,0,1,4.45-1.947A2.105,2.105,0,0,1,1057.115,685.974Z" transform="translate(-962.053 -619.705)" fill="#ffe494"/>
    <path id="Path_5870" data-name="Path 5870" d="M1245.923,384.454a3.115,3.115,0,0,1-.175-.3,1.291,1.291,0,0,0-1.458-.816,7.952,7.952,0,0,1-.906,0,24.2,24.2,0,0,0-4.125-1.118c-.573-.12-1.154-.2-1.729-.307a2.368,2.368,0,0,1-1.437-.824,1.323,1.323,0,0,1,.221-1.979,2.4,2.4,0,0,1,1.948-.389,36.815,36.815,0,0,1,6.939,1.777,17.831,17.831,0,0,1,3.595,1.775,42.678,42.678,0,0,1,4.878,3.336,18.665,18.665,0,0,1,4.419,5.164,10.655,10.655,0,0,1,.907,2.288,19.353,19.353,0,0,0,.761,2.413,1.689,1.689,0,0,1,.164,1.088,1.565,1.565,0,0,1-1.27,1.264,1.6,1.6,0,0,1-1.6-.677,5.84,5.84,0,0,1-.974-2.4,8.9,8.9,0,0,0-1.885-3.969,18.891,18.891,0,0,0-3.618-3.436q-1.881-1.241-3.773-2.467A2.858,2.858,0,0,0,1245.923,384.454Z" transform="translate(-1138.579 -353.896)" fill="#ffe494"/>
    <path id="Path_5871" data-name="Path 5871" d="M549.961,597.115l.145.4a2.376,2.376,0,0,1-.155,1.307,1.578,1.578,0,0,1-2.675.217,10.181,10.181,0,0,1-2.378-6.4,2.566,2.566,0,0,1,.422-1.325,1.722,1.722,0,0,1,2.275-.625,1.608,1.608,0,0,1,.716,2.053,1.506,1.506,0,0,0-.043.948A7.406,7.406,0,0,0,549.961,597.115Z" transform="translate(-537.178 -538.298)" fill="#ffe494"/>
    <path id="Path_5872" data-name="Path 5872" d="M1164.159,357.959a1.621,1.621,0,0,1-1.152,1.516,3.061,3.061,0,0,1-1.664.02,10.173,10.173,0,0,1-3.756-1.515,1.928,1.928,0,0,1-.741-2.221,1.411,1.411,0,0,1,1.912-.8,3.879,3.879,0,0,1,.627.321,7.3,7.3,0,0,0,3.305,1.1A1.544,1.544,0,0,1,1164.159,357.959Z" transform="translate(-1069.793 -333.148)" fill="#ffe494"/>
    <path id="Path_5873" data-name="Path 5873" d="M972.7,815.9c-1.163,0-1.724-.278-1.9-.8a1.787,1.787,0,0,1,.66-1.877,5.262,5.262,0,0,1,1.269-.748c.524-.2,1.012-.5,1.54-.689a1.537,1.537,0,0,1,2.042,1.061,1.384,1.384,0,0,1-.45,1.529A6.577,6.577,0,0,1,972.7,815.9Z" transform="translate(-907.873 -730.846)" fill="#ffe494"/>
    <path id="Path_5874" data-name="Path 5874" d="M1304.251,840.641a6.428,6.428,0,0,1-1.164,3.4,9.788,9.788,0,0,1-5.02,3.68,1.533,1.533,0,0,1-1.571-.361,1.478,1.478,0,0,1,.063-2.327,7.623,7.623,0,0,1,1.348-.758,6.458,6.458,0,0,0,2.613-2.3,2.233,2.233,0,0,0,.054-2.457,1.68,1.68,0,0,1-.209-1.418,1.594,1.594,0,0,1,2.621-.668,3.846,3.846,0,0,1,1.118,2.149C1304.185,839.946,1304.208,840.322,1304.251,840.641Z" transform="translate(-1190.994 -752.88)" fill="#ffe596"/>
    <path id="Path_5875" data-name="Path 5875" d="M1258.038,894.094a1.757,1.757,0,0,1-1.884,1.668,1.8,1.8,0,0,1-1.787-1.781,1.863,1.863,0,0,1,1.847-1.9A1.943,1.943,0,0,1,1258.038,894.094Z" transform="translate(-1154.788 -800.835)" fill="#ffe596"/>
    <path id="Path_5880" data-name="Path 5880" d="M1271.968,684.014l-.148.146A.2.2,0,0,1,1271.968,684.014Z" transform="translate(-1169.982 -619.705)" fill="#ffc825"/>
    <path id="Path_5881" data-name="Path 5881" d="M1030.706,483.141c.875,1.885,1.76,3.781,2.566,5.747a12.232,12.232,0,0,1-2.032.442c-.662.144-1.337.236-2.01.322-.412.052-.494-.038-.4-.411.521-1.969.963-3.959,1.652-5.88C1030.518,483.274,1030.537,483.177,1030.706,483.141Z" transform="translate(-958.424 -444.841)" fill="#ffce3d"/>
    <path id="Path_5882" data-name="Path 5882" d="M656.656,440.926a2.434,2.434,0,0,1-.325,0c-1.126-.214-1.056-.1-.978-1.137.1-1.332.062-2.674.2-4.008.065-.644.044-.632.708-.651a8.408,8.408,0,0,1,5.016,1.581,3.287,3.287,0,0,1,.776.81.847.847,0,0,1-.146,1.348,8.691,8.691,0,0,1-4.384,1.944Z" transform="translate(-633.298 -403.042)" fill="#ffce3c"/>
  </g>
</svg>
