<svg xmlns="http://www.w3.org/2000/svg" xmlns:xlink="http://www.w3.org/1999/xlink" width="126.831" height="99.202"><defs><filter id="a" x="16.481" y="26.891" width="106.224" height="46.071" filterUnits="userSpaceOnUse"><feOffset dx="6" dy="3"/><feGaussianBlur stdDeviation="3" result="A"/><feFlood flood-color="#fff" flood-opacity=".2"/><feComposite operator="in" in2="A"/></filter><filter id="d" x="16.481" y="26.891" width="106.224" height="46.071" filterUnits="userSpaceOnUse"><feOffset dx="4" dy="4"/><feGaussianBlur result="A"/><feFlood flood-color="#fff" result="B"/><feComposite operator="out" in="SourceGraphic" in2="A"/><feComposite operator="in" in="B"/><feComposite operator="in" in2="SourceGraphic"/></filter><path id="b" d="M-23.03-18.7a8.68 8.68 0 0 1-.53 3.146 7.67 7.67 0 0 1-1.454 2.4 8.77 8.77 0 0 1-2.168 1.738c-.843.482-1.735.871-2.661 1.162-.959.3-1.941.519-2.937.654a23.89 23.89 0 0 1-2.981.229v8.525h-8.524q0-4.189.018-8.341.018-4.152.055-8.377.037-2.232.018-4.463t.091-4.5a33.96 33.96 0 0 1 4.683-1.043 32.79 32.79 0 0 1 4.829-.348 17.55 17.55 0 0 1 2.817.229 13.63 13.63 0 0 1 2.7.723c.844.32 1.649.734 2.4 1.235a8.266 8.266 0 0 1 1.911 1.765 8.2 8.2 0 0 1 1.263 2.332 8.7 8.7 0 0 1 .47 2.934zm-8.121.622a2.4 2.4 0 0 0-.723-1.857 2.652 2.652 0 0 0-1.875-.668 5.23 5.23 0 0 0-.8.064q-.412.064-.777.155l-.219 5.341c.164.024.329.036.494.037h.494a3.74 3.74 0 0 0 1.271-.219 3.4 3.4 0 0 0 1.088-.631 3.17 3.17 0 0 0 .759-.969c.194-.388.292-.817.287-1.251zm26.48 7.28-.769 8.123-15.4 1.207.585-26.12h9.512L-12.1-10.8zm25.236 8.123L11.492-1.5l-1.1-4.134H6.224L5.31-1.5l-9.329-.915 7.28-24.364 10.17-.512zm-10.829-8.56L8.346-17.6l-1.353 6.365zm32.846-14.633-8.6 14.048.256 10.353h-9.4l.219-10.28-6.693-13.573 9.329-1.171 2.927 7.9 3.183-7.9z"/><path id="c" d="M41.237 42.608a8.68 8.68 0 0 1-.53 3.146 7.67 7.67 0 0 1-1.454 2.4 8.77 8.77 0 0 1-2.168 1.738c-.843.482-1.735.871-2.661 1.162-.959.3-1.941.519-2.937.654a23.89 23.89 0 0 1-2.981.229v8.525h-8.524q0-4.189.018-8.341.018-4.152.055-8.377.037-2.232.018-4.463t.091-4.5a33.96 33.96 0 0 1 4.683-1.043 32.79 32.79 0 0 1 4.829-.348 17.55 17.55 0 0 1 2.817.229 13.63 13.63 0 0 1 2.7.723c.844.32 1.649.734 2.4 1.235a8.266 8.266 0 0 1 1.911 1.765 8.2 8.2 0 0 1 1.263 2.332 8.7 8.7 0 0 1 .47 2.934zm-8.121.622a2.4 2.4 0 0 0-.723-1.857 2.652 2.652 0 0 0-1.875-.668 5.23 5.23 0 0 0-.8.064q-.412.064-.777.155l-.219 5.341c.164.024.329.036.494.037h.494a3.74 3.74 0 0 0 1.271-.219 3.4 3.4 0 0 0 1.088-.631 3.17 3.17 0 0 0 .759-.969c.194-.388.292-.817.287-1.251zm26.48 7.28-.769 8.123-15.4 1.207.585-26.12h9.512l-1.357 16.788zm25.236 8.123-9.073 1.175-1.1-4.134h-4.168l-.914 4.134-9.329-.915 7.28-24.364 10.17-.512zm-10.829-8.56-1.39-6.365-1.353 6.365zm32.846-14.633-8.6 14.048.256 10.353h-9.4l.219-10.28-6.693-13.573 9.329-1.171 2.927 7.9 3.183-7.9z"/></defs><path d="M.002 42.734A37.885 37.885 0 0 1 7.129 20.39 47.51 47.51 0 0 1 22.743 6.057 45.303 45.303 0 0 1 36.778.728 41.576 41.576 0 0 1 46.53.043c3.686.178 7.359.569 11 1.172a61.48 61.48 0 0 1 9 2.313 56.62 56.62 0 0 1 7.595 2.811 61.695 61.695 0 0 1 11.049 6.62 53.536 53.536 0 0 0 7.742 4.893 29.29 29.29 0 0 0 9 3.165 30.575 30.575 0 0 1 7.8 2.588c.958.446 1.89.948 2.835 1.422a9.372 9.372 0 0 1 2.442 1.875 83.064 83.064 0 0 1 4.178 4.588 31.61 31.61 0 0 1 7.415 15.141 18.585 18.585 0 0 1-.817 9.036 19.21 19.21 0 0 1-3.418 5.959 22.24 22.24 0 0 1-8.677 6.466 83.31 83.31 0 0 1-8.579 3.208 79.92 79.92 0 0 0-16.552 7.772 105.8 105.8 0 0 1-13.658 7.177 72.77 72.77 0 0 1-14.8 4.508 40.425 40.425 0 0 1-10.672.434 45.094 45.094 0 0 1-12.962-3.428 92.843 92.843 0 0 1-16.377-8.48 43.436 43.436 0 0 1-16.442-19.94A46.564 46.564 0 0 1 .59 49.607a40.283 40.283 0 0 1-.588-6.873zM102.603 99.2a11.42 11.42 0 0 1-6.224-1.731 6.977 6.977 0 0 1-3.339-4.36 7.253 7.253 0 0 1 .552-4.876 13.135 13.135 0 0 1 4.318-5.026 17.64 17.64 0 0 1 9.647-3.538.99.99 0 0 0 .478-.1 2.22 2.22 0 0 1 1.969-.047 10.17 10.17 0 0 1 1.78.842 22.69 22.69 0 0 1 2.758 1.953 7.784 7.784 0 0 1 2.108 8.787 12.105 12.105 0 0 1-5.873 6.221 18.48 18.48 0 0 1-8.174 1.875z" fill="#ce7230"/><path d="M53.262 88.299a34.34 34.34 0 0 1-8.974-1c-1.847-.459-3.623-1.143-5.412-1.782a87.2 87.2 0 0 1-10.393-4.7 64.9 64.9 0 0 1-8.812-5.411A37.537 37.537 0 0 1 9.405 64.14a51.2 51.2 0 0 1-4.718-10.439 36.286 36.286 0 0 1-1.755-11.9 35.2 35.2 0 0 1 1.5-9.4 37.6 37.6 0 0 1 2.723-6.481 42.67 42.67 0 0 1 4.449-6.661 61.154 61.154 0 0 1 5.21-5.444 27.96 27.96 0 0 1 3.079-2.451 51.125 51.125 0 0 1 8.131-4.766 39.365 39.365 0 0 1 9.141-2.977 44.41 44.41 0 0 1 4.451-.592 37.72 37.72 0 0 1 5.068-.072c1.422.062 2.848.166 4.268.343l3.762.454c2.067.267 4.115.665 6.132 1.19a101.25 101.25 0 0 1 10.113 3.249 40.02 40.02 0 0 1 4.936 2.409 49.1 49.1 0 0 1 4.9 2.907q2.1 1.476 4.164 3.006a46.7 46.7 0 0 0 4.641 2.929 44.719 44.719 0 0 0 5.687 2.794 29.653 29.653 0 0 0 6.363 1.723 12.47 12.47 0 0 1 1.979.481c1.714.567 3.456 1.052 5.133 1.734a8.38 8.38 0 0 1 2.011 1.133 43.8 43.8 0 0 0 1.995 1.444 15.55 15.55 0 0 1 2.764 2.5 34.833 34.833 0 0 1 2.965 3.66 33.675 33.675 0 0 1 4.4 8.863 17.79 17.79 0 0 1 .929 6.578 18.03 18.03 0 0 1-1.242 5.177 16 16 0 0 1-2.54 4.033 19.93 19.93 0 0 1-8.162 5.945c-3.2 1.373-6.5 2.455-9.782 3.578a47.9 47.9 0 0 0-6.181 2.543l-4.358 2.152c-2.036 1.078-3.974 2.317-5.972 3.457l-3.511 1.945c-1.586.867-3.157 1.767-4.772 2.576a57.123 57.123 0 0 1-4.366 1.965 80.31 80.31 0 0 1-5.762 2.071 61.46 61.46 0 0 1-8.592 2.106 29.485 29.485 0 0 1-5.324.397z" fill="#ffc825"/><path d="M114.713 88.411a7.32 7.32 0 0 1-3.969 6.353 16.41 16.41 0 0 1-6.493 1.893 10.842 10.842 0 0 1-6.309-1.221 4.68 4.68 0 0 1-2.667-3.334 5.3 5.3 0 0 1 .632-3.458 12.43 12.43 0 0 1 3.882-4.2 17.83 17.83 0 0 1 7.152-3.15l1.1-.193a2.536 2.536 0 0 1 1.8.421 25.245 25.245 0 0 1 2.836 2.188 5.755 5.755 0 0 1 2.036 4.701z" fill="#ffce3c"/><path d="M15.314 24.075a1.573 1.573 0 0 0-.547.708 15.58 15.58 0 0 0-1.862 2.633 27.02 27.02 0 0 0-2.3 4.9 23.57 23.57 0 0 0-1.053 4.151 53.67 53.67 0 0 0-.569 10.1 3.46 3.46 0 0 1-.164 1.388 1.373 1.373 0 0 1-2.338.5 2.52 2.52 0 0 1-.737-1.778l.025-5.552a39.47 39.47 0 0 1 1.067-7.569 28.9 28.9 0 0 1 3.546-8.243 38.8 38.8 0 0 1 4.155-5.491c1.6-1.756 3.359-3.341 5.1-4.953a58.78 58.78 0 0 1 4.892-4.128 29.48 29.48 0 0 1 7.755-4.242 42.44 42.44 0 0 1 4.209-1.389 6.84 6.84 0 0 1 2.773-.233 1.6 1.6 0 0 1 1.412 1.589c.024.8-.595 1.472-1.394 1.515a29.146 29.146 0 0 0-13.67 6.039c-1.644 1.326-3.214 2.736-4.775 4.161q-2.007 1.833-3.867 3.8a8.2 8.2 0 0 0-1.658 2.094zm79.748 42.194a2.4 2.4 0 0 0 1.565-.115 8.18 8.18 0 0 1 2.514-.489 3.18 3.18 0 0 0 2.7-1.211.61.61 0 0 1 .149-.146v.014a5.22 5.22 0 0 1 .533.181 1.54 1.54 0 0 1 .986 1.35 1.5 1.5 0 0 1-.8 1.4 2.5 2.5 0 0 1-1.064.336 25.4 25.4 0 0 0-5.457 1.586c-1.484.525-2.923 1.155-4.352 1.815a45.46 45.46 0 0 0-6.13 3.6l-7.424 4.592a39.89 39.89 0 0 1-3.813 2.126 4.72 4.72 0 0 1-2.409.35.83.83 0 0 1-.139-.023c-1.033-.255-1.286-.871-.726-1.776a4.046 4.046 0 0 1 1.622-1.318c3.8-2.1 7.509-4.358 11.15-6.728a47.647 47.647 0 0 1 5.747-3.414 45.89 45.89 0 0 1 4.45-1.947c.282-.126.589-.189.898-.183zm12.282-35.711a3.213 3.213 0 0 1-.175-.3 1.29 1.29 0 0 0-1.458-.816 7.95 7.95 0 0 1-.906 0 24.2 24.2 0 0 0-4.125-1.118l-1.729-.307a2.37 2.37 0 0 1-1.437-.824 1.32 1.32 0 0 1 .221-1.979 2.4 2.4 0 0 1 1.948-.389c2.365.365 4.689.961 6.939 1.777a17.83 17.83 0 0 1 3.595 1.775 42.68 42.68 0 0 1 4.878 3.336 18.665 18.665 0 0 1 4.419 5.164c.39.725.694 1.493.907 2.288a19.41 19.41 0 0 0 .761 2.413 1.69 1.69 0 0 1 .164 1.088 1.564 1.564 0 0 1-1.27 1.264 1.6 1.6 0 0 1-1.6-.677 5.84 5.84 0 0 1-.974-2.4 8.9 8.9 0 0 0-1.885-3.969 18.89 18.89 0 0 0-3.618-3.436q-1.881-1.241-3.773-2.467a2.86 2.86 0 0 0-.882-.423zM12.783 58.817l.145.4c.072.442.019.895-.155 1.307a1.58 1.58 0 0 1-2.675.217 10.18 10.18 0 0 1-2.378-6.4c.016-.472.162-.931.422-1.325a1.72 1.72 0 0 1 2.275-.625 1.61 1.61 0 0 1 .716 2.053 1.51 1.51 0 0 0-.043.948 7.41 7.41 0 0 0 1.693 3.425zm81.583-34.006a1.62 1.62 0 0 1-1.152 1.516 3.06 3.06 0 0 1-1.664.02 10.165 10.165 0 0 1-3.756-1.515 1.93 1.93 0 0 1-.741-2.221 1.41 1.41 0 0 1 1.912-.8 3.88 3.88 0 0 1 .627.321 7.3 7.3 0 0 0 3.305 1.1c.837.04 1.489.741 1.469 1.579zM64.827 85.054c-1.163 0-1.724-.278-1.9-.8a1.787 1.787 0 0 1 .66-1.877 5.26 5.26 0 0 1 1.269-.748c.524-.2 1.012-.5 1.54-.689a1.536 1.536 0 0 1 2.042 1.061 1.383 1.383 0 0 1-.45 1.529 6.573 6.573 0 0 1-3.161 1.524z" fill="#ffe494"/><path d="M113.257 87.761a6.43 6.43 0 0 1-1.164 3.4 9.79 9.79 0 0 1-5.02 3.68 1.533 1.533 0 0 1-1.571-.361 1.48 1.48 0 0 1 .063-2.327 7.564 7.564 0 0 1 1.348-.758 6.46 6.46 0 0 0 2.613-2.3 2.23 2.23 0 0 0 .054-2.457 1.68 1.68 0 0 1-.209-1.418 1.594 1.594 0 0 1 2.621-.668 3.845 3.845 0 0 1 1.118 2.149c.081.365.104.741.147 1.06zm-10.007 5.498a1.76 1.76 0 0 1-.59 1.231 1.755 1.755 0 0 1-1.294.437 1.8 1.8 0 0 1-1.787-1.781c-.01-.498.18-.979.527-1.336a1.86 1.86 0 0 1 1.32-.564 1.943 1.943 0 0 1 1.824 2.013z" fill="#ffe596"/><path d="m101.986 64.309-.148.146a.2.2 0 0 1 .148-.146z" fill="#ffc825"/><path d="m72.282 38.3 2.566 5.747a12.23 12.23 0 0 1-2.032.442c-.662.144-1.337.236-2.01.322-.412.052-.494-.038-.4-.411l1.652-5.88c.036-.087.055-.184.224-.22z" fill="#ffce3d"/><path d="M23.358 37.884a2.518 2.518 0 0 1-.325 0c-1.126-.214-1.056-.1-.978-1.137l.2-4.008c.065-.644.044-.632.708-.651a8.41 8.41 0 0 1 5.016 1.581 3.3 3.3 0 0 1 .776.81.846.846 0 0 1-.146 1.348 8.69 8.69 0 0 1-4.384 1.944z" fill="#ffce3c"/><g filter="url(#a)"><use xlink:href="#b" transform="translate(64.27 61.31)" fill="#fff" stroke="rgba(226,117,43,0.17)"/></g><use xlink:href="#c" fill="#fff"/><g filter="url(#d)"><use xlink:href="#b" transform="translate(64.27 61.31)" fill="#fff"/></g><use xlink:href="#c" fill="none" stroke="rgba(226,117,43,0.17)"/></svg>