<svg xmlns="http://www.w3.org/2000/svg" width="47.113" height="95.952"><path d="M13.09 5.537a7.4 7.4 0 0 1 .518-2.588 1.02 1.02 0 0 1 .614-.677.95.95 0 0 0 .368-.275.59.59 0 0 0-.111-.847.62.62 0 0 0-.767.042 1.79 1.79 0 0 0-.44.696 14.14 14.14 0 0 0-1.191 3.592.58.58 0 0 1-.42.506A7.57 7.57 0 0 0 9.7 7.32a6.877 6.877 0 0 0-2.436 5.344 8.304 8.304 0 0 0 1.246 4.159c.074.14.164.27.267.39a.8.8 0 0 1 .093.974 49.56 49.56 0 0 0-2.207 6.773 26.862 26.862 0 0 0-.917 5.736 22.03 22.03 0 0 1-.605 4.35c-.472 1.967-.769 3.965-1.119 5.953a36.528 36.528 0 0 1-1.58 6.328 10.14 10.14 0 0 0-.652 4.667c.14 1.222.451 2.418.924 3.553.693 1.687 1.517 3.31 2.331 4.94l1.49 3.106a20.55 20.55 0 0 1 1.905 8.039l.382 5.217a24.38 24.38 0 0 0 4.699 11.905 28.5 28.5 0 0 0 4.441 4.46 6.91 6.91 0 0 0 3.541 1.577l1.762.265a7.558 7.558 0 0 0 3.992-.29 8.01 8.01 0 0 0 4.102-2.867l3.56-4.904a14.03 14.03 0 0 0 1.326-2.11 21.07 21.07 0 0 1 1.844-3.048 18.06 18.06 0 0 0 2.645-5.286l1.379-3.795a18.8 18.8 0 0 0 1.38-5.992 18.84 18.84 0 0 1 .472-2.809 48.86 48.86 0 0 0 1.241-10.004 28.36 28.36 0 0 1 .197-2.965c.09-.987.12-1.978.088-2.969a8.11 8.11 0 0 0-.39-2.576 4.06 4.06 0 0 1-.229-1.399 16.78 16.78 0 0 0-1.597-6.773 23.536 23.536 0 0 0-1.886-3.57c-1.718-2.62-3.115-5.423-4.626-8.16l-1.248-2.158a22 22 0 0 0-4.048-4.802l-1.969-1.724a18.146 18.146 0 0 0-4.671-3.024 7.243 7.243 0 0 0-2.132-.718.68.68 0 0 1-.657-.683 9.3 9.3 0 0 0-1.892-4.303 6.376 6.376 0 0 0-3.157-2.227 2.29 2.29 0 0 0-1.048-.163 28.28 28.28 0 0 1-2.852-.199z"/><path d="M43.578 48.148c.02-2.696-1.37-4.662-3.304-6.313l-4.618-3.741a22.4 22.4 0 0 1-3.956-4.41c-.134-.185-.197-.447-.481-.484-.17-.02-.315.27-.312.687l.043 1.664a9.66 9.66 0 0 1-1.576 5.395 4.9 4.9 0 0 1-1.104 1.24 2.85 2.85 0 0 1-3.891-.064l-1.196-1.16a3.687 3.687 0 0 0-1.868-.98 2.017 2.017 0 0 0-2.497 1.262c-.123.29-.2.601-.309.898a6.754 6.754 0 0 1-.922 1.792 2.63 2.63 0 0 1-2.239 1.138 6.78 6.78 0 0 1-.94-.106 2.5 2.5 0 0 0-3.141 1.65L9.87 49.638a7.43 7.43 0 0 1-2.266 2.855 4.137 4.137 0 0 1-2.396.915c-.519.019-.59.103-.435.516A26.78 26.78 0 0 0 5.9 56.669l2.25 4.588a24.793 24.793 0 0 1 2.108 5.914l.459 2.93.456 5.687a24.5 24.5 0 0 0 2.556 9.088 15.768 15.768 0 0 0 4.25 5.21c.373.294.723.62 1.066.948a4.894 4.894 0 0 0 4.488 1.318c.08-.014.155-.04.233-.044 2.75-.325 4.587-2.06 6.106-4.136l2.99-4.286a6.06 6.06 0 0 0 1.086-2.61l.748-4.206c.122-.78.138-1.576.228-2.362a7.38 7.38 0 0 1 .258-1.518 17.445 17.445 0 0 1 3.638-6.747l.557-.62a6.942 6.942 0 0 0 1.653-2.985q.833-3.28 1.653-6.562c.246-1.162.422-2.338.53-3.52l.3-2.832.064-1.776z" fill="#636262"/><path d="m29.015 34.865-.046-1.542c.01-.645.276-1.26.74-1.706a4.01 4.01 0 0 1 4.345-1.1c.555.206 1.085.48 1.626.72l.437.185a.4.4 0 0 0 .51-.176.38.38 0 0 0 .005-.536 15 15 0 0 1-2.44-3.775 28.284 28.284 0 0 0-3.54-5.193c-.37-.41-.688-.868-1.017-1.315a15.68 15.68 0 0 0-1.897-2.126 3.703 3.703 0 0 0-.443-.396 19.51 19.51 0 0 0-4.649-2.34 1.429 1.429 0 0 0-.351-.055.315.315 0 0 0-.373.207l-.204.683-.667 1.648a4.983 4.983 0 0 1-5.054 2.854 8.748 8.748 0 0 1-3.651-.954l-.849-.428a.36.36 0 0 0-.507.155 9.62 9.62 0 0 0-1.407 3.374 14.38 14.38 0 0 1-.62 2.655 29.96 29.96 0 0 0-1.03 4.871 32.541 32.541 0 0 1-1.23 5.434 11.37 11.37 0 0 0-.426 1.848l-1.131 6.309a20.22 20.22 0 0 0-.39 4.846 2.64 2.64 0 0 0 .58 1.98 3.724 3.724 0 0 0 1.609-1.15 4.04 4.04 0 0 0 .94-1.359l.983-2.163.277-.658a4.62 4.62 0 0 1 5.195-2.823c.117.014.232.053.35.072 1.04.17 1.45-.008 1.919-.94.206-.47.387-.952.54-1.443a3.75 3.75 0 0 1 2.62-2.379 3.33 3.33 0 0 1 1.41-.098 6.12 6.12 0 0 1 3.506 1.603l1.045.971a.915.915 0 0 0 1.104.106c.382-.213.7-.525.922-.902a7.145 7.145 0 0 0 1.259-4.964z" fill="#f7f3ee"/><path d="M14.977 7.25a2.764 2.764 0 0 0-1.503-.248.455.455 0 0 0-.412.667c.066.143.147.278.245.401a.87.87 0 0 1-.065 1.003.86.86 0 0 1-.928.387.68.68 0 0 1-.587-.862c.08-.258.23-.493.332-.744.05-.12-.177-.332-.297-.29a1.132 1.132 0 0 0-.32.147 6.1 6.1 0 0 0-2.597 4.622c-.04 2.02.416 3.945 2.38 5.11a7.894 7.894 0 0 0 2.397 1.009 11.47 11.47 0 0 0 3.048.411 3.42 3.42 0 0 0 2.784-1.572 6.874 6.874 0 0 0-1.198-9.23 6.1 6.1 0 0 0-1.3-.824.69.69 0 0 0-.574-.039c-.043.615.575 1.029.49 1.667-.06.465-.014.954-.624 1.333.123-1.271-1.22-1.794-1.27-2.949z" fill="#923646"/><path d="M42.727 41.336a7.478 7.478 0 0 0-.905-2.994 23.8 23.8 0 0 0-3.828-6.133.85.85 0 0 0-.557.363 1.87 1.87 0 0 1-2.068.472l-1.884-.685c-.22.279.015.449.128.62a17.53 17.53 0 0 0 4.01 4.163l4.353 3.656c.226.202.39.508.75.538z" fill="#525252"/><path d="M36.135 81.948a31.9 31.9 0 0 0 2.08-3.45 13.7 13.7 0 0 0 .795-2.104q.71-2.57 1.64-5.073a16.88 16.88 0 0 0 .901-3.673.923.923 0 0 0-.063-.681c-.075.013-.175.006-.218.044a12.33 12.33 0 0 0-2.255 3.027l-1.357 2.895a10.37 10.37 0 0 0-.69 2.986c-.18 1.409-.441 2.806-.782 4.185l-.316 1.628c-.048.238.047.303.265.216z" fill="#515151"/><path d="M14.977 7.25c-.346.881-.354.933.277 1.365.514.24.765.828.584 1.366a.785.785 0 0 0 .001.351.43.43 0 0 0 .649.264 1.37 1.37 0 0 0 .253-.24c.647-.871.59-2.08-.134-2.887l-.225-.27a3.675 3.675 0 0 0-1.405.05z" fill="#c67381"/><path d="m36.134 81.948-.265-.216c-.304.293-.197.693-.476 1.16.572-.268.598-.643.741-.944z" fill="#242424"/><path d="M9.475 13.076a2.26 2.26 0 0 0 .143.527 7.98 7.98 0 0 0 3.546 3.683c.213.101.439.17.672.204a.39.39 0 0 0 .317-.097c.04-.045-.009-.235-.08-.297a14.175 14.175 0 0 0-1.077-.925 6.176 6.176 0 0 1-2.243-3.109 7.939 7.939 0 0 1-.16-1.406c-.03-.208-.122-.384-.356-.4a.465.465 0 0 0-.475.29 3.01 3.01 0 0 0-.287 1.53z" fill="#c67482"/><path d="M14.103 11.53a.51.51 0 0 0 .718.112.47.47 0 0 0 .166-.692.436.436 0 0 0-.303-.118.71.71 0 0 0-.596.483c-.03.058.005.143.015.216z" fill="#c3707e"/></svg>