<svg xmlns="http://www.w3.org/2000/svg" width="39.542" height="116.091"><path d="M32.338 9.594c-.057.923-.24 1.833-.544 2.706a5.73 5.73 0 0 1-.315.768.87.87 0 0 0 .069.986c.544.828.99 1.716 1.329 2.647a6.68 6.68 0 0 1 .5 3.138c-.059.471.035.948.269 1.361a23.996 23.996 0 0 1 1.865 4.492c.584 1.906.629 3.936.128 5.866-.123.532-.515 1.051-.327 1.593a7.17 7.17 0 0 0 .811 1.307 12.206 12.206 0 0 1 1.815 3.849 24.88 24.88 0 0 1 .622 3.869l.82 9.6a37.98 37.98 0 0 1 0 7.008l-.627 4.473-.555 2.91a23.43 23.43 0 0 0-.334 2.711l-1.119 9.926a9.29 9.29 0 0 0-.073 1.067 21.27 21.27 0 0 1-2.02 8.617l-1.924 3.82-1.241 2.3a44.15 44.15 0 0 1-3.855 6.274l-4.5 6.428a26.61 26.61 0 0 1-2.9 3.61 22.936 22.936 0 0 0-2.493 3.026 11.512 11.512 0 0 1-1.477 1.859.783.783 0 0 1-1.069.135 3.6 3.6 0 0 1-.472-.359 63.09 63.09 0 0 1-7.072-6.876l-2.195-2.344a19.067 19.067 0 0 1-4.036-6.528 19.84 19.84 0 0 1-.93-4.531 23.5 23.5 0 0 1-.219-3.559l.209-9.752.264-3.2.334-5.1a33.89 33.89 0 0 0 .017-4.162l-.144-7.254c.032-2.105-.108-4.2-.26-6.3-.1-1.381-.332-2.754-.529-4.127a16.43 16.43 0 0 1-.083-3.8 30.41 30.41 0 0 1 .938-5.86 6.83 6.83 0 0 0 .17-.934 6.522 6.522 0 0 1 .909-2.679c.2-.288.246-.655.125-.984a10.95 10.95 0 0 1 .141-6.774 13.553 13.553 0 0 1 2.5-4.424 1.02 1.02 0 0 0 .2-1.176 9.89 9.89 0 0 1 .019-6.423 8.18 8.18 0 0 1 2.5-3.966 20.971 20.971 0 0 1 5.458-3.54 65.44 65.44 0 0 0 6.211-2.979 12.42 12.42 0 0 1 1.495-.729 10.3 10.3 0 0 0 3.513-2.593 6.55 6.55 0 0 0 1.232-2.02l.92-2.19a1.36 1.36 0 0 1 .375-.59.622.622 0 0 1 .864-.02 22.274 22.274 0 0 1 3.228 3.63 10.972 10.972 0 0 1 1.234 3.825c.111.662.156 1.333.229 1.972z"/><path d="M34.006 36.332a9.718 9.718 0 0 1 1.686 4.877c.151 1.138.242 2.283.273 3.431l.364 3.9.217 2.481a29.99 29.99 0 0 1 .2 5.922l-.32 3.545a17.91 17.91 0 0 1-3.7 9.631l-3.524 4.633a10.87 10.87 0 0 1-2.532 2.483 10.946 10.946 0 0 0-3.829 4.6 27.23 27.23 0 0 0-1.928 5.6 40.03 40.03 0 0 0-.653 4.458 67.24 67.24 0 0 1-2.648 13.6l-1.258 3.961a21.22 21.22 0 0 0-.927 3.781c-.268.061-.381-.12-.5-.266l-5-5.881a29.86 29.86 0 0 0-1.882-1.983 17.583 17.583 0 0 1-3.781-5.568 14.04 14.04 0 0 1-1-4.016.45.45 0 0 1 .332-.537l1.312-.55a3.78 3.78 0 0 0 1.753-1.547 10.167 10.167 0 0 0 1.43-3.245l1-5.363.714-6.844.315-2.351a16.712 16.712 0 0 0-.374-6.711 29.398 29.398 0 0 0-1.214-3.094 171.82 171.82 0 0 0-2.278-4.837l-1.349-2.51a13.78 13.78 0 0 1-1.724-4.281 17.15 17.15 0 0 1-.311-4.965c.53-.337.9.094 1.291.3a5.625 5.625 0 0 0 3.767.663c1.478-.27 3 .006 4.5-.165a25.755 25.755 0 0 0 7.014-2.148 42.93 42.93 0 0 0 8.413-4.363c2.35-1.676 4.6-3.505 5.726-6.324.061-.191.176-.354.425-.317z" fill="#636262"/><path d="M32.307 23.319a9.94 9.94 0 0 1 .776 2.444 12.2 12.2 0 0 1-.069 4.837 7.63 7.63 0 0 1-2.173 4.132 31.993 31.993 0 0 1-6.131 5.044 8.14 8.14 0 0 1-1.151.613l-6.9 2.891a26.98 26.98 0 0 1-6.62 1.831l-2.227.365a10.657 10.657 0 0 1-3.989-.429.59.59 0 0 1-.447-.506 4.65 4.65 0 0 1-.164-1.763 2.13 2.13 0 0 0 .058-.471 4.9 4.9 0 0 1 1.621-3.576 9.574 9.574 0 0 1 1.049-.964 32.85 32.85 0 0 1 5.594-3.57c2.377-1.195 4.9-2.03 7.325-3.087a3.53 3.53 0 0 1 .556-.206 38.95 38.95 0 0 0 5.962-2.331 36.6 36.6 0 0 0 3.784-1.984 7.11 7.11 0 0 0 2.4-2.256l.746-1.014zm-25.33.809a5.83 5.83 0 0 1 .079-3.991 8.996 8.996 0 0 1 3.977-5.006 33.61 33.61 0 0 1 5.862-2.863 48.34 48.34 0 0 0 5.378-2.516 12.83 12.83 0 0 0 3.934-3.4 6.54 6.54 0 0 0 1.145-2.464l.319-1.243a4.64 4.64 0 0 1 1.825 2.258 11.28 11.28 0 0 1 .4 6.1 6.11 6.11 0 0 1-1.135 2.463l-.946 1.224a7.006 7.006 0 0 1-1.9 1.6 59.87 59.87 0 0 1-6.444 3.306c-.909.394-1.845.723-2.8.985l-5.135 1.49a15.95 15.95 0 0 0-4.013 1.766c-.163.098-.34.18-.546.291z" fill="#f3ebec"/><path d="M3.847 34.701a11.68 11.68 0 0 1 .244-2.719 7.5 7.5 0 0 1 1.239-2.931 12.164 12.164 0 0 1 6.519-4.914l1.471-.468q1.253-.374 2.51-.729a42.69 42.69 0 0 0 7.693-3.125l4.234-2.408a14.72 14.72 0 0 0 2.129-1.712c.192-.17.356-.135.468.087a5.734 5.734 0 0 1 .065 5.574 8.1 8.1 0 0 1-3.5 3.6 82.65 82.65 0 0 1-7.938 3.767l-6.832 2.75a38.614 38.614 0 0 0-7.547 4.244 3.43 3.43 0 0 1-.5.314.174.174 0 0 1-.256-.14l.001-1.19z" fill="#f0bac3"/><path d="m20.461 105.778.812-3.216a46.9 46.9 0 0 0 1.134-5.813l.705-5.763a24.4 24.4 0 0 1 2.31-8.176 8.45 8.45 0 0 1 2.727-3.229 14.327 14.327 0 0 0 3.441-3.411l3.225-4.258a.336.336 0 0 1 .36-.163c.064.446.05.9-.04 1.341a6.15 6.15 0 0 0-.119.82 31.21 31.21 0 0 1-.823 5.983c-.207.937-.171 1.884-.343 2.823a22.38 22.38 0 0 1-1.669 5.667c-1.278 2.686-2.792 5.235-4.317 7.782-1.427 2.383-3.15 4.558-4.713 6.844l-2.43 3.512c-.566-.076-.348-.431-.26-.743zM2.903 90.057a24.7 24.7 0 0 1 .132-3.552 25.34 25.34 0 0 0 .074-2.847c.035-1.5.215-2.993.4-4.482l.044-.473c.288-3.157.289-6.321.274-9.487l-.212-7.352.014-1.069c0-.11 0-.248.145-.285s.2.054.254.169l.484 1.084 2.25 4.973a12.8 12.8 0 0 1 1.2 3.583 8.09 8.09 0 0 1 .107.94l-.017 4.156c-.061 1.259-.25 2.512-.379 3.769L7.43 81.54l-.779 6.108a10.566 10.566 0 0 1-1.757 4.49 2.56 2.56 0 0 1-1.408 1.033.41.41 0 0 1-.584-.383l.001-2.731zm31.101-53.726a7.68 7.68 0 0 1-1.131 2.307 8.325 8.325 0 0 1-1.985 2.157 1.93 1.93 0 0 0-.43.407 16.71 16.71 0 0 1-4.994 3.557l-3.293 1.651a27.247 27.247 0 0 1-4.694 1.979 31.43 31.43 0 0 1-3.26 1.073 14.73 14.73 0 0 1-3.273.415 50.037 50.037 0 0 0-2.259 0 3.15 3.15 0 0 0-.939.084 4.21 4.21 0 0 1-2.99-.342 9.46 9.46 0 0 1-1.348-.743 1.2 1.2 0 0 0-.55-.195c.033-.375-.448-.785-.044-1.1.316-.243.647.16.983.231a13.42 13.42 0 0 0 1.853.372 20.17 20.17 0 0 0 8.5-1.21l1.563-.558 7.521-2.9a28.82 28.82 0 0 0 9.975-7.281 2.4 2.4 0 0 1 .23-.269c.212-.165.362-.042.48.139a1.11 1.11 0 0 1 .085.226z" fill="#525252"/><path d="M20.46 105.782c.033.267-.036.569.26.743l-.427.707c-.033.049-.137.05-.258.09a2.183 2.183 0 0 1 .425-1.54z" fill="#404040"/></svg>