<svg id="Group_2594" data-name="Group 2594" xmlns="http://www.w3.org/2000/svg" width="32.844" height="51.682" viewBox="0 0 32.844 51.682">
  <path id="Path_6840" data-name="Path 6840" d="M292.937,2113.67a13.3,13.3,0,0,1-1.081,5.26c-.319.743-.67,1.474-1.049,2.188q-1.219,2.293-2.252,4.674a24.322,24.322,0,0,1-1.191,2.4,5.9,5.9,0,0,1-2.727,2.51,9.3,9.3,0,0,1-7.158.7,9.313,9.313,0,0,1-6.38-5.235,41.765,41.765,0,0,0-2.947-4.767,7.849,7.849,0,0,0-.937-1.07c-.818-.842-1.69-1.627-2.579-2.394a29.416,29.416,0,0,1-3.231-3.4,5.515,5.515,0,0,1-1.279-4.208,33.832,33.832,0,0,1,1.466-7.206,13.622,13.622,0,0,1,3.476-5.65c.634-.629,1.256-1.273,1.851-1.939a13.691,13.691,0,0,0,3.217-5.985c.149-.624.338-1.238.516-1.854a16.241,16.241,0,0,1,2.057-4.379,11.64,11.64,0,0,1,1.675-1.978,5.423,5.423,0,0,1,1.767-1.1,1.563,1.563,0,0,1,1.64.229c.616.448,1.116,1,1.675,1.5,1.78,1.583,3.254,3.453,4.9,5.161a10.831,10.831,0,0,1,1.1,1.37c.476.689.95,1.38,1.443,2.057a12.708,12.708,0,0,1,1.608,2.927c.161.417.323.833.5,1.242a18.11,18.11,0,0,1,1.358,6.689c.023.7.047,1.4.119,2.09a12.9,12.9,0,0,0,.707,2.751,42.414,42.414,0,0,1,1.478,5.145A9.6,9.6,0,0,1,292.937,2113.67Z" transform="translate(-260.099 -2080.098)"/>
  <path id="Path_6841" data-name="Path 6841" d="M328.959,2130.232a12.577,12.577,0,0,1-1.192,5.188c-.364.754-.737,1.5-1.128,2.245-.8,1.507-1.5,3.056-2.177,4.62a11.325,11.325,0,0,1-.855,1.63c-.155.242-.253.278-.481.158a4.5,4.5,0,0,1-2.056-1.782c-.485-.915-1.092-1.753-1.621-2.64-.657-1.1-1.309-2.208-1.985-3.3-.293-.473-.625-.925-.963-1.368a4.763,4.763,0,0,0-2-1.6c-.853-.345-1.7-.714-2.546-1.07q-1.62-.682-3.241-1.36a13.422,13.422,0,0,1-4.477-2.88c-.273-.278-.574-.529-.849-.805a8.06,8.06,0,0,1-1.852-3.789,14.922,14.922,0,0,1-.321-1.725,2.591,2.591,0,0,1,.115-1.236,12.019,12.019,0,0,1,2.98-4.885,25.957,25.957,0,0,0,2.971-3.292,15.5,15.5,0,0,0,2.617-5.389c.177-.7.366-1.4.576-2.1a13.977,13.977,0,0,1,2.19-4.307,6.7,6.7,0,0,1,1.477-1.47c.34-.243.657-.519,1-.762a.458.458,0,0,1,.667.091.69.69,0,0,1,.05.067,27.015,27.015,0,0,0,2.684,3.316,4.576,4.576,0,0,1,.3.4q1.1,1.481,2.312,2.867a12.407,12.407,0,0,1,.895,1.21c.486.716.953,1.444,1.429,2.167a9.709,9.709,0,0,1,1.056,2.086,40.5,40.5,0,0,1,1.354,3.868,13.074,13.074,0,0,1,.44,3.224,28.308,28.308,0,0,0,.18,2.923,9.582,9.582,0,0,0,.449,1.953c.377,1.2.764,2.392,1.141,3.589a21.838,21.838,0,0,1,.855,4C328.962,2130.187,328.963,2130.3,328.959,2130.232Z" transform="translate(-298.027 -2096.817)" fill="#636262"/>
  <path id="Path_6842" data-name="Path 6842" d="M308.071,2462.048c-.029.046-.047.109-.088.136a7.972,7.972,0,0,1-2.835,1.195,8.347,8.347,0,0,1-2.751-.016,10.835,10.835,0,0,1-2.093-.569,4.361,4.361,0,0,1-1.184-.612,8.68,8.68,0,0,1-2.82-3.249,30.155,30.155,0,0,0-3.268-5.245,17.353,17.353,0,0,0-2.818-2.849,28.547,28.547,0,0,1-3.9-4.006,3.4,3.4,0,0,1-.771-2.241c.013-.814.16-1.607.226-2.411a3.829,3.829,0,0,1,.2-.668c.126.358.225.609.3.867a6.448,6.448,0,0,0,1.834,2.942,17.98,17.98,0,0,0,2.822,2.351,19.744,19.744,0,0,0,3.36,1.687c1.258.462,2.447,1.082,3.685,1.59,2.42.995,2.177,1.1,3.684,3.1a19.647,19.647,0,0,1,1.3,2.047c.389.675.838,1.317,1.286,1.955a14,14,0,0,1,1.066,1.6,4.748,4.748,0,0,0,2.379,2.134c.125.058.245.129.365.2C308.063,2461.989,308.063,2462.024,308.071,2462.048Z" transform="translate(-283.586 -2413.742)" fill="#525252"/>
</svg>
