<svg xmlns="http://www.w3.org/2000/svg" width="37.476" height="65.571"><path d="M18.056 5.999a5.41 5.41 0 0 1 .12 1.473c-.005.15-.022.3-.048.446a.466.466 0 0 0 .18.497 6.85 6.85 0 0 1 1.074 1.161c.36.448.608.978.721 1.542a1.18 1.18 0 0 0 .34.66c.608.62 1.151 1.3 1.622 2.031a5.77 5.77 0 0 1 .932 3c.015.292-.11.617.067.868a3.84 3.84 0 0 0 .61.553 6.54 6.54 0 0 1 1.501 1.713 13.32 13.32 0 0 1 .891 1.9l1.838 4.817a20.33 20.33 0 0 1 1.034 3.606l.339 2.395.14 1.58a12.54 12.54 0 0 0 .228 1.444l.888 5.273c.03.188.07.375.12.56a11.38 11.38 0 0 1 .231 4.73l-.426 2.25-.299 1.368a23.65 23.65 0 0 1-1.056 3.799l-1.368 3.972a14.289 14.289 0 0 1-.961 2.285 12.27 12.27 0 0 0-.834 1.932c-.12.409-.283.804-.485 1.18a.42.42 0 0 1-.53.226c-.1-.03-.2-.068-.296-.115a33.77 33.77 0 0 1-4.654-2.494l-1.475-.883a10.21 10.21 0 0 1-3.042-2.773 10.62 10.62 0 0 1-1.15-2.193 12.58 12.58 0 0 1-.636-1.8l-1.331-5.048-.337-1.685-.58-2.676a18.14 18.14 0 0 0-.606-2.144l-1.144-3.711c-.295-1.089-.676-2.147-1.064-3.204-.254-.695-.577-1.367-.88-2.045a8.79 8.79 0 0 1-.603-1.942 16.25 16.25 0 0 1-.384-3.153 3.664 3.664 0 0 0-.05-.506 3.505 3.505 0 0 1 .072-1.513.575.575 0 0 0-.08-.525 5.868 5.868 0 0 1-.925-3.503 7.265 7.265 0 0 1 .633-2.649.544.544 0 0 0-.068-.636 5.294 5.294 0 0 1-.938-3.307 4.38 4.38 0 0 1 .699-2.41 11.22 11.22 0 0 1 2.284-2.63 35.03 35.03 0 0 0 2.757-2.445 6.65 6.65 0 0 1 .661-.596 5.503 5.503 0 0 0 1.425-1.852 3.51 3.51 0 0 0 .335-1.22l.15-1.263a.727.727 0 0 1 .105-.359.334.334 0 0 1 .448-.14c.78.382 1.518.848 2.197 1.39a5.854 5.854 0 0 1 1.2 1.787l.408.982z"/><path d="M22.857 19.51a5.2 5.2 0 0 1 1.585 2.261c.245.563.46 1.14.646 1.726l.768 1.95.477 1.245c.423.972.747 1.984.97 3.02l.36 1.873a11.27 11.27 0 0 1-.031 4.044c-.117.495-.267.982-.45 1.457l-1.13 2.904a5.82 5.82 0 0 1-.933 1.654 5.86 5.86 0 0 0-1.292 2.93 14.576 14.576 0 0 0-.165 3.167c.062.802.17 1.6.322 2.39.47 2.435.685 4.911.645 7.39l-.062 2.224a11.36 11.36 0 0 0 .077 2.083c-.13.072-.21-.006-.299-.062l-3.442-2.288-1.26-.743a9.41 9.41 0 0 1-2.768-2.312 7.496 7.496 0 0 1-1.107-1.919.243.243 0 0 1 .093-.323l.591-.476c.33-.272.567-.641.674-1.055a5.44 5.44 0 0 0 .257-1.88l-.278-2.908-.643-3.627-.184-1.257a8.95 8.95 0 0 0-1.182-3.398 15.7 15.7 0 0 0-1.082-1.412l-1.885-2.153-1.065-1.093a7.355 7.355 0 0 1-1.52-1.95 9.18 9.18 0 0 1-.89-2.51c.222-.25.476-.084.708-.036a3.01 3.01 0 0 0 2.037-.215c.72-.357 1.538-.44 2.29-.748a13.78 13.78 0 0 0 3.293-2.14 22.97 22.97 0 0 0 3.682-3.485 7.909 7.909 0 0 0 2.016-4.1c.011-.107.045-.208.177-.228z" fill="#636262"/><path d="M20.066 13.066a5.34 5.34 0 0 1 .76 1.143 6.53 6.53 0 0 1 .678 2.502 4.084 4.084 0 0 1-.509 2.444 17.115 17.115 0 0 1-2.41 3.5 4.326 4.326 0 0 1-.502.485l-3.123 2.505a14.44 14.44 0 0 1-3.136 1.919l-1.091.52a5.7 5.7 0 0 1-2.116.368.314.314 0 0 1-.304-.195 2.49 2.49 0 0 1-.345-.883 1.13 1.13 0 0 0-.04-.25 2.623 2.623 0 0 1 .305-2.082c.116-.227.25-.444.398-.651a17.59 17.59 0 0 1 2.352-2.662c1.046-.966 2.222-1.769 3.316-2.671a1.9 1.9 0 0 1 .258-.188 20.85 20.85 0 0 0 2.724-2.08 19.52 19.52 0 0 0 1.65-1.578c.416-.427.726-.945.905-1.515l.23-.63zM7.15 17.22a3.12 3.12 0 0 1-.548-2.065 4.81 4.81 0 0 1 1.308-3.163 17.99 17.99 0 0 1 2.593-2.337 25.89 25.89 0 0 0 2.396-2.088 6.87 6.87 0 0 0 1.522-2.331 3.51 3.51 0 0 0 .226-1.436l-.019-.688a2.48 2.48 0 0 1 1.273.893 6.04 6.04 0 0 1 1.104 3.08 3.27 3.27 0 0 1-.22 1.435l-.307.769a3.75 3.75 0 0 1-.74 1.102 32.05 32.05 0 0 1-2.828 2.653 11.2 11.2 0 0 1-1.297.92L9.191 15.49a8.564 8.564 0 0 0-1.804 1.5c-.067.077-.147.142-.237.23z" fill="#f3ebec"/><path d="M7.1 23.123a6.25 6.25 0 0 1-.277-1.435 4.022 4.022 0 0 1 .206-1.69 6.51 6.51 0 0 1 2.63-3.49l.689-.458q.59-.378 1.184-.746a22.817 22.817 0 0 0 3.497-2.743l1.824-1.864a7.88 7.88 0 0 0 .844-1.195c.07-.115.163-.122.254-.024a3.07 3.07 0 0 1 .856 2.859 4.334 4.334 0 0 1-1.269 2.366 44.13 44.13 0 0 1-3.53 3.11l-3.11 2.42a20.68 20.68 0 0 0-3.258 3.298 1.803 1.803 0 0 1-.21.235c-.022.022-.054.03-.085.024s-.056-.029-.067-.059l-.179-.608z" fill="#f0bac3"/><path d="m26.136 57.247-.052-1.774a25.1 25.1 0 0 0-.282-3.158l-.487-3.07a13.06 13.06 0 0 1-.015-4.55 4.52 4.52 0 0 1 .928-2.059 7.67 7.67 0 0 0 1.266-2.267l1.031-2.666a.18.18 0 0 1 .16-.14 2.1 2.1 0 0 1 .178.695 3.29 3.29 0 0 0 .06.44 16.69 16.69 0 0 1 .458 3.197c.031.512.19.995.24 1.503a11.97 11.97 0 0 1-.022 3.163c-.262 1.571-.665 3.104-1.074 4.642-.382 1.437-.948 2.81-1.415 4.217l-.731 2.166c-.3.047-.24-.167-.243-.34zm-11.357-5.5a13.22 13.22 0 0 1-.456-1.846 13.6 13.6 0 0 0-.381-1.476c-.203-.774-.33-1.57-.457-2.366l-.047-.25c-.32-1.667-.787-3.295-1.254-4.925l-1.196-3.75-.15-.552c-.015-.055-.04-.127.03-.172s.114-.003.156.049l.41.49 1.888 2.229a6.85 6.85 0 0 1 1.149 1.666 4.33 4.33 0 0 1 .192.465l.605 2.14.363 1.995.223 1.248.5 3.258a5.66 5.66 0 0 1-.241 2.566 1.37 1.37 0 0 1-.573.74.22.22 0 0 1-.355-.107l-.406-1.402zm8.08-32.235a4.103 4.103 0 0 1-.241 1.354 4.46 4.46 0 0 1-.704 1.403 1.03 1.03 0 0 0-.16.273 8.94 8.94 0 0 1-2.047 2.563l-1.45 1.336a14.58 14.58 0 0 1-2.125 1.714 16.71 16.71 0 0 1-1.519 1.033 7.9 7.9 0 0 1-1.623.696 27.07 27.07 0 0 0-1.162.333 1.68 1.68 0 0 0-.468.181c-.48.281-1.044.376-1.589.265a4.983 4.983 0 0 1-.804-.185.64.64 0 0 0-.31-.015c-.038-.197-.346-.338-.185-.558.127-.171.357-.013.54-.026a7.2 7.2 0 0 0 1.009-.08 10.8 10.8 0 0 0 4.195-1.878l.722-.519 3.442-2.6a15.424 15.424 0 0 0 4.059-5.22c.021-.059.047-.116.076-.17.084-.116.18-.076.267 0a.6.6 0 0 1 .077.1z" fill="#525252"/><path d="M26.137 57.246c.055.133.063.294.244.347l-.116.424c-.01.028-.065.043-.12.084a1.17 1.17 0 0 1-.008-.855z" fill="#404040"/></svg>