<svg xmlns="http://www.w3.org/2000/svg" width="48.715" height="63.03" viewBox="0 0 48.715 63.03">
  <g id="Group_2603" data-name="Group 2603" transform="translate(0)">
    <path id="Path_6849" data-name="Path 6849" d="M3295.513,1582.9a11.245,11.245,0,0,1,.8-4.592c.39-.926.755-1.866,1.2-2.765a27.23,27.23,0,0,0,2.163-6.146c.369-1.633.837-3.245,1.318-4.848a18.646,18.646,0,0,1,8.485-10.831,38.231,38.231,0,0,1,3.365-1.877,21.931,21.931,0,0,1,7.587-1.942,5.7,5.7,0,0,1,2.471.371,23.975,23.975,0,0,1,2.327.943c1.452.718,2.883,1.479,4.307,2.25a9,9,0,0,1,2.841,2.322,22.464,22.464,0,0,1,4.4,7.649,14.291,14.291,0,0,0,2.65,5.189,9.6,9.6,0,0,1,1.276,2.16c.84,1.888,1.715,3.761,2.522,5.663a10.5,10.5,0,0,1,.194,8.467,33.32,33.32,0,0,1-1.967,4.253,13.391,13.391,0,0,0-1.784,6.389,39.4,39.4,0,0,1-1.686,9.381,12.854,12.854,0,0,1-2.074,4.18,6.981,6.981,0,0,1-2.349,2.117c-3.441,1.761-6.953,2.387-10.624.659a21.515,21.515,0,0,1-3.331-1.925q-4.1-2.916-8.22-5.8a66.638,66.638,0,0,1-7.292-6.427c-.57-.536-1.082-1.134-1.655-1.666a30.631,30.631,0,0,1-5.54-7.538A10.906,10.906,0,0,1,3295.513,1582.9Z" transform="translate(-3295.511 -1549.885)"/>
    <path id="Path_6850" data-name="Path 6850" d="M3374.818,1610.013a3.817,3.817,0,0,1-.613,2.328,11.173,11.173,0,0,0-1.569,3.862c-.308,2.434-1.019,4.8-1.142,7.268a4.227,4.227,0,0,1-.217,1.144c-.9,2.643-1.813,5.284-2.748,7.915a2.244,2.244,0,0,1-3.045,1.513,3.861,3.861,0,0,1-1.2-.588,15.464,15.464,0,0,1-1.731-1.319,26.515,26.515,0,0,0-3.948-3.1,7.182,7.182,0,0,1-2.536-3.048,19.047,19.047,0,0,0-1.9-3.151,19.6,19.6,0,0,0-3.843-3.721,13.744,13.744,0,0,0-4.2-2.04,15.412,15.412,0,0,1-4.118-1.833,13.779,13.779,0,0,1-2.687-2.511,8.585,8.585,0,0,1-1.35-3.225,11.113,11.113,0,0,1-.389-2.477c-.118-1.894-.232-3.785-.471-5.669a2.617,2.617,0,0,1,.111-.986c.643-2.37,1.271-4.745,1.964-7.1a16.059,16.059,0,0,1,5.681-7.913c.908-.737,1.927-1.339,2.907-1.983.529-.347.855-.262.82.407a10.6,10.6,0,0,0,.805,3.915,6.517,6.517,0,0,0,2.75,3.493,31.638,31.638,0,0,0,6.189,3.327c1.206.438,2.361,1.012,3.546,1.508a29.452,29.452,0,0,0,3.959,1.36,5.145,5.145,0,0,1,2.568,1.5c.83.9,1.721,1.75,2.537,2.675a18.909,18.909,0,0,1,3.429,6.1A4.769,4.769,0,0,1,3374.818,1610.013Z" transform="translate(-3330.697 -1578.05)" fill="#636262"/>
    <path id="Path_6851" data-name="Path 6851" d="M3346.623,1767.81c-.005.061.009.15-.019.168a8.577,8.577,0,0,1-5.916,1.355,9.759,9.759,0,0,1-3.987-1.676c-1.656-1.139-3.284-2.317-4.915-3.493q-2.65-1.91-5.28-3.846a7.38,7.38,0,0,1-.777-.635c-2.568-2.488-5.289-4.816-7.76-7.405a27.961,27.961,0,0,1-4.454-6.262,8,8,0,0,1-.083-7.566c.47.134.34.546.465.8a3.3,3.3,0,0,1,.175.813,13.6,13.6,0,0,0,4.251,7.794,17.083,17.083,0,0,0,5.774,3.323c.686.236,1.362.5,2.037.766a7.876,7.876,0,0,1,2.524,1.62,19.945,19.945,0,0,1,4.01,4.91,10.377,10.377,0,0,0,4.382,4.491,28.674,28.674,0,0,1,4.382,3.068,13.822,13.822,0,0,0,1.238.854,4.973,4.973,0,0,0,3.185.826A.925.925,0,0,1,3346.623,1767.81Z" transform="translate(-3309.904 -1709.425)" fill="#525252"/>
    <path id="Path_6852" data-name="Path 6852" d="M3444.375,1583.894a7.314,7.314,0,0,0-3.549-1.76,49.545,49.545,0,0,1-13.109-5.416c-2.181-1.2-3.138-4.8-2.76-6.579a2.379,2.379,0,0,1,2.192-2,8.9,8.9,0,0,1,5.4.73c1.767.962,3.544,1.907,5.312,2.868a5.291,5.291,0,0,1,1.72,1.575c.792,1.081,1.573,2.173,2.305,3.3a12.6,12.6,0,0,1,1.344,2.879,25.986,25.986,0,0,0,1.48,3.735C3444.981,1583.63,3444.931,1583.886,3444.375,1583.894Z" transform="translate(-3404.963 -1565.235)" fill="#525252"/>
    <path id="Path_6853" data-name="Path 6853" d="M3551.55,1667.381c.288-.139.322-.4.332-.677a6.183,6.183,0,0,1,1.356,2.339h0A4.937,4.937,0,0,1,3551.55,1667.381Z" transform="translate(-3512.137 -1648.722)" fill="#2b2b2b"/>
    <path id="Path_6854" data-name="Path 6854" d="M3562.52,1681.9c.293.151.6.3.574.7,0,.036-.1.107-.122.1-.363-.14-.429-.457-.452-.8Z" transform="translate(-3521.418 -1661.578)" fill="#2b2b2b"/>
  </g>
</svg>
