<svg id="Group_2595" data-name="Group 2595" xmlns="http://www.w3.org/2000/svg" width="39.156" height="61.604" viewBox="0 0 39.156 61.604">
  <path id="Path_6865" data-name="Path 6865" d="M863.074,2105.385l.75,1.956a18.308,18.308,0,0,1,1.122,5.353c.062.93.116,1.862.141,2.794a12.366,12.366,0,0,0,.62,3.527c.382,1.17.764,2.339,1.137,3.511a37.7,37.7,0,0,1,1.017,3.961,14.373,14.373,0,0,1-.447,7,19.336,19.336,0,0,1-1.538,3.677c-1.211,2.26-2.315,4.569-3.34,6.918a19.989,19.989,0,0,1-1.249,2.386,6.656,6.656,0,0,1-2.743,2.55,12.652,12.652,0,0,1-3.644,1.322,13.125,13.125,0,0,1-5.342-.355,11.027,11.027,0,0,1-7.454-6.135,51.918,51.918,0,0,0-3.563-5.77,9.206,9.206,0,0,0-1.121-1.272c-.931-.954-1.912-1.855-2.925-2.721a35.676,35.676,0,0,1-3.875-4.027,6.476,6.476,0,0,1-1.645-4.879c.026-.332.035-.666.071-1a41.932,41.932,0,0,1,1.242-6.362c.173-.642.369-1.278.582-1.908a16.2,16.2,0,0,1,3.948-6.285c.8-.8,1.592-1.613,2.342-2.459a16.405,16.405,0,0,0,3.746-6.965c.177-.71.4-1.409.585-2.115a18.849,18.849,0,0,1,2.235-4.992,14.2,14.2,0,0,1,2.2-2.707,6.527,6.527,0,0,1,2.093-1.333,1.878,1.878,0,0,1,2.042.255,21.9,21.9,0,0,1,1.923,1.718,51.668,51.668,0,0,1,4.673,4.921,38.729,38.729,0,0,1,4.888,6.3,12.2,12.2,0,0,1,1.041,1.931c-.313.643-.99.353-1.467.577a4.4,4.4,0,0,1-.589.086.535.535,0,0,1-.271-.1c-.78-1.233-1.5-2.5-2.337-3.7-1.74-2.516-3.719-4.841-5.7-7.168-.613-.742-1.217-1.493-1.79-2.268-.658-.889-.724-.886-1.654-.233a12.68,12.68,0,0,0-4.307,5.855c-.652,1.714-1.018,3.514-1.6,5.25a19.229,19.229,0,0,1-3.726,6.321,9.427,9.427,0,0,0-.723.75,18.036,18.036,0,0,1-2.164,2.344,12.994,12.994,0,0,0-3.149,5.372,2.807,2.807,0,0,0-.085,1.188c.347,3.141,1.339,5.945,3.958,7.986a20.29,20.29,0,0,0,4.776,2.868c2.187.894,4.328,1.9,6.531,2.75a6.482,6.482,0,0,1,3.037,2.338c1.9,2.693,3.437,5.617,5.218,8.386a5.911,5.911,0,0,0,1.72,1.769c.6.4,1,.347,1.341-.344.513-1.046,1.045-2.085,1.467-3.169.944-2.427,2.457-4.571,3.413-6.992a13.211,13.211,0,0,0,.557-8.411c-.48-1.838-1.065-3.64-1.662-5.441a17.6,17.6,0,0,1-.919-5.686,18.327,18.327,0,0,0-1-6.076,2.79,2.79,0,0,1-.291-1.351C861.676,2106.369,862.124,2105.6,863.074,2105.385Z" transform="translate(-828.955 -2088.876)"/>
  <path id="Path_6866" data-name="Path 6866" d="M1140.271,2257.217a11.631,11.631,0,0,1-1.747,1.563,6.927,6.927,0,0,1-3.177,1.917.855.855,0,0,1-1.032-.393,1.213,1.213,0,0,1,.03-1.407,5.13,5.13,0,0,1,3.2-2.325.369.369,0,0,0,.191-.014c.117-.091.292-.044.4-.166a2.789,2.789,0,0,1,1.237-.21.378.378,0,0,0,.419-.162A3.356,3.356,0,0,1,1140.271,2257.217Z" transform="translate(-1106.152 -2240.709)" fill="#ed98af"/>
  <path id="Path_6867" data-name="Path 6867" d="M897.994,2152.767a2.3,2.3,0,0,1-.908.576,5.817,5.817,0,0,0-1.9,1.563,1.757,1.757,0,0,0-.412.887.764.764,0,0,0,1.067.852,7.39,7.39,0,0,0,1.6-.777c.487-.335,1.024-.6,1.539-.893a2.319,2.319,0,0,0,.27,1.054,17.336,17.336,0,0,1,1.121,6.245,19.791,19.791,0,0,0,1.158,6.64,52.208,52.208,0,0,1,1.53,5.158,12.943,12.943,0,0,1-.6,7.919,24.919,24.919,0,0,1-1.546,3.239c-.887,1.566-1.6,3.213-2.341,4.848-.426.938-.883,1.863-1.354,2.78-.283.552-.359.558-.928.247a5.643,5.643,0,0,1-2.453-2.4c-.467-.915-1.07-1.76-1.626-2.628s-1.087-1.75-1.579-2.658a23.136,23.136,0,0,0-2.291-3.382,5.309,5.309,0,0,0-2.152-1.576c-2.145-.9-4.286-1.811-6.442-2.686a18.6,18.6,0,0,1-6.938-4.747,6.544,6.544,0,0,1-1.134-1.751,16.036,16.036,0,0,1-1.228-4.3,4.679,4.679,0,0,1,.238-2.25,14.1,14.1,0,0,1,3.585-5.565c.6-.575,1.152-1.193,1.726-1.791.331.58.9,1.009,1.061,1.7-.754,1.71-.336,3.382.182,5.043.076.244.247.534.563.468s.323-.4.319-.656c-.015-1.029-.21-2.044-.242-3.073a2.1,2.1,0,0,1,0-.98c.214-.3.505-.184.69-.036a3.484,3.484,0,0,0,3.12.784c.265.473.113,1.058.409,1.525.091.143.185.311.361.305a.366.366,0,0,0,.333-.425,42.114,42.114,0,0,0-.22-4.864c-.039-.194-.1-.422-.34-.435-.273-.014-.405.2-.477.434a3.057,3.057,0,0,0-.026,1.382,2.078,2.078,0,0,1-.027,1.365c-.3.268-.5.012-.654-.173a9.831,9.831,0,0,0-4.247-2.795.466.466,0,0,1-.214-.2,28.711,28.711,0,0,0,2.238-3.155,18.2,18.2,0,0,0,1.985-4.858c.26-.993.555-1.976.848-2.96a5.084,5.084,0,0,1,.283-.633l.165.029a4.766,4.766,0,0,0,2.56.55,2.246,2.246,0,0,1,1.612.261,30.413,30.413,0,0,1,.834,6.079c-.3.5-.78.2-1.177.268-.424.076-.952.095-.97.654-.016.506.485.594.869.656a30.569,30.569,0,0,0,4.427.679,4.361,4.361,0,0,0,.6-.009c.279-.035.691.06.728-.33.031-.316-.354-.344-.6-.417-.477-.144-.966-.247-1.434-.423-.34-.128-.705-.227-.855-.622.281-2.647-.46-5.2-.711-7.8-.035-.361-.152-.714-.172-1.08,0-.521.4-.711.776-.906a3.493,3.493,0,0,0,1.194-.837.719.719,0,0,1,.243-.145,8.8,8.8,0,0,1,1.445,1.643c.865,1.139,1.8,2.221,2.692,3.333a42.2,42.2,0,0,1,3.481,5.22A2.063,2.063,0,0,1,897.994,2152.767Z" transform="translate(-866.607 -2136.904)" fill="#636262"/>
  <path id="Path_6868" data-name="Path 6868" d="M855.508,2454.142c.082.253.17.5.246.759a8.049,8.049,0,0,0,2.8,4.031,2.149,2.149,0,0,1,.233.187,16.192,16.192,0,0,0,4.393,3.075c.76.4,1.579.7,2.372,1.041,1.831.789,3.669,1.565,5.492,2.371a4.5,4.5,0,0,1,1.77,1.413,36.454,36.454,0,0,1,2.895,4.3,21.751,21.751,0,0,0,1.43,2.161,17.38,17.38,0,0,1,1.331,1.988,5.853,5.853,0,0,0,2.413,2.31,2.2,2.2,0,0,1,.755.45c0,.212-.159.289-.3.361-.565.282-1.123.585-1.707.822a7.023,7.023,0,0,1-2.622.519,12.737,12.737,0,0,1-4.023-.59,8.52,8.52,0,0,1-2.6-1.439,9.591,9.591,0,0,1-2.965-3.934,10.579,10.579,0,0,0-.865-1.572c-.942-1.449-1.844-2.924-2.9-4.3a20.128,20.128,0,0,0-2.5-2.567c-1.032-.94-2.107-1.837-3.089-2.826a27.174,27.174,0,0,1-2.428-2.774,3.474,3.474,0,0,1-.731-2.127,15.062,15.062,0,0,1,.25-3.274C855.316,2454.437,855.119,2454.018,855.508,2454.142Z" transform="translate(-852.526 -2420.663)" fill="#525252"/>
  <path id="Path_6869" data-name="Path 6869" d="M996.4,2113.476a12.419,12.419,0,0,1,4.044-5.681c.322-.235.627-.494.955-.72.413-.284.6-.243.913.161q1.091,1.423,2.18,2.848l-.109.11a13.4,13.4,0,0,0-3.754,1.149,6.231,6.231,0,0,0-2.085,1.282,14.461,14.461,0,0,0-2.025.932Z" transform="translate(-981.064 -2105.241)" fill="#636262"/>
  <path id="Path_6870" data-name="Path 6870" d="M932.453,2307.671c-.124-.1-.245-.211-.373-.309a1.443,1.443,0,0,1-.62-1.256,1.17,1.17,0,0,1,.594-.626,2.579,2.579,0,0,1,1.152.275,9.426,9.426,0,0,1,3.814,2.969.316.316,0,0,1,.012.541c-.122.112-.238.231-.367.333a.921.921,0,0,1-1.022.123c-.3-.139-.6-.27-.888-.435-.428-.249-.841-.525-1.26-.789A5.619,5.619,0,0,1,932.453,2307.671Z" transform="translate(-922.069 -2285.639)" fill="#ec98af"/>
  <path id="Path_6871" data-name="Path 6871" d="M857.992,2451.611l-.354.381a2.59,2.59,0,0,1,.034-.462c.026-.106.091-.264.251-.167C857.977,2451.4,857.971,2451.525,857.992,2451.611Z" transform="translate(-855.01 -2418.131)" fill="#393938"/>
  <path id="Path_6872" data-name="Path 6872" d="M1174.083,2259.952a.341.341,0,0,1-.4.166.345.345,0,0,1,.4-.166Z" transform="translate(-1142.109 -2244.269)" fill="#636262"/>
  <path id="Path_6873" data-name="Path 6873" d="M1043.243,2168.3a8.546,8.546,0,0,1-.257-1.969c-.2-1.377-.472-2.746-.55-4.139.163-.256.443-.234.69-.288.282-.061.642-.077.685-.428.048-.385-.328-.422-.594-.517a1.612,1.612,0,0,1-.773-.381,1.732,1.732,0,0,1,1.8-1.011,12.968,12.968,0,0,1,.458,2.337c.127,1.153.323,2.3.476,3.447.092.69.2,1.381.224,2.075a2.515,2.515,0,0,1-.351,1.333A1.539,1.539,0,0,1,1043.243,2168.3Z" transform="translate(-1022.881 -2153.088)" fill="#ed98b0"/>
  <path id="Path_6874" data-name="Path 6874" d="M1112.618,2359.49a1.725,1.725,0,0,1-.942-.269,9.256,9.256,0,0,1-1.619-1.315c-.528-.5-1-1.058-1.487-1.6a1.412,1.412,0,0,1-.29-.512.789.789,0,0,1,.934-1.028,2.436,2.436,0,0,1,1,.428,11.9,11.9,0,0,1,1.549,1.248,7.148,7.148,0,0,0,1.266,1.111,1.209,1.209,0,0,1,.206,1.684A.736.736,0,0,1,1112.618,2359.49Z" transform="translate(-1082.657 -2330.391)" fill="#fec375"/>
  <path id="Path_6875" data-name="Path 6875" d="M1027.2,2254.166c.617.1,1.177.418,1.808.458a14.45,14.45,0,0,0,2.465.761,1.721,1.721,0,0,1,.725.3.46.46,0,0,1,.015.7.948.948,0,0,1-.722.278,14.474,14.474,0,0,1-1.788-.083c-1.31-.2-2.613-.448-3.917-.681a2.79,2.79,0,0,1-.48-.127.735.735,0,0,1-.522-.662.755.755,0,0,1,.466-.8,2.436,2.436,0,0,1,1.261-.21C1026.734,2254.132,1026.966,2254.145,1027.2,2254.166Z" transform="translate(-1006.835 -2238.95)" fill="#a0f0ed"/>
  <path id="Path_6876" data-name="Path 6876" d="M1045.63,2341.85a1.216,1.216,0,0,0-.154.763,9.508,9.508,0,0,1-.847,3.448,2.411,2.411,0,0,1-.418.666.692.692,0,0,1-1.157-.18,2.209,2.209,0,0,1-.149-1.361,15.144,15.144,0,0,1,.609-3.009,2.2,2.2,0,0,1,.686-1.183C1044.6,2341.405,1045.245,2341.411,1045.63,2341.85Z" transform="translate(-1023.272 -2317.9)" fill="#ec98af"/>
  <path id="Path_6877" data-name="Path 6877" d="M936.265,2329.4a1.011,1.011,0,0,1,1.042.826c.091.99.189,1.981.271,2.972.041.5.055.993.077,1.49a1.031,1.031,0,0,1-.022.3c-.067.264-.177.543-.446.619-.294.083-.479-.174-.649-.377a2.292,2.292,0,0,1-.433-.89,12.762,12.762,0,0,1-.446-3.646A1.447,1.447,0,0,1,936.265,2329.4Z" transform="translate(-925.882 -2307.368)" fill="#9fefec"/>
  <path id="Path_6878" data-name="Path 6878" d="M1101.4,2212.076c.008.755-.121,1.249-.637,1.564a.628.628,0,0,1-.942-.2,4.707,4.707,0,0,1-.558-1.689,4.837,4.837,0,0,1,.131-2.456,1.408,1.408,0,0,1,.346-.594.646.646,0,0,1,.614-.248.741.741,0,0,1,.617.576c.064.324.091.656.137.984C1101.219,2210.763,1101.326,2211.516,1101.4,2212.076Z" transform="translate(-1074.416 -2197.483)" fill="#fdc375"/>
  <path id="Path_6879" data-name="Path 6879" d="M990.453,2304.782q-.006-.271-.012-.542a6.477,6.477,0,0,0-.066-1.291c-.056-.394-.055-.795-.1-1.19a1.139,1.139,0,0,1,.551-1.095.525.525,0,0,1,.856.306,7.866,7.866,0,0,1,.151,1.284,30.448,30.448,0,0,0,.207,3.774,1.715,1.715,0,0,1-.26.945.425.425,0,0,1-.738.067,2.308,2.308,0,0,1-.537-1.264C990.478,2305.447,990.47,2305.114,990.453,2304.782Z" transform="translate(-975.49 -2281.156)" fill="#9fefec"/>
  <path id="Path_6880" data-name="Path 6880" d="M955.3,2414.614a.479.479,0,0,1,.487.676,2.056,2.056,0,0,1-.67.973c-.99.785-1.985,1.562-2.979,2.342a1.6,1.6,0,0,1-.167.11c-.3.177-.579.187-.733.015a.692.692,0,0,1-.061-.75.324.324,0,0,1,.044-.089,8.461,8.461,0,0,1,3.332-3.067A1.826,1.826,0,0,1,955.3,2414.614Z" transform="translate(-939.911 -2384.775)" fill="#fdc375"/>
  <path id="Path_6881" data-name="Path 6881" d="M1058.847,2335.633l-.572-.058c-.649-.067-.665-.082-.858-.8a.8.8,0,0,1,.526-.426,4.167,4.167,0,0,1,1.484-.116,8.214,8.214,0,0,0,3.076-.04,2.7,2.7,0,0,1,.891-.014.682.682,0,0,1,.563.618.66.66,0,0,1-.436.6,1.9,1.9,0,0,1-.78.143c-.832.013-1.665.017-2.5.032C1059.777,2335.589,1059.312,2335.615,1058.847,2335.633Z" transform="translate(-1036.49 -2311.684)" fill="#9fefec"/>
  <path id="Path_6882" data-name="Path 6882" d="M1022.2,2142.927a7.53,7.53,0,0,0-1.748.986,1.482,1.482,0,0,1-1.384.807c-.607.035-1.047-.2-.852-.949a1.822,1.822,0,0,1,1.027-1.01q1.641-.669,3.294-1.31a1.942,1.942,0,0,1,1.621-.054.534.534,0,0,1-.292.563c-.245.153-.508.28-.758.425A3.53,3.53,0,0,0,1022.2,2142.927Z" transform="translate(-1000.833 -2136.446)" fill="#a0efec"/>
  <path id="Path_6883" data-name="Path 6883" d="M999.618,2168.85a2.577,2.577,0,0,0,.071.282c.145.391.38.6.935.43a9.714,9.714,0,0,0,1.229-.57c.387.081.776.156,1.161.244a.855.855,0,0,1,.472.344.483.483,0,0,1-.077.7,1.44,1.44,0,0,1-.821.314c-.265.008-.529.022-.794.034-.749-.015-1.5-.036-2.247-.044a5.308,5.308,0,0,1-1.161-.132.886.886,0,0,1-.69-.616,1.25,1.25,0,0,1,1.04-.825C999.03,2168.956,999.325,2168.905,999.618,2168.85Z" transform="translate(-982.24 -2161.524)" fill="#fdc376"/>
  <path id="Path_6884" data-name="Path 6884" d="M879.241,2392.812a8.212,8.212,0,0,1,1.766.191,2.593,2.593,0,0,1,.383.1.659.659,0,0,1,.124,1.19,1.778,1.778,0,0,1-.922.334,14.137,14.137,0,0,1-2.183.016,2.04,2.04,0,0,1-.936-.3.767.767,0,0,1-.421-.735.809.809,0,0,1,.6-.713,1.587,1.587,0,0,1,.487-.077C878.472,2392.8,878.8,2392.812,879.241,2392.812Z" transform="translate(-872.644 -2364.969)" fill="#ed98af"/>
  <path id="Path_6885" data-name="Path 6885" d="M1117.463,2299.96a1.588,1.588,0,0,1,.794.289,27.123,27.123,0,0,1,2.637,2.134,1.45,1.45,0,0,1,.432.659.377.377,0,0,1-.431.494,1.449,1.449,0,0,1-.647-.247q-1.457-.964-2.906-1.938a1.116,1.116,0,0,1-.458-.512.649.649,0,0,1,.58-.878Z" transform="translate(-1090.47 -2280.625)" fill="#9fefec"/>
  <path id="Path_6886" data-name="Path 6886" d="M973.053,2261.337a11.878,11.878,0,0,0-1.8-.182c-.334-.033-.672-.1-.766-.505-.084-.357.1-.645.547-.826a4.9,4.9,0,0,1,2.544-.173,1.351,1.351,0,0,1,.531.256c.526.357.512.877-.033,1.175A1.883,1.883,0,0,1,973.053,2261.337Z" transform="translate(-957.504 -2243.929)" fill="#fcc275"/>
</svg>
