<svg xmlns="http://www.w3.org/2000/svg" width="39.641" height="50.543"><path d="M13.38 13.606a.72.72 0 0 1 .118-.149c.137-.102.198-.206.104-.379a2.183 2.183 0 0 1-.087-1.688 4.94 4.94 0 0 1 3.345-3.537c.922-.289 1.794-.718 2.71-1.032a5.45 5.45 0 0 0 1.746-.952 9.18 9.18 0 0 1 3.029-1.532 6.21 6.21 0 0 1 1.644-.295 2.09 2.09 0 0 1 1.069.17 1.62 1.62 0 0 0 .878.129q.32-.026.642-.033a2.352 2.352 0 0 1 1.6.577c.292.19.491.494.549.838.012.151.11.282.253.334l.449.255a3.14 3.14 0 0 1 1.07 1.006l.933 1.543c.286.482.462 1.022.517 1.58a5.25 5.25 0 0 0 .092.637 15.23 15.23 0 0 1 .07 5.12 18.34 18.34 0 0 1-.569 2.444 6.956 6.956 0 0 0-.236 2.103 9.92 9.92 0 0 1-.075 1.669l-.318 2.813a8.35 8.35 0 0 1-1.426 3.688 25.16 25.16 0 0 1-3.03 3.665l-.556.537a11.4 11.4 0 0 0-2.652 3.915 15.2 15.2 0 0 1-1.163 2.153q-1.023 1.676-2.081 3.33c-.19.36-.44.685-.736.963-.53-.168-.868.112-1.15.503-.378.523-.516.531-.954.037a16.06 16.06 0 0 1 .058-4.238 39.33 39.33 0 0 1 .706-4.977 7.75 7.75 0 0 0-.408-4.622 12.04 12.04 0 0 1-.557-5.527 2.84 2.84 0 0 1 .274-.859 3.986 3.986 0 0 0-.917-4.458 15.6 15.6 0 0 0-2.914-2.528c-.247-.293-.37-.69-.73-.886a3.59 3.59 0 0 1-.392-1.57c.011-.16-.159-.094-.178-.193.07-.592-.417-.458-.726-.554z" fill="#040404"/><path d="M14.69 15.897c.22-.014.407.018.479.267.054.188.286.311.196.551-.361.52-.983.54-1.497.751-.877.29-1.71.696-2.477 1.209a3.9 3.9 0 0 0-1.396 2.11 33.156 33.156 0 0 0-1.132 7.562 4.06 4.06 0 0 0 .339 1.815 9.13 9.13 0 0 1 .5 6.163 23.06 23.06 0 0 0-.493 2.855 1.55 1.55 0 0 0-.007.576 16.357 16.357 0 0 0 1.754 5.279 3.4 3.4 0 0 0 4.363 1.322 10.89 10.89 0 0 0 3.534-2.192c.1-.1.208-.234.386-.128.507.333.54.332.766-.208.07-.2.238-.35.445-.396a5.35 5.35 0 0 0 .649-.27c.076-.032.177-.082.218.01.03.062-.018.161-.032.244-.008.02-.01.04-.016.061a1.43 1.43 0 0 1-.12.225 11.77 11.77 0 0 1-4.646 3.68l-.94.424a4.15 4.15 0 0 1-2.704.292 4.396 4.396 0 0 0-.572-.096 5.304 5.304 0 0 1-2.198-.873 1.4 1.4 0 0 1-.35-.28l-.957-1.211a1.82 1.82 0 0 1-.213-.535l-1.017-3.326a7.77 7.77 0 0 1-.306-1.316 10.99 10.99 0 0 0-.392-1.825 10.05 10.05 0 0 1-.437-3.304 25.374 25.374 0 0 0-.036-2.059A10.115 10.115 0 0 1 6.7 30.02a11.15 11.15 0 0 0 .29-1.648 27.4 27.4 0 0 1 1.163-5.471c.192-.57.322-1.162.474-1.74a6.944 6.944 0 0 1 1.13-2.578 2.14 2.14 0 0 0 .276-.579 10.77 10.77 0 0 1 3.283-4.381c.015-.013.041-.012.062-.018.04-.006.097.004.12-.02.248-.236.454-.063.664.062.157.094.161.16.06.36l-.092.165c-.006.328-.284.46-.483.64a12.986 12.986 0 0 0-1.76 1.952c.701-.203 1.336-.532 2-.79a.914.914 0 0 1 .804-.077z"/><path d="M19.244 44.038c-.522.508-1.085.972-1.684 1.388-.356.24-.732.448-1.124.624l-1.415.617a3.576 3.576 0 0 1-.802.228 1.87 1.87 0 0 1-1.195-.123l-.936-.426a3.978 3.978 0 0 1-1.586-1.728 5.1 5.1 0 0 1-.617-1.48 22.31 22.31 0 0 0-.69-2.479 3.57 3.57 0 0 1-.122-1.716q.185-1.206.411-2.406l.305-1.314a2.33 2.33 0 0 0 .056-.446 9.24 9.24 0 0 0-.714-4.338 4.384 4.384 0 0 1-.425-2.375l.33-3.585a15.9 15.9 0 0 1 .379-1.954l.355-1.5c.107-.483.285-.946.528-1.376A4.17 4.17 0 0 1 12.143 18c.93-.447 1.911-.765 2.875-1.13.119-.045.233-.103.349-.153a.546.546 0 0 1 .414.116l.946.772a7.63 7.63 0 0 1 .813.73l.699.668a3.94 3.94 0 0 1 .957 1.277 9.58 9.58 0 0 1 .483 1.399 2.666 2.666 0 0 1-.087 1.706c-.014.04-.029.08-.046.12a5.755 5.755 0 0 0-.504 2.5 11.44 11.44 0 0 0 .442 3.563c.117.412.297.806.419 1.216a7.44 7.44 0 0 1 .221 3.942 29.78 29.78 0 0 0-.49 3.303l-.098.635a8.966 8.966 0 0 0-.186 2.302 3.5 3.5 0 0 1-.064.96 3.5 3.5 0 0 0-.031 1.153c.052.318.049.642-.01.959z" fill="#636262"/><path d="M20.196 41.918a3.25 3.25 0 0 1 .067-1.086c.081-.443.14-.89.175-1.34l.6-4.527a10.966 10.966 0 0 0-.093-4.727l-.567-2.708a5.54 5.54 0 0 1-.08-.96l.03-1.158c-.002-.517.097-1.03.29-1.51a5.51 5.51 0 0 0 .036-3.842 3.27 3.27 0 0 0-.966-1.5l-2.542-2.272-.98-.835a2.424 2.424 0 0 1-.732-1.263c-.03-.14-.008-.26.153-.304a3.872 3.872 0 0 0 1.642-1.097l1.017-1.076q.423-.442.855-.875a6.91 6.91 0 0 1 1.946-1.349 16.33 16.33 0 0 1 2.772-1.027c.91-.252 1.832-.456 2.763-.612a10.24 10.24 0 0 0 2.956-.873c.434-.268.997-.19 1.342.186a6.244 6.244 0 0 1 2.219 4.421l.065 1.673a18.07 18.07 0 0 1-.158 3.145 2.584 2.584 0 0 1-.163.62 11.95 11.95 0 0 0-.555 4.89 6.89 6.89 0 0 1-.344 2.662c-.239.644-.444 1.3-.615 1.966a6.762 6.762 0 0 1-1.382 2.737 20.423 20.423 0 0 1-2.438 2.648 10.622 10.622 0 0 0-2.237 2.64l-1.424 2.452a9.461 9.461 0 0 1-.838 1.295l-2.368 3.447c-.08.127-.174.245-.261.368-.16.013-.142-.125-.185-.209z" fill="#fad19b"/><path d="M14.635 11.104a4.453 4.453 0 0 1 1.717-1.897 8.91 8.91 0 0 1 1.247-.515q1.499-.584 2.984-1.205a3.9 3.9 0 0 0 1.194-.753 5.9 5.9 0 0 1 3.398-1.545c.354-.088.72-.12 1.084-.093a5.59 5.59 0 0 0 1.506.043 6.13 6.13 0 0 1 1.397.182.214.214 0 0 1 .177.166.2.2 0 0 1-.096.218.84.84 0 0 1-.228.118 13.825 13.825 0 0 1-3.335.941 4.75 4.75 0 0 0-1.25.303c-.485.172-.98.315-1.484.427a12.84 12.84 0 0 0-3.258 1.359c-.3.167-.575.379-.813.628l-1.76 1.877c-.415.492-.873.947-1.368 1.36a.837.837 0 0 1-.445.237.773.773 0 0 1-.871-.8 2.63 2.63 0 0 1 .071-.572c.025-.15.078-.292.133-.479z" fill="#e09468"/><path d="M14.69 15.897a4.49 4.49 0 0 0-1.088.366c-.655.313-1.364.485-1.986.836-.122-.09-.045-.162-.005-.222a12.71 12.71 0 0 1 1.956-2.187l.565-.519c.081.003.205-.028.22.071a5.2 5.2 0 0 0 .397 1.415c.041.086-.02.165-.058.24z" fill="#515151"/><path d="m20.196 41.918.183.201a.93.93 0 0 1-.036.116c-.022.057-.069.102-.135.072a.15.15 0 0 1-.064-.096.386.386 0 0 1 .052-.293z" fill="#cba97c"/><path d="M7.946 39.28a12.227 12.227 0 0 1-.532-2.051 5.083 5.083 0 0 1-.08-1.347c.07-1.05.062-2.101.044-3.152a7.921 7.921 0 0 1 .326-2.426.63.63 0 0 1 .144.142 7.48 7.48 0 0 1 .572 1.705 12.54 12.54 0 0 1 .213 2.176 6.17 6.17 0 0 1-.209 1.589 9.94 9.94 0 0 0-.207 1.267c-.056.704-.15 1.404-.28 2.099z" fill="#515151"/><path d="M7.94 39.28a.42.42 0 0 1 .065.108c.014.055-.02.084-.076.078-.008-.003-.019-.04-.016-.058a1.15 1.15 0 0 1 .034-.125z" fill="#282828"/><path d="M31.43 15.54a5.94 5.94 0 0 1-.723 1.514c-.052.068-.084.151-.14.214a8.77 8.77 0 0 1-2.234 1.912l-.82.5a2.58 2.58 0 0 0-1.077 1.823 1.167 1.167 0 0 1-.05.249.3.3 0 0 1-.487.057.45.45 0 0 1-.1-.163 2.375 2.375 0 0 1-.034-1.449l.208-.54a1.91 1.91 0 0 1 .692-.907c.378-.275.787-.511 1.19-.754a5.14 5.14 0 0 0 2.427-2.71l.345-.901a3.34 3.34 0 0 0 .118-2.14 4.59 4.59 0 0 0-1.115-2.07 2.44 2.44 0 0 0-.885-.62 1.09 1.09 0 0 1-.23-.113c-.163-.103-.265-.275-.214-.36a.423.423 0 0 1 .382-.197 1.47 1.47 0 0 1 1.03.277c.028.032.062.06.098.083a3.3 3.3 0 0 1 1.56 1.796 5.51 5.51 0 0 1 .567 2.735 2.72 2.72 0 0 1-.21.998c-.1.214-.173.44-.298.766zm-9.624 1.682.346-.902a2.28 2.28 0 0 0 .166-1.32q-.159-.982-.375-1.954a1.36 1.36 0 0 0-.587-.813 5.17 5.17 0 0 0-1.146-.567c-.14-.054-.298-.102-.282-.298a.376.376 0 0 1 .398-.345 2.92 2.92 0 0 1 1.074.138l.603.225c.497.156.908.508 1.142.974a3.34 3.34 0 0 1 .438 1.132l.25 1.582a4.22 4.22 0 0 1-.662 2.694 3.64 3.64 0 0 0-.523 2.272 1.14 1.14 0 0 0 .352.74c.09.09.202.16.288.254.1.11.207.238.121.399a.416.416 0 0 1-.379.203 1.47 1.47 0 0 1-.901-.297 2 2 0 0 1-.943-1.915 4.23 4.23 0 0 1 .29-1.372c.122-.275.215-.56.323-.84zm7.554 10.512a3.42 3.42 0 0 1-2.08 2.3 2.58 2.58 0 0 0-.619.336 1.26 1.26 0 0 1-.711.262.387.387 0 0 1-.395-.151.5.5 0 0 1-.055-.546 1.33 1.33 0 0 1 .156-.203 5.28 5.28 0 0 1 1.156-1.099 3.14 3.14 0 0 0 .921-.788 1.76 1.76 0 0 0 .338-.819 6.475 6.475 0 0 0-.056-2.485 1.08 1.08 0 0 1-.017-.383c.02-.128.107-.235.228-.283s.257-.026.359.055a2.13 2.13 0 0 1 .489.591c.35.692.528 1.46.52 2.235a1.58 1.58 0 0 1-.038.446 5.36 5.36 0 0 1-.196.532z" fill="#ffc475"/><path d="M29.72 13.931a2.667 2.667 0 0 1-2.123 1.72 1.35 1.35 0 0 1-1.472-.69 3.26 3.26 0 0 1-.491-1.25 2.18 2.18 0 0 1 1.523-2.38l.062-.019a4.08 4.08 0 0 1 2.084.479c.242.181.412.442.481.736.14.462.117.957-.064 1.404z" fill="#b35346"/><path d="m24.789 23.255.534.205a1.956 1.956 0 0 1 1.113 1.548 1.84 1.84 0 0 1-1.036 2.14 1.974 1.974 0 0 1-1.904.173c-.177-.074-.36-.138-.54-.207a1.44 1.44 0 0 1-.907-1.359 4.51 4.51 0 0 1 .049-.895 2.233 2.233 0 0 1 1.643-1.784c.29-.09.602-.058.868.086l.18.093zm.98 9.597c-.137.378-.414.69-.774.87a5.24 5.24 0 0 1-1.33.468.77.77 0 0 1-.72-.17 2.52 2.52 0 0 1-.965-1.954 1.54 1.54 0 0 1 .866-1.343 3.36 3.36 0 0 1 1.608-.394.93.93 0 0 1 .6.212 2.01 2.01 0 0 1 .715 2.31z" fill="#b05144"/><path d="M20.076 12.591c.51.151.948.48 1.232.93a1.636 1.636 0 0 1-1.94 2.408 2.07 2.07 0 0 1-1.213-.987 1.417 1.417 0 0 1 .178-1.777 2.82 2.82 0 0 1 .425-.389 1.04 1.04 0 0 1 1.318-.185z" fill="#af5143"/><path d="m30.074 21.102.542.207c.322.128.596.354.782.647.17.225.24.51.192.789a4.28 4.28 0 0 1-.23.934 1.03 1.03 0 0 1-.815.652 1.7 1.7 0 0 1-.765-.034 2.04 2.04 0 0 1-1.442-1.72 1.2 1.2 0 0 1 .644-1.294c.144-.075.252-.137.203-.333-.026-.103.083-.152.17-.122l.72.277z" fill="#b05144"/><path d="M22.41 37.938a.8.8 0 0 1-.064.117.31.31 0 0 1-.496.008.988.988 0 0 1-.167-.343 8.153 8.153 0 0 1-.205-1.257c.017-.448.138-.887.352-1.282a.33.33 0 0 1 .359-.206c.126.03.228.126.266.251.021.038.035.08.041.123.057.807.05 1.616-.022 2.421a1 1 0 0 1-.063.168z" fill="#ffc476"/><path d="m26.596 12.641.07-.18a.426.426 0 0 1 .502-.299c.575.07 1.112.321 1.536.714a.95.95 0 0 1 .158.2c.19.25.18.596-.02.836a2.154 2.154 0 0 1-1.258.93.85.85 0 0 1-1.1-.686 2.45 2.45 0 0 1 .112-1.515zm-2.188 11.284a2.39 2.39 0 0 1 .687.371 1.143 1.143 0 0 1-.106 2.058 4.98 4.98 0 0 1-.47.206 1.31 1.31 0 0 1-1.636-.76 1.605 1.605 0 0 1 .004-1.367 1.3 1.3 0 0 1 .622-.618.623.623 0 0 1 .555-.03c.1.054.202.086.344.14z" fill="#e07668"/><path d="M24.915 32.558a.955.955 0 0 1-.177.26 2.43 2.43 0 0 1-1.197.406.41.41 0 0 1-.237-.083 1.41 1.41 0 0 1-.535-1.354c.075-.197.192-.376.343-.525.102-.11.277-.082.427-.076a1.89 1.89 0 0 0 .384-.005.758.758 0 0 1 .829.469c.151.275.336.56.163.908z" fill="#df7668"/><path d="M18.936 13.867c.033-.08.07-.158.111-.233a.617.617 0 0 1 .977-.225c.291.187.52.458.656.776a.617.617 0 0 1-.41.86.82.82 0 0 1-.738-.102c-.205-.18-.485-.277-.58-.578a.66.66 0 0 1-.016-.498z" fill="#df7567"/><path d="m30.765 23.033-.115.3a.557.557 0 0 1-.78.33 1.4 1.4 0 0 1-.912-.992.83.83 0 0 1 .825-1.034.37.37 0 0 1 .182.045l.836.584c.106.08.15.219.11.346-.037.144-.092.286-.137.426z" fill="#e07668"/></svg>