<svg xmlns="http://www.w3.org/2000/svg" width="57.333" height="61.042"><path d="M20.215 46.586a13.305 13.305 0 0 0 4.03 3.552l2.155 1.116q2.354 1.099 4.614 2.38a24.33 24.33 0 0 0 2.396 1.2 5.902 5.902 0 0 0 3.69.364 9.304 9.304 0 0 0 6.14-3.75 9.317 9.317 0 0 0 1.947-8.023 41.716 41.716 0 0 1-.516-5.584 7.853 7.853 0 0 1 .105-1.419c.146-1.165.37-2.317.62-3.465a29.432 29.432 0 0 0 .534-4.662 5.518 5.518 0 0 0-1.511-4.132 33.83 33.83 0 0 0-5.51-4.875 13.625 13.625 0 0 0-6.178-2.422l-2.647-.435a13.696 13.696 0 0 1-6.173-2.845l-1.528-1.17a16.247 16.247 0 0 0-4.28-2.261 11.645 11.645 0 0 0-2.53-.572 5.418 5.418 0 0 0-2.073.184 1.565 1.565 0 0 0-1.173 1.17c-.222.73-.29 1.472-.435 2.208-.47 2.336-.521 4.717-.808 7.073a10.834 10.834 0 0 0-.054 1.757l.085 2.512a12.715 12.715 0 0 0 .477 3.307l.349 1.293a18.117 18.117 0 0 0 2.941 6.162l1.163 1.742a12.905 12.905 0 0 1 1.092 2.623 42.383 42.383 0 0 0 1.916 5.001 9.604 9.604 0 0 0 1.162 1.97z"/><path d="M21.644 45.314a12.584 12.584 0 0 0 4.075 3.427l2.253 1.115 4.52 2.38c.533.308 1.09.572 1.665.788.27.1.37.07.48-.163a4.502 4.502 0 0 0 .57-2.661c-.164-1.024-.183-2.059-.295-3.086l-.4-3.831a17.273 17.273 0 0 1-.054-1.673c-.02-.87.2-1.728.634-2.483l1.39-2.387 1.771-3.038a13.425 13.425 0 0 0 1.844-4.996l.193-1.154a8.063 8.063 0 0 0-.8-4.143 14.926 14.926 0 0 0-.783-1.571 2.591 2.591 0 0 0-.836-.919 12.025 12.025 0 0 0-5.322-2.109 26.063 26.063 0 0 1-4.355-.842 15.506 15.506 0 0 1-5.335-2.73l-1.725-1.331a13.987 13.987 0 0 0-4.342-2.123 6.703 6.703 0 0 0-2.065-.285l-1.258-.007a.46.46 0 0 0-.478.474.69.69 0 0 0 0 .084c.063 1.423.014 2.849-.148 4.265-.009.167-.008.333 0 .5q.014 1.846-.12 3.683c-.027.502-.022 1.004.013 1.505l.163 2.592a9.714 9.714 0 0 0 .412 2.302 40.516 40.516 0 0 0 1.246 3.906c.41 1.01.944 1.964 1.59 2.84a28.321 28.321 0 0 1 1.615 2.445 9.584 9.584 0 0 1 .817 1.83l1.25 3.555a21.849 21.849 0 0 0 1.724 3.71l.09.13z" fill="#636262"/><path d="M35.76 53.33c.05.02.102.06.151.056a7.973 7.973 0 0 0 2.985-.752 8.359 8.359 0 0 0 2.188-1.669c.5-.525.945-1.1 1.33-1.714a4.362 4.362 0 0 0 .578-1.202 8.683 8.683 0 0 0 .297-4.294 30.175 30.175 0 0 1-.547-6.158c.025-1.34.206-2.673.537-3.973.416-1.821.652-3.68.704-5.548a3.401 3.401 0 0 0-.733-2.255c-.5-.642-1.095-1.187-1.632-1.79a3.832 3.832 0 0 0-.562-.413l.283.873a6.453 6.453 0 0 1 .305 3.455 17.987 17.987 0 0 1-.839 3.577 19.746 19.746 0 0 1-1.67 3.37c-.726 1.127-1.303 2.338-1.986 3.49-1.335 2.251-1.077 2.189-1.078 4.694.015.81.08 1.617.194 2.418.096.774.123 1.557.15 2.336a14.006 14.006 0 0 0 .11 1.92 4.752 4.752 0 0 1-.615 3.138c-.065.121-.118.25-.171.38-.01.01.012.039.02.061z" fill="#525252"/></svg>