<svg id="Group_2591" data-name="Group 2591" xmlns="http://www.w3.org/2000/svg" width="45.112" height="86.604" viewBox="0 0 45.112 86.604">
  <path id="Path_6887" data-name="Path 6887" d="M1335.456,105.113a1.333,1.333,0,0,1,.1-.334c.168-.267.205-.487-.073-.722a4.035,4.035,0,0,1-1.265-2.851,9.106,9.106,0,0,1,.994-5.406,9.238,9.238,0,0,1,2.429-2.9c1.4-1.116,2.618-2.423,3.987-3.569a10.065,10.065,0,0,0,2.378-2.8,16.936,16.936,0,0,1,4.206-4.642,11.454,11.454,0,0,1,2.637-1.6,3.857,3.857,0,0,1,1.955-.415,2.991,2.991,0,0,0,1.6-.359q.535-.257,1.085-.482a4.343,4.343,0,0,1,3.135-.062,2.3,2.3,0,0,1,1.5,1.08.712.712,0,0,0,.658.408c.315.038.628.088.941.142a5.791,5.791,0,0,1,2.509,1.026c.89.662,1.761,1.35,2.629,2.041a7.092,7.092,0,0,1,1.937,2.38,9.689,9.689,0,0,0,.58,1.036,28.109,28.109,0,0,1,3.513,8.774,33.887,33.887,0,0,1,.636,4.588,12.852,12.852,0,0,0,.983,3.779,18.252,18.252,0,0,1,.974,2.925c.435,1.686.909,3.36,1.313,5.056a15.41,15.41,0,0,1-.016,7.3,46.447,46.447,0,0,1-2.8,8.319c-.2.433-.4.862-.6,1.293a21.03,21.03,0,0,0-1.98,8.5,28.071,28.071,0,0,1-.58,4.476q-.653,3.565-1.384,7.115a6.776,6.776,0,0,1-.628,2.146c-1.026.06-1.422.767-1.65,1.628-.3,1.15-.537,1.255-1.618.694a29.653,29.653,0,0,1-2.7-7.339,72.769,72.769,0,0,1-2.076-9.033,14.3,14.3,0,0,0-3.76-7.691,22.217,22.217,0,0,1-4.617-9.155,5.248,5.248,0,0,1-.1-1.658c.151-3.423-1.755-5.592-4.529-7.074a28.782,28.782,0,0,0-6.692-2.429c-.62-.341-1.094-.943-1.852-1.043a6.621,6.621,0,0,1-1.712-2.446c-.086-.283-.335-.057-.434-.214C1336.8,104.528,1336.053,105.079,1335.456,105.113Z" transform="translate(-1332.118 -78.717)" fill="#040404"/>
  <path id="Path_6888" data-name="Path 6888" d="M1322.575,319.434c.364-.17.714-.24,1,.141.217.288.7.348.7.819-.279,1.136-1.335,1.581-2.083,2.284a18.767,18.767,0,0,0-3.468,3.72,7.2,7.2,0,0,0-1.01,4.559,61.211,61.211,0,0,0,3.051,13.777,7.492,7.492,0,0,0,1.784,2.9,16.849,16.849,0,0,1,4.938,10.285,42.563,42.563,0,0,0,1.038,5.245,2.867,2.867,0,0,0,.378,1c1.964,2.815,3.642,5.865,6.513,7.936a6.265,6.265,0,0,0,8.391-.608,20.1,20.1,0,0,0,4.639-6.113c.107-.237.2-.542.579-.477,1.095.237,1.149.216,1.183-.864a1.132,1.132,0,0,1,.506-.979,9.836,9.836,0,0,0,.939-.894c.109-.1.251-.258.382-.129.092.089.075.291.1.442.008.038.01.078.015.117a2.612,2.612,0,0,1-.06.468,21.716,21.716,0,0,1-5.571,9.413c-.457.44-.886.908-1.339,1.353a7.662,7.662,0,0,1-4.464,2.292,7.991,7.991,0,0,0-1.048.211,9.8,9.8,0,0,1-4.363-.051,2.584,2.584,0,0,1-.791-.251c-.829-.464-1.655-.936-2.449-1.455a3.367,3.367,0,0,1-.72-.78c-1.321-1.683-2.628-3.377-3.952-5.057a14.338,14.338,0,0,1-1.4-2.066,20.265,20.265,0,0,0-1.883-2.884,18.539,18.539,0,0,1-2.938-5.4c-.414-1.2-.913-2.365-1.423-3.524a18.711,18.711,0,0,1-1.605-5.816,20.53,20.53,0,0,0-.59-3.03,50.556,50.556,0,0,1-1.616-10.2c-.044-1.107-.212-2.209-.335-3.312a12.794,12.794,0,0,1,.242-5.189,3.957,3.957,0,0,0,.094-1.178,19.875,19.875,0,0,1,2.758-9.719c.017-.031.062-.048.094-.071.067-.037.17-.057.2-.114.268-.572.744-.41,1.184-.333.332.058.385.17.341.581-.012.115-.033.228-.05.343.206.571-.19.981-.409,1.421a23.959,23.959,0,0,0-1.742,4.528c1.074-.813,1.951-1.8,2.924-2.685A1.688,1.688,0,0,1,1322.575,319.434Z" transform="translate(-1315.466 -289.957)"/>
  <path id="Path_6889" data-name="Path 6889" d="M1364.69,401.169a24.451,24.451,0,0,1-1.984,3.5,14.078,14.078,0,0,1-1.525,1.818c-.681.664-1.364,1.325-2.036,2a6.618,6.618,0,0,1-1.23.928,3.455,3.455,0,0,1-2.139.58c-.631-.052-1.265-.057-1.895-.117a7.339,7.339,0,0,1-3.876-1.927,9.4,9.4,0,0,1-2.041-2.143,41.2,41.2,0,0,0-2.828-3.814,6.6,6.6,0,0,1-1.347-2.876q-.477-2.2-.881-4.418c-.149-.815-.222-1.644-.345-2.465a4.291,4.291,0,0,0-.2-.8,17.052,17.052,0,0,0-4.1-7,8.092,8.092,0,0,1-2.3-3.811c-.589-2.135-1.209-4.261-1.8-6.395a29.256,29.256,0,0,1-.638-3.618c-.138-.938-.258-1.88-.381-2.82a9.2,9.2,0,0,1,.008-2.721,7.7,7.7,0,0,1,2.086-4.058c1.306-1.386,2.786-2.584,4.2-3.849.175-.156.333-.33.5-.5a1.006,1.006,0,0,1,.789-.074c.7.269,1.422.486,2.141.705a14.075,14.075,0,0,1,1.884.722c.537.252,1.09.472,1.643.686a7.271,7.271,0,0,1,2.5,1.567,17.7,17.7,0,0,1,1.757,2.091,4.915,4.915,0,0,1,.978,3,2.061,2.061,0,0,1,0,.238,10.619,10.619,0,0,0,.784,4.64,21.116,21.116,0,0,0,3.118,5.847c.474.633,1.045,1.192,1.527,1.82a13.741,13.741,0,0,1,2.987,6.643,54.829,54.829,0,0,0,1.34,6.017c.093.384.18.77.251,1.159a16.579,16.579,0,0,0,1.2,4.088,6.46,6.46,0,0,1,.524,1.7,6.457,6.457,0,0,0,.708,2.006A5.072,5.072,0,0,1,1364.69,401.169Z" transform="translate(-1331.126 -326.222)" fill="#636262"/>
  <path id="Path_6890" data-name="Path 6890" d="M1407.578,178.116a6.006,6.006,0,0,1-.6-1.916,24.531,24.531,0,0,0-.585-2.423c-.68-2.725-1.482-5.42-1.959-8.2a20.263,20.263,0,0,0-3.286-8.082c-.961-1.406-1.875-2.845-2.776-4.29a10.27,10.27,0,0,1-.771-1.6c-.266-.66-.477-1.343-.716-2.014a7.391,7.391,0,0,1-.5-2.793,10.167,10.167,0,0,0-2.481-6.649,6.03,6.03,0,0,0-2.656-1.945c-1.95-.773-3.878-1.606-5.883-2.234-.755-.237-1.507-.491-2.239-.791a4.473,4.473,0,0,1-2.1-1.692c-.145-.22-.18-.442.063-.623a7.144,7.144,0,0,0,2.1-2.976c.373-.83.69-1.685,1.042-2.526q.435-1.041.894-2.072a12.749,12.749,0,0,1,2.462-3.612,30.141,30.141,0,0,1,4.095-3.6,50.443,50.443,0,0,1,4.356-2.882,18.906,18.906,0,0,0,4.515-3.459,1.963,1.963,0,0,1,2.436-.567,11.523,11.523,0,0,1,6.746,6.149c.408.945.78,1.907,1.218,2.838a33.333,33.333,0,0,1,1.808,5.523,4.713,4.713,0,0,1,.129,1.177,22.054,22.054,0,0,0,2.277,8.79,12.719,12.719,0,0,1,1.168,4.815,36.625,36.625,0,0,0,.24,3.794,12.465,12.465,0,0,1-.57,5.628,37.726,37.726,0,0,1-2.449,6.175,19.644,19.644,0,0,0-2.11,6.027c-.292,1.718-.64,3.423-.83,5.16a17.422,17.422,0,0,1-.589,2.785c-.7,2.48-1.281,4.984-1.8,7.505-.056.271-.137.537-.207.806C1407.768,178.481,1407.706,178.232,1407.578,178.116Z" transform="translate(-1373.774 -107.451)" fill="#fad19b"/>
  <path id="Path_6891" data-name="Path 6891" d="M1350.69,113.641a8.22,8.22,0,0,1,1.7-4.4,16.439,16.439,0,0,1,1.81-1.713q2.2-2,4.344-4.048a7.2,7.2,0,0,0,1.558-2.087,10.877,10.877,0,0,1,4.831-4.908,6.358,6.358,0,0,1,1.806-.876,10.314,10.314,0,0,0,2.622-.927,11.308,11.308,0,0,1,2.527-.61.4.4,0,0,1,.414.168.364.364,0,0,1-.021.44,1.553,1.553,0,0,1-.313.354c-1.652,1.35-3.148,2.9-5.124,3.827a8.768,8.768,0,0,0-1.952,1.346,23.249,23.249,0,0,1-2.273,1.719,23.7,23.7,0,0,0-4.715,4.5,6.391,6.391,0,0,0-.985,1.621c-.635,1.45-1.3,2.888-1.793,4.4a20.181,20.181,0,0,1-1.456,3.247,1.542,1.542,0,0,1-.612.705,1.431,1.431,0,0,1-2.037-.8,4.849,4.849,0,0,1-.254-1.034C1350.722,114.278,1350.719,114,1350.69,113.641Z" transform="translate(-1346.847 -92.385)" fill="#e09468"/>
  <path id="Path_6892" data-name="Path 6892" d="M1342.3,326.856a8.275,8.275,0,0,0-1.632,1.351c-.915.972-2.021,1.739-2.869,2.753-.27-.076-.186-.249-.154-.379a23.446,23.446,0,0,1,1.923-5.062c.214-.42.421-.845.631-1.267.142-.049.335-.178.425-.022a9.594,9.594,0,0,0,1.621,2.174C1342.375,326.525,1342.321,326.7,1342.3,326.856Z" transform="translate(-1335.196 -297.379)" fill="#515151"/>
  <path id="Path_6893" data-name="Path 6893" d="M1625.2,726.428l.449.225a1.682,1.682,0,0,1,.014.223c-.007.113-.049.222-.181.214a.285.285,0,0,1-.174-.124A.714.714,0,0,1,1625.2,726.428Z" transform="translate(-1591.393 -655.764)" fill="#cba97c"/>
  <path id="Path_6894" data-name="Path 6894" d="M1364,634.01a22.5,22.5,0,0,1-2.274-3.182,9.4,9.4,0,0,1-1.027-2.268c-.575-1.855-1.282-3.66-2.01-5.459a14.627,14.627,0,0,1-1.043-4.4,1.191,1.191,0,0,1,.344.15,13.791,13.791,0,0,1,2.112,2.56,23.106,23.106,0,0,1,1.806,3.607,11.391,11.391,0,0,1,.692,2.875,18.429,18.429,0,0,0,.48,2.32,37.221,37.221,0,0,1,.906,3.8Z" transform="translate(-1353.041 -559.792)" fill="#515151"/>
  <path id="Path_6895" data-name="Path 6895" d="M1415.76,759.009a.778.778,0,0,1,.182.142c.059.085.021.159-.079.177-.017,0-.06-.056-.067-.091a2.087,2.087,0,0,1-.023-.236Z" transform="translate(-1404.818 -684.783)" fill="#282828"/>
  <path id="Path_6896" data-name="Path 6896" d="M1563.885,160.438a10.974,10.974,0,0,1-.244,3.086c-.044.151-.044.316-.1.461a16.175,16.175,0,0,1-2.576,4.771,17.463,17.463,0,0,0-1.083,1.4,4.756,4.756,0,0,0-.649,3.854,2.089,2.089,0,0,1,.078.46.555.555,0,0,1-.8.421.835.835,0,0,1-.278-.216,4.382,4.382,0,0,1-1.017-2.474c0-.356.007-.713,0-1.069a3.525,3.525,0,0,1,.592-2.019c.47-.726,1.019-1.4,1.55-2.088a9.492,9.492,0,0,0,2.39-6.27c-.023-.593.01-1.188-.007-1.781a6.151,6.151,0,0,0-1.213-3.763,8.473,8.473,0,0,0-3.289-2.829,4.516,4.516,0,0,0-1.936-.485,1.985,1.985,0,0,1-.471-.041c-.349-.07-.639-.3-.607-.478a.782.782,0,0,1,.528-.591,2.715,2.715,0,0,1,1.957-.2.846.846,0,0,0,.224.077,6.094,6.094,0,0,1,3.875,2.064,10.167,10.167,0,0,1,2.785,4.337,5,5,0,0,1,.3,1.858C1563.862,159.357,1563.885,159.794,1563.885,160.438Z" transform="translate(-1528.172 -142.647)" fill="#ffc475"/>
  <path id="Path_6897" data-name="Path 6897" d="M1442.782,243.452c0-.594-.026-1.19.006-1.782a4.213,4.213,0,0,0-.587-2.385q-.923-1.586-1.938-3.118a2.5,2.5,0,0,0-1.549-1.011,9.535,9.535,0,0,0-2.35-.219c-.275,0-.58.021-.683-.326a.693.693,0,0,1,.458-.856,5.384,5.384,0,0,1,1.94-.475c.4-.018.794.019,1.188-.011a3.553,3.553,0,0,1,2.611.93,6.164,6.164,0,0,1,1.5,1.665c.48.862,1.045,1.68,1.482,2.562a7.787,7.787,0,0,1,.642,5.079,6.72,6.72,0,0,0,.6,4.259,2.1,2.1,0,0,0,1.1,1.043c.216.094.454.142.664.248.246.123.515.274.472.608a.77.77,0,0,1-.519.6,2.709,2.709,0,0,1-1.749.084,3.683,3.683,0,0,1-2.89-2.676,7.8,7.8,0,0,1-.408-2.556c.028-.553.005-1.109.005-1.663Z" transform="translate(-1422.538 -216.4)" fill="#ffc475"/>
  <path id="Path_6898" data-name="Path 6898" d="M1641.551,397.263a6.312,6.312,0,0,1-2.062,5.337,4.755,4.755,0,0,0-.845.989,2.333,2.333,0,0,1-1.051.932.71.71,0,0,1-.781,0,.928.928,0,0,1-.455-.9,2.447,2.447,0,0,1,.135-.453,9.8,9.8,0,0,1,1.265-2.658,5.787,5.787,0,0,0,1.066-1.967,3.253,3.253,0,0,0,.042-1.635,11.931,11.931,0,0,0-1.74-4.25,2,2,0,0,1-.282-.648.673.673,0,0,1,.861-.783,3.934,3.934,0,0,1,1.233.695,8.946,8.946,0,0,1,2.374,3.5,2.913,2.913,0,0,1,.23.794A9.906,9.906,0,0,1,1641.551,397.263Z" transform="translate(-1601.34 -357.095)" fill="#ffc475"/>
  <path id="Path_6899" data-name="Path 6899" d="M1543.262,198.216a4.923,4.923,0,0,1-2.521,4.365,2.489,2.489,0,0,1-2.993-.216,6.012,6.012,0,0,1-1.672-1.826,4.02,4.02,0,0,1,1.05-5.109c.032-.023.062-.05.095-.072a7.528,7.528,0,0,1,3.907-.561,2.374,2.374,0,0,1,1.317.95A3.908,3.908,0,0,1,1543.262,198.216Z" transform="translate(-1511.559 -182.066)" fill="#b35346"/>
  <path id="Path_6900" data-name="Path 6900" d="M1554.853,403.348c.424,0,.742-.025,1.055,0a3.609,3.609,0,0,1,2.941,1.93c.871,1.526.928,2.643-.36,4.374a3.641,3.641,0,0,1-3.167,1.556c-.355-.012-.711,0-1.066-.008a2.661,2.661,0,0,1-2.461-1.74,8.33,8.33,0,0,1-.507-1.576,4.12,4.12,0,0,1,1.651-4.16,2.073,2.073,0,0,1,1.552-.426C1554.646,403.326,1554.8,403.342,1554.853,403.348Z" transform="translate(-1525.48 -367.872)" fill="#b05144"/>
  <path id="Path_6901" data-name="Path 6901" d="M1599.369,520.109a2.89,2.89,0,0,1-.758,2.01,9.679,9.679,0,0,1-1.981,1.686,1.422,1.422,0,0,1-1.354.185,4.645,4.645,0,0,1-2.949-2.73,2.838,2.838,0,0,1,.6-2.886,6.2,6.2,0,0,1,2.51-1.742,1.71,1.71,0,0,1,1.171-.032A3.71,3.71,0,0,1,1599.369,520.109Z" transform="translate(-1561.961 -468.75)" fill="#b05144"/>
  <path id="Path_6902" data-name="Path 6902" d="M1422.581,263.7a4.049,4.049,0,0,1,2.737.785,3.019,3.019,0,0,1-1.75,5.434,3.821,3.821,0,0,1-2.743-.9,2.616,2.616,0,0,1-.87-3.18,5.207,5.207,0,0,1,.476-.95A1.916,1.916,0,0,1,1422.581,263.7Z" transform="translate(-1408.38 -243.481)" fill="#af5143"/>
  <path id="Path_6903" data-name="Path 6903" d="M1636.023,337.812c.357,0,.714.008,1.07,0a3.039,3.039,0,0,1,1.774.6,1.876,1.876,0,0,1,.853,1.233,7.907,7.907,0,0,1,.222,1.763,1.9,1.9,0,0,1-.973,1.665,3.142,3.142,0,0,1-1.342.448A3.763,3.763,0,0,1,1634,341.5a2.22,2.22,0,0,1,.254-2.653c.2-.226.343-.4.129-.708-.112-.16.042-.315.211-.322.474-.02.95-.007,1.425-.007Z" transform="translate(-1598.967 -309.543)" fill="#b05144"/>
  <path id="Path_6904" data-name="Path 6904" d="M1612.806,609.563a1.464,1.464,0,0,1-.036.244.57.57,0,0,1-.849.341,1.816,1.816,0,0,1-.515-.48,15.138,15.138,0,0,1-1.183-2.032,5.39,5.39,0,0,1-.241-2.441.609.609,0,0,1,.483-.593.68.68,0,0,1,.624.256.655.655,0,0,1,.152.179,28.314,28.314,0,0,1,1.562,4.186A1.845,1.845,0,0,1,1612.806,609.563Z" transform="translate(-1577.823 -547.219)" fill="#ffc476"/>
  <path id="Path_6905" data-name="Path 6905" d="M1548.855,214.235c0-.119-.006-.238,0-.356a.785.785,0,0,1,.668-.847,5.079,5.079,0,0,1,3.118.214,1.762,1.762,0,0,1,.405.238,1.242,1.242,0,0,1,.519,1.455,3.98,3.98,0,0,1-1.552,2.433,1.57,1.57,0,0,1-2.35-.456A4.522,4.522,0,0,1,1548.855,214.235Z" transform="translate(-1523.387 -198.242)" fill="#e07668"/>
  <path id="Path_6906" data-name="Path 6906" d="M1564.052,416.706a4.408,4.408,0,0,1,1.429.194,2.112,2.112,0,0,1,1.179,3.615,9.119,9.119,0,0,1-.674.666,2.416,2.416,0,0,1-3.314-.228,2.962,2.962,0,0,1-.9-2.358,2.4,2.4,0,0,1,.662-1.472,1.15,1.15,0,0,1,.936-.419C1563.57,416.716,1563.768,416.706,1564.052,416.706Z" transform="translate(-1534.889 -379.823)" fill="#e07668"/>
  <path id="Path_6907" data-name="Path 6907" d="M1608.684,534.344a1.752,1.752,0,0,1-.133.566,4.485,4.485,0,0,1-1.794,1.492.759.759,0,0,1-.464.012,2.6,2.6,0,0,1-1.818-1.978,2.721,2.721,0,0,1,.243-1.132c.1-.256.423-.326.687-.414a3.489,3.489,0,0,0,.656-.263,1.4,1.4,0,0,1,1.738.258C1608.245,533.264,1608.753,533.632,1608.684,534.344Z" transform="translate(-1572.942 -482.928)" fill="#df7668"/>
  <path id="Path_6908" data-name="Path 6908" d="M1435.369,278.381a4.237,4.237,0,0,1,.037-.473,1.137,1.137,0,0,1,1.533-1.033,3.2,3.2,0,0,1,1.644.9,1.134,1.134,0,0,1-.138,1.755,1.513,1.513,0,0,1-1.34.31c-.473-.173-1.019-.154-1.381-.611A1.227,1.227,0,0,1,1435.369,278.381Z" transform="translate(-1422.286 -255.211)" fill="#df7567"/>
  <path id="Path_6909" data-name="Path 6909" d="M1648.042,349.394c0,.2.013.395,0,.591a1.026,1.026,0,0,1-1.123,1.086,2.582,2.582,0,0,1-2.229-1.109,1.531,1.531,0,0,1,.74-2.327.682.682,0,0,1,.344-.043c.612.14,1.223.285,1.828.454a.581.581,0,0,1,.418.523c.03.273.032.55.046.825Z" transform="translate(-1608.52 -318.253)" fill="#e07668"/>
</svg>
