<svg xmlns="http://www.w3.org/2000/svg" width="39.641" height="50.543" viewBox="0 0 39.641 50.543">
  <g id="Group_10322" data-name="Group 10322" transform="translate(16.818 -0.396) rotate(21)">
    <path id="Path_6887" data-name="Path 6887" d="M1334.861,93.021a.718.718,0,0,1,.056-.181c.091-.145.111-.264-.039-.391a2.187,2.187,0,0,1-.686-1.545,4.937,4.937,0,0,1,.539-2.93,5.007,5.007,0,0,1,1.316-1.571c.758-.6,1.418-1.313,2.16-1.934a5.454,5.454,0,0,0,1.289-1.515,9.18,9.18,0,0,1,2.279-2.516,6.208,6.208,0,0,1,1.429-.864,2.089,2.089,0,0,1,1.059-.225,1.62,1.62,0,0,0,.866-.194q.29-.139.588-.261a2.353,2.353,0,0,1,1.7-.034,1.243,1.243,0,0,1,.813.585.386.386,0,0,0,.356.221c.171.02.341.048.51.077a3.138,3.138,0,0,1,1.359.556c.482.359.954.732,1.425,1.106a3.845,3.845,0,0,1,1.049,1.29,5.252,5.252,0,0,0,.314.562,15.23,15.23,0,0,1,1.9,4.754,18.34,18.34,0,0,1,.345,2.486,6.965,6.965,0,0,0,.533,2.048,9.918,9.918,0,0,1,.528,1.585c.235.914.493,1.821.711,2.74a8.349,8.349,0,0,1-.009,3.954,25.161,25.161,0,0,1-1.516,4.508c-.106.235-.218.467-.326.7a11.4,11.4,0,0,0-1.073,4.606,15.2,15.2,0,0,1-.314,2.426q-.354,1.932-.75,3.855a3.677,3.677,0,0,1-.341,1.163c-.556.033-.771.416-.894.882-.165.623-.291.68-.877.376a16.058,16.058,0,0,1-1.465-3.977,39.455,39.455,0,0,1-1.125-4.9,7.75,7.75,0,0,0-2.037-4.168,12.04,12.04,0,0,1-2.5-4.961,2.842,2.842,0,0,1-.052-.9,3.987,3.987,0,0,0-2.454-3.833,15.6,15.6,0,0,0-3.626-1.316c-.336-.185-.593-.511-1-.565a3.589,3.589,0,0,1-.928-1.326c-.047-.153-.182-.031-.235-.116C1335.591,92.7,1335.184,93,1334.861,93.021Z" transform="translate(-1333.052 -78.717)" fill="#040404"/>
    <path id="Path_6888" data-name="Path 6888" d="M1319.318,317.781c.2-.092.387-.13.543.077.118.156.379.188.381.444-.151.616-.724.857-1.129,1.238a10.174,10.174,0,0,0-1.879,2.016,3.9,3.9,0,0,0-.547,2.47,33.173,33.173,0,0,0,1.653,7.466,4.062,4.062,0,0,0,.967,1.573,9.129,9.129,0,0,1,2.676,5.574,23.061,23.061,0,0,0,.562,2.842,1.551,1.551,0,0,0,.2.54,16.346,16.346,0,0,0,3.529,4.3,3.4,3.4,0,0,0,4.547-.329,10.892,10.892,0,0,0,2.514-3.313c.058-.129.11-.293.314-.258.593.129.623.117.641-.468a.614.614,0,0,1,.274-.53,5.35,5.35,0,0,0,.509-.484c.059-.057.136-.14.207-.07.05.048.041.158.057.24,0,.021.005.042.008.063a1.428,1.428,0,0,1-.032.253,11.768,11.768,0,0,1-3.019,5.1c-.248.238-.48.492-.726.733a4.152,4.152,0,0,1-2.419,1.242,4.333,4.333,0,0,0-.568.115,5.313,5.313,0,0,1-2.365-.027,1.4,1.4,0,0,1-.428-.136c-.449-.251-.9-.507-1.327-.788a1.821,1.821,0,0,1-.39-.423c-.716-.912-1.424-1.83-2.142-2.74a7.768,7.768,0,0,1-.757-1.12,10.988,10.988,0,0,0-1.02-1.563,10.045,10.045,0,0,1-1.592-2.928c-.224-.648-.495-1.281-.771-1.909a10.134,10.134,0,0,1-.87-3.152,11.149,11.149,0,0,0-.32-1.642,27.4,27.4,0,0,1-.875-5.525c-.024-.6-.115-1.2-.181-1.794a6.937,6.937,0,0,1,.131-2.812,2.138,2.138,0,0,0,.051-.639,10.77,10.77,0,0,1,1.495-5.267c.009-.017.034-.026.051-.039.036-.02.092-.031.106-.061.146-.31.4-.222.641-.18.18.031.208.092.185.315-.007.062-.018.124-.027.186.112.309-.1.532-.221.77a12.985,12.985,0,0,0-.944,2.454c.582-.441,1.057-.976,1.584-1.455A.915.915,0,0,1,1319.318,317.781Z" transform="translate(-1315.466 -301.807)"/>
    <path id="Path_6889" data-name="Path 6889" d="M1350.193,380.72a13.263,13.263,0,0,1-1.075,1.9,7.626,7.626,0,0,1-.826.985c-.369.36-.739.718-1.1,1.083a3.583,3.583,0,0,1-.667.5,1.872,1.872,0,0,1-1.159.314c-.342-.028-.686-.031-1.027-.063a3.977,3.977,0,0,1-2.1-1.044,5.1,5.1,0,0,1-1.106-1.161,22.308,22.308,0,0,0-1.532-2.067,3.573,3.573,0,0,1-.73-1.558q-.259-1.193-.478-2.394c-.081-.442-.12-.891-.187-1.336a2.328,2.328,0,0,0-.107-.436,9.24,9.24,0,0,0-2.221-3.794,4.384,4.384,0,0,1-1.248-2.065c-.319-1.157-.655-2.309-.977-3.465a15.9,15.9,0,0,1-.346-1.96c-.075-.508-.14-1.018-.206-1.528a4.987,4.987,0,0,1,0-1.474,4.172,4.172,0,0,1,1.131-2.2c.708-.751,1.51-1.4,2.279-2.086.095-.084.181-.179.271-.268a.545.545,0,0,1,.428-.04c.38.146.771.263,1.16.382a7.63,7.63,0,0,1,1.021.391c.291.137.591.256.891.372a3.942,3.942,0,0,1,1.352.849,9.579,9.579,0,0,1,.952,1.133,2.663,2.663,0,0,1,.53,1.624,1.135,1.135,0,0,1,0,.129,5.753,5.753,0,0,0,.425,2.514,11.441,11.441,0,0,0,1.69,3.168c.257.343.566.646.827.986a7.446,7.446,0,0,1,1.619,3.6,29.756,29.756,0,0,0,.726,3.26c.05.208.1.417.136.628a8.983,8.983,0,0,0,.652,2.215,3.5,3.5,0,0,1,.284.92,3.5,3.5,0,0,0,.384,1.087A2.755,2.755,0,0,1,1350.193,380.72Z" transform="translate(-1332.004 -340.107)" fill="#636262"/>
    <path id="Path_6890" data-name="Path 6890" d="M1395.363,147.356a3.251,3.251,0,0,1-.327-1.038,13.333,13.333,0,0,0-.317-1.313c-.369-1.477-.8-2.937-1.062-4.442a10.977,10.977,0,0,0-1.781-4.38c-.521-.762-1.016-1.542-1.5-2.325a5.542,5.542,0,0,1-.418-.868c-.145-.358-.259-.728-.388-1.091a4.007,4.007,0,0,1-.269-1.513,5.509,5.509,0,0,0-1.344-3.6,3.266,3.266,0,0,0-1.439-1.054c-1.057-.419-2.1-.87-3.188-1.211-.409-.128-.817-.266-1.214-.428a2.424,2.424,0,0,1-1.136-.917c-.078-.119-.1-.239.034-.338a3.873,3.873,0,0,0,1.14-1.613c.2-.45.374-.913.564-1.369q.236-.564.484-1.123a6.908,6.908,0,0,1,1.334-1.957,16.332,16.332,0,0,1,2.219-1.952,27.325,27.325,0,0,1,2.36-1.562,10.242,10.242,0,0,0,2.447-1.874,1.064,1.064,0,0,1,1.32-.307,6.244,6.244,0,0,1,3.656,3.332c.221.512.423,1.033.66,1.538a18.071,18.071,0,0,1,.98,2.993,2.563,2.563,0,0,1,.07.638,11.95,11.95,0,0,0,1.234,4.763,6.892,6.892,0,0,1,.633,2.609,19.834,19.834,0,0,0,.13,2.056,6.755,6.755,0,0,1-.309,3.05,20.436,20.436,0,0,1-1.327,3.346,10.645,10.645,0,0,0-1.143,3.266c-.158.931-.347,1.855-.45,2.8a9.437,9.437,0,0,1-.319,1.509c-.377,1.344-.694,2.7-.975,4.067-.03.147-.074.291-.112.437C1395.466,147.554,1395.433,147.419,1395.363,147.356Z" transform="translate(-1377.045 -109.063)" fill="#fad19b"/>
    <path id="Path_6891" data-name="Path 6891" d="M1350.69,104.67a4.454,4.454,0,0,1,.923-2.387,8.912,8.912,0,0,1,.98-.928q1.19-1.082,2.354-2.194a3.9,3.9,0,0,0,.845-1.131,5.9,5.9,0,0,1,2.618-2.66,3.445,3.445,0,0,1,.979-.475,5.59,5.59,0,0,0,1.421-.5,6.128,6.128,0,0,1,1.37-.33.216.216,0,0,1,.225.091.2.2,0,0,1-.012.238.842.842,0,0,1-.17.192,13.864,13.864,0,0,1-2.777,2.074,4.753,4.753,0,0,0-1.058.73,12.587,12.587,0,0,1-1.232.931,12.838,12.838,0,0,0-2.555,2.436,3.465,3.465,0,0,0-.534.878c-.344.786-.7,1.565-.971,2.383a10.923,10.923,0,0,1-.789,1.759.835.835,0,0,1-.331.382.775.775,0,0,1-1.1-.435,2.628,2.628,0,0,1-.138-.56C1350.707,105.015,1350.706,104.864,1350.69,104.67Z" transform="translate(-1348.607 -93.151)" fill="#e09468"/>
    <path id="Path_6892" data-name="Path 6892" d="M1340.155,325.619a4.488,4.488,0,0,0-.885.732c-.5.527-1.1.942-1.555,1.492-.146-.041-.1-.135-.084-.205a12.711,12.711,0,0,1,1.042-2.743c.116-.228.228-.458.342-.687.077-.026.181-.1.23-.012a5.2,5.2,0,0,0,.878,1.178C1340.193,325.44,1340.164,325.535,1340.155,325.619Z" transform="translate(-1336.302 -309.646)" fill="#515151"/>
    <path id="Path_6893" data-name="Path 6893" d="M1625.19,726.428l.243.122a.93.93,0,0,1,.007.121c0,.061-.027.12-.1.116a.154.154,0,0,1-.094-.067A.386.386,0,0,1,1625.19,726.428Z" transform="translate(-1606.872 -688.135)" fill="#cba97c"/>
    <path id="Path_6894" data-name="Path 6894" d="M1361.085,627a12.176,12.176,0,0,1-1.232-1.724,5.094,5.094,0,0,1-.557-1.229c-.312-1.005-.695-1.984-1.089-2.958a7.925,7.925,0,0,1-.565-2.382.647.647,0,0,1,.186.081,7.479,7.479,0,0,1,1.145,1.387,12.541,12.541,0,0,1,.978,1.955,6.172,6.172,0,0,1,.375,1.558,9.939,9.939,0,0,0,.26,1.257,20.175,20.175,0,0,1,.491,2.06Z" transform="translate(-1355.149 -586.78)" fill="#515151"/>
    <path id="Path_6895" data-name="Path 6895" d="M1415.76,759.005a.42.42,0,0,1,.1.077c.032.046.011.086-.043.1-.009,0-.032-.03-.036-.049a1.148,1.148,0,0,1-.013-.128Z" transform="translate(-1409.83 -718.782)" fill="#282828"/>
    <path id="Path_6896" data-name="Path 6896" d="M1559.457,155.874a5.938,5.938,0,0,1-.132,1.673c-.024.082-.024.171-.054.25a8.771,8.771,0,0,1-1.4,2.585,9.416,9.416,0,0,0-.587.761,2.579,2.579,0,0,0-.352,2.088,1.124,1.124,0,0,1,.042.25.3.3,0,0,1-.434.228.452.452,0,0,1-.151-.117,2.374,2.374,0,0,1-.551-1.34c0-.193,0-.386,0-.579a1.909,1.909,0,0,1,.321-1.094c.255-.393.552-.76.84-1.131a5.143,5.143,0,0,0,1.295-3.4c-.012-.321.005-.644,0-.965a3.333,3.333,0,0,0-.657-2.039,4.591,4.591,0,0,0-1.782-1.533,2.447,2.447,0,0,0-1.049-.263,1.076,1.076,0,0,1-.255-.022c-.189-.038-.346-.162-.329-.259a.424.424,0,0,1,.286-.321,1.472,1.472,0,0,1,1.061-.111.456.456,0,0,0,.121.042,3.3,3.3,0,0,1,2.1,1.118,5.508,5.508,0,0,1,1.509,2.35,2.706,2.706,0,0,1,.162,1.007C1559.445,155.288,1559.457,155.525,1559.457,155.874Z" transform="translate(-1540.105 -146.233)" fill="#ffc475"/>
    <path id="Path_6897" data-name="Path 6897" d="M1439.514,238.783c0-.322-.014-.645,0-.966a2.284,2.284,0,0,0-.318-1.292q-.5-.859-1.05-1.69a1.358,1.358,0,0,0-.84-.548,5.168,5.168,0,0,0-1.273-.119c-.149,0-.314.012-.37-.177a.376.376,0,0,1,.248-.464,2.919,2.919,0,0,1,1.052-.257c.214-.01.43.01.644-.006a1.926,1.926,0,0,1,1.415.5,3.342,3.342,0,0,1,.815.9c.26.467.567.91.8,1.388a4.219,4.219,0,0,1,.348,2.752,3.641,3.641,0,0,0,.325,2.308,1.136,1.136,0,0,0,.594.565c.117.051.246.077.36.134.133.067.279.148.256.329a.417.417,0,0,1-.281.325,1.468,1.468,0,0,1-.948.046,2,2,0,0,1-1.566-1.45,4.228,4.228,0,0,1-.221-1.385c.015-.3,0-.6,0-.9Z" transform="translate(-1428.544 -224.123)" fill="#ffc475"/>
    <path id="Path_6898" data-name="Path 6898" d="M1639.168,394.478a3.42,3.42,0,0,1-1.117,2.892,2.58,2.58,0,0,0-.458.536,1.263,1.263,0,0,1-.57.5.385.385,0,0,1-.423,0,.5.5,0,0,1-.247-.49,1.331,1.331,0,0,1,.073-.245,5.306,5.306,0,0,1,.685-1.44,3.137,3.137,0,0,0,.578-1.066,1.763,1.763,0,0,0,.022-.886,6.464,6.464,0,0,0-.943-2.3,1.082,1.082,0,0,1-.153-.351.365.365,0,0,1,.466-.424,2.129,2.129,0,0,1,.668.377,4.847,4.847,0,0,1,1.286,1.9,1.581,1.581,0,0,1,.125.43A5.359,5.359,0,0,1,1639.168,394.478Z" transform="translate(-1617.378 -372.711)" fill="#ffc475"/>
    <path id="Path_6899" data-name="Path 6899" d="M1539.739,196.616a2.667,2.667,0,0,1-1.366,2.366,1.349,1.349,0,0,1-1.622-.117,3.26,3.26,0,0,1-.906-.99,2.179,2.179,0,0,1,.569-2.769c.017-.013.033-.027.051-.039a4.079,4.079,0,0,1,2.117-.3,1.287,1.287,0,0,1,.713.515A2.117,2.117,0,0,1,1539.739,196.616Z" transform="translate(-1522.559 -187.864)" fill="#b35346"/>
    <path id="Path_6900" data-name="Path 6900" d="M1553.178,403.317c.23,0,.4-.013.572,0a1.956,1.956,0,0,1,1.594,1.046,1.841,1.841,0,0,1-.2,2.37,1.973,1.973,0,0,1-1.716.843c-.192-.006-.385,0-.578,0a1.442,1.442,0,0,1-1.334-.943,4.512,4.512,0,0,1-.275-.854,2.233,2.233,0,0,1,.895-2.254,1.123,1.123,0,0,1,.841-.231C1553.066,403.305,1553.151,403.314,1553.178,403.317Z" transform="translate(-1537.261 -384.093)" fill="#b05144"/>
    <path id="Path_6901" data-name="Path 6901" d="M1596.06,518.462a1.565,1.565,0,0,1-.411,1.089,5.244,5.244,0,0,1-1.073.914.771.771,0,0,1-.734.1,2.518,2.518,0,0,1-1.6-1.479,1.538,1.538,0,0,1,.327-1.564,3.361,3.361,0,0,1,1.36-.944.927.927,0,0,1,.635-.017A2.01,2.01,0,0,1,1596.06,518.462Z" transform="translate(-1575.789 -490.63)" fill="#b05144"/>
    <path id="Path_6902" data-name="Path 6902" d="M1421.288,263.681a2.195,2.195,0,0,1,1.483.426,1.636,1.636,0,0,1-.948,2.944,2.071,2.071,0,0,1-1.486-.487,1.417,1.417,0,0,1-.471-1.723,2.818,2.818,0,0,1,.258-.515A1.038,1.038,0,0,1,1421.288,263.681Z" transform="translate(-1413.592 -252.724)" fill="#af5143"/>
    <path id="Path_6903" data-name="Path 6903" d="M1634.951,337.811c.193,0,.387,0,.58,0a1.647,1.647,0,0,1,.962.323,1.017,1.017,0,0,1,.462.668,4.282,4.282,0,0,1,.12.955,1.029,1.029,0,0,1-.527.9,1.7,1.7,0,0,1-.727.243,2.04,2.04,0,0,1-1.963-1.09,1.2,1.2,0,0,1,.138-1.438c.108-.122.186-.218.07-.384-.061-.087.023-.171.115-.174.257-.011.515,0,.772,0Z" transform="translate(-1614.871 -322.492)" fill="#b05144"/>
    <path id="Path_6904" data-name="Path 6904" d="M1611.5,607.285a.8.8,0,0,1-.019.132.309.309,0,0,1-.46.185.987.987,0,0,1-.279-.26,8.185,8.185,0,0,1-.641-1.1,2.916,2.916,0,0,1-.131-1.323.33.33,0,0,1,.261-.321.368.368,0,0,1,.338.139.352.352,0,0,1,.083.1,15.347,15.347,0,0,1,.847,2.268A1,1,0,0,1,1611.5,607.285Z" transform="translate(-1592.541 -573.501)" fill="#ffc476"/>
    <path id="Path_6905" data-name="Path 6905" d="M1548.852,213.614c0-.064,0-.129,0-.193a.426.426,0,0,1,.362-.459,2.753,2.753,0,0,1,1.69.116.957.957,0,0,1,.219.129.673.673,0,0,1,.281.789,2.157,2.157,0,0,1-.841,1.319.851.851,0,0,1-1.273-.247A2.45,2.45,0,0,1,1548.852,213.614Z" transform="translate(-1535.051 -204.947)" fill="#e07668"/>
    <path id="Path_6906" data-name="Path 6906" d="M1563,416.7a2.388,2.388,0,0,1,.774.1,1.144,1.144,0,0,1,.639,1.959,4.982,4.982,0,0,1-.365.361,1.309,1.309,0,0,1-1.8-.123,1.605,1.605,0,0,1-.486-1.278,1.3,1.3,0,0,1,.359-.8.623.623,0,0,1,.507-.227C1562.741,416.707,1562.848,416.7,1563,416.7Z" transform="translate(-1547.198 -396.714)" fill="#e07668"/>
    <path id="Path_6907" data-name="Path 6907" d="M1606.755,533.466a.944.944,0,0,1-.072.307,2.431,2.431,0,0,1-.972.808.412.412,0,0,1-.251.007,1.411,1.411,0,0,1-.985-1.072,1.475,1.475,0,0,1,.132-.613c.056-.139.229-.176.372-.224a1.888,1.888,0,0,0,.356-.142.757.757,0,0,1,.942.14C1606.517,532.88,1606.792,533.08,1606.755,533.466Z" transform="translate(-1587.386 -505.603)" fill="#df7668"/>
    <path id="Path_6908" data-name="Path 6908" d="M1435.368,277.668a2.313,2.313,0,0,1,.02-.257.616.616,0,0,1,.831-.56,1.734,1.734,0,0,1,.891.489.615.615,0,0,1-.074.951.82.82,0,0,1-.726.168c-.256-.094-.552-.084-.749-.331A.665.665,0,0,1,1435.368,277.668Z" transform="translate(-1428.279 -265.112)" fill="#df7567"/>
    <path id="Path_6909" data-name="Path 6909" d="M1646.377,348.566c0,.107.007.214,0,.32a.556.556,0,0,1-.609.589,1.4,1.4,0,0,1-1.208-.6.83.83,0,0,1,.4-1.261.369.369,0,0,1,.186-.023c.332.076.663.154.99.246a.315.315,0,0,1,.226.283c.017.148.017.3.025.447Z" transform="translate(-1624.96 -331.691)" fill="#e07668"/>
  </g>
</svg>
