<svg xmlns="http://www.w3.org/2000/svg" width="32.844" height="51.682"><path d="M32.838 33.572a13.3 13.3 0 0 1-1.081 5.26l-1.049 2.188q-1.219 2.293-2.252 4.674a24.32 24.32 0 0 1-1.191 2.4 5.9 5.9 0 0 1-2.727 2.51 9.3 9.3 0 0 1-7.158.7A9.314 9.314 0 0 1 11 46.069a41.687 41.687 0 0 0-2.947-4.767 7.85 7.85 0 0 0-.937-1.07c-.818-.842-1.69-1.627-2.579-2.394a29.416 29.416 0 0 1-3.231-3.4A5.516 5.516 0 0 1 .027 30.23a33.83 33.83 0 0 1 1.466-7.206 13.62 13.62 0 0 1 3.476-5.65l1.851-1.939a13.69 13.69 0 0 0 3.217-5.985l.516-1.854a16.24 16.24 0 0 1 2.057-4.379 11.64 11.64 0 0 1 1.675-1.978 5.416 5.416 0 0 1 1.767-1.1 1.564 1.564 0 0 1 1.64.229c.616.448 1.116 1 1.675 1.5 1.78 1.583 3.254 3.453 4.9 5.161a10.83 10.83 0 0 1 1.1 1.37l1.443 2.057a12.71 12.71 0 0 1 1.608 2.927l.5 1.242a18.11 18.11 0 0 1 1.358 6.689l.119 2.09a12.9 12.9 0 0 0 .707 2.751A42.366 42.366 0 0 1 32.58 31.3a9.6 9.6 0 0 1 .258 2.272z"/><path d="M30.932 33.415a12.579 12.579 0 0 1-1.192 5.188l-1.128 2.245-2.177 4.62a11.24 11.24 0 0 1-.855 1.63c-.155.242-.253.278-.481.158a4.5 4.5 0 0 1-2.056-1.782c-.485-.915-1.092-1.753-1.621-2.64l-1.985-3.3a17.266 17.266 0 0 0-.963-1.368 4.766 4.766 0 0 0-2-1.6l-2.546-1.07q-1.62-.682-3.241-1.36a13.42 13.42 0 0 1-4.477-2.88l-.849-.805a8.06 8.06 0 0 1-1.852-3.789 14.92 14.92 0 0 1-.321-1.725 2.59 2.59 0 0 1 .115-1.236 12.02 12.02 0 0 1 2.98-4.885 26.053 26.053 0 0 0 2.971-3.292 15.5 15.5 0 0 0 2.617-5.389l.576-2.1a13.982 13.982 0 0 1 2.19-4.307 6.7 6.7 0 0 1 1.477-1.47l1-.762a.46.46 0 0 1 .667.091.69.69 0 0 1 .05.067 27.036 27.036 0 0 0 2.684 3.316c.107.128.207.261.3.4q1.1 1.481 2.312 2.867c.323.385.621.789.895 1.21l1.429 2.167a9.71 9.71 0 0 1 1.056 2.086 40.5 40.5 0 0 1 1.354 3.868c.28 1.052.428 2.135.44 3.224a28.31 28.31 0 0 0 .18 2.923 9.58 9.58 0 0 0 .449 1.953l1.141 3.589a21.84 21.84 0 0 1 .855 4l.006.158z" fill="#636262"/><path d="M24.485 48.306c-.029.046-.047.109-.088.136a7.97 7.97 0 0 1-2.835 1.195 8.355 8.355 0 0 1-2.751-.016 10.837 10.837 0 0 1-2.093-.569 4.36 4.36 0 0 1-1.184-.612 8.68 8.68 0 0 1-2.82-3.249 30.163 30.163 0 0 0-3.268-5.245 17.38 17.38 0 0 0-2.818-2.849 28.567 28.567 0 0 1-3.9-4.006 3.4 3.4 0 0 1-.771-2.241c.013-.814.16-1.607.226-2.411a3.83 3.83 0 0 1 .2-.668l.3.867a6.45 6.45 0 0 0 1.834 2.942 17.98 17.98 0 0 0 2.822 2.351 19.738 19.738 0 0 0 3.36 1.687c1.258.462 2.447 1.082 3.685 1.59 2.42.995 2.177 1.1 3.684 3.1.475.655.909 1.339 1.3 2.047.389.675.838 1.317 1.286 1.955a14 14 0 0 1 1.066 1.6 4.75 4.75 0 0 0 2.379 2.134c.125.058.245.129.365.2.013.003.013.038.021.062z" fill="#525252"/></svg>