<svg id="Group_2599" data-name="Group 2599" xmlns="http://www.w3.org/2000/svg" width="39.542" height="116.091" viewBox="0 0 39.542 116.091">
  <path id="Path_6827" data-name="Path 6827" d="M1705.618,1072.939a10.106,10.106,0,0,1-.544,2.706,5.73,5.73,0,0,1-.315.768.872.872,0,0,0,.069.986,12.783,12.783,0,0,1,1.329,2.647,6.678,6.678,0,0,1,.5,3.138,2.206,2.206,0,0,0,.269,1.361,24.037,24.037,0,0,1,1.865,4.492,10.776,10.776,0,0,1,.128,5.866c-.123.532-.515,1.051-.327,1.593a7.17,7.17,0,0,0,.811,1.307,12.217,12.217,0,0,1,1.815,3.849,24.878,24.878,0,0,1,.622,3.869c.17,3.209.526,6.4.82,9.6a37.982,37.982,0,0,1,0,7.008c-.14,1.5-.4,2.984-.627,4.473-.146.98-.354,1.942-.555,2.91a23.428,23.428,0,0,0-.334,2.711c-.293,3.318-.7,6.623-1.119,9.926a9.29,9.29,0,0,0-.073,1.067,21.271,21.271,0,0,1-2.02,8.617c-.589,1.3-1.269,2.553-1.924,3.82-.4.774-.849,1.523-1.241,2.3a44.148,44.148,0,0,1-3.855,6.274c-1.549,2.11-3.032,4.264-4.5,6.428a26.612,26.612,0,0,1-2.9,3.61,22.926,22.926,0,0,0-2.493,3.026,11.537,11.537,0,0,1-1.477,1.859.784.784,0,0,1-1.069.135,3.6,3.6,0,0,1-.472-.359,63.087,63.087,0,0,1-7.072-6.876c-.695-.813-1.442-1.583-2.195-2.344a19.075,19.075,0,0,1-4.036-6.528,19.84,19.84,0,0,1-.93-4.531,23.5,23.5,0,0,1-.219-3.559c.018-3.252-.005-6.5.209-9.752.07-1.068.189-2.133.264-3.2.121-1.7.226-3.4.334-5.1a33.889,33.889,0,0,0,.017-4.162c-.143-2.417-.181-4.835-.144-7.254.032-2.105-.108-4.2-.26-6.3-.1-1.381-.332-2.754-.529-4.127a16.424,16.424,0,0,1-.083-3.8,30.408,30.408,0,0,1,.938-5.86,6.832,6.832,0,0,0,.17-.934,6.525,6.525,0,0,1,.909-2.679,1.075,1.075,0,0,0,.125-.984,10.952,10.952,0,0,1,.141-6.774,13.557,13.557,0,0,1,2.5-4.424,1.018,1.018,0,0,0,.2-1.176,9.89,9.89,0,0,1,.019-6.423,8.18,8.18,0,0,1,2.5-3.966,20.964,20.964,0,0,1,5.458-3.54,65.44,65.44,0,0,0,6.211-2.979,12.419,12.419,0,0,1,1.495-.729,10.3,10.3,0,0,0,3.513-2.593,6.55,6.55,0,0,0,1.232-2.02c.315-.727.631-1.453.92-2.19a1.356,1.356,0,0,1,.375-.59.623.623,0,0,1,.864-.02,22.243,22.243,0,0,1,3.228,3.63,10.974,10.974,0,0,1,1.234,3.825C1705.5,1071.629,1705.545,1072.3,1705.618,1072.939Z" transform="translate(-1673.28 -1063.345)"/>
  <path id="Path_6828" data-name="Path 6828" d="M1730.1,1396.317a9.714,9.714,0,0,1,1.686,4.877,32.943,32.943,0,0,1,.273,3.431c.06,1.3.2,2.6.364,3.9.1.825.162,1.659.217,2.481a29.99,29.99,0,0,1,.2,5.922c-.152,1.172-.135,2.368-.32,3.545a17.91,17.91,0,0,1-3.7,9.631c-1.173,1.545-2.356,3.083-3.524,4.633a10.868,10.868,0,0,1-2.532,2.483,10.947,10.947,0,0,0-3.829,4.6,27.231,27.231,0,0,0-1.928,5.6,40.028,40.028,0,0,0-.653,4.458,67.24,67.24,0,0,1-2.648,13.6c-.417,1.321-.828,2.644-1.258,3.961a21.22,21.22,0,0,0-.927,3.781c-.268.061-.381-.12-.5-.266-1.667-1.961-3.322-3.932-5-5.881-.594-.69-1.227-1.35-1.882-1.983a17.583,17.583,0,0,1-3.781-5.568,14.041,14.041,0,0,1-1-4.016.451.451,0,0,1,.332-.537c.437-.184.873-.371,1.312-.55a3.78,3.78,0,0,0,1.753-1.547,10.157,10.157,0,0,0,1.43-3.245c.4-1.773.723-3.564,1-5.363.345-2.271.5-4.56.714-6.844.072-.787.242-1.565.315-2.351a16.716,16.716,0,0,0-.374-6.711,29.337,29.337,0,0,0-1.214-3.094c-.728-1.626-1.5-3.235-2.278-4.837-.416-.853-.868-1.692-1.349-2.51a13.779,13.779,0,0,1-1.724-4.281,17.151,17.151,0,0,1-.311-4.965c.53-.337.9.094,1.291.3a5.627,5.627,0,0,0,3.767.663c1.478-.27,3,.006,4.5-.165a25.743,25.743,0,0,0,7.014-2.148,42.913,42.913,0,0,0,8.413-4.363c2.35-1.676,4.6-3.505,5.726-6.324C1729.736,1396.443,1729.851,1396.28,1730.1,1396.317Z" transform="translate(-1696.094 -1359.985)" fill="#636262"/>
  <path id="Path_6829" data-name="Path 6829" d="M1731.515,1277.09a9.974,9.974,0,0,1,.776,2.444,12.2,12.2,0,0,1-.069,4.837,7.629,7.629,0,0,1-2.173,4.132,31.994,31.994,0,0,1-6.131,5.044,8.157,8.157,0,0,1-1.151.613c-2.294.976-4.579,1.975-6.9,2.891a26.98,26.98,0,0,1-6.62,1.831c-.746.091-1.486.234-2.227.365a10.653,10.653,0,0,1-3.989-.429.589.589,0,0,1-.447-.506,4.649,4.649,0,0,1-.164-1.763,2.136,2.136,0,0,0,.058-.471,4.9,4.9,0,0,1,1.621-3.576,9.574,9.574,0,0,1,1.049-.964,32.85,32.85,0,0,1,5.594-3.57c2.377-1.195,4.9-2.03,7.325-3.087a3.545,3.545,0,0,1,.556-.206,38.951,38.951,0,0,0,5.962-2.331,36.6,36.6,0,0,0,3.784-1.984,7.108,7.108,0,0,0,2.4-2.256C1730.992,1277.782,1731.233,1277.476,1731.515,1277.09Z" transform="translate(-1699.208 -1253.771)" fill="#f3ebec"/>
  <path id="Path_6830" data-name="Path 6830" d="M1734.644,1109.056a5.831,5.831,0,0,1,.079-3.991,8.994,8.994,0,0,1,3.977-5.006,33.608,33.608,0,0,1,5.862-2.863,48.339,48.339,0,0,0,5.378-2.516,12.832,12.832,0,0,0,3.934-3.4,6.553,6.553,0,0,0,1.145-2.464c.109-.38.2-.765.319-1.243a4.639,4.639,0,0,1,1.825,2.258,11.283,11.283,0,0,1,.4,6.1,6.112,6.112,0,0,1-1.135,2.463c-.317.406-.625.82-.946,1.224a7.007,7.007,0,0,1-1.9,1.6,59.869,59.869,0,0,1-6.444,3.306,20.915,20.915,0,0,1-2.8.985c-1.71.5-3.426.984-5.135,1.49a15.948,15.948,0,0,0-4.013,1.766C1735.027,1108.863,1734.85,1108.945,1734.644,1109.056Z" transform="translate(-1727.667 -1084.928)" fill="#f3ebec"/>
  <path id="Path_6831" data-name="Path 6831" d="M1708.448,1225.341a11.679,11.679,0,0,1,.244-2.719,7.5,7.5,0,0,1,1.239-2.931,12.166,12.166,0,0,1,6.519-4.914c.491-.155.978-.321,1.471-.468q1.253-.374,2.51-.729a42.677,42.677,0,0,0,7.693-3.125c1.447-.733,2.84-1.577,4.234-2.408a14.718,14.718,0,0,0,2.129-1.712c.192-.17.356-.135.468.087a5.733,5.733,0,0,1,.065,5.574,8.1,8.1,0,0,1-3.5,3.6,82.65,82.65,0,0,1-7.938,3.767c-2.287.892-4.561,1.818-6.832,2.75a38.636,38.636,0,0,0-7.547,4.244,3.431,3.431,0,0,1-.5.314.174.174,0,0,1-.256-.14C1708.438,1226.133,1708.448,1225.737,1708.448,1225.341Z" transform="translate(-1704.601 -1190.64)" fill="#f0bac3"/>
  <path id="Path_6832" data-name="Path 6832" d="M1859.888,1755c.271-1.072.546-2.143.812-3.216a46.9,46.9,0,0,0,1.134-5.813c.225-1.922.466-3.843.705-5.763a24.4,24.4,0,0,1,2.31-8.176,8.443,8.443,0,0,1,2.727-3.229,14.325,14.325,0,0,0,3.441-3.411c1.05-1.438,2.148-2.84,3.225-4.258a.336.336,0,0,1,.36-.163,3.915,3.915,0,0,1-.04,1.341,6.151,6.151,0,0,0-.119.82,31.21,31.21,0,0,1-.823,5.983c-.207.937-.171,1.884-.343,2.823a22.363,22.363,0,0,1-1.669,5.667c-1.278,2.686-2.792,5.235-4.317,7.782-1.427,2.383-3.15,4.558-4.713,6.844-.8,1.175-1.619,2.341-2.43,3.512C1859.582,1755.667,1859.8,1755.312,1859.888,1755Z" transform="translate(-1839.427 -1649.222)" fill="#525252"/>
  <path id="Path_6833" data-name="Path 6833" d="M1699.843,1647.457a24.7,24.7,0,0,1,.132-3.552,25.339,25.339,0,0,0,.074-2.847c.035-1.5.215-2.993.4-4.482.019-.157.03-.315.044-.473.288-3.157.289-6.321.274-9.487-.011-2.453-.321-4.9-.212-7.352.016-.356,0-.713.014-1.069,0-.11,0-.248.145-.285s.2.054.254.169c.159.363.321.723.484,1.084.751,1.657,1.51,3.311,2.25,4.973a12.8,12.8,0,0,1,1.2,3.583,8.09,8.09,0,0,1,.107.94c.01,1.386.051,2.774-.017,4.156-.061,1.259-.25,2.512-.379,3.769-.081.786-.17,1.573-.243,2.356-.19,2.046-.489,4.076-.779,6.108a10.577,10.577,0,0,1-1.757,4.49,2.562,2.562,0,0,1-1.408,1.033.408.408,0,0,1-.584-.383C1699.831,1649.277,1699.843,1648.366,1699.843,1647.457Z" transform="translate(-1696.94 -1557.4)" fill="#525252"/>
  <path id="Path_6834" data-name="Path 6834" d="M1728.942,1392.813a7.686,7.686,0,0,1-1.131,2.307,8.335,8.335,0,0,1-1.985,2.157,1.928,1.928,0,0,0-.43.407,16.709,16.709,0,0,1-4.994,3.557c-1.1.551-2.208,1.076-3.293,1.651a27.237,27.237,0,0,1-4.694,1.979,31.432,31.432,0,0,1-3.26,1.073,14.73,14.73,0,0,1-3.273.415c-.752-.022-1.506-.012-2.259,0a3.151,3.151,0,0,0-.939.084,4.208,4.208,0,0,1-2.99-.342,9.461,9.461,0,0,1-1.348-.743,1.2,1.2,0,0,0-.55-.195c.033-.375-.448-.785-.044-1.1.316-.243.647.16.983.231a13.454,13.454,0,0,0,1.853.372,20.174,20.174,0,0,0,8.5-1.21c.518-.193,1.038-.384,1.563-.558,2.552-.849,5.033-1.874,7.521-2.9a28.818,28.818,0,0,0,9.975-7.281,2.4,2.4,0,0,1,.23-.269c.212-.165.362-.042.48.139A1.111,1.111,0,0,1,1728.942,1392.813Z" transform="translate(-1694.938 -1356.482)" fill="#525252"/>
  <path id="Path_6835" data-name="Path 6835" d="M1857.206,2032.94c.033.267-.036.569.26.743-.14.237-.273.479-.427.707-.033.049-.137.05-.258.09A2.183,2.183,0,0,1,1857.206,2032.94Z" transform="translate(-1836.746 -1927.158)" fill="#404040"/>
</svg>
