<svg xmlns="http://www.w3.org/2000/svg" width="39.156" height="61.604"><path d="m34.119 16.509.75 1.956a18.31 18.31 0 0 1 1.122 5.353l.141 2.794c.034 1.2.243 2.388.62 3.527l1.137 3.511a37.7 37.7 0 0 1 1.017 3.961 14.376 14.376 0 0 1-.447 7 19.355 19.355 0 0 1-1.538 3.677l-3.34 6.918a19.99 19.99 0 0 1-1.249 2.386 6.651 6.651 0 0 1-2.743 2.55 12.65 12.65 0 0 1-3.644 1.322c-1.786.25-3.605.129-5.342-.355a11.028 11.028 0 0 1-7.454-6.135 51.92 51.92 0 0 0-3.563-5.77 9.22 9.22 0 0 0-1.121-1.272L5.54 45.211a35.611 35.611 0 0 1-3.875-4.027A6.474 6.474 0 0 1 .02 36.305l.071-1a41.93 41.93 0 0 1 1.242-6.362l.582-1.908a16.2 16.2 0 0 1 3.948-6.285l2.342-2.459a16.404 16.404 0 0 0 3.746-6.965l.585-2.115a18.85 18.85 0 0 1 2.235-4.992 14.2 14.2 0 0 1 2.2-2.707A6.527 6.527 0 0 1 19.064.179a1.88 1.88 0 0 1 2.042.255 21.9 21.9 0 0 1 1.923 1.718 51.67 51.67 0 0 1 4.673 4.921 38.73 38.73 0 0 1 4.888 6.3 12.2 12.2 0 0 1 1.041 1.931c-.313.643-.99.353-1.467.577a4.4 4.4 0 0 1-.589.086.53.53 0 0 1-.271-.1l-2.337-3.7c-1.74-2.516-3.719-4.841-5.7-7.168l-1.79-2.268c-.658-.889-.724-.886-1.654-.233a12.68 12.68 0 0 0-4.307 5.855c-.652 1.714-1.018 3.514-1.6 5.25a19.23 19.23 0 0 1-3.726 6.321 9.307 9.307 0 0 0-.723.75 18.059 18.059 0 0 1-2.164 2.344 12.995 12.995 0 0 0-3.149 5.372c-.113.385-.142.79-.085 1.188.347 3.141 1.339 5.945 3.958 7.986a20.29 20.29 0 0 0 4.776 2.868l6.531 2.75a6.48 6.48 0 0 1 3.037 2.338c1.9 2.693 3.437 5.617 5.218 8.386a5.91 5.91 0 0 0 1.72 1.769c.6.4 1 .347 1.341-.344l1.467-3.169c.944-2.427 2.457-4.571 3.413-6.992a13.21 13.21 0 0 0 .557-8.411l-1.662-5.441a17.6 17.6 0 0 1-.919-5.686 18.31 18.31 0 0 0-1-6.076 2.79 2.79 0 0 1-.291-1.351c.506-.712.954-1.481 1.904-1.696z"/><path d="M34.119 16.508a11.63 11.63 0 0 1-1.747 1.563 6.924 6.924 0 0 1-3.177 1.917.855.855 0 0 1-1.032-.393 1.213 1.213 0 0 1 .03-1.407 5.13 5.13 0 0 1 3.2-2.325.37.37 0 0 0 .191-.014c.117-.091.292-.044.4-.166a2.79 2.79 0 0 1 1.237-.21c.16.044.33-.022.419-.162.236.364.398.771.479 1.197z" fill="#ed98af"/><path d="M31.387 15.863a2.3 2.3 0 0 1-.908.576 5.815 5.815 0 0 0-1.9 1.563 1.756 1.756 0 0 0-.412.887.763.763 0 0 0 1.067.852 7.39 7.39 0 0 0 1.6-.777c.487-.335 1.024-.6 1.539-.893a2.32 2.32 0 0 0 .27 1.054 17.322 17.322 0 0 1 1.121 6.245 19.79 19.79 0 0 0 1.158 6.64 52.21 52.21 0 0 1 1.53 5.158 12.941 12.941 0 0 1-.6 7.919 24.92 24.92 0 0 1-1.546 3.239c-.887 1.566-1.6 3.213-2.341 4.848l-1.354 2.78c-.283.552-.359.558-.928.247a5.646 5.646 0 0 1-2.453-2.4c-.467-.915-1.07-1.76-1.626-2.628l-1.579-2.658a23.096 23.096 0 0 0-2.291-3.382 5.31 5.31 0 0 0-2.152-1.576l-6.442-2.686a18.6 18.6 0 0 1-6.938-4.747 6.539 6.539 0 0 1-1.134-1.751 16.021 16.021 0 0 1-1.228-4.3 4.68 4.68 0 0 1 .238-2.25 14.1 14.1 0 0 1 3.585-5.565l1.726-1.791c.331.58.9 1.009 1.061 1.7-.754 1.71-.336 3.382.182 5.043.076.244.247.534.563.468s.323-.4.319-.656c-.015-1.029-.21-2.044-.242-3.073a2.1 2.1 0 0 1 0-.98c.214-.3.505-.184.69-.036a3.483 3.483 0 0 0 3.12.784c.265.473.113 1.058.409 1.525.091.143.185.311.361.305a.366.366 0 0 0 .333-.425 42.03 42.03 0 0 0-.22-4.864c-.039-.194-.1-.422-.34-.435-.273-.014-.405.2-.477.434a3.057 3.057 0 0 0-.026 1.382 2.08 2.08 0 0 1-.027 1.365c-.3.268-.5.012-.654-.173a9.83 9.83 0 0 0-4.247-2.795.466.466 0 0 1-.214-.2 28.71 28.71 0 0 0 2.238-3.155 18.2 18.2 0 0 0 1.985-4.858l.848-2.96c.08-.217.174-.429.283-.633l.165.029a4.766 4.766 0 0 0 2.56.55 2.249 2.249 0 0 1 1.612.261c.482 1.993.762 4.03.834 6.079-.3.5-.78.2-1.177.268-.424.076-.952.095-.97.654-.016.506.485.594.869.656a30.57 30.57 0 0 0 4.427.679 4.36 4.36 0 0 0 .6-.009c.279-.035.691.06.728-.33.031-.316-.354-.344-.6-.417l-1.434-.423c-.34-.128-.705-.227-.855-.622.281-2.647-.46-5.2-.711-7.8-.035-.361-.152-.714-.172-1.08 0-.521.4-.711.776-.906a3.5 3.5 0 0 0 1.194-.837.72.72 0 0 1 .243-.145 8.8 8.8 0 0 1 1.445 1.643l2.692 3.333a42.2 42.2 0 0 1 3.481 5.22c.175.248.293.531.346.83z" fill="#636262"/><path d="m2.982 33.479.246.759a8.05 8.05 0 0 0 2.8 4.031 2.15 2.15 0 0 1 .233.187 16.19 16.19 0 0 0 4.393 3.075c.76.4 1.579.7 2.372 1.041l5.492 2.371a4.5 4.5 0 0 1 1.77 1.413 36.496 36.496 0 0 1 2.895 4.3 21.75 21.75 0 0 0 1.43 2.161 17.38 17.38 0 0 1 1.331 1.988 5.85 5.85 0 0 0 2.413 2.31 2.2 2.2 0 0 1 .755.45c0 .212-.159.289-.3.361l-1.707.822a7.039 7.039 0 0 1-2.622.519 12.733 12.733 0 0 1-4.023-.59 8.52 8.52 0 0 1-2.6-1.439 9.59 9.59 0 0 1-2.965-3.934 10.58 10.58 0 0 0-.865-1.572l-2.9-4.3a20.13 20.13 0 0 0-2.5-2.567l-3.089-2.826a27.238 27.238 0 0 1-2.428-2.774 3.472 3.472 0 0 1-.731-2.127 15.06 15.06 0 0 1 .25-3.274c.158-.09-.039-.509.35-.385z" fill="#525252"/><path d="M15.336 8.235a12.42 12.42 0 0 1 4.044-5.681l.955-.72c.413-.284.6-.243.913.161q1.091 1.423 2.18 2.848l-.109.11a13.4 13.4 0 0 0-3.754 1.149 6.23 6.23 0 0 0-2.085 1.282 14.46 14.46 0 0 0-2.025.932z" fill="#636262"/><path d="m10.384 22.032-.373-.309a1.442 1.442 0 0 1-.62-1.256 1.17 1.17 0 0 1 .594-.626 2.58 2.58 0 0 1 1.152.275 9.427 9.427 0 0 1 3.814 2.969.317.317 0 0 1 .012.541l-.367.333a.92.92 0 0 1-1.022.123l-.888-.435-1.26-.789a5.62 5.62 0 0 1-1.042-.826z" fill="#ec98af"/><path d="m2.982 33.48-.354.381a2.59 2.59 0 0 1 .034-.462c.026-.106.091-.264.251-.167.054.037.048.162.069.248z" fill="#393938"/><path d="M31.974 15.683a.34.34 0 0 1-.4.166.344.344 0 0 1 .4-.166z" fill="#636262"/><path d="M20.362 15.212a8.547 8.547 0 0 1-.257-1.969l-.55-4.139c.163-.256.443-.234.69-.288.282-.061.642-.077.685-.428.048-.385-.328-.422-.594-.517a1.61 1.61 0 0 1-.773-.381 1.73 1.73 0 0 1 1.8-1.011 12.97 12.97 0 0 1 .458 2.337l.476 3.447.224 2.075c.009.468-.112.93-.351 1.333a1.54 1.54 0 0 1-1.808-.459z" fill="#ed98b0"/><path d="M29.961 29.099a1.726 1.726 0 0 1-.942-.269 9.26 9.26 0 0 1-1.619-1.315c-.528-.5-1-1.058-1.487-1.6a1.41 1.41 0 0 1-.29-.512.79.79 0 0 1 .934-1.028c.361.065.703.212 1 .428a11.9 11.9 0 0 1 1.549 1.248 7.15 7.15 0 0 0 1.266 1.111 1.21 1.21 0 0 1 .206 1.684.736.736 0 0 1-.617.253z" fill="#fec375"/><path d="M20.365 15.216c.617.1 1.177.418 1.808.458a14.45 14.45 0 0 0 2.465.761 1.72 1.72 0 0 1 .725.3.46.46 0 0 1 .015.7.95.95 0 0 1-.722.278 14.434 14.434 0 0 1-1.788-.083l-3.917-.681a2.79 2.79 0 0 1-.48-.127.736.736 0 0 1-.522-.662.754.754 0 0 1 .466-.8 2.43 2.43 0 0 1 1.261-.21l.689.066z" fill="#a0f0ed"/><path d="M22.358 23.95a1.212 1.212 0 0 0-.154.763 9.51 9.51 0 0 1-.847 3.448 2.41 2.41 0 0 1-.418.666.69.69 0 0 1-1.157-.18 2.21 2.21 0 0 1-.149-1.361c.101-1.021.305-2.029.609-3.009a2.2 2.2 0 0 1 .686-1.183c.4.411 1.045.417 1.43.856z" fill="#ec98af"/><path d="M10.383 22.032a1.01 1.01 0 0 1 1.042.826l.271 2.972.077 1.49a1.03 1.03 0 0 1-.022.3c-.067.264-.177.543-.446.619-.294.083-.479-.174-.649-.377a2.29 2.29 0 0 1-.433-.89 12.76 12.76 0 0 1-.446-3.646c-.04-.508.19-.999.606-1.294z" fill="#9fefec"/><path d="M26.984 14.593c.008.755-.121 1.249-.637 1.564a.63.63 0 0 1-.942-.2 4.7 4.7 0 0 1-.558-1.689 4.829 4.829 0 0 1 .131-2.456 1.41 1.41 0 0 1 .346-.594.648.648 0 0 1 .614-.248.74.74 0 0 1 .617.576c.064.324.091.656.137.984l.292 2.063z" fill="#fdc375"/><path d="m14.963 23.626-.012-.542a6.486 6.486 0 0 0-.066-1.291c-.056-.394-.055-.795-.1-1.19a1.14 1.14 0 0 1 .551-1.095.526.526 0 0 1 .856.306c.085.423.136.853.151 1.284a30.45 30.45 0 0 0 .207 3.774c.007.334-.083.662-.26.945-.063.14-.196.236-.349.249s-.302-.056-.389-.182a2.31 2.31 0 0 1-.537-1.264l-.052-.994z" fill="#9fefec"/><path d="M15.389 29.839a.48.48 0 0 1 .487.676 2.052 2.052 0 0 1-.67.973l-2.979 2.342a1.6 1.6 0 0 1-.167.11c-.3.177-.579.187-.733.015a.69.69 0 0 1-.061-.75.321.321 0 0 1 .044-.089 8.46 8.46 0 0 1 3.332-3.067c.231-.123.486-.194.747-.21z" fill="#fdc375"/><path d="m22.357 23.949-.572-.058c-.649-.067-.665-.082-.858-.8a.8.8 0 0 1 .526-.426 4.17 4.17 0 0 1 1.484-.116 8.223 8.223 0 0 0 3.076-.04 2.7 2.7 0 0 1 .891-.014.68.68 0 0 1 .563.618.66.66 0 0 1-.436.6 1.9 1.9 0 0 1-.78.143l-2.5.032-1.394.061z" fill="#9fefec"/><path d="M21.367 6.481a7.53 7.53 0 0 0-1.748.986 1.48 1.48 0 0 1-1.384.807c-.607.035-1.047-.2-.852-.949a1.82 1.82 0 0 1 1.027-1.01q1.641-.669 3.294-1.31a1.94 1.94 0 0 1 1.621-.054.534.534 0 0 1-.292.563l-.758.425a3.53 3.53 0 0 0-.908.542z" fill="#a0efec"/><path d="M17.378 7.326c.018.095.042.189.071.282.145.391.38.6.935.43a9.777 9.777 0 0 0 1.229-.57l1.161.244c.193.056.36.177.472.344a.48.48 0 0 1-.077.7 1.44 1.44 0 0 1-.821.314l-.794.034-2.247-.044a5.31 5.31 0 0 1-1.161-.132.885.885 0 0 1-.69-.616 1.25 1.25 0 0 1 1.04-.825l.882-.161z" fill="#fdc376"/><path d="M6.597 27.843a8.21 8.21 0 0 1 1.766.191c.13.024.258.057.383.1a.66.66 0 0 1 .124 1.19 1.78 1.78 0 0 1-.922.334c-.726.062-1.456.067-2.183.016a2.04 2.04 0 0 1-.936-.3.767.767 0 0 1-.421-.735.81.81 0 0 1 .6-.713 1.58 1.58 0 0 1 .487-.077l1.102-.006z" fill="#ed98af"/><path d="M26.993 19.335a1.59 1.59 0 0 1 .794.289 27.136 27.136 0 0 1 2.637 2.134 1.45 1.45 0 0 1 .432.659.376.376 0 0 1-.431.494 1.45 1.45 0 0 1-.647-.247q-1.457-.964-2.906-1.938a1.11 1.11 0 0 1-.458-.512.65.65 0 0 1 .58-.878z" fill="#9fefec"/><path d="M15.549 17.408a11.88 11.88 0 0 0-1.8-.182c-.334-.033-.672-.1-.766-.505-.084-.357.1-.645.547-.826a4.9 4.9 0 0 1 2.544-.173 1.35 1.35 0 0 1 .531.256c.526.357.512.877-.033 1.175-.31.181-.665.269-1.023.255z" fill="#fcc275"/></svg>