<svg xmlns="http://www.w3.org/2000/svg" width="48.715" height="63.03"><path d="M.002 33.015c-.057-1.57.216-3.134.8-4.592l1.2-2.765a27.23 27.23 0 0 0 2.163-6.146l1.318-4.848a18.645 18.645 0 0 1 8.485-10.831 38.23 38.23 0 0 1 3.365-1.877A21.93 21.93 0 0 1 24.92.014a5.7 5.7 0 0 1 2.471.371 23.79 23.79 0 0 1 2.327.943c1.452.718 2.883 1.479 4.307 2.25A9 9 0 0 1 36.866 5.9a22.478 22.478 0 0 1 4.4 7.649 14.29 14.29 0 0 0 2.65 5.189 9.6 9.6 0 0 1 1.276 2.16l2.522 5.663a10.5 10.5 0 0 1 .194 8.467 33.32 33.32 0 0 1-1.967 4.253 13.39 13.39 0 0 0-1.784 6.389 39.4 39.4 0 0 1-1.686 9.381 12.856 12.856 0 0 1-2.074 4.18 6.98 6.98 0 0 1-2.349 2.117c-3.441 1.761-6.953 2.387-10.624.659a21.51 21.51 0 0 1-3.331-1.925q-4.1-2.916-8.22-5.8a66.64 66.64 0 0 1-7.292-6.427c-.57-.536-1.082-1.134-1.655-1.666a30.63 30.63 0 0 1-5.54-7.538 10.906 10.906 0 0 1-1.384-5.636z"/><path d="M44.121 31.963a3.819 3.819 0 0 1-.613 2.328 11.17 11.17 0 0 0-1.569 3.862c-.308 2.434-1.019 4.8-1.142 7.268-.019.39-.092.775-.217 1.144l-2.748 7.915a2.243 2.243 0 0 1-3.045 1.513 3.86 3.86 0 0 1-1.2-.588 15.376 15.376 0 0 1-1.731-1.319 26.498 26.498 0 0 0-3.948-3.1 7.18 7.18 0 0 1-2.536-3.048 19.03 19.03 0 0 0-1.9-3.151 19.6 19.6 0 0 0-3.843-3.721 13.72 13.72 0 0 0-4.2-2.04 15.41 15.41 0 0 1-4.118-1.833 13.78 13.78 0 0 1-2.687-2.511 8.593 8.593 0 0 1-1.35-3.225 11.1 11.1 0 0 1-.389-2.477l-.471-5.669a2.612 2.612 0 0 1 .111-.986l1.964-7.1a16.06 16.06 0 0 1 5.681-7.913c.908-.737 1.927-1.339 2.907-1.983.529-.347.855-.262.82.407a10.6 10.6 0 0 0 .805 3.915 6.515 6.515 0 0 0 2.75 3.493 31.64 31.64 0 0 0 6.189 3.327c1.206.438 2.361 1.012 3.546 1.508a29.45 29.45 0 0 0 3.959 1.36 5.143 5.143 0 0 1 2.568 1.5l2.537 2.675a18.91 18.91 0 0 1 3.429 6.1 4.77 4.77 0 0 1 .441 2.349z" fill="#636262"/><path d="M36.719 58.385c-.005.061.009.15-.019.168a8.58 8.58 0 0 1-5.916 1.355 9.76 9.76 0 0 1-3.987-1.676l-4.915-3.493q-2.65-1.91-5.28-3.846a7.38 7.38 0 0 1-.777-.635c-2.568-2.488-5.289-4.816-7.76-7.405a27.96 27.96 0 0 1-4.454-6.262 8 8 0 0 1-.083-7.566c.47.134.34.546.465.8a3.3 3.3 0 0 1 .175.813 13.6 13.6 0 0 0 4.251 7.794 17.08 17.08 0 0 0 5.774 3.323c.686.236 1.362.5 2.037.766a7.87 7.87 0 0 1 2.524 1.62 19.927 19.927 0 0 1 4.01 4.91 10.38 10.38 0 0 0 4.382 4.491 28.69 28.69 0 0 1 4.382 3.068 13.82 13.82 0 0 0 1.238.854 4.97 4.97 0 0 0 3.185.826.927.927 0 0 1 .768.095zm2.693-39.726a7.317 7.317 0 0 0-3.549-1.76 49.52 49.52 0 0 1-13.109-5.416c-2.181-1.2-3.138-4.8-2.76-6.579a2.38 2.38 0 0 1 2.192-2 8.9 8.9 0 0 1 5.4.73l5.312 2.868a5.29 5.29 0 0 1 1.72 1.575 71.522 71.522 0 0 1 2.305 3.3 12.6 12.6 0 0 1 1.344 2.879c.396 1.281.891 2.53 1.48 3.735.271.404.221.66-.335.668z" fill="#525252"/><g fill="#2b2b2b"><path d="M39.413 18.659c.288-.139.322-.4.332-.677a6.185 6.185 0 0 1 1.356 2.339 4.935 4.935 0 0 1-1.688-1.662zM41.102 20.322c.293.151.6.3.574.7 0 .036-.1.107-.122.1-.363-.14-.429-.457-.452-.8z"/></g></svg>