<svg id="Group_2597" data-name="Group 2597" xmlns="http://www.w3.org/2000/svg" width="27.637" height="63.641" viewBox="0 0 27.637 63.641">
  <path id="Path_6836" data-name="Path 6836" d="M2192.892,1302.145c0-.638-.017-1.276,0-1.913.052-1.638-.047-3.272-.143-4.9-.061-1.021-.232-2.037-.375-3.052a17.369,17.369,0,0,1,2.7-11.494,50.723,50.723,0,0,1,3.371-4.639,6.051,6.051,0,0,1,1.833-1.544c.388-.213.781-.418,1.175-.62a6.749,6.749,0,0,1,3.376-.7,20.214,20.214,0,0,1,4.275.589,12.2,12.2,0,0,1,3.792,1.653c.785.52,1.542,1.083,2.306,1.634a6.93,6.93,0,0,1,1.714,1.8c.2.3.389.607.6.9a9.571,9.571,0,0,1,1.571,4.329c.166,1.184.15,2.378.287,3.563.178,1.542.281,3.092.431,4.637a26.183,26.183,0,0,1-.132,5.395c-.112,1.018-.39,2.012-.444,3.039a40.68,40.68,0,0,0-.816,6c-.17,1.235-.309,2.475-.454,3.714-.039.33-.064.663-.071.995a15.543,15.543,0,0,1-1.369,5.954c-.189.431-.387.86-.609,1.274-1.126,2.1-2.162,4.248-3.483,6.237-.246.369-.477.75-.744,1.1-1.241,1.635-2.369,3.348-3.535,5.036a14.712,14.712,0,0,1-1.515,1.874,20.726,20.726,0,0,0-2.17,2.625,10.078,10.078,0,0,1-.834,1.034c-.294.324-.5.327-.87.069-.113-.079-.217-.173-.322-.263a43.549,43.549,0,0,1-5.042-4.945c-.447-.528-.944-1.015-1.428-1.511a13.466,13.466,0,0,1-2.789-4.585,12.5,12.5,0,0,1-.548-2.6,15.447,15.447,0,0,1-.2-2.651c.015-1.858.006-3.716.045-5.573.021-.969.1-1.939.193-2.9a57.34,57.34,0,0,0,.3-7.723c-.022-.609,0-1.219,0-1.829Z" transform="translate(-2192.261 -1273.271)"/>
  <path id="Path_6837" data-name="Path 6837" d="M2225.921,1357.656c-.353-.421-.7-.845-1.061-1.261-.707-.818-1.446-1.609-2.122-2.451-.87-1.084-1.913-2.007-2.794-3.078a6.624,6.624,0,0,1-.6-.793,11.45,11.45,0,0,1-1.619-3.624c-.079-.407-.156-.815-.227-1.224a.335.335,0,0,1,.225-.4c.154-.062.313-.112.469-.168a3.849,3.849,0,0,0,2.235-2.219,9.179,9.179,0,0,0,.652-2.14c.231-1.308.472-2.614.667-3.928.113-.766.136-1.544.213-2.315s.165-1.541.259-2.31a18.42,18.42,0,0,0,.193-3.729,9.182,9.182,0,0,0-.8-3.041q-1.029-2.272-2.091-4.529c-.187-.4-.422-.779-.631-1.17-.262-.489-.541-.969-.775-1.471a7.459,7.459,0,0,1-.7-2.292,13.672,13.672,0,0,1-.165-3.635c.109-.736.156-1.486.289-2.221a13.75,13.75,0,0,1,1.688-4.315,41.3,41.3,0,0,1,3.466-4.976,7.239,7.239,0,0,1,3.965-2.442,4.408,4.408,0,0,1,1.656-.035,28.679,28.679,0,0,1,2.874.419,11.179,11.179,0,0,1,3.812,1.59c.812.528,1.568,1.14,2.354,1.71a3.268,3.268,0,0,1,.644.643c.413.524.758,1.092,1.125,1.647a7.847,7.847,0,0,1,1.13,3.7c.153,1.6.229,3.2.374,4.8.1,1.158.3,2.308.311,3.473.011.97.035,1.944-.021,2.911a20.7,20.7,0,0,1-.98,5.377,10.338,10.338,0,0,1-1.549,2.929c-1,1.331-2.008,2.65-3.02,3.969a5.61,5.61,0,0,1-1.132,1.1,12.729,12.729,0,0,0-1.537,1.27,5.649,5.649,0,0,0-.914,1.181,16.434,16.434,0,0,0-2.033,5.679c-.2,1.314-.361,2.631-.5,3.952a40.3,40.3,0,0,1-1.591,7.629c-.312,1.005-.634,2.007-.949,3.01A20.8,20.8,0,0,0,2225.921,1357.656Z" transform="translate(-2215.273 -1295.958)" fill="#636262"/>
  <path id="Path_6838" data-name="Path 6838" d="M2386.4,1700.58c.092.435-.117.8-.107,1.188a10.277,10.277,0,0,1-.073,1.159,29.23,29.23,0,0,1-.567,3.518,11.289,11.289,0,0,0-.155,1.317,14.606,14.606,0,0,1-1.779,5.664q-.869,1.608-1.8,3.181a53.65,53.65,0,0,1-3.033,4.565c-.791,1.068-1.507,2.19-2.256,3.289-.156.229-.307.461-.467.687-.062.088-.14.226-.248.188-.182-.065-.075-.225-.043-.341.331-1.229.693-2.449,1-3.685a28.833,28.833,0,0,0,.621-3.425c.208-1.729.4-3.46.666-5.181a13.789,13.789,0,0,1,1.842-5.124,4.122,4.122,0,0,1,1.233-1.33,15.229,15.229,0,0,0,3.538-3.711c.385-.507.752-1.028,1.135-1.536A.969.969,0,0,1,2386.4,1700.58Z" transform="translate(-2361.802 -1667.981)" fill="#525252"/>
  <path id="Path_6839" data-name="Path 6839" d="M2219.123,1597.11a6.93,6.93,0,0,1,1,1.863c.3.622.588,1.252.873,1.882.251.554.5,1.108.732,1.672a7.785,7.785,0,0,1,.53,2.752,31.7,31.7,0,0,1-.278,4.546c-.091.768-.138,1.54-.215,2.31-.041.412-.09.824-.159,1.232-.188,1.116-.23,2.253-.492,3.358a6.943,6.943,0,0,1-1.045,2.423,2.19,2.19,0,0,1-1.082.868.25.25,0,0,1-.356-.218,2.835,2.835,0,0,1-.018-.331c.008-1.384-.04-2.772.044-4.152.062-1.022.082-2.044.146-3.064.054-.853.177-1.7.27-2.552.006-.055.013-.11.016-.165a52.379,52.379,0,0,0,.146-6.965c-.127-1.661-.068-3.318-.11-4.976C2219.119,1597.43,2219.123,1597.27,2219.123,1597.11Z" transform="translate(-2216.594 -1572.405)" fill="#525252"/>
</svg>
