<svg xmlns="http://www.w3.org/2000/svg" width="47.113" height="95.952" viewBox="0 0 47.113 95.952">
  <g id="Group_2592" data-name="Group 2592" transform="translate(47.113 94.422) rotate(178)">
    <path id="Path_6855" data-name="Path 6855" d="M30.9,90.018a7.4,7.4,0,0,1-.608,2.569,1.018,1.018,0,0,1-.637.655.948.948,0,0,0-.377.262.59.59,0,0,0,.081.85.619.619,0,0,0,.768-.015,1.789,1.789,0,0,0,.464-.68,14.139,14.139,0,0,0,1.316-3.549.582.582,0,0,1,.438-.491,7.57,7.57,0,0,0,2.005-1.263A6.877,6.877,0,0,0,36.97,83.1a8.307,8.307,0,0,0-1.1-4.2,2.143,2.143,0,0,0-.253-.4.8.8,0,0,1-.059-.976A49.561,49.561,0,0,0,38,70.832a26.854,26.854,0,0,0,1.117-5.7,22.029,22.029,0,0,1,.756-4.327c.541-1.949.907-3.935,1.326-5.91A36.553,36.553,0,0,1,43,48.626a10.141,10.141,0,0,0,.814-4.641,13.127,13.127,0,0,0-.8-3.583c-.634-1.71-1.4-3.361-2.157-5.019-.475-1.045-.93-2.1-1.38-3.156a20.549,20.549,0,0,1-1.624-8.1c0-1.746-.055-3.488-.2-5.227a24.381,24.381,0,0,0-4.28-12.062A28.5,28.5,0,0,0,29.09,2.226a6.908,6.908,0,0,0-3.484-1.7C25.022.421,24.433.336,23.855.2a7.553,7.553,0,0,0-4,.151,8.01,8.01,0,0,0-4.2,2.721c-1.216,1.612-2.474,3.193-3.728,4.777a14.029,14.029,0,0,0-1.4,2.063,21.069,21.069,0,0,1-1.949,2.981A18.064,18.064,0,0,0,5.75,18.084c-.442,1.269-.972,2.511-1.51,3.744a18.8,18.8,0,0,0-1.589,5.94,18.838,18.838,0,0,1-.569,2.791,48.86,48.86,0,0,0-1.59,9.955,28.361,28.361,0,0,1-.3,2.956A24.027,24.027,0,0,0,0,46.434a8.107,8.107,0,0,0,.3,2.588,4.062,4.062,0,0,1,.18,1.406,16.781,16.781,0,0,0,1.36,6.825A23.545,23.545,0,0,0,3.6,60.886c1.626,2.68,2.924,5.529,4.339,8.317.376.741.752,1.485,1.172,2.2a22,22,0,0,0,3.878,4.941c.634.6,1.295,1.171,1.907,1.791a18.163,18.163,0,0,0,4.563,3.186,7.234,7.234,0,0,0,2.105.792.681.681,0,0,1,.633.705,9.305,9.305,0,0,0,1.741,4.367,6.376,6.376,0,0,0,3.077,2.335,2.291,2.291,0,0,0,1.042.2A28.28,28.28,0,0,1,30.9,90.018Z" transform="translate(0 0)"/>
    <path id="Path_6856" data-name="Path 6856" d="M.007,43.542c-.114,2.694,1.207,4.707,3.082,6.425,1.46,1.338,2.989,2.6,4.484,3.9a22.4,22.4,0,0,1,3.8,4.545c.127.189.181.453.464.5.168.026.324-.259.336-.675.016-.555,0-1.11.015-1.665a9.661,9.661,0,0,1,1.763-5.337,4.9,4.9,0,0,1,1.147-1.2,2.848,2.848,0,0,1,3.886.2c.392.393.774.8,1.155,1.2a3.686,3.686,0,0,0,1.832,1.045,2.017,2.017,0,0,0,2.54-1.174c.133-.286.22-.594.34-.887a6.763,6.763,0,0,1,.984-1.758,2.63,2.63,0,0,1,2.277-1.06,6.781,6.781,0,0,1,.936.139A2.5,2.5,0,0,0,32.245,46.2c.512-.984,1.007-1.978,1.5-2.97a7.43,7.43,0,0,1,2.365-2.774,4.143,4.143,0,0,1,2.426-.831c.519,0,.593-.082.453-.5a26.677,26.677,0,0,0-1.031-2.784c-.711-1.548-1.429-3.094-2.089-4.664a24.793,24.793,0,0,1-1.9-5.983c-.143-.978-.3-1.959-.356-2.944-.117-1.9-.147-3.8-.257-5.7a24.5,24.5,0,0,0-2.237-9.172,15.755,15.755,0,0,0-4.067-5.355c-.362-.307-.7-.645-1.031-.985A4.894,4.894,0,0,0,21.581.065C21.5.076,21.425.1,21.347.1,18.588.329,16.691,2,15.1,4.021,14.018,5.385,13.073,6.858,11.962,8.2a6.058,6.058,0,0,0-1.176,2.57c-.318,1.388-.626,2.779-.894,4.178-.149.775-.193,1.57-.31,2.352a7.378,7.378,0,0,1-.311,1.508A17.456,17.456,0,0,1,5.4,25.424c-.2.194-.386.4-.579.6a6.945,6.945,0,0,0-1.756,2.926q-.947,3.248-1.881,6.5a30.325,30.325,0,0,0-.652,3.5c-.155.936-.285,1.877-.4,2.819C.066,42.355.048,42.95.007,43.542Z" transform="translate(1.911 2.827)" fill="#636262"/>
    <path id="Path_6857" data-name="Path 6857" d="M7.862,15.291c0,.515.032,1.032-.008,1.543a2.415,2.415,0,0,1-.8,1.679,4.012,4.012,0,0,1-4.38.948c-.548-.225-1.068-.517-1.6-.777-.142-.069-.284-.14-.43-.2a.4.4,0,0,0-.516.158.38.38,0,0,0-.024.536,15,15,0,0,1,2.306,3.858,28.233,28.233,0,0,0,3.357,5.313c.356.423.658.892.971,1.35a15.68,15.68,0,0,0,1.822,2.191,3.716,3.716,0,0,0,.429.411,19.508,19.508,0,0,0,4.564,2.5,1.406,1.406,0,0,0,.349.068.315.315,0,0,0,.38-.194c.079-.224.135-.457.228-.675.231-.546.442-1.1.724-1.624a4.984,4.984,0,0,1,5.15-2.676A8.743,8.743,0,0,1,24,30.781c.277.153.554.307.833.457a.359.359,0,0,0,.512-.137,9.619,9.619,0,0,0,1.524-3.323,14.38,14.38,0,0,1,.712-2.631,29.958,29.958,0,0,0,1.2-4.833A32.483,32.483,0,0,1,30.2,14.927a11.371,11.371,0,0,0,.49-1.832c.453-2.087.808-4.192,1.351-6.266A20.222,20.222,0,0,0,32.6,2a2.639,2.639,0,0,0-.511-2,3.727,3.727,0,0,0-1.648,1.093,4.044,4.044,0,0,0-.988,1.326c-.352.709-.707,1.417-1.057,2.127-.105.213-.208.428-.3.648a4.619,4.619,0,0,1-5.29,2.64c-.117-.018-.23-.061-.347-.084-1.033-.206-1.45-.042-1.951.872a14.413,14.413,0,0,0-.591,1.424,3.749,3.749,0,0,1-2.7,2.286,3.332,3.332,0,0,1-1.413.049,6.121,6.121,0,0,1-3.448-1.725c-.332-.34-.667-.678-1.01-1.007a.914.914,0,0,0-1.1-.144,2.455,2.455,0,0,0-.953.869A7.145,7.145,0,0,0,7.862,15.291Z" transform="translate(8.147 44.861)" fill="#f7f3ee"/>
    <path id="Path_6858" data-name="Path 6858" d="M5.524,11.666a2.756,2.756,0,0,0,1.494.3.455.455,0,0,0,.435-.653,2.024,2.024,0,0,0-.231-.409.869.869,0,0,1,.1-1,.858.858,0,0,1,.941-.354.681.681,0,0,1,.556.882c-.088.255-.247.484-.358.732-.053.118.166.338.287.3a1.137,1.137,0,0,0,.325-.136A6.1,6.1,0,0,0,11.83,6.8c.11-2.017-.278-3.958-2.2-5.19A7.873,7.873,0,0,0,7.269.518,11.467,11.467,0,0,0,4.238,0,3.42,3.42,0,0,0,1.4,1.474a6.874,6.874,0,0,0,.875,9.267,6.1,6.1,0,0,0,1.271.868.691.691,0,0,0,.572.059c.065-.613-.538-1.048-.432-1.683.077-.462.048-.953.671-1.31C4.19,9.941,5.514,10.51,5.524,11.666Z" transform="translate(23.55 76.575)" fill="#923646"/>
    <path id="Path_6859" data-name="Path 6859" d="M0,0A7.486,7.486,0,0,0,.8,3.023,23.8,23.8,0,0,0,4.411,9.286a.848.848,0,0,0,.57-.343,1.872,1.872,0,0,1,2.083-.4c.626.231,1.239.5,1.859.751.229-.271,0-.449-.106-.625a17.529,17.529,0,0,0-3.862-4.3C3.516,3.13,2.1,1.877.731.564.513.354.36.042,0,0Z" transform="translate(2.531 53.207)" fill="#525252"/>
    <path id="Path_6860" data-name="Path 6860" d="M5.957.032a31.9,31.9,0,0,0-2.2,3.375A13.7,13.7,0,0,0,2.89,5.482q-.8,2.544-1.817,5.012a16.882,16.882,0,0,0-1.028,3.64.926.926,0,0,0,.039.683c.076-.011.176,0,.22-.037a12.332,12.332,0,0,0,2.359-2.946c.513-.935,1.021-1.868,1.457-2.846a10.368,10.368,0,0,0,.795-2.96,36.827,36.827,0,0,1,.927-4.155C5.975,1.335,6.091.8,6.214.257,6.271.02,6.178-.048,5.957.032Z" transform="translate(4.579 12.818)" fill="#515151"/>
    <path id="Path_6861" data-name="Path 6861" d="M2.154,3.46c.377-.869.387-.921-.229-1.374A1.116,1.116,0,0,1,1.389.7.786.786,0,0,0,1.4.349.429.429,0,0,0,.761.063,1.372,1.372,0,0,0,.5.293,2.286,2.286,0,0,0,.533,3.184c.074.09.143.184.215.277A3.674,3.674,0,0,0,2.154,3.46Z" transform="translate(26.92 84.781)" fill="#c67381"/>
    <path id="Path_6862" data-name="Path 6862" d="M0,.918l.257.225C.571.86.478.457.773,0,.192.248.153.622,0,.918Z" transform="translate(10.537 11.932)" fill="#242424"/>
    <path id="Path_6863" data-name="Path 6863" d="M4.54,4.57a2.261,2.261,0,0,0-.124-.532A7.98,7.98,0,0,0,1,.234,2.344,2.344,0,0,0,.336.006a.39.39,0,0,0-.32.086c-.041.044,0,.235.069.3a14.093,14.093,0,0,0,1.044.962A6.177,6.177,0,0,1,3.262,4.539,7.905,7.905,0,0,1,3.374,5.95c.022.209.108.388.341.413A.465.465,0,0,0,4.2,6.089,3.01,3.01,0,0,0,4.54,4.57Z" transform="translate(30.236 78.04)" fill="#c67482"/>
    <path id="Path_6864" data-name="Path 6864" d="M.992.222A.512.512,0,0,0,.278.086a.47.47,0,0,0-.19.685A.437.437,0,0,0,.387.9.711.711,0,0,0,1,.438C1.031.381,1,.295.992.222Z" transform="translate(29.105 83.771)" fill="#c3707e"/>
  </g>
</svg>
