<svg xmlns="http://www.w3.org/2000/svg" width="27.637" height="63.641"><path d="M.631 28.874v-1.913c.052-1.638-.047-3.272-.143-4.9-.061-1.021-.232-2.037-.375-3.052a17.37 17.37 0 0 1 2.7-11.494 50.734 50.734 0 0 1 3.371-4.639 6.05 6.05 0 0 1 1.833-1.544 46.96 46.96 0 0 1 1.175-.62 6.75 6.75 0 0 1 3.376-.7 20.22 20.22 0 0 1 4.275.589 12.2 12.2 0 0 1 3.792 1.653l2.306 1.634a6.93 6.93 0 0 1 1.714 1.8l.6.9a9.57 9.57 0 0 1 1.571 4.329c.166 1.184.15 2.378.287 3.563l.431 4.637a26.158 26.158 0 0 1-.132 5.395l-.444 3.039a40.68 40.68 0 0 0-.816 6l-.454 3.714a10.35 10.35 0 0 0-.071.995 15.54 15.54 0 0 1-1.369 5.954 17.92 17.92 0 0 1-.609 1.274l-3.483 6.237-.744 1.1-3.535 5.036a14.71 14.71 0 0 1-1.515 1.874 20.733 20.733 0 0 0-2.17 2.625 10.08 10.08 0 0 1-.834 1.034c-.294.324-.5.327-.87.069-.113-.079-.217-.173-.322-.263a43.55 43.55 0 0 1-5.042-4.945c-.447-.528-.944-1.015-1.428-1.511a13.472 13.472 0 0 1-2.789-4.585 12.5 12.5 0 0 1-.548-2.6 15.38 15.38 0 0 1-.2-2.651l.045-5.573a38.92 38.92 0 0 1 .193-2.9 57.34 57.34 0 0 0 .3-7.723v-1.829z"/><path d="m10.648 61.698-1.061-1.261-2.122-2.451c-.87-1.084-1.913-2.007-2.794-3.078a6.602 6.602 0 0 1-.6-.793 11.45 11.45 0 0 1-1.619-3.624l-.227-1.224a.335.335 0 0 1 .225-.4l.469-.168a3.85 3.85 0 0 0 2.235-2.219 9.18 9.18 0 0 0 .652-2.14l.667-3.928c.113-.766.136-1.544.213-2.315l.259-2.31a18.42 18.42 0 0 0 .193-3.729 9.18 9.18 0 0 0-.8-3.041q-1.029-2.272-2.091-4.529c-.187-.4-.422-.779-.631-1.17l-.775-1.471a7.46 7.46 0 0 1-.7-2.292 13.67 13.67 0 0 1-.165-3.635l.289-2.221a13.75 13.75 0 0 1 1.688-4.315 41.3 41.3 0 0 1 3.466-4.976 7.24 7.24 0 0 1 3.965-2.442 4.41 4.41 0 0 1 1.656-.035 28.68 28.68 0 0 1 2.874.419 11.18 11.18 0 0 1 3.812 1.59c.812.528 1.568 1.14 2.354 1.71a3.27 3.27 0 0 1 .644.643c.413.524.758 1.092 1.125 1.647a7.844 7.844 0 0 1 1.13 3.7l.374 4.8.311 3.473-.021 2.911a20.7 20.7 0 0 1-.98 5.377 10.34 10.34 0 0 1-1.549 2.929l-3.02 3.969a5.61 5.61 0 0 1-1.132 1.1 12.73 12.73 0 0 0-1.537 1.27 5.65 5.65 0 0 0-.914 1.181 16.428 16.428 0 0 0-2.033 5.679l-.5 3.952a40.3 40.3 0 0 1-1.591 7.629l-.949 3.01a20.8 20.8 0 0 0-.79 2.778z" fill="#636262"/><path d="M24.598 32.599c.092.435-.117.8-.107 1.188-.002.387-.027.774-.073 1.159a29.23 29.23 0 0 1-.567 3.518 11.29 11.29 0 0 0-.155 1.317 14.61 14.61 0 0 1-1.779 5.664q-.869 1.608-1.8 3.181a53.65 53.65 0 0 1-3.033 4.565l-2.256 3.289-.467.687c-.062.088-.14.226-.248.188-.182-.065-.075-.225-.043-.341l1-3.685c.276-1.128.483-2.272.621-3.425l.666-5.181a13.79 13.79 0 0 1 1.842-5.124 4.12 4.12 0 0 1 1.233-1.33 15.23 15.23 0 0 0 3.538-3.711l1.135-1.536a.97.97 0 0 1 .493-.423zM2.529 24.705a6.93 6.93 0 0 1 1 1.863l.873 1.882.732 1.672c.342.878.521 1.81.53 2.752a31.7 31.7 0 0 1-.278 4.546l-.215 2.31-.159 1.232-.492 3.358a6.936 6.936 0 0 1-1.045 2.423 2.19 2.19 0 0 1-1.082.868.25.25 0 0 1-.356-.218 3.045 3.045 0 0 1-.018-.331l.044-4.152.146-3.064.27-2.552.016-.165a52.38 52.38 0 0 0 .146-6.965c-.127-1.661-.068-3.318-.11-4.976l-.002-.483z" fill="#525252"/></svg>