<svg xmlns="http://www.w3.org/2000/svg" width="37.476" height="65.571" viewBox="0 0 37.476 65.571">
  <g id="Group_2596" data-name="Group 2596" transform="translate(0 5.834) rotate(-16)">
    <path id="Path_6827" data-name="Path 6827" d="M17.311,5.135a5.41,5.41,0,0,1-.291,1.449A3.067,3.067,0,0,1,16.851,7a.467.467,0,0,0,.037.528A6.843,6.843,0,0,1,17.6,8.94a3.575,3.575,0,0,1,.268,1.68,1.181,1.181,0,0,0,.144.728,12.867,12.867,0,0,1,1,2.4,5.768,5.768,0,0,1,.069,3.14c-.066.285-.276.563-.175.853a3.838,3.838,0,0,0,.434.7,6.54,6.54,0,0,1,.971,2.061,13.318,13.318,0,0,1,.333,2.071c.091,1.718.282,3.426.439,5.138a20.332,20.332,0,0,1,0,3.751c-.075.8-.216,1.6-.335,2.395-.078.525-.189,1.04-.3,1.558a12.541,12.541,0,0,0-.179,1.451c-.157,1.776-.374,3.545-.6,5.313a4.973,4.973,0,0,0-.039.571,11.386,11.386,0,0,1-1.082,4.612c-.315.694-.679,1.367-1.03,2.045-.214.414-.454.815-.664,1.232A23.633,23.633,0,0,1,14.792,54c-.829,1.129-1.623,2.283-2.41,3.441a14.246,14.246,0,0,1-1.554,1.932A12.272,12.272,0,0,0,9.494,61a6.176,6.176,0,0,1-.791,1,.42.42,0,0,1-.572.072,1.927,1.927,0,0,1-.253-.192,33.77,33.77,0,0,1-3.786-3.681c-.372-.435-.772-.847-1.175-1.255A10.211,10.211,0,0,1,.757,53.44a10.62,10.62,0,0,1-.5-2.425A12.578,12.578,0,0,1,.141,49.11c.009-1.741,0-3.482.112-5.22.038-.572.1-1.142.141-1.713.065-.91.121-1.821.179-2.732a18.141,18.141,0,0,0,.009-2.228c-.077-1.294-.1-2.588-.077-3.883.017-1.127-.058-2.25-.139-3.372-.053-.739-.178-1.474-.283-2.209A8.792,8.792,0,0,1,.039,25.72a16.277,16.277,0,0,1,.5-3.137,3.657,3.657,0,0,0,.091-.5,3.493,3.493,0,0,1,.487-1.434.576.576,0,0,0,.067-.527A5.863,5.863,0,0,1,1.261,16.5,7.257,7.257,0,0,1,2.6,14.128a.545.545,0,0,0,.109-.63,5.294,5.294,0,0,1,.01-3.438A4.379,4.379,0,0,1,4.055,7.937a11.222,11.222,0,0,1,2.921-1.9A35.031,35.031,0,0,0,10.3,4.447a6.648,6.648,0,0,1,.8-.39,5.513,5.513,0,0,0,1.88-1.388,3.506,3.506,0,0,0,.659-1.081c.169-.389.338-.778.492-1.172a.726.726,0,0,1,.2-.316A.333.333,0,0,1,14.8.088a11.907,11.907,0,0,1,1.728,1.943,5.874,5.874,0,0,1,.661,2.048C17.246,4.434,17.271,4.8,17.311,5.135Z" transform="translate(0 0)"/>
    <path id="Path_6828" data-name="Path 6828" d="M16.707,0a5.2,5.2,0,0,1,.9,2.611,17.634,17.634,0,0,1,.146,1.837c.032.7.109,1.393.2,2.086.055.442.087.888.116,1.328a16.054,16.054,0,0,1,.1,3.17c-.081.628-.072,1.268-.171,1.9a11.269,11.269,0,0,1-1.144,3.879,11.216,11.216,0,0,1-.834,1.277c-.628.827-1.261,1.651-1.886,2.48A5.818,5.818,0,0,1,12.78,21.9a5.86,5.86,0,0,0-2.049,2.46,14.577,14.577,0,0,0-1.032,3,21.427,21.427,0,0,0-.349,2.386,35.994,35.994,0,0,1-1.417,7.282c-.223.707-.443,1.415-.673,2.12a11.359,11.359,0,0,0-.5,2.024c-.144.033-.2-.064-.27-.142-.892-1.05-1.778-2.1-2.678-3.148-.318-.369-.657-.723-1.007-1.062A9.412,9.412,0,0,1,.782,33.835a7.516,7.516,0,0,1-.535-2.15A.242.242,0,0,1,.425,31.4c.234-.1.467-.2.7-.295a2.023,2.023,0,0,0,.938-.828,5.437,5.437,0,0,0,.766-1.737c.217-.949.387-1.908.534-2.871.185-1.216.27-2.441.382-3.664.039-.421.129-.838.169-1.259a8.948,8.948,0,0,0-.2-3.592,15.7,15.7,0,0,0-.65-1.656c-.39-.871-.8-1.732-1.219-2.589-.223-.457-.465-.906-.722-1.344A7.376,7.376,0,0,1,.2,9.271,9.181,9.181,0,0,1,.035,6.614c.283-.18.481.05.691.16a3.012,3.012,0,0,0,2.017.355c.791-.145,1.6,0,2.408-.088a13.78,13.78,0,0,0,3.755-1.15,22.971,22.971,0,0,0,4.5-2.335A7.913,7.913,0,0,0,16.474.17C16.514.071,16.575-.017,16.707,0Z" transform="translate(1.495 19.446)" fill="#636262"/>
    <path id="Path_6829" data-name="Path 6829" d="M15.595,0a5.339,5.339,0,0,1,.415,1.308A6.528,6.528,0,0,1,15.973,3.9,4.084,4.084,0,0,1,14.81,6.109a17.127,17.127,0,0,1-3.282,2.7,4.366,4.366,0,0,1-.616.328c-1.228.522-2.451,1.057-3.692,1.547a14.442,14.442,0,0,1-3.544.98c-.4.049-.8.125-1.192.2a5.7,5.7,0,0,1-2.135-.23.315.315,0,0,1-.239-.271,2.489,2.489,0,0,1-.088-.944,1.143,1.143,0,0,0,.031-.252A2.625,2.625,0,0,1,.92,8.25a5.125,5.125,0,0,1,.562-.516A17.585,17.585,0,0,1,4.476,5.823C5.748,5.183,7.1,4.736,8.4,4.17a1.9,1.9,0,0,1,.3-.11,20.851,20.851,0,0,0,3.192-1.248A19.594,19.594,0,0,0,13.912,1.75,3.805,3.805,0,0,0,15.2.543C15.314.37,15.443.207,15.595,0Z" transform="translate(1.7 12.483)" fill="#f3ebec"/>
    <path id="Path_6830" data-name="Path 6830" d="M.17,11.5A3.121,3.121,0,0,1,.212,9.364a4.815,4.815,0,0,1,2.129-2.68A17.991,17.991,0,0,1,5.478,5.152,25.876,25.876,0,0,0,8.357,3.805a6.869,6.869,0,0,0,2.106-1.821A3.508,3.508,0,0,0,11.076.666c.058-.2.106-.41.171-.666a2.484,2.484,0,0,1,.977,1.209,6.04,6.04,0,0,1,.213,3.264,3.272,3.272,0,0,1-.608,1.319c-.17.218-.335.439-.506.655a3.751,3.751,0,0,1-1.015.856,32.048,32.048,0,0,1-3.45,1.77,11.2,11.2,0,0,1-1.5.527c-.915.269-1.834.526-2.749.8a8.537,8.537,0,0,0-2.148.945C.375,11.4.28,11.441.17,11.5Z" transform="translate(3.565 1.415)" fill="#f3ebec"/>
    <path id="Path_6831" data-name="Path 6831" d="M.006,10.231a6.252,6.252,0,0,1,.13-1.455A4.016,4.016,0,0,1,.8,7.207a6.512,6.512,0,0,1,3.49-2.63c.263-.083.524-.172.788-.25q.671-.2,1.344-.39a22.845,22.845,0,0,0,4.118-1.673c.775-.392,1.52-.844,2.267-1.289a7.879,7.879,0,0,0,1.14-.916c.1-.091.191-.072.251.047a3.069,3.069,0,0,1,.035,2.984,4.335,4.335,0,0,1-1.872,1.925A44.243,44.243,0,0,1,8.11,7.03C6.885,7.507,5.668,8,4.453,8.5a20.682,20.682,0,0,0-4.04,2.272,1.836,1.836,0,0,1-.266.168.093.093,0,0,1-.137-.075C0,10.655.006,10.443.006,10.231Z" transform="translate(2.053 8.345)" fill="#f0bac3"/>
    <path id="Path_6832" data-name="Path 6832" d="M.061,18.219C.206,17.646.353,17.072.5,16.5A25.1,25.1,0,0,0,1.1,13.386c.12-1.029.249-2.057.378-3.085A13.063,13.063,0,0,1,2.717,5.924,4.519,4.519,0,0,1,4.177,4.2,7.668,7.668,0,0,0,6.019,2.37C6.581,1.6,7.169.85,7.745.091A.18.18,0,0,1,7.938,0a2.1,2.1,0,0,1-.021.718,3.292,3.292,0,0,0-.064.439,16.707,16.707,0,0,1-.441,3.2c-.111.5-.091,1.009-.183,1.511a11.971,11.971,0,0,1-.894,3.034c-.684,1.438-1.494,2.8-2.311,4.166-.764,1.276-1.686,2.44-2.523,3.664-.43.629-.867,1.253-1.3,1.88C-.1,18.575.016,18.385.061,18.219Z" transform="translate(10.891 38.406)" fill="#525252"/>
    <path id="Path_6833" data-name="Path 6833" d="M0,15.821a13.221,13.221,0,0,1,.071-1.9,13.564,13.564,0,0,0,.04-1.524c.019-.8.115-1.6.213-2.4.01-.084.016-.169.024-.253C.5,8.053.5,6.359.5,4.664.491,3.351.325,2.043.384.729.392.538.385.347.391.157.393.1.389.024.469,0s.109.029.136.09C.69.289.777.482.864.675c.4.887.809,1.772,1.2,2.662a6.849,6.849,0,0,1,.645,1.918,4.331,4.331,0,0,1,.057.5c.005.742.027,1.485-.009,2.225-.033.674-.134,1.345-.2,2.017-.043.42-.091.842-.13,1.261-.1,1.1-.262,2.182-.417,3.27a5.662,5.662,0,0,1-.94,2.4,1.371,1.371,0,0,1-.754.553.219.219,0,0,1-.312-.2C0,16.8,0,16.308,0,15.821Z" transform="translate(1.551 32.387)" fill="#525252"/>
    <path id="Path_6834" data-name="Path 6834" d="M16.783.233a4.114,4.114,0,0,1-.605,1.235,4.462,4.462,0,0,1-1.063,1.155,1.032,1.032,0,0,0-.23.218,8.944,8.944,0,0,1-2.673,1.9c-.587.295-1.182.576-1.763.884A14.58,14.58,0,0,1,7.935,6.687a16.825,16.825,0,0,1-1.745.574,7.885,7.885,0,0,1-1.752.222c-.4-.012-.806-.006-1.209,0a1.687,1.687,0,0,0-.5.045,2.253,2.253,0,0,1-1.6-.183,5.064,5.064,0,0,1-.722-.4.642.642,0,0,0-.294-.1c.018-.2-.24-.42-.024-.587.169-.13.347.086.526.124a7.2,7.2,0,0,0,.992.2,10.8,10.8,0,0,0,4.55-.648c.277-.1.556-.205.837-.3,1.366-.454,2.694-1,4.026-1.55a15.426,15.426,0,0,0,5.34-3.9A1.287,1.287,0,0,1,16.48.042c.113-.088.194-.023.257.074A.6.6,0,0,1,16.783.233Z" transform="translate(1.42 19.216)" fill="#525252"/>
    <path id="Path_6835" data-name="Path 6835" d="M.237,0C.254.143.217.3.376.4.3.524.23.654.148.776.13.8.074.8.01.824A1.169,1.169,0,0,1,.237,0Z" transform="translate(10.716 56.625)" fill="#404040"/>
  </g>
</svg>
