<svg xmlns="http://www.w3.org/2000/svg" width="45.112" height="86.604"><path d="M3.338 26.396a1.34 1.34 0 0 1 .1-.334c.168-.267.205-.487-.073-.722A4.032 4.032 0 0 1 2.1 22.489a9.112 9.112 0 0 1 .994-5.406 9.24 9.24 0 0 1 2.429-2.9c1.4-1.116 2.618-2.423 3.987-3.569a10.068 10.068 0 0 0 2.378-2.8 16.941 16.941 0 0 1 4.206-4.642c.803-.65 1.69-1.188 2.637-1.6a3.852 3.852 0 0 1 1.955-.415 2.99 2.99 0 0 0 1.6-.359q.535-.257 1.085-.482a4.347 4.347 0 0 1 3.135-.062 2.3 2.3 0 0 1 1.5 1.08.71.71 0 0 0 .658.408l.941.142a5.79 5.79 0 0 1 2.509 1.026l2.629 2.041a7.09 7.09 0 0 1 1.937 2.38 9.69 9.69 0 0 0 .58 1.036 28.11 28.11 0 0 1 3.513 8.774c.316 1.513.529 3.046.636 4.588a12.85 12.85 0 0 0 .983 3.779 18.25 18.25 0 0 1 .974 2.925l1.313 5.056a15.41 15.41 0 0 1-.016 7.3 46.458 46.458 0 0 1-2.8 8.319l-.6 1.293a21.03 21.03 0 0 0-1.98 8.5 28.07 28.07 0 0 1-.58 4.476q-.653 3.565-1.384 7.115a6.772 6.772 0 0 1-.628 2.146c-1.026.06-1.422.767-1.65 1.628-.3 1.15-.537 1.255-1.618.694a29.642 29.642 0 0 1-2.7-7.339 72.77 72.77 0 0 1-2.076-9.033 14.3 14.3 0 0 0-3.76-7.691 22.212 22.212 0 0 1-4.617-9.155 5.25 5.25 0 0 1-.1-1.658c.151-3.423-1.755-5.592-4.529-7.074a28.78 28.78 0 0 0-6.692-2.429c-.62-.341-1.094-.943-1.852-1.043a6.62 6.62 0 0 1-1.712-2.446c-.086-.283-.335-.057-.434-.214-.269-1.067-1.016-.516-1.613-.482z" fill="#040404"/><path d="M7.109 29.477c.364-.17.714-.24 1 .141.217.288.7.348.7.819-.279 1.136-1.335 1.581-2.083 2.284a18.777 18.777 0 0 0-3.468 3.72A7.2 7.2 0 0 0 2.248 41a61.21 61.21 0 0 0 3.051 13.777 7.49 7.49 0 0 0 1.784 2.9 16.85 16.85 0 0 1 4.938 10.285c.236 1.768.582 3.52 1.038 5.245.062.354.19.693.378 1 1.964 2.815 3.642 5.865 6.513 7.936a6.265 6.265 0 0 0 8.391-.608 20.1 20.1 0 0 0 4.639-6.113c.107-.237.2-.542.579-.477 1.095.237 1.149.216 1.183-.864a1.13 1.13 0 0 1 .506-.979c.332-.277.646-.576.939-.894.109-.1.251-.258.382-.129.092.089.075.291.1.442.008.038.01.078.015.117a2.61 2.61 0 0 1-.06.468 21.707 21.707 0 0 1-5.571 9.413c-.457.44-.886.908-1.339 1.353a7.66 7.66 0 0 1-4.464 2.292 7.99 7.99 0 0 0-1.048.211 9.8 9.8 0 0 1-4.363-.051 2.59 2.59 0 0 1-.791-.251 41.523 41.523 0 0 1-2.449-1.455 3.359 3.359 0 0 1-.72-.78l-3.952-5.057a14.34 14.34 0 0 1-1.4-2.066 20.317 20.317 0 0 0-1.883-2.884 18.54 18.54 0 0 1-2.938-5.4c-.414-1.2-.913-2.365-1.423-3.524a18.71 18.71 0 0 1-1.605-5.816 20.53 20.53 0 0 0-.59-3.03 50.584 50.584 0 0 1-1.616-10.2C.428 44.754.26 43.652.137 42.549a12.788 12.788 0 0 1 .242-5.189c.09-.386.122-.783.094-1.178a19.878 19.878 0 0 1 2.758-9.719c.017-.031.062-.048.094-.071.067-.037.17-.057.2-.114.268-.572.744-.41 1.184-.333.332.058.385.17.341.581-.012.115-.033.228-.05.343.206.571-.19.981-.409 1.421a23.96 23.96 0 0 0-1.742 4.528c1.074-.813 1.951-1.8 2.924-2.685a1.69 1.69 0 0 1 1.336-.656z"/><path d="M33.564 74.947a24.45 24.45 0 0 1-1.984 3.5 14.08 14.08 0 0 1-1.525 1.818l-2.036 2a6.62 6.62 0 0 1-1.23.928 3.454 3.454 0 0 1-2.139.58l-1.895-.117a7.34 7.34 0 0 1-3.876-1.927 9.4 9.4 0 0 1-2.041-2.143 41.2 41.2 0 0 0-2.828-3.814 6.6 6.6 0 0 1-1.347-2.876q-.477-2.2-.881-4.418l-.345-2.465a4.29 4.29 0 0 0-.2-.8 17.05 17.05 0 0 0-4.1-7 8.09 8.09 0 0 1-2.3-3.811l-1.8-6.395a29.358 29.358 0 0 1-.638-3.618l-.381-2.82a9.2 9.2 0 0 1 .008-2.721 7.7 7.7 0 0 1 2.086-4.058c1.306-1.386 2.786-2.584 4.2-3.849.175-.156.333-.33.5-.5.242-.132.527-.158.789-.074l2.141.705c.644.195 1.274.437 1.884.722l1.643.686a7.27 7.27 0 0 1 2.5 1.567 17.7 17.7 0 0 1 1.757 2.091c.647.865.991 1.92.978 3a2.06 2.06 0 0 1 0 .238 10.62 10.62 0 0 0 .784 4.64 21.104 21.104 0 0 0 3.118 5.847c.474.633 1.045 1.192 1.527 1.82a13.74 13.74 0 0 1 2.987 6.643 54.83 54.83 0 0 0 1.34 6.017l.251 1.159a16.58 16.58 0 0 0 1.2 4.088 6.46 6.46 0 0 1 .524 1.7c.123.703.363 1.381.708 2.006a5.07 5.07 0 0 1 .621 1.651z" fill="#636262"/><path d="M33.804 70.665a6.001 6.001 0 0 1-.6-1.916 24.53 24.53 0 0 0-.585-2.423l-1.959-8.2a20.254 20.254 0 0 0-3.286-8.082l-2.776-4.29a10.27 10.27 0 0 1-.771-1.6l-.716-2.014a7.39 7.39 0 0 1-.5-2.793 10.168 10.168 0 0 0-2.481-6.649 6.03 6.03 0 0 0-2.656-1.945l-5.883-2.234-2.239-.791a4.474 4.474 0 0 1-2.1-1.692c-.145-.22-.18-.442.063-.623a7.146 7.146 0 0 0 2.1-2.976l1.042-2.526q.435-1.041.894-2.072a12.75 12.75 0 0 1 2.462-3.612 30.14 30.14 0 0 1 4.095-3.6 50.476 50.476 0 0 1 4.356-2.882 18.912 18.912 0 0 0 4.515-3.459 1.962 1.962 0 0 1 2.436-.567 11.523 11.523 0 0 1 6.746 6.149l1.218 2.838a33.395 33.395 0 0 1 1.808 5.523c.092.385.136.781.129 1.177a22.06 22.06 0 0 0 2.277 8.79 12.72 12.72 0 0 1 1.168 4.815c.014 1.268.094 2.534.24 3.794a12.46 12.46 0 0 1-.57 5.628 37.74 37.74 0 0 1-2.449 6.175 19.648 19.648 0 0 0-2.11 6.027l-.83 5.16a17.42 17.42 0 0 1-.589 2.785l-1.8 7.505-.207.806c-.252.139-.314-.11-.442-.226z" fill="#fad19b"/><path d="M3.843 21.256a8.22 8.22 0 0 1 1.7-4.4 16.44 16.44 0 0 1 1.81-1.713q2.2-2 4.344-4.048a7.2 7.2 0 0 0 1.558-2.087A10.88 10.88 0 0 1 18.086 4.1a6.36 6.36 0 0 1 1.806-.876 10.3 10.3 0 0 0 2.622-.927 11.31 11.31 0 0 1 2.527-.61.4.4 0 0 1 .414.168.363.363 0 0 1-.021.44 1.554 1.554 0 0 1-.313.354c-1.652 1.35-3.148 2.9-5.124 3.827a8.77 8.77 0 0 0-1.952 1.346 23.25 23.25 0 0 1-2.273 1.719 23.7 23.7 0 0 0-4.715 4.5 6.39 6.39 0 0 0-.985 1.621l-1.793 4.4a20.18 20.18 0 0 1-1.456 3.247 1.54 1.54 0 0 1-.612.705 1.43 1.43 0 0 1-2.037-.8 4.85 4.85 0 0 1-.254-1.034c-.045-.287-.048-.565-.077-.924z" fill="#e09468"/><path d="M7.104 29.477c-.6.379-1.148.833-1.632 1.351-.915.972-2.021 1.739-2.869 2.753-.27-.076-.186-.249-.154-.379a23.437 23.437 0 0 1 1.923-5.062l.631-1.267c.142-.049.335-.178.425-.022.435.798.98 1.53 1.621 2.174.13.121.076.296.055.452z" fill="#515151"/><path d="m33.807 70.664.449.225a1.68 1.68 0 0 1 .014.223c-.007.113-.049.222-.181.214a.286.286 0 0 1-.174-.124.715.715 0 0 1-.108-.538z" fill="#cba97c"/><path d="M10.959 74.218a22.5 22.5 0 0 1-2.274-3.182 9.4 9.4 0 0 1-1.027-2.268c-.575-1.855-1.282-3.66-2.01-5.459a14.603 14.603 0 0 1-1.043-4.4 1.19 1.19 0 0 1 .344.15 13.79 13.79 0 0 1 2.112 2.56 23.102 23.102 0 0 1 1.806 3.607 11.39 11.39 0 0 1 .692 2.875 18.43 18.43 0 0 0 .48 2.32 37.22 37.22 0 0 1 .906 3.8z" fill="#515151"/><path d="M10.942 74.226a.78.78 0 0 1 .182.142c.059.085.021.159-.079.177-.017 0-.06-.056-.067-.091a2.072 2.072 0 0 1-.023-.236z" fill="#282828"/><path d="M35.713 17.791a10.96 10.96 0 0 1-.244 3.086c-.044.151-.044.316-.1.461a16.17 16.17 0 0 1-2.576 4.771l-1.083 1.4a4.754 4.754 0 0 0-.649 3.854 2.09 2.09 0 0 1 .078.46.556.556 0 0 1-.292.417.55.55 0 0 1-.508.004.826.826 0 0 1-.278-.216 4.38 4.38 0 0 1-1.017-2.474v-1.069a3.524 3.524 0 0 1 .592-2.019c.47-.726 1.019-1.4 1.55-2.088a9.49 9.49 0 0 0 2.39-6.27l-.007-1.781a6.15 6.15 0 0 0-1.213-3.763 8.48 8.48 0 0 0-3.289-2.829 4.514 4.514 0 0 0-1.936-.485 2.014 2.014 0 0 1-.471-.041c-.349-.07-.639-.3-.607-.478a.78.78 0 0 1 .528-.591 2.716 2.716 0 0 1 1.957-.2.85.85 0 0 0 .224.077 6.093 6.093 0 0 1 3.875 2.064 10.164 10.164 0 0 1 2.785 4.337 5 5 0 0 1 .3 1.858c-.032.434-.009.871-.009 1.515zm-15.469 9.261.006-1.782a4.21 4.21 0 0 0-.587-2.385q-.923-1.586-1.938-3.118a2.5 2.5 0 0 0-1.549-1.011 9.52 9.52 0 0 0-2.35-.219c-.275 0-.58.021-.683-.326a.694.694 0 0 1 .458-.856 5.38 5.38 0 0 1 1.94-.475l1.188-.011a3.554 3.554 0 0 1 2.611.93 6.16 6.16 0 0 1 1.5 1.665l1.482 2.562a7.786 7.786 0 0 1 .642 5.079 6.72 6.72 0 0 0 .6 4.259 2.1 2.1 0 0 0 1.1 1.043c.216.094.454.142.664.248.246.123.515.274.472.608a.77.77 0 0 1-.519.6 2.71 2.71 0 0 1-1.749.084 3.684 3.684 0 0 1-2.89-2.676 7.8 7.8 0 0 1-.408-2.556l.005-1.663zm19.967 13.116a6.31 6.31 0 0 1-2.062 5.337 4.73 4.73 0 0 0-.845.989 2.33 2.33 0 0 1-1.051.932.71.71 0 0 1-.781 0 .93.93 0 0 1-.455-.9c.03-.155.075-.307.135-.453a9.8 9.8 0 0 1 1.265-2.658 5.78 5.78 0 0 0 1.066-1.967 3.26 3.26 0 0 0 .042-1.635 11.93 11.93 0 0 0-1.74-4.25 2 2 0 0 1-.282-.648.674.674 0 0 1 .861-.783c.45.155.867.391 1.233.695a8.936 8.936 0 0 1 2.374 3.5 2.93 2.93 0 0 1 .23.794c.022.349.025.698.01 1.047z" fill="#ffc475"/><path d="M31.703 16.15a4.923 4.923 0 0 1-2.521 4.365 2.49 2.49 0 0 1-2.993-.216 6.01 6.01 0 0 1-1.672-1.826 4.02 4.02 0 0 1 1.05-5.109l.095-.072a7.53 7.53 0 0 1 3.907-.561 2.373 2.373 0 0 1 1.317.95 3.91 3.91 0 0 1 .817 2.469z" fill="#b35346"/><path d="M29.373 35.476h1.055a3.61 3.61 0 0 1 2.941 1.93c.871 1.526.928 2.643-.36 4.374a3.64 3.64 0 0 1-3.167 1.556c-.355-.012-.711 0-1.066-.008a2.66 2.66 0 0 1-2.461-1.74 8.33 8.33 0 0 1-.507-1.576 4.12 4.12 0 0 1 1.651-4.16 2.073 2.073 0 0 1 1.552-.426l.362.05zm8.035 15.883a2.89 2.89 0 0 1-.758 2.01 9.68 9.68 0 0 1-1.981 1.686 1.42 1.42 0 0 1-1.354.185 4.646 4.646 0 0 1-2.949-2.73 2.84 2.84 0 0 1 .6-2.886 6.2 6.2 0 0 1 2.51-1.742 1.71 1.71 0 0 1 1.171-.032 3.71 3.71 0 0 1 2.761 3.509z" fill="#b05144"/><path d="M14.201 20.219a4.05 4.05 0 0 1 2.737.785 3.02 3.02 0 0 1-1.75 5.434 3.82 3.82 0 0 1-2.743-.9 2.617 2.617 0 0 1-.87-3.18c.126-.332.285-.65.476-.95a1.916 1.916 0 0 1 2.15-1.189z" fill="#af5143"/><path d="M37.056 28.269h1.07a3.04 3.04 0 0 1 1.774.6c.443.275.752.721.853 1.233.14.577.214 1.169.222 1.763a1.9 1.9 0 0 1-.973 1.665 3.14 3.14 0 0 1-1.342.448 3.762 3.762 0 0 1-3.627-2.021 2.22 2.22 0 0 1 .254-2.653c.2-.226.343-.4.129-.708-.112-.16.042-.315.211-.322l1.425-.007z" fill="#b05144"/><path d="M34.983 62.344a1.436 1.436 0 0 1-.036.244.57.57 0 0 1-.849.341 1.827 1.827 0 0 1-.515-.48 15.14 15.14 0 0 1-1.183-2.032 5.39 5.39 0 0 1-.241-2.441.61.61 0 0 1 .483-.593.68.68 0 0 1 .624.256c.061.05.113.111.152.179a28.385 28.385 0 0 1 1.562 4.186c.011.113.012.227.003.34z" fill="#ffc476"/><path d="M25.468 15.993v-.356a.785.785 0 0 1 .668-.847 5.08 5.08 0 0 1 3.118.214 1.76 1.76 0 0 1 .405.238 1.24 1.24 0 0 1 .519 1.455 3.98 3.98 0 0 1-1.552 2.433 1.57 1.57 0 0 1-2.35-.456 4.52 4.52 0 0 1-.808-2.681zm3.695 20.89a4.41 4.41 0 0 1 1.429.194 2.11 2.11 0 0 1 1.179 3.615 9.12 9.12 0 0 1-.674.666 2.416 2.416 0 0 1-3.314-.228 2.96 2.96 0 0 1-.9-2.358 2.4 2.4 0 0 1 .662-1.472 1.15 1.15 0 0 1 .936-.419c.2.012.398.002.682.002z" fill="#e07668"/><path d="M35.742 51.416a1.75 1.75 0 0 1-.133.566 4.483 4.483 0 0 1-1.794 1.492.76.76 0 0 1-.464.012 2.6 2.6 0 0 1-1.818-1.978 2.72 2.72 0 0 1 .243-1.132c.1-.256.423-.326.687-.414a3.49 3.49 0 0 0 .656-.263 1.4 1.4 0 0 1 1.738.258c.446.379.954.747.885 1.459z" fill="#df7668"/><path d="M13.083 23.17c.003-.158.016-.316.037-.473a1.139 1.139 0 0 1 1.533-1.033 3.2 3.2 0 0 1 1.644.9 1.134 1.134 0 0 1-.138 1.755 1.514 1.514 0 0 1-1.34.31c-.473-.173-1.019-.154-1.381-.611a1.226 1.226 0 0 1-.355-.848z" fill="#df7567"/><path d="M39.522 31.141v.591a1.026 1.026 0 0 1-1.123 1.086 2.58 2.58 0 0 1-2.229-1.109 1.53 1.53 0 0 1 .74-2.327.68.68 0 0 1 .344-.043l1.828.454a.58.58 0 0 1 .418.523c.03.273.032.55.046.825z" fill="#e07668"/></svg>