<svg xmlns="http://www.w3.org/2000/svg" xmlns:xlink="http://www.w3.org/1999/xlink" width="170.576" height="77.092"><defs><filter id="a" x="12.039" y="22.689" width="156.362" height="38.485" filterUnits="userSpaceOnUse"><feOffset dx="6" dy="3"/><feGaussianBlur stdDeviation="3" result="A"/><feFlood flood-color="#fff" flood-opacity=".2"/><feComposite operator="in" in2="A"/><feComposite in="SourceGraphic"/></filter><filter id="c" x="12.039" y="22.689" width="156.362" height="38.485" filterUnits="userSpaceOnUse"><feOffset dx="4" dy="4"/><feGaussianBlur result="A"/><feFlood flood-color="#fff" result="B"/><feComposite operator="out" in="SourceGraphic" in2="A"/><feComposite operator="in" in="B"/><feComposite operator="in" in2="SourceGraphic"/></filter><path id="b" d="M-56.2-7.525a7.568 7.568 0 0 1-.637 3.211 6.4 6.4 0 0 1-1.743 2.286 7.473 7.473 0 0 1-2.586 1.367 10.774 10.774 0 0 1-3.184.456 6.683 6.683 0 0 1-1.441-.175q-.784-.174-1.589-.436t-1.548-.563q-.744-.3-1.321-.57l.59-5.524a9.423 9.423 0 0 0 2.527 1.039 10.971 10.971 0 0 0 2.728.355q.255 0 .617-.02a2.9 2.9 0 0 0 .69-.121 1.485 1.485 0 0 0 .556-.3.728.728 0 0 0 .228-.576.633.633 0 0 0-.161-.436 1.2 1.2 0 0 0-.416-.295A2.569 2.569 0 0 0-63.465-8q-.322-.06-.63-.087t-.576-.027h-.429a5.306 5.306 0 0 1-2.1-.4 4.77 4.77 0 0 1-1.622-1.119 5.087 5.087 0 0 1-1.052-1.7 5.958 5.958 0 0 1-.375-2.138 6.172 6.172 0 0 1 .637-2.836 6.606 6.606 0 0 1 1.7-2.132 7.709 7.709 0 0 1 2.447-1.347 8.816 8.816 0 0 1 2.856-.469q.657 0 1.354.047a13.207 13.207 0 0 1 1.388.168 13.126 13.126 0 0 1 1.347.308 7.975 7.975 0 0 1 1.247.469l-.509 5.443a16.357 16.357 0 0 0-1.91-.516 9.564 9.564 0 0 0-1.951-.208q-.174 0-.449.007t-.576.04a5.98 5.98 0 0 0-.61.1 2.559 2.559 0 0 0-.55.181 1.059 1.059 0 0 0-.389.3.638.638 0 0 0-.134.442.642.642 0 0 0 .221.476 1.452 1.452 0 0 0 .536.282 3.78 3.78 0 0 0 .724.141q.4.04.784.047t.724 0a3.949 3.949 0 0 1 .55.02 5.467 5.467 0 0 1 1.931.456 4.474 4.474 0 0 1 1.455 1.032 4.367 4.367 0 0 1 .912 1.535 5.86 5.86 0 0 1 .314 1.96Zm17.84-7.776q0 .992-.094 2.185t-.308 2.467q-.215 1.274-.556 2.581a18.464 18.464 0 0 1-.851 2.514A14.82 14.82 0 0 1-41.355-3.3a8.9 8.9 0 0 1-1.555 1.837 6.869 6.869 0 0 1-1.965 1.238 6.257 6.257 0 0 1-2.413.449 6.684 6.684 0 0 1-2.7-.5 6.068 6.068 0 0 1-1.964-1.354 7.181 7.181 0 0 1-1.341-1.984 12.441 12.441 0 0 1-.818-2.4 18.357 18.357 0 0 1-.41-2.586q-.114-1.321-.114-2.541a37.5 37.5 0 0 1 .188-3.747q.188-1.87.536-3.734l6.274.241q-.362 2.1-.623 4.23a34.937 34.937 0 0 0-.261 4.27q0 .228.02.677t.074 1.005q.054.556.154 1.14A6.281 6.281 0 0 0-48-6a2.739 2.739 0 0 0 .422.791.732.732 0 0 0 .583.308.9.9 0 0 0 .7-.369 3.435 3.435 0 0 0 .543-.985 9.934 9.934 0 0 0 .409-1.421q.174-.8.295-1.676t.194-1.743q.074-.871.121-1.622t.06-1.327q.013-.576.013-.858 0-1.046-.034-2.085t-.1-2.071h6.274q.161 1.853.161 3.758Zm17.64 10.135a4.185 4.185 0 0 1-.409 1.917 4.239 4.239 0 0 1-1.093 1.367 5.883 5.883 0 0 1-1.578.919 11.147 11.147 0 0 1-1.857.556 14.319 14.319 0 0 1-1.937.268q-.972.067-1.817.067t-1.723-.06q-.892-.06-1.776-.208a15.37 15.37 0 0 1-1.743-.4 9.917 9.917 0 0 1-1.622-.623l-.025-17.263a16.25 16.25 0 0 1 1.6-.556q.845-.248 1.723-.416t1.75-.255q.871-.087 1.689-.087a15.605 15.605 0 0 1 1.924.121 10.61 10.61 0 0 1 1.87.4 8.3 8.3 0 0 1 1.676.731 5.452 5.452 0 0 1 1.361 1.106 4.858 4.858 0 0 1 .912 1.528 5.682 5.682 0 0 1 .328 2.011 4.508 4.508 0 0 1-.215 1.408 3.907 3.907 0 0 1-.617 1.18 3.817 3.817 0 0 1-.979.892 4.231 4.231 0 0 1-1.3.543 5.8 5.8 0 0 1 1.589.67 4.7 4.7 0 0 1 1.22 1.073 4.768 4.768 0 0 1 .778 1.421 5.111 5.111 0 0 1 .271 1.69Zm-6.811-7.642a1.292 1.292 0 0 0-.161-.664 1.485 1.485 0 0 0-.4-.449 1.6 1.6 0 0 0-.509-.255 1.766 1.766 0 0 0-.489-.08 1.726 1.726 0 0 0-.523.08 4.72 4.72 0 0 0-.5.188l-.08 2.976a6.736 6.736 0 0 0 .764-.054 3.153 3.153 0 0 0 .878-.235 1.885 1.885 0 0 0 .717-.536 1.476 1.476 0 0 0 .303-.971Zm-1.9 4.371a3.451 3.451 0 0 0-.751.08l-.057 3.057q.2.04.4.074a2.246 2.246 0 0 0 .382.034 3.5 3.5 0 0 0 .617-.06 1.807 1.807 0 0 0 .63-.241 1.506 1.506 0 0 0 .489-.489 1.517 1.517 0 0 0 .194-.818 1.589 1.589 0 0 0-.194-.831 1.516 1.516 0 0 0-.476-.5 1.679 1.679 0 0 0-.617-.241 3.5 3.5 0 0 0-.62-.065Zm23.953.912a7.568 7.568 0 0 1-.637 3.211 6.4 6.4 0 0 1-1.746 2.285 7.473 7.473 0 0 1-2.587 1.368 10.774 10.774 0 0 1-3.184.456 6.683 6.683 0 0 1-1.442-.175q-.784-.174-1.589-.436t-1.548-.563q-.744-.3-1.321-.57l.59-5.524a9.423 9.423 0 0 0 2.527 1.039 10.971 10.971 0 0 0 2.728.355q.255 0 .617-.02a2.9 2.9 0 0 0 .69-.121 1.485 1.485 0 0 0 .556-.3.728.728 0 0 0 .228-.576.633.633 0 0 0-.161-.436 1.2 1.2 0 0 0-.416-.295A2.569 2.569 0 0 0-12.747-8q-.322-.06-.63-.087t-.576-.027h-.429a5.306 5.306 0 0 1-2.1-.4A4.77 4.77 0 0 1-18.1-9.637a5.087 5.087 0 0 1-1.052-1.7 5.958 5.958 0 0 1-.375-2.138 6.172 6.172 0 0 1 .637-2.836 6.606 6.606 0 0 1 1.7-2.132 7.709 7.709 0 0 1 2.447-1.347 8.816 8.816 0 0 1 2.856-.469q.657 0 1.354.047a13.207 13.207 0 0 1 1.388.168 13.127 13.127 0 0 1 1.347.308 7.975 7.975 0 0 1 1.247.469l-.509 5.443a16.357 16.357 0 0 0-1.91-.516 9.564 9.564 0 0 0-1.951-.208q-.174 0-.449.007t-.576.04a5.98 5.98 0 0 0-.61.1 2.559 2.559 0 0 0-.55.181 1.059 1.059 0 0 0-.389.3.638.638 0 0 0-.134.442.642.642 0 0 0 .221.476 1.452 1.452 0 0 0 .536.282 3.78 3.78 0 0 0 .724.141q.4.04.784.047t.724 0a3.949 3.949 0 0 1 .55.02 5.467 5.467 0 0 1 1.931.456 4.474 4.474 0 0 1 1.455 1.032A4.367 4.367 0 0 1-5.8-9.489a5.86 5.86 0 0 1 .319 1.964ZM9.611-19.243l-.751 5.658a4.763 4.763 0 0 0-.778-.147 7.552 7.552 0 0 0-.778-.04 6.731 6.731 0 0 0-1.89.261 4.7 4.7 0 0 0-1.589.8 3.925 3.925 0 0 0-1.1 1.341 4.121 4.121 0 0 0-.409 1.89 3.014 3.014 0 0 0 .221 1.207 2.242 2.242 0 0 0 .623.845 2.613 2.613 0 0 0 .952.5 4.283 4.283 0 0 0 1.207.161 5.263 5.263 0 0 0 1.032-.107 8.81 8.81 0 0 0 1.059-.282 10.052 10.052 0 0 0 1.019-.4q.5-.228.912-.469l-.536 6.3a8.454 8.454 0 0 1-1.133.476Q7.063-1.05 6.42-.9a11.806 11.806 0 0 1-1.287.235A9.953 9.953 0 0 1 3.9-.581a8 8 0 0 1-3.177-.63A7.947 7.947 0 0 1-1.839-2.94a8.066 8.066 0 0 1-1.709-2.595 8.292 8.292 0 0 1-.623-3.224 13.966 13.966 0 0 1 .657-4.324 10.581 10.581 0 0 1 1.931-3.559 9.064 9.064 0 0 1 3.157-2.413 10.092 10.092 0 0 1 4.336-.885 12.64 12.64 0 0 1 1.9.147 6.275 6.275 0 0 1 1.801.55Zm17.518 5.926a9.147 9.147 0 0 1-.181 1.9 5.705 5.705 0 0 1-.57 1.562 5.589 5.589 0 0 1-1.005 1.314 8.938 8.938 0 0 1-1.488 1.153l3.191 5.684-6.034 1.177-2.065-5.711-1.662.054-.241 5.576h-5.765q.067-3.057.127-6.087t.141-6.087l.054-3.057q.027-1.515.107-3.057a17.522 17.522 0 0 1 1.85-.576 17.391 17.391 0 0 1 1.83-.355q.918-.127 1.864-.174t1.937-.047a10.368 10.368 0 0 1 2.956.422 7.678 7.678 0 0 1 2.525 1.268 6.348 6.348 0 0 1 1.763 2.1 6.212 6.212 0 0 1 .666 2.941Zm-6.006.429a3.292 3.292 0 0 0-.154-1.032 2.29 2.29 0 0 0-.456-.811 2.094 2.094 0 0 0-.751-.536 2.633 2.633 0 0 0-1.052-.194 4 4 0 0 0-.523.034 3.612 3.612 0 0 0-.5.1l-.215 4.987h.328a4.877 4.877 0 0 0 1.173-.147 3.5 3.5 0 0 0 1.073-.456 2.527 2.527 0 0 0 .778-.791 2.131 2.131 0 0 0 .299-1.154Zm15.131-6.382L34.78-1.01l-5.658.295v-18.179Zm17.491 14.1a4.185 4.185 0 0 1-.409 1.917 4.239 4.239 0 0 1-1.093 1.367 5.883 5.883 0 0 1-1.575.918 11.147 11.147 0 0 1-1.857.556 14.318 14.318 0 0 1-1.937.268q-.972.067-1.817.067t-1.723-.06q-.892-.06-1.776-.208a15.37 15.37 0 0 1-1.743-.4 9.917 9.917 0 0 1-1.622-.623l-.027-17.268a16.25 16.25 0 0 1 1.6-.556q.845-.248 1.723-.416t1.75-.255q.871-.087 1.689-.087a15.605 15.605 0 0 1 1.924.121 10.61 10.61 0 0 1 1.87.4 8.3 8.3 0 0 1 1.676.731 5.452 5.452 0 0 1 1.361 1.106 4.858 4.858 0 0 1 .912 1.528 5.682 5.682 0 0 1 .328 2.011 4.508 4.508 0 0 1-.215 1.408 3.907 3.907 0 0 1-.617 1.18 3.817 3.817 0 0 1-.979.892 4.231 4.231 0 0 1-1.3.543 5.8 5.8 0 0 1 1.589.67 4.7 4.7 0 0 1 1.22 1.073 4.768 4.768 0 0 1 .778 1.421 5.111 5.111 0 0 1 .271 1.7Zm-6.811-7.642a1.292 1.292 0 0 0-.161-.664 1.485 1.485 0 0 0-.4-.449 1.6 1.6 0 0 0-.509-.255 1.766 1.766 0 0 0-.489-.08 1.726 1.726 0 0 0-.523.08 4.72 4.72 0 0 0-.5.188l-.08 2.976a6.736 6.736 0 0 0 .764-.054 3.153 3.153 0 0 0 .878-.235 1.885 1.885 0 0 0 .717-.536 1.476 1.476 0 0 0 .304-.967Zm-1.9 4.371a3.451 3.451 0 0 0-.751.08L44.227-5.3q.2.04.4.074a2.246 2.246 0 0 0 .373.033 3.5 3.5 0 0 0 .617-.06 1.807 1.807 0 0 0 .63-.241 1.506 1.506 0 0 0 .489-.489 1.517 1.517 0 0 0 .194-.818 1.589 1.589 0 0 0-.194-.831 1.516 1.516 0 0 0-.476-.5 1.679 1.679 0 0 0-.617-.241 3.5 3.5 0 0 0-.612-.064Zm23.079-11.284q-.08 1.26-.147 2.494t-.174 2.494l-5.684.295-.134 1.689h4L65.673-8.6l-4.022.134-.134 1.957H67.2q-.08 1.475-.168 2.929T66.88-.661l-11.557.268.429-19.332Z"/></defs><path d="M129.359 69.349a70.436 70.436 0 0 1-12.407-.672 80.214 80.214 0 0 0-10.741-.125c-.609.01-1.22.119-1.827.1-3.919-.132-7.736.647-11.576 1.247-5.729.894-11.282 2.588-16.964 3.688-6.584 1.274-13.188 2.4-19.868 3.09-4.558.422-9.139.532-13.712.329a39.35 39.35 0 0 1-18.154-4.859A65.399 65.399 0 0 1 9.995 62.095a31.52 31.52 0 0 1-8.709-15.028A36 36 0 0 1 .039 36.215a73.49 73.49 0 0 1 .49-7.981 30.165 30.165 0 0 1 16.7-23.151 45.96 45.96 0 0 1 11.157-4A56.6 56.6 0 0 1 42.037.032 75.241 75.241 0 0 1 58.71 2.685l27.367 6.413a126.837 126.837 0 0 0 14.9 2.332 49.63 49.63 0 0 0 11.854-.506c4.373-.69 8.675-1.69 12.965-2.734a53.165 53.165 0 0 1 15.906-1.091 26.47 26.47 0 0 1 10.055 2.864 33.21 33.21 0 0 1 9.491 7.07 55.69 55.69 0 0 1 6.189 7.921 15.442 15.442 0 0 1 1.786 3.937 28.756 28.756 0 0 1 1.157 11.983c-.951 7.863-4.014 14.7-10.824 19.312a76.311 76.311 0 0 1-8.815 5.709 30.282 30.282 0 0 1-7.578 2.436 70.74 70.74 0 0 1-13.804 1.018z" fill="#ce7230"/><path d="M127.489 65.124c-1.831 0-3.668.093-5.492-.022l-7.721-.722a7.334 7.334 0 0 0-2.05-.043 32.2 32.2 0 0 1-7.072.306c-4.686-.1-9.233.807-13.809 1.582-5.633.954-11.116 2.555-16.691 3.749-2.9.621-5.83 1.083-8.752 1.584l-7.429 1.181a56.232 56.232 0 0 1-6.129.6c-3.736.093-7.48.13-11.213-.014a31.64 31.64 0 0 1-12.341-3.012 61.15 61.15 0 0 1-12.926-8.148c-4.608-3.8-8.251-8.339-9.944-14.2a36.17 36.17 0 0 1-1.7-11.458 53.2 53.2 0 0 1 .952-9.976 26.196 26.196 0 0 1 9.107-14.923c4.361-3.551 9.456-5.482 14.82-6.814A32.84 32.84 0 0 1 36.78 3.8c.61 0 1.221 0 1.831-.027a61.96 61.96 0 0 1 17.394 2.125l18.177 4.478c6 1.385 12.022 2.7 18.073 3.84a50.15 50.15 0 0 0 9.512 1.116c1.439-.007 2.861.491 4.319.318 3.095-.368 6.219-.418 9.3-1l11.856-2.355a32.601 32.601 0 0 1 8.411-.564c1.67.149 3.339.257 5.011.352.456.031.908.098 1.353.2a57.004 57.004 0 0 1 6.377 1.776 17.94 17.94 0 0 1 5.969 3.29 38.71 38.71 0 0 1 4.652 4.717 16.35 16.35 0 0 1 3.153 6.031c.875 3.07 1.773 6.13 2.47 9.255a14.67 14.67 0 0 1-.456 6.973 25.52 25.52 0 0 1-4.953 9.435 20.72 20.72 0 0 1-5.541 4.673c-5.591 3.514-11.827 5.11-18.211 6.352-2.667.51-5.333.225-7.988.339z" fill="#ffc825"/><path d="M35.169 6.539a67.96 67.96 0 0 1 14.516 1.666l11.109 2.454c.887.2 1.753.5 2.628.752l7.452 2.117 8.916 1.77c1.577.184 3.13.569 4.7.787.826.114 1.677.025 2.511.095a7.16 7.16 0 0 1 4.059 1.276c.243.193.519.378.434.724a.92.92 0 0 1-.831.669 1.39 1.39 0 0 1-.679 0 12.9 12.9 0 0 0-4.529-.381 15.04 15.04 0 0 1-4.753-.432c-2.773.2-5.406-.737-8.113-1.075a86.3 86.3 0 0 1-11.115-2.386 79.13 79.13 0 0 0-8.486-1.618l-6.042-1.084a28.063 28.063 0 0 0-6.318-.744 7.68 7.68 0 0 1-2.039-.187 11.293 11.293 0 0 0-5.2.023c-1.03.259-2.073.464-3.125.614-1.812.241-3.563.82-5.162 1.707a14.26 14.26 0 0 1-4.643 1.849c-.832.13-1.72.389-2.272-.506a2.03 2.03 0 0 1 .405-2.332 7.03 7.03 0 0 1 1.558-1.657 19.32 19.32 0 0 1 7.362-3.5 2.37 2.37 0 0 1 .45-.075c2.594-.038 5.128-.841 7.207-.526zm27.216 62.253c-2.232.783-4.6.871-6.892 1.36l-3.343.643a8.174 8.174 0 0 1-2.474.3c-1.6-.033-3.126.564-4.747.474-1.821-.1-3.652-.041-5.479-.015a26.34 26.34 0 0 1-10.165-2.158 7.72 7.72 0 0 1-3.022-1.98c-.653-.74-.464-1.413.47-1.769a9.85 9.85 0 0 1 5.83-.28l6.134 1.7a24.6 24.6 0 0 0 7.818 1.284c3 .755 6.05.378 9.08.426a13.65 13.65 0 0 0 4.3-.36 8.21 8.21 0 0 1 2.044-.1c.471-.15.566.058.446.475zm34.727-6.896c.166-.19.207-.28.253-.282l7.468-.611h19.224a8.99 8.99 0 0 0 3.392-.337 1.52 1.52 0 0 1 .679-.068c2.3.219 4.523-.523 6.813-.536a16.53 16.53 0 0 0 3.353-.6l4.657-1.069a11.66 11.66 0 0 1 2.5-.085 1.124 1.124 0 0 1 1.121.953c.085.469-.155.936-.586 1.14a11.75 11.75 0 0 1-2.282 1.021 36.126 36.126 0 0 1-5.766 1.3 50.36 50.36 0 0 1-5.89.6l-9.612-.021a21.113 21.113 0 0 1-4.311-.321 22.12 22.12 0 0 0-4.1-.129 9.72 9.72 0 0 1-2.942-.3 6.61 6.61 0 0 0-1.812-.149 31.99 31.99 0 0 1-4.539-.349 30.337 30.337 0 0 0-4.794-.107l-2.826-.05zm53.915-42.985a3.36 3.36 0 0 1 1.552.274 17.236 17.236 0 0 1 4.962 3.965 3.92 3.92 0 0 1 1.026 3.153 1.4 1.4 0 0 1-2.185 1.078 3.954 3.954 0 0 1-.7-.584l-4.994-5.025a3.91 3.91 0 0 1-.763-1.112c-.531-1.186-.172-1.725 1.102-1.749zm-135.124-.148a3.07 3.07 0 0 1-.965 2.009l-1.3.9a1.23 1.23 0 0 1-1.451.264 1.65 1.65 0 0 1-1.024-1.625 4.4 4.4 0 0 1 1.815-3.229 1.635 1.635 0 0 1 1.9.051c.591.34.975.95 1.025 1.63zm80.696 1.993a6.506 6.506 0 0 1-.911-.128 1.42 1.42 0 0 1-1.233-1.414 1.455 1.455 0 0 1 1.167-1.683 2.07 2.07 0 0 1 2.291.494c.554.434.778 1.169.559 1.839-.187.615-.706.888-1.873.892z" fill="#ffe494"/><path d="m88.791 63.114-2.687.636-6.371.989a3.525 3.525 0 0 1 2.027-.895c.708-.227 1.487-.071 2.235-.3.709-.218 1.5-.151 2.228-.326a3.517 3.517 0 0 1 2.568-.104z" fill="#ffc77b"/><path d="m62.385 68.789-.448-.468c.113-.1.215-.257.339-.276l7.451-1.074a4.9 4.9 0 0 1-2.481.925l-4.861.893z" fill="#ffc87c"/><path d="M14.167 27.602a1.03 1.03 0 0 1-1.066.935.91.91 0 0 1-1.058-.895.857.857 0 0 1 .79-.919c.724-.08 1.307.303 1.334.879z" fill="#ffe494"/><g fill="#ffc77b"><path d="M71.103 66.513c.826-.811 1.776-.367 2.691-.276a6.92 6.92 0 0 1-2.692.274zM69.728 66.972c.327-.545.87-.443 1.375-.458-.327.545-.87.444-1.374.458z"/></g><g filter="url(#a)"><use xlink:href="#b" transform="translate(85.29 48.95)" fill="#fff"/></g><g filter="url(#c)"><use xlink:href="#b" transform="translate(85.29 48.95)" fill="#fff"/></g></svg>