<svg id="Group_10316" data-name="Group 10316" xmlns="http://www.w3.org/2000/svg" xmlns:xlink="http://www.w3.org/1999/xlink" width="170.576" height="77.092" viewBox="0 0 170.576 77.092">
  <defs>
    <filter id="Path_41319" x="12.039" y="22.689" width="156.362" height="38.485" filterUnits="userSpaceOnUse">
      <feOffset dx="6" dy="3" input="SourceAlpha"/>
      <feGaussianBlur stdDeviation="3" result="blur"/>
      <feFlood flood-color="#fff" flood-opacity="0.2"/>
      <feComposite operator="in" in2="blur"/>
      <feComposite in="SourceGraphic"/>
    </filter>
    <filter id="Path_41319-2" x="12.039" y="22.689" width="156.362" height="38.485" filterUnits="userSpaceOnUse">
      <feOffset dx="4" dy="4" input="SourceAlpha"/>
      <feGaussianBlur result="blur-2"/>
      <feFlood flood-color="#fff" result="color"/>
      <feComposite operator="out" in="SourceGraphic" in2="blur-2"/>
      <feComposite operator="in" in="color"/>
      <feComposite operator="in" in2="SourceGraphic"/>
    </filter>
  </defs>
  <g id="Untitled_Artwork_29_" data-name="Untitled_Artwork (29)" transform="translate(0 0)">
    <path id="Path_26739" data-name="Path 26739" d="M314.857,730.7a70.443,70.443,0,0,1-12.407-.672,80.194,80.194,0,0,0-10.741-.125c-.609.01-1.22.119-1.827.1-3.919-.132-7.736.647-11.576,1.247-5.729.894-11.282,2.588-16.964,3.688-6.584,1.274-13.188,2.4-19.868,3.09a100.383,100.383,0,0,1-13.712.329,39.352,39.352,0,0,1-18.154-4.859,65.413,65.413,0,0,1-14.115-10.052,31.518,31.518,0,0,1-8.709-15.028,35.985,35.985,0,0,1-1.247-10.852,73.491,73.491,0,0,1,.49-7.981,30.164,30.164,0,0,1,16.7-23.151,45.961,45.961,0,0,1,11.157-4,56.6,56.6,0,0,1,13.651-1.051,75.293,75.293,0,0,1,16.673,2.653c9.092,2.268,18.182,4.542,27.367,6.413a126.726,126.726,0,0,0,14.9,2.332,49.632,49.632,0,0,0,11.854-.506c4.373-.69,8.675-1.69,12.965-2.734A53.155,53.155,0,0,1,327.2,668.45a26.469,26.469,0,0,1,10.055,2.864,33.215,33.215,0,0,1,9.491,7.07,55.689,55.689,0,0,1,6.189,7.921,15.447,15.447,0,0,1,1.786,3.937,28.764,28.764,0,0,1,1.157,11.983c-.951,7.863-4.014,14.7-10.824,19.312a76.337,76.337,0,0,1-8.815,5.709,30.283,30.283,0,0,1-7.578,2.436A70.741,70.741,0,0,1,314.857,730.7Z" transform="translate(-185.498 -661.351)" fill="#ce7230"/>
    <path id="Path_26740" data-name="Path 26740" d="M345.5,755.414c-1.831,0-3.668.093-5.492-.022-2.578-.163-5.146-.488-7.721-.722a7.334,7.334,0,0,0-2.05-.043,32.2,32.2,0,0,1-7.072.306c-4.686-.1-9.233.807-13.809,1.582-5.633.954-11.116,2.555-16.691,3.749-2.9.621-5.83,1.083-8.752,1.584-2.471.423-4.945.844-7.429,1.181a56.213,56.213,0,0,1-6.129.6c-3.736.093-7.48.13-11.213-.014a31.64,31.64,0,0,1-12.341-3.012,61.15,61.15,0,0,1-12.926-8.148c-4.608-3.8-8.251-8.339-9.944-14.2a36.171,36.171,0,0,1-1.7-11.458,53.2,53.2,0,0,1,.952-9.976,26.194,26.194,0,0,1,9.107-14.923c4.361-3.551,9.456-5.482,14.82-6.814a32.841,32.841,0,0,1,7.681-.994c.61,0,1.221,0,1.831-.027a61.958,61.958,0,0,1,17.394,2.125c6.061,1.486,12.1,3.074,18.177,4.478,6,1.385,12.022,2.7,18.073,3.84a50.148,50.148,0,0,0,9.512,1.116c1.439-.007,2.861.491,4.319.318,3.095-.368,6.219-.418,9.3-1,3.96-.752,7.891-1.668,11.856-2.355a32.584,32.584,0,0,1,8.411-.564c1.67.149,3.339.257,5.011.352a8.806,8.806,0,0,1,1.353.2,56.943,56.943,0,0,1,6.377,1.776,17.94,17.94,0,0,1,5.969,3.29,38.709,38.709,0,0,1,4.652,4.717,16.351,16.351,0,0,1,3.153,6.031c.875,3.07,1.773,6.13,2.47,9.255a14.67,14.67,0,0,1-.456,6.973,25.522,25.522,0,0,1-4.953,9.435,20.718,20.718,0,0,1-5.541,4.673c-5.591,3.514-11.827,5.11-18.211,6.352C350.821,755.585,348.155,755.3,345.5,755.414Z" transform="translate(-218.011 -690.29)" fill="#ffc825"/>
    <path id="Path_26741" data-name="Path 26741" d="M359.833,717.984a67.96,67.96,0,0,1,14.516,1.666c3.709.792,7.41,1.618,11.109,2.454.887.2,1.753.5,2.628.752,2.481.718,4.932,1.583,7.452,2.117,2.961.627,5.894,1.417,8.916,1.77,1.577.184,3.13.569,4.7.787.826.114,1.677.025,2.511.095a7.158,7.158,0,0,1,4.059,1.276c.243.193.519.378.434.724a.923.923,0,0,1-.831.669,1.388,1.388,0,0,1-.679,0,12.9,12.9,0,0,0-4.529-.381,15.017,15.017,0,0,1-4.753-.432c-2.773.2-5.406-.737-8.113-1.075a86.3,86.3,0,0,1-11.115-2.386,79.13,79.13,0,0,0-8.486-1.618c-2.023-.3-4.028-.721-6.042-1.084a28.075,28.075,0,0,0-6.318-.744,7.657,7.657,0,0,1-2.039-.187,11.285,11.285,0,0,0-5.2.023,30.577,30.577,0,0,1-3.125.614,14.625,14.625,0,0,0-5.162,1.707,14.261,14.261,0,0,1-4.643,1.849c-.832.13-1.72.389-2.272-.506a2.028,2.028,0,0,1,.405-2.332,7.057,7.057,0,0,1,1.558-1.657,19.322,19.322,0,0,1,7.362-3.5,2.37,2.37,0,0,1,.45-.075C355.22,718.472,357.754,717.669,359.833,717.984Z" transform="translate(-324.664 -711.445)" fill="#ffe494"/>
    <path id="Path_26742" data-name="Path 26742" d="M448.385,1234.2c-2.232.783-4.6.871-6.892,1.36-1.11.237-2.257.33-3.343.643a8.187,8.187,0,0,1-2.474.3c-1.6-.033-3.126.564-4.747.474-1.821-.1-3.652-.041-5.479-.015a26.345,26.345,0,0,1-10.165-2.158,7.726,7.726,0,0,1-3.022-1.98c-.653-.74-.464-1.413.47-1.769a9.848,9.848,0,0,1,5.83-.28c2.066.479,4.092,1.124,6.134,1.7a24.6,24.6,0,0,0,7.818,1.284c3,.755,6.05.378,9.08.426a13.664,13.664,0,0,0,4.3-.36,8.212,8.212,0,0,1,2.044-.1C448.41,1233.575,448.505,1233.783,448.385,1234.2Z" transform="translate(-386 -1165.408)" fill="#ffe494"/>
    <path id="Path_26743" data-name="Path 26743" d="M1034.99,1174.77c.166-.19.207-.28.253-.282,2.5-.106,4.946-.641,7.468-.611,6.407.075,12.816.013,19.224,0a8.991,8.991,0,0,0,3.392-.337,1.526,1.526,0,0,1,.679-.068c2.3.219,4.523-.523,6.813-.536a16.547,16.547,0,0,0,3.353-.6c1.556-.34,3.092-.779,4.657-1.069a11.662,11.662,0,0,1,2.5-.085,1.123,1.123,0,0,1,1.121.953,1.053,1.053,0,0,1-.586,1.14,11.752,11.752,0,0,1-2.282,1.021,36.045,36.045,0,0,1-5.766,1.3,50.358,50.358,0,0,1-5.89.6c-3.2-.064-6.408-.007-9.612-.021a21.074,21.074,0,0,1-4.311-.321,22.184,22.184,0,0,0-4.1-.129,9.72,9.72,0,0,1-2.942-.3,6.608,6.608,0,0,0-1.812-.149,31.989,31.989,0,0,1-4.539-.349,30.406,30.406,0,0,0-4.794-.107C1036.911,1174.807,1036.007,1174.787,1034.99,1174.77Z" transform="translate(-937.878 -1112.874)" fill="#ffe494"/>
    <path id="Path_26744" data-name="Path 26744" d="M1496.238,826.776a3.362,3.362,0,0,1,1.552.274,17.244,17.244,0,0,1,4.962,3.965,3.922,3.922,0,0,1,1.026,3.153,1.4,1.4,0,0,1-2.185,1.078,3.885,3.885,0,0,1-.7-.584c-1.671-1.669-3.344-3.335-4.994-5.025a3.916,3.916,0,0,1-.763-1.112C1494.605,827.339,1494.964,826.8,1496.238,826.776Z" transform="translate(-1345.211 -807.865)" fill="#ffe494"/>
    <path id="Path_26745" data-name="Path 26745" d="M287.774,810.262a3.069,3.069,0,0,1-.965,2.009c-.426.31-.879.581-1.3.9a1.232,1.232,0,0,1-1.451.264,1.652,1.652,0,0,1-1.024-1.625,4.4,4.4,0,0,1,1.815-3.229,1.635,1.635,0,0,1,1.9.051A2.054,2.054,0,0,1,287.774,810.262Z" transform="translate(-271.871 -791.499)" fill="#ffe494"/>
    <path id="Path_26746" data-name="Path 26746" d="M1013.9,816.723a6.427,6.427,0,0,1-.911-.128,1.423,1.423,0,0,1-1.233-1.414,1.455,1.455,0,0,1,1.167-1.683,2.068,2.068,0,0,1,2.291.494,1.675,1.675,0,0,1,.559,1.839C1015.586,816.446,1015.067,816.719,1013.9,816.723Z" transform="translate(-917.301 -795.967)" fill="#ffe494"/>
    <path id="Path_26747" data-name="Path 26747" d="M892.025,1211.8c-1.094.263-1.882.5-2.687.636-2.058.345-4.123.643-6.371.989a3.524,3.524,0,0,1,2.027-.895c.708-.227,1.487-.071,2.235-.3.709-.218,1.5-.151,2.228-.326A3.517,3.517,0,0,1,892.025,1211.8Z" transform="translate(-803.234 -1148.686)" fill="#ffc77b"/>
    <path id="Path_26748" data-name="Path 26748" d="M727.746,1248.988l-.448-.468c.113-.1.215-.257.339-.276,2.482-.368,4.967-.719,7.451-1.074v0a4.9,4.9,0,0,1-2.481.925C730.982,1248.365,729.366,1248.687,727.746,1248.988Z" transform="translate(-665.361 -1180.199)" fill="#ffc87c"/>
    <path id="Path_26749" data-name="Path 26749" d="M292.949,895.908a1.032,1.032,0,0,1-1.066.935.908.908,0,0,1-1.058-.895.857.857,0,0,1,.79-.919C292.339,894.949,292.922,895.332,292.949,895.908Z" transform="translate(-278.782 -868.306)" fill="#ffe494"/>
    <path id="Path_26750" data-name="Path 26750" d="M807.463,1239.469c.826-.811,1.776-.367,2.691-.276a6.918,6.918,0,0,1-2.692.274Z" transform="translate(-736.36 -1172.956)" fill="#ffc77b"/>
    <path id="Path_26751" data-name="Path 26751" d="M795.44,1243.628c.327-.545.87-.443,1.375-.458l0,0c-.327.545-.87.444-1.374.458Z" transform="translate(-725.712 -1176.656)" fill="#ffc77b"/>
  </g>
  <g data-type="innerShadowGroup">
    <g transform="matrix(1, 0, 0, 1, 0, 0)" filter="url(#Path_41319)">
      <path id="Path_41319-3" data-name="Path 41319" d="M-56.2-7.525a7.568,7.568,0,0,1-.637,3.211,6.4,6.4,0,0,1-1.743,2.286A7.473,7.473,0,0,1-61.166-.661a10.774,10.774,0,0,1-3.184.456A6.683,6.683,0,0,1-65.791-.38q-.784-.174-1.589-.436t-1.548-.563q-.744-.3-1.321-.57l.59-5.524a9.423,9.423,0,0,0,2.527,1.039,10.971,10.971,0,0,0,2.728.355q.255,0,.617-.02a2.9,2.9,0,0,0,.69-.121,1.485,1.485,0,0,0,.556-.3.728.728,0,0,0,.228-.576.633.633,0,0,0-.161-.436,1.2,1.2,0,0,0-.416-.295A2.569,2.569,0,0,0-63.465-8q-.322-.06-.63-.087t-.576-.027H-65.1a5.306,5.306,0,0,1-2.1-.4,4.77,4.77,0,0,1-1.622-1.119,5.087,5.087,0,0,1-1.052-1.7,5.958,5.958,0,0,1-.375-2.138,6.172,6.172,0,0,1,.637-2.836,6.606,6.606,0,0,1,1.7-2.132,7.709,7.709,0,0,1,2.447-1.347,8.816,8.816,0,0,1,2.856-.469q.657,0,1.354.047a13.207,13.207,0,0,1,1.388.168,13.126,13.126,0,0,1,1.347.308,7.975,7.975,0,0,1,1.247.469l-.509,5.443a16.357,16.357,0,0,0-1.91-.516,9.564,9.564,0,0,0-1.951-.208q-.174,0-.449.007t-.576.04a5.98,5.98,0,0,0-.61.1,2.559,2.559,0,0,0-.55.181,1.059,1.059,0,0,0-.389.3.638.638,0,0,0-.134.442.642.642,0,0,0,.221.476,1.452,1.452,0,0,0,.536.282,3.78,3.78,0,0,0,.724.141q.4.04.784.047t.724,0a3.949,3.949,0,0,1,.55.02,5.467,5.467,0,0,1,1.931.456,4.474,4.474,0,0,1,1.455,1.032,4.367,4.367,0,0,1,.912,1.535A5.86,5.86,0,0,1-56.2-7.525Zm17.84-7.776q0,.992-.094,2.185t-.308,2.467q-.215,1.274-.556,2.581a18.464,18.464,0,0,1-.851,2.514A14.82,14.82,0,0,1-41.355-3.3a8.9,8.9,0,0,1-1.555,1.837A6.869,6.869,0,0,1-44.875-.225a6.257,6.257,0,0,1-2.413.449,6.684,6.684,0,0,1-2.7-.5,6.068,6.068,0,0,1-1.964-1.354,7.181,7.181,0,0,1-1.341-1.984,12.441,12.441,0,0,1-.818-2.4A18.357,18.357,0,0,1-54.521-8.6q-.114-1.321-.114-2.541a37.5,37.5,0,0,1,.188-3.747q.188-1.87.536-3.734l6.274.241q-.362,2.1-.623,4.23a34.937,34.937,0,0,0-.261,4.27q0,.228.02.677t.074,1.005q.054.556.154,1.14A6.281,6.281,0,0,0-48-6a2.739,2.739,0,0,0,.422.791.732.732,0,0,0,.583.308.9.9,0,0,0,.7-.369,3.435,3.435,0,0,0,.543-.985,9.934,9.934,0,0,0,.409-1.421q.174-.8.295-1.676t.194-1.743q.074-.871.121-1.622t.06-1.327q.013-.576.013-.858,0-1.046-.034-2.085t-.1-2.071h6.274Q-38.359-17.205-38.359-15.3ZM-20.72-5.166a4.185,4.185,0,0,1-.409,1.917,4.239,4.239,0,0,1-1.093,1.367A5.883,5.883,0,0,1-23.8-.963a11.147,11.147,0,0,1-1.857.556,14.319,14.319,0,0,1-1.937.268q-.972.067-1.817.067t-1.723-.06q-.892-.06-1.776-.208a15.37,15.37,0,0,1-1.743-.4,9.917,9.917,0,0,1-1.622-.623L-36.3-18.626a16.25,16.25,0,0,1,1.6-.556q.845-.248,1.723-.416t1.75-.255q.871-.087,1.689-.087a15.605,15.605,0,0,1,1.924.121,10.61,10.61,0,0,1,1.87.4,8.3,8.3,0,0,1,1.676.731,5.452,5.452,0,0,1,1.361,1.106,4.858,4.858,0,0,1,.912,1.528,5.682,5.682,0,0,1,.328,2.011,4.508,4.508,0,0,1-.215,1.408,3.907,3.907,0,0,1-.617,1.18,3.817,3.817,0,0,1-.979.892,4.231,4.231,0,0,1-1.3.543,5.8,5.8,0,0,1,1.589.67,4.7,4.7,0,0,1,1.22,1.073,4.768,4.768,0,0,1,.778,1.421A5.111,5.111,0,0,1-20.72-5.166Zm-6.811-7.642a1.292,1.292,0,0,0-.161-.664,1.485,1.485,0,0,0-.4-.449,1.6,1.6,0,0,0-.509-.255,1.766,1.766,0,0,0-.489-.08,1.726,1.726,0,0,0-.523.08,4.72,4.72,0,0,0-.5.188l-.08,2.976a6.736,6.736,0,0,0,.764-.054,3.153,3.153,0,0,0,.878-.235,1.885,1.885,0,0,0,.717-.536A1.476,1.476,0,0,0-27.531-12.808Zm-1.9,4.371a3.451,3.451,0,0,0-.751.08L-30.239-5.3q.2.04.4.074a2.246,2.246,0,0,0,.382.034,3.5,3.5,0,0,0,.617-.06,1.807,1.807,0,0,0,.63-.241,1.506,1.506,0,0,0,.489-.489,1.517,1.517,0,0,0,.194-.818,1.589,1.589,0,0,0-.194-.831,1.516,1.516,0,0,0-.476-.5,1.679,1.679,0,0,0-.617-.241A3.5,3.5,0,0,0-29.434-8.437Zm23.953.912a7.568,7.568,0,0,1-.637,3.211A6.4,6.4,0,0,1-7.861-2.029,7.473,7.473,0,0,1-10.448-.661a10.774,10.774,0,0,1-3.184.456A6.683,6.683,0,0,1-15.074-.38q-.784-.174-1.589-.436t-1.548-.563q-.744-.3-1.321-.57l.59-5.524a9.423,9.423,0,0,0,2.527,1.039,10.971,10.971,0,0,0,2.728.355q.255,0,.617-.02a2.9,2.9,0,0,0,.69-.121,1.485,1.485,0,0,0,.556-.3.728.728,0,0,0,.228-.576.633.633,0,0,0-.161-.436,1.2,1.2,0,0,0-.416-.295A2.569,2.569,0,0,0-12.747-8q-.322-.06-.63-.087t-.576-.027h-.429a5.306,5.306,0,0,1-2.1-.4A4.77,4.77,0,0,1-18.1-9.637a5.087,5.087,0,0,1-1.052-1.7,5.958,5.958,0,0,1-.375-2.138,6.172,6.172,0,0,1,.637-2.836,6.606,6.606,0,0,1,1.7-2.132,7.709,7.709,0,0,1,2.447-1.347,8.816,8.816,0,0,1,2.856-.469q.657,0,1.354.047a13.207,13.207,0,0,1,1.388.168,13.127,13.127,0,0,1,1.347.308,7.975,7.975,0,0,1,1.247.469l-.509,5.443a16.357,16.357,0,0,0-1.91-.516,9.564,9.564,0,0,0-1.951-.208q-.174,0-.449.007t-.576.04a5.98,5.98,0,0,0-.61.1,2.559,2.559,0,0,0-.55.181,1.059,1.059,0,0,0-.389.3.638.638,0,0,0-.134.442.642.642,0,0,0,.221.476,1.452,1.452,0,0,0,.536.282,3.78,3.78,0,0,0,.724.141q.4.04.784.047t.724,0a3.949,3.949,0,0,1,.55.02,5.467,5.467,0,0,1,1.931.456,4.474,4.474,0,0,1,1.455,1.032A4.367,4.367,0,0,1-5.8-9.489,5.86,5.86,0,0,1-5.481-7.525ZM9.611-19.243,8.86-13.585a4.763,4.763,0,0,0-.778-.147,7.552,7.552,0,0,0-.778-.04,6.731,6.731,0,0,0-1.89.261,4.7,4.7,0,0,0-1.589.8,3.925,3.925,0,0,0-1.1,1.341,4.121,4.121,0,0,0-.409,1.89,3.014,3.014,0,0,0,.221,1.207,2.242,2.242,0,0,0,.623.845,2.613,2.613,0,0,0,.952.5,4.283,4.283,0,0,0,1.207.161,5.263,5.263,0,0,0,1.032-.107,8.81,8.81,0,0,0,1.059-.282,10.052,10.052,0,0,0,1.019-.4q.5-.228.912-.469l-.536,6.3a8.454,8.454,0,0,1-1.133.476Q7.063-1.05,6.42-.9a11.806,11.806,0,0,1-1.287.235A9.953,9.953,0,0,1,3.9-.581a8,8,0,0,1-3.177-.63A7.947,7.947,0,0,1-1.839-2.94,8.066,8.066,0,0,1-3.548-5.535a8.292,8.292,0,0,1-.623-3.224,13.966,13.966,0,0,1,.657-4.324,10.581,10.581,0,0,1,1.931-3.559,9.064,9.064,0,0,1,3.157-2.413A10.092,10.092,0,0,1,5.91-19.94a12.64,12.64,0,0,1,1.9.147A6.275,6.275,0,0,1,9.611-19.243Zm17.518,5.926a9.147,9.147,0,0,1-.181,1.9,5.705,5.705,0,0,1-.57,1.562,5.589,5.589,0,0,1-1.005,1.314,8.938,8.938,0,0,1-1.488,1.153l3.191,5.684L21.042-.527,18.977-6.238l-1.662.054L17.074-.608H11.309q.067-3.057.127-6.087t.141-6.087q.027-1.542.054-3.057t.107-3.057a17.522,17.522,0,0,1,1.85-.576,17.391,17.391,0,0,1,1.83-.355q.918-.127,1.864-.174t1.937-.047a10.368,10.368,0,0,1,2.956.422A7.678,7.678,0,0,1,24.7-18.358a6.348,6.348,0,0,1,1.763,2.1A6.212,6.212,0,0,1,27.129-13.317Zm-6.006.429a3.292,3.292,0,0,0-.154-1.032,2.29,2.29,0,0,0-.456-.811,2.094,2.094,0,0,0-.751-.536,2.633,2.633,0,0,0-1.052-.194,4,4,0,0,0-.523.034,3.612,3.612,0,0,0-.5.1l-.215,4.987H17.8a4.877,4.877,0,0,0,1.173-.147,3.5,3.5,0,0,0,1.073-.456,2.527,2.527,0,0,0,.778-.791A2.131,2.131,0,0,0,21.123-12.888ZM36.254-19.27,34.78-1.01l-5.658.295V-18.894Zm17.491,14.1a4.185,4.185,0,0,1-.409,1.917,4.239,4.239,0,0,1-1.093,1.367,5.883,5.883,0,0,1-1.575.918,11.147,11.147,0,0,1-1.857.556,14.318,14.318,0,0,1-1.937.268q-.972.067-1.817.067t-1.723-.06q-.892-.06-1.776-.208a15.37,15.37,0,0,1-1.743-.4,9.917,9.917,0,0,1-1.622-.623l-.027-17.268a16.25,16.25,0,0,1,1.6-.556q.845-.248,1.723-.416t1.75-.255q.871-.087,1.689-.087a15.605,15.605,0,0,1,1.924.121,10.61,10.61,0,0,1,1.87.4,8.3,8.3,0,0,1,1.676.731,5.452,5.452,0,0,1,1.361,1.106,4.858,4.858,0,0,1,.912,1.528,5.682,5.682,0,0,1,.328,2.011,4.508,4.508,0,0,1-.215,1.408,3.907,3.907,0,0,1-.617,1.18,3.817,3.817,0,0,1-.979.892,4.231,4.231,0,0,1-1.3.543,5.8,5.8,0,0,1,1.589.67,4.7,4.7,0,0,1,1.22,1.073,4.768,4.768,0,0,1,.778,1.421A5.111,5.111,0,0,1,53.746-5.166Zm-6.811-7.642a1.292,1.292,0,0,0-.161-.664,1.485,1.485,0,0,0-.4-.449,1.6,1.6,0,0,0-.509-.255,1.766,1.766,0,0,0-.489-.08,1.726,1.726,0,0,0-.523.08,4.72,4.72,0,0,0-.5.188l-.08,2.976a6.736,6.736,0,0,0,.764-.054,3.153,3.153,0,0,0,.878-.235,1.885,1.885,0,0,0,.717-.536A1.476,1.476,0,0,0,46.935-12.808Zm-1.9,4.371a3.451,3.451,0,0,0-.751.08L44.227-5.3q.2.04.4.074A2.246,2.246,0,0,0,45-5.193a3.5,3.5,0,0,0,.617-.06,1.807,1.807,0,0,0,.63-.241,1.506,1.506,0,0,0,.489-.489,1.517,1.517,0,0,0,.194-.818,1.589,1.589,0,0,0-.194-.831,1.516,1.516,0,0,0-.476-.5,1.679,1.679,0,0,0-.617-.241A3.5,3.5,0,0,0,45.031-8.437ZM68.113-19.725q-.08,1.26-.147,2.494t-.174,2.494l-5.684.295-.134,1.689h4L65.673-8.6l-4.022.134-.134,1.957H67.2q-.08,1.475-.168,2.929T66.88-.661L55.323-.393l.429-19.332Z" transform="translate(85.29 48.95)" fill="#fff"/>
    </g>
    <g transform="matrix(1, 0, 0, 1, 0, 0)" filter="url(#Path_41319-2)">
      <path id="Path_41319-4" data-name="Path 41319" d="M-56.2-7.525a7.568,7.568,0,0,1-.637,3.211,6.4,6.4,0,0,1-1.743,2.286A7.473,7.473,0,0,1-61.166-.661a10.774,10.774,0,0,1-3.184.456A6.683,6.683,0,0,1-65.791-.38q-.784-.174-1.589-.436t-1.548-.563q-.744-.3-1.321-.57l.59-5.524a9.423,9.423,0,0,0,2.527,1.039,10.971,10.971,0,0,0,2.728.355q.255,0,.617-.02a2.9,2.9,0,0,0,.69-.121,1.485,1.485,0,0,0,.556-.3.728.728,0,0,0,.228-.576.633.633,0,0,0-.161-.436,1.2,1.2,0,0,0-.416-.295A2.569,2.569,0,0,0-63.465-8q-.322-.06-.63-.087t-.576-.027H-65.1a5.306,5.306,0,0,1-2.1-.4,4.77,4.77,0,0,1-1.622-1.119,5.087,5.087,0,0,1-1.052-1.7,5.958,5.958,0,0,1-.375-2.138,6.172,6.172,0,0,1,.637-2.836,6.606,6.606,0,0,1,1.7-2.132,7.709,7.709,0,0,1,2.447-1.347,8.816,8.816,0,0,1,2.856-.469q.657,0,1.354.047a13.207,13.207,0,0,1,1.388.168,13.126,13.126,0,0,1,1.347.308,7.975,7.975,0,0,1,1.247.469l-.509,5.443a16.357,16.357,0,0,0-1.91-.516,9.564,9.564,0,0,0-1.951-.208q-.174,0-.449.007t-.576.04a5.98,5.98,0,0,0-.61.1,2.559,2.559,0,0,0-.55.181,1.059,1.059,0,0,0-.389.3.638.638,0,0,0-.134.442.642.642,0,0,0,.221.476,1.452,1.452,0,0,0,.536.282,3.78,3.78,0,0,0,.724.141q.4.04.784.047t.724,0a3.949,3.949,0,0,1,.55.02,5.467,5.467,0,0,1,1.931.456,4.474,4.474,0,0,1,1.455,1.032,4.367,4.367,0,0,1,.912,1.535A5.86,5.86,0,0,1-56.2-7.525Zm17.84-7.776q0,.992-.094,2.185t-.308,2.467q-.215,1.274-.556,2.581a18.464,18.464,0,0,1-.851,2.514A14.82,14.82,0,0,1-41.355-3.3a8.9,8.9,0,0,1-1.555,1.837A6.869,6.869,0,0,1-44.875-.225a6.257,6.257,0,0,1-2.413.449,6.684,6.684,0,0,1-2.7-.5,6.068,6.068,0,0,1-1.964-1.354,7.181,7.181,0,0,1-1.341-1.984,12.441,12.441,0,0,1-.818-2.4A18.357,18.357,0,0,1-54.521-8.6q-.114-1.321-.114-2.541a37.5,37.5,0,0,1,.188-3.747q.188-1.87.536-3.734l6.274.241q-.362,2.1-.623,4.23a34.937,34.937,0,0,0-.261,4.27q0,.228.02.677t.074,1.005q.054.556.154,1.14A6.281,6.281,0,0,0-48-6a2.739,2.739,0,0,0,.422.791.732.732,0,0,0,.583.308.9.9,0,0,0,.7-.369,3.435,3.435,0,0,0,.543-.985,9.934,9.934,0,0,0,.409-1.421q.174-.8.295-1.676t.194-1.743q.074-.871.121-1.622t.06-1.327q.013-.576.013-.858,0-1.046-.034-2.085t-.1-2.071h6.274Q-38.359-17.205-38.359-15.3ZM-20.72-5.166a4.185,4.185,0,0,1-.409,1.917,4.239,4.239,0,0,1-1.093,1.367A5.883,5.883,0,0,1-23.8-.963a11.147,11.147,0,0,1-1.857.556,14.319,14.319,0,0,1-1.937.268q-.972.067-1.817.067t-1.723-.06q-.892-.06-1.776-.208a15.37,15.37,0,0,1-1.743-.4,9.917,9.917,0,0,1-1.622-.623L-36.3-18.626a16.25,16.25,0,0,1,1.6-.556q.845-.248,1.723-.416t1.75-.255q.871-.087,1.689-.087a15.605,15.605,0,0,1,1.924.121,10.61,10.61,0,0,1,1.87.4,8.3,8.3,0,0,1,1.676.731,5.452,5.452,0,0,1,1.361,1.106,4.858,4.858,0,0,1,.912,1.528,5.682,5.682,0,0,1,.328,2.011,4.508,4.508,0,0,1-.215,1.408,3.907,3.907,0,0,1-.617,1.18,3.817,3.817,0,0,1-.979.892,4.231,4.231,0,0,1-1.3.543,5.8,5.8,0,0,1,1.589.67,4.7,4.7,0,0,1,1.22,1.073,4.768,4.768,0,0,1,.778,1.421A5.111,5.111,0,0,1-20.72-5.166Zm-6.811-7.642a1.292,1.292,0,0,0-.161-.664,1.485,1.485,0,0,0-.4-.449,1.6,1.6,0,0,0-.509-.255,1.766,1.766,0,0,0-.489-.08,1.726,1.726,0,0,0-.523.08,4.72,4.72,0,0,0-.5.188l-.08,2.976a6.736,6.736,0,0,0,.764-.054,3.153,3.153,0,0,0,.878-.235,1.885,1.885,0,0,0,.717-.536A1.476,1.476,0,0,0-27.531-12.808Zm-1.9,4.371a3.451,3.451,0,0,0-.751.08L-30.239-5.3q.2.04.4.074a2.246,2.246,0,0,0,.382.034,3.5,3.5,0,0,0,.617-.06,1.807,1.807,0,0,0,.63-.241,1.506,1.506,0,0,0,.489-.489,1.517,1.517,0,0,0,.194-.818,1.589,1.589,0,0,0-.194-.831,1.516,1.516,0,0,0-.476-.5,1.679,1.679,0,0,0-.617-.241A3.5,3.5,0,0,0-29.434-8.437Zm23.953.912a7.568,7.568,0,0,1-.637,3.211A6.4,6.4,0,0,1-7.861-2.029,7.473,7.473,0,0,1-10.448-.661a10.774,10.774,0,0,1-3.184.456A6.683,6.683,0,0,1-15.074-.38q-.784-.174-1.589-.436t-1.548-.563q-.744-.3-1.321-.57l.59-5.524a9.423,9.423,0,0,0,2.527,1.039,10.971,10.971,0,0,0,2.728.355q.255,0,.617-.02a2.9,2.9,0,0,0,.69-.121,1.485,1.485,0,0,0,.556-.3.728.728,0,0,0,.228-.576.633.633,0,0,0-.161-.436,1.2,1.2,0,0,0-.416-.295A2.569,2.569,0,0,0-12.747-8q-.322-.06-.63-.087t-.576-.027h-.429a5.306,5.306,0,0,1-2.1-.4A4.77,4.77,0,0,1-18.1-9.637a5.087,5.087,0,0,1-1.052-1.7,5.958,5.958,0,0,1-.375-2.138,6.172,6.172,0,0,1,.637-2.836,6.606,6.606,0,0,1,1.7-2.132,7.709,7.709,0,0,1,2.447-1.347,8.816,8.816,0,0,1,2.856-.469q.657,0,1.354.047a13.207,13.207,0,0,1,1.388.168,13.127,13.127,0,0,1,1.347.308,7.975,7.975,0,0,1,1.247.469l-.509,5.443a16.357,16.357,0,0,0-1.91-.516,9.564,9.564,0,0,0-1.951-.208q-.174,0-.449.007t-.576.04a5.98,5.98,0,0,0-.61.1,2.559,2.559,0,0,0-.55.181,1.059,1.059,0,0,0-.389.3.638.638,0,0,0-.134.442.642.642,0,0,0,.221.476,1.452,1.452,0,0,0,.536.282,3.78,3.78,0,0,0,.724.141q.4.04.784.047t.724,0a3.949,3.949,0,0,1,.55.02,5.467,5.467,0,0,1,1.931.456,4.474,4.474,0,0,1,1.455,1.032A4.367,4.367,0,0,1-5.8-9.489,5.86,5.86,0,0,1-5.481-7.525ZM9.611-19.243,8.86-13.585a4.763,4.763,0,0,0-.778-.147,7.552,7.552,0,0,0-.778-.04,6.731,6.731,0,0,0-1.89.261,4.7,4.7,0,0,0-1.589.8,3.925,3.925,0,0,0-1.1,1.341,4.121,4.121,0,0,0-.409,1.89,3.014,3.014,0,0,0,.221,1.207,2.242,2.242,0,0,0,.623.845,2.613,2.613,0,0,0,.952.5,4.283,4.283,0,0,0,1.207.161,5.263,5.263,0,0,0,1.032-.107,8.81,8.81,0,0,0,1.059-.282,10.052,10.052,0,0,0,1.019-.4q.5-.228.912-.469l-.536,6.3a8.454,8.454,0,0,1-1.133.476Q7.063-1.05,6.42-.9a11.806,11.806,0,0,1-1.287.235A9.953,9.953,0,0,1,3.9-.581a8,8,0,0,1-3.177-.63A7.947,7.947,0,0,1-1.839-2.94,8.066,8.066,0,0,1-3.548-5.535a8.292,8.292,0,0,1-.623-3.224,13.966,13.966,0,0,1,.657-4.324,10.581,10.581,0,0,1,1.931-3.559,9.064,9.064,0,0,1,3.157-2.413A10.092,10.092,0,0,1,5.91-19.94a12.64,12.64,0,0,1,1.9.147A6.275,6.275,0,0,1,9.611-19.243Zm17.518,5.926a9.147,9.147,0,0,1-.181,1.9,5.705,5.705,0,0,1-.57,1.562,5.589,5.589,0,0,1-1.005,1.314,8.938,8.938,0,0,1-1.488,1.153l3.191,5.684L21.042-.527,18.977-6.238l-1.662.054L17.074-.608H11.309q.067-3.057.127-6.087t.141-6.087q.027-1.542.054-3.057t.107-3.057a17.522,17.522,0,0,1,1.85-.576,17.391,17.391,0,0,1,1.83-.355q.918-.127,1.864-.174t1.937-.047a10.368,10.368,0,0,1,2.956.422A7.678,7.678,0,0,1,24.7-18.358a6.348,6.348,0,0,1,1.763,2.1A6.212,6.212,0,0,1,27.129-13.317Zm-6.006.429a3.292,3.292,0,0,0-.154-1.032,2.29,2.29,0,0,0-.456-.811,2.094,2.094,0,0,0-.751-.536,2.633,2.633,0,0,0-1.052-.194,4,4,0,0,0-.523.034,3.612,3.612,0,0,0-.5.1l-.215,4.987H17.8a4.877,4.877,0,0,0,1.173-.147,3.5,3.5,0,0,0,1.073-.456,2.527,2.527,0,0,0,.778-.791A2.131,2.131,0,0,0,21.123-12.888ZM36.254-19.27,34.78-1.01l-5.658.295V-18.894Zm17.491,14.1a4.185,4.185,0,0,1-.409,1.917,4.239,4.239,0,0,1-1.093,1.367,5.883,5.883,0,0,1-1.575.918,11.147,11.147,0,0,1-1.857.556,14.318,14.318,0,0,1-1.937.268q-.972.067-1.817.067t-1.723-.06q-.892-.06-1.776-.208a15.37,15.37,0,0,1-1.743-.4,9.917,9.917,0,0,1-1.622-.623l-.027-17.268a16.25,16.25,0,0,1,1.6-.556q.845-.248,1.723-.416t1.75-.255q.871-.087,1.689-.087a15.605,15.605,0,0,1,1.924.121,10.61,10.61,0,0,1,1.87.4,8.3,8.3,0,0,1,1.676.731,5.452,5.452,0,0,1,1.361,1.106,4.858,4.858,0,0,1,.912,1.528,5.682,5.682,0,0,1,.328,2.011,4.508,4.508,0,0,1-.215,1.408,3.907,3.907,0,0,1-.617,1.18,3.817,3.817,0,0,1-.979.892,4.231,4.231,0,0,1-1.3.543,5.8,5.8,0,0,1,1.589.67,4.7,4.7,0,0,1,1.22,1.073,4.768,4.768,0,0,1,.778,1.421A5.111,5.111,0,0,1,53.746-5.166Zm-6.811-7.642a1.292,1.292,0,0,0-.161-.664,1.485,1.485,0,0,0-.4-.449,1.6,1.6,0,0,0-.509-.255,1.766,1.766,0,0,0-.489-.08,1.726,1.726,0,0,0-.523.08,4.72,4.72,0,0,0-.5.188l-.08,2.976a6.736,6.736,0,0,0,.764-.054,3.153,3.153,0,0,0,.878-.235,1.885,1.885,0,0,0,.717-.536A1.476,1.476,0,0,0,46.935-12.808Zm-1.9,4.371a3.451,3.451,0,0,0-.751.08L44.227-5.3q.2.04.4.074A2.246,2.246,0,0,0,45-5.193a3.5,3.5,0,0,0,.617-.06,1.807,1.807,0,0,0,.63-.241,1.506,1.506,0,0,0,.489-.489,1.517,1.517,0,0,0,.194-.818,1.589,1.589,0,0,0-.194-.831,1.516,1.516,0,0,0-.476-.5,1.679,1.679,0,0,0-.617-.241A3.5,3.5,0,0,0,45.031-8.437ZM68.113-19.725q-.08,1.26-.147,2.494t-.174,2.494l-5.684.295-.134,1.689h4L65.673-8.6l-4.022.134-.134,1.957H67.2q-.08,1.475-.168,2.929T66.88-.661L55.323-.393l.429-19.332Z" transform="translate(85.29 48.95)" fill="#fff"/>
    </g>
  </g>
</svg>
