<svg xmlns="http://www.w3.org/2000/svg" xmlns:xlink="http://www.w3.org/1999/xlink" width="1309.457" height="102.973" viewBox="0 0 1309.457 102.973">
  <defs>
    <filter id="Path_77757" x="0" y="0" width="1309.457" height="102.973" filterUnits="userSpaceOnUse">
      <feOffset input="SourceAlpha"/>
      <feGaussianBlur stdDeviation="3" result="blur"/>
      <feFlood flood-opacity="0.2"/>
      <feComposite operator="in" in2="blur"/>
      <feComposite in="SourceGraphic"/>
    </filter>
  </defs>
  <g id="SizeVariant1" transform="translate(5383.74 1639.354)">
    <g transform="matrix(1, 0, 0, 1, -5383.74, -1639.35)" filter="url(#Path_77757)">
      <g id="Path_77757-2" data-name="Path 77757" transform="translate(-27.76 11.59)" fill="#070707">
        <path d="M 668.3204345703125 81.88430786132812 L 668.2861328125 81.88347625732422 L 570.7254638671875 79.71031951904297 L 536.652099609375 79.81914520263672 C 535.9880981445312 79.81914520263672 532.970947265625 79.25431060791016 531.449951171875 78.41980743408203 C 530.7412109375 78.03096771240234 530.2371215820312 77.19708251953125 529.9503784179688 75.93998718261719 L 528.443603515625 79.51347351074219 L 528.3153076171875 79.81797790527344 L 527.9848022460938 79.81914520263672 L 451.7892761230469 80.08980560302734 L 296.2299499511719 80.58631134033203 L 296.2207946777344 80.58631134033203 L 296.2116088867188 80.58597564697266 C 295.9696044921875 80.57797241210938 290.2532958984375 80.38247680664062 287.4361267089844 79.91114044189453 C 285.2440185546875 79.54443359375 283.7274475097656 78.68878936767578 283.0812683105469 78.26405334472656 L 280.5602722167969 80.51064300537109 L 280.4191284179688 80.636474609375 L 280.2299499511719 80.63730621337891 L 101.7874450683594 81.48947143554688 L 101.7179489135742 81.48980712890625 L 101.6509475708008 81.47113800048828 L 98.65438079833984 80.63595581054688 L 92.31544494628906 81.48497772216797 L 92.13411712646484 81.50930786132812 L 91.97994995117188 81.41080474853516 L 88.421875 79.13794708251953 L 83.43361663818359 81.44330596923828 L 83.33377838134766 81.48947143554688 L 83.22377777099609 81.48947143554688 L 68.81161499023438 81.48947143554688 L 68.52761077880859 81.48947143554688 L 68.38211822509766 81.24547576904297 L 52.99294662475586 55.43130874633789 L 52.94611358642578 55.35280990600586 L 52.93011474609375 55.26264190673828 L 47.6944465637207 25.74797439575195 L 47.64878082275391 25.49014091491699 L 47.83461380004883 25.30564117431641 L 54.84712982177734 18.35103607177734 L 46.90278244018555 22.04147529602051 L 46.40978240966797 22.27047538757324 L 46.22261428833008 21.76014137268066 L 37.72294616699219 -1.415858626365662 L 37.47644805908203 -2.088191986083984 L 38.1926155090332 -2.088025331497192 L 1326.784423828125 -1.808025240898132 L 1327.500610351562 -1.80785858631134 L 1327.253662109375 -1.135525226593018 L 1317.70166015625 24.85730743408203 L 1317.628173828125 25.05714225769043 L 1317.43310546875 25.14264106750488 L 1314.803588867188 26.29635620117188 L 1316.67822265625 30.25380897521973 L 1316.746459960938 30.39764213562012 L 1316.718994140625 30.55447387695312 L 1315.811889648438 35.70997619628906 L 1315.77294921875 35.93097305297852 L 1315.582153320312 36.04880905151367 L 1314.711181640625 36.58629989624023 L 1315.254760742188 38.60497283935547 L 1315.28466796875 38.71564102172852 L 1315.263061523438 38.82814025878906 L 1312.39697265625 53.94597625732422 L 1312.380737304688 54.03164291381836 L 1312.33642578125 54.10680770874023 L 1297.407836914062 79.42247772216797 L 1297.274658203125 79.64830780029297 L 1297.013061523438 79.66714477539062 L 1290.264770507812 80.15414428710938 L 1290.260131835938 80.15447235107422 L 1290.255493164062 80.15480804443359 L 1264.561767578125 81.53097534179688 L 1264.548950195312 81.53163909912109 L 1264.5361328125 81.53163909912109 L 1156.13330078125 81.74214172363281 L 1156.097778320312 81.74214172363281 L 1156.062744140625 81.7373046875 L 1143.0576171875 79.91234588623047 L 1098.33447265625 81.74163818359375 L 1098.317749023438 81.74247741699219 L 1098.30126953125 81.74197387695312 L 1059.159423828125 80.75295257568359 L 881.5391235351562 79.21580505371094 L 687.1466674804688 79.71023559570312 L 668.3546142578125 81.88031005859375 L 668.3204345703125 81.88430786132812 Z" stroke="none"/>
        <path d="M 38.1922607421875 -1.588027954101562 L 46.692138671875 21.58797454833984 L 57.228759765625 16.69330978393555 L 48.186767578125 25.66064071655273 L 53.4222412109375 55.17530822753906 L 68.8114013671875 80.98947143554688 L 83.2237548828125 80.98947143554688 L 88.46044921875 78.56930541992188 L 92.2489013671875 80.98947143554688 L 98.68994140625 80.12680816650391 L 101.78515625 80.98947143554688 L 280.2274169921875 80.13730621337891 L 283.044921875 77.62664031982422 C 283.044921875 77.62664031982422 284.70166015625 78.94680786132812 287.5185546875 79.41797637939453 C 290.33544921875 79.88930511474609 296.228271484375 80.08631134033203 296.228271484375 80.08631134033203 L 451.7874755859375 79.58980560302734 L 527.9829711914062 79.31914520263672 L 530.2152709960938 74.02481079101562 C 530.2152709960938 74.02481079101562 530.2449340820312 77.18830871582031 531.6904296875 77.98147583007812 C 533.1336669921875 78.7733154296875 536.0733642578125 79.31914520263672 536.6478271484375 79.31914520263672 C 536.648681640625 79.31914520263672 536.6495971679688 79.31914520263672 536.6504516601562 79.31914520263672 C 563.3279418945312 79.23397827148438 570.7284545898438 79.21031188964844 570.7284545898438 79.21031188964844 L 668.2973022460938 81.38364410400391 L 687.1176147460938 79.21031188964844 L 881.54345703125 78.71580505371094 L 1059.16650390625 80.25297546386719 L 1098.31396484375 81.24214172363281 L 1143.0830078125 79.41097259521484 L 1156.13232421875 81.24214172363281 L 1264.53515625 81.03163909912109 L 1290.228759765625 79.65547180175781 L 1296.976928710938 79.16847229003906 L 1311.90576171875 53.85280609130859 L 1314.77197265625 38.7349739074707 L 1314.131225585938 36.35647583007812 L 1315.319458007812 35.62330627441406 L 1316.226440429688 30.46780776977539 L 1314.131225585938 26.04530715942383 L 1317.232055664062 24.68480682373047 L 1326.784057617188 -1.308021545410156 L 38.1922607421875 -1.588027954101562 M 36.76025390625 -2.588356018066406 L 38.1925048828125 -2.588027954101562 L 1328.216918945312 -2.307693481445312 L 1318.023803710938 25.42947387695312 L 1315.475708007812 26.54742431640625 L 1317.266479492188 30.32747650146484 L 1316.2265625 36.23863983154297 L 1315.290771484375 36.81603622436523 L 1315.797119140625 38.69614028930664 L 1312.855834960938 54.21047210693359 L 1297.571899414062 80.12814331054688 L 1290.2822265625 80.65397644042969 L 1264.537109375 82.03163909912109 L 1156.0634765625 82.2423095703125 L 1143.033325195312 80.41384124755859 L 1098.32177734375 82.24264526367188 L 1098.28857421875 82.24180603027344 L 1059.152465820312 81.2529296875 L 881.5347900390625 79.71580505371094 L 687.17578125 80.21016693115234 L 668.3438110351562 82.38497161865234 L 668.2749633789062 82.38347625732422 L 570.7158813476562 80.21035766601562 L 536.6477661132812 80.31913757324219 C 535.9342651367188 80.31913757324219 532.8261108398438 79.74514007568359 531.20947265625 78.85813903808594 C 530.6640625 78.55886077880859 530.2250366210938 78.05534362792969 529.8966674804688 77.35446929931641 L 528.6476440429688 80.31681060791016 L 451.7909545898438 80.58980560302734 L 296.213134765625 81.08631134033203 L 296.1949462890625 81.08580780029297 C 295.95166015625 81.07764434814453 290.2030029296875 80.88097381591797 287.3536376953125 80.40430450439453 C 285.39208984375 80.07615661621094 283.93896484375 79.3648681640625 283.1351318359375 78.88580322265625 L 280.6104736328125 81.13547515869141 L 280.2322998046875 81.13730621337891 L 101.6507568359375 81.99014282226562 L 98.619140625 81.14523315429688 L 92.0189208984375 82.02914428710938 L 88.3831787109375 79.70654296875 L 83.443603515625 81.98947143554688 L 68.243408203125 81.98947143554688 L 67.952392578125 81.50147247314453 L 52.4696044921875 55.53014373779297 L 52.4376220703125 55.3499755859375 L 47.110595703125 25.31947326660156 L 52.4658203125 20.00861740112305 L 46.1275634765625 22.95280838012695 L 36.76025390625 -2.588356018066406 Z" stroke="none" fill="#070707"/>
      </g>
    </g>
    <path id="Path_9" data-name="Path 9" d="M1325.332.753l-9.294,25.5-2.989,1.407,2,5.036-.772,4.46h-1.225l.8,2.48-3.8,15.834-13.561,23.583-6.262.6-11.694,1.376-122.4.211-13.049-1.831-44.769,1.831-39.147-.989L881.543,78.716l-194.426.494L668.3,81.384,570.729,79.21l-34.078.109a16.038,16.038,0,0,1-4.96-1.338c-1.445-.793-1.475-3.957-1.475-3.957l-2.232,5.294-76.2.271-155.559.5s-5.893-.2-8.71-.668a10.469,10.469,0,0,1-4.474-1.791l-2.817,2.511-178.442.852-3.1-.863-6.441.863-3.789-2.42-5.237,2.42H69.415L54.491,56.949,49.8,28.309,61.962,15.542,47.194,21.32,39.415.428Z" transform="translate(-5411.5 -1629.766)" fill="#2c2b2a"/>
    <path id="Path_77155" data-name="Path 77155" d="M1.5,11.841C.663,9.833-.3,8.45.091,6.366A6.645,6.645,0,0,1,2.98,1.933C4.111,1.048,6.533-.871,7.937.452c1.423,1.339,2.1,4.831,1.513,6.592-1.006,3.023-3.293,4.91-6.47,4.8Z" transform="matrix(-0.174, 0.985, -0.985, -0.174, -4400.449, -1561.555)" fill="#333231" fill-rule="evenodd"/>
    <path id="Path_77156" data-name="Path 77156" d="M1.458,0C.555,1.869-.772,3.253.572,4.916c.9,1.112,1.387,1.367,2.37.283C4.254,3.751,4.466,1.242,1.951.986Z" transform="matrix(-0.174, 0.985, -0.985, -0.174, -4491.89, -1619.115)" fill="#333231" fill-rule="evenodd"/>
    <path id="Path_77157" data-name="Path 77157" d="M0,4.434C.293,2.667.092.308,2.224.034c.719-.093,1.39-.041,1.688.744.545,1.433-1.7,2.866-2.926,2.669Z" transform="matrix(-0.174, 0.985, -0.985, -0.174, -4524.629, -1567.547)" fill="#333231" fill-rule="evenodd"/>
    <path id="Path_77158" data-name="Path 77158" d="M0,1.545C1.076,3.552,1.782,5.422,4.329,5.428a3.926,3.926,0,0,0,3.1-2.02A1.814,1.814,0,0,0,7.191.784C6.082-.324,4.4.068,2.959.066Z" transform="matrix(-0.174, 0.985, -0.985, -0.174, -4455.867, -1573.724)" fill="#333231" fill-rule="evenodd"/>
    <path id="Path_77159" data-name="Path 77159" d="M0,4.956C.187,3.318-.118,1.245,1.421.426A4.967,4.967,0,0,1,4.584.116,4.107,4.107,0,0,1,8.14,2.984C9.375,6.21,3.3,8.446.987,6.929Z" transform="matrix(-0.174, 0.985, -0.985, -0.174, -4378.106, -1618.722)" fill="#333231" fill-rule="evenodd"/>
    <path id="Path_77155-2" data-name="Path 77155" d="M1.5,11.841C.663,9.833-.3,8.45.091,6.366A6.645,6.645,0,0,1,2.98,1.933C4.111,1.048,6.533-.871,7.937.452c1.423,1.339,2.1,4.831,1.513,6.592-1.006,3.023-3.293,4.91-6.47,4.8Z" transform="matrix(-0.174, 0.985, -0.985, -0.174, -4169.449, -1561.555)" fill="#333231" fill-rule="evenodd"/>
    <path id="Path_77156-2" data-name="Path 77156" d="M1.458,0C.555,1.869-.772,3.253.572,4.916c.9,1.112,1.387,1.367,2.37.283C4.254,3.751,4.466,1.242,1.951.986Z" transform="matrix(-0.174, 0.985, -0.985, -0.174, -4260.89, -1619.115)" fill="#333231" fill-rule="evenodd"/>
    <path id="Path_77157-2" data-name="Path 77157" d="M0,4.434C.293,2.667.092.308,2.224.034c.719-.093,1.39-.041,1.688.744.545,1.433-1.7,2.866-2.926,2.669Z" transform="matrix(-0.174, 0.985, -0.985, -0.174, -4293.629, -1567.547)" fill="#333231" fill-rule="evenodd"/>
    <path id="Path_77158-2" data-name="Path 77158" d="M0,1.545C1.076,3.552,1.782,5.422,4.329,5.428a3.926,3.926,0,0,0,3.1-2.02A1.814,1.814,0,0,0,7.191.784C6.082-.324,4.4.068,2.959.066Z" transform="matrix(-0.174, 0.985, -0.985, -0.174, -4224.867, -1573.724)" fill="#333231" fill-rule="evenodd"/>
    <path id="Path_77159-2" data-name="Path 77159" d="M0,4.956C.187,3.318-.118,1.245,1.421.426A4.967,4.967,0,0,1,4.584.116,4.107,4.107,0,0,1,8.14,2.984C9.375,6.21,3.3,8.446.987,6.929Z" transform="matrix(-0.174, 0.985, -0.985, -0.174, -4147.106, -1618.722)" fill="#333231" fill-rule="evenodd"/>
    <path id="Path_77168" data-name="Path 77168" d="M650.16,330.791a5.089,5.089,0,0,0-2.22-.553,2.718,2.718,0,0,0-.885.37,2.091,2.091,0,0,1-1.036.187,5.932,5.932,0,0,1-2.257-1.105c-1.2-.709-2.483-.524-3.775-.548a7.058,7.058,0,0,0-3.707,1.471,5.321,5.321,0,0,0-1.962,2.057,5.59,5.59,0,0,0-.6,3.057,4.427,4.427,0,0,0,.449,1.972,6.286,6.286,0,0,0,1.043,1.134,4.661,4.661,0,0,0,1.028.845c.428.245.878.379,1.307.617a21.7,21.7,0,0,0,2.4,1.239c.245.1.492.285.733.371a8.9,8.9,0,0,1,.888.259,5.5,5.5,0,0,0,2.216.69c.5,0,.942.187,1.447.182a3.622,3.622,0,0,1,1.04.042,8.974,8.974,0,0,0,2.394.146,6.178,6.178,0,0,0,2.668-.69,4.9,4.9,0,0,0,1.04-.589,8.3,8.3,0,0,0,1.155-1.142,5.448,5.448,0,0,0,.77-2.375,4.452,4.452,0,0,1,.115-.691,2.23,2.23,0,0,0-.079-.96,8.128,8.128,0,0,0-.329-1.457c-.2-.547-.44-1.067-.651-1.606a7.046,7.046,0,0,0-.832-1.318,3.337,3.337,0,0,0-.933-1.092,5.082,5.082,0,0,0-1.295-.665C649.824,330.5,649.367,330.478,650.16,330.791Z" transform="translate(-5629 -1950.766)" fill="#b2abc3" fill-rule="evenodd" opacity="0.3" style="mix-blend-mode: multiply;isolation: isolate"/>
    <path id="Path_77169" data-name="Path 77169" d="M633.391,335.907c.315-.5.617-.993.921-1.493.158-.259.289-.589.461-.817a8.671,8.671,0,0,1,1.245-1.12,2.007,2.007,0,0,1,.737-.428c.257-.1.5-.306.764-.387.286-.088.561-.112.845-.2a5.946,5.946,0,0,1,1.042-.278c.372-.043.757.074,1.128.022a8.18,8.18,0,0,1,1.039-.23,9.474,9.474,0,0,1,1.167-.006,8.839,8.839,0,0,0,.991.231,7.531,7.531,0,0,1,3.489,1.282c.337.186.635.278.961.48a5.909,5.909,0,0,0,1.111.328c.265.1.521,0,.783.1.205.072.4.146.615.215a4.428,4.428,0,0,1,1.081.6,6.221,6.221,0,0,1,1.659,1.554,3.776,3.776,0,0,1,.468,1.067c.068.312-.089,1.382.156,1.435a11.324,11.324,0,0,0,.188-1.484,7.849,7.849,0,0,0-.15-1.613,5.667,5.667,0,0,0-.991-2.251,5.5,5.5,0,0,0-1.982-1.441c-.416-.235-.8-.532-1.2-.75a6.407,6.407,0,0,0-.958-.542,2.325,2.325,0,0,0-1.367-.005,2.821,2.821,0,0,0-.46.386,1.529,1.529,0,0,1-.526.235c-.171.071-.189.219-.4.209s-.445-.325-.652-.4c-.558-.192-1.108-.4-1.664-.584-.232-.078-.469-.238-.7-.3s-.394,0-.616-.117a4.238,4.238,0,0,0-1.469-.549,10.659,10.659,0,0,0-3.715.6,6.841,6.841,0,0,0-2.162.847A3.9,3.9,0,0,0,634.2,332.1c-.243.607-.433,1.348-.655,1.989A4.052,4.052,0,0,0,633.391,335.907Z" transform="translate(-5629 -1950.766)" fill="#7f739b" fill-rule="evenodd" opacity="0.3" style="mix-blend-mode: multiply;isolation: isolate"/>
    <path id="Path_77173" data-name="Path 77173" d="M634.627,339.979a4.142,4.142,0,0,1,2.17,1.013c.456.461.776,1.192,1.258,1.612A6.4,6.4,0,0,0,640,343.79c.366.131.714.254,1.074.422a7.186,7.186,0,0,0,1.4.315,7.66,7.66,0,0,0,1.427.156c.515.043.788.266,1.309.07a19.2,19.2,0,0,1,2.553-.675,5.063,5.063,0,0,0,2.235-1.018c.459-.381,1.266-.78,1.453-1.536-.3-.2-.362.107-.6.182a5.719,5.719,0,0,0-.788.2,6.742,6.742,0,0,1-2.622.647c-.836-.016-1.674.026-2.51,0a4.582,4.582,0,0,1-1.114-.246c-.519-.148-1.018-.181-1.542-.295-1.452-.314-2.955-.25-4.328-.938A7.474,7.474,0,0,0,634.627,339.979Z" transform="translate(-5629 -1950.766)" fill="#c7ccdb" fill-rule="evenodd" opacity="0.5" style="mix-blend-mode: soft-light;isolation: isolate"/>
    <g id="Group_16904" data-name="Group 16904" transform="translate(-4920.214 -1970.143) rotate(133)" opacity="0.64">
      <path id="Path_77758" data-name="Path 77758" d="M645.77,330.35a3.731,3.731,0,0,0-1.628-.405,1.994,1.994,0,0,0-.649.271,1.533,1.533,0,0,1-.759.137,4.348,4.348,0,0,1-1.655-.81,5.242,5.242,0,0,0-2.768-.4,5.174,5.174,0,0,0-2.718,1.078,3.9,3.9,0,0,0-1.438,1.508,4.1,4.1,0,0,0-.437,2.241,3.245,3.245,0,0,0,.329,1.446,4.606,4.606,0,0,0,.765.831,3.415,3.415,0,0,0,.754.62c.314.18.644.278.958.452a15.919,15.919,0,0,0,1.763.908c.18.073.361.209.537.272a6.51,6.51,0,0,1,.651.19,4.029,4.029,0,0,0,1.625.506c.368,0,.691.137,1.061.133a2.652,2.652,0,0,1,.762.031,6.582,6.582,0,0,0,1.755.107,4.53,4.53,0,0,0,1.956-.506,3.592,3.592,0,0,0,.762-.432,6.08,6.08,0,0,0,.847-.837,4,4,0,0,0,.565-1.741,3.256,3.256,0,0,1,.084-.507,1.634,1.634,0,0,0-.058-.7,5.959,5.959,0,0,0-.241-1.068c-.147-.4-.323-.782-.477-1.177a5.169,5.169,0,0,0-.61-.966,2.446,2.446,0,0,0-.684-.8,3.729,3.729,0,0,0-.949-.488C645.524,330.137,645.189,330.12,645.77,330.35Z" transform="translate(-96.01 -271.03)" fill="#b2abc3" fill-rule="evenodd" opacity="0.3" style="mix-blend-mode: multiply;isolation: isolate"/>
      <path id="Path_77759" data-name="Path 77759" d="M633.381,334.07c.231-.368.452-.728.675-1.095.116-.19.212-.432.338-.6a6.351,6.351,0,0,1,.913-.821,1.472,1.472,0,0,1,.54-.314c.188-.076.367-.224.56-.284.21-.065.411-.082.62-.15a4.368,4.368,0,0,1,.764-.2c.273-.031.555.054.827.016a5.99,5.99,0,0,1,.762-.169,6.941,6.941,0,0,1,.855,0,6.472,6.472,0,0,0,.727.169,5.52,5.52,0,0,1,2.558.94c.247.136.466.2.7.352a4.329,4.329,0,0,0,.814.24c.194.072.382,0,.574.07.15.053.3.107.451.158a3.248,3.248,0,0,1,.792.436,4.56,4.56,0,0,1,1.216,1.139,2.772,2.772,0,0,1,.343.782c.05.229-.065,1.013.114,1.052a8.321,8.321,0,0,0,.138-1.088,5.748,5.748,0,0,0-.11-1.183,4.154,4.154,0,0,0-.727-1.65,4.033,4.033,0,0,0-1.453-1.056c-.3-.172-.584-.39-.878-.55a4.7,4.7,0,0,0-.7-.4,1.7,1.7,0,0,0-1,0,2.074,2.074,0,0,0-.337.283,1.12,1.12,0,0,1-.386.172c-.125.052-.138.161-.294.153s-.326-.238-.478-.29c-.409-.141-.812-.29-1.22-.428-.17-.057-.344-.174-.51-.222s-.289,0-.452-.086a3.107,3.107,0,0,0-1.077-.4,7.813,7.813,0,0,0-2.724.44,5.016,5.016,0,0,0-1.585.621,2.863,2.863,0,0,0-.761,1.177c-.178.445-.317.988-.48,1.458A2.969,2.969,0,0,0,633.381,334.07Z" transform="translate(-95.915 -271)" fill="#7f739b" fill-rule="evenodd" opacity="0.3" style="mix-blend-mode: multiply;isolation: isolate"/>
      <path id="Path_77760" data-name="Path 77760" d="M634.627,339.979a3.037,3.037,0,0,1,1.591.743c.334.338.569.874.922,1.182a4.691,4.691,0,0,0,1.424.87c.268.1.523.186.787.309a5.273,5.273,0,0,0,1.025.231,5.619,5.619,0,0,0,1.046.114c.378.031.578.195.96.051a14.069,14.069,0,0,1,1.872-.495,3.712,3.712,0,0,0,1.639-.746c.336-.279.928-.572,1.065-1.126-.221-.15-.266.078-.436.133a4.183,4.183,0,0,0-.578.149,4.943,4.943,0,0,1-1.922.474c-.613-.012-1.227.019-1.84,0a3.358,3.358,0,0,1-.817-.18c-.38-.108-.746-.133-1.13-.216a12.59,12.59,0,0,1-3.173-.688A5.479,5.479,0,0,0,634.627,339.979Z" transform="translate(-96.255 -273.924)" fill="#c7ccdb" fill-rule="evenodd" opacity="0.5" style="mix-blend-mode: soft-light;isolation: isolate"/>
    </g>
    <g id="Group_16905" data-name="Group 16905" transform="translate(-5677.97 -1987.707) rotate(45)" opacity="0.64">
      <path id="Path_77758-2" data-name="Path 77758" d="M642.451,330.016a2.7,2.7,0,0,0-1.18-.294,1.445,1.445,0,0,0-.47.2,1.111,1.111,0,0,1-.55.1,3.151,3.151,0,0,1-1.2-.587,3.8,3.8,0,0,0-2.006-.291,3.75,3.75,0,0,0-1.97.782,2.827,2.827,0,0,0-1.042,1.093,2.969,2.969,0,0,0-.317,1.624,2.352,2.352,0,0,0,.239,1.048,3.336,3.336,0,0,0,.554.6,2.476,2.476,0,0,0,.546.449c.227.13.467.2.694.328a11.526,11.526,0,0,0,1.278.658c.13.053.261.151.39.2a4.724,4.724,0,0,1,.472.138,2.92,2.92,0,0,0,1.178.367c.267,0,.5.1.769.1a1.921,1.921,0,0,1,.553.022,4.773,4.773,0,0,0,1.272.078,3.283,3.283,0,0,0,1.418-.367,2.6,2.6,0,0,0,.553-.313,4.4,4.4,0,0,0,.614-.607,2.9,2.9,0,0,0,.409-1.262,2.359,2.359,0,0,1,.061-.367,1.185,1.185,0,0,0-.042-.51,4.319,4.319,0,0,0-.175-.774c-.106-.291-.234-.567-.346-.853a3.747,3.747,0,0,0-.442-.7,1.773,1.773,0,0,0-.5-.58,2.7,2.7,0,0,0-.688-.353C642.273,329.862,642.03,329.85,642.451,330.016Z" transform="translate(-96.082 -271.053)" fill="#b2abc3" fill-rule="evenodd" opacity="0.3" style="mix-blend-mode: multiply;isolation: isolate"/>
      <path id="Path_77759-2" data-name="Path 77759" d="M633.373,332.681c.167-.267.328-.528.489-.793.084-.138.154-.313.245-.434a4.6,4.6,0,0,1,.661-.6,1.067,1.067,0,0,1,.392-.227c.137-.055.266-.163.406-.206s.3-.06.449-.108a3.166,3.166,0,0,1,.554-.148c.2-.023.4.039.6.012a4.347,4.347,0,0,1,.552-.122,5.029,5.029,0,0,1,.62,0,4.69,4.69,0,0,0,.527.123,4,4,0,0,1,1.854.681c.179.1.337.148.511.255a3.137,3.137,0,0,0,.59.174c.141.052.277,0,.416.05.109.038.214.078.327.114a2.355,2.355,0,0,1,.574.316,3.306,3.306,0,0,1,.882.826,2.011,2.011,0,0,1,.249.567c.036.166-.047.734.083.763a6.037,6.037,0,0,0,.1-.789,4.167,4.167,0,0,0-.08-.857,3.011,3.011,0,0,0-.527-1.2,2.923,2.923,0,0,0-1.053-.766c-.221-.125-.423-.283-.636-.4a3.4,3.4,0,0,0-.509-.288,1.235,1.235,0,0,0-.726,0,1.5,1.5,0,0,0-.245.205.812.812,0,0,1-.279.125c-.091.038-.1.116-.213.111s-.237-.173-.346-.21c-.3-.1-.589-.21-.884-.31-.123-.041-.249-.126-.369-.161s-.209,0-.327-.062a2.251,2.251,0,0,0-.781-.292,5.662,5.662,0,0,0-1.974.319,3.636,3.636,0,0,0-1.149.45,2.075,2.075,0,0,0-.552.853c-.129.323-.23.716-.348,1.057A2.152,2.152,0,0,0,633.373,332.681Z" transform="translate(-95.915 -271)" fill="#7f739b" fill-rule="evenodd" opacity="0.3" style="mix-blend-mode: multiply;isolation: isolate"/>
      <path id="Path_77760-2" data-name="Path 77760" d="M634.627,339.979a2.2,2.2,0,0,1,1.153.538c.242.245.412.633.668.857a3.4,3.4,0,0,0,1.032.63c.195.07.379.135.571.224a3.823,3.823,0,0,0,.743.167,4.069,4.069,0,0,0,.758.083c.274.023.419.141.7.037a10.2,10.2,0,0,1,1.357-.359,2.69,2.69,0,0,0,1.188-.541c.244-.2.673-.414.772-.816-.16-.109-.192.057-.316.1a3.028,3.028,0,0,0-.419.108,3.583,3.583,0,0,1-1.393.344c-.444-.008-.89.014-1.334,0a2.434,2.434,0,0,1-.592-.131c-.276-.079-.541-.1-.819-.157a9.126,9.126,0,0,1-2.3-.5A3.972,3.972,0,0,0,634.627,339.979Z" transform="translate(-96.512 -276.134)" fill="#c7ccdb" fill-rule="evenodd" opacity="0.5" style="mix-blend-mode: soft-light;isolation: isolate"/>
    </g>
    <g id="Group_16906" data-name="Group 16906" transform="matrix(0.616, -0.788, 0.788, 0.616, -5252.709, -1171.141)">
      <path id="Path_77758-3" data-name="Path 77758" d="M644.746,330.247a3.415,3.415,0,0,0-1.489-.371,1.825,1.825,0,0,0-.594.248,1.4,1.4,0,0,1-.7.125,3.98,3.98,0,0,1-1.514-.741,4.8,4.8,0,0,0-2.533-.368,4.735,4.735,0,0,0-2.487.987,3.57,3.57,0,0,0-1.316,1.38,3.75,3.75,0,0,0-.4,2.051,2.97,2.97,0,0,0,.3,1.323,4.215,4.215,0,0,0,.7.761,3.126,3.126,0,0,0,.69.567c.287.164.589.254.877.414a14.547,14.547,0,0,0,1.613.831c.164.066.33.191.492.249a5.967,5.967,0,0,1,.6.174,3.687,3.687,0,0,0,1.487.463c.337,0,.632.125.971.122a2.429,2.429,0,0,1,.7.028,6.02,6.02,0,0,0,1.606.1,4.145,4.145,0,0,0,1.79-.463,3.286,3.286,0,0,0,.7-.4,5.563,5.563,0,0,0,.775-.766,3.655,3.655,0,0,0,.517-1.593,2.989,2.989,0,0,1,.077-.464,1.5,1.5,0,0,0-.053-.644,5.452,5.452,0,0,0-.221-.977c-.134-.367-.3-.716-.437-1.077a4.728,4.728,0,0,0-.558-.884,2.239,2.239,0,0,0-.626-.733,3.41,3.41,0,0,0-.869-.446C644.521,330.052,644.214,330.037,644.746,330.247Z" transform="translate(-96.032 -271.037)" fill="#b2abc3" fill-rule="evenodd" opacity="0.3" style="mix-blend-mode: multiply;isolation: isolate"/>
      <path id="Path_77759-3" data-name="Path 77759" d="M633.378,333.641c.211-.337.414-.666.618-1,.106-.174.194-.4.309-.548a5.814,5.814,0,0,1,.835-.751,1.347,1.347,0,0,1,.494-.287c.172-.07.336-.205.513-.26.192-.059.376-.075.567-.137a3.991,3.991,0,0,1,.7-.187c.25-.029.508.05.757.015a5.49,5.49,0,0,1,.7-.154,6.353,6.353,0,0,1,.783,0,5.931,5.931,0,0,0,.665.155,5.052,5.052,0,0,1,2.341.86c.226.125.426.186.645.322a3.964,3.964,0,0,0,.745.22c.178.066.35,0,.525.064.138.048.27.1.413.144a2.97,2.97,0,0,1,.725.4,4.173,4.173,0,0,1,1.113,1.043,2.533,2.533,0,0,1,.314.716c.046.209-.06.927.1.963a7.6,7.6,0,0,0,.126-1,5.267,5.267,0,0,0-.1-1.082,3.8,3.8,0,0,0-.665-1.51,3.69,3.69,0,0,0-1.33-.967c-.279-.158-.534-.357-.8-.5a4.3,4.3,0,0,0-.643-.364,1.559,1.559,0,0,0-.917,0,1.892,1.892,0,0,0-.309.259,1.026,1.026,0,0,1-.353.158c-.115.048-.127.147-.269.14s-.3-.218-.437-.266c-.374-.129-.743-.265-1.116-.392-.156-.052-.315-.16-.466-.2s-.264,0-.413-.079a2.842,2.842,0,0,0-.986-.368,7.151,7.151,0,0,0-2.492.4,4.589,4.589,0,0,0-1.45.568,2.619,2.619,0,0,0-.7,1.077c-.163.407-.29.9-.439,1.334A2.718,2.718,0,0,0,633.378,333.641Z" transform="translate(-95.915 -271)" fill="#7f739b" fill-rule="evenodd" opacity="0.3" style="mix-blend-mode: multiply;isolation: isolate"/>
      <path id="Path_77760-3" data-name="Path 77760" d="M634.627,339.979a2.779,2.779,0,0,1,1.456.68c.306.309.521.8.844,1.081a4.292,4.292,0,0,0,1.3.8c.246.088.479.17.721.283a4.821,4.821,0,0,0,.938.211,5.14,5.14,0,0,0,.957.1c.346.029.529.178.878.047a12.879,12.879,0,0,1,1.713-.453,3.4,3.4,0,0,0,1.5-.683c.308-.256.849-.523.975-1.03-.2-.138-.243.072-.4.122a3.834,3.834,0,0,0-.529.136,4.524,4.524,0,0,1-1.759.434c-.561-.011-1.123.017-1.684,0a3.073,3.073,0,0,1-.747-.165c-.348-.1-.683-.121-1.034-.2a11.521,11.521,0,0,1-2.9-.629A5.014,5.014,0,0,0,634.627,339.979Z" transform="translate(-96.334 -274.606)" fill="#c7ccdb" fill-rule="evenodd" opacity="0.5" style="mix-blend-mode: soft-light;isolation: isolate"/>
    </g>
    <g id="Group_16907" data-name="Group 16907" transform="matrix(0.995, -0.105, 0.105, 0.995, -5326.722, -1622.299)">
      <path id="Path_77758-4" data-name="Path 77758" d="M652.1,330.986a5.69,5.69,0,0,0-2.482-.618,3.041,3.041,0,0,0-.989.414,2.336,2.336,0,0,1-1.158.209,6.63,6.63,0,0,1-2.523-1.235c-1.344-.793-2.776-.586-4.22-.613a7.89,7.89,0,0,0-4.144,1.644,5.948,5.948,0,0,0-2.193,2.3,6.249,6.249,0,0,0-.666,3.417,4.949,4.949,0,0,0,.5,2.2,7.024,7.024,0,0,0,1.166,1.268,5.209,5.209,0,0,0,1.149.945c.478.274.981.424,1.461.69A24.244,24.244,0,0,0,640.69,343c.274.111.55.319.819.415a9.937,9.937,0,0,1,.993.29,6.144,6.144,0,0,0,2.477.771c.561,0,1.053.209,1.617.2a4.047,4.047,0,0,1,1.163.047,10.032,10.032,0,0,0,2.676.163,6.906,6.906,0,0,0,2.983-.771,5.473,5.473,0,0,0,1.162-.658,9.277,9.277,0,0,0,1.291-1.277,6.091,6.091,0,0,0,.861-2.655,4.974,4.974,0,0,1,.129-.773,2.489,2.489,0,0,0-.088-1.073,9.087,9.087,0,0,0-.368-1.629c-.224-.611-.492-1.193-.728-1.8a7.883,7.883,0,0,0-.93-1.473,3.73,3.73,0,0,0-1.043-1.221,5.682,5.682,0,0,0-1.448-.743C651.723,330.662,651.212,330.636,652.1,330.986Z" transform="translate(-95.872 -270.987)" fill="#b2abc3" fill-rule="evenodd" opacity="0.3" style="mix-blend-mode: multiply;isolation: isolate"/>
      <path id="Path_77759-4" data-name="Path 77759" d="M633.4,336.718c.352-.561.69-1.11,1.029-1.669.177-.29.323-.658.515-.913a9.692,9.692,0,0,1,1.392-1.252,2.244,2.244,0,0,1,.824-.478c.287-.116.56-.342.854-.433.32-.1.627-.125.945-.228a6.651,6.651,0,0,1,1.165-.311c.416-.048.846.083,1.261.025a9.141,9.141,0,0,1,1.161-.257,10.585,10.585,0,0,1,1.3-.007,9.879,9.879,0,0,0,1.108.258,8.418,8.418,0,0,1,3.9,1.433c.377.208.71.311,1.074.537a6.608,6.608,0,0,0,1.242.367c.3.11.583,0,.875.106.229.081.451.163.688.24a4.951,4.951,0,0,1,1.208.665,6.955,6.955,0,0,1,1.854,1.737,4.222,4.222,0,0,1,.523,1.193c.076.349-.1,1.545.174,1.6a12.677,12.677,0,0,0,.21-1.659,8.773,8.773,0,0,0-.168-1.8,6.332,6.332,0,0,0-1.108-2.516,6.148,6.148,0,0,0-2.215-1.611c-.465-.263-.89-.595-1.338-.838a7.17,7.17,0,0,0-1.071-.606,2.6,2.6,0,0,0-1.528-.006,3.155,3.155,0,0,0-.514.431,1.709,1.709,0,0,1-.588.263c-.191.079-.211.245-.448.234s-.5-.363-.729-.443c-.624-.215-1.239-.442-1.86-.653-.259-.087-.524-.266-.777-.339s-.44,0-.689-.131a4.735,4.735,0,0,0-1.642-.614,11.915,11.915,0,0,0-4.153.671,7.647,7.647,0,0,0-2.417.947,4.365,4.365,0,0,0-1.16,1.8c-.272.679-.484,1.507-.732,2.223A4.528,4.528,0,0,0,633.4,336.718Z" transform="translate(-95.915 -271)" fill="#7f739b" fill-rule="evenodd" opacity="0.3" style="mix-blend-mode: multiply;isolation: isolate"/>
      <path id="Path_77760-4" data-name="Path 77760" d="M634.627,339.979a4.63,4.63,0,0,1,2.426,1.132c.51.515.868,1.332,1.406,1.8a7.15,7.15,0,0,0,2.172,1.326c.409.146.8.284,1.2.472a8.033,8.033,0,0,0,1.563.352,8.567,8.567,0,0,0,1.6.174c.576.048.881.3,1.463.078a21.451,21.451,0,0,1,2.854-.755,5.66,5.66,0,0,0,2.5-1.138c.513-.426,1.415-.872,1.624-1.717-.336-.229-.4.12-.665.2a6.39,6.39,0,0,0-.881.227,7.537,7.537,0,0,1-2.931.723c-.934-.018-1.871.029-2.806,0a5.121,5.121,0,0,1-1.245-.275c-.58-.165-1.138-.2-1.724-.33-1.623-.351-3.3-.279-4.838-1.049A8.355,8.355,0,0,0,634.627,339.979Z" transform="translate(-95.764 -269.709)" fill="#c7ccdb" fill-rule="evenodd" opacity="0.5" style="mix-blend-mode: soft-light;isolation: isolate"/>
    </g>
    <g id="Group_16908" data-name="Group 16908" transform="matrix(0.995, -0.105, 0.105, 0.995, -5172.722, -1574.299)" opacity="0.64">
      <path id="Path_77758-5" data-name="Path 77758" d="M652.1,330.986a5.69,5.69,0,0,0-2.482-.618,3.041,3.041,0,0,0-.989.414,2.336,2.336,0,0,1-1.158.209,6.63,6.63,0,0,1-2.523-1.235c-1.344-.793-2.776-.586-4.22-.613a7.89,7.89,0,0,0-4.144,1.644,5.948,5.948,0,0,0-2.193,2.3,6.249,6.249,0,0,0-.666,3.417,4.949,4.949,0,0,0,.5,2.2,7.024,7.024,0,0,0,1.166,1.268,5.209,5.209,0,0,0,1.149.945c.478.274.981.424,1.461.69A24.244,24.244,0,0,0,640.69,343c.274.111.55.319.819.415a9.937,9.937,0,0,1,.993.29,6.144,6.144,0,0,0,2.477.771c.561,0,1.053.209,1.617.2a4.047,4.047,0,0,1,1.163.047,10.032,10.032,0,0,0,2.676.163,6.906,6.906,0,0,0,2.983-.771,5.473,5.473,0,0,0,1.162-.658,9.277,9.277,0,0,0,1.291-1.277,6.091,6.091,0,0,0,.861-2.655,4.974,4.974,0,0,1,.129-.773,2.489,2.489,0,0,0-.088-1.073,9.087,9.087,0,0,0-.368-1.629c-.224-.611-.492-1.193-.728-1.8a7.883,7.883,0,0,0-.93-1.473,3.73,3.73,0,0,0-1.043-1.221,5.682,5.682,0,0,0-1.448-.743C651.723,330.662,651.212,330.636,652.1,330.986Z" transform="translate(-95.872 -270.987)" fill="#b2abc3" fill-rule="evenodd" opacity="0.3" style="mix-blend-mode: multiply;isolation: isolate"/>
      <path id="Path_77759-5" data-name="Path 77759" d="M633.4,336.718c.352-.561.69-1.11,1.029-1.669.177-.29.323-.658.515-.913a9.692,9.692,0,0,1,1.392-1.252,2.244,2.244,0,0,1,.824-.478c.287-.116.56-.342.854-.433.32-.1.627-.125.945-.228a6.651,6.651,0,0,1,1.165-.311c.416-.048.846.083,1.261.025a9.141,9.141,0,0,1,1.161-.257,10.585,10.585,0,0,1,1.3-.007,9.879,9.879,0,0,0,1.108.258,8.418,8.418,0,0,1,3.9,1.433c.377.208.71.311,1.074.537a6.608,6.608,0,0,0,1.242.367c.3.11.583,0,.875.106.229.081.451.163.688.24a4.951,4.951,0,0,1,1.208.665,6.955,6.955,0,0,1,1.854,1.737,4.222,4.222,0,0,1,.523,1.193c.076.349-.1,1.545.174,1.6a12.677,12.677,0,0,0,.21-1.659,8.773,8.773,0,0,0-.168-1.8,6.332,6.332,0,0,0-1.108-2.516,6.148,6.148,0,0,0-2.215-1.611c-.465-.263-.89-.595-1.338-.838a7.17,7.17,0,0,0-1.071-.606,2.6,2.6,0,0,0-1.528-.006,3.155,3.155,0,0,0-.514.431,1.709,1.709,0,0,1-.588.263c-.191.079-.211.245-.448.234s-.5-.363-.729-.443c-.624-.215-1.239-.442-1.86-.653-.259-.087-.524-.266-.777-.339s-.44,0-.689-.131a4.735,4.735,0,0,0-1.642-.614,11.915,11.915,0,0,0-4.153.671,7.647,7.647,0,0,0-2.417.947,4.365,4.365,0,0,0-1.16,1.8c-.272.679-.484,1.507-.732,2.223A4.528,4.528,0,0,0,633.4,336.718Z" transform="translate(-95.915 -271)" fill="#7f739b" fill-rule="evenodd" opacity="0.3" style="mix-blend-mode: multiply;isolation: isolate"/>
      <path id="Path_77760-5" data-name="Path 77760" d="M634.627,339.979a4.63,4.63,0,0,1,2.426,1.132c.51.515.868,1.332,1.406,1.8a7.15,7.15,0,0,0,2.172,1.326c.409.146.8.284,1.2.472a8.033,8.033,0,0,0,1.563.352,8.567,8.567,0,0,0,1.6.174c.576.048.881.3,1.463.078a21.451,21.451,0,0,1,2.854-.755,5.66,5.66,0,0,0,2.5-1.138c.513-.426,1.415-.872,1.624-1.717-.336-.229-.4.12-.665.2a6.39,6.39,0,0,0-.881.227,7.537,7.537,0,0,1-2.931.723c-.934-.018-1.871.029-2.806,0a5.121,5.121,0,0,1-1.245-.275c-.58-.165-1.138-.2-1.724-.33-1.623-.351-3.3-.279-4.838-1.049A8.355,8.355,0,0,0,634.627,339.979Z" transform="translate(-95.764 -269.709)" fill="#c7ccdb" fill-rule="evenodd" opacity="0.5" style="mix-blend-mode: soft-light;isolation: isolate"/>
    </g>
    <g id="Group_16909" data-name="Group 16909" transform="matrix(0.995, -0.105, 0.105, 0.995, -4865.722, -1626.299)" opacity="0.64">
      <path id="Path_77758-6" data-name="Path 77758" d="M644.248,330.2a3.261,3.261,0,0,0-1.422-.354,1.743,1.743,0,0,0-.567.237,1.339,1.339,0,0,1-.664.12,3.8,3.8,0,0,1-1.446-.708,4.58,4.58,0,0,0-2.418-.351,4.521,4.521,0,0,0-2.375.942A3.408,3.408,0,0,0,634.1,331.4a3.58,3.58,0,0,0-.382,1.958,2.835,2.835,0,0,0,.288,1.263,4.023,4.023,0,0,0,.668.726,2.984,2.984,0,0,0,.659.541c.274.157.562.243.837.4a13.9,13.9,0,0,0,1.541.794c.157.063.315.183.47.238a5.7,5.7,0,0,1,.569.166,3.521,3.521,0,0,0,1.419.442c.322,0,.6.12.927.117a2.32,2.32,0,0,1,.666.027,5.749,5.749,0,0,0,1.534.094,3.959,3.959,0,0,0,1.709-.442,3.138,3.138,0,0,0,.666-.377,5.314,5.314,0,0,0,.74-.732,3.491,3.491,0,0,0,.493-1.521,2.845,2.845,0,0,1,.074-.443,1.428,1.428,0,0,0-.051-.615,5.211,5.211,0,0,0-.211-.933c-.128-.35-.282-.684-.417-1.029a4.515,4.515,0,0,0-.533-.844,2.137,2.137,0,0,0-.6-.7,3.257,3.257,0,0,0-.83-.426C644.032,330.011,643.74,330,644.248,330.2Z" transform="translate(-96.043 -271.041)" fill="#b2abc3" fill-rule="evenodd" opacity="0.3" style="mix-blend-mode: multiply;isolation: isolate"/>
      <path id="Path_77759-6" data-name="Path 77759" d="M633.377,333.433c.2-.322.4-.636.59-.956.1-.166.185-.377.3-.523a5.55,5.55,0,0,1,.8-.717,1.285,1.285,0,0,1,.472-.274c.165-.067.321-.2.489-.248s.359-.072.541-.131a3.814,3.814,0,0,1,.668-.178c.238-.028.485.047.723.014a5.238,5.238,0,0,1,.666-.147,6.068,6.068,0,0,1,.747,0,5.663,5.663,0,0,0,.635.148,4.824,4.824,0,0,1,2.235.821c.216.119.407.178.616.307a3.785,3.785,0,0,0,.712.21c.17.063.334,0,.5.061.131.046.258.094.394.138a2.838,2.838,0,0,1,.692.381,3.986,3.986,0,0,1,1.063,1,2.42,2.42,0,0,1,.3.683c.043.2-.057.885.1.919a7.273,7.273,0,0,0,.12-.951,5.027,5.027,0,0,0-.1-1.033,3.629,3.629,0,0,0-.635-1.442,3.523,3.523,0,0,0-1.27-.923c-.266-.151-.51-.341-.767-.48a4.1,4.1,0,0,0-.614-.347,1.489,1.489,0,0,0-.876,0,1.81,1.81,0,0,0-.295.247.979.979,0,0,1-.337.151c-.11.046-.121.14-.257.134s-.285-.208-.418-.254c-.357-.123-.71-.253-1.066-.374-.149-.05-.3-.152-.445-.194s-.252,0-.395-.075a2.714,2.714,0,0,0-.941-.352,6.827,6.827,0,0,0-2.38.384,4.382,4.382,0,0,0-1.385.543,2.5,2.5,0,0,0-.665,1.029c-.156.389-.277.864-.42,1.274A2.594,2.594,0,0,0,633.377,333.433Z" transform="translate(-95.915 -271)" fill="#7f739b" fill-rule="evenodd" opacity="0.3" style="mix-blend-mode: multiply;isolation: isolate"/>
      <path id="Path_77760-6" data-name="Path 77760" d="M634.627,339.979a2.653,2.653,0,0,1,1.39.649c.292.3.5.764.806,1.033a4.1,4.1,0,0,0,1.245.76c.234.084.457.163.688.27a4.6,4.6,0,0,0,.9.2,4.909,4.909,0,0,0,.914.1c.33.028.5.17.839.045a12.3,12.3,0,0,1,1.635-.432,3.243,3.243,0,0,0,1.432-.652c.294-.244.811-.5.931-.984-.193-.131-.232.069-.381.117a3.66,3.66,0,0,0-.5.13,4.319,4.319,0,0,1-1.68.414c-.536-.01-1.072.017-1.608,0a2.935,2.935,0,0,1-.714-.158c-.332-.095-.652-.116-.988-.189a11,11,0,0,1-2.773-.6A4.788,4.788,0,0,0,634.627,339.979Z" transform="translate(-96.373 -274.938)" fill="#c7ccdb" fill-rule="evenodd" opacity="0.5" style="mix-blend-mode: soft-light;isolation: isolate"/>
    </g>
    <path id="Path_77155-3" data-name="Path 77155" d="M540.417,219.11c-.837,2.008-1.8,3.391-1.409,5.475a6.645,6.645,0,0,0,2.889,4.433c1.131.885,3.553,2.8,4.957,1.481,1.423-1.339,2.1-4.831,1.513-6.592-1.006-3.023-3.293-4.91-6.47-4.8Z" transform="matrix(-0.174, -0.985, 0.985, -0.174, -5069.744, -1011.383)" fill="#333231" fill-rule="evenodd"/>
    <path id="Path_77156-3" data-name="Path 77156" d="M534.006,215.164c-.9-1.869-2.23-3.253-.886-4.916.9-1.112,1.387-1.367,2.37-.283,1.312,1.448,1.524,3.957-.991,4.213Z" transform="matrix(-0.174, -0.985, 0.985, -0.174, -5078.318, -1008.105)" fill="#333231" fill-rule="evenodd"/>
    <path id="Path_77157-3" data-name="Path 77157" d="M561.624,217.137c.293,1.767.092,4.126,2.224,4.4.719.093,1.39.041,1.688-.744.545-1.433-1.7-2.866-2.926-2.669Z" transform="matrix(-0.174, -0.985, 0.985, -0.174, -5078.318, -1008.105)" fill="#333231" fill-rule="evenodd"/>
    <path id="Path_77763" data-name="Path 77763" d="M561.624,217.137c.293,1.767.092,4.126,2.224,4.4.719.093,1.39.041,1.688-.744.545-1.433-1.7-2.866-2.926-2.669Z" transform="matrix(-0.174, -0.985, 0.985, -0.174, -5291.318, -1003.754)" fill="#333231" fill-rule="evenodd"/>
    <path id="Path_77765" data-name="Path 77765" d="M561.624,221.842c.371-1.875.117-4.378,2.817-4.669.911-.1,1.76-.044,2.138.789.69,1.521-2.158,3.041-3.706,2.832Z" transform="matrix(-0.485, -0.875, 0.875, -0.485, -5158.774, -966.228)" fill="#333231" fill-rule="evenodd"/>
    <path id="Path_77158-3" data-name="Path 77158" d="M570.994,243.769c1.076-2.007,1.782-3.877,4.329-3.883a3.926,3.926,0,0,1,3.1,2.02,1.814,1.814,0,0,1-.239,2.624c-1.109,1.108-2.795.716-4.232.718Z" transform="matrix(-0.174, -0.985, 0.985, -0.174, -5078.318, -1008.105)" fill="#333231" fill-rule="evenodd"/>
    <path id="Path_77764" data-name="Path 77764" d="M570.994,243.769c1.076-2.007,1.782-3.877,4.329-3.883a3.926,3.926,0,0,1,3.1,2.02,1.814,1.814,0,0,1-.239,2.624c-1.109,1.108-2.795.716-4.232.718Z" transform="matrix(-0.174, -0.985, 0.985, -0.174, -5291.318, -1003.754)" fill="#333231" fill-rule="evenodd"/>
    <path id="Path_77766" data-name="Path 77766" d="M570.994,242.362c.917,3.217,1.518,6.215,3.689,6.225,1.087,0,2.062-1.5,2.642-3.238a4.811,4.811,0,0,0-.2-4.207c-.945-1.776-2.382-1.148-3.606-1.151Z" transform="matrix(-0.485, -0.875, 0.875, -0.485, -5150.831, -941.088)" fill="#333231" fill-rule="evenodd"/>
    <path id="Path_77159-3" data-name="Path 77159" d="M520.2,292.1c.187,1.638-.118,3.711,1.421,4.53a4.967,4.967,0,0,0,3.163.31,4.107,4.107,0,0,0,3.556-2.868c1.235-3.226-4.843-5.462-7.153-3.945Z" transform="matrix(-0.174, -0.985, 0.985, -0.174, -5078.318, -1008.105)" fill="#333231" fill-rule="evenodd"/>
    <path id="Path_77155-4" data-name="Path 77155" d="M1.5,11.841C.663,9.833-.3,8.45.091,6.366A6.645,6.645,0,0,1,2.98,1.933C4.111,1.048,6.533-.871,7.937.452c1.423,1.339,2.1,4.831,1.513,6.592-1.006,3.023-3.293,4.91-6.47,4.8Z" transform="matrix(0.174, -0.985, 0.985, 0.174, -4698.395, -1589.387)" fill="#333231" fill-rule="evenodd"/>
    <path id="Path_77762" data-name="Path 77762" d="M1.5,11.841C.663,9.833-.3,8.45.091,6.366A6.645,6.645,0,0,1,2.98,1.933C4.111,1.048,6.533-.871,7.937.452c1.423,1.339,2.1,4.831,1.513,6.592-1.006,3.023-3.293,4.91-6.47,4.8Z" transform="matrix(0.174, -0.985, 0.985, 0.174, -4564.395, -1595.173)" fill="#333231" fill-rule="evenodd"/>
    <path id="Path_77156-4" data-name="Path 77156" d="M1.458,0C.555,1.869-.772,3.253.572,4.916c.9,1.112,1.387,1.367,2.37.283C4.254,3.751,4.466,1.242,1.951.986Z" transform="matrix(0.174, -0.985, 0.985, 0.174, -4649.955, -1569.925)" fill="#333231" fill-rule="evenodd"/>
    <path id="Path_77157-4" data-name="Path 77157" d="M0,4.434C.293,2.667.092.308,2.224.034c.719-.093,1.39-.041,1.688.744.545,1.433-1.7,2.866-2.926,2.669Z" transform="matrix(0.174, -0.985, 0.985, 0.174, -4662.215, -1583.395)" fill="#333231" fill-rule="evenodd"/>
    <path id="Path_77158-4" data-name="Path 77158" d="M0,1.545C1.076,3.552,1.782,5.422,4.329,5.428a3.926,3.926,0,0,0,3.1-2.02A1.814,1.814,0,0,0,7.191.784C6.082-.324,4.4.068,2.959.066Z" transform="matrix(0.174, -0.985, 0.985, 0.174, -4672.97, -1613.022)" fill="#333231" fill-rule="evenodd"/>
    <path id="Path_77159-4" data-name="Path 77159" d="M0,4.956C.187,3.318-.118,1.245,1.421.426A4.967,4.967,0,0,1,4.584.116,4.107,4.107,0,0,1,8.14,2.984C9.375,6.21,3.3,8.446.987,6.929Z" transform="matrix(0.174, -0.985, 0.985, 0.174, -4732.747, -1571.982)" fill="#333231" fill-rule="evenodd"/>
    <path id="Path_77690" data-name="Path 77690" d="M127.466,349.643c-1.578-.487-3.567-1.507-5.016-1.944-1.069-.322-2.466.148-3.6-.02a27.985,27.985,0,0,1-8.225-2.506c-3.567-1.836-8.019-3.752-10.478-7.054-1.928-2.592.734-5.541,2.264-7.771a25.44,25.44,0,0,0,2.539-5.125c1.139-2.912,3.071-5.714,4.577-8.476a42.561,42.561,0,0,1,5.142-6.689c2.117-2.5,4.217-4.678,5.781-7.631,2.668-5.036,5.206-12.27,11.791-12.163,2.221.036,3.513.631,4.644,2.545,1.049,1.777.827,3.942,1.3,5.9.489,2.038.142,4.484.142,6.569v18.133c0,1.672.053,3.352.015,5.022-.035,1.545-.517,2.938-.671,4.467a25.516,25.516,0,0,1-2.057,8.457,8.659,8.659,0,0,1-1.738,2.539A28.426,28.426,0,0,1,127.466,349.643Z" transform="matrix(0.914, 0.407, -0.407, 0.914, -4914.036, -1933.029)" fill="#9e9baf" fill-rule="evenodd" opacity="0.12" style="mix-blend-mode: multiply;isolation: isolate"/>
    <path id="Path_77767" data-name="Path 77767" d="M18.231,38.664c-1.027-.317-2.323-.981-3.266-1.266a18.321,18.321,0,0,0-2.347-.013,18.222,18.222,0,0,1-5.356-1.632C4.939,34.558,2.04,33.311.439,31.16c-1.255-1.688.478-3.608,1.474-5.06a16.565,16.565,0,0,0,1.653-3.337,51.151,51.151,0,0,1,2.98-5.519,27.714,27.714,0,0,1,3.348-4.356A27.873,27.873,0,0,0,13.659,7.92C15.4,4.641,17.049-.069,21.336,0A3.069,3.069,0,0,1,24.36,1.658c.683,1.157.538,2.567.845,3.842A19.175,19.175,0,0,1,25.3,9.777V21.585c0,1.088.034,2.183.01,3.27-.023,1.006-.337,1.913-.437,2.909a16.614,16.614,0,0,1-1.34,5.507A5.638,5.638,0,0,1,22.4,34.923,18.509,18.509,0,0,1,18.231,38.664Z" transform="matrix(-0.914, -0.407, 0.407, -0.914, -4717.413, -1555.195)" fill="#9e9baf" fill-rule="evenodd" opacity="0.2" style="mix-blend-mode: multiply;isolation: isolate"/>
    <path id="Path_77773" data-name="Path 77773" d="M70.28,80.154H83.812l5.4-2.84,4.195,2.84,6.275-1.213,3.436,1.213h59.628l117.571-.941,3.382-2.625a12.709,12.709,0,0,0,4.732,1.983c2.491.383,11.171.891,11.171.891l140.43-.775,88.253.075,2.665-6.3s.921,4.048,2.989,4.807,12.368.76,12.368.76l57.81.735,64.555,2.029,19.364-2.764h76.807l129.44-.386,38.36.747,76.969.673,63.605.66,26.154,1.084,30.215-1.582,148.134.909,12.529-1.071,6.625-.449" transform="translate(-5412.085 -1629.766)" fill="none" stroke="#3a3b3c" stroke-linecap="round" stroke-width="1"/>
    <g id="Group_16902" data-name="Group 16902" transform="matrix(0.995, -0.105, 0.105, 0.995, -4797.722, -1568.299)" opacity="0.64">
      <path id="Path_77758-7" data-name="Path 77758" d="M644.248,330.2a3.261,3.261,0,0,0-1.422-.354,1.743,1.743,0,0,0-.567.237,1.339,1.339,0,0,1-.664.12,3.8,3.8,0,0,1-1.446-.708,4.58,4.58,0,0,0-2.418-.351,4.521,4.521,0,0,0-2.375.942A3.408,3.408,0,0,0,634.1,331.4a3.58,3.58,0,0,0-.382,1.958,2.835,2.835,0,0,0,.288,1.263,4.023,4.023,0,0,0,.668.726,2.984,2.984,0,0,0,.659.541c.274.157.562.243.837.4a13.9,13.9,0,0,0,1.541.794c.157.063.315.183.47.238a5.7,5.7,0,0,1,.569.166,3.521,3.521,0,0,0,1.419.442c.322,0,.6.12.927.117a2.32,2.32,0,0,1,.666.027,5.749,5.749,0,0,0,1.534.094,3.959,3.959,0,0,0,1.709-.442,3.138,3.138,0,0,0,.666-.377,5.314,5.314,0,0,0,.74-.732,3.491,3.491,0,0,0,.493-1.521,2.845,2.845,0,0,1,.074-.443,1.428,1.428,0,0,0-.051-.615,5.211,5.211,0,0,0-.211-.933c-.128-.35-.282-.684-.417-1.029a4.515,4.515,0,0,0-.533-.844,2.137,2.137,0,0,0-.6-.7,3.257,3.257,0,0,0-.83-.426C644.032,330.011,643.74,330,644.248,330.2Z" transform="translate(-96.043 -271.041)" fill="#b2abc3" fill-rule="evenodd" opacity="0.3" style="mix-blend-mode: multiply;isolation: isolate"/>
      <path id="Path_77759-7" data-name="Path 77759" d="M633.377,333.433c.2-.322.4-.636.59-.956.1-.166.185-.377.3-.523a5.55,5.55,0,0,1,.8-.717,1.285,1.285,0,0,1,.472-.274c.165-.067.321-.2.489-.248s.359-.072.541-.131a3.814,3.814,0,0,1,.668-.178c.238-.028.485.047.723.014a5.238,5.238,0,0,1,.666-.147,6.068,6.068,0,0,1,.747,0,5.663,5.663,0,0,0,.635.148,4.824,4.824,0,0,1,2.235.821c.216.119.407.178.616.307a3.785,3.785,0,0,0,.712.21c.17.063.334,0,.5.061.131.046.258.094.394.138a2.838,2.838,0,0,1,.692.381,3.986,3.986,0,0,1,1.063,1,2.42,2.42,0,0,1,.3.683c.043.2-.057.885.1.919a7.273,7.273,0,0,0,.12-.951,5.027,5.027,0,0,0-.1-1.033,3.629,3.629,0,0,0-.635-1.442,3.523,3.523,0,0,0-1.27-.923c-.266-.151-.51-.341-.767-.48a4.1,4.1,0,0,0-.614-.347,1.489,1.489,0,0,0-.876,0,1.81,1.81,0,0,0-.295.247.979.979,0,0,1-.337.151c-.11.046-.121.14-.257.134s-.285-.208-.418-.254c-.357-.123-.71-.253-1.066-.374-.149-.05-.3-.152-.445-.194s-.252,0-.395-.075a2.714,2.714,0,0,0-.941-.352,6.827,6.827,0,0,0-2.38.384,4.382,4.382,0,0,0-1.385.543,2.5,2.5,0,0,0-.665,1.029c-.156.389-.277.864-.42,1.274A2.594,2.594,0,0,0,633.377,333.433Z" transform="translate(-95.915 -271)" fill="#7f739b" fill-rule="evenodd" opacity="0.3" style="mix-blend-mode: multiply;isolation: isolate"/>
      <path id="Path_77760-7" data-name="Path 77760" d="M634.627,339.979a2.653,2.653,0,0,1,1.39.649c.292.3.5.764.806,1.033a4.1,4.1,0,0,0,1.245.76c.234.084.457.163.688.27a4.6,4.6,0,0,0,.9.2,4.909,4.909,0,0,0,.914.1c.33.028.5.17.839.045a12.3,12.3,0,0,1,1.635-.432,3.243,3.243,0,0,0,1.432-.652c.294-.244.811-.5.931-.984-.193-.131-.232.069-.381.117a3.66,3.66,0,0,0-.5.13,4.319,4.319,0,0,1-1.68.414c-.536-.01-1.072.017-1.608,0a2.935,2.935,0,0,1-.714-.158c-.332-.095-.652-.116-.988-.189a11,11,0,0,1-2.773-.6A4.788,4.788,0,0,0,634.627,339.979Z" transform="translate(-96.373 -274.938)" fill="#c7ccdb" fill-rule="evenodd" opacity="0.5" style="mix-blend-mode: soft-light;isolation: isolate"/>
    </g>
    <path id="Path_77758-8" data-name="Path 77758" d="M650.7,330.846a5.258,5.258,0,0,0-2.294-.571,2.811,2.811,0,0,0-.914.382,2.16,2.16,0,0,1-1.07.193,6.128,6.128,0,0,1-2.332-1.142c-1.242-.733-2.565-.541-3.9-.566a7.29,7.29,0,0,0-3.83,1.52,5.5,5.5,0,0,0-2.027,2.125,5.773,5.773,0,0,0-.616,3.158,4.574,4.574,0,0,0,.464,2.037,6.489,6.489,0,0,0,1.078,1.172,4.811,4.811,0,0,0,1.062.873c.442.253.907.392,1.35.637a22.429,22.429,0,0,0,2.485,1.28c.253.1.508.294.757.383a9.173,9.173,0,0,1,.917.268,5.679,5.679,0,0,0,2.289.713c.519,0,.973.193,1.495.188a3.74,3.74,0,0,1,1.074.043,9.274,9.274,0,0,0,2.473.151,6.384,6.384,0,0,0,2.756-.713,5.061,5.061,0,0,0,1.074-.609,8.572,8.572,0,0,0,1.193-1.18,5.63,5.63,0,0,0,.8-2.454,4.584,4.584,0,0,1,.119-.714,2.3,2.3,0,0,0-.082-.992,8.4,8.4,0,0,0-.34-1.505c-.207-.565-.455-1.1-.673-1.659a7.283,7.283,0,0,0-.859-1.362,3.447,3.447,0,0,0-.964-1.128,5.254,5.254,0,0,0-1.338-.687C650.358,330.546,649.886,330.522,650.7,330.846Z" transform="matrix(0.819, -0.574, 0.574, 0.819, -4833.873, -1522.195)" fill="#b2abc3" fill-rule="evenodd" opacity="0.3" style="mix-blend-mode: multiply;isolation: isolate"/>
    <path id="Path_77759-8" data-name="Path 77759" d="M633.392,336.135c.325-.519.637-1.026.951-1.543.163-.268.3-.608.476-.844a8.945,8.945,0,0,1,1.286-1.157,2.073,2.073,0,0,1,.761-.442c.265-.107.518-.316.789-.4.3-.091.58-.116.873-.211a6.152,6.152,0,0,1,1.077-.287c.384-.044.782.076,1.165.023a8.444,8.444,0,0,1,1.073-.238,9.787,9.787,0,0,1,1.206-.006,9.117,9.117,0,0,0,1.024.239,7.779,7.779,0,0,1,3.6,1.325c.348.192.656.287.993.5a6.1,6.1,0,0,0,1.148.339c.274.1.538,0,.809.1.212.075.416.151.635.222a4.576,4.576,0,0,1,1.117.615,6.427,6.427,0,0,1,1.714,1.605,3.9,3.9,0,0,1,.484,1.1c.07.322-.092,1.428.161,1.483a11.737,11.737,0,0,0,.194-1.533,8.1,8.1,0,0,0-.155-1.666,5.853,5.853,0,0,0-1.024-2.326,5.683,5.683,0,0,0-2.047-1.489c-.43-.243-.823-.55-1.237-.775a6.622,6.622,0,0,0-.99-.56,2.4,2.4,0,0,0-1.412-.005,2.924,2.924,0,0,0-.475.4,1.577,1.577,0,0,1-.543.243c-.177.073-.2.226-.414.216s-.46-.336-.674-.409c-.577-.2-1.145-.408-1.719-.6-.24-.081-.484-.246-.718-.313s-.407,0-.636-.121a4.379,4.379,0,0,0-1.518-.567,11.01,11.01,0,0,0-3.838.62,7.068,7.068,0,0,0-2.234.875,4.035,4.035,0,0,0-1.072,1.659c-.251.627-.447,1.393-.677,2.055A4.184,4.184,0,0,0,633.392,336.135Z" transform="matrix(0.819, -0.574, 0.574, 0.819, -4833.885, -1522.191)" fill="#7f739b" fill-rule="evenodd" opacity="0.3" style="mix-blend-mode: multiply;isolation: isolate"/>
    <path id="Path_77760-8" data-name="Path 77760" d="M634.627,339.979a4.279,4.279,0,0,1,2.242,1.047c.471.476.8,1.231,1.3,1.665a6.61,6.61,0,0,0,2.007,1.225c.378.135.738.262,1.11.436a7.429,7.429,0,0,0,1.444.325,7.916,7.916,0,0,0,1.474.161c.532.044.814.275,1.352.072a19.826,19.826,0,0,1,2.638-.7,5.232,5.232,0,0,0,2.309-1.052c.474-.394,1.308-.806,1.5-1.587-.311-.212-.374.111-.615.188a5.9,5.9,0,0,0-.814.21,6.965,6.965,0,0,1-2.709.668c-.864-.016-1.73.027-2.593,0a4.733,4.733,0,0,1-1.151-.254c-.536-.153-1.052-.187-1.593-.3-1.5-.324-3.053-.258-4.471-.969A7.722,7.722,0,0,0,634.627,339.979Z" transform="matrix(0.819, -0.574, 0.574, 0.819, -4833.642, -1521.918)" fill="#c7ccdb" fill-rule="evenodd" opacity="0.5" style="mix-blend-mode: soft-light;isolation: isolate"/>
    <path id="Path_77758-9" data-name="Path 77758" d="M643.2,330.091a2.936,2.936,0,0,0-1.28-.319,1.571,1.571,0,0,0-.51.213,1.206,1.206,0,0,1-.6.108,3.422,3.422,0,0,1-1.3-.637,4.122,4.122,0,0,0-2.177-.316,4.07,4.07,0,0,0-2.138.848,3.068,3.068,0,0,0-1.131,1.186,3.222,3.222,0,0,0-.344,1.763,2.554,2.554,0,0,0,.259,1.137,3.621,3.621,0,0,0,.6.654,2.682,2.682,0,0,0,.593.487c.247.141.506.219.754.356a12.5,12.5,0,0,0,1.387.714c.141.057.284.164.423.214a5.108,5.108,0,0,1,.512.149,3.169,3.169,0,0,0,1.278.4c.29,0,.543.108.834.1a2.086,2.086,0,0,1,.6.024,5.177,5.177,0,0,0,1.381.084,3.564,3.564,0,0,0,1.539-.4,2.822,2.822,0,0,0,.6-.34,4.782,4.782,0,0,0,.666-.659,3.143,3.143,0,0,0,.444-1.37,2.55,2.55,0,0,1,.066-.4,1.287,1.287,0,0,0-.046-.554,4.692,4.692,0,0,0-.19-.84c-.115-.315-.254-.615-.375-.926a4.068,4.068,0,0,0-.48-.76,1.925,1.925,0,0,0-.538-.63,2.933,2.933,0,0,0-.747-.384C643,329.924,642.739,329.91,643.2,330.091Z" transform="matrix(0.819, -0.574, 0.574, 0.819, -4835.194, -1481.658)" fill="#b2abc3" fill-rule="evenodd" opacity="0.3" style="mix-blend-mode: multiply;isolation: isolate"/>
    <path id="Path_77759-9" data-name="Path 77759" d="M633.375,332.993c.182-.29.356-.573.531-.861.091-.149.167-.34.266-.471a4.989,4.989,0,0,1,.718-.646,1.156,1.156,0,0,1,.425-.247c.148-.06.289-.176.44-.223s.324-.065.487-.118a3.433,3.433,0,0,1,.6-.16c.214-.025.437.043.65.013a4.707,4.707,0,0,1,.6-.133,5.46,5.46,0,0,1,.673,0,5.093,5.093,0,0,0,.572.133,4.342,4.342,0,0,1,2.012.739c.194.107.366.16.554.277a3.407,3.407,0,0,0,.641.189c.153.057.3,0,.452.055.118.042.232.084.355.124a2.553,2.553,0,0,1,.623.343,3.588,3.588,0,0,1,.957.9,2.178,2.178,0,0,1,.27.615c.039.18-.051.8.09.828a6.55,6.55,0,0,0,.108-.856,4.526,4.526,0,0,0-.086-.93,3.266,3.266,0,0,0-.572-1.3,3.171,3.171,0,0,0-1.143-.831c-.24-.136-.459-.307-.69-.433a3.692,3.692,0,0,0-.552-.313,1.341,1.341,0,0,0-.788,0,1.635,1.635,0,0,0-.265.223.881.881,0,0,1-.3.136c-.1.041-.109.126-.231.121s-.257-.187-.376-.228c-.322-.111-.639-.228-.96-.337-.134-.045-.27-.137-.4-.175s-.227,0-.355-.067a2.443,2.443,0,0,0-.847-.317,6.145,6.145,0,0,0-2.142.346,3.945,3.945,0,0,0-1.247.488,2.252,2.252,0,0,0-.6.926c-.14.35-.25.777-.378,1.147A2.336,2.336,0,0,0,633.375,332.993Z" transform="matrix(0.819, -0.574, 0.574, 0.819, -4835.043, -1481.705)" fill="#7f739b" fill-rule="evenodd" opacity="0.3" style="mix-blend-mode: multiply;isolation: isolate"/>
    <path id="Path_77760-9" data-name="Path 77760" d="M634.627,339.979a2.388,2.388,0,0,1,1.251.584c.263.266.448.687.726.93a3.688,3.688,0,0,0,1.12.684c.211.076.412.146.619.243a4.147,4.147,0,0,0,.806.182,4.416,4.416,0,0,0,.823.09c.3.025.454.153.755.04a11.06,11.06,0,0,1,1.472-.389,2.92,2.92,0,0,0,1.289-.587c.265-.22.73-.45.838-.886-.174-.118-.209.062-.343.1a3.291,3.291,0,0,0-.454.117,3.888,3.888,0,0,1-1.512.373c-.482-.009-.965.015-1.447,0a2.64,2.64,0,0,1-.643-.142c-.3-.085-.587-.1-.889-.17a9.9,9.9,0,0,1-2.5-.541A4.31,4.31,0,0,0,634.627,339.979Z" transform="matrix(0.819, -0.574, 0.574, 0.819, -4838.145, -1485.195)" fill="#c7ccdb" fill-rule="evenodd" opacity="0.5" style="mix-blend-mode: soft-light;isolation: isolate"/>
  </g>
</svg>
